<svg xmlns="http://www.w3.org/2000/svg" xmlns:xlink="http://www.w3.org/1999/xlink" width="1316.128" height="497" viewBox="0 0 1316.128 497">
  <defs>
    <linearGradient id="linear-gradient" y1="0.5" x2="1" y2="0.5" gradientUnits="objectBoundingBox">
      <stop offset="0" stop-color="#fff"/>
      <stop offset="1" stop-color="#999" stop-opacity="0.898"/>
    </linearGradient>
    <linearGradient id="linear-gradient-2" x1="-0.293" y1="0.5" x2="1" y2="0.5" gradientUnits="objectBoundingBox">
      <stop offset="0" stop-opacity="0.898"/>
      <stop offset="1" stop-color="#999" stop-opacity="0.898"/>
    </linearGradient>
    <linearGradient id="linear-gradient-3" x1="0.5" y1="1" x2="0.5" y2="0" xlink:href="#linear-gradient-2"/>
  </defs>
  <g id="Group_5943" data-name="Group 5943" transform="translate(-29 -291)">
    <g id="Group_5940" data-name="Group 5940" transform="translate(29 291)">
      <text id="_4_4" data-name="4     4" transform="translate(360.137 0)" fill="#fff" font-size="355" font-family="Poppins-Regular, Poppins"><tspan x="0" y="373" xml:space="preserve">4     4</tspan></text>
      <g id="Group_5934" data-name="Group 5934" transform="translate(0 37.71)">
        <g id="Group_5935" data-name="Group 5935" transform="translate(573.008)" opacity="0.72">
          <g id="Group_5934-2" data-name="Group 5934" transform="translate(0)">
            <path id="Path_7641" data-name="Path 7641" d="M994.849,602.589A245.462,245.462,0,0,1,942.64,754.157H553.885q-1.3-1.656-2.57-3.346-7.3-9.656-13.631-20.028-5.591-9.144-10.385-18.79a245.025,245.025,0,0,1-25.629-109.4C501.67,466.614,612.284,356,748.259,356a245.149,245.149,0,0,1,139.4,43.282c.944.649,1.88,1.3,2.81,1.961C953.568,445.943,994.849,519.539,994.849,602.589Z" transform="translate(-501.67 -356)" stroke="#707070" stroke-width="1" fill="url(#linear-gradient)"/>
            <path id="Path_7642" data-name="Path 7642" d="M1099.778,618.509a245.46,245.46,0,0,1-52.209,151.567H818.84c1.552-1.1,3.1-2.208,4.664-3.346,5.989-4.356,12.032-8.967,18.074-13.845.482-.395.964-.783,1.445-1.171l.77-.629c.221-.181.448-.368.669-.555.482-.388.957-.783,1.439-1.184,25.8-21.353,51.466-47.545,73.415-79.25.468-.676.93-1.352,1.392-2.034q2.268-3.312,4.477-6.719c.535-.823,1.071-1.653,1.593-2.483.294-.455.589-.917.877-1.379.415-.649.823-1.3,1.231-1.967q1.777-2.841,3.5-5.748a341.912,341.912,0,0,0,35.272-81.706q1.987-6.986,3.634-13.872a348.967,348.967,0,0,0,8.191-49.726,373.707,373.707,0,0,0-4.624-100.342c6.069,3.46,12,7.14,17.733,11.081.943.649,1.88,1.3,2.81,1.961C1058.5,461.863,1099.778,535.458,1099.778,618.509Z" transform="translate(-606.599 -371.92)" stroke="#707070" stroke-width="1" opacity="0.75" fill="url(#linear-gradient-2)"/>
          </g>
          <path id="Path_7643" data-name="Path 7643" d="M991.734,839.067a72.863,72.863,0,0,1-17.378,47.344c-.97,1.144-1.974,2.262-3.025,3.346H865.763c-1.051-1.084-2.054-2.2-3.025-3.346-.341-.4-.682-.8-1-1.211-.4-.488-.79-.977-1.171-1.479a72.547,72.547,0,0,1-8-12.955,68.474,68.474,0,0,1-2.7-6.364,69.278,69.278,0,0,1-2.389-7.776,73.311,73.311,0,0,1,12.882-61.945q.913-1.2,1.887-2.369a73.082,73.082,0,0,1,18.014-15.625c1.365-.85,2.77-1.646,4.2-2.389a72.026,72.026,0,0,1,15.833-6.123q2.018-.522,4.089-.923a71.626,71.626,0,0,1,9.355-1.211q2.379-.161,4.811-.161a74.357,74.357,0,0,1,7.669.395c2.008.214,3.988.5,5.942.877.662.114,1.318.248,1.974.395.361.074.723.154,1.077.241.515.121,1.03.241,1.539.375,1.492.381,2.958.81,4.41,1.285A73.2,73.2,0,0,1,991.734,839.067Z" transform="translate(-615.373 -491.6)" fill="#999" stroke="#c1c1c1" stroke-miterlimit="10" stroke-width="3"/>
          <circle id="Ellipse_53" data-name="Ellipse 53" cx="21.622" cy="21.622" r="21.622" transform="translate(180.442 44.582)" stroke="#d1d1d1" stroke-miterlimit="10" stroke-width="1" opacity="0.21" fill="url(#linear-gradient-3)"/>
          <circle id="Ellipse_54" data-name="Ellipse 54" cx="17.118" cy="17.118" r="17.118" transform="translate(94.868 193.211)" stroke="#d1d1d1" stroke-miterlimit="10" stroke-width="1" opacity="0.21" fill="url(#linear-gradient-3)"/>
          <circle id="Ellipse_55" data-name="Ellipse 55" cx="23.874" cy="23.874" r="23.874" transform="translate(94.868 301.305)" stroke="#d1d1d1" stroke-miterlimit="10" stroke-width="1" opacity="0.21" fill="url(#linear-gradient-3)"/>
          <circle id="Ellipse_56" data-name="Ellipse 56" cx="9.237" cy="9.237" r="9.237" transform="translate(36.317 206.723)" stroke="#d1d1d1" stroke-miterlimit="10" stroke-width="1" opacity="0.21" fill="url(#linear-gradient-3)"/>
          <circle id="Ellipse_57" data-name="Ellipse 57" cx="26.126" cy="26.126" r="26.126" transform="translate(335.828 130.156)" fill="#999" stroke="#afafaf" stroke-miterlimit="10" stroke-width="3"/>
        </g>
        <path id="Path_7644" data-name="Path 7644" d="M1334.2,918.062v3.346L18.074,919.436V916.09l1043.863,1.971s12.56-6.275,11.892-6.529,13.222,6.529,13.222,6.529h14.314s13.64-10.572,14-10.93,19.693,8.7,19.693,8.7l24.761-14.72.6,1.071,30.775,15.881,13.189-.66s8.844-18.62,9.775-18.154,6.808,18.813,6.808,18.813l7.156-.66,19.363-24.992,15.547,25.922,13.2-.271,17.055-10.9,19.261,10.9Z" transform="translate(-18.074 -518.812)" fill="#afffa9"/>
        <g id="Group_5936" data-name="Group 5936" transform="translate(1.756 224.815)">
          <path id="Path_7646" data-name="Path 7646" d="M526.459,278.03a2.966,2.966,0,1,0,.861,2.089A2.947,2.947,0,0,0,526.459,278.03Z" transform="translate(-405.413 -245.057)" fill="#fff"/>
          <path id="Path_7647" data-name="Path 7647" d="M526.459,278.03a2.966,2.966,0,1,0,.861,2.089A2.947,2.947,0,0,0,526.459,278.03Z" transform="translate(-405.413 -245.057)" fill="#fff"/>
          <path id="Path_7648" data-name="Path 7648" d="M526.459,278.03a2.966,2.966,0,1,0,.861,2.089A2.947,2.947,0,0,0,526.459,278.03Z" transform="translate(-405.413 -245.057)" fill="#fff"/>
          <path id="Path_7649" data-name="Path 7649" d="M526.459,278.03a2.966,2.966,0,1,0,.861,2.089A2.947,2.947,0,0,0,526.459,278.03Z" transform="translate(-405.413 -245.057)" fill="#fff"/>
          <path id="Path_7650" data-name="Path 7650" d="M425.987,249.067l26.328-3.408a.52.52,0,0,1,.592.457l.834,6.439a.541.541,0,0,1-.457.6l-26.319,3.408a.536.536,0,0,1-.6-.457l-.834-6.448A.52.52,0,0,1,425.987,249.067Z" transform="translate(-395.511 -241.803)" fill="#fff"/>
          <path id="Path_7651" data-name="Path 7651" d="M401.628,258.052l-8.725,1.13a.53.53,0,0,1-.6-.457l-.242-1.883a.533.533,0,0,1,.457-.592l8.725-1.13a.524.524,0,0,1,.6.457l.242,1.883A.533.533,0,0,1,401.628,258.052Z" transform="translate(-392.056 -242.78)" fill="#fff"/>
          <path id="Path_7652" data-name="Path 7652" d="M406.076,257.956l-.556-4.322a.535.535,0,0,1,.457-.6l14.59-1.883a.52.52,0,0,1,.592.457l.565,4.313a.536.536,0,0,1-.457.6l-14.6,1.892A.533.533,0,0,1,406.076,257.956Z" transform="translate(-393.445 -242.37)" fill="#fff"/>
          <path id="Path_7653" data-name="Path 7653" d="M409.047,262.49a.531.531,0,0,1,.35-.852l2.744-.359a.55.55,0,0,1,.493.206l13.353,17.486,1.731,2.251.6.789-2.744,2.089-1.811-2.358-1.731-2.269Z" transform="translate(-393.799 -243.417)" fill="#fff"/>
          <path id="Path_7654" data-name="Path 7654" d="M505.383,318.589l-51.59,88.948a1.236,1.236,0,0,1-2.161-1.2l51.6-88.948a1.224,1.224,0,0,1,1.085-.628,4.811,4.811,0,0,0,.5.323,3.724,3.724,0,0,0,.538.26.978.978,0,0,1,.135.314A1.181,1.181,0,0,1,505.383,318.589Z" transform="translate(-398.192 -249.146)" fill="#fff" stroke="#fff" stroke-miterlimit="10" stroke-width="5"/>
          <path id="Path_7655" data-name="Path 7655" d="M523.04,320.535a1.223,1.223,0,0,1,.637-1.085c.188.018.386.036.592.036s.395-.018.592-.036a1.059,1.059,0,0,1,.287.206,1.241,1.241,0,0,1,.359.87l.036,87.737a1.233,1.233,0,0,1-2.466.009Z" transform="translate(-405.581 -249.424)" fill="#fff" stroke="#fff" stroke-miterlimit="10" stroke-width="5"/>
          <path id="Path_7656" data-name="Path 7656" d="M538.189,316.76a1.21,1.21,0,0,1,1.076.628l37.278,64.251,4.511,7.784,9.81,16.912a1.223,1.223,0,0,1-.475,1.677,1.227,1.227,0,0,1-1.677-.475l-9.586-16.527-42-72.421a1.223,1.223,0,0,1-.117-.933,1.245,1.245,0,0,1,.143-.314,4.931,4.931,0,0,0,.538-.26C537.857,316.984,538.027,316.877,538.189,316.76Z" transform="translate(-407.018 -249.146)" fill="#fff" stroke="#fff" stroke-miterlimit="10" stroke-width="5"/>
          <path id="Path_7657" data-name="Path 7657" d="M534.675,308.149a2.954,2.954,0,0,1-2.959,2.95H514.39a2.955,2.955,0,0,1,0-5.91h17.325A2.962,2.962,0,0,1,534.675,308.149Z" transform="translate(-404.383 -247.951)" fill="#fff"/>
          <path id="Path_7658" data-name="Path 7658" d="M520.05,279.834a4.195,4.195,0,1,1,4.053,4.331A4.2,4.2,0,0,1,520.05,279.834Z" transform="translate(-405.272 -244.915)" fill="#fff"/>
          <path id="Path_7659" data-name="Path 7659" d="M580.329,278.566,522.22,284.9l-2.8-6.385c-.054-.323-.081-.52-.081-.565a6.164,6.164,0,1,0-12.321-.412,6.4,6.4,0,0,0,.26,1.955c-.1.2-3.739,7.434-3.739,7.434L435.7,294.313l-20.912,2.278-1.82-14.133,7.219-.942,1.166-.152.744.968v.009l3.426,4.475,1.829-1.39,4.842-3.695-1.229-1.614,173.5-22.49,27.01-3.5,2.466,18.589Z" transform="translate(-394.215 -242.679)" fill="#fff"/>
          <path id="Path_7660" data-name="Path 7660" d="M695.78,271.123l-33.52,4.349-3.739-28.848,32.884-4.268,7.685-1,.278,2.17,2.412,18.589,1.049,8.089Z" transform="translate(-419.57 -241.36)" fill="#fff"/>
          <path id="Path_7661" data-name="Path 7661" d="M710.185,268.834l-1.291-9.945-1.9-14.733-.242-1.865a3.107,3.107,0,0,1,1.686,2.188c0,.018.009.036.009.054l1.623,12.51,1.193,9.183A3.164,3.164,0,0,1,710.185,268.834Z" transform="translate(-424.551 -241.456)" fill="#fff"/>
          <path id="Path_7662" data-name="Path 7662" d="M526.459,282.209a2.955,2.955,0,1,0-2.1.87A2.955,2.955,0,0,0,526.459,282.209Z" transform="translate(-405.413 -245.057)" fill="#fff"/>
          <path id="Path_7663" data-name="Path 7663" d="M526.459,278.03a2.966,2.966,0,1,0,.861,2.089A2.947,2.947,0,0,0,526.459,278.03Z" transform="translate(-405.413 -245.057)" fill="#fff"/>
          <path id="Path_7664" data-name="Path 7664" d="M526.459,278.03a2.966,2.966,0,1,0,.861,2.089A2.947,2.947,0,0,0,526.459,278.03Z" transform="translate(-405.413 -245.057)" fill="#fff"/>
        </g>
      </g>
    </g>
  </g>
</svg>
