<svg xmlns="http://www.w3.org/2000/svg" xmlns:xlink="http://www.w3.org/1999/xlink" width="302.162" height="300.847" viewBox="0 0 302.162 300.847">
  <defs>
    <linearGradient id="linear-gradient" y1="0.5" x2="1" y2="0.5" gradientUnits="objectBoundingBox">
      <stop offset="0" stop-color="#fff"/>
      <stop offset="1" stop-color="#999" stop-opacity="0.898"/>
    </linearGradient>
    <linearGradient id="linear-gradient-2" x1="-0.293" y1="0.5" x2="1" y2="0.5" gradientUnits="objectBoundingBox">
      <stop offset="0" stop-opacity="0.898"/>
      <stop offset="1" stop-color="#999" stop-opacity="0.898"/>
    </linearGradient>
    <linearGradient id="linear-gradient-3" x1="0.5" y1="1" x2="0.5" y2="0" xlink:href="#linear-gradient-2"/>
  </defs>
  <g id="Group_5946" data-name="Group 5946" transform="translate(-44 -382.154)">
    <g id="Group_5944" data-name="Group 5944" transform="translate(-818.709 124.001)">
      <g id="Group_5940" data-name="Group 5940" transform="translate(522 423)">
        <text id="_4_4" data-name="4     4" transform="translate(360.137 0)" fill="#fff" font-size="97" font-family="Poppins-Regular, Poppins" letter-spacing="0.024em"><tspan x="0" y="102" xml:space="preserve">4     4</tspan></text>
        <g id="Group_5934" data-name="Group 5934" transform="translate(247 10.71)">
          <g id="Group_5935" data-name="Group 5935" transform="translate(169.013 -24.447)" opacity="0.72">
            <g id="Group_5934-2" data-name="Group 5934" transform="translate(-0.001)">
              <path id="Path_7641" data-name="Path 7641" d="M652.226,431.278a74.933,74.933,0,0,1-15.938,46.27H517.61q-.4-.506-.784-1.021-2.228-2.948-4.161-6.114-1.707-2.791-3.17-5.736A75.25,75.25,0,0,1,619.5,369.213c.288.2.574.4.858.6A75.249,75.249,0,0,1,652.226,431.278Z" transform="translate(-501.67 -356)" stroke="#707070" stroke-width="1" fill="url(#linear-gradient)"/>
              <path id="Path_7642" data-name="Path 7642" d="M904.6,469.568a74.933,74.933,0,0,1-15.938,46.27H818.84q.711-.5,1.424-1.021c1.828-1.33,3.673-2.737,5.518-4.227.147-.121.294-.239.441-.357l.235-.192c.067-.055.137-.112.2-.17.147-.118.292-.239.439-.362a120.831,120.831,0,0,0,22.412-24.193c.143-.206.284-.413.425-.621q.693-1.011,1.367-2.051c.163-.251.327-.5.486-.758.09-.139.18-.28.268-.421.127-.2.251-.4.376-.6q.542-.867,1.068-1.755a104.376,104.376,0,0,0,10.768-24.943q.607-2.133,1.109-4.235a106.537,106.537,0,0,0,2.5-15.18,114.086,114.086,0,0,0-1.412-30.632c1.853,1.056,3.663,2.18,5.413,3.383.288.2.574.4.858.6A75.249,75.249,0,0,1,904.6,469.568Z" transform="translate(-754.048 -394.29)" stroke="#707070" stroke-width="1" opacity="0.75" fill="url(#linear-gradient-2)"/>
            </g>
            <path id="Path_7643" data-name="Path 7643" d="M890.045,788.222a22.244,22.244,0,0,1-5.305,14.453c-.3.349-.6.69-.923,1.021H851.589c-.321-.331-.627-.672-.923-1.021-.1-.123-.208-.245-.306-.37-.123-.149-.241-.3-.357-.451a22.144,22.144,0,0,1-2.441-3.955,20.868,20.868,0,0,1-.823-1.943,21.145,21.145,0,0,1-.729-2.374,22.381,22.381,0,0,1,3.932-18.91q.279-.368.576-.723a22.311,22.311,0,0,1,5.5-4.77c.417-.259.846-.5,1.281-.729a21.989,21.989,0,0,1,4.833-1.869q.616-.159,1.248-.282a21.859,21.859,0,0,1,2.856-.37q.726-.049,1.469-.049a22.711,22.711,0,0,1,2.341.12c.613.065,1.218.153,1.814.268.2.035.4.076.6.121.11.022.221.047.329.073.157.037.315.074.47.114.456.116.9.247,1.346.392A22.348,22.348,0,0,1,890.045,788.222Z" transform="translate(-775.151 -682.149)" fill="#999" stroke="#c1c1c1" stroke-miterlimit="10" stroke-width="3"/>
            <ellipse id="Ellipse_53" data-name="Ellipse 53" cx="6.601" cy="6.601" rx="6.601" ry="6.601" transform="translate(55.084 13.61)" stroke="#d1d1d1" stroke-miterlimit="10" stroke-width="1" opacity="0.21" fill="url(#linear-gradient-3)"/>
            <ellipse id="Ellipse_54" data-name="Ellipse 54" cx="5.226" cy="5.226" rx="5.226" ry="5.226" transform="translate(28.96 58.983)" stroke="#d1d1d1" stroke-miterlimit="10" stroke-width="1" opacity="0.21" fill="url(#linear-gradient-3)"/>
            <ellipse id="Ellipse_55" data-name="Ellipse 55" cx="7.288" cy="7.288" rx="7.288" ry="7.288" transform="translate(28.96 91.981)" stroke="#d1d1d1" stroke-miterlimit="10" stroke-width="1" opacity="0.21" fill="url(#linear-gradient-3)"/>
            <ellipse id="Ellipse_56" data-name="Ellipse 56" cx="2.82" cy="2.82" rx="2.82" ry="2.82" transform="translate(11.086 63.108)" stroke="#d1d1d1" stroke-miterlimit="10" stroke-width="1" opacity="0.21" fill="url(#linear-gradient-3)"/>
            <ellipse id="Ellipse_57" data-name="Ellipse 57" cx="7.976" cy="7.976" rx="7.976" ry="7.976" transform="translate(102.52 39.734)" fill="#999" stroke="#afafaf" stroke-miterlimit="10" stroke-width="3"/>
          </g>
          <path id="Path_7644" data-name="Path 7644" d="M435.816,900.241v1.021l-302.162.031v-1.021l219.045-.031a34.457,34.457,0,0,0,3.63-1.993c-.2-.077,4.036,1.993,4.036,1.993h4.37s4.164-3.227,4.273-3.337,6.012,2.655,6.012,2.655l7.559-4.494.182.327,9.395,4.848,4.026-.2s2.7-5.684,2.984-5.542a56.816,56.816,0,0,1,2.078,5.743l2.185-.2,5.911-7.629,4.746,7.914,4.03-.083,5.207-3.328,5.88,3.328Z" transform="translate(-39.946 -802.806)" fill="#afffa9"/>
        </g>
      </g>
    </g>
    <g id="Group_5945" data-name="Group 5945" transform="translate(74 382.154)">
      <path id="Path_7646" data-name="Path 7646" d="M525.674,277.895a2.5,2.5,0,1,0,.727,1.765A2.488,2.488,0,0,0,525.674,277.895Z" transform="translate(-423.439 -250.046)" fill="#fff"/>
      <path id="Path_7647" data-name="Path 7647" d="M525.674,277.895a2.5,2.5,0,1,0,.727,1.765A2.488,2.488,0,0,0,525.674,277.895Z" transform="translate(-423.439 -250.046)" fill="#fff"/>
      <path id="Path_7648" data-name="Path 7648" d="M525.674,277.895a2.5,2.5,0,1,0,.727,1.765A2.488,2.488,0,0,0,525.674,277.895Z" transform="translate(-423.439 -250.046)" fill="#fff"/>
      <path id="Path_7649" data-name="Path 7649" d="M525.674,277.895a2.5,2.5,0,1,0,.727,1.765A2.488,2.488,0,0,0,525.674,277.895Z" transform="translate(-423.439 -250.046)" fill="#fff"/>
      <path id="Path_7650" data-name="Path 7650" d="M425.915,248.536l22.237-2.878a.439.439,0,0,1,.5.386l.7,5.438a.457.457,0,0,1-.386.507l-22.229,2.878a.453.453,0,0,1-.508-.386l-.7-5.446A.439.439,0,0,1,425.915,248.536Z" transform="translate(-400.175 -242.402)" fill="#fff"/>
      <path id="Path_7651" data-name="Path 7651" d="M400.14,257.6l-7.369.954a.448.448,0,0,1-.507-.386l-.2-1.591a.45.45,0,0,1,.386-.5l7.369-.954a.442.442,0,0,1,.508.386l.2,1.591A.45.45,0,0,1,400.14,257.6Z" transform="translate(-392.056 -244.697)" fill="#fff"/>
      <path id="Path_7652" data-name="Path 7652" d="M405.988,256.9l-.47-3.651a.452.452,0,0,1,.386-.508l12.323-1.591a.439.439,0,0,1,.5.386l.477,3.643a.453.453,0,0,1-.386.507l-12.33,1.6A.45.45,0,0,1,405.988,256.9Z" transform="translate(-395.321 -243.733)" fill="#fff"/>
      <path id="Path_7653" data-name="Path 7653" d="M409.03,262.3a.448.448,0,0,1,.3-.72l2.318-.3a.464.464,0,0,1,.417.174l11.278,14.769,1.462,1.9.507.667-2.318,1.765-1.53-1.992L420,276.647Z" transform="translate(-396.151 -246.192)" fill="#fff"/>
      <path id="Path_7654" data-name="Path 7654" d="M497.007,318.305,453.434,393.43a1.044,1.044,0,0,1-1.825-1.015l43.58-75.125a1.034,1.034,0,0,1,.917-.53,4.067,4.067,0,0,0,.424.273,3.148,3.148,0,0,0,.455.22.827.827,0,0,1,.114.265A1,1,0,0,1,497.007,318.305Z" transform="translate(-406.473 -259.653)" fill="#fff" stroke="#fff" stroke-miterlimit="10" stroke-width="5"/>
      <path id="Path_7655" data-name="Path 7655" d="M523.04,320.366a1.033,1.033,0,0,1,.538-.916c.159.015.326.03.5.03s.333-.015.5-.03a.893.893,0,0,1,.242.174,1.049,1.049,0,0,1,.3.735l.03,74.1a1.041,1.041,0,1,1-2.083.008Z" transform="translate(-423.834 -260.306)" fill="#fff" stroke="#fff" stroke-miterlimit="10" stroke-width="5"/>
      <path id="Path_7656" data-name="Path 7656" d="M538,316.76a1.022,1.022,0,0,1,.909.53l31.485,54.267,3.81,6.574,8.286,14.284a1.033,1.033,0,0,1-.4,1.416,1.037,1.037,0,0,1-1.416-.4l-8.1-13.959L537.1,318.305a1.033,1.033,0,0,1-.1-.788,1.052,1.052,0,0,1,.121-.265,4.166,4.166,0,0,0,.454-.22A5.022,5.022,0,0,0,538,316.76Z" transform="translate(-427.211 -259.653)" fill="#fff" stroke="#fff" stroke-miterlimit="10" stroke-width="5"/>
      <path id="Path_7657" data-name="Path 7657" d="M531.064,307.689a2.5,2.5,0,0,1-2.5,2.492H513.932a2.5,2.5,0,0,1,0-4.991h14.633A2.5,2.5,0,0,1,531.064,307.689Z" transform="translate(-421.02 -256.846)" fill="#fff"/>
      <path id="Path_7658" data-name="Path 7658" d="M520.05,279.205a3.543,3.543,0,1,1,3.423,3.658A3.545,3.545,0,0,1,520.05,279.205Z" transform="translate(-423.108 -249.712)" fill="#fff"/>
      <path id="Path_7659" data-name="Path 7659" d="M554.321,274.769l-49.079,5.347-2.363-5.393c-.045-.273-.068-.439-.068-.477A5.206,5.206,0,1,0,492.4,273.9a5.4,5.4,0,0,0,.22,1.651l-3.158,6.279-57.3,6.241-17.662,1.924-1.537-11.936,6.1-.8.985-.129.629.818v.008l2.893,3.779,1.545-1.174,4.09-3.12-1.038-1.363,146.539-19,22.813-2.954,2.083,15.7Z" transform="translate(-397.13 -244.458)" fill="#fff"/>
      <path id="Path_7660" data-name="Path 7660" d="M689.99,266.5l-28.311,3.673-3.158-24.365,27.773-3.605,6.491-.841.235,1.833,2.037,15.7.886,6.832Z" transform="translate(-456.703 -241.36)" fill="#fff"/>
      <path id="Path_7661" data-name="Path 7661" d="M709.651,264.709l-1.091-8.4-1.606-12.444-.2-1.575a2.624,2.624,0,0,1,1.424,1.848c0,.015.008.03.008.045l1.371,10.566,1.007,7.756A2.672,2.672,0,0,1,709.651,264.709Z" transform="translate(-468.404 -241.586)" fill="#fff"/>
      <path id="Path_7662" data-name="Path 7662" d="M525.674,281.424a2.5,2.5,0,1,0-1.772.735A2.5,2.5,0,0,0,525.674,281.424Z" transform="translate(-423.439 -250.046)" fill="#fff"/>
      <path id="Path_7663" data-name="Path 7663" d="M525.674,277.895a2.5,2.5,0,1,0,.727,1.765A2.488,2.488,0,0,0,525.674,277.895Z" transform="translate(-423.439 -250.046)" fill="#fff"/>
      <path id="Path_7664" data-name="Path 7664" d="M525.674,277.895a2.5,2.5,0,1,0,.727,1.765A2.488,2.488,0,0,0,525.674,277.895Z" transform="translate(-423.439 -250.046)" fill="#fff"/>
    </g>
  </g>
</svg>
