<svg xmlns="http://www.w3.org/2000/svg" width="249" height="456" viewBox="0 0 249 456">
  <g id="appdev" transform="translate(-796.682 -584)">
    <g id="Group_5730" data-name="Group 5730">
      <path id="Path_7363" data-name="Path 7363" d="M888.182,608h66a2,2,0,0,0,0-4h-66a2,2,0,0,0,0,4Z" fill="#fff"/>
      <path id="Path_7364" data-name="Path 7364" d="M948.151,1008h-55a7.5,7.5,0,0,0,0,15h55a7.5,7.5,0,0,0,0-15Z" fill="#fff"/>
      <path id="Path_7365" data-name="Path 7365" d="M1042.682,664a2.95,2.95,0,0,0-.861.141V619.9c0-19.8-14.56-35.9-32.46-35.9H831.951c-17.9,0-32.47,16.1-32.47,35.9v47.62a2.991,2.991,0,0,0-2.8,2.98V690a2.991,2.991,0,0,0,2.8,2.98v5.54a2.991,2.991,0,0,0-2.8,2.98V721a2.991,2.991,0,0,0,2.8,2.98V1004.1c0,19.8,14.57,35.9,32.47,35.9h177.41c17.9,0,32.46-16.1,32.46-35.9V714.859a2.95,2.95,0,0,0,.861.141,3,3,0,0,0,3-3V667A3,3,0,0,0,1042.682,664Zm-5.381,340.1c0,17.07-12.51,30.9-27.94,30.9H831.951c-15.43,0-27.94-13.83-27.94-30.9V619.9c0-17.07,12.51-30.9,27.94-30.9h177.41c15.43,0,27.94,13.83,27.94,30.9Z" fill="#fff"/>
      <circle id="Ellipse_41" data-name="Ellipse 41" cx="58" cy="58" r="58" transform="translate(863.041 747.36)" fill="#fff"/>
      <g id="Group_5729" data-name="Group 5729" opacity="0.56">
        <path id="Path_7366" data-name="Path 7366" d="M951.4,805.36c4.175-3.916,7.07-7.4,7.07-9.533a6.9,6.9,0,0,0-2.467-4.9,6.979,6.979,0,0,0-1.754-5.291c-1.509-1.509-6.019-1.925-11.74-1.742.184-5.721-.233-10.231-1.741-11.739a36.016,36.016,0,0,1-10.191-4.221c-2.133,0-5.617,2.9-9.532,7.07-3.916-4.175-7.4-7.07-9.533-7.07a6.894,6.894,0,0,0-4.9,2.467,6.983,6.983,0,0,0-5.292,1.754c-1.508,1.508-1.924,6.019-1.741,11.74-5.721-.183-10.231.233-11.74,1.741a35.951,35.951,0,0,1-4.22,10.19c0,2.133,2.895,5.617,7.07,9.533-4.175,3.916-7.07,7.4-7.07,9.533a35.951,35.951,0,0,1,4.22,10.19c1.292,1.291,4.78,1.783,9.346,1.783.769,0,1.57-.015,2.394-.041-.183,5.721.233,10.231,1.741,11.739a6.825,6.825,0,0,0,5.014,1.765c.09,0,.186-.009.278-.011a6.894,6.894,0,0,0,4.9,2.467c2.133,0,5.617-2.895,9.533-7.07,3.915,4.175,7.4,7.07,9.532,7.07a6.918,6.918,0,0,0,4.931-2.5c.1,0,.207.009.308.009a6.751,6.751,0,0,0,4.952-1.729c1.508-1.508,1.925-6.018,1.741-11.739.825.026,1.626.041,2.394.041,4.565,0,8.055-.493,9.346-1.783A6.979,6.979,0,0,0,956,819.792a6.9,6.9,0,0,0,2.467-4.9C958.466,812.76,955.571,809.276,951.4,805.36Zm6.485-9.533c0,1.994-2.821,5.343-6.9,9.144l-.059-.055c.913-1.54,1.726-3.057,2.417-4.533a26.126,26.126,0,0,0,2.627-8.736A6.146,6.146,0,0,1,957.881,795.827Zm-22.595,43.921c-3.555-.134-8.242-1.884-13.405-4.942.241-.263.482-.53.726-.8a81.791,81.791,0,0,0,7.9-5.816,81.988,81.988,0,0,0,9.574-1.471q.6.033,1.186.06C939.78,832.588,937.705,837.14,935.286,839.748Zm-28.5-.011c-2.415-2.61-4.487-7.156-5.973-12.96q.586-.027,1.186-.06a81.985,81.985,0,0,0,9.589,1.473,81.945,81.945,0,0,0,7.82,5.74c.264.295.525.584.786.869-1.487.877-2.952,1.661-4.378,2.328A24.487,24.487,0,0,1,906.786,839.737Zm0-68.754a24.526,24.526,0,0,1,9.03,2.61c1.426.667,2.891,1.451,4.378,2.328q-.393.429-.789.872a82.062,82.062,0,0,0-7.82,5.737A82.176,82.176,0,0,0,902,784q-.6-.033-1.184-.06C902.3,778.14,904.371,773.593,906.786,770.983Zm28.5-.014c2.42,2.608,4.5,7.161,5.986,12.974q-.586.027-1.187.06a81.98,81.98,0,0,0-9.574-1.471,81.79,81.79,0,0,0-7.9-5.816q-.367-.41-.729-.806C927.041,772.852,931.727,771.1,935.283,770.969Zm6.224,54.858c-.452.108-.91.214-1.376.315-2.106-.124-4.338-.314-6.615-.547q2.012-1.809,3.982-3.777h0q1.965-1.965,3.777-3.982c.233,2.277.423,4.508.547,6.613Q941.671,825.148,941.507,825.827ZM921.034,834.3c-.4-.243-.792-.491-1.192-.748-1.4-1.578-2.847-3.291-4.292-5.066q2.69.145,5.491.149t5.49-.149c-1.44,1.769-2.879,3.476-4.277,5.049Q921.642,833.928,921.034,834.3Zm-20.46-8.473c-.108-.453-.214-.911-.316-1.378.125-2.107.315-4.341.548-6.619q1.8,2,3.777,3.987h0q1.979,1.98,3.989,3.777c-2.279.234-4.512.424-6.619.548C901.486,826.041,901.028,825.935,900.574,825.827ZM892.1,805.36c.244-.4.493-.795.751-1.2,1.578-1.4,3.292-2.847,5.068-4.293q-.145,2.688-.149,5.49t.149,5.49c-1.776-1.446-3.49-2.891-5.068-4.293C892.589,806.155,892.34,805.757,892.1,805.36Zm8.478-20.467c.451-.108.907-.213,1.371-.314,2.111.124,4.344.312,6.626.546q-2,1.8-3.987,3.777h0q-1.979,1.978-3.777,3.987c-.233-2.278-.423-4.512-.548-6.619C900.36,785.8,900.466,785.346,900.574,784.893Zm20.46-8.473q.608.372,1.22.765c1.4,1.573,2.837,3.28,4.277,5.049q-2.688-.145-5.49-.149t-5.491.149c1.446-1.776,2.89-3.489,4.293-5.067C920.242,776.91,920.639,776.663,921.034,776.42Zm20.473,8.473q.164.68.316,1.379c-.124,2.105-.314,4.336-.547,6.613q-1.809-2.012-3.777-3.982h0q-1.965-1.966-3.982-3.777c2.277-.234,4.509-.423,6.615-.547C940.6,784.679,941.055,784.785,941.507,784.893Zm2,13.677q-1.031-.829-2.077-1.654.157-1.322.3-2.64.812.929,1.588,1.86C943.387,796.936,943.448,797.75,943.5,798.57Zm.456-1.644c1.458,1.795,2.806,3.594,4.028,5.376-1.239-1.07-2.539-2.153-3.87-3.234Q944.05,797.985,943.959,796.926Zm-9.306,22.046c1.053-.781,2.129-1.589,3.215-2.415-.436,2.48-.762,4.2-.869,4.762-.56.107-2.282.432-4.762.869C933.063,821.1,933.871,820.026,934.653,818.972Zm-3.285,3.367q-.826.144-1.738.3c1.062-.763,2.188-1.578,3.355-2.435Q932.188,821.263,931.368,822.339Zm4.515-5.034c.857-1.168,1.672-2.293,2.435-3.355q-.154.912-.3,1.738Q936.945,816.508,935.883,817.3Zm-1.659,1.239c-2.118,1.571-4.136,3.034-5.934,4.319-2.179.363-4.64.755-7.247,1.141-2.609-.386-5.071-.779-7.252-1.141-1.8-1.286-3.817-2.749-5.934-4.32-1.571-2.117-3.034-4.135-4.319-5.933-.362-2.18-.755-4.642-1.141-7.25.386-2.608.779-5.07,1.141-7.25,1.285-1.8,2.748-3.816,4.319-5.933,2.118-1.571,4.136-3.034,5.935-4.32,2.18-.362,4.641-.755,7.249-1.141,2.608.386,5.069.779,7.249,1.141,1.8,1.285,3.816,2.748,5.934,4.319,1.571,2.118,3.034,4.136,4.319,5.934.363,2.18.755,4.642,1.142,7.25-.387,2.608-.779,5.07-1.142,7.25C937.258,814.408,935.795,816.426,934.224,818.544Zm-17.165,6.632c1.352-.184,2.684-.373,3.981-.565,1.3.192,2.63.382,3.982.565-2.062,1.445-3.51,2.433-3.981,2.753C920.569,827.609,919.121,826.621,917.059,825.176Zm-.721-.507q-.684-.481-1.44-1.018c1.291.212,2.664.431,4.094.651Q917.68,824.49,916.338,824.669Zm6.753-.367c1.43-.22,2.8-.439,4.093-.651q-.756.535-1.44,1.018Q924.4,824.489,923.091,824.3Zm-15.663-5.33c.782,1.053,1.589,2.129,2.416,3.215-2.48-.436-4.2-.761-4.762-.868-.107-.56-.432-2.283-.869-4.763C905.3,817.383,906.375,818.19,907.428,818.972Zm-3.366-3.285q-.144-.825-.3-1.737c.763,1.062,1.578,2.187,2.434,3.354Q905.138,816.509,904.062,815.687Zm5.033,4.515c1.168.857,2.294,1.673,3.357,2.436q-.914-.156-1.739-.3Q909.893,821.264,909.095,820.2Zm-7.3-14.842c-.192,1.3-.382,2.629-.565,3.982-1.446-2.062-2.433-3.511-2.754-3.982.321-.471,1.308-1.92,2.754-3.982C901.408,802.731,901.6,804.063,901.79,805.36Zm-.058-4.7q.483-.684,1.018-1.44c-.212,1.291-.431,2.663-.651,4.094Q901.913,802,901.732,800.656Zm.367,6.754c.22,1.431.439,2.8.651,4.094q-.537-.756-1.018-1.44Q901.912,808.723,902.1,807.41Zm5.329-15.662c-1.053.782-2.129,1.589-3.215,2.416.437-2.48.762-4.2.869-4.763.56-.107,2.282-.432,4.762-.868C909.017,789.619,908.21,790.7,907.428,791.748Zm3.285-3.367q.826-.144,1.739-.3c-1.063.763-2.189,1.579-3.357,2.436Q909.891,789.457,910.713,788.381Zm-4.516,5.035c-.856,1.167-1.671,2.292-2.434,3.354q.156-.912.3-1.737Q905.136,794.213,906.2,793.416Zm18.824-7.872c-1.352.183-2.685.373-3.982.565-1.3-.192-2.628-.381-3.98-.565,2.062-1.445,3.51-2.433,3.982-2.753C921.512,783.111,922.96,784.1,925.021,785.544Zm.723.507q.685.483,1.44,1.018c-1.291-.212-2.663-.431-4.094-.651Q924.4,786.232,925.744,786.051Zm-6.756.367c-1.43.22-2.8.439-4.089.651q.754-.535,1.438-1.017Q917.676,786.231,918.988,786.418Zm15.665,5.33c-.782-1.054-1.589-2.13-2.416-3.215,2.476.435,4.2.761,4.762.868.107.56.433,2.282.869,4.762C936.782,793.337,935.706,792.529,934.653,791.748Zm3.366,3.284q.144.827.3,1.738c-.763-1.062-1.578-2.187-2.435-3.355Q936.944,794.211,938.019,795.032Zm-5.034-4.515c-1.167-.856-2.292-1.672-3.355-2.434q.912.154,1.738.3Q932.188,789.455,932.985,790.517Zm7,16.893q.188,1.313.367,2.653-.481.686-1.018,1.44C939.543,810.213,939.763,808.841,939.982,807.41Zm.309-2.05c.192-1.3.382-2.629.566-3.981,1.445,2.062,2.433,3.51,2.753,3.981-.32.471-1.308,1.919-2.753,3.981C940.673,807.989,940.483,806.657,940.291,805.36Zm-.309-2.05c-.219-1.431-.439-2.8-.651-4.093q.537.754,1.018,1.44Q940.169,802,939.982,803.31Zm-.873-5.434c-.136-.813-.268-1.585-.394-2.311q1.039.8,2.079,1.613c-.106.872-.216,1.744-.33,2.61Q939.828,798.885,939.109,797.876Zm-.546-3.182c-.377-2.147-.685-3.8-.865-4.754q1.816,1.847,3.5,3.734-.15,1.4-.317,2.812Q939.721,795.581,938.563,794.694Zm-6.857-6.857q-.885-1.155-1.791-2.313,1.409-.168,2.812-.317,1.884,1.676,3.734,3.5C935.51,788.522,933.853,788.214,931.706,787.837Zm-.871-.151q-1.089-.189-2.31-.394-1.008-.719-1.913-1.356,1.3-.169,2.611-.329Q930.034,786.645,930.835,787.686Zm-4.947-2.258c-1.784-1.252-3.173-2.206-3.973-2.75q2.6.021,5.113.168.883,1.095,1.764,2.212C927.82,785.176,926.85,785.3,925.888,785.428Zm-9.7,0q-1.445-.19-2.9-.369.878-1.116,1.764-2.213,2.505-.147,5.113-.168C919.367,783.223,917.977,784.176,916.193,785.428Zm-.724.509q-.9.636-1.911,1.354c-.813.136-1.586.268-2.312.394q.8-1.038,1.612-2.078Q914.168,785.766,915.469,785.937Zm-5.094,1.9c-2.149.377-3.807.686-4.757.866q1.855-1.825,3.733-3.495,1.4.148,2.815.316Q911.261,786.68,910.375,787.837Zm-6.857,6.858q-1.155.885-2.314,1.791-.166-1.41-.316-2.812,1.667-1.874,3.495-3.734C904.2,790.891,903.9,792.548,903.518,794.7Zm-.152.87c-.125.726-.257,1.5-.394,2.311q-.717,1.007-1.355,1.912c-.113-.866-.223-1.738-.329-2.61Q902.324,796.365,903.366,795.565Zm-2.257,4.946c-1.252,1.785-2.205,3.174-2.75,3.974.014-1.736.07-3.443.168-5.112q1.1-.885,2.212-1.765Q900.917,799.066,901.109,800.511Zm0,9.7q-.192,1.443-.37,2.9-1.115-.879-2.212-1.765c-.1-1.669-.154-3.376-.168-5.112C898.9,807.035,899.857,808.424,901.109,810.209Zm.508.723q.637.9,1.355,1.912c.137.813.269,1.585.394,2.311q-1.04-.8-2.078-1.613C901.394,812.67,901.5,811.8,901.617,810.932Zm1.9,5.093c.377,2.147.685,3.8.865,4.755q-1.825-1.857-3.495-3.734.148-1.4.316-2.812Q902.36,815.138,903.518,816.025Zm6.857,6.858q.885,1.155,1.792,2.314-1.41.168-2.811.317-1.875-1.668-3.735-3.5C906.571,822.2,908.228,822.506,910.375,822.883Zm.871.152c.726.125,1.5.257,2.312.394q1.007.717,1.912,1.355-1.3.171-2.611.33Q912.046,824.076,911.246,823.035Zm4.947,2.257c1.784,1.252,3.174,2.206,3.973,2.75q-2.6-.021-5.113-.168-.883-1.1-1.764-2.212C914.261,825.544,915.231,825.419,916.193,825.292Zm9.7,0q1.443.192,2.9.37-.879,1.115-1.764,2.212-2.505.147-5.113.168C922.715,827.5,924.1,826.544,925.889,825.292Zm.723-.509q.9-.636,1.912-1.355c.812-.136,1.586-.268,2.311-.394q-.8,1.039-1.612,2.079C928.351,825.007,927.479,824.9,926.612,824.783Zm5.094-1.9c2.148-.377,3.8-.686,4.755-.866q-1.848,1.816-3.734,3.5-1.4-.148-2.812-.317Q930.82,824.041,931.706,822.883Zm6.857-6.857q1.155-.885,2.314-1.792.168,1.41.317,2.812-1.677,1.884-3.5,3.734C937.878,819.83,938.186,818.173,938.563,816.026Zm.152-.871c.126-.726.258-1.5.394-2.311q.717-1.007,1.355-1.912c.114.866.224,1.738.33,2.61Q939.756,814.355,938.715,815.155Zm2.258-4.947c1.251-1.784,2.2-3.173,2.749-3.973q-.021,2.6-.168,5.113-1.1.883-2.212,1.764C941.224,812.14,941.1,811.17,940.973,810.208Zm0-9.7c.127-.962.251-1.932.369-2.9q1.115.879,2.212,1.764.147,2.5.168,5.113C943.178,803.685,942.224,802.3,940.973,800.512Zm.835-7.025c.177-1.707.33-3.4.45-5.03.39,2.106.709,4.33.95,6.648Q942.521,794.294,941.808,793.487Zm-8.895-8.9q-.807-.714-1.617-1.4c2.318.241,4.541.56,6.647.95C936.308,784.262,934.621,784.415,932.913,784.592Zm-.789.083q-1.317.143-2.64.3-.824-1.044-1.654-2.076c.82.054,1.634.116,2.435.19Q931.2,783.862,932.124,784.675Zm-4.792-2.392c-1.081-1.331-2.165-2.631-3.235-3.871,1.783,1.223,3.582,2.571,5.378,4.029Q928.415,782.351,927.332,782.283Zm-12.583,0q-1.085.067-2.146.159c1.816-1.476,3.622-2.827,5.394-4.045C916.923,779.642,915.834,780.947,914.749,782.283Zm-.5.615q-.829,1.031-1.654,2.077-1.323-.157-2.641-.3.932-.815,1.863-1.589C912.619,783.014,913.432,782.952,914.251,782.9Zm-5.079,1.7c-1.71-.177-3.4-.33-5.037-.45,2.111-.391,4.339-.711,6.663-.952Q909.985,783.877,909.172,784.593Zm-8.9,8.9q-.717.812-1.4,1.625c.241-2.323.561-4.551.952-6.661C899.944,790.093,900.1,791.782,900.274,793.492Zm.083.785q.141,1.317.3,2.64-1.046.822-2.078,1.654c.055-.821.117-1.636.191-2.437C899.283,795.516,899.815,794.9,900.357,794.277Zm-2.393,4.791c-1.334,1.084-2.637,2.17-3.88,3.243,1.216-1.769,2.565-3.571,4.038-5.384Q898.032,797.987,897.964,799.068Zm0,12.584q.067,1.082.158,2.141c-1.473-1.813-2.822-3.615-4.038-5.384C895.327,809.482,896.63,810.568,897.964,811.652Zm.614.5q1.031.831,2.078,1.654-.157,1.322-.3,2.64c-.542-.62-1.074-1.239-1.588-1.857C898.7,813.785,898.633,812.97,898.578,812.149Zm1.7,5.079c-.177,1.71-.33,3.4-.45,5.036-.391-2.11-.711-4.338-.952-6.661Q899.557,816.416,900.274,817.228Zm8.9,8.9q.812.715,1.624,1.4c-2.322-.24-4.548-.56-6.657-.951C905.773,826.457,907.462,826.3,909.17,826.128Zm.789-.084c.877-.094,1.758-.194,2.638-.3q.824,1.046,1.654,2.077c-.82-.055-1.635-.116-2.435-.19C911.2,827.118,910.578,826.586,909.959,826.044Zm4.79,2.393c1.083,1.333,2.169,2.635,3.241,3.878-1.768-1.216-3.569-2.564-5.381-4.036Q913.668,828.369,914.749,828.437Zm12.583,0q1.083-.067,2.143-.158c-1.8,1.458-3.595,2.806-5.378,4.029C925.167,831.068,926.251,829.768,927.332,828.437Zm.5-.615q.829-1.029,1.654-2.077,1.321.157,2.64.3-.929.812-1.859,1.587C929.464,827.706,928.65,827.768,927.83,827.822Zm5.083-1.694c1.708.177,3.4.329,5.032.449-2.107.391-4.331.71-6.649.951Q932.106,826.841,932.913,826.128Zm8.895-8.9q.714-.807,1.4-1.618c-.241,2.318-.56,4.542-.95,6.648C942.138,820.628,941.985,818.94,941.808,817.233Zm-.083-.789q-.141-1.317-.3-2.64,1.045-.824,2.077-1.654c-.055.82-.116,1.634-.19,2.434Q942.539,815.516,941.725,816.444Zm2.392-4.792c1.331-1.081,2.631-2.164,3.87-3.234-1.222,1.782-2.57,3.581-4.028,5.376Q944.049,812.733,944.117,811.652Zm.049-.8q.145-2.69.149-5.491t-.149-5.491c1.769,1.44,3.476,2.879,5.048,4.276q.391.609.762,1.215-.371.6-.762,1.215C947.642,807.972,945.935,809.411,944.166,810.851Zm5.518-7.058a82.191,82.191,0,0,0-5.815-7.9,81.994,81.994,0,0,0-1.472-9.574q.033-.6.06-1.186c5.8,1.486,10.351,3.558,12.961,5.973a24.512,24.512,0,0,1-2.611,9.03c-.667,1.426-1.45,2.891-2.327,4.378Q950.089,804.154,949.684,803.793Zm-50-17.476a81.771,81.771,0,0,0-1.474,9.587,81.917,81.917,0,0,0-5.737,7.821q-.449.4-.88.8c-3.058-5.162-4.809-9.849-4.942-13.4,2.608-2.42,7.16-4.5,12.973-5.984Q899.651,785.717,899.685,786.317Zm-7.211,20.678a81.9,81.9,0,0,0,5.737,7.821,81.774,81.774,0,0,0,1.474,9.587q-.035.6-.06,1.185c-5.813-1.489-10.365-3.564-12.973-5.984.133-3.555,1.884-8.242,4.942-13.4Q892.026,806.595,892.474,806.995ZM942.4,824.4a82,82,0,0,0,1.472-9.574,82.191,82.191,0,0,0,5.815-7.9q.4-.362.8-.72c.877,1.487,1.66,2.952,2.327,4.378a24.511,24.511,0,0,1,2.611,9.03c-2.61,2.415-7.157,4.487-12.961,5.973Q942.43,825,942.4,824.4Zm11.434-38.351a6.141,6.141,0,0,1,1.594,4.355c-2.768-2.358-7.284-4.374-12.944-5.832,0-.036,0-.072,0-.108C948.059,784.268,952.421,784.641,953.831,786.051ZM940.35,772.569c1.41,1.41,1.783,5.772,1.585,11.346l-.109,0c-1.46-5.666-3.479-10.187-5.84-12.954A6.176,6.176,0,0,1,940.35,772.569Zm-9.777-4.05a6.176,6.176,0,0,1,4.217,1.953c-3.625.287-8.249,2.056-13.287,5.029l-.073-.079C925.231,771.341,928.579,768.519,930.573,768.519Zm-19.065,0c1.994,0,5.342,2.822,9.144,6.9l-.055.058c-1.54-.912-3.057-1.725-4.534-2.417a26.132,26.132,0,0,0-8.735-2.627A6.151,6.151,0,0,1,911.508,768.519Zm-9.777,4.05a6.146,6.146,0,0,1,4.356-1.593c-2.358,2.767-4.374,7.284-5.832,12.944l-.108,0C899.949,778.342,900.321,773.979,901.731,772.569ZM888.25,786.051c1.181-1.181,4.43-1.635,8.731-1.635.834,0,1.709.017,2.615.049l0,.109c-5.665,1.459-10.185,3.478-12.952,5.839A6.174,6.174,0,0,1,888.25,786.051Zm-4.05,9.776a6.179,6.179,0,0,1,1.952-4.217c.288,3.626,2.056,8.25,5.03,13.287l-.079.074C887.022,801.17,884.2,797.821,884.2,795.827Zm0,19.066c0-1.994,2.822-5.343,6.9-9.144l.079.074c-2.974,5.038-4.742,9.661-5.03,13.287A6.179,6.179,0,0,1,884.2,814.893Zm4.05,9.776a6.174,6.174,0,0,1-1.6-4.362c2.767,2.361,7.287,4.38,12.952,5.839l0,.109C894.022,826.453,889.66,826.08,888.25,824.669Zm13.481,13.482c-1.41-1.41-1.782-5.773-1.584-11.346l.108-.005c1.458,5.66,3.474,10.177,5.832,12.944A6.15,6.15,0,0,1,901.731,838.151Zm9.777,4.05a6.145,6.145,0,0,1-4.175-1.913,26.187,26.187,0,0,0,8.73-2.631c1.477-.692,2.994-1.505,4.534-2.417l.055.058C916.85,839.379,913.5,842.2,911.508,842.2Zm19.065,0c-1.994,0-5.342-2.822-9.143-6.9l.072-.077c5.04,2.975,9.663,4.739,13.29,5.026A6.177,6.177,0,0,1,930.573,842.2Zm9.777-4.05a6.172,6.172,0,0,1-4.361,1.6c2.36-2.767,4.378-7.286,5.837-12.951l.109.005C942.133,832.378,941.76,836.741,940.35,838.151Zm13.481-13.482c-1.41,1.41-5.772,1.783-11.346,1.585,0-.036,0-.072,0-.108,5.66-1.458,10.176-3.474,12.944-5.832A6.142,6.142,0,0,1,953.831,824.669Zm4.05-9.776a6.146,6.146,0,0,1-1.917,4.18,26.126,26.126,0,0,0-2.627-8.736c-.691-1.476-1.5-2.993-2.417-4.533l.059-.055C955.06,809.55,957.881,812.9,957.881,814.893Z" fill="#0b00d4" stroke="#0b00d4" stroke-miterlimit="10" stroke-width="1"/>
        <path id="Path_7367" data-name="Path 7367" d="M961.39,795.827a284.408,284.408,0,0,0-5.077-12.257c-1.784-1.784-5.131-2.6-10.833-2.644-.063-7.311-1.445-9.633-2.649-10.837a327.333,327.333,0,0,0-12.258-5.078c-1.7,0-4.32.663-9.533,5.787-5.212-5.124-7.83-5.787-9.532-5.787a327.333,327.333,0,0,0-12.258,5.078c-1.2,1.2-2.586,3.524-2.648,10.837-5.7.042-9.049.86-10.833,2.644a252.4,252.4,0,0,0-5.077,12.257c0,1.7.663,4.321,5.787,9.533-5.124,5.212-5.787,7.831-5.787,9.533a252.466,252.466,0,0,0,5.077,12.257c1.782,1.783,5.13,2.6,10.833,2.644.062,7.313,1.445,9.635,2.648,10.837a325.252,325.252,0,0,0,12.258,5.078c1.7,0,4.32-.663,9.532-5.787,5.213,5.124,7.831,5.787,9.533,5.787a329.408,329.408,0,0,0,12.258-5.077c1.2-1.205,2.586-3.527,2.649-10.838,5.7-.042,9.049-.86,10.832-2.643a283.49,283.49,0,0,0,5.078-12.258c0-1.7-.664-4.321-5.788-9.533C960.726,800.148,961.39,797.529,961.39,795.827Zm-.585,19.066a8.785,8.785,0,0,1-2.4,5.875l-.065.075-.007.1a8.725,8.725,0,0,1-2.435,5.795c-1.7,1.7-5,2.458-10.711,2.474h-.29v.29c-.027,7.326-1.339,9.576-2.479,10.716a8.753,8.753,0,0,1-5.771,2.414l-.1.007-.075.065a8.8,8.8,0,0,1-5.9,2.42c-1.611,0-4.128-.662-9.327-5.821l-.206-.2-.206.2c-5.2,5.159-7.714,5.821-9.326,5.821a8.8,8.8,0,0,1-5.9-2.42l-.074-.065-.1-.007a8.757,8.757,0,0,1-5.77-2.414c-1.14-1.14-2.452-3.387-2.479-10.716v-.29h-.291c-5.713-.016-9.016-.779-10.71-2.474a8.779,8.779,0,0,1-2.457-5.819l-.006-.1-.066-.075a8.782,8.782,0,0,1-2.377-5.851c0-1.612.661-4.129,5.821-9.327l.2-.206-.2-.206c-5.16-5.2-5.821-7.715-5.821-9.327a8.782,8.782,0,0,1,2.377-5.851l.066-.075.006-.1a8.779,8.779,0,0,1,2.457-5.819c1.7-1.695,5-2.458,10.71-2.474h.291v-.29c.027-7.329,1.339-9.576,2.479-10.716a8.754,8.754,0,0,1,5.77-2.414l.1-.007.074-.065a8.8,8.8,0,0,1,5.9-2.42c1.612,0,4.128.662,9.326,5.821l.206.2.206-.2c5.2-5.159,7.716-5.821,9.327-5.821a8.8,8.8,0,0,1,5.9,2.42l.075.065.1.007a8.755,8.755,0,0,1,5.771,2.414c1.14,1.141,2.452,3.389,2.479,10.716v.29h.29c5.712.016,9.016.779,10.711,2.474a8.725,8.725,0,0,1,2.435,5.8l.007.1.065.075a8.785,8.785,0,0,1,2.4,5.875c0,1.612-.662,4.129-5.821,9.327l-.205.206.205.206C960.143,810.764,960.8,813.281,960.8,814.893Z" fill="#0b00d4" stroke="#0b00d4" stroke-miterlimit="10" stroke-width="1"/>
      </g>
    </g>
    <g id="Group_5731" data-name="Group 5731">
      <path id="Path_7368" data-name="Path 7368" d="M891.359,897.529l-1.565,3.945h-6.262l8.731-22.7h6.442l8.551,22.7h-6.293l-1.475-3.945Zm4.125-11.741h-.06l-2.439,7.226h4.908Z" fill="#fff"/>
      <path id="Path_7369" data-name="Path 7369" d="M915.024,887.775h.059a4.487,4.487,0,0,1,1.867-1.61,6.35,6.35,0,0,1,2.439-.617h.361a7.121,7.121,0,0,1,5.63,2.483,8.548,8.548,0,0,1,2.167,5.8,8.339,8.339,0,0,1-2.152,5.75,7.142,7.142,0,0,1-5.585,2.408h-.451a7.9,7.9,0,0,1-2.364-.556,5.1,5.1,0,0,1-1.971-1.4v9.153h-5.48V886.029h5.48Zm.752,3.568a3.547,3.547,0,0,0-.933,2.454,3.466,3.466,0,0,0,.933,2.469,3.884,3.884,0,0,0,5.193-.005,3.523,3.523,0,0,0,.919-2.48,3.611,3.611,0,0,0-.919-2.464,3.288,3.288,0,0,0-2.6-1.043A3.388,3.388,0,0,0,915.776,891.343Z" fill="#fff"/>
      <path id="Path_7370" data-name="Path 7370" d="M936.308,887.775h.059a4.487,4.487,0,0,1,1.867-1.61,6.351,6.351,0,0,1,2.439-.617h.361a7.121,7.121,0,0,1,5.63,2.483,8.543,8.543,0,0,1,2.167,5.8,8.339,8.339,0,0,1-2.152,5.75,7.142,7.142,0,0,1-5.585,2.408h-.451a7.9,7.9,0,0,1-2.364-.556,5.1,5.1,0,0,1-1.971-1.4v9.153h-5.48V886.029h5.48Zm.752,3.568a3.552,3.552,0,0,0-.933,2.454,3.47,3.47,0,0,0,.933,2.469,3.884,3.884,0,0,0,5.193-.005,3.523,3.523,0,0,0,.919-2.48,3.611,3.611,0,0,0-.919-2.464,3.285,3.285,0,0,0-2.6-1.043A3.389,3.389,0,0,0,937.06,891.343Z" fill="#fff"/>
    </g>
  </g>
</svg>
