<svg xmlns="http://www.w3.org/2000/svg" viewBox="0 0 63.54 57.42"><g id="Layer_2" data-name="Layer 2"><g id="Layer_1-2" data-name="Layer 1"><path id="Icon_zocial-macstore" data-name="Icon zocial-macstore" d="M0,35.19V26.52a1.45,1.45,0,0,1,.4-1,1.37,1.37,0,0,1,1-.43H16.66L10.05,36.63H1.44A1.39,1.39,0,0,1,0,35.19ZM7.59,46.71a1.41,1.41,0,0,1,.11-1.12L25.16,15.26A1.29,1.29,0,0,1,26,14.6a1.43,1.43,0,0,1,1.09.14l3.73,2.13a1.27,1.27,0,0,1,.72.89,1.49,1.49,0,0,1-.14,1.11L14,49.21a1.33,1.33,0,0,1-.89.66A1.51,1.51,0,0,1,12,49.72L8.28,47.54a1.18,1.18,0,0,1-.69-.83ZM25.28,36.63l6.6-11.55h3.85l5.4,11.55ZM29.76.72A.84.84,0,0,1,30.11,0c.38-.2,1.06.4,2,1.78s2.35,3.6,4.11,6.66,3,5.08,3.56,6c1.08,1.69,2.52,4.19,4.34,7.5s3.56,6.55,5.23,9.71,2.5,4.76,2.5,4.8a1.71,1.71,0,0,1-.12,2.07A4,4,0,0,1,50,40a7.39,7.39,0,0,1-1.38.52,5.41,5.41,0,0,1-1.72-.41Q45.15,39.22,36,17.51l-.78-1.76c-.32-.74-.65-1.47-1-2.18s-.68-1.52-1.06-2.42-.74-1.74-1.06-2.53-.66-1.6-1-2.41S30.53,4.64,30.33,4,30,2.67,29.87,2.1A4.89,4.89,0,0,1,29.76.72ZM48.6,25.08H62.1a1.48,1.48,0,0,1,1.44,1.44v8.67a1.48,1.48,0,0,1-1.44,1.44H54.46A5.59,5.59,0,0,0,54,35.31l-1.38-2.65Q48.95,25.72,48.6,25.08Zm.76,18.18a1.35,1.35,0,0,1,.74-.89l2.13-1.09a1.57,1.57,0,0,1,1.2-.09,1.46,1.46,0,0,1,.92.78l1.78,3.45a1.57,1.57,0,0,1-.47,2.17l-.1.06L54,48.57a1.74,1.74,0,0,1-1.21.14,1.5,1.5,0,0,1-1-.71l-2.32-3.56A1.4,1.4,0,0,1,49.36,43.26Zm4.39,8.3A2.41,2.41,0,0,1,54,50.35a7.76,7.76,0,0,1,.72-.8L56.08,49q3.51-.69,4.13,4a24.43,24.43,0,0,1-.06,4.36c-.16-.46-1-1-2.53-1.69a7.48,7.48,0,0,1-3.16-2.21,3.25,3.25,0,0,1-.72-2Z"/></g></g></svg>