<svg xmlns="http://www.w3.org/2000/svg" viewBox="0 0 624.94 426.04"><defs><style>.cls-1,.cls-2{fill:#fff;}.cls-2{stroke:#010101;stroke-miterlimit:10;}.cls-3{fill:none;}.cls-4{fill:#dc3838;}</style></defs><g id="Layer_2" data-name="Layer 2"><g id="Layer_1-2" data-name="Layer 1"><g id="Group_4107" data-name="Group 4107"><path id="Path_263" data-name="Path 263" class="cls-1" d="M571.33,323.66l53.61-100.31v-155h-5.35V207.86A13.25,13.25,0,0,1,605,221h0a13.21,13.21,0,0,1-11.8-13.13V68.32H554.92V207.54a13.2,13.2,0,0,1-13.2,13.2,12.55,12.55,0,0,1-1.84-.13l-5.75-.8a13.22,13.22,0,0,1-11.37-13.08V68.32h-5.14V221.37l51.06,106.74m-.11-11.1L552.09,283.7c4.78,2.25,7.39,3.54,12.59,4.48a33,33,0,0,0,14-.42c1.48-.4,7.6-3.39,9-4.07Z"/><path id="Path_3070" data-name="Path 3070" class="cls-2" d="M83.91.51l-.14-.3"/><line id="Line_15" data-name="Line 15" class="cls-3" x1="77.35" y1="2.77" x2="77.48" y2="3.07"/><g id="Group_4106" data-name="Group 4106"><path id="Path_3071" data-name="Path 3071" class="cls-4" d="M0,293.08c14.43,9.65,29.45,15.17,44.66,16.41,29.16,2.39,49-15.08,68.21-32C130.65,261.85,149,245.66,173.68,248c53.79,5,87.31,48.53,119.73,90.6,31.23,40.53,60.73,78.81,106.77,86.24,22.1,3.58,46-.67,70.93-12.63,27.83-13.33,57.72-36.48,89-68.93"/><path id="Path_3072" data-name="Path 3072" class="cls-4" d="M560.13,343q-21,5.43-40.28,8.73a322.2,322.2,0,0,1-54.21,5h0a218.77,218.77,0,0,1-22.46-1.12c-30.17-3.14-55.09-13-74-29.37-39.07-33.68-44.64-86.49-50-137.55-5.54-52.47-10.78-102-49.61-131.21-8-6-17.07-8-27.1-8-9.39,0-19.62,1.76-30.56,3.65-26.48,4.56-56.49,9.73-84.36-10.72C113.38,32.06,102.13,17.84,94,.1"/></g></g></g></g></svg>