<svg xmlns="http://www.w3.org/2000/svg" viewBox="0 0 513.36 384.54"><defs><style>.cls-1,.cls-2,.cls-3{fill:#fff;}.cls-2,.cls-3,.cls-4{stroke:#fff;}.cls-3{stroke-width:2px;}.cls-4{fill:none;stroke-miterlimit:10;}</style></defs><g id="Layer_2" data-name="Layer 2"><g id="Layer_1-2" data-name="Layer 1"><g id="Group_5789" data-name="Group 5789"><g id="Group_4024" data-name="Group 4024"><g id="Group_118" data-name="Group 118"><path id="Path_111" data-name="Path 111" class="cls-1" d="M354.23,186.23c-12.84,20.87-54.82,89.11-67.74,110.13a3.17,3.17,0,0,1-2.69,1.49h-.07a3.15,3.15,0,0,1-3.16-3.16h0V204.87a3.16,3.16,0,0,1,2-2.94c17.36-6.75,13.95-34.86-5.94-36-21.47-1.6-27.19,28.73-8.53,36a3.16,3.16,0,0,1,2,2.93v89.83a3.17,3.17,0,0,1-3.16,3.16h-.06a3.15,3.15,0,0,1-2.69-1.49c-13-21.13-54.86-89.15-67.74-110.13a3.11,3.11,0,0,1,0-3.26c7.72-12.95,33-53.24,41-66.6a3.17,3.17,0,0,1,2.7-1.52h70.33a3.16,3.16,0,0,1,2.72,1.55c8,13.6,33.21,53.49,41,66.56A3.17,3.17,0,0,1,354.23,186.23Z"/><path id="Rectangle_44" data-name="Rectangle 44" class="cls-1" d="M247,86.56h56.8a8.8,8.8,0,0,1,8.81,8.81h0a8.8,8.8,0,0,1-8.81,8.81H247a8.8,8.8,0,0,1-8.81-8.81h0A8.8,8.8,0,0,1,247,86.56Z"/></g></g><g id="Group_5789-2" data-name="Group 5789-2"><path id="Path_7523" data-name="Path 7523" class="cls-2" d="M15.76,127.22H54.7V88.28H15.76Zm.51-38.44H54.2v37.93H16.27Z"/><path id="Path_7524" data-name="Path 7524" class="cls-2" d="M66.42,127.22h38.94V88.28H66.42Zm.51-38.44h37.93v37.93H66.93Z"/><path id="Path_7525" data-name="Path 7525" class="cls-2" d="M15.76,183.86H54.7V144.92H15.76Zm.51-38.44H54.2v37.93H16.27Z"/><path id="Path_7526" data-name="Path 7526" class="cls-2" d="M66.42,183.86h38.94V144.92H66.42Zm.51-38.44h37.93v37.93H66.93Z"/><path id="Path_7527" data-name="Path 7527" class="cls-2" d="M15.76,240.5H54.7V201.56H15.76Zm.51-38.43H54.2V240H16.27Z"/><path id="Path_7528" data-name="Path 7528" class="cls-2" d="M66.42,240.5h38.94V201.56H66.42Zm.51-38.43h37.93V240H66.93Z"/><path id="Path_7529" data-name="Path 7529" class="cls-2" d="M15.76,297.14H54.7V258.2H15.76Zm.51-38.43H54.2v37.93H16.27Z"/><path id="Path_7530" data-name="Path 7530" class="cls-2" d="M66.42,297.14h38.94V258.2H66.42Zm.51-38.43h37.93v37.93H66.93Z"/><path id="Path_7531" data-name="Path 7531" class="cls-3" d="M33.45,117.94l3.82-8.3,8.3-3.82L29,101.39Zm3.44-8.68-3.31,7.2-3.85-14.35L44.08,106Z"/><path id="Path_7532" data-name="Path 7532" class="cls-3" d="M83.58,117.2l3.57-7.75,7.74-3.56-15.45-4.14Z"/><path id="Path_7533" data-name="Path 7533" class="cls-1" d="M39,156.71a.31.31,0,0,0-.27-.15l-7,.09a.33.33,0,0,0-.27.15c-.44.75-1.4,2.35-2.3,3.83l-.18.31c-.63,1.05-1.2,2-1.5,2.52a.31.31,0,0,0,0,.32c1.3,2.07,5.55,8.76,6.86,10.84a.3.3,0,0,0,.27.14h0a.3.3,0,0,0,.31-.31h0l-.11-8.91a.3.3,0,0,0-.2-.29,1.85,1.85,0,0,1-1-2.4.3.3,0,0,1,0-.08,1.91,1.91,0,0,1,.16-.32,1.73,1.73,0,0,1,1.62-.79,1.83,1.83,0,0,1,1.73,1.92c0,.06,0,.12,0,.18s0,.24-.07.35a1.71,1.71,0,0,1-1,1.12.31.31,0,0,0-.2.29l.11,8.91a.31.31,0,0,0,.32.31h0a.33.33,0,0,0,.27-.15c.93-1.57,3.44-5.75,5.17-8.65l.18-.31,1.23-2a.29.29,0,0,0,0-.32C42.36,162,39.81,158.05,39,156.71Z"/><path id="Path_7534" data-name="Path 7534" class="cls-3" d="M32.41,155.58l5.63-.07a.88.88,0,1,0,0-1.75h0l-5.63.07a.88.88,0,1,0,0,1.75Z"/><path id="Path_7535" data-name="Path 7535" class="cls-1" d="M91.09,156.71a.31.31,0,0,0-.27-.15l-7,.09a.33.33,0,0,0-.27.15c-.44.75-1.4,2.35-2.3,3.83l-.18.31c-.63,1.05-1.2,2-1.5,2.52a.31.31,0,0,0,0,.32c1.3,2.07,5.55,8.76,6.86,10.84a.3.3,0,0,0,.27.14h0a.3.3,0,0,0,.31-.31h0l-.11-8.91a.3.3,0,0,0-.2-.29,1.85,1.85,0,0,1-1-2.4.3.3,0,0,1,0-.08,1.91,1.91,0,0,1,.16-.32,1.73,1.73,0,0,1,1.62-.79,1.83,1.83,0,0,1,1.73,1.92c0,.06,0,.12,0,.18s0,.24-.07.35a1.71,1.71,0,0,1-1,1.12.31.31,0,0,0-.2.29l.11,8.91a.31.31,0,0,0,.32.31h0a.33.33,0,0,0,.27-.15c.93-1.57,3.44-5.75,5.17-8.65l.18-.31,1.23-2a.29.29,0,0,0,0-.32C94.45,162,91.9,158.05,91.09,156.71Z"/><path id="Path_7536" data-name="Path 7536" class="cls-3" d="M84.5,155.58l5.63-.07a.88.88,0,1,0,0-1.75h0l-5.63.07a.88.88,0,0,0,0,1.75Z"/><path id="Path_7537" data-name="Path 7537" class="cls-2" d="M85.44,180.14a8.37,8.37,0,0,1-6.92,1.93,7.85,7.85,0,0,1-5.84-3.4c-1.39-2.36-.84-5.7,0-7.89a12.5,12.5,0,0,0-1.48-11.6,15.28,15.28,0,0,1,1,11.45c-.75,2.33-1.47,5.76,0,8.29a8.32,8.32,0,0,0,6.2,3.64,10,10,0,0,0,1.44.1,8.35,8.35,0,0,0,5.9-2.17,7.67,7.67,0,0,0,2.1-4.7l-.5,0A7.25,7.25,0,0,1,85.44,180.14Z"/><path id="Path_7538" data-name="Path 7538" class="cls-3" d="M41.61,208.89H29.48a6.34,6.34,0,0,0-6.32,6.33v12.13a6.34,6.34,0,0,0,6.32,6.33H41.62a6.34,6.34,0,0,0,6.32-6.33V215.22A6.35,6.35,0,0,0,41.61,208.89Zm5.82,18.46a5.83,5.83,0,0,1-5.82,5.82H29.48a5.84,5.84,0,0,1-5.82-5.82V215.22a5.83,5.83,0,0,1,5.82-5.82H41.62a5.82,5.82,0,0,1,5.81,5.82Z"/><path id="Path_7539" data-name="Path 7539" class="cls-4" d="M75.14,208.42l-.61,9.71h2.75l1.2-7.18,5.43-.19v21.16l-4.46.35v2.16H93.07v-2.17l-4.88-.34V210.76l5.47.19,1.14,7.18h2.64L97,208.42Z"/><path id="Path_7540" data-name="Path 7540" class="cls-3" d="M44.1,272a2.72,2.72,0,0,0-4.29-3.36,2.94,2.94,0,0,0-.5,1l-.63-.5a1.08,1.08,0,0,0-1.5.18l-1.27,1.62a1.07,1.07,0,0,0,0,1.35.64.64,0,0,0-.1.13l-9.29,13.7a1.28,1.28,0,0,0-.08,1.44,1.5,1.5,0,0,0-.2,2.11.92.92,0,0,0,.22.22,1.5,1.5,0,0,0,2.1-.25,1.24,1.24,0,0,0,.17-.27,1.29,1.29,0,0,0,1.41-.41l11.1-12.27a.71.71,0,0,0,.1-.14,1.07,1.07,0,0,0,1.3-.31l1.27-1.61a1.07,1.07,0,0,0-.18-1.5l-.54-.42A2.82,2.82,0,0,0,44.1,272ZM41,276.47,29.93,288.74a.92.92,0,0,1-1.15.27l-.18-.14-.07.21a1.18,1.18,0,1,1-2.24-.74,1.23,1.23,0,0,1,.49-.63l.19-.11-.17-.15a.92.92,0,0,1,0-1.16l9.29-13.7a.31.31,0,0,1,.07-.09l4.94,3.87a.86.86,0,0,1-.07.1Z"/><path id="Path_7541" data-name="Path 7541" class="cls-3" d="M90.05,279.11l-7.86-15.88v21.4H80.3v7.7H91.94v-7.7H90.05Zm-.76,5.53H83l.37-17.29,6,11.94Z"/><path id="Path_7542" data-name="Path 7542" class="cls-3" d="M120.11,339.49l-.43-295.91c0-6.08-4.2-11-9.35-11h0l-100,.16A8.64,8.64,0,0,0,3.73,36,12.1,12.1,0,0,0,1,43.78L1,65.61H1l.42,286v1.26l117.61-.19h1.07ZM3.14,43.77a9.3,9.3,0,0,1,2.1-6,6.66,6.66,0,0,1,5.1-2.5l100-.16h0c4,0,7.2,3.81,7.21,8.5l0,21.84-114.4.18Zm.44,306.56L3.18,68.14,117.57,68l.39,269.4,0,12.79Z"/><rect id="Rectangle_3458" data-name="Rectangle 3458" class="cls-3" x="19.64" y="43.64" width="0.43" height="13.15"/><rect id="Rectangle_3459" data-name="Rectangle 3459" class="cls-3" x="25.93" y="43.64" width="0.43" height="13.15"/><rect id="Rectangle_3460" data-name="Rectangle 3460" class="cls-3" x="32.23" y="43.64" width="0.43" height="13.15"/><rect id="Rectangle_3461" data-name="Rectangle 3461" class="cls-3" x="38.52" y="43.64" width="0.43" height="13.15"/><rect id="Rectangle_3462" data-name="Rectangle 3462" class="cls-3" x="44.82" y="43.64" width="0.43" height="13.15"/><rect id="Rectangle_3463" data-name="Rectangle 3463" class="cls-3" x="51.11" y="43.64" width="0.43" height="13.15"/><rect id="Rectangle_3464" data-name="Rectangle 3464" class="cls-3" x="57.41" y="43.64" width="0.43" height="13.15"/><rect id="Rectangle_3465" data-name="Rectangle 3465" class="cls-3" x="63.7" y="43.64" width="0.43" height="13.15"/><rect id="Rectangle_3466" data-name="Rectangle 3466" class="cls-3" x="70" y="43.64" width="0.43" height="13.15"/><rect id="Rectangle_3467" data-name="Rectangle 3467" class="cls-3" x="76.29" y="43.64" width="0.43" height="13.15"/><rect id="Rectangle_3468" data-name="Rectangle 3468" class="cls-3" x="82.59" y="43.64" width="0.43" height="13.15"/><rect id="Rectangle_3469" data-name="Rectangle 3469" class="cls-3" x="88.88" y="43.64" width="0.43" height="13.15"/><rect id="Rectangle_3470" data-name="Rectangle 3470" class="cls-3" x="95.18" y="43.64" width="0.43" height="13.15"/><rect id="Rectangle_3471" data-name="Rectangle 3471" class="cls-3" x="101.47" y="43.64" width="0.43" height="13.15"/><circle id="Ellipse_46" data-name="Ellipse 46" class="cls-3" cx="35.23" cy="331.15" r="3.54"/><circle id="Ellipse_47" data-name="Ellipse 47" class="cls-3" cx="48.76" cy="331.15" r="3.54"/><circle id="Ellipse_48" data-name="Ellipse 48" class="cls-3" cx="62.28" cy="331.15" r="3.54"/><circle id="Ellipse_49" data-name="Ellipse 49" class="cls-3" cx="75.81" cy="331.15" r="3.54"/><circle id="Ellipse_50" data-name="Ellipse 50" class="cls-3" cx="89.34" cy="331.15" r="3.54"/></g><g id="Group_5790" data-name="Group 5790"><path id="Path_7543" data-name="Path 7543" class="cls-1" d="M463.89,367.32l8.79,17.22,8.78-17.21a38.76,38.76,0,0,1-17.57,0Z"/><path id="Path_7544" data-name="Path 7544" class="cls-1" d="M511.14,61.91h-.23V39.26a38.7,38.7,0,1,0-77.4-1.12V62A2.19,2.19,0,0,0,432,64.13V302.18l3.72,7.28,1.56,3.06,26.61,52.15a38.76,38.76,0,0,0,17.57,0l26.62-52.17,1.55-3.05,3.73-7.3v-238A2.21,2.21,0,0,0,511.14,61.91Zm-75,4.3h72.69a1.38,1.38,0,0,1,1.38,1.1,1.33,1.33,0,0,1-1.08,1.53l-.22,0h-72.7a1.37,1.37,0,0,1-1.37-1.1,1.31,1.31,0,0,1,1.07-1.53.93.93,0,0,1,.23,0Zm0,8.6h72.69a1.38,1.38,0,0,1,1.38,1.1,1.33,1.33,0,0,1-1.08,1.53l-.22,0h-72.7a1.37,1.37,0,0,1-1.37-1.1,1.31,1.31,0,0,1,1.07-1.53.9.9,0,0,1,.23,0Zm0,8.6h72.69a1.38,1.38,0,0,1,1.38,1.1A1.33,1.33,0,0,1,509.15,86l-.22,0h-72.7a1.37,1.37,0,0,1-1.37-1.1,1.31,1.31,0,0,1,1.07-1.53.9.9,0,0,1,.23,0Zm0,8.6h72.69a1.38,1.38,0,0,1,1.38,1.1,1.33,1.33,0,0,1-1.08,1.53l-.22,0h-72.7a1.37,1.37,0,0,1-1.37-1.1A1.33,1.33,0,0,1,435.93,92l.23,0Zm0,8.6h72.69a1.38,1.38,0,0,1,1.38,1.1,1.33,1.33,0,0,1-1.08,1.53l-.22,0h-72.7a1.37,1.37,0,0,1-1.37-1.1,1.33,1.33,0,0,1,1.07-1.54l.23,0Zm19,208.85a12.56,12.56,0,0,1-12.57-12.54V107.55h25.14V296.89A12.59,12.59,0,0,1,455.15,309.46Zm47.63-12.57a12.57,12.57,0,0,1-25.14,0V107.55h25.14Z"/></g></g></g></g></svg>