<svg xmlns="http://www.w3.org/2000/svg" viewBox="0 0 249.04 187.39"><defs><style>.cls-1{fill:#f8f8f8;}</style></defs><g id="Layer_2" data-name="Layer 2"><g id="Layer_1-2" data-name="Layer 1"><g id="Group_100" data-name="Group 100"><rect id="Rectangle_42" data-name="Rectangle 42" class="cls-1" x="149.44" y="2.94" width="78.04" height="19.47"/><path id="Path_102" data-name="Path 102" class="cls-1" d="M106.56,95.52a51,51,0,0,0-15.08-11A50.09,50.09,0,0,0,101,74.91a49.08,49.08,0,0,0,9-29.33A41.85,41.85,0,0,0,94.94,12.25,60.09,60.09,0,0,0,55.49.08H0V184.32H56.3a66.38,66.38,0,0,0,44.16-15.09,51.25,51.25,0,0,0,18.23-40.63A47,47,0,0,0,106.56,95.52ZM33.15,31.08H49.66c23.23,0,26.5,9.9,26.5,18.59a22,22,0,0,1-7,17.41,35.28,35.28,0,0,1-22.08,6.4H33.22ZM77,146.24a33.28,33.28,0,0,1-22.91,6.65h-21V104.48H49.71c31.3,0,34.81,13.66,34.81,23.71A21.73,21.73,0,0,1,77,146.25Z"/><path id="Path_103" data-name="Path 103" class="cls-1" d="M248.92,111.24A72.49,72.49,0,0,0,234.47,64,52.3,52.3,0,0,0,192.42,46.3a58.76,58.76,0,0,0-45.26,20A84.8,84.8,0,0,0,146,168.46a56.91,56.91,0,0,0,45.26,18.84A77.08,77.08,0,0,0,238,174.23l2.62-1.78V137.13l-10.45,8.37a53.79,53.79,0,0,1-33.85,12.17,32,32,0,0,1-24.41-9,36.31,36.31,0,0,1-8.68-20.61H249Zm-84.7-12.82A41.75,41.75,0,0,1,173,83.7c.19-.25.39-.44.58-.69a25.34,25.34,0,0,1,35.7-.2,28.55,28.55,0,0,1,6.35,15.68Z"/></g></g></g></svg>