<svg xmlns="http://www.w3.org/2000/svg" viewBox="0 0 24.24 18.24"><g id="Layer_2" data-name="Layer 2"><g id="Layer_1-2" data-name="Layer 1"><g id="Group_100" data-name="Group 100"><rect id="Rectangle_42" data-name="Rectangle 42" x="14.54" y="0.29" width="7.6" height="1.9"/><path id="Path_102" data-name="Path 102" d="M10.37,9.3A5,5,0,0,0,8.9,8.22a4.55,4.55,0,0,0,.93-.93,4.76,4.76,0,0,0,.88-2.85A4.07,4.07,0,0,0,9.24,1.19,5.88,5.88,0,0,0,5.4,0H0V17.94H5.48a6.48,6.48,0,0,0,4.3-1.47,5,5,0,0,0,1.77-3.95A4.55,4.55,0,0,0,10.37,9.3ZM3.23,3h1.6C7.09,3,7.41,4,7.41,4.83a2.17,2.17,0,0,1-.67,1.7,3.45,3.45,0,0,1-2.15.62H3.23ZM7.5,14.23a3.21,3.21,0,0,1-2.23.65h-2V10.17H4.84c3,0,3.39,1.33,3.39,2.31a2.12,2.12,0,0,1-.74,1.75Z"/><path id="Path_103" data-name="Path 103" d="M24.23,10.83a7.1,7.1,0,0,0-1.41-4.6,5.07,5.07,0,0,0-4.09-1.72,5.74,5.74,0,0,0-4.41,1.94,8.27,8.27,0,0,0-.11,10,5.55,5.55,0,0,0,4.4,1.83A7.49,7.49,0,0,0,23.16,17l.26-.18V13.35l-1,.81a5.27,5.27,0,0,1-3.3,1.19,3.11,3.11,0,0,1-2.37-.88,3.53,3.53,0,0,1-.85-2h8.36ZM16,9.58a4,4,0,0,1,.85-1.43l.06-.07a2.46,2.46,0,0,1,3.47,0A2.69,2.69,0,0,1,21,9.59Z"/></g></g></g></svg>