<svg xmlns="http://www.w3.org/2000/svg" viewBox="0 0 49.68 49.68"><defs><style>.cls-1{fill:#97a5ff;}</style></defs><g id="Layer_2" data-name="Layer 2"><g id="Layer_1-2" data-name="Layer 1"><path id="Exclusion_2" data-name="Exclusion 2" class="cls-1" d="M46.68,49.68H3a3,3,0,0,1-3-3V3A3,3,0,0,1,3,0H46.68a3,3,0,0,1,3,3V46.68A3,3,0,0,1,46.68,49.68Zm-14.8-15h.39a8.06,8.06,0,0,0,4.54-1.38l.28-.19V29.42L36,30.3a5.71,5.71,0,0,1-3.58,1.29h-.22a3.35,3.35,0,0,1-2.35-.95,3.81,3.81,0,0,1-.92-2.18h9V26.7a7.65,7.65,0,0,0-1.53-5,5.46,5.46,0,0,0-4.14-1.87h-.4A6.2,6.2,0,0,0,27.23,22a7.86,7.86,0,0,0-1.86,5.35,7.78,7.78,0,0,0,1.74,5.42,6,6,0,0,0,4.46,2ZM11.71,15V34.4h6.15a7,7,0,0,0,4.44-1.59,5.4,5.4,0,0,0,1.93-4.29A4.93,4.93,0,0,0,22.94,25a5.21,5.21,0,0,0-1.59-1.16,5.37,5.37,0,0,0,1-1,5.21,5.21,0,0,0,.95-3.1,4.44,4.44,0,0,0-1.6-3.51A6.39,6.39,0,0,0,17.88,15H11.71Zm15.76.3v2.05H35.7V15.27ZM17.7,31.1H15.2V26H17c3.29,0,3.67,1.42,3.67,2.5a2.31,2.31,0,0,1-.79,1.9A3.54,3.54,0,0,1,17.7,31.1Zm16.75-5.76H29A4.47,4.47,0,0,1,30,23.78l0,0,0,0a2.68,2.68,0,0,1,3.77,0,2.94,2.94,0,0,1,.67,1.65Zm-17.6-2.63H15.2V18.24h1.74c2.47,0,2.79,1.05,2.79,2A2.32,2.32,0,0,1,19,22a3.7,3.7,0,0,1-2.14.68Z"/></g></g></svg>