<svg xmlns="http://www.w3.org/2000/svg" viewBox="0 0 424 420.01"><defs><style>.cls-1{fill:#fff;}</style></defs><g id="Layer_2" data-name="Layer 2"><g id="Layer_1-2" data-name="Layer 1"><g id="Group_5485" data-name="Group 5485"><g id="Group_5480" data-name="Group 5480"><path id="Path_5446" data-name="Path 5446" class="cls-1" d="M142.5,99h32V0H43.5V131h99ZM88.43,60.28H84V73.84h-4.1V60.28H75.4V57h13ZM98.8,64.65H97.67a3.44,3.44,0,0,0-2.3.66,2.93,2.93,0,0,0-.77,2.31v6.22H90.5V60.45h4.1v2.23a5.44,5.44,0,0,1,1.8-1.74,4.62,4.62,0,0,1,2.4-.64ZM114,73.84h-4.1V72a4.42,4.42,0,0,1-1.7,1.42,5.08,5.08,0,0,1-2.36.54,5.23,5.23,0,0,1-2.71-.68,4.61,4.61,0,0,1-1.83-2,6.69,6.69,0,0,1-.64-3V60.45h4.08v7.27a2.91,2.91,0,0,0,.7,2.09,2.42,2.42,0,0,0,1.87.74,2.46,2.46,0,0,0,1.9-.74,3,3,0,0,0,.7-2.09V60.45H114Zm13.16-1.79a4.26,4.26,0,0,1-1.9,1.45,7.21,7.21,0,0,1-2.87.53,7.61,7.61,0,0,1-3.12-.6,5.37,5.37,0,0,1-2.16-1.64,4.26,4.26,0,0,1-.88-2.34h4a1.58,1.58,0,0,0,.65,1.13,2.38,2.38,0,0,0,1.42.43,2,2,0,0,0,1.18-.3.89.89,0,0,0,.42-.78.88.88,0,0,0-.6-.85,12.16,12.16,0,0,0-1.94-.62,17.86,17.86,0,0,1-2.4-.7,4.25,4.25,0,0,1-1.66-1.18,3.22,3.22,0,0,1-.7-2.17,3.74,3.74,0,0,1,.64-2.1,4.29,4.29,0,0,1,1.87-1.5,7.05,7.05,0,0,1,2.94-.55,5.91,5.91,0,0,1,4,1.24,4.8,4.8,0,0,1,1.67,3.31h-3.79a1.68,1.68,0,0,0-.61-1.1,2.12,2.12,0,0,0-1.36-.4,1.86,1.86,0,0,0-1.1.27.88.88,0,0,0-.38.76.9.9,0,0,0,.61.86,9.59,9.59,0,0,0,1.91.58,20.51,20.51,0,0,1,2.42.75,4.37,4.37,0,0,1,1.65,1.2,3.71,3.71,0,0,1,.07,4.32Zm10.65,1.79h-2.09a5.07,5.07,0,0,1-3.48-1.09A4.49,4.49,0,0,1,131,69.18V63.85h-1.63v-3.4H131V57.18h4.1v3.27h2.69v3.4h-2.69v5.38a1.12,1.12,0,0,0,.29.87,1.42,1.42,0,0,0,1,.26h1.46Z"/><path id="Path_5447" data-name="Path 5447" class="cls-1" d="M313.68,69.46a2.77,2.77,0,0,0,2.08-.89,3.87,3.87,0,0,0,0-4.85,2.89,2.89,0,0,0-4.08-.09l-.07.08a3.29,3.29,0,0,0-.85,2.41,3.37,3.37,0,0,0,.85,2.44A2.75,2.75,0,0,0,313.68,69.46Z"/><path id="Path_5448" data-name="Path 5448" class="cls-1" d="M284.72,64.37a5.12,5.12,0,0,0-1.22-3.57,4.15,4.15,0,0,0-3.22-1.33A4.24,4.24,0,0,0,277,60.79a5.88,5.88,0,0,0,0,7.14,4.18,4.18,0,0,0,3.26,1.33,4.09,4.09,0,0,0,3.22-1.34A5.08,5.08,0,0,0,284.72,64.37Z"/><path id="Path_5449" data-name="Path 5449" class="cls-1" d="M281.5,131h99V0h-131V99h32Zm53.38-58.16h-4.1V59.45h4.1Zm15.79-13.39,3.1,8.37,3.07-8.37h4.44l-8.4,19.75h-4.42l3.07-6.82-5.44-12.93Zm-13.8,0h1.63V56.18h4.1v3.27h2.69v3.4H342.6v5.38a1.12,1.12,0,0,0,.29.87,1.42,1.42,0,0,0,1,.26h1.46v3.48h-2.09a5.1,5.1,0,0,1-3.48-1.09,4.56,4.56,0,0,1-1.25-3.57V62.85h-1.63Zm-5.8-5.2a2.71,2.71,0,0,1,3.5,0,2.07,2.07,0,0,1,.68,1.6,2,2,0,0,1-.68,1.57,2.47,2.47,0,0,1-1.74.64,2.52,2.52,0,0,1-1.76-.64,2,2,0,0,1-.69-1.57,2.11,2.11,0,0,1,.69-1.6Zm-7.38.83h4.1V72.84h-4.1ZM307.36,62.5a5.92,5.92,0,0,1,2.12-2.4,5.6,5.6,0,0,1,3-.84,5.13,5.13,0,0,1,2.49.58,4.18,4.18,0,0,1,1.64,1.51v-1.9h4.1V72.84h-4.1v-1.9A4.38,4.38,0,0,1,315,72.45a5.15,5.15,0,0,1-2.49.58,5.46,5.46,0,0,1-3-.85,6,6,0,0,1-2.13-2.43,8.84,8.84,0,0,1,0-7.26Zm-16.26-3h4.08v7.27a2.91,2.91,0,0,0,.7,2.09,2.43,2.43,0,0,0,1.87.75,2.51,2.51,0,0,0,1.9-.75,3,3,0,0,0,.7-2.09V59.45h4.1V72.84h-4.1V71a4.58,4.58,0,0,1-1.69,1.43,5.57,5.57,0,0,1-5.08-.15,4.53,4.53,0,0,1-1.82-2,6.54,6.54,0,0,1-.65-3ZM280.28,73a8.72,8.72,0,0,1-4.36-1.1,8.22,8.22,0,0,1-3.14-3.08,9,9,0,0,1,0-8.89,8.36,8.36,0,0,1,3.14-3.08,9.15,9.15,0,0,1,8.71,0,8.1,8.1,0,0,1,3.12,3.08,8.62,8.62,0,0,1,1.14,4.44,8.82,8.82,0,0,1-.87,3.94,8.18,8.18,0,0,1-2.44,3l3.7,4.44h-5l-2.16-2.91a9.06,9.06,0,0,1-1.87.19Z"/><path id="Path_5450" data-name="Path 5450" class="cls-1" d="M75.68,271.83a2.81,2.81,0,0,0-2.08.88,3.29,3.29,0,0,0-.85,2.41,3.42,3.42,0,0,0,.85,2.44,2.86,2.86,0,0,0,4,.12l.11-.11a3.87,3.87,0,0,0,0-4.85A2.76,2.76,0,0,0,75.68,271.83Z"/><path id="Path_5451" data-name="Path 5451" class="cls-1" d="M174.5,238h-32V206h-99V337h131ZM66.41,281.84h-4.1V265h4.1Zm16.3,0h-4.1v-1.92A4.26,4.26,0,0,1,77,281.46a5.23,5.23,0,0,1-2.49.57,5.5,5.5,0,0,1-3-.85,5.84,5.84,0,0,1-2.12-2.42,8.84,8.84,0,0,1,0-7.26,5.8,5.8,0,0,1,2.12-2.4,5.49,5.49,0,0,1,3-.84,5.33,5.33,0,0,1,2.42.55,4.39,4.39,0,0,1,1.71,1.49v-6.22h4.1Zm15.53-5.71H89a2.8,2.8,0,0,0,.8,1.91,2.49,2.49,0,0,0,1.74.66,2.17,2.17,0,0,0,2.14-1.3H98a6.09,6.09,0,0,1-3.42,4,7.08,7.08,0,0,1-3,.6,7.24,7.24,0,0,1-3.5-.84,6,6,0,0,1-2.4-2.4,8.15,8.15,0,0,1,0-7.3,5.85,5.85,0,0,1,2.38-2.4,7.82,7.82,0,0,1,7,0,5.94,5.94,0,0,1,2.36,2.33,7,7,0,0,1,.85,3.53c0,.4,0,.81-.06,1.21Zm15.55,5.71h-4.08v-7.27a2.91,2.91,0,0,0-.7-2.09,2.73,2.73,0,0,0-3.74,0,2.91,2.91,0,0,0-.7,2.09v7.27h-4.1V268.45h4.1v1.77a4.39,4.39,0,0,1,1.68-1.4,5.25,5.25,0,0,1,2.37-.51,4.87,4.87,0,0,1,3.76,1.52,5.94,5.94,0,0,1,1.4,4.19Zm10.32,0H122a5.1,5.1,0,0,1-3.48-1.09,4.52,4.52,0,0,1-1.24-3.57v-5.33h-1.64v-3.4h1.63v-3.27h4.1v3.27h2.69v3.4h-2.69v5.38a1.16,1.16,0,0,0,.29.87,1.43,1.43,0,0,0,1,.26h1.46Zm6.39,0h-4.1V268.45h4.1Zm-.3-15.42a2.49,2.49,0,0,1-1.74.64,2.55,2.55,0,0,1-1.77-.64,2.19,2.19,0,0,1,0-3.17,2.73,2.73,0,0,1,3.51,0,2.1,2.1,0,0,1,.68,1.6,2,2,0,0,1-.69,1.57Zm10.74,15.42h-2.09a5.07,5.07,0,0,1-3.48-1.09,4.49,4.49,0,0,1-1.25-3.57v-5.33h-1.63v-3.4h1.63v-3.27h4.1v3.27h2.69v3.4h-2.69v5.38a1.12,1.12,0,0,0,.29.87,1.42,1.42,0,0,0,1,.26h1.46Zm7.55,6.36h-4.41l3.07-6.82-5.45-12.93h4.59l3.1,8.37,3.07-8.37h4.44Z"/><path id="Path_5452" data-name="Path 5452" class="cls-1" d="M91.59,271.54a2.53,2.53,0,0,0-2.62,2.3h5.14a2.12,2.12,0,0,0-.72-1.68A2.69,2.69,0,0,0,91.59,271.54Z"/><path id="Path_5453" data-name="Path 5453" class="cls-1" d="M330.3,270.83a2.83,2.83,0,0,0-2.08.88,3.33,3.33,0,0,0-.85,2.41,3.42,3.42,0,0,0,.85,2.44,2.86,2.86,0,0,0,4,.12l.12-.11a3.89,3.89,0,0,0,0-4.85A2.78,2.78,0,0,0,330.3,270.83Z"/><path id="Path_5454" data-name="Path 5454" class="cls-1" d="M294.66,270.54a2.51,2.51,0,0,0-2.61,2.3h5.13a2.12,2.12,0,0,0-.72-1.68A2.67,2.67,0,0,0,294.66,270.54Z"/><path id="Path_5455" data-name="Path 5455" class="cls-1" d="M380.5,206h-99v32h-32v99h131Zm-95.14,70.81a7.55,7.55,0,0,1-3.09,3,9.88,9.88,0,0,1-4.65,1.06h-6.31V264h6.31a9.8,9.8,0,0,1,4.66,1.06,7.57,7.57,0,0,1,3.08,3,9.39,9.39,0,0,1,0,8.8Zm15.95-1.68H292a2.8,2.8,0,0,0,.8,1.91,2.47,2.47,0,0,0,1.74.66,2.18,2.18,0,0,0,2.14-1.3h4.36a5.94,5.94,0,0,1-1.21,2.37,6.08,6.08,0,0,1-2.2,1.66,7.11,7.11,0,0,1-2.95.6,7.21,7.21,0,0,1-3.5-.84,6,6,0,0,1-2.4-2.4,7.37,7.37,0,0,1-.87-3.65,7.48,7.48,0,0,1,.85-3.65,6,6,0,0,1,2.39-2.4,7.78,7.78,0,0,1,7,0,5.92,5.92,0,0,1,2.36,2.32,7,7,0,0,1,.85,3.53,12.1,12.1,0,0,1-.06,1.21Zm12.44,3.92a4.26,4.26,0,0,1-1.9,1.45A7.21,7.21,0,0,1,309,281a7.61,7.61,0,0,1-3.12-.6,5.44,5.44,0,0,1-2.16-1.64,4.34,4.34,0,0,1-.88-2.34h4.05a1.58,1.58,0,0,0,.65,1.13,2.38,2.38,0,0,0,1.42.43,2,2,0,0,0,1.18-.3.89.89,0,0,0,.42-.78.87.87,0,0,0-.6-.85,12.16,12.16,0,0,0-1.94-.62,18.3,18.3,0,0,1-2.4-.7,4.15,4.15,0,0,1-1.65-1.18,3.12,3.12,0,0,1-.7-2.17,3.65,3.65,0,0,1,.63-2.1,4.29,4.29,0,0,1,1.87-1.5,7.08,7.08,0,0,1,2.94-.55,5.93,5.93,0,0,1,4,1.24,4.83,4.83,0,0,1,1.66,3.31h-3.79a1.68,1.68,0,0,0-.61-1.1,2.12,2.12,0,0,0-1.36-.4,1.86,1.86,0,0,0-1.1.27.91.91,0,0,0-.38.76.92.92,0,0,0,.61.86,10,10,0,0,0,1.91.58,20.51,20.51,0,0,1,2.42.75,4.29,4.29,0,0,1,1.65,1.2,3.4,3.4,0,0,1,.73,2.23,3.49,3.49,0,0,1-.66,2.09Zm7.29,1.79h-4.1V267.45H321Zm-.3-15.42a2.49,2.49,0,0,1-1.74.64,2.55,2.55,0,0,1-1.77-.64,2.19,2.19,0,0,1,0-3.17,2.73,2.73,0,0,1,3.51,0,2.19,2.19,0,0,1,0,3.17Zm16.6,15.39a7.59,7.59,0,0,1-.74,3.35,5.54,5.54,0,0,1-2.23,2.39,7.24,7.24,0,0,1-3.73.89,7.73,7.73,0,0,1-4.82-1.4,5.31,5.31,0,0,1-2.12-3.81h4.06a2,2,0,0,0,.91,1.22,3.36,3.36,0,0,0,1.78.44,2.82,2.82,0,0,0,2-.73,3.13,3.13,0,0,0,.75-2.34v-1.9a4.57,4.57,0,0,1-1.65,1.53,5.09,5.09,0,0,1-2.48.58,5.42,5.42,0,0,1-3-.85,5.84,5.84,0,0,1-2.12-2.42,8.84,8.84,0,0,1,0-7.26,5.86,5.86,0,0,1,2.12-2.4,5.58,5.58,0,0,1,3-.84,5.23,5.23,0,0,1,2.49.57,4.21,4.21,0,0,1,1.64,1.52v-1.9h4.1Zm16.3,0h-4.08v-7.27a3,3,0,0,0-.7-2.09,2.74,2.74,0,0,0-3.75,0,3,3,0,0,0-.7,2.09v7.27h-4.1V267.45h4.1v1.77a4.39,4.39,0,0,1,1.68-1.4,5.29,5.29,0,0,1,2.38-.51,4.86,4.86,0,0,1,3.76,1.52,6,6,0,0,1,1.4,4.19Z"/><path id="Path_5456" data-name="Path 5456" class="cls-1" d="M277.36,267.5h-1.95v9.79h1.95A5,5,0,0,0,281,276a4.83,4.83,0,0,0,1.3-3.6,4.5,4.5,0,0,0-4-4.92,4.31,4.31,0,0,0-.88,0Z"/><path id="Path_5457" data-name="Path 5457" class="cls-1" d="M207.63,170h4.15l-2.08-6.17Z"/><path id="Path_5458" data-name="Path 5458" class="cls-1" d="M178,169.13h-3v3.72h3a2.39,2.39,0,0,0,1.59-.47,1.66,1.66,0,0,0,.57-1.35,1.72,1.72,0,0,0-.59-1.39A2.43,2.43,0,0,0,178,169.13Z"/><path id="Path_5459" data-name="Path 5459" class="cls-1" d="M193.35,162.72h-2.54v4.18h2.54a2.32,2.32,0,0,0,1.69-.55,2.05,2.05,0,0,0,.57-1.56,2,2,0,0,0-.57-1.51A2.32,2.32,0,0,0,193.35,162.72Z"/><path id="Path_5460" data-name="Path 5460" class="cls-1" d="M244.14,162.82h-1.95v9.79h1.95a5,5,0,0,0,3.62-1.27,4.83,4.83,0,0,0,1.3-3.6,4.51,4.51,0,0,0-4.06-4.92A4.12,4.12,0,0,0,244.14,162.82Z"/><path id="Path_5461" data-name="Path 5461" class="cls-1" d="M179.23,165.69a1.62,1.62,0,0,0,.54-1.31,1.64,1.64,0,0,0-.54-1.32,2.4,2.4,0,0,0-1.55-.46H175v3.53h2.69A2.45,2.45,0,0,0,179.23,165.69Z"/><path id="Path_5462" data-name="Path 5462" class="cls-1" d="M277.5,103h-131V234h131Zm-94.65,71.93a6.25,6.25,0,0,1-4.11,1.23h-7.85V159.32h7.58a6.29,6.29,0,0,1,4,1.17,4.27,4.27,0,0,1,.67,5.67,4,4,0,0,1-2.07,1.36,4,4,0,0,1,2.35,1.46,4.4,4.4,0,0,1-.59,6Zm12.45,1.23-3.51-6.36h-1v6.36h-4.1V159.32h6.88a7.68,7.68,0,0,1,3.4.69,4.9,4.9,0,0,1,2.1,1.91,5.31,5.31,0,0,1,.7,2.7,5,5,0,0,1-.95,3,5.13,5.13,0,0,1-2.8,1.87l3.89,6.67Zm18.55,0-1-3h-6.29l-1,3h-4.29l6.09-16.84h4.76l6.09,16.84Zm21.26,0H231l-6.87-10.39v10.39H220V159.32h4.1L231,169.76V159.32h4.1Zm17-4a7.54,7.54,0,0,1-3.1,3,9.83,9.83,0,0,1-4.64,1h-6.31V159.32h6.31a9.77,9.77,0,0,1,4.66,1.05,7.59,7.59,0,0,1,3.08,3,9.42,9.42,0,0,1,0,8.79Z"/></g><g id="Group_5484" data-name="Group 5484"><g id="Group_5481" data-name="Group 5481"><path id="Path_5463" data-name="Path 5463" class="cls-1" d="M169.18,404.45a22.52,22.52,0,0,0-2.65-1.06,12.47,12.47,0,0,1-2.4-1,1.53,1.53,0,0,1-.57-2.08,1.64,1.64,0,0,1,.26-.33,1.76,1.76,0,0,1,1.2-.4,2.15,2.15,0,0,1,1.42.46,1.77,1.77,0,0,1,.6,1.29h4.44a4.81,4.81,0,0,0-1.83-3.71,8.16,8.16,0,0,0-8.93,0,4.42,4.42,0,0,0-1.7,3.68,4.13,4.13,0,0,0,.75,2.57,4.91,4.91,0,0,0,1.77,1.49,20,20,0,0,0,2.67,1,17.87,17.87,0,0,1,1.74.6,3.52,3.52,0,0,1,1,.67,1.52,1.52,0,0,1-.11,2.2,2.24,2.24,0,0,1-1.44.42,2,2,0,0,1-2.09-1.92H159a4.81,4.81,0,0,0,.92,2.83,5.42,5.42,0,0,0,2.34,1.78,8.94,8.94,0,0,0,3.31.6,7.46,7.46,0,0,0,3.29-.7A5.14,5.14,0,0,0,171,411a4.82,4.82,0,0,0,.74-2.61,4,4,0,0,0-.75-2.48A5,5,0,0,0,169.18,404.45Z"/><path id="Path_5464" data-name="Path 5464" class="cls-1" d="M179.25,409.66a1.09,1.09,0,0,1-.28-.86v-5.38h2.68V400H179v-3.26h-4.1V400h-1.63v3.41h1.63v5.33a4.52,4.52,0,0,0,1.25,3.56,5.09,5.09,0,0,0,3.48,1.09h2.09v-3.48h-1.47A1.38,1.38,0,0,1,179.25,409.66Z"/><path id="Path_5465" data-name="Path 5465" class="cls-1" d="M188.06,402.24V400H184V413.4h4.1v-6.21a2.94,2.94,0,0,1,.77-2.32,3.44,3.44,0,0,1,2.3-.66h1.13v-4.35a4.62,4.62,0,0,0-2.4.64A5.44,5.44,0,0,0,188.06,402.24Z"/><path id="Path_5466" data-name="Path 5466" class="cls-1" d="M203.44,401.9a4.26,4.26,0,0,0-1.64-1.51,5.22,5.22,0,0,0-2.48-.57,5.49,5.49,0,0,0-3,.84,5.75,5.75,0,0,0-2.13,2.4,8.84,8.84,0,0,0,0,7.26,5.87,5.87,0,0,0,2.13,2.42,5.38,5.38,0,0,0,3,.85,5.23,5.23,0,0,0,2.49-.57,4.49,4.49,0,0,0,1.66-1.52v1.9h4.1V400h-4.1Zm-.85,7.23a2.86,2.86,0,0,1-4,.1,1.14,1.14,0,0,0-.11-.11,3.42,3.42,0,0,1-.85-2.44,3.3,3.3,0,0,1,.85-2.41,2.89,2.89,0,0,1,4.08-.06l.07.07A3.87,3.87,0,0,1,202.59,409.13Z"/><path id="Path_5467" data-name="Path 5467" class="cls-1" d="M215.56,409.66a1.13,1.13,0,0,1-.29-.86v-5.38H218V400h-2.69v-3.26h-4.1V400h-1.63v3.41h1.63v5.33a4.52,4.52,0,0,0,1.25,3.56,5.1,5.1,0,0,0,3.48,1.09H218v-3.48h-1.46A1.39,1.39,0,0,1,215.56,409.66Z"/><path id="Path_5468" data-name="Path 5468" class="cls-1" d="M229.68,400.63a7.82,7.82,0,0,0-7,0,5.94,5.94,0,0,0-2.39,2.4,7.46,7.46,0,0,0-.85,3.65,7.36,7.36,0,0,0,.87,3.64,5.9,5.9,0,0,0,2.4,2.4,7.64,7.64,0,0,0,6.45.24,6.05,6.05,0,0,0,2.2-1.65,6,6,0,0,0,1.21-2.38h-4.36a2.15,2.15,0,0,1-2.14,1.3,2.43,2.43,0,0,1-1.74-.66,2.78,2.78,0,0,1-.8-1.91h9.29c0-.4.07-.8.07-1.2a7.14,7.14,0,0,0-.85-3.53A6,6,0,0,0,229.68,400.63Zm-6.12,4.78a2.65,2.65,0,0,1,.87-1.7,2.58,2.58,0,0,1,1.74-.6,2.67,2.67,0,0,1,1.8.62,2.12,2.12,0,0,1,.72,1.68Z"/><path id="Path_5469" data-name="Path 5469" class="cls-1" d="M244.27,401.9a4.28,4.28,0,0,0-1.65-1.51,5.19,5.19,0,0,0-2.48-.57,5.49,5.49,0,0,0-3,.84,5.75,5.75,0,0,0-2.13,2.4,8.84,8.84,0,0,0,0,7.26,5.87,5.87,0,0,0,2.13,2.42,5.42,5.42,0,0,0,3,.85,5,5,0,0,0,2.47-.59,4.57,4.57,0,0,0,1.66-1.52v1.9a3.18,3.18,0,0,1-.76,2.34,2.8,2.8,0,0,1-2,.73,3.25,3.25,0,0,1-1.77-.45,1.89,1.89,0,0,1-.91-1.21h-4.06a5.31,5.31,0,0,0,2.11,3.81,7.78,7.78,0,0,0,4.83,1.4,7.24,7.24,0,0,0,3.73-.89,5.65,5.65,0,0,0,2.23-2.39,7.44,7.44,0,0,0,.73-3.35V400h-4.1Zm-.86,7.23a2.85,2.85,0,0,1-4,.1l-.12-.11a3.42,3.42,0,0,1-.85-2.44,3.34,3.34,0,0,1,.85-2.41,2.89,2.89,0,0,1,4.08-.06l.07.07A3.87,3.87,0,0,1,243.41,409.13Z"/><path id="Path_5470" data-name="Path 5470" class="cls-1" d="M257.52,408.38l-3.1-8.37h-4.59L255.28,413l-3.07,6.81h4.41L265,400h-4.44Z"/></g><g id="Group_5483" data-name="Group 5483"><rect id="Rectangle_1919" data-name="Rectangle 1919" class="cls-1" y="374" width="424" height="10"/><g id="Group_5482" data-name="Group 5482"><rect id="Rectangle_1920" data-name="Rectangle 1920" class="cls-1" x="8" y="383" width="11" height="37"/><rect id="Rectangle_1921" data-name="Rectangle 1921" class="cls-1" x="405" y="383" width="11" height="37"/></g></g></g></g></g></g></svg>