<svg xmlns="http://www.w3.org/2000/svg" viewBox="0 0 357.75 579.26"><defs><style>.cls-1{fill:#fff;}</style></defs><g id="Layer_2" data-name="Layer 2"><g id="Layer_1-2" data-name="Layer 1"><g id="Group_5556" data-name="Group 5556"><path id="Path_5845" data-name="Path 5845" class="cls-1" d="M356.5,461.19a150.19,150.19,0,0,1-3.19-16.69c-1.6-11.34-2-20.08-2.35-27.1-.61-12.76-1-21.19-8.65-27.89a29.44,29.44,0,0,0-7.88-4.79c-2.71-1.22-4.2-1.9-5.64-4.35s-1.32-4-1.25-6.8a28.36,28.36,0,0,0-1.47-11c-2.36-6.73-6.29-9.86-10.83-13.5a79.23,79.23,0,0,1-8-7,42.56,42.56,0,0,1-8.88-12.88,59.48,59.48,0,0,0-6.3-10.54c-15.34-20.2-41-25.43-58-28.88a60.56,60.56,0,0,0-12-1.3c-4.9-.22-13.1-.58-30.16-1.9-14.28-1.11-23.13-2-29-2.58-9.41-.94-12.25-1.22-18.67-.53A62.84,62.84,0,0,0,123.16,289c-5.53,2.35-11.8,5-26.11,8-5.5,1.12-10,1.83-14,2.46-10.91,1.73-17.5,2.78-23.18,9.63-2.67,3.23-4.4,3.56-7.54,4.16a24.54,24.54,0,0,0-13.21,6.19c-4.93,4.35-6.22,9.9-7.36,14.79s-2,8.13-5.16,10.3c-11.13,7.7-14.5,19.35-19.61,37-6,20.88-9.38,32.38-5.12,44.59,6.56,18.74,26.8,33.58,47.08,34.5,8.17.37,15-1.65,20.56-3.28,6.19-1.82,9.07-2.47,10.64-1.09.66.59.8,1.12,1,4a36.09,36.09,0,0,0,1.71,9.38c5.8,17.33,26.27,28.92,43.49,31.4,10.73,1.56,19.32-.47,26.21-2.1s9.78-2.1,11.43-.4c.94,1,1.15,2,1.52,4.82.48,3.56,1.13,8.44,5.52,13.63a20.39,20.39,0,0,0,9.94,6.55,17.46,17.46,0,0,1,6.22,3.38c2.49,2.11,3.14,3.65,7.47,15.08,1.23,3.23,2.72,7.16,4.61,12,5.66,14.5,8.23,20.5,15.1,23.54a20.91,20.91,0,0,0,8.22,1.72c4,0,7.86-1.25,10.21-4.26,2.91-3.74,2-7.3-.4-16.83l-.77-3c-.78-3.1-2.08-8.28-2.56-11.2.94.2,2.07.49,3,.74,1.21.31,2.58.67,4,1,15.6,3.37,28.88-.76,36.82-3.23,11.3-3.52,23-7.16,28.87-18a34.23,34.23,0,0,0,3.5-11.34c.15-.84.32-1.89.5-2.63.62.37,1.4.92,2,1.34,2.56,1.8,6.07,4.26,10.83,4.82,16,1.86,35.57-20.2,38.78-43.76C358.14,467.93,357.53,465.39,356.5,461.19Zm-8.94,10.34c-2.6,19.13-18.06,36.31-27.7,35.18-2.25-.27-4.2-1.64-6.25-3.08-3-2.08-7-4.92-11.91-2.77s-5.56,6.8-6.2,10.6a24.79,24.79,0,0,1-2.43,8.21c-3.94,7.24-12.8,10-23.06,13.2-7.45,2.31-18.71,5.82-31.73,3-1.24-.27-2.45-.59-3.62-.89-4.6-1.2-9.83-2.57-13.51,1.28s-2.37,8.51.84,21.29l.77,3.06c.93,3.68,1.76,6.92,1.91,8.36a9.45,9.45,0,0,1-6.2-.59c-2.81-1.24-4.46-4.27-9.83-18-1.87-4.8-3.35-8.71-4.57-11.91-4.57-12.06-5.8-15.3-10.35-19.16a26.93,26.93,0,0,0-9.3-5.16c-2.37-.86-3.8-1.37-5.69-3.6-2.5-3-2.85-5.53-3.24-8.5-.42-3.14-.94-7-4.26-10.46-5.77-5.94-13.12-4.2-20.9-2.36-6.39,1.51-13.63,3.22-22.48,1.94-13.85-2-31-11.34-35.45-24.69a26.54,26.54,0,0,1-1.21-7c-.27-3.48-.56-7.41-4.37-10.78-5.87-5.18-13.09-3.06-20.07-1-5.07,1.49-10.82,3.18-17.29,2.88-16.16-.73-32.89-12.95-38.09-27.82-3.22-9.18-.56-18.37,5.27-38.5,4.84-16.69,7.5-25.88,15.7-31.55,6.47-4.48,8-11,9.21-16.26.92-3.93,1.7-7.32,4.24-9.55A14.9,14.9,0,0,1,54.25,323c3.75-.71,8.4-1.6,13.38-7.6,3.12-3.77,6.58-4.47,17-6.13,3.87-.62,8.67-1.38,14.38-2.55,15.31-3.12,22.37-6.13,28-8.55a53.33,53.33,0,0,1,18.24-4.88c5.39-.58,7.32-.39,16.61.54,5.9.59,14.81,1.48,29.2,2.6,17.23,1.34,25.54,1.7,30.5,1.92a51,51,0,0,1,10.45,1.11c16.45,3.34,39,7.93,52.06,25.13a49.79,49.79,0,0,1,5.29,8.92A52.13,52.13,0,0,0,300.13,349a90.69,90.69,0,0,0,8.87,7.87c4,3.21,6.23,5,7.65,9a18.79,18.79,0,0,1,.9,7.48c-.08,3.42-.18,7.29,2.61,12.07,3,5.22,7,7,10.15,8.43a19.71,19.71,0,0,1,5.41,3.2c4.23,3.71,4.66,8.25,5.25,20.85.35,7.23.78,16.23,2.45,28a160.75,160.75,0,0,0,3.37,17.66C347.7,467.33,348,468.46,347.56,471.53Z"/><path id="Path_5846" data-name="Path 5846" class="cls-1" d="M330.19,439.77c3.62,13.78.73,27.08-7.38,33.9-10.91,9.18-27.08,3.68-31.78,1.78-10.16-4.12-16.64-10.59-17-14.46-.56-5.46,13-12.35,23.84-17.89,16.63-8.47,33.83-17.23,33.18-31.82-.34-7.66-5.95-15.69-15.38-22-9.79-6.58-26.21-12.48-40.29-7.46-18,6.41-24.5,27.91-29.26,43.61-1.24,4.11-2.85,9.42-4.18,12.06-3.42-5-8.82-22.93-5-44.06,4.52-24.76,20-40.68,29.21-50.2,6.07-6.24,10.45-10.76,6.93-15.63-2-2.73-6.08-4.92-21.52-.42-31.16,9.07-81.39,36.93-83.53,73.05-1.41,23.88,18.36,46.31,39.13,63.67-6.8-2.22-11.72-2.1-14.8,1.23-9.1,9.82,12.72,34.48,12.94,34.73,19.2,21.51,46.21,25.31,60.61,25.67l.24-10c-12.77-.32-36.7-3.64-53.39-22.34-7-7.81-11.87-17-12.58-20.83,6.64.56,26.4,12,35.18,17.07,4.72,2.74,8.8,5.09,11.95,6.72,3.5,1.81,8.78,4.54,11.81.26a5.39,5.39,0,0,0,.88-4.05c-.6-3.27-3.52-5.25-14.38-12.6-22.55-15.28-69.49-47.08-67.6-78.93,1-16.63,15.41-30.69,27.33-39.55,19.92-14.81,43.07-23.47,54.57-26-.32.32-.63.65-.93,1-9.37,9.65-26.82,27.62-31.88,55.36-4,21.8.57,43.77,7.26,52.39,2.16,2.79,4.62,4.3,7.3,4.5,7.7.54,10.35-8.15,14-20.19,4.13-13.66,9.8-32.37,23-37.09,9.9-3.53,22.88.64,31.36,6.34,6.57,4.42,10.78,9.85,11,14.17.36,8.17-14.56,15.77-27.73,22.48-15.68,8-30.5,15.53-29.25,27.81,1,10.23,13.16,18.63,23.22,22.71,16,6.5,31.72,5.22,42-3.39,11.05-9.3,15.22-26.61,10.62-44.1Z"/><path id="Path_5847" data-name="Path 5847" class="cls-1" d="M131.86,468.38c-.18-.12-4.28-3.27,2.4-27.41,4.29-15.49,11.38-33.74,16.56-47.06,2.3-5.92,4.29-11,5.58-14.72,1.66-4.75,3.54-10.13-1.37-12.27-2-.87-5-1-7.79,3.58-.78,1.25-1.77,3.07-3,5.57-2.25,4.5-5.1,10.68-8.4,17.83-5.21,11.31-11.12,24.13-16.72,34.8-5.26,10-8.52,14.77-10.4,17-1-4.45-1.85-14.06-.56-29.72,1.57-19.16,5.57-38.1,11-52S131.24,341.76,138,340.4c7.14-1.42,16.56,4.24,27.26,16.4l7.51-6.61C159.38,335,147,328.38,136,330.59c-17.56,3.53-27.65,28.7-33,53.22.32-2.47.65-5,1-7.67,4.42-33.69,5.63-39.1,10-44.54,6.19-7.78,19.05-17.24,45.25-18.11a76.94,76.94,0,0,1,45.07,13.16l5.54-8.32a86.83,86.83,0,0,0-50.94-14.83c-30,1-45.25,12.45-52.75,21.88-6.15,7.75-7.46,14.57-12,49.46-.86,6.55-1.63,12.52-2.32,18-2.65,20.63-4.66,36.26-6.68,41.62a35.13,35.13,0,0,1-4.43-7.85c-5-12-1.62-24.83.42-32.48,1.51-5.67,2.82-10.57-1.65-13-5.2-2.81-10.16,3.16-13.77,7.52-4.83,5.84-11.83,15.64-20.78,29.12l8.33,5.53c7.25-10.91,12.44-18.25,16.15-23.18-1.65,8.43-2.48,19.46,2.08,30.35,2.93,7,7.73,15.09,14.22,15.09a9.26,9.26,0,0,0,1-.07c6.28-.84,8.31-8.25,9.73-15.14.42-2.05.83-4.36,1.25-7l0,.74a116.15,116.15,0,0,0,.71,20.51c.77,5.17,2.29,11.28,7.31,12.71,5.4,1.53,10.5-2.89,18.33-16.65-4.67,17.78-5.17,30.89,2.2,36a11.77,11.77,0,0,0,6.9,2.05c9,0,22.33-8.1,42.22-25.4l-6.56-7.54C138.27,472.24,132.11,468.55,131.86,468.38Z"/><rect id="Rectangle_2020" data-name="Rectangle 2020" class="cls-1" x="34.36" y="365" width="52.32" height="10" transform="translate(-243.9 151.16) rotate(-45)"/><rect id="Rectangle_2021" data-name="Rectangle 2021" class="cls-1" x="171.53" width="40" height="177"/><rect id="Rectangle_2022" data-name="Rectangle 2022" class="cls-1" x="170.4" y="205.05" width="42.1" height="40" transform="translate(-34.33 415.64) rotate(-89.78)"/></g></g></g></svg>