<svg xmlns="http://www.w3.org/2000/svg" viewBox="0 0 447.83 306.44"><defs><style>.cls-1{fill:#fff;}</style></defs><g id="Layer_2" data-name="Layer 2"><g id="Layer_1-2" data-name="Layer 1"><g id="Group_5489" data-name="Group 5489"><path id="Path_5476" data-name="Path 5476" class="cls-1" d="M447.83,24.66V0H423.18V12.8H236.24V.7H211.59V12.8H24.66V1.41H0V26.06H11.39V140.89H0v24.66H11.39V281.78H0v24.66H24.66v-12.8H211.59v12.8h24.65v-12.8H423.18v12.8h24.65V281.78H436.44V165.55h11.39V140.89H436.44V24.66ZM435.28,140.89h-12.1v24.66h12.1V281.79h-12.1v10.69H236.24V281.79H211.59v10.69H24.66V281.79H12.56V165.55h12.1V140.89H12.56V26.06h12.1V14H211.59v11.4h24.65V14H423.18V24.65h12.1Z"/><path id="Path_5477" data-name="Path 5477" class="cls-1" d="M139.28,75.21V95.35h-.61a12.07,12.07,0,0,0-23.61,3.7h0a12.15,12.15,0,0,0,12.11,12.21h0a12.23,12.23,0,0,0,11.5-8.51h.61v19.94h13.24a14.24,14.24,0,0,1-3.91-9.79,14.54,14.54,0,0,1,29.08,0,14.24,14.24,0,0,1-3.91,9.79h13.38V75.21Z"/><path id="Path_5478" data-name="Path 5478" class="cls-1" d="M223.6,166.54a8.57,8.57,0,0,0-12.73-11.2h0a8.61,8.61,0,0,0-1.16,12.14h0a8.56,8.56,0,0,0,7.49,3,9.23,9.23,0,0,0,2.37-.58l.36.44-9.61,8,6,7.22a10,10,0,0,1,3.55-6.59,10.31,10.31,0,0,1,13.19,15.85,10.13,10.13,0,0,1-7.12,2.3l6,7.22,24.62-20.5-21.63-26L224,167Z"/><path id="Path_5479" data-name="Path 5479" class="cls-1" d="M151.61,161.19A12.15,12.15,0,0,0,163.72,149h0a12.16,12.16,0,0,0-12.1-12.21h0a12.26,12.26,0,0,0-11.5,8.51h-.61V125.35H126.26a14.24,14.24,0,0,1,3.91,9.78,14.54,14.54,0,0,1-29.08,0,14.24,14.24,0,0,1,3.91-9.78H91.61v47.47h47.88V152.69h.62A12.23,12.23,0,0,0,151.61,161.19Z"/><path id="Path_5480" data-name="Path 5480" class="cls-1" d="M111.83,123.8a12.59,12.59,0,0,0-3.08,1.51,12,12,0,0,0,6.77,22.1h0a12.15,12.15,0,0,0,12.21-12.1h0a12.08,12.08,0,0,0-5.43-10,12.59,12.59,0,0,0-3.08-1.51V123h17.63V109.76a14.27,14.27,0,0,1-9.79,3.94,14.54,14.54,0,0,1,0-29.08,14.27,14.27,0,0,1,9.79,3.94V75.31H91.69V123h20.14Z"/><path id="Path_5481" data-name="Path 5481" class="cls-1" d="M299.42,221.89l-2.6,3.52-11.26-8.33L284.12,216A63.24,63.24,0,0,0,289,206.6l-2.77-2-.7-.52a59.54,59.54,0,1,0-18.16,24.55l.7.51,2.77,2.05a63.25,63.25,0,0,0,7.57-7.43l1.44,1.06,11.26,8.33-2.6,3.52,62.6,46.31L362,268.21Zm-102.66,5.38a56.22,56.22,0,1,1,86-25.29,55.05,55.05,0,0,1-4.7,9.56q-1.24,2-2.68,4c-1,1.3-2,2.54-3,3.72a54.72,54.72,0,0,1-7.76,7.3,56.3,56.3,0,0,1-67.85.74Z"/></g></g></g></svg>