<svg xmlns="http://www.w3.org/2000/svg" viewBox="0 0 722.17 494.17"><defs><style>.cls-1{fill:#fff;}</style></defs><g id="Layer_2" data-name="Layer 2"><g id="Layer_1-2" data-name="Layer 1"><g id="Group_5500" data-name="Group 5500"><path id="Path_5500" data-name="Path 5500" class="cls-1" d="M722.17,39.76V0H682.41V20.65H381V1.14H341.21V20.65H39.76V2.27H0V42H18.38V227.2H0V267H18.38V454.41H0v39.76H39.76V473.52H341.21v20.65H381V473.52H682.41v20.65h39.76V454.41H703.8V267h18.37V227.2H703.8V39.76ZM701.92,227.2H682.41V267h19.51V454.41H682.41v17.23H381V454.41H341.21v17.23H39.76V454.41H20.25V267H39.76V227.2H20.25V42H39.76V22.52H341.21V40.9H381V22.52H682.41V39.76h19.51Z"/><path id="Path_5501" data-name="Path 5501" class="cls-1" d="M221.81,220.28q-3.59-2.59-10.06-2.6H188.93l-8.44,47.6h23.56q7.63,0,12.42-3.44a14.07,14.07,0,0,0,5.81-9.52,12.84,12.84,0,0,0,.2-2.23,9.47,9.47,0,0,0-1.92-5.94,9.21,9.21,0,0,0-5.37-3.31A14,14,0,0,0,221.7,237a13,13,0,0,0,3.48-7,14.39,14.39,0,0,0,.2-2.37A8.6,8.6,0,0,0,221.81,220.28Zm-12.7,30.15q-.81,4.24-5.73,4.25h-7.7l1.48-8.71h7.63a5.08,5.08,0,0,1,3.27.91,3.19,3.19,0,0,1,1.12,2.6,4.9,4.9,0,0,1-.07.94Zm2.1-18q-.75,4.18-5.68,4.18h-6.68l1.49-8.44H207c2.84,0,4.25,1.08,4.25,3.24a5.82,5.82,0,0,1-.06,1Z"/><path id="Path_5502" data-name="Path 5502" class="cls-1" d="M249.62,234.29l1.22-6.89H237.6l-6.75,37.88h13.3l3-17.15q.81-3.84,3.17-5.4a11.82,11.82,0,0,1,6.55-1.55h3.71l2.43-14.11a14.49,14.49,0,0,0-7.15,2A22.22,22.22,0,0,0,249.62,234.29Z"/><path id="Path_5503" data-name="Path 5503" class="cls-1" d="M297,232.67a8.3,8.3,0,0,0-3.58-4.19,12.33,12.33,0,0,0-6.48-1.55,16.94,16.94,0,0,0-8.61,2.36,21.11,21.11,0,0,0-7,6.76,27.29,27.29,0,0,0-4,10.26,28.73,28.73,0,0,0-.4,4.72q0,6.83,3.57,10.77a12.22,12.22,0,0,0,9.52,3.95,15.82,15.82,0,0,0,7-1.55,13.91,13.91,0,0,0,5.13-4.19l-1,5.27h13.23l6.69-37.88H297.9Zm-2.36,13.64a9.54,9.54,0,0,1-3,5.8,7.84,7.84,0,0,1-5.34,2.1,5.57,5.57,0,0,1-4.08-1.56,5.82,5.82,0,0,1-1.59-4.38,9.87,9.87,0,0,1,.2-2,9.31,9.31,0,0,1,3-5.77,7.86,7.86,0,0,1,5.33-2.06A5.6,5.6,0,0,1,293.2,240a5.89,5.89,0,0,1,1.59,4.39,10.92,10.92,0,0,1-.2,1.89Z"/><path id="Path_5504" data-name="Path 5504" class="cls-1" d="M348.67,227.07a15.8,15.8,0,0,0-7.09,1.58,17,17,0,0,0-5.47,4.15l.94-5.4H323.82l-6.75,37.88h13.3L334,244.62a8.85,8.85,0,0,1,2.64-4.86,6.91,6.91,0,0,1,4.79-1.75,5.28,5.28,0,0,1,3.88,1.35,5,5,0,0,1,1.39,3.78,10.14,10.14,0,0,1-.2,1.82l-3.58,20.32h13.23l3.92-22.08a22,22,0,0,0,.4-4q0-5.67-3.14-8.87T348.67,227.07Z"/><path id="Path_5505" data-name="Path 5505" class="cls-1" d="M399.3,232.6a8.84,8.84,0,0,0-3.75-4.15,12.15,12.15,0,0,0-6.24-1.52,17.15,17.15,0,0,0-8.64,2.36,21,21,0,0,0-7,6.75,27.4,27.4,0,0,0-4,10.27,29.87,29.87,0,0,0-.4,4.72q0,6.83,3.61,10.77a12.31,12.31,0,0,0,9.55,3.95,15.39,15.39,0,0,0,7-1.55,14.77,14.77,0,0,0,5.13-4.19l-1,5.27h13.3l8.85-50h-13.3Zm-2.36,13.71a9.54,9.54,0,0,1-3,5.8,7.84,7.84,0,0,1-5.34,2.1,5.62,5.62,0,0,1-4.08-1.56,5.84,5.84,0,0,1-1.59-4.38,9.87,9.87,0,0,1,.2-2,9.31,9.31,0,0,1,3-5.77,7.87,7.87,0,0,1,5.34-2.06,5.59,5.59,0,0,1,4.08,1.55,5.89,5.89,0,0,1,1.59,4.39,10,10,0,0,1-.2,1.89Z"/><path id="Path_5506" data-name="Path 5506" class="cls-1" d="M440.72,211.84a7.09,7.09,0,0,0-4.9-1.58,9.48,9.48,0,0,0-4.63,1.11,8.72,8.72,0,0,0-3.24,3,7.43,7.43,0,0,0-1.18,4,5,5,0,0,0,1.79,4,7.23,7.23,0,0,0,4.9,1.55,9.78,9.78,0,0,0,4.59-1.08,8.32,8.32,0,0,0,3.27-2.9,7.14,7.14,0,0,0,1.18-4A5.2,5.2,0,0,0,440.72,211.84Z"/><path id="Path_5507" data-name="Path 5507" class="cls-1" d="M419.42,265.28h13.3l6.68-37.88H426.17Z"/><path id="Path_5508" data-name="Path 5508" class="cls-1" d="M476.87,227.07a15.76,15.76,0,0,0-7.08,1.58,17,17,0,0,0-5.47,4.15l.94-5.4H452l-6.75,37.88h13.3l3.64-20.66a8.9,8.9,0,0,1,2.63-4.86,7,7,0,0,1,4.8-1.75,5.28,5.28,0,0,1,3.88,1.35,5,5,0,0,1,1.38,3.78,8.6,8.6,0,0,1-.2,1.82l-3.57,20.32h13.23l3.91-22.08a21.15,21.15,0,0,0,.4-4q0-5.67-3.13-8.87T476.87,227.07Z"/><path id="Path_5509" data-name="Path 5509" class="cls-1" d="M527.51,232.67a8.27,8.27,0,0,0-3.61-4.19,12.42,12.42,0,0,0-6.45-1.55,16.94,16.94,0,0,0-8.61,2.36,21,21,0,0,0-7,6.76,27.29,27.29,0,0,0-4,10.26,29.87,29.87,0,0,0-.4,4.72q0,6.83,3.61,10.77a12.31,12.31,0,0,0,9.55,3.95,15.65,15.65,0,0,0,7-1.55,13.91,13.91,0,0,0,5.1-4.19l-.88,4.86q-1.27,7.56-8,7.57a6.79,6.79,0,0,1-3.95-1,3.6,3.6,0,0,1-1.59-2.83h-13l-.07,1.35a12.54,12.54,0,0,0,4.56,10.22q4.56,3.75,12.86,3.75a23.37,23.37,0,0,0,11.28-2.56,20.15,20.15,0,0,0,7.49-6.86,26,26,0,0,0,3.72-9.62l6.61-37.47H528.46Zm-2.36,13.64a9.5,9.5,0,0,1-3,5.8,7.81,7.81,0,0,1-5.33,2.1,5.6,5.6,0,0,1-4.09-1.56,5.85,5.85,0,0,1-1.58-4.38,9.87,9.87,0,0,1,.2-2,9.31,9.31,0,0,1,3-5.77,7.86,7.86,0,0,1,5.33-2.06,5.6,5.6,0,0,1,4.09,1.55,5.89,5.89,0,0,1,1.59,4.39,10,10,0,0,1-.21,1.89Z"/></g></g></g></svg>