<svg xmlns="http://www.w3.org/2000/svg" viewBox="0 0 231.38 574.96"><defs><style>.cls-1{fill:#fff;}</style></defs><g id="Layer_2" data-name="Layer 2"><g id="Layer_1-2" data-name="Layer 1"><g id="Group_450" data-name="Group 450"><path id="Path_329" data-name="Path 329" class="cls-1" d="M231,10.56c-3.72,12-7.55,23.88-11.34,35.81-11.3,35.58-22.37,71.24-34,106.7-7.66,23.34-16.16,46.4-24.3,69.59q-13.9,39.53-27.84,79a9.16,9.16,0,0,1-1.93,3.56c-9.77,9.92-20,19.36-31.7,26.94a68.65,68.65,0,0,1-16.15,8c-.94.3-2.12,1.16-2.92.25-.67-.75.16-1.83.47-2.7,9.34-26.43,19.32-52.61,29.53-78.71,24.08-61.56,50-122.35,75.77-183.21q14.83-35,29.61-70.13c1.44-3.4,3.6-5.66,6.41-5.7C229,0,232.64,5.25,231,10.56Z"/><path id="Path_330" data-name="Path 330" class="cls-1" d="M129.67,313.26A737,737,0,0,1,99.34,389.5c-2.6,5.57-6.47,7.57-11.85,8.06a25.76,25.76,0,0,1-20.9-7.34,3.86,3.86,0,0,1-1.22-4.28c3.84-13.34,8.1-26.55,12.66-39.67a3.14,3.14,0,0,1,2.32-2.46c11.23-2.57,20.63-8.69,29.62-15.53a188.14,188.14,0,0,0,18.27-16,2.78,2.78,0,0,1,1.65-1.13C130.43,312,129.89,312.62,129.67,313.26Z"/><path id="Path_331" data-name="Path 331" class="cls-1" d="M93.35,400.67C91,404.81,88.7,408.93,85,412.09A16.23,16.23,0,0,1,76.87,416c-1.31.21-2.6.27-2.9-2-.81,2.24-2.06,2.21-3.51,1.77a12,12,0,0,1-8.62-11c-.28-4,.69-7.81,1.65-11.62.43-1.66,1.05-1.95,2.4-.7a27.24,27.24,0,0,0,14.76,7.09,27.62,27.62,0,0,0,11.23-.6c.61-.17,1.45-.76,2,0C94.25,399.51,93.65,400.14,93.35,400.67Z"/><path id="Path_332" data-name="Path 332" class="cls-1" d="M21.06,498.44a230.11,230.11,0,0,0-1.9,37.47,8.7,8.7,0,0,1-2.69,6.84A75.6,75.6,0,0,0,5.34,557.23c-.3.5-.49,1.32-1.33,1.13-.46-.1-.42-.64-.43-1A116.11,116.11,0,0,1,5.86,531.1c1.18,5.77,1.55,11.62,3.89,17.13a156.67,156.67,0,0,1,10.86-51.6C21.37,497.21,21.14,497.88,21.06,498.44Z"/><path id="Path_333" data-name="Path 333" class="cls-1" d="M71.37,421.2c-4.09,13-9.51,25.42-14.91,37.87-6.25,14.39-11.2,29.24-16.45,44a74,74,0,0,1-9.56,18.85A4.6,4.6,0,0,1,28.2,524c.84-1.93,1.44-3.38,2.11-4.8a673,673,0,0,0,36.9-98.49c.31-1.08,0-2.81,1.94-2.86C71.51,417.76,72.15,418.75,71.37,421.2Z"/><path id="Path_334" data-name="Path 334" class="cls-1" d="M64.9,419c-2.47,4.22-5,8.43-7.35,12.72A305.7,305.7,0,0,0,34.6,485.14c-.22.68-.46,1.37-.72,2a3.68,3.68,0,0,1-.39.58l-.47-.13c.37-1.45.72-2.91,1.09-4.36C39.57,461.41,48.3,440.84,58.87,421c.79-1.49,1.39-3.09,2.3-4.5.56-.88.41-3,2.4-2.09C65.94,415.48,66.2,416.74,64.9,419Z"/><path id="Path_335" data-name="Path 335" class="cls-1" d="M64.35,468a42.24,42.24,0,0,1-1.57,8C59.47,489.66,52.48,501.4,44,512.35a253.8,253.8,0,0,1-19.72,22.12c-.53.54-.95,1.34-2,1.27-.24-1.57.41-3,.74-4.44.16-.75.5-1.39.77.08.1.51.65-.22.72-.46,1.07-3.35,3.92-4.82,6.6-6.61,6.14-4.09,10.6-9.79,14.37-16,7.2-12,12.25-24.92,17.44-37.81A4,4,0,0,1,64.35,468Z"/><path id="Path_336" data-name="Path 336" class="cls-1" d="M39.9,532.75C27.67,547.61,13.47,560.59,0,575,2.49,567.32,27.79,540.55,39.9,532.75Z"/><path id="Path_337" data-name="Path 337" class="cls-1" d="M79.31,420.38c-1.37,6.42-2.82,12.83-4.26,19.25a53.44,53.44,0,0,1-5.31,14.14c-.26.46-.35,1.09-1.43,1.39,1.67-5.89,3.25-11.5,4.32-17.25a100.08,100.08,0,0,0,1.86-16.46,3.23,3.23,0,0,1,2.9-3.52,3.19,3.19,0,0,1,1.3.15C80.33,418.42,79.48,419.61,79.31,420.38Z"/><path id="Path_338" data-name="Path 338" class="cls-1" d="M61.37,413.28c-2.87,3.32-5.8,6.57-8.71,9.84l-.62-.35c2.19-4,3.09-8.67,6.77-11.83.53-.47,1.07-1.57,1.93-.63S62.34,412.15,61.37,413.28Z"/><path id="Path_339" data-name="Path 339" class="cls-1" d="M84.43,418.54a52.82,52.82,0,0,1-2.82,10l-.82-.09c.18-3.53.25-7.08.59-10.6A2.23,2.23,0,0,1,84,416.17C85.32,416.41,84.58,417.71,84.43,418.54Z"/></g></g></g></svg>