<svg xmlns="http://www.w3.org/2000/svg" viewBox="0 0 196.12 380.94"><defs><style>.cls-1{fill:#fff;stroke:#fff;stroke-miterlimit:10;}</style></defs><g id="Layer_2" data-name="Layer 2"><g id="Layer_1-2" data-name="Layer 1"><g id="Group_5496" data-name="Group 5496"><path id="Path_5494" data-name="Path 5494" class="cls-1" d="M114.33,74.82v15.8l15.8-15.8Z"/><path id="Path_5495" data-name="Path 5495" class="cls-1" d="M98.06.5A97.56,97.56,0,0,0,.5,98.06h0a97.45,97.45,0,0,0,43.31,81.09V195l0,.15c.11.35.23.7.35,1a62.44,62.44,0,0,0,35.26,28.28c1.34.42,2.69.8,4.06,1.13a62.59,62.59,0,0,0,29.06,0c1.37-.33,2.72-.7,4.06-1.13a62.44,62.44,0,0,0,35.26-28.28c.12-.35.24-.7.35-1,0-.05,0-.1.05-.15V179.15A97.56,97.56,0,0,0,98.06.5ZM89.69,108.25l-1-1v32H81.79V100.35L49.36,67.92H88.67V97.5l5.88,5.88Zm24.65-7.9v38.88h-6.89v-32l-1,1-4.88-4.87,5.89-5.88V67.92h39.31Z"/><path id="Path_5496" data-name="Path 5496" class="cls-1" d="M81.78,90.61V74.82H66Z"/><path id="Path_5497" data-name="Path 5497" class="cls-1" d="M147.17,211a64.52,64.52,0,0,1-27.15,19c-1.12.41-2.24.79-3.38,1.13a64.46,64.46,0,0,1-37.17,0c-1.13-.35-2.25-.72-3.37-1.13A64.52,64.52,0,0,1,49,211c0,.07.08.14.11.21A59.39,59.39,0,0,0,43.81,223v36l.21.63c.27.84.57,1.68.88,2.5a62.16,62.16,0,0,0,106.32,0c.31-.82.6-1.65.88-2.5l.21-.63V223a59.43,59.43,0,0,0-5.26-11.84A2.25,2.25,0,0,0,147.17,211Z"/><path id="Path_5498" data-name="Path 5498" class="cls-1" d="M98.06,362a64.16,64.16,0,0,1-49.48-23.27,59.12,59.12,0,0,0-4.77,11l28.73,30.72h51l28.73-30.72a59.12,59.12,0,0,0-4.77-11A64.16,64.16,0,0,1,98.06,362Z"/><path id="Path_5499" data-name="Path 5499" class="cls-1" d="M98.06,298.11a64.27,64.27,0,0,1-49.23-23,59.38,59.38,0,0,0-5,11.43v36a55.25,55.25,0,0,0,1.94,5.22,62.12,62.12,0,0,0,104.62,0c.73-1.7,1.37-3.44,1.94-5.22v-36a59.38,59.38,0,0,0-5-11.43A64.27,64.27,0,0,1,98.06,298.11Z"/></g></g></g></svg>