<svg xmlns="http://www.w3.org/2000/svg" viewBox="0 0 1077.93 292.3"><defs><style>.cls-1{fill:#fff;}</style></defs><g id="Layer_2" data-name="Layer 2"><g id="Layer_1-2" data-name="Layer 1"><g id="Group_5850" data-name="Group 5850"><path id="Path_111" data-name="Path 111" class="cls-1" d="M1077.48,180.68l-67.74,110.13a3.18,3.18,0,0,1-2.69,1.49H1007a3.16,3.16,0,0,1-3.15-3.16h0V199.32a3.15,3.15,0,0,1,2-2.94c17.37-6.75,13.95-34.87-5.93-36-21.48-1.6-27.19,28.74-8.54,36a3.13,3.13,0,0,1,2,2.93v89.83a3.16,3.16,0,0,1-3.15,3.16h-.07a3.18,3.18,0,0,1-2.69-1.5c-13-21.12-54.86-89.15-67.74-110.13a3.15,3.15,0,0,1,0-3.26c7.72-12.94,33-53.23,41-66.59a3.13,3.13,0,0,1,2.7-1.52h70.33a3.16,3.16,0,0,1,2.72,1.55c8,13.6,33.2,53.49,41,66.56A3.13,3.13,0,0,1,1077.48,180.68Z"/><path id="Rectangle_44" data-name="Rectangle 44" class="cls-1" d="M970.21,81H1027a8.82,8.82,0,0,1,8.82,8.82h0a8.82,8.82,0,0,1-8.82,8.81H970.21a8.82,8.82,0,0,1-8.82-8.81h0A8.82,8.82,0,0,1,970.21,81Z"/><path id="Path_7595" data-name="Path 7595" class="cls-1" d="M393.75,121.31a7.39,7.39,0,0,1,6.92,7.32c0,1.82,0,3.86,0,6.06a5.19,5.19,0,0,1,1.05-.1h81.7a5.33,5.33,0,0,1,1.05.1v-6.06a7.4,7.4,0,0,1,6.93-7.32c3.39-.25,6.41-1.36,6.42-5.43V73.69a5.52,5.52,0,0,0-5.06-5.58c-7.56-.35-5.45,9.55-5.71,14.21a5.41,5.41,0,0,1-5.41,5.41c-4.2.31-9.7.07-9.79-5.42-.28-4.31,1.83-14.38-5.41-14.22-4.71.54-16.15-2.41-16.12,5.42-.28,4.67,1.85,14.18-5.42,14.22-.74,0-1.54.1-2.33.08s-1.59,0-2.34-.08c-7.27,0-5.14-9.55-5.42-14.22,0-7.83-11.41-4.88-16.11-5.42-7.24-.16-5.13,9.91-5.42,14.22-.09,5.49-5.59,5.73-9.78,5.42a5.42,5.42,0,0,1-5.42-5.41c-.25-4.66,1.86-14.56-5.71-14.21a5.52,5.52,0,0,0-5.06,5.58v42.19C387.33,120,390.35,121.06,393.75,121.31Z"/><path id="Path_7596" data-name="Path 7596" class="cls-1" d="M385.61,250.56H499.55a3.22,3.22,0,0,0,3.22-3.23,3.26,3.26,0,0,0-.27-1.3l-16-36.26a23.54,23.54,0,0,1-2-9.5c0-10,0-33.07,0-52.48a4.28,4.28,0,0,0-4.26-4.27h-78.5a1,1,0,0,0-1,1h0c0,20,0,45.23,0,55.75a23.54,23.54,0,0,1-2,9.5l-16,36.26a3.22,3.22,0,0,0,1.65,4.25A3.07,3.07,0,0,0,385.61,250.56Z"/><path id="Path_7597" data-name="Path 7597" class="cls-1" d="M381.14,271.43H504a6,6,0,0,0,6-6h0a6,6,0,0,0-6-6H381.14a6,6,0,0,0-6,6h0a6,6,0,0,0,6,6Z"/><path id="Path_7598" data-name="Path 7598" class="cls-1" d="M510.66,280.26H374.49a6,6,0,0,0-.15,12H510.66a6,6,0,0,0,.15-12Z"/><path id="Path_7599" data-name="Path 7599" class="cls-1" d="M780.69,252.51H866c1.75,0,2.92-2.28,2.21-4.32,0,0-13.53-40.5-13.53-43.62,0-7.68,0-35.28,0-47.82a6.28,6.28,0,0,0-6.28-6.28H798.29a6.28,6.28,0,0,0-6.28,6.28h0c0,12.54,0,40.14,0,47.82,0,3.12-13.53,43.62-13.53,43.62C777.76,250.23,778.94,252.51,780.69,252.51Z"/><path id="Path_7600" data-name="Path 7600" class="cls-1" d="M777.33,272.4h92a4.07,4.07,0,0,0,3.2-1.68,6.52,6.52,0,0,0,1.32-4.06c0-3.17-2-5.73-4.52-5.73h-92c-2.5,0-4.52,2.56-4.52,5.73a6.58,6.58,0,0,0,1.32,4.06A4.07,4.07,0,0,0,777.33,272.4Z"/><path id="Path_7601" data-name="Path 7601" class="cls-1" d="M874.38,280.82h-102c-2.5,0-4.52,2.57-4.52,5.74s2,5.73,4.52,5.73h102c2.5,0,4.52-2.56,4.52-5.73S876.88,280.82,874.38,280.82Z"/><path id="Path_7602" data-name="Path 7602" class="cls-1" d="M795.64,146.08h55.43A2.41,2.41,0,0,0,853,145a4.21,4.21,0,0,0,.8-2.54c0-2-1.22-3.59-2.72-3.59H840.87A25.64,25.64,0,0,0,849,120.15c0-10.86-15.08-29-22.12-36.9a6.95,6.95,0,1,0-7.09,0c-7,7.89-22.12,26-22.12,36.9a25.62,25.62,0,0,0,8.15,18.75h-10.2c-1.51,0-2.73,1.61-2.73,3.59a4.28,4.28,0,0,0,.8,2.54A2.42,2.42,0,0,0,795.64,146.08Z"/><path id="Path_7603" data-name="Path 7603" class="cls-1" d="M105,93.87,116.9,68.14l-91,0L37.76,93.85Z"/><path id="Path_7604" data-name="Path 7604" class="cls-1" d="M25.57,61.89l91.66,0-38.54-30V24.28H88V9.72H78.7V0H64.13V9.71H54.5V24.27h9.63v7.62Z"/><path id="Path_7605" data-name="Path 7605" class="cls-1" d="M30.12,109.28l82.54,0a4.62,4.62,0,0,0,0-9.23l-82.54,0a4.62,4.62,0,0,0-.14,9.23Z"/><path id="Path_7606" data-name="Path 7606" class="cls-1" d="M14.28,269.57l114.1,0a4.62,4.62,0,0,0,0-9.23l-114.1,0a4.62,4.62,0,0,0,0,9.23Z"/><path id="Path_7607" data-name="Path 7607" class="cls-1" d="M134.5,275.79H8.25A8.25,8.25,0,0,0,0,284H0a8.26,8.26,0,0,0,8.25,8.26H134.49a8.26,8.26,0,0,0,8.26-8.26h0A8.25,8.25,0,0,0,134.5,275.79Z"/><path id="Path_7608" data-name="Path 7608" class="cls-1" d="M26.88,253.82l88.9.34a2.51,2.51,0,0,0,2.52-2.51,2.35,2.35,0,0,0-.21-1L105.71,222.3a18.4,18.4,0,0,1-1.53-7.42c0-7.77.36-99.14.36-99.14l-65.38-.25s-.34,90.93-.38,99.14A18.41,18.41,0,0,1,37.19,222l-12.6,28.24a2.52,2.52,0,0,0,1.27,3.32A2.56,2.56,0,0,0,26.88,253.82Z"/><path id="Path_7609" data-name="Path 7609" class="cls-1" d="M222,93.84l67.27,0,11.88-25.73h-21A25.24,25.24,0,0,0,263,38a8.5,8.5,0,1,0-14.7,0,25.24,25.24,0,0,0-17.18,30.12h-21Z"/><path id="Path_7610" data-name="Path 7610" class="cls-1" d="M214.34,109.27l82.54,0a4.61,4.61,0,0,0,0-9.22l-82.54,0a4.61,4.61,0,1,0-.13,9.22Z"/><path id="Path_7611" data-name="Path 7611" class="cls-1" d="M198.56,269.56l114.1.05a4.62,4.62,0,0,0,0-9.23l-114.1,0a4.61,4.61,0,0,0-.14,9.22Z"/><path id="Path_7612" data-name="Path 7612" class="cls-1" d="M318.73,275.79H192.49a8.26,8.26,0,0,0,0,16.51H318.73a8.26,8.26,0,0,0,0-16.51Z"/><path id="Path_7613" data-name="Path 7613" class="cls-1" d="M211.16,253.82l88.9.34a2.51,2.51,0,0,0,2.31-3.52L290,222.3a18.4,18.4,0,0,1-1.53-7.42c0-7.77.37-99.14.37-99.14l-65.38-.25s-.35,90.93-.39,99.14a18.41,18.41,0,0,1-1.59,7.41l-12.6,28.24a2.52,2.52,0,0,0,1.28,3.32A2.4,2.4,0,0,0,211.16,253.82Z"/><path id="Path_7614" data-name="Path 7614" class="cls-1" d="M726.3,132.34l-.85-9.32a4.45,4.45,0,0,0-2.26-3.49L678,94.26a4.51,4.51,0,0,1-1.09-.85L669,85.05a4.42,4.42,0,0,0-3.16-1.41l-23.28-.53a4.46,4.46,0,0,1-4.33-4l-1.57-14.6L623.28,90.07a4.38,4.38,0,0,1-1.23,1.47l-17.39,13.33a4.45,4.45,0,0,0-1.74,3.36l-2.23,52.42h52.86l-.83-13.05a4.46,4.46,0,0,1,1.86-3.92l3.29-2.35a4.47,4.47,0,0,1,3.58-.72l7,1.59A4.53,4.53,0,0,0,671,142l6.7-2.41a5,5,0,0,1,.69-.19l20.41-3.84a4.43,4.43,0,0,1,3.64.92l6.6,5.37a4.48,4.48,0,0,0,5,.42l10-5.68A4.46,4.46,0,0,0,726.3,132.34Z"/><path id="Path_7615" data-name="Path 7615" class="cls-1" d="M589.13,175.91h75.51a3.36,3.36,0,0,0,2.63-1.38,5.4,5.4,0,0,0,1.08-3.33c0-2.61-1.66-4.72-3.71-4.72H589.13c-2,0-3.71,2.11-3.71,4.72a5.4,5.4,0,0,0,1.08,3.33A3.34,3.34,0,0,0,589.13,175.91Z"/><path id="Path_7616" data-name="Path 7616" class="cls-1" d="M574.06,263.14H679.71c2.16,0,3.61-1.83,2.74-3.46L667.6,232a15.49,15.49,0,0,1-1.85-7.27c0-7.61,0-25.29,0-40.13,0-1.79-1.78-3.26-4-3.26H589a.88.88,0,0,0-1,.76c0,15.3,0,34.59,0,42.63a15.38,15.38,0,0,1-1.86,7.27l-14.84,27.73C570.45,261.31,571.89,263.14,574.06,263.14Z"/><path id="Path_7617" data-name="Path 7617" class="cls-1" d="M569.91,277.72H683.85c3.08,0,5.58-2.06,5.58-4.6s-2.5-4.6-5.58-4.6H569.91c-3.08,0-5.58,2.06-5.58,4.6S566.83,277.72,569.91,277.72Z"/><path id="Path_7618" data-name="Path 7618" class="cls-1" d="M690,283.09H563.75c-3.09,0-5.58,2.06-5.58,4.6s2.5,4.6,5.58,4.6H690c3.08,0,5.58-2.06,5.58-4.6S693.1,283.09,690,283.09Z"/></g></g></g></svg>