<svg xmlns="http://www.w3.org/2000/svg" width="627" height="578.359" viewBox="0 0 627 578.359">
  <g id="collaborATE" transform="translate(0 0)" opacity="0.09">
    <path id="Path_5963" data-name="Path 5963" d="M1231.323,256.816l-67.213-64.769a92.229,92.229,0,0,0-89.391-22.121c-25.626,7.412-59.242,17.3-81.727,24.552a82.4,82.4,0,0,0-108.82-7.786l-15.915,12.117,38.395,50.238-219.311,206.2-20.094,17.689-.307.28a52.539,52.539,0,0,0,26.534,90.05,52.628,52.628,0,0,0,63.044,76.719,52.214,52.214,0,0,0,14,30.6,52.67,52.67,0,0,0,67.1,8.086A52.678,52.678,0,0,0,923.6,708.491l4.906-2.132L1056.89,585.7l.649.7,102.674-96.458c1.623-1.5,3.313-3.166,5.275-5.187,35.826-36.535,65.338-89.853,83.789-128.15A86.316,86.316,0,0,0,1231.323,256.816Zm-4.536,88.959c-17.634,36.6-45.679,87.4-79.171,121.555-1.69,1.742-3.078,3.108-4.428,4.361l-84.441,79.323-.647-.694L914.573,685.195l-4.766,2.072-1.583,1.485A27.683,27.683,0,0,1,866.7,652.565l67.592-63.151,51.026-44.376-17.687-18.643-50.345,44.74-64.055,59.1a53.374,53.374,0,0,0-5.09,5.5l-20.333,19a27.661,27.661,0,0,1-37.89-40.309l137.4-125.941-17.657-18.611L757.382,610.7a27.652,27.652,0,1,1-37.863-40.312l42.039-39.518h0l97.582-88.709-17.175-19.038L744.111,512.09l-21.9,19.392-.267.245a27.669,27.669,0,0,1-38.032-40.2l20.073-17.674L931.963,259.512l-8.55-9.092,9.916-7.579L903.4,203.68a57.435,57.435,0,0,1,75.861,12.946l5.442,6.91,8.338-2.8c21.409-7.185,60.006-18.556,88.615-26.831a67.2,67.2,0,0,1,65.133,16.119L1214,274.792A61.4,61.4,0,0,1,1226.787,345.775Z" transform="translate(-630.866 -166.323)" fill="#fff"/>
    <g id="Group_5611" data-name="Group 5611" transform="translate(0 0)">
      <g id="Group_5610" data-name="Group 5610">
        <path id="Path_5964" data-name="Path 5964" d="M817.8,369.467a35.013,35.013,0,0,0-57.317,37.646A34.416,34.416,0,0,0,768.275,419l30.756,30.756a35.013,35.013,0,1,0,49.528-49.5Z" transform="translate(-469.813 118.348)" fill="#f5f5f5"/>
        <path id="Path_5965" data-name="Path 5965" d="M841.822,345.453a35.506,35.506,0,0,0-7.389-5.667,35.02,35.02,0,0,0-48.779,45.859,34.169,34.169,0,0,0,6.665,9.312l45.734,45.759a35.022,35.022,0,0,0,49.529-49.528Z" transform="translate(-433.842 82.373)" fill="#f5f5f5"/>
        <path id="Path_5966" data-name="Path 5966" d="M865.871,321.412a32.829,32.829,0,0,0-4.294-3.645,35.032,35.032,0,0,0-50.627,46.258,35.394,35.394,0,0,0,5.392,6.915l69.474,69.45a35.013,35.013,0,1,0,49.5-49.529Z" transform="translate(-397.877 46.401)" fill="#f5f5f5"/>
        <path id="Path_5967" data-name="Path 5967" d="M935.655,343.114l-45.734-45.759a30,30,0,0,0-2.3-2.1,35.024,35.024,0,0,0-47.232,51.626l45.734,45.734a35.013,35.013,0,0,0,49.528-49.5Z" transform="translate(-361.915 10.445)" fill="#f5f5f5"/>
        <path id="Path_5968" data-name="Path 5968" d="M1019.7,320.4,919.367,215.423A162.135,162.135,0,0,0,690.073,444.717l17.375,17.375L847.9,330.132l-.1-.1,39.543-37.171,8.563-8.038,28.584,31.3A67.4,67.4,0,0,0,1019.7,320.4Z" transform="translate(-642.572 -167.923)" fill="#f5f5f5"/>
      </g>
    </g>
  </g>
</svg>
