<svg xmlns="http://www.w3.org/2000/svg" xmlns:xlink="http://www.w3.org/1999/xlink" viewBox="0 0 603.06 328.73"><defs><style>.cls-1{fill:#fff;}.cls-2{fill:#8c8c8c;fill-opacity:0;}.cls-3{fill:url(#linear-gradient);}.cls-4{fill:#333;}.cls-5{fill:#f18e8e;}.cls-6{fill:gray;}.cls-7,.cls-8{fill:none;stroke:#fff;stroke-miterlimit:10;}.cls-7{stroke-width:2px;}</style><linearGradient id="linear-gradient" x1="-657.05" y1="674.73" x2="-656.05" y2="674.73" gradientTransform="matrix(276.41, 0, 0, -4.74, 181730.99, 3441.44)" gradientUnits="userSpaceOnUse"><stop offset="0" stop-color="#828282"/><stop offset="0.2" stop-color="#858585"/><stop offset="0.38" stop-color="#909090"/><stop offset="0.55" stop-color="#a2a2a2"/><stop offset="0.71" stop-color="#bbb"/><stop offset="0.86" stop-color="#dbdbdb"/><stop offset="1" stop-color="#fff"/></linearGradient></defs><g id="Layer_2" data-name="Layer 2"><g id="Layer_1-2" data-name="Layer 1"><g id="Group_5408" data-name="Group 5408"><path id="Path_5401" data-name="Path 5401" class="cls-1" d="M475,116.24H426.28c-4.55,0-8.24,4-8.24,8.85V230.63c0,4.88,3.69,8.85,8.24,8.85H475c4.55,0,8.24-4,8.24-8.85v-37l-1.52.34h-.32v34.73c0,4.89-3.69,8.85-8.24,8.85h-45c-4.55,0-8.24-4-8.24-8.85V127.08c0-4.89,3.69-8.85,8.24-8.85h10.81a4.42,4.42,0,0,0,4.2,3.48h15a4.43,4.43,0,0,0,4.2-3.48h10.8c4.55,0,8.24,4,8.24,8.85v59l1.85-2.71V125.09C483.23,120.2,479.54,116.24,475,116.24Zm6.39,75.67.14,0,1.71-.38v-4.63l-1.85,2.71Z"/><g id="Group_5399" data-name="Group 5399"><path id="Path_5402" data-name="Path 5402" class="cls-2" d="M385.11,240.86V113.41a5.11,5.11,0,0,0-4.85-5.33H123.36a5.11,5.11,0,0,0-4.85,5.33V169l3.75,5.48V118.33a5.26,5.26,0,0,1,5-5.49H376.37a5.27,5.27,0,0,1,5,5.49V232.64H122.27v-39l-3.75-.83v48l-4.91,2h0v4.74H390V242.9ZM122.26,181.54l-3.74-5.48v12.72l3.74.83Z"/><path id="Path_5403" data-name="Path 5403" class="cls-1" d="M113.61,243.12v2.33a2.19,2.19,0,0,0,2.18,2.19h0a2.24,2.24,0,0,1,.92.2l2.08,1a22.48,22.48,0,0,0,9.38,2H375.44a22.56,22.56,0,0,0,9.39-2l2.08-1a2.09,2.09,0,0,1,.92-.2h0a2.18,2.18,0,0,0,2.18-2.19v-.15a2.18,2.18,0,0,0-2.18-2.19Z"/><path id="Path_5404" data-name="Path 5404" class="cls-1" d="M380.26,108.08H123.37a5.1,5.1,0,0,0-4.85,5.33V169l3.75,5.48V118.33a5.26,5.26,0,0,1,5-5.49H376.37a5.27,5.27,0,0,1,5,5.49V232.64H122.27v-39l-3.75-.83v48H385.11V113.41A5.11,5.11,0,0,0,380.26,108.08Zm-258,73.46-3.75-5.48v12.72l3.75.83Z"/><path id="Path_5405" data-name="Path 5405" class="cls-3" d="M113.61,242.9H390v4.74H113.61Z"/><rect id="Rectangle_1909" data-name="Rectangle 1909" class="cls-4" x="223.05" y="243.62" width="57.52" height="3.57"/></g><path id="Path_5406" data-name="Path 5406" class="cls-1" d="M534.52,178.26l-36-13.34a4.05,4.05,0,0,0-5.2,2.39h0l-3.78,10.23a4,4,0,0,1-.45.87l-5.82,8.51-1.85,2.71-.59.87a.92.92,0,0,0,.24,1.27,1,1,0,0,0,.35.14l.14,0,1.71-.38,6.63-1.47a4.1,4.1,0,0,1,1.29.25l34.29,12.47a4,4,0,0,0,5.19-2.38h0l6.27-17a4,4,0,0,0-2.39-5.19Zm-31.75,2.47a2.3,2.3,0,1,1-1.36-3h0a2.3,2.3,0,0,1,1.36,2.95Zm11.67,4.32a2.3,2.3,0,1,1-1.36-3h0a2.3,2.3,0,0,1,1.35,3Zm11.67,4.32a2.3,2.3,0,1,1-1.36-3h0a2.29,2.29,0,0,1,1.36,2.94Z"/><path id="Path_5407" data-name="Path 5407" class="cls-1" d="M126.74,188.09l-.94-1.37-2.91-4.26-.63-.92-3.74-5.48-4.8-7a6,6,0,0,1-.72-1.38l-6-16.13a6.39,6.39,0,0,0-8.2-3.77h0L42,168.79A6.37,6.37,0,0,0,38.23,177h0l9.9,26.75a6.38,6.38,0,0,0,8.19,3.77h0l54.09-19.67a6.41,6.41,0,0,1,2-.39l6.08,1.35,3.75.82.62.14,2.71.6.21,0a1.44,1.44,0,0,0,1.16-1.68A1.31,1.31,0,0,0,126.74,188.09Zm-66.84.36A3.62,3.62,0,1,1,62,183.79h0a3.63,3.63,0,0,1-2.14,4.66Zm18.41-6.82A3.62,3.62,0,1,1,80.44,177h0A3.63,3.63,0,0,1,78.31,181.63Zm18.41-6.81a3.62,3.62,0,1,1,2.14-4.66,3.61,3.61,0,0,1-2.14,4.66h0Z"/><g id="Group_5403" data-name="Group 5403"><g id="Group_5400" data-name="Group 5400"><path id="Path_5408" data-name="Path 5408" class="cls-1" d="M31.21,57.08l-1.6-1.79,1.79-1.57c.51.58,1,1.16,1.58,1.76Z"/></g><g id="Group_5401" data-name="Group 5401"><path id="Path_5409" data-name="Path 5409" class="cls-1" d="M512.19,299.29c-.29-1.6-.51-3.23-.66-4.81l2.37-.23c.14,1.52.36,3.08.64,4.62Zm1.58-12.77-2.38-.15c.1-1.62.28-3.24.54-4.84l2.35.38c-.24,1.53-.42,3.06-.51,4.61Zm2.41-12.07-2.25-.79a44.39,44.39,0,0,1,1.87-4.5l2.15,1a40.49,40.49,0,0,0-1.77,4.25Zm5.7-10.87L520,262.19a48.33,48.33,0,0,1,3-3.8l1.8,1.56c-1,1.19-2,2.41-2.88,3.63Zm8.38-9.11-1.58-1.79c1.16-1,2.41-2.06,3.71-3.08l1.47,1.87c-1.26,1-2.48,2-3.6,3Zm10-7.59-1.33-2c1.26-.84,2.57-1.7,4-2.62l1.28,2c-1.43.9-2.73,1.75-4,2.58Zm10.71-6.71-1.22-2,4.08-2.44,1.22,2Zm10.87-6.6-1.27-2c1.43-.91,2.73-1.75,4-2.58l1.34,2c-1.24.85-2.56,1.71-4,2.63Zm10.49-7.38-1.5-1.85c1.26-1,2.45-2.05,3.52-3.06L576,223c-1.12,1.06-2.35,2.13-3.65,3.18Zm9.1-9.21-1.91-1.42a37.13,37.13,0,0,0,2.5-3.84l2.08,1.16a36.93,36.93,0,0,1-2.67,4.1Zm5.77-11.67-2.3-.62c.17-.66.33-1.32.47-2,.17-.83.31-1.67.41-2.5l2.36.29c-.1.89-.25,1.8-.43,2.69-.15.72-.32,1.43-.51,2.14Zm-1.44-12.72a34.67,34.67,0,0,0-.87-4.52l2.31-.6a39.79,39.79,0,0,1,.93,4.82Zm-3.46-11.79c-.6-1.35-1.27-2.73-2-4.21l2.11-1.11c.8,1.53,1.5,3,2.12,4.35Zm-5.94-11-2.16-3.53-.32-.52,2-1.25.32.52c.72,1.18,1.45,2.36,2.17,3.55Zm-6.57-10.9c-.87-1.53-1.61-2.92-2.27-4.25l2.13-1.06c.64,1.29,1.37,2.64,2.21,4.14ZM564.4,147.1a34.35,34.35,0,0,1-1.13-4.79l2.35-.37a32.49,32.49,0,0,0,1.06,4.46Zm1.13-12.7-2.36-.33a29.47,29.47,0,0,1,1.13-4.83l2.27.74a24.88,24.88,0,0,0-1,4.42Zm4.38-11.18-2-1.37a27.46,27.46,0,0,1,3.2-3.78l1.68,1.7a24.11,24.11,0,0,0-2.92,3.45Zm9-8.13-1.27-2c1.44-.9,2.91-1.73,4.16-2.43l1.16,2.09c-1.22.68-2.66,1.49-4.05,2.36Zm11-6.34-1.28-2a37.94,37.94,0,0,0,3.73-2.69l1.52,1.83a37.43,37.43,0,0,1-4,2.87Zm-459.09-7.13h-2.1l0-2.38c1.57,0,3.15,0,4.72,0l0,2.38-2.7,0Zm347.35-.12a38.31,38.31,0,0,1-4.9-.35l.32-2.36a35.42,35.42,0,0,0,4.59.33Zm-357.43-.22c-1.59-.11-3.2-.25-4.78-.41l.24-2.37c1.56.16,3.14.3,4.7.4Zm20.77,0-.16-2.38c1.56-.11,3.15-.25,4.71-.4l.24,2.37c-1.58.16-3.19.29-4.78.41Zm344.79-.57-.5-2.33a35.35,35.35,0,0,0,4.42-1.25l.8,2.24a36.78,36.78,0,0,1-4.72,1.34ZM154.2,99.83l-.36-2.36c1.55-.24,3.11-.5,4.66-.79l.43,2.35c-1.56.29-3.15.56-4.73.8Zm-46.2,0c-1.58-.26-3.17-.55-4.72-.86l.46-2.33c1.53.3,3.09.58,4.64.83Zm491.29-.2-2-1.22a21.57,21.57,0,0,0,1.87-4l0-.1,2.25.79,0,.12a24.73,24.73,0,0,1-2.06,4.39Zm-134-.45a39,39,0,0,1-4.49-2l1.11-2.11a35.74,35.74,0,0,0,4.2,1.86ZM166.75,97.39l-.54-2.32c1.52-.36,3.07-.75,4.57-1.16l.62,2.3c-1.53.41-3.09.81-4.65,1.17Zm-71.27-.22c-1.55-.4-3.1-.85-4.62-1.31l.7-2.28c1.49.46,3,.89,4.53,1.29Zm402.87-1.45-1.3-2a32.6,32.6,0,0,0,3.63-2.78l1.59,1.78a32.81,32.81,0,0,1-3.93,3ZM179.07,93.94l-.74-2.27c1.5-.49,3-1,4.47-1.53l.8,2.24c-1.49.54-3,1.06-4.53,1.55Zm-95.79-.67c-1.49-.56-3-1.16-4.46-1.78l.93-2.2c1.44.61,2.91,1.2,4.37,1.75Zm370.77-.64a40.39,40.39,0,0,1-3.55-3.37l1.74-1.63a38.53,38.53,0,0,0,3.34,3.18ZM257.49,89.47l-2.31,0,0-2.39c1.69,0,3.2,0,4.71,0l.05,2.39-2.5,0Zm-66.44,0-.93-2.2c1.45-.61,2.9-1.26,4.32-1.91l1,2.16c-1.44.67-2.92,1.32-4.39,2ZM247.18,89c-1.59-.14-3.2-.31-4.78-.51l.3-2.37c1.55.2,3.13.37,4.68.5ZM268,89l-.2-2.38c1.73-.14,3.27-.28,4.72-.42l.22,2.37c-1.45.14-3,.28-4.75.42ZM71.56,88.13c-1.42-.71-2.85-1.46-4.25-2.23l1.14-2.09c1.38.76,2.79,1.49,4.18,2.19Zm209.08-.47-.31-2.36c1.61-.21,3.18-.45,4.66-.69l.39,2.35c-1.52.24-3.11.48-4.74.7Zm-46.15-.44c-1.57-.32-3.15-.66-4.7-1l.57-2.32c1.51.37,3.06.71,4.6,1ZM603,87.05l-2.38-.15c0-.71.07-1.44.07-2.17s0-1.62-.08-2.44l2.38-.15c.06.87.09,1.74.09,2.59s0,1.56-.08,2.31Zm-95.36-.57-2-1.29a26.75,26.75,0,0,0,2.15-4l2.19,1a30.48,30.48,0,0,1-2.34,4.36Zm-214.4-1.09-.56-2.32c1.53-.36,3.06-.76,4.54-1.19l.66,2.29c-1.52.43-3.09.84-4.65,1.22ZM222.08,84c-1.53-.5-3.06-1-4.54-1.6l.84-2.23c1.45.55,2.94,1.07,4.44,1.56ZM202.6,84l-1.13-2.1c1.39-.75,2.77-1.53,4.11-2.31l1.21,2c-1.37.8-2.78,1.59-4.2,2.35Zm243.91-2.11a26.57,26.57,0,0,1-.74-4.93l2.38-.13a23.44,23.44,0,0,0,.67,4.47Zm-386.1,0q-2-1.29-4-2.65l1.35-2c1.29.88,2.61,1.76,3.93,2.6Zm245.05-.19-.84-2.23c1.44-.54,2.9-1.13,4.36-1.75l.94,2.19C308.43,80.49,306.93,81.09,305.46,81.64Zm-95.31-2.39c-1.46-.69-2.9-1.43-4.3-2.18L207,75c1.36.73,2.77,1.45,4.19,2.12Zm3.4-2-1.35-2c1.3-.89,2.59-1.81,3.83-2.74l1.43,1.91c-1.26.94-2.58,1.89-3.91,2.8Zm103.61-.83-1.07-2.13c1.35-.68,2.76-1.42,4.17-2.19l1.14,2.09c-1.43.79-2.86,1.54-4.24,2.23ZM599.4,74.66c-.36-1.47-.79-3-1.28-4.47l2.26-.75c.52,1.56,1,3.13,1.33,4.67Zm-549.46-.2c-1.25-1-2.51-2-3.74-3l1.52-1.84q1.83,1.51,3.68,3Zm462.31-.2-2.35-.43a41.74,41.74,0,0,0,.59-4.59l2.38.18a46.4,46.4,0,0,1-.62,4.84ZM199,73c-1.34-.88-2.67-1.81-4-2.76l1.41-1.92c1.26.93,2.55,1.83,3.85,2.69Zm129.36-2.68-1.23-2c1.32-.79,2.67-1.62,4-2.48l1.27,2c-1.37.86-2.74,1.71-4.07,2.51Zm-104.64-.85-1.58-1.78c1.18-1,2.33-2.13,3.43-3.21l1.67,1.7c-1.12,1.11-2.31,2.22-3.52,3.29Zm224.88-.31-2.36-.35c.23-1.55.54-3.16.93-4.77l2.31.55c-.37,1.55-.67,3.09-.88,4.57ZM40.2,66.17C39,65.09,37.87,64,36.74,62.85l1.68-1.69c1.11,1.1,2.26,2.21,3.4,3.27Zm148.5-.93c-1.26-1-2.49-2.11-3.63-3.15l1.6-1.77c1.12,1,2.32,2.06,3.56,3.09Zm150.35-1.81-1.33-2q1.93-1.29,3.92-2.66l1.36,2c-1.33.91-2.65,1.82-3.95,2.68ZM595.23,63c-.65-1.39-1.37-2.8-2.12-4.18l2.09-1.14c.78,1.42,1.51,2.87,2.18,4.31Zm-84.9-1.4A36.46,36.46,0,0,0,509.5,57l2.31-.58a37.82,37.82,0,0,1,.89,4.82Zm-277.7-1.37-1.85-1.51c1-1.22,2-2.47,2.84-3.71l1.95,1.38c-.92,1.28-1.91,2.57-2.94,3.83Zm219.1-3.08-2.23-.84c.58-1.54,1.21-3,1.89-4.47l2.15,1c-.64,1.36-1.25,2.81-1.81,4.29Zm-272.4-.66c-1.13-1.21-2.2-2.44-3.17-3.65L178,51.3c.94,1.17,2,2.35,3.07,3.53Zm170.16-.27-1.39-1.93q1.89-1.35,3.84-2.78l1.41,1.92c-1.31,1-2.59,1.88-3.86,2.79ZM589,52.11c-.87-1.28-1.79-2.56-2.74-3.81l1.9-1.44c1,1.28,1.92,2.6,2.81,3.92Zm-82.21-2.24a33.5,33.5,0,0,0-2.36-3.95l2-1.35a34.45,34.45,0,0,1,2.52,4.21Zm-267-.4-2.11-1.11c.73-1.39,1.39-2.8,2-4.2l2.2.91c-.6,1.46-1.29,2.94-2.06,4.39Zm119.93-.8-1.43-1.91,3.79-2.86,1.44,1.9-3.8,2.86ZM171.51,46.15a40.64,40.64,0,0,1-2.23-4.36l2.19-.94a38.64,38.64,0,0,0,2.1,4.1Zm285.85-.08-2-1.32c.88-1.33,1.84-2.65,2.86-3.92l1.86,1.48C459.13,43.53,458.21,44.8,457.36,46.07Zm123.93-3.8c-1-1.16-2.13-2.3-3.24-3.4l1.69-1.69c1.13,1.13,2.25,2.3,3.32,3.5ZM369.85,41l-1.4-1.93c1.29-.94,2.61-1.86,3.92-2.76l1.34,2C372.42,39.2,371.12,40.11,369.85,41Zm129.6-1c-1.1-1.1-2.25-2.19-3.4-3.23l1.6-1.77c1.18,1.07,2.36,2.19,3.5,3.32Zm-255-2.69-2.31-.6c.4-1.53.73-3.06,1-4.54l2.35.38c-.25,1.55-.59,3.15-1,4.76Zm220.89-.84-1.67-1.7c1.14-1.11,2.34-2.21,3.58-3.26l1.54,1.82c-1.19,1-2.35,2.07-3.45,3.14Zm-85-2.53-1.25-2c1.35-.84,2.73-1.67,4.1-2.47l1.2,2.06c-1.36.79-2.72,1.61-4.05,2.43Zm-213.25-.16a24.12,24.12,0,0,1-.17-2.82c0-.73,0-1.46.1-2.18l2.37.23c-.06.64-.09,1.3-.09,2a21.64,21.64,0,0,0,.15,2.54Zm405.22-.27c-1.19-1-2.43-2-3.67-2.93l1.43-1.9c1.28,1,2.55,2,3.78,3ZM490,31.88c-1.25-.94-2.54-1.85-3.83-2.72l1.32-2c1.33.89,2.66,1.83,3.94,2.79Zm-15-3.2-1.34-2c1.31-.89,2.67-1.75,4-2.57-.78-.41-1.57-.8-2.36-1.18l1-2.15c1.44.7,2.89,1.43,4.29,2.2l-1.15,2.09-1.73-.92,1.18,2c-1.35.79-2.68,1.64-4,2.51Zm-83.73-.91-1.11-2.11c1.4-.74,2.84-1.47,4.28-2.17l1.05,2.14c-1.42.7-2.84,1.41-4.22,2.14Zm170.91-1.55c-1.33-.83-2.7-1.63-4-2.37l1.14-2.09c1.4.76,2.8,1.58,4.17,2.43ZM243.6,24.57a27.49,27.49,0,0,0-.55-4.52l2.33-.49a29,29,0,0,1,.6,4.92Zm242.24-2.05-1-2.16c1.44-.67,2.93-1.32,4.42-1.92l.89,2.21c-1.45.58-2.89,1.21-4.3,1.87Zm-83.22-.17-.94-2.19c.87-.38,1.75-.75,2.63-1.11l1.79-.73.88,2.22-1.76.71c-.87.36-1.74.72-2.6,1.1ZM171.49,22l-2.12-1.1a24.59,24.59,0,0,1,2.74-4.17L174,18.2A22.51,22.51,0,0,0,171.49,22Zm379.59-1.52c-1.45-.62-2.92-1.19-4.37-1.7l.79-2.25c1.5.53,3,1.12,4.51,1.75Zm-83-.55c-1.46-.54-2.95-1-4.44-1.52l.71-2.27c1.53.48,3.07,1,4.57,1.56Zm29.4-1.82-.68-2.29c1.54-.45,3.1-.87,4.66-1.25l.55,2.32c-1.51.36-3,.77-4.53,1.22Zm-83.16-.16-.69-2.28,1.14-.33c1.17-.33,2.36-.63,3.53-.91l.55,2.32c-1.15.27-2.3.57-3.44.88Zm124.86-1.36c-1.5-.35-3.05-.67-4.59-.93l.4-2.35c1.59.27,3.18.59,4.74,1Zm-83.1-.16c-1.52-.33-3.07-.62-4.61-.86l.37-2.36c1.58.25,3.18.55,4.74.89Zm53.61-1L509.39,13c1.59-.23,3.2-.42,4.79-.56l.21,2.38c-1.55.13-3.11.31-4.66.53Zm-83.16-.1-.33-2.36c1.59-.22,3.21-.4,4.8-.53l.2,2.37c-1.55.13-3.12.3-4.66.51Zm100.3-.58c-1.54-.1-3.12-.16-4.68-.17l0-2.38c1.6,0,3.23.07,4.82.18Zm-83.14,0c-1.55-.1-3.13-.16-4.69-.18l0-2.38c1.6,0,3.22.08,4.82.18ZM240.3,13.12c-.18-.28-.36-.56-.55-.83a18.31,18.31,0,0,0-2.27-2.63l1.66-1.72a20.61,20.61,0,0,1,2.55,3c.22.3.43.61.62.93ZM179.51,13l-1.41-1.92a43,43,0,0,1,4.1-2.67l1.19,2.07A40.85,40.85,0,0,0,179.51,13Zm10.87-5.9-.89-2.21c1.47-.59,3-1.15,4.56-1.65l.74,2.26c-1.51.5-3,1-4.4,1.6Zm40.88-1.6A29.84,29.84,0,0,0,227,3.94l.64-2.29a31.72,31.72,0,0,1,4.64,1.68Zm-28.92-2-.48-2.34.91-.17c1.22-.22,2.54-.4,3.91-.56L207,2.8c-1.32.15-2.59.33-3.77.54l-.84.16Zm17-.9c-1.49-.13-3.06-.21-4.66-.22l0-2.38c1.66,0,3.3.09,4.85.23Z"/></g><g id="Group_5402" data-name="Group 5402"><path id="Path_5410" data-name="Path 5410" class="cls-1" d="M515,309.73c-.27-.76-.53-1.53-.78-2.29l2.27-.73c.24.73.49,1.48.76,2.22Z"/></g></g><g id="Group_5404" data-name="Group 5404"><path id="Path_5412" data-name="Path 5412" class="cls-5" d="M22.48,47.3l-.19,2.36-7.84-9.24-6.9-10.7Z"/><path id="Path_5413" data-name="Path 5413" class="cls-5" d="M39.67,42.15l-.18,2.36-17.2,5.15.19-2.37Z"/><path id="Path_5414" data-name="Path 5414" class="cls-5" d="M2.24,53.13,2.05,55.5,0,19.56Z"/><path id="Path_5415" data-name="Path 5415" class="cls-6" d="M2.26,53.34,2.07,55.7l0-.2.19-2.37Z"/><path id="Path_5416" data-name="Path 5416" class="cls-5" d="M19.46,48.2l-.19,2.36L2.07,55.7l.19-2.36Z"/><path id="Path_5417" data-name="Path 5417" class="cls-1" d="M22.48,47.3,7.56,29.72l6.9,10.7,5,7.78L2.26,53.34l0-.21L0,19.56,39.67,42.15Z"/></g><g id="Group_5405" data-name="Group 5405"><path id="Path_5418" data-name="Path 5418" class="cls-1" d="M461.2,315.44c-3.55,2.49-11,7.66-17.18,11.9V303.55C449.55,307.32,456.25,312,461.2,315.44Z"/><path id="Path_5419" data-name="Path 5419" class="cls-1" d="M493.12,328.73H444.79c4.46-3,10.43-7.17,17.78-12.31h0l5.69,4,.69.49.68-.49,5.69-4h0C482.65,321.54,488.63,325.68,493.12,328.73Z"/><path id="Path_5420" data-name="Path 5420" class="cls-1" d="M493.89,303.55v23.79c-6.19-4.22-13.62-9.41-17.18-11.9C481.67,312,488.36,307.32,493.89,303.55Z"/><path id="Path_5421" data-name="Path 5421" class="cls-1" d="M493.89,299.78v1.85l-.67.45c-6.36,4.34-13.93,9.63-17.88,12.39h0l-.68.48c-2.76,1.93-5,3.5-5.69,4l-5.69-4-.68-.48h0c-4-2.78-11.56-8.08-17.88-12.39l-.67-.45v-1.85Z"/></g><g id="Group_5406" data-name="Group 5406"><path id="Path_5422" data-name="Path 5422" class="cls-7" d="M274.83,186.67h-39.3c.46-1.81.93-3.61,1.39-5.41a26.17,26.17,0,0,1,11.59-14.88h-.38v-7a7.05,7.05,0,0,1,14.1,0v7h-.38a26.21,26.21,0,0,1,11.59,14.88C273.9,183.06,274.37,184.86,274.83,186.67Z"/><path id="Path_5423" data-name="Path 5423" class="cls-7" d="M261.92,189.92a6.74,6.74,0,1,1-13.48,0c0-.15,0-.3,0-.45h13.46C261.91,189.62,261.92,189.77,261.92,189.92Z"/></g><g id="Group_5407" data-name="Group 5407"><path id="Path_5424" data-name="Path 5424" class="cls-8" d="M463.85,184.35h-26.7c.31-1.23.63-2.46.94-3.68A17.85,17.85,0,0,1,446,170.56h-.25v-4.79a4.79,4.79,0,1,1,9.57,0v4.79H455a17.85,17.85,0,0,1,7.87,10.11C463.22,181.89,463.53,183.12,463.85,184.35Z"/><path id="Path_5425" data-name="Path 5425" class="cls-8" d="M455.08,186.56a4.58,4.58,0,1,1-9.16,0c0-.1,0-.21,0-.31h9.14C455.07,186.35,455.08,186.45,455.08,186.56Z"/></g></g></g></g></svg>