<svg xmlns="http://www.w3.org/2000/svg" width="468.51" height="519.86" viewBox="0 0 468.51 519.86">
  <g id="Group_5917" data-name="Group 5917" transform="translate(-537.582 -573.214) rotate(-1)">
    <path id="Path_7665" data-name="Path 7665" d="M876.423,987.342a33.333,33.333,0,0,0-9.013-1.8,32.7,32.7,0,1,0,28.839,22.058,33.4,33.4,0,0,0-4.094-8.228l1.3-1.7,37.5,28.681,21.537-28.16a38.159,38.159,0,0,1-27.216-7.547,38.925,38.925,0,0,1,47.3-61.834A38.17,38.17,0,0,1,986.983,953.1l21.546-28.17-96.065-73.482L834.891,952.868l42.838,32.767Z" transform="translate(-305.276 -259.276)" fill="#ff9a4d"/>
    <path id="Path_7666" data-name="Path 7666" d="M469.662,683.89c-29.546-24.637-61.035-34.892-74.89-25.138-.235.161-.463.332-.685.512a15.454,15.454,0,0,0-2.322,2.25,16.951,16.951,0,0,0-3.715,9.061,102.829,102.829,0,0,1-4.265,20.048l-27.362,81.889a3.742,3.742,0,0,1-1.862,2.154,9.356,9.356,0,0,0-1.157.657,3.785,3.785,0,0,0-.667.628l-26.881,32.213a3.719,3.719,0,0,0-.864,2.2,17.787,17.787,0,0,0,2.945,10.9A83.023,83.023,0,0,0,342.4,836.391h0l.189.157h0a82.993,82.993,0,0,0,17.477,11.524,17.773,17.773,0,0,0,11.25.947,3.716,3.716,0,0,0,2.006-1.243l1.783-2.136a2.289,2.289,0,0,0,.244,1.218c10.908,21.158,20.255,28.7,43.606,35.61l13.513-16.194a1.787,1.787,0,0,0,.154-.215c.014-.023.027-.049.04-.072q.04-.073.076-.151c.012-.029.022-.057.033-.086.018-.049.034-.1.049-.145.008-.03.015-.059.022-.088.011-.051.019-.1.025-.154,0-.026.008-.053.009-.08a1.576,1.576,0,0,0,0-.19c0-.014,0-.028,0-.042a1.757,1.757,0,0,0-.03-.228c0-.021-.011-.042-.017-.065-.012-.051-.025-.1-.041-.149a1.882,1.882,0,0,0-.087-.215c-.006-.014-.011-.029-.018-.042-.021-.04-.046-.077-.069-.116s-.037-.066-.058-.1-.031-.038-.046-.058a1.633,1.633,0,0,0-.106-.13c-.019-.022-.042-.041-.063-.063s-.071-.07-.109-.1-.061-.046-.093-.069-.07-.052-.106-.075a1.747,1.747,0,0,0-.2-.1c-.017-.008-.032-.018-.05-.025s-.021-.007-.031-.011a1.708,1.708,0,0,0-.193-.062c-.025-.007-.049-.012-.074-.018a1.317,1.317,0,0,0-.175-.029c-.025,0-.049-.007-.075-.008a1.914,1.914,0,0,0-.257,0c-.12.008-.24.014-.357.015-.037,0-.072,0-.111,0-.082,0-.162,0-.243,0l-.128,0c-.075,0-.149-.008-.222-.014l-.127-.011c-.075-.008-.15-.017-.223-.027l-.111-.016c-.095-.016-.188-.035-.281-.057l-.039-.008c-.1-.025-.205-.055-.3-.088l-.088-.033c-.051-.018-.1-.038-.149-.06l-.038-.015a2.848,2.848,0,0,1-.342-.176c-.038-.024-.073-.051-.111-.075-.137-.088-.272-.177-.4-.273l-.049-.041c-.1-.078-.2-.16-.3-.246l-.088-.074c-.037-.031-.071-.065-.106-.1-.111-.1-.219-.21-.322-.32-.02-.022-.043-.043-.063-.065-.008-.007-.013-.017-.021-.025q-.165-.183-.313-.375l-.078-.1c-.041-.056-.077-.113-.116-.169s-.076-.106-.111-.161l-.086-.133c-.087-.144-.172-.287-.246-.437l-.009-.017,0,0c-.083-.163-.157-.331-.226-.5-.022-.055-.04-.111-.06-.166-.038-.1-.076-.206-.108-.31-.009-.027-.021-.054-.029-.082a4.262,4.262,0,0,0-.206-.543c-.013-.028-.025-.056-.038-.084-.056-.118-.124-.229-.191-.341-.039-.064-.074-.133-.116-.194a4.174,4.174,0,0,0-.351-.453l0,0a4.062,4.062,0,0,0-.409-.392c-.064-.053-.132-.1-.2-.148-.1-.072-.191-.146-.294-.209-.026-.016-.053-.031-.08-.047a4.165,4.165,0,0,0-.493-.252,4.311,4.311,0,0,0-.425-.145c-.057-.019-.108-.042-.162-.056a4.524,4.524,0,0,0-.622-.116c-.152-.018-.305-.04-.455-.069-.046-.008-.09-.02-.137-.03-.1-.022-.21-.043-.313-.071-.059-.015-.115-.033-.175-.052-.09-.027-.18-.051-.269-.082-.063-.021-.126-.048-.189-.072-.082-.031-.165-.059-.247-.094l0,0c-.018-.008-.036-.018-.054-.025-.135-.059-.268-.121-.4-.19-.05-.025-.1-.057-.152-.085-.1-.054-.2-.111-.294-.173l-.059-.039c-.06-.038-.12-.077-.179-.117-.039-.028-.08-.054-.118-.082-.121-.088-.241-.18-.358-.276-.024-.021-.047-.043-.071-.064-.077-.065-.153-.132-.224-.2a.726.726,0,0,1-.077-.071c-.1-.1-.2-.2-.3-.311l-.015-.013c-.027-.029-.052-.061-.078-.092-.073-.084-.142-.166-.208-.252-.035-.044-.065-.087-.1-.132s-.076-.1-.112-.158c-.015-.023-.034-.045-.048-.067-.038-.057-.075-.115-.111-.174s-.088-.14-.129-.212-.066-.12-.1-.18c-.022-.041-.042-.081-.062-.123s-.027-.053-.041-.081c-.045-.092-.087-.185-.127-.28-.024-.057-.053-.115-.075-.176-.04-.1-.077-.207-.112-.311-.014-.042-.03-.083-.043-.125-.007-.022-.016-.044-.022-.066a4.267,4.267,0,0,0-.208-.542c-.013-.028-.024-.056-.038-.086a3.678,3.678,0,0,0-.187-.331c-.041-.07-.079-.142-.124-.208a4.078,4.078,0,0,0-.314-.4c-.014-.016-.026-.036-.04-.051a4.245,4.245,0,0,0-.414-.4c-.061-.052-.129-.1-.193-.144-.1-.074-.194-.15-.3-.214l-.072-.043a4.325,4.325,0,0,0-.484-.25l-.017-.008c-.124-.053-.256-.092-.386-.133-.068-.021-.132-.05-.2-.069a4.328,4.328,0,0,0-.619-.115c-.152-.018-.3-.041-.455-.069-.049-.009-.1-.023-.148-.033-.1-.021-.2-.042-.3-.067-.059-.015-.117-.036-.176-.053-.089-.026-.18-.051-.269-.081-.063-.022-.126-.048-.189-.072-.082-.031-.165-.059-.247-.094l0,0-.054-.025c-.135-.059-.268-.121-.4-.19-.05-.025-.1-.057-.152-.085-.1-.054-.2-.111-.293-.173L410,847.7c-.06-.039-.12-.077-.179-.118-.039-.027-.079-.053-.118-.082-.121-.088-.241-.179-.358-.276-.024-.02-.047-.043-.071-.064-.077-.065-.151-.133-.224-.2a.772.772,0,0,1-.077-.07c-.1-.1-.2-.2-.3-.311l-.015-.013c-.027-.03-.051-.062-.077-.092-.073-.084-.142-.167-.208-.253-.035-.044-.065-.087-.1-.132s-.076-.1-.112-.157c-.015-.023-.033-.045-.048-.067-.038-.058-.074-.115-.111-.173s-.086-.143-.129-.213-.066-.119-.1-.18c-.022-.04-.042-.081-.062-.123s-.027-.053-.041-.08q-.067-.139-.126-.278c-.024-.057-.053-.115-.074-.177-.04-.1-.076-.206-.113-.308-.014-.042-.029-.083-.043-.126-.007-.023-.016-.045-.023-.068a4.292,4.292,0,0,0-.206-.539l-.039-.088c-.054-.112-.118-.218-.182-.325-.043-.072-.082-.148-.129-.218a4.223,4.223,0,0,0-.274-.357c-.027-.032-.05-.068-.078-.1a4.239,4.239,0,0,0-.411-.4c-.057-.047-.118-.086-.176-.131-.1-.078-.2-.157-.312-.225l-.064-.037a4.1,4.1,0,0,0-.476-.248l-.03-.014c-.124-.054-.256-.092-.388-.135-.066-.021-.129-.049-.2-.066a4.3,4.3,0,0,0-.618-.116c-.165-.018-.329-.043-.491-.074-.053-.01-.106-.024-.159-.035-.11-.024-.22-.048-.328-.078-.063-.016-.125-.037-.186-.055-.1-.03-.2-.061-.294-.1-.065-.023-.129-.048-.194-.074l-.151-.064c-.038-.016-.076-.031-.114-.048-.082-.037-.164-.076-.246-.116s-.16-.082-.238-.127-.159-.091-.237-.138c-.043-.026-.085-.054-.128-.081s-.083-.052-.125-.08-.1-.069-.151-.1c-.1-.068-.189-.141-.281-.215-.042-.035-.087-.068-.129-.1l-.046-.039c-.117-.1-.233-.2-.343-.311-.09-.089-.171-.183-.256-.277-.026-.029-.055-.058-.08-.087s-.063-.074-.095-.111c-.086-.1-.169-.211-.248-.32-.019-.027-.041-.053-.059-.081-.008-.01-.013-.022-.02-.032-.089-.128-.174-.259-.252-.393-.02-.033-.037-.067-.058-.1-.047-.084-.092-.17-.135-.256-.013-.025-.029-.052-.041-.076-.036-.075-.069-.151-.1-.228s-.077-.177-.112-.266-.057-.156-.084-.234c-.019-.057-.037-.114-.055-.171-.009-.026-.018-.052-.025-.078q-.075-.253-.131-.512c-.008-.037-.019-.074-.026-.112-.04-.208-.07-.42-.091-.632,0-.058-.007-.115-.011-.173-.011-.159-.016-.317-.016-.477,0-.07,0-.14,0-.21q.009-.241.036-.481c.007-.056.01-.114.018-.17q.044-.319.118-.635c.009-.041.023-.081.034-.122q.067-.255.154-.507c.022-.066.048-.132.074-.2.054-.14.111-.278.176-.412.033-.069.065-.139.1-.207a6.686,6.686,0,0,1,.335-.584,3.3,3.3,0,0,0,.217-.377c.02-.04.037-.081.055-.123.042-.092.081-.182.113-.276.016-.047.032-.095.047-.143.029-.093.052-.187.072-.282.009-.044.02-.089.028-.134a3.283,3.283,0,0,0,.041-.374c0-.015,0-.029,0-.043a3.149,3.149,0,0,0-.011-.42c0-.041-.012-.081-.016-.124-.013-.1-.029-.2-.05-.295-.01-.049-.023-.1-.036-.144-.021-.076-.047-.151-.073-.226-.033-.093-.07-.185-.112-.275s-.091-.2-.143-.29c-.2-.334-1.581-2.881-2.619-4.8a1.659,1.659,0,0,0-1.7-.855l5.351-6.412a3.8,3.8,0,0,0,.5-.769,9.293,9.293,0,0,0,.439-1.255,3.74,3.74,0,0,1,1.785-2.218L478.6,769.744a102.869,102.869,0,0,1,18.961-7.785,16.946,16.946,0,0,0,8.246-5.28,15.449,15.449,0,0,0,1.8-2.687c.137-.251.263-.5.381-.766,7.119-15.375-8.608-44.521-38.135-69.18h0l-.188-.157Zm-33.836,51.019q-2.563-1.969-5.1-4.085l-.084-.07q-2.535-2.114-4.932-4.285a3.741,3.741,0,1,1,5.88-4.409,12.238,12.238,0,0,0,3.081,3.861l.044.037.044.037a12.233,12.233,0,0,0,4.35,2.34,3.741,3.741,0,1,1-3.286,6.574Zm31.1-47.464c26.474,22.092,42.3,49.319,37.429,62.854a11.533,11.533,0,0,1-1.991,3.509c-2.626,3.148-6.9,4.7-12.315,4.814-11.823.26-29.066-6.331-46.362-18.037a3.747,3.747,0,0,1-1.013-5.2q.106-.156.227-.3l7.341-8.8a3.767,3.767,0,0,1,.429-.428,12.415,12.415,0,0,0,1.4-1.419,12.289,12.289,0,0,0-1.561-17.3l-.044-.037-.044-.037a12.274,12.274,0,0,0-18.45,3.189,3.7,3.7,0,0,1-.345.5l-7.341,8.8a3.747,3.747,0,0,1-5.279.468,3.587,3.587,0,0,1-.278-.257c-14.614-14.921-24.184-30.7-26.045-42.385-.856-5.346-.094-9.831,2.532-12.979a11.536,11.536,0,0,1,3.1-2.587c12.444-7.216,42.064,3.482,68.539,25.575Z" transform="translate(340.6 194.074)" fill="#8d8d8d"/>
    <g id="Group_5906" data-name="Group 5906" transform="translate(529.584 833.996)">
      <path id="Path_7640" data-name="Path 7640" d="M196.389,661.288c-.436.1-.4.711-.518,1.1-2.946,10.673-5.673,21.419-8.287,32.181q-.29,1.193-.579,2.386c-.159.612-.3,1.223-.45,1.846q-1.634,6.776-3.2,13.567c-.154.65-.315,1.312-.459,1.967-5.443,23.6-10.424,47.3-15.44,71q-3.539,16.647-7.1,33.279c-.335,1.609-.117,2.99.895,3.729a3.639,3.639,0,0,0,5.782-1.716c1.7-5.339,3.352-10.692,5.006-16.041,4.96-15.928,10.021-31.822,14.843-47.8,3.16-10.507,5.947-21.132,8.889-31.714l.41-1.463.531-1.911q2.086-7.526,4.171-15.052c.225-.773.439-1.549.653-2.332q2.141-7.672,4.256-15.351a4.051,4.051,0,0,0,.209-1.79,84.815,84.815,0,0,0-4.728-17.985,31.035,31.035,0,0,0-3.882-7.056C197.123,661.77,196.914,661.167,196.389,661.288Z" transform="translate(-160.211 -554.656)" fill="#fffb7e"/>
      <path id="Path_7641" data-name="Path 7641" d="M234,621.266a1.719,1.719,0,0,0-1.539,1.257c-2.007,5.877-3.827,11.806-5.513,17.783a.845.845,0,0,0-.085.256,3.532,3.532,0,0,1,2.686,1.907,33.385,33.385,0,0,1,4.192,7.6,76.144,76.144,0,0,1,3.889,13.146.249.249,0,0,0,.485.022,326.711,326.711,0,0,0,7.7-33.332,5.808,5.808,0,0,0-2.281-5.988A11.551,11.551,0,0,0,234,621.266Z" transform="translate(-190.295 -536.523)" fill="#fffb7e"/>
      <path id="Path_7642" data-name="Path 7642" d="M247.377,605.974a5.377,5.377,0,0,0-5.963,1.824,16.406,16.406,0,0,0-2.368,4.678c-.27.725-.122.985.7.869a12.454,12.454,0,0,1,11.179,4.274c.177.219.336.646.726.492.3-.119.237-.5.273-.771a17.96,17.96,0,0,0-.13-6.313,7.35,7.35,0,0,0-2-3.5c-.438-.415-.886-.76-1.587,0C248.481,606.492,248.021,606.185,247.377,605.974Z" transform="translate(-195.738 -529.573)" fill="#fffb7e"/>
      <path id="Path_7643" data-name="Path 7643" d="M268.471,479.9c-.191-.086-.321.123-.417.261a51.786,51.786,0,0,0-5.878,10.2c1.9-1.82,3.534-3.868,5.8-5.291a70.342,70.342,0,0,0-9.222,21.7c.431-.03.525-.325.635-.549A103.848,103.848,0,0,1,268.28,492a3.932,3.932,0,0,0,.76-3.188,33.51,33.51,0,0,1-.377-8.153C268.7,480.394,268.831,480.045,268.471,479.9Z" transform="translate(-204.689 -472.786)" fill="#fffb7e"/>
      <path id="Path_7644" data-name="Path 7644" d="M266.316,514.176c-.181.912-.336,1.609-.454,2.3a301.854,301.854,0,0,1-11.672,45.541c-.167.465-.717,1.026-.021,1.543.843.618,1.327.422,1.68-.67a179.742,179.742,0,0,0,4.228-17.7c1.376-6.872,3.365-13.578,5.215-20.336a32.717,32.717,0,0,0,1.326-9.346A2.1,2.1,0,0,0,266.316,514.176Z" transform="translate(-202.464 -488.264)" fill="#fffb7e"/>
      <path id="Path_7645" data-name="Path 7645" d="M256.422,540.768c-.074-.034-.139-.049-.2-.078-.243.619-.493,1.248-.725,1.873a122.141,122.141,0,0,0-6.856,29.166c-.087.74-.282,1.487-.309,2.225-.017.477-.611,1.212.351,1.394,1.138.2,1.553-.2,1.649-1.323.176-2.192.325-4.369.56-6.556A136.113,136.113,0,0,1,256.161,542c.086-.3.179-.616.253-.929A1.893,1.893,0,0,0,256.422,540.768Z" transform="translate(-199.897 -500.231)" fill="#fffb7e"/>
      <path id="Path_7646" data-name="Path 7646" d="M276.486,503.522a5.175,5.175,0,0,0-.874,1.815c-.128.319-.164.642.3.179.176-.162.182.237.155.344-.465,1.5.205,2.775.723,4.112a21.771,21.771,0,0,1,1.16,9.553c-.4,6.221-1.872,12.275-3.273,18.32a1.768,1.768,0,0,0-.088,1.278,18.852,18.852,0,0,0,1.467-3.34c2.283-5.843,2.721-11.933,2.409-18.121a112.458,112.458,0,0,0-1.567-13.145C276.833,504.174,276.894,503.774,276.486,503.522Z" transform="translate(-211.8 -483.455)" fill="#fffb7e"/>
      <path id="Path_7647" data-name="Path 7647" d="M281.325,466.946c-1.048,3.442,1.385,19.728,3.825,25.686C284.462,484.053,282.582,475.667,281.325,466.946Z" transform="translate(-214.764 -466.946)" fill="#fffb7e"/>
      <path id="Path_7648" data-name="Path 7648" d="M265.784,578.852c-.887,2.58-1.747,5.033-2.828,7.413a44.266,44.266,0,0,1-3.536,6.511,1.455,1.455,0,0,0,.167,2.039,1.8,1.8,0,0,0,.514.281c.681.286.674-.363.813-.693,1.144-2.7,2.245-5.427,3.368-8.141a23.936,23.936,0,0,0,1.666-6.541A.878.878,0,0,0,265.784,578.852Z" transform="translate(-204.836 -517.456)" fill="#fffb7e"/>
      <path id="Path_7649" data-name="Path 7649" d="M245.054,592.914l-.311-.029c-.215,2.023-1.085,3.97-.551,6.07.069.3-.008.846.554.718.465-.1,1.047-.26.977-.925C245.523,596.8,245.28,594.869,245.054,592.914Z" transform="translate(-198.039 -523.789)" fill="#fffb7e"/>
      <path id="Path_7650" data-name="Path 7650" d="M265.4,602.667l-.319-.176c-.839,1.337-1.727,2.654-2.5,4.034a1,1,0,0,0,.507,1.283c.556.263.615-.406.775-.75A23.345,23.345,0,0,0,265.4,602.667Z" transform="translate(-206.383 -528.125)" fill="#fffb7e"/>
    </g>
    <g id="Group_5907" data-name="Group 5907" transform="translate(739.538 588.505)">
      <path id="Path_7651" data-name="Path 7651" d="M1322.168,786.068c6.574,19.609,27.606,82.009,34.646,103.015.128.373.253.747.374,1.093a2.679,2.679,0,0,1-.613,2.711,4.105,4.105,0,0,1-.367.368c-3.611,3.765-10.1,10.332-17.212,17.478-.711.748-1.452,1.473-2.19,2.224-10.465,10.549-21.738,21.877-26.9,27.221a2.64,2.64,0,0,1-2.523.743l-58.25-13.446a2.729,2.729,0,0,1-1.945-1.81c-4.034-12.785-17.264-50.632-21.212-62.945a2.671,2.671,0,0,1,.61-2.711c3.33-3.369,8.367-8.491,14.355-14.56.724-.735,1.45-1.47,2.187-2.223,5.284-5.366,11.192-11.359,17.215-17.478l2.684-2.708c16.3-16.51,32.994-33.443,40.678-41.252a2.68,2.68,0,0,1,2.528-.712h.046a2.7,2.7,0,0,1,2.018,3.216l-14.03,60.743-.914,3.952-2.243,9.667a2.706,2.706,0,0,1-2.238,2.036,14.629,14.629,0,0,0-10.677,7.23,16.911,16.911,0,0,0-1.319,2.836c-2.819,7.908.089,17.979,10.016,20.916a14.755,14.755,0,0,0,15.044-3.271,16.668,16.668,0,0,0,2.056-2.322c4.885-6.713,4.976-17.061-3.138-22.613a2.648,2.648,0,0,1-1.082-2.815l1.417-6.143.915-3.952,14.849-64.269a2.664,2.664,0,0,1,3.19-2.006h.014l.045.007A2.681,2.681,0,0,1,1322.168,786.068Z" transform="translate(-1225.833 -781)" fill="#ff6868"/>
      <path id="Path_7652" data-name="Path 7652" d="M1312.786,1023.552a7.273,7.273,0,0,1-1.173,2.625,7.511,7.511,0,0,1-7.817,2.989l-47-10.87a7.482,7.482,0,0,1-5.631-8.955v-.018a7.5,7.5,0,0,1,8.99-5.615l47.013,10.851a7.5,7.5,0,0,1,5.619,8.99Z" transform="translate(-1233.304 -847.117)" fill="#ff6868"/>
    </g>
    <g id="Group_5908" data-name="Group 5908" transform="translate(905.83 597.566)">
      <path id="Path_7653" data-name="Path 7653" d="M1381.311,522.122a1.933,1.933,0,0,1,.9.52l17.465,17.185a3.306,3.306,0,0,1-1.7-.33,21.881,21.881,0,0,0-12.8-.464l-.278.08a22.109,22.109,0,0,0-11.474,7.473,1.568,1.568,0,0,1-.674.63l6.141-23.665A1.992,1.992,0,0,1,1381.311,522.122Z" transform="translate(-1370.036 -522.061)" fill="#ababd6"/>
      <path id="Path_7654" data-name="Path 7654" d="M1381.311,522.122a1.933,1.933,0,0,1,.9.52l17.465,17.185a3.306,3.306,0,0,1-1.7-.33,21.881,21.881,0,0,0-12.8-.464l-.278.08a22.109,22.109,0,0,0-11.474,7.473,1.568,1.568,0,0,1-.674.63l6.141-23.665A1.992,1.992,0,0,1,1381.311,522.122Z" transform="translate(-1370.036 -522.061)" fill="#ababd6"/>
      <path id="Path_7655" data-name="Path 7655" d="M1368.407,590.511a8.848,8.848,0,0,0,12.257-2.519q.155-.234.294-.478a10.1,10.1,0,0,0,18.438-5.1,8.81,8.81,0,0,0,12-3.336c.036-.064.071-.128.105-.193a.966.966,0,0,1,.1.273l3.877,14,.988,3.545,2.976,10.761.64,2.306,2.712,9.823.814,2.893L1454.8,730.542a1.992,1.992,0,0,1-1.389,2.448l-39.183,10.853a1.993,1.993,0,0,1-2.456-1.375h0l.008-.014-28.014-96.569-.6-2.189-5.963-21.5-.791-2.878-5.74-20.726-.652-2.315-1.567-5.718-.063.017Z" transform="translate(-1368.389 -543.51)" fill="#ababd6"/>
    </g>
    <path id="Path_7656" data-name="Path 7656" d="M776.4,848.476a4.413,4.413,0,0,0,1.1,3.507l9.217,10.434a4.583,4.583,0,0,0,6.35.527,4.4,4.4,0,0,0,.61-.633l36.67-46.841a4.3,4.3,0,0,0,.421-4.633l-6.121-11.973-11.787-23.057a4.3,4.3,0,0,1,1.815-5.8c.054-.028.107-.054.162-.081a4.51,4.51,0,0,1,1.883-.431l36.164.141a5.691,5.691,0,0,0,5.732-4.91h0a5.932,5.932,0,0,0-4.249-6.389L819.54,747.961a4.5,4.5,0,0,1-3.033-5.545,4.254,4.254,0,0,1,.945-1.645l17.272-18.753,8.976-9.743a4.284,4.284,0,0,0,.786-4.58l-23.215-55.712a4.621,4.621,0,0,0-5.875-2.524,4.5,4.5,0,0,0-.791.4l-11.554,7.358a4.3,4.3,0,0,0-1.326,5.938c.03.049.061.1.094.141l.006.008a4.655,4.655,0,0,0,3.163,1.985,4.51,4.51,0,0,0,3.081-.646l2.42-1.543a4.6,4.6,0,0,1,6.235,1.339,4.533,4.533,0,0,1,.426.79l16.884,40.505a4.3,4.3,0,0,1-.79,4.586l-3.159,3.429-28.722,31.177a4.361,4.361,0,0,0,.31,6.16l.08.07a4.63,4.63,0,0,0,1.7.962l26.882,8.421-28.021.289a4.324,4.324,0,0,0-4.348,4.3c0,.051,0,.1,0,.152a4.427,4.427,0,0,0,.484,1.86l19.6,38.333,2.157,4.217a4.314,4.314,0,0,1-.421,4.633l-26.668,34.06a4.525,4.525,0,0,1-6.3.725,4.582,4.582,0,0,1-.66-.611l-1.933-2.189a4.584,4.584,0,0,0-6.351-.527A4.247,4.247,0,0,0,776.4,848.476Z" transform="translate(125.044 225.502)" fill="#7cf28f"/>
  </g>
</svg>
