<svg xmlns="http://www.w3.org/2000/svg" xmlns:xlink="http://www.w3.org/1999/xlink" viewBox="0 0 956.81 860.09"><defs><style>.cls-1{fill:#fffb7e;}.cls-2{fill:url(#linear-gradient);}.cls-3{fill:#ff6868;}.cls-4{fill:#a7f6ff;}.cls-5{fill:#343030;}.cls-6{fill:url(#linear-gradient-2);}.cls-7{fill:url(#linear-gradient-3);}.cls-8{fill:#4d4d4d;opacity:0.28;isolation:isolate;}</style><linearGradient id="linear-gradient" x1="-707.88" y1="933.54" x2="-705.55" y2="933.53" gradientTransform="matrix(401.81, 0, 0, -277.91, 284457.78, 259991.36)" gradientUnits="userSpaceOnUse"><stop offset="0" stop-color="#393838"/><stop offset="0.1" stop-color="#e6dddd"/><stop offset="0.21" stop-color="#3a3939"/><stop offset="0.51" stop-color="#aea8a8"/><stop offset="0.59" stop-color="#cecdcd"/><stop offset="0.73" stop-color="#333232"/><stop offset="0.87" stop-color="#8c8989"/><stop offset="1" stop-color="#5b5858"/></linearGradient><linearGradient id="linear-gradient-2" x1="-707.88" y1="870.81" x2="-706.01" y2="870.81" gradientTransform="matrix(491.85, 0, 0, -4.73, 348178.28, 4941.44)" gradientUnits="userSpaceOnUse"><stop offset="0" stop-color="#aca9a9"/><stop offset="0.04" stop-color="#1a1a1a"/><stop offset="0.07" stop-color="#2e2d2d" stop-opacity="0.99"/><stop offset="0.13" stop-color="#a49a9a" stop-opacity="0.97"/><stop offset="0.51" stop-color="#d5d1d1" stop-opacity="0.88"/><stop offset="0.83" stop-color="#a19898" stop-opacity="0.96"/><stop offset="0.94" stop-color="#131212"/><stop offset="1" stop-color="#686868"/><stop offset="1" stop-color="#828282"/></linearGradient><linearGradient id="linear-gradient-3" x1="-703.89" y1="870.81" x2="-702" y2="870.81" gradientTransform="matrix(77.05, 0, 0, -4.73, 54627.78, 4941.46)" gradientUnits="userSpaceOnUse"><stop offset="0" stop-color="#4c4c4c"/><stop offset="0.05" stop-color="#4d4d4d"/><stop offset="0.07" stop-color="#545454"/><stop offset="0.09" stop-color="#606060"/><stop offset="0.1" stop-color="#717171"/><stop offset="0.11" stop-color="#868686"/><stop offset="0.11" stop-color="#888"/><stop offset="0.19" stop-color="#b3b3b4"/><stop offset="0.37" stop-color="#d8d8d8"/><stop offset="0.7" stop-color="#d8d8d8"/><stop offset="0.8" stop-color="#b3b3b4"/><stop offset="0.88" stop-color="#888"/><stop offset="0.89" stop-color="#7a7a7a"/><stop offset="0.91" stop-color="#666"/><stop offset="0.93" stop-color="#575757"/><stop offset="0.96" stop-color="#4e4e4e"/><stop offset="1" stop-color="#4c4c4c"/></linearGradient></defs><g id="Layer_2" data-name="Layer 2"><g id="Layer_1-2" data-name="Layer 1"><g id="Group_5858" data-name="Group 5858"><g id="Group_5473" data-name="Group 5473"><g id="Group_4088" data-name="Group 4088"><path id="Path_5442" data-name="Path 5442" class="cls-1" d="M718.66,13.35c-4.69,15.14-9.54,30.2-14.34,45.3-14.29,45-28.27,90.09-43,135-9.69,29.5-20.43,58.66-30.75,88l-1.42,4.06L627.3,291q-15.91,45.33-31.93,90.64a11.45,11.45,0,0,1-2.43,4.51c-12.37,12.54-25.23,24.49-40.1,34.07a87,87,0,0,1-20.43,10.1c-1.18.38-2.68,1.46-3.7.32-.84-.94.22-2.32.6-3.42,11.82-33.42,24.44-66.53,37.34-99.55q7.2-18.36,14.55-36.67c.7-1.75,1.4-3.53,2.12-5.28,25.59-63.6,52.44-126.66,79.17-189.76Q681.27,51.59,700,7.21C701.77,2.9,704.49,0,708.07,0,716.11,0,720.76,6.64,718.66,13.35Z"/><path id="Path_330" data-name="Path 330" class="cls-1" d="M590.53,396.21a934.24,934.24,0,0,1-38.36,96.43c-3.29,7-8.18,9.58-15,10.19a32.57,32.57,0,0,1-26.44-9.28,4.86,4.86,0,0,1-1.54-5.41c4.84-16.88,10.24-33.58,16-50.17a4,4,0,0,1,2.94-3.12c14.2-3.25,26.09-11,37.46-19.64a238.19,238.19,0,0,0,23.11-20.3,3.51,3.51,0,0,1,2.09-1.44C591.49,394.58,590.8,395.4,590.53,396.21Z"/><path id="Path_331" data-name="Path 331" class="cls-1" d="M544.6,506.76a50.88,50.88,0,0,1-10.54,14.45,20.53,20.53,0,0,1-10.3,4.88c-1.65.26-3.28.34-3.66-2.55-1,2.82-2.61,2.79-4.44,2.23a15.16,15.16,0,0,1-10.9-13.9,46.64,46.64,0,0,1,2.08-14.7c.54-2.1,1.33-2.46,3-.88a34.49,34.49,0,0,0,18.67,9,34.94,34.94,0,0,0,14.21-.77c.77-.21,1.83-.94,2.49,0C545.73,505.29,545,506.08,544.6,506.76Z"/><path id="Path_332" data-name="Path 332" class="cls-1" d="M453.17,630.42a290,290,0,0,0-2.41,47.4,11,11,0,0,1-3.41,8.65,95.09,95.09,0,0,0-14.07,18.31c-.38.64-.62,1.67-1.69,1.43-.57-.12-.53-.81-.54-1.3a146.65,146.65,0,0,1,2.89-33.18c1.48,7.3,2,14.69,4.91,21.66a198.27,198.27,0,0,1,13.74-65.26C453.55,628.87,453.28,629.71,453.17,630.42Z"/><path id="Path_333" data-name="Path 333" class="cls-1" d="M516.8,532.72a495.92,495.92,0,0,1-18.87,47.9c-7.89,18.18-14.16,37-20.8,55.63a93.94,93.94,0,0,1-12.08,23.85,5.88,5.88,0,0,1-2.86,2.6c1.06-2.43,1.83-4.27,2.67-6.07a852.51,852.51,0,0,0,46.68-124.57c.39-1.36,0-3.55,2.44-3.62C517,528.37,517.77,529.62,516.8,532.72Z"/><path id="Path_334" data-name="Path 334" class="cls-1" d="M508.61,529.88c-3.13,5.34-6.33,10.65-9.3,16.08a387.34,387.34,0,0,0-29,67.63c-.27.86-.58,1.73-.91,2.58a3.88,3.88,0,0,1-.49.73l-.59-.16c.46-1.84.91-3.68,1.38-5.52A345.89,345.89,0,0,1,501,532.46c1-1.88,1.76-3.91,2.91-5.68.71-1.11.52-3.79,3-2.64C509.91,525.5,510.25,527.08,508.61,529.88Z"/><path id="Path_335" data-name="Path 335" class="cls-1" d="M507.92,591.92a53.92,53.92,0,0,1-2,10.15c-4.19,17.23-13,32.09-23.77,45.94a319.69,319.69,0,0,1-25,28c-.66.69-1.19,1.69-2.53,1.62a15,15,0,0,1,.93-5.62c.21-1,.64-1.75,1,.09.13.66.81-.26.91-.56,1.35-4.25,5-6.1,8.35-8.37A61.61,61.61,0,0,0,484,642.87c9.12-15.13,15.51-31.51,22.06-47.83A5,5,0,0,1,507.92,591.92Z"/><path id="Path_336" data-name="Path 336" class="cls-1" d="M477,673.8c-15.47,18.79-33.43,35.21-50.46,53.39C429.68,717.53,461.68,683.67,477,673.8Z"/><path id="Path_337" data-name="Path 337" class="cls-1" d="M526.83,531.69c-1.74,8.13-3.57,16.23-5.39,24.35a67.29,67.29,0,0,1-6.72,17.88c-.32.59-.44,1.39-1.8,1.76,2.12-7.44,4.11-14.54,5.45-21.82A124.42,124.42,0,0,0,520.73,533a4.07,4.07,0,0,1,3.67-4.43,4,4,0,0,1,1.64.17C528.12,529.2,527,530.71,526.83,531.69Z"/><path id="Path_338" data-name="Path 338" class="cls-1" d="M504.14,522.71c-3.63,4.19-7.34,8.3-11,12.44l-.78-.44c2.78-5,3.92-11,8.57-15,.67-.59,1.35-2,2.43-.8C504.26,520,505.37,521.28,504.14,522.71Z"/><path id="Path_339" data-name="Path 339" class="cls-1" d="M533.31,529.36a66.65,66.65,0,0,1-3.56,12.69l-1-.12c.23-4.47.31-8.95.75-13.41a2.81,2.81,0,0,1,3.25-2.16C534.44,526.66,533.5,528.3,533.31,529.36Z"/></g><path id="Path_3064" data-name="Path 3064" class="cls-2" d="M308.65,285.67l2.16,5.28h20.34a27.61,27.61,0,0,1,.57-5.28Zm28.24,0h-.3c-.11.42-.21.86-.3,1.31a26.47,26.47,0,0,0-.42,4H339Zm492.3,0h-32.7L791.16,291h38a18,18,0,0,1,18,18v83.3l5.29-5.25v-78a23.26,23.26,0,0,0-23.25-23.27Zm-196.06,0L631.05,291H779.73l5.35-5.28Zm-248.62,0a27.85,27.85,0,0,1,.95,5.28h73.86c.3-1.79.59-3.55.89-5.28Zm-4.9,0h-43c-.1.42-.19.86-.27,1.31a25.24,25.24,0,0,0-.43,4h44.88a23.82,23.82,0,0,0-1.15-5.28Zm-121.27,0c-.29,1.77-.59,3.53-.88,5.28h73.7a28.43,28.43,0,0,1,.56-5.28Zm588.8,117.85V788.75a18,18,0,0,1-17.66,18H114.39a18,18,0,0,1-17.68-18V308.91a18,18,0,0,1,18-18h138c.3-1.75.62-3.51.91-5.28H114.68a23.26,23.26,0,0,0-23.24,23.26V788.77a23.3,23.3,0,0,0,6.77,16.42c.55.54,1.12,1,1.7,1.54a1.09,1.09,0,0,1,.17.13c.11.09.22.19.34.27A23,23,0,0,0,114.67,812H829.16a23,23,0,0,0,14.26-4.88,2.42,2.42,0,0,0,.36-.27.86.86,0,0,0,.14-.13,16.74,16.74,0,0,0,1.71-1.54,23.12,23.12,0,0,0,6.77-16.42V398.3ZM465,285.67c-.28,1.7-.59,3.49-.89,5.28H577.17l2.07-5.28Z"/><g id="Group_118" data-name="Group 118"><path id="Path_3067" data-name="Path 3067" class="cls-3" d="M466,250.94l-5.78,34.74c-.28,1.72-.58,3.49-.88,5.28-8.17,49.07-20,120-24.4,146.56a4.61,4.61,0,0,1-2.82,3.5l-.1,0a4.62,4.62,0,0,1-6-2.54l-49.53-121.7a4.61,4.61,0,0,1,1.13-5.1A25.1,25.1,0,0,0,385.48,291a29.66,29.66,0,0,0-1-5.29c-3.86-13.93-17.94-25.24-34.81-19.51a25.45,25.45,0,0,0-18,19.51,27.63,27.63,0,0,0-.57,5.29c-.23,14.3,9.92,29,26.84,28.73a4.61,4.61,0,0,1,4.32,2.88l49.53,121.72a4.63,4.63,0,0,1-2.54,6l-.09,0a4.6,4.6,0,0,1-4.46-.54c-29.21-21.48-123.5-90.55-152.52-111.87a4.56,4.56,0,0,1-1.82-4.41c1.32-8.71,4-24.86,7-42.56q.44-2.62.89-5.29c4.28-25.22,8.92-52.35,10.9-65a4.63,4.63,0,0,1,2.82-3.56l95.31-38.78a4.63,4.63,0,0,1,4.55.6c18.37,14,74.49,54.17,92.26,67.58A4.6,4.6,0,0,1,466,250.94Z"/><path id="Rectangle_44" data-name="Rectangle 44" class="cls-3" d="M265.69,175l77-31.32a12.91,12.91,0,0,1,16.81,7.08h0a12.91,12.91,0,0,1-7.09,16.81l-77,31.32a12.91,12.91,0,0,1-16.8-7.09h0A12.9,12.9,0,0,1,265.69,175Z"/></g><g id="Group_4103" data-name="Group 4103"><path id="Path_3068" data-name="Path 3068" class="cls-4" d="M743.54,465.58,684.59,481.1a5,5,0,0,1-6.06-3.52,5,5,0,0,1,0-2.58l16.08-59a8.48,8.48,0,0,1,1.34,4.08,54.49,54.49,0,0,0,14.61,28.42l.5.52a55.2,55.2,0,0,0,30.29,15.79A4.06,4.06,0,0,1,743.54,465.58Z"/><path id="Path_3069" data-name="Path 3069" class="cls-4" d="M955.34,285,852.42,387l-5.28,5.24L809.05,430l-4.26,4.23-10.5,10.41.1.09-.16,0a22.06,22.06,0,0,0-20.41-23.6h0c-.46,0-.93-.05-1.4-.06a25.16,25.16,0,0,0-33.57-33.86,22,22,0,0,0-22-22.06h-.45a4.22,4.22,0,0,1,.47-.56l52-51.54,4.26-4.23,18-17.86,5.33-5.29L877,205.9a5,5,0,0,1,7,0h0l71.39,72a5,5,0,0,1,0,7h0Z"/></g></g><path id="Path_5443" data-name="Path 5443" class="cls-5" d="M934,823.47h0v-3.94a1.44,1.44,0,0,0-1.4-1.49H4.6a1.46,1.46,0,0,0-1.41,1.49h0V827S21,840.22,40.93,840.75c19.56.53,414.39,0,427.66,0l26.41,0c90.06.11,384.43.43,401.26,0C916.15,840.22,934,827,934,827Z"/><path id="Path_5444" data-name="Path 5444" class="cls-6" d="M934.35,818H2.83v9H934.35v-9Z"/><rect id="Rectangle_1889" data-name="Rectangle 1889" class="cls-7" x="395.63" y="818.03" width="145.92" height="8.96"/><path id="Path_5445" data-name="Path 5445" class="cls-8" d="M903,849.44H37.66L0,860.09H937.19Z"/></g></g></g></svg>