<svg xmlns="http://www.w3.org/2000/svg" viewBox="0 0 939.28 474.07"><defs><style>.cls-1{fill:#fff;}.cls-2{fill:#deffe2;}.cls-3{fill:#bcffc5;}.cls-4{fill:#9bffa8;}.cls-5{fill:#79ff8b;}.cls-6{fill:#58ff6e;}.cls-7{fill:#36ff51;}.cls-8{fill:#15ff34;}</style></defs><g id="Layer_2" data-name="Layer 2"><g id="Layer_1-2" data-name="Layer 1"><g id="Group_5837" data-name="Group 5837"><g id="Group_5792" data-name="Group 5792"><path id="Path_7545" data-name="Path 7545" class="cls-1" d="M185.44,255.47a17.9,17.9,0,0,0-5.78,12.92v61.83a18,18,0,0,0,5.75,12.9,26,26,0,0,0,19,6.8L864,325.06c12.68-.47,22.62-9.13,22.62-19.7s-9.89-19.18-22.51-19.7c-110.26-4.47-222.39-11.61-330.82-18.52-107.76-6.87-219.18-14-328.78-18.45A26,26,0,0,0,185.44,255.47ZM864,290.66c9.93.4,17.71,6.86,17.71,14.7h0c0,7.87-7.82,14.33-17.81,14.7l-659.6,24.86a21,21,0,0,1-15.37-5.41,12.84,12.84,0,0,1-4.22-9.3V268.39a12.83,12.83,0,0,1,4.24-9.31,21,21,0,0,1,15.45-5.4c109.54,4.48,220.93,11.58,328.66,18.44C641.47,279,753.63,286.18,864,290.66Z"/></g><g id="Group_5793" data-name="Group 5793"><path id="Path_7546" data-name="Path 7546" class="cls-1" d="M743.31,382a17.91,17.91,0,0,0-6.58-12.49A26,26,0,0,0,717.3,364L60.74,432.06c-12.62,1.3-22,10.6-21.28,21.14s11.12,18.49,23.75,18.18c110.32-2.77,222.68-3,331.33-3.2,108-.22,219.62-.44,329.28-3.15a26.06,26.06,0,0,0,18.63-8,17.89,17.89,0,0,0,4.91-13.27Zm-4.55,71.59a21,21,0,0,1-15.07,6.4c-109.6,2.72-221.22,2.94-329.16,3.15-108.68.21-221.06.44-331.44,3.2-9.94.25-18.13-5.68-18.64-13.51h0C43.93,445,51.32,438.06,61.26,437l656.55-68a21,21,0,0,1,15.69,4.39,12.78,12.78,0,0,1,4.82,9l4,61.7a12.78,12.78,0,0,1-3.61,9.56Z"/></g><g id="Group_5794" data-name="Group 5794"><path id="Path_7547" data-name="Path 7547" class="cls-1" d="M936,465.26l.54-5L784.26,443.72l151.22,12.72.42-5L783.15,438.61l151.81,9,.3-5-153-9.09,152.2,5.26.17-5-153.24-5.29L933.92,430l.05-5-153.24-1.46,152.68-2.36-.08-5L780.1,418.51l152.79-6.19-.2-5-153,6.2,152.7-10-.33-5-152.7,10,152.51-13.87-.45-5L779.12,403.54l152.22-17.71-.58-5L779.09,398.51,930.82,377l-.7-4.95-151,21.41L930.3,368.17l-.82-4.93-150.2,25.12,150.5-29-.94-4.91-149.33,28.8L929.26,350.5l-1.06-4.89L779.94,378l148.8-36.36-1.19-4.85-147.1,35.94,147.77-39.93-1.3-4.82L760,373.08l1.18,4.36-.82.2,1.07,4.41-.71.15,1,4.45-.61.12.86,4.48-.5.08.76,4.52-.39,0,.64,4.54-.28,0,.53,4.56h-.17l.42,4.57h-.05l.32,5h.06l.18,4.58h.17l.07,4.58H764l0,4.59h.4l-.16,4.57.51,0-.27,4.55.62,0-.38,4.54.73.06-.49,4.51.84.09-.6,4.48,171.36,22.86.66-4.95L785.45,448.88Z"/></g><g id="Group_5795" data-name="Group 5795"><path id="Path_7548" data-name="Path 7548" class="cls-1" d="M76,333.05c25.35,33.14,78.93,17.49,80.62-24.2,0-.83,0-1.66,0-2.49h0c0-.84,0-1.67,0-2.5-1.59-39.27-41.77-65.27-78.74-51.94-27.22,9.81-57.33,35.19-75.21,54.44h0C33.66,290.08,59.42,311.37,76,333.05Z"/></g><g id="Group_5822" data-name="Group 5822"><g id="Group_5796" data-name="Group 5796"><path id="Path_7549" data-name="Path 7549" class="cls-1" d="M939.28,76.54v-.49h-8.95V56.5H935V56h-4.68V48.13h-.49V56H918.1V46.76h-.49V56H740.37v-9.5h-.49V56H728.17V50h-.49v6h-4.87v.49h4.87V76.05h-9v.49h9v68.19h-9v.49h9v19.53H723v.49h4.68v7.88h.49v-7.88h11.71V173h.49v-7.8H917.61v8h.49v-8h11.74v6h.49v-6h4.86v-.49h-4.86V145.22h8.94v-.49h-8.94V76.54Zm-199.4,88.21H728.17V145.22h11.71Zm0-20H728.17V76.54h11.71Zm0-68.68H728.17V56.5h11.71Zm.49.49h83.39a121.89,121.89,0,0,0-24.9,3.94,162.9,162.9,0,0,0-57.8,29.2l-.7.59ZM829,78.87a115,115,0,0,1,28.12,3.64A151.48,151.48,0,0,1,890,95.2a159.62,159.62,0,0,1,24.19,15.43A160.41,160.41,0,0,1,890,126.06a152.51,152.51,0,0,1-32.87,12.69,110.73,110.73,0,0,1-56.24,0A152.51,152.51,0,0,1,768,126.06a160.41,160.41,0,0,1-24.19-15.43A160.12,160.12,0,0,1,768,95.2a151,151,0,0,1,32.87-12.69A115.06,115.06,0,0,1,829,78.87ZM740.37,111l.7.59a162.53,162.53,0,0,0,57.79,29.2,121.55,121.55,0,0,0,25.36,4H740.37Zm177.24,53.77H740.37V145.22H917.61Zm0-20H833.78a121.45,121.45,0,0,0,25.36-4,162.58,162.58,0,0,0,57.8-29.2l.67-.57Zm0-34.48-.67-.57a163,163,0,0,0-57.8-29.2,121.91,121.91,0,0,0-24.89-3.94h83.36Zm0-34.2H740.37V56.5H917.61Zm12.22,88.7H918.1V145.22h11.73Zm0-20H918.1V76.54h11.73Zm0-68.68H918.1V56.5h11.73Z"/></g><g id="Group_5797" data-name="Group 5797"><path id="Path_7550" data-name="Path 7550" class="cls-1" d="M802,112.27l-2.45.14a28.3,28.3,0,0,0,1,6.07l2.37-.65A27.59,27.59,0,0,1,802,112.27Z"/></g><g id="Group_5798" data-name="Group 5798"><path id="Path_7551" data-name="Path 7551" class="cls-1" d="M803.63,101.17l-2.3-.87a28.7,28.7,0,0,0-1.54,6l2.43.37A26.88,26.88,0,0,1,803.63,101.17Z"/></g><g id="Group_5799" data-name="Group 5799"><path id="Path_7552" data-name="Path 7552" class="cls-1" d="M805,123.07l-2.19,1.14a30.17,30.17,0,0,0,3.39,5.13l1.9-1.56A27.76,27.76,0,0,1,805,123.07Z"/></g><g id="Group_5800" data-name="Group 5800"><path id="Path_7553" data-name="Path 7553" class="cls-1" d="M809.65,91.71,807.89,90a30.66,30.66,0,0,0-3.82,4.82l2.07,1.33A27.83,27.83,0,0,1,809.65,91.71Z"/></g><g id="Group_5801" data-name="Group 5801"><path id="Path_7554" data-name="Path 7554" class="cls-1" d="M816.82,134.81a27.79,27.79,0,0,1-4.74-3.06l-1.54,1.92a29.22,29.22,0,0,0,5.17,3.33Z"/></g><g id="Group_5802" data-name="Group 5802"><path id="Path_7555" data-name="Path 7555" class="cls-1" d="M819,85.47l-.91-2.29a30.06,30.06,0,0,0-5.44,2.87l1.36,2A27,27,0,0,1,819,85.47Z"/></g><g id="Group_5803" data-name="Group 5803"><path id="Path_7556" data-name="Path 7556" class="cls-1" d="M820.16,111.24l-2.46.17a11.28,11.28,0,0,0,.92,3.74l2.25-1A9,9,0,0,1,820.16,111.24Z"/></g><g id="Group_5804" data-name="Group 5804"><path id="Path_7557" data-name="Path 7557" class="cls-1" d="M820.46,108.24a8.78,8.78,0,0,1,1.29-2.71l-2-1.42a11.43,11.43,0,0,0-1.65,3.47Z"/></g><g id="Group_5805" data-name="Group 5805"><path id="Path_7558" data-name="Path 7558" class="cls-1" d="M824.93,118.5a8.91,8.91,0,0,1-2.4-1.82l-1.8,1.68a11.25,11.25,0,0,0,3.07,2.32Z"/></g><g id="Group_5806" data-name="Group 5806"><path id="Path_7559" data-name="Path 7559" class="cls-1" d="M826.59,102.09l-.67-2.36a11.3,11.3,0,0,0-3.47,1.65l1.43,2A9,9,0,0,1,826.59,102.09Z"/></g><g id="Group_5807" data-name="Group 5807"><path id="Path_7560" data-name="Path 7560" class="cls-1" d="M821.46,139.19a29.82,29.82,0,0,0,6.08.94l.12-2.46a26.91,26.91,0,0,1-5.57-.86Z"/></g><g id="Group_5808" data-name="Group 5808"><path id="Path_7561" data-name="Path 7561" class="cls-1" d="M830,83.57l.1-2.46a29.45,29.45,0,0,0-6.15.4l.42,2.42A27.2,27.2,0,0,1,830,83.57Z"/></g><g id="Group_5809" data-name="Group 5809"><path id="Path_7562" data-name="Path 7562" class="cls-1" d="M829,119.49h0a8.08,8.08,0,0,1-1.2-.09l-.33,2.45a12.82,12.82,0,0,0,1.53.1h0a11.16,11.16,0,0,0,2.3-.24l-.5-2.41A9.17,9.17,0,0,1,829,119.49Z"/></g><g id="Group_5810" data-name="Group 5810"><path id="Path_7563" data-name="Path 7563" class="cls-1" d="M829.58,101.78a8.73,8.73,0,0,1,2.93.7l1-2.26a11.51,11.51,0,0,0-3.74-.9Z"/></g><g id="Group_5811" data-name="Group 5811"><path id="Path_7564" data-name="Path 7564" class="cls-1" d="M837.78,117.77l-1.91-1.56a8.65,8.65,0,0,1-2.27,2l1.29,2.1A11.47,11.47,0,0,0,837.78,117.77Z"/></g><g id="Group_5812" data-name="Group 5812"><path id="Path_7565" data-name="Path 7565" class="cls-1" d="M839,105.39a11.24,11.24,0,0,0-2.33-3.06l-1.68,1.8a8.94,8.94,0,0,1,1.83,2.4Z"/></g><g id="Group_5813" data-name="Group 5813"><path id="Path_7566" data-name="Path 7566" class="cls-1" d="M833.3,137.36l.38,2.43a29.06,29.06,0,0,0,6-1.6l-.89-2.29A27,27,0,0,1,833.3,137.36Z"/></g><g id="Group_5814" data-name="Group 5814"><path id="Path_7567" data-name="Path 7567" class="cls-1" d="M837.78,109.39a10.19,10.19,0,0,1,.08,1.24,8.54,8.54,0,0,1-.51,3l2.32.83a11.21,11.21,0,0,0,.66-3.8,13.65,13.65,0,0,0-.11-1.57Z"/></g><g id="Group_5815" data-name="Group 5815"><path id="Path_7568" data-name="Path 7568" class="cls-1" d="M842,84.11A29.05,29.05,0,0,0,836.22,82l-.6,2.39a26.83,26.83,0,0,1,5.29,1.94Z"/></g><g id="Group_5816" data-name="Group 5816"><path id="Path_7569" data-name="Path 7569" class="cls-1" d="M849.88,131.51l.45-.47-1.77-1.7-.42.43a27.21,27.21,0,0,1-4.38,3.55l1.34,2.06A30.09,30.09,0,0,0,849.88,131.51Z"/></g><g id="Group_5817" data-name="Group 5817"><path id="Path_7570" data-name="Path 7570" class="cls-1" d="M849.74,93.24l1.89-1.58c-.56-.66-1.14-1.3-1.75-1.91a28.45,28.45,0,0,0-2.67-2.37l-1.52,1.93a29.67,29.67,0,0,1,2.45,2.17C848.69,92.05,849.24,92.63,849.74,93.24Z"/></g><g id="Group_5818" data-name="Group 5818"><path id="Path_7571" data-name="Path 7571" class="cls-1" d="M856.79,120.64l-2.32-.84a26.42,26.42,0,0,1-2.45,5.08l2.09,1.3A30.1,30.1,0,0,0,856.79,120.64Z"/></g><g id="Group_5819" data-name="Group 5819"><path id="Path_7572" data-name="Path 7572" class="cls-1" d="M857.39,102.45a29.6,29.6,0,0,0-2.31-5.7l-2.18,1.16a27.6,27.6,0,0,1,2.13,5.23Z"/></g><g id="Group_5820" data-name="Group 5820"><path id="Path_7573" data-name="Path 7573" class="cls-1" d="M856.08,110.63a27.06,27.06,0,0,1-.25,3.7l2.44.33a30.36,30.36,0,0,0,.28-4c0-.7,0-1.41-.08-2.11l-2.46.17C856.06,109.33,856.08,110,856.08,110.63Z"/></g><g id="Group_5821" data-name="Group 5821"><path id="Path_7574" data-name="Path 7574" class="cls-1" d="M829,142.13a31.55,31.55,0,1,0-22.27-9.24A31.53,31.53,0,0,0,829,142.13ZM807.78,89.41A30,30,0,1,1,799,110.63,30,30,0,0,1,807.78,89.41Z"/></g></g><g id="Group_5825" data-name="Group 5825"><g id="Group_5823" data-name="Group 5823"><path id="Path_7575" data-name="Path 7575" class="cls-1" d="M158,96.08c-7.84-13-33.14-52.76-41.2-66.31a3.14,3.14,0,0,0-2.72-1.54l-70.23.26A3.14,3.14,0,0,0,41.14,30c-8,13.37-33,53.69-40.7,66.65a3.11,3.11,0,0,0,0,3.25c12.94,20.9,55,88.68,68.05,109.72a3.14,3.14,0,0,0,2.69,1.48h.07A3.15,3.15,0,0,0,74.42,208l-.33-89.7a3.13,3.13,0,0,0-2-2.92c-18.65-7.23-13.07-37.53,8.39-36,19.86,1.1,23.37,29.16,6,36a3.18,3.18,0,0,0-2,3l.34,89.68A3.14,3.14,0,0,0,88,211.05h.07a3.14,3.14,0,0,0,2.68-1.5c12.83-21,54.49-89.32,67.23-110.22A3.14,3.14,0,0,0,158,96.08Z"/></g><g id="Group_5824" data-name="Group 5824"><path id="Path_7576" data-name="Path 7576" class="cls-1" d="M50.58,17.81l56.72-.21a8.81,8.81,0,0,0,8.77-8.83h0A8.81,8.81,0,0,0,107.23,0h0L50.52.21A8.8,8.8,0,0,0,41.75,9h0a8.79,8.79,0,0,0,8.83,8.76Z"/></g></g><g id="Group_5828" data-name="Group 5828"><g id="Group_5826" data-name="Group 5826"><path id="Path_7577" data-name="Path 7577" class="cls-1" d="M385.4,192.15H222.78V29.53H385.4Zm-161.62-1H384.4V30.53H223.78Zm159.52-1.1H224.88V31.62H383.3Zm-157.42-1H382.3V32.62H225.88Z"/></g><g id="Group_5827" data-name="Group 5827"><path id="Path_7578" data-name="Path 7578" class="cls-1" d="M334.38,167H276.86V157l18.52-1.43V68.72l-21.63.75-5,29.83H256.39L259,58h91.7l0,.48,1.83,40.8H340.63l-.07-.42-4.64-29.4-21.77-.75v86.85L334.39,157Zm-56.52-1h55.52v-8.05l-20.23-1.42V67.68l23.63.82,4.7,29.79h10L349.74,59h-89.8l-2.48,39.28h10.45l5-29.79,23.49-.82v88.83l-18.53,1.42Z"/></g></g><g id="Group_5829" data-name="Group 5829"><rect id="Rectangle_3472" data-name="Rectangle 3472" class="cls-1" x="424.28" y="65.87" width="24.86" height="80.81"/></g><g id="Group_5830" data-name="Group 5830"><rect id="Rectangle_3473" data-name="Rectangle 3473" class="cls-2" x="449.14" y="65.87" width="24.86" height="80.81"/></g><g id="Group_5831" data-name="Group 5831"><rect id="Rectangle_3474" data-name="Rectangle 3474" class="cls-3" x="474" y="65.87" width="24.86" height="80.81"/></g><g id="Group_5832" data-name="Group 5832"><path id="Path_7579" data-name="Path 7579" class="cls-4" d="M505.09,65.87h-6.24v80.81h24.86V65.87Z"/></g><g id="Group_5833" data-name="Group 5833"><path id="Path_7580" data-name="Path 7580" class="cls-5" d="M530,65.87h-6.24v80.81h24.86V65.87Z"/></g><g id="Group_5834" data-name="Group 5834"><path id="Path_7581" data-name="Path 7581" class="cls-6" d="M554.81,65.87h-6.24v80.81h24.86V65.87Z"/></g><g id="Group_5835" data-name="Group 5835"><path id="Path_7582" data-name="Path 7582" class="cls-7" d="M579.66,65.87h-6.23v80.81h24.85V65.87Z"/></g><g id="Group_5836" data-name="Group 5836"><path id="Path_7583" data-name="Path 7583" class="cls-8" d="M654.24,65.87h-56v80.81h80.81V65.87Z"/></g></g></g></g></svg>