<svg xmlns="http://www.w3.org/2000/svg" viewBox="0 0 275.85 427.28"><defs><style>.cls-1{fill:#fff;}</style></defs><g id="Layer_2" data-name="Layer 2"><g id="Layer_1-2" data-name="Layer 1"><g id="Group_4116" data-name="Group 4116"><g id="Group_4115" data-name="Group 4115"><g id="Group_4110" data-name="Group 4110"><path id="Path_3074" data-name="Path 3074" class="cls-1" d="M199.83,242.68H76a14.15,14.15,0,0,1-12.24-7.07L1.89,128.4a14.15,14.15,0,0,1,0-14.13L63.79,7.06A14.14,14.14,0,0,1,76,0h123.8a14.12,14.12,0,0,1,12.23,7.06L274,114.27a14.15,14.15,0,0,1,0,14.13l-61.9,107.21A14.13,14.13,0,0,1,199.83,242.68ZM82,232.33H193.85a14.14,14.14,0,0,0,12.24-7.06L262,128.4a14.13,14.13,0,0,0,0-14.12L206.09,17.41a14.15,14.15,0,0,0-12.24-7.07H82a14.12,14.12,0,0,0-12.23,7.07L13.84,114.28a14.08,14.08,0,0,0,0,14.12l55.93,96.87A14.11,14.11,0,0,0,82,232.33Z"/></g><g id="Group_4111" data-name="Group 4111"><path id="Path_3075" data-name="Path 3075" class="cls-1" d="M196.23,304.21H79.38a11.77,11.77,0,0,1-11.77-11.78V274.32a11.77,11.77,0,0,1,11.77-11.78H196.24A11.78,11.78,0,0,1,208,274.32v18.12a11.77,11.77,0,0,1-11.78,11.77ZM88.44,295.15h98.73A11.77,11.77,0,0,0,199,283.38h0a11.77,11.77,0,0,0-11.78-11.78H88.44a11.77,11.77,0,0,0-11.78,11.78h0a11.77,11.77,0,0,0,11.77,11.77Z"/></g><g id="Group_4112" data-name="Group 4112"><path id="Path_3076" data-name="Path 3076" class="cls-1" d="M187.85,365.74H87.76A11.77,11.77,0,0,1,76,354V335.85a11.77,11.77,0,0,1,11.78-11.77H187.85a11.77,11.77,0,0,1,11.78,11.77V354A11.78,11.78,0,0,1,187.85,365.74Zm-91-9.05h82a11.78,11.78,0,0,0,11.78-11.78h0a11.78,11.78,0,0,0-11.77-11.78h-82A11.78,11.78,0,0,0,85,344.91h0a11.78,11.78,0,0,0,11.77,11.78Z"/></g><g id="Group_4113" data-name="Group 4113"><path id="Path_3077" data-name="Path 3077" class="cls-1" d="M178.11,427.28H97.49A11.77,11.77,0,0,1,85.72,415.5V397.39a11.77,11.77,0,0,1,11.77-11.78h80.62a11.77,11.77,0,0,1,11.78,11.78V415.5A11.77,11.77,0,0,1,178.11,427.28Zm-71.56-9.06h62.5a11.77,11.77,0,0,0,11.78-11.78h0a11.77,11.77,0,0,0-11.78-11.77h-62.5a11.77,11.77,0,0,0-11.77,11.77h0a11.77,11.77,0,0,0,11.77,11.78Z"/></g><g id="Group_4114" data-name="Group 4114"><path id="Path_3078" data-name="Path 3078" class="cls-1" d="M180.37,62h-1.55a20.21,20.21,0,0,0-20.17,20.17V95.57h-15v10.34h15l-17.58,80.15h10.34L169,105.91h11.37a20.2,20.2,0,0,0,20.17-20.17V82.12A20.2,20.2,0,0,0,180.37,62Zm9.83,23.79a9.83,9.83,0,0,1-9.83,9.82H169V82.13a9.83,9.83,0,0,1,9.82-9.83h1.55a9.84,9.84,0,0,1,9.83,9.83Z"/><path id="Path_3079" data-name="Path 3079" class="cls-1" d="M95.05,62H96.6a20.2,20.2,0,0,1,20.17,20.17V95.57h15v10.34h-15l17.58,80.15H124l-17.58-80.15H95.05A20.19,20.19,0,0,1,74.88,85.75V82.13A20.21,20.21,0,0,1,95.05,62ZM85.22,85.75a9.84,9.84,0,0,0,9.83,9.82h11.38V82.13A9.85,9.85,0,0,0,96.6,72.3H95.05a9.85,9.85,0,0,0-9.83,9.83Z"/></g></g></g></g></g></svg>