<svg xmlns="http://www.w3.org/2000/svg" viewBox="0 0 47.68 48.21"><defs><style>.cls-1{fill:#e43a68;}</style></defs><g id="Layer_2" data-name="Layer 2"><g id="Layer_1-2" data-name="Layer 1"><g id="Group_108" data-name="Group 108"><path id="Path_72" data-name="Path 72" class="cls-1" d="M26.69,26.24A31.59,31.59,0,0,0,14,46.12,23.9,23.9,0,0,1,0,27.79c.84.08,1.66.1,2.45.1a37.81,37.81,0,0,0,20.82-6.14C24.47,23.2,25.62,24.68,26.69,26.24Z"/><path id="Path_73" data-name="Path 73" class="cls-1" d="M47.68,20.37a31.73,31.73,0,0,0-14.2,2.17q-2-2.89-4.23-5.58A37.6,37.6,0,0,0,37.84,4.47,24.13,24.13,0,0,1,47.68,20.37Z"/><path id="Path_74" data-name="Path 74" class="cls-1" d="M31,1a29.51,29.51,0,0,1-6.83,10.24A60.91,60.91,0,0,0,13.34,2.45,24.66,24.66,0,0,1,26.6.13a17.48,17.48,0,0,1,2.57.44C29.75.69,30.36.85,31,1Z"/><path id="Path_75" data-name="Path 75" class="cls-1" d="M18,16A29.52,29.52,0,0,1,0,20.15a17.79,17.79,0,0,1,.39-1.82,15.07,15.07,0,0,1,.56-2c.07-.23.18-.46.28-.71.18-.51.38-1,.61-1.53a12.67,12.67,0,0,1,.79-1.56A5.36,5.36,0,0,1,2.93,12c.31-.54.64-1,1-1.58s.66-.92,1-1.38c.12-.18.28-.33.4-.51.36-.41.72-.82,1.11-1.2A47.25,47.25,0,0,1,18,16Z"/><path id="Path_76" data-name="Path 76" class="cls-1" d="M36.53,44.57c-.48.3-1,.58-1.45.84s-.82.43-1.23.61a6.11,6.11,0,0,1-1,.43.67.67,0,0,1-.23.1,6.82,6.82,0,0,1-.79.31,12.49,12.49,0,0,1-1.68.51c-.23.08-.46.13-.66.18a19.49,19.49,0,0,1-3,.51c-.3,0-.61.08-.91.1-.57,0-1.12.05-1.69.05s-1,0-1.45-.05l-1-.08a23.88,23.88,0,0,1,9.46-15.4A80.4,80.4,0,0,1,36.53,44.57Z"/><path id="Path_77" data-name="Path 77" class="cls-1" d="M47.62,28v.05c-.13.67-.25,1.33-.41,2a.48.48,0,0,0-.05.17,14.36,14.36,0,0,1-.51,1.61,5.88,5.88,0,0,1-.23.71,16.11,16.11,0,0,1-.79,1.87c-.25.56-.56,1.14-.86,1.68a2.23,2.23,0,0,0-.2.36c-.39.61-.77,1.2-1.18,1.75a6.75,6.75,0,0,1-.76,1,86.85,86.85,0,0,0-5-10A24.19,24.19,0,0,1,47.62,28Z"/></g></g></g></svg>