<svg xmlns="http://www.w3.org/2000/svg" width="600" height="600" viewBox="0 0 600 600">
  <g id="excil" transform="translate(423 -1810)">
    <rect id="Rectangle_1821" data-name="Rectangle 1821" width="600" height="600" transform="translate(-423 1810)" fill="#312078"/>
    <g id="Group_3860" data-name="Group 3860" transform="translate(-278 2037)">
      <path id="Path_2526" data-name="Path 2526" d="M-2646.7,334.92v31.746q-10.91-.669-22.249-.677-11.565,0-22.708.7V334.92Z" transform="translate(2824.339 -220.785)" fill="#f2f2f2"/>
      <path id="Path_2527" data-name="Path 2527" d="M-2646.7,299.852V331.6q-10.91-.669-22.249-.677-11.565,0-22.708.7V299.852Z" transform="translate(2824.339 -299.852)" fill="#f2f2f2"/>
      <path id="Path_2528" data-name="Path 2528" d="M-2425.144,353.363c-20.863-23.482-69.358-39.443-126.574-41.676-8.339-.325-16.736-.352-24.964-.1l-.572.02-.573-.02c-8.231-.264-16.628-.228-24.966.1-57.217,2.233-105.712,18.194-126.575,41.676l-3.052,3.427,4.344-1.484c58.786-20.163,108.052-17.207,122.6,7.359.228.387.459.784.687,1.207a33.58,33.58,0,0,1,3.753,16.156l-.01,1.185,23.189.8v.042l.6-.019.6.019v-.042l23.193-.8-.013-1.185a33.574,33.574,0,0,1,3.751-16.156c.229-.423.46-.82.688-1.207,14.551-24.566,63.817-27.522,122.606-7.359l4.342,1.484Z" transform="translate(2732.42 -273.783)" fill="#f2f2f2"/>
    </g>
    <g id="Group_4041" data-name="Group 4041" transform="translate(-1120 21)">
      <text id="Excil_Marketing" data-name="Excil Marketing" transform="translate(720 1833)" fill="#f9f9f9" font-size="30" font-family="Poppins-Bold, Poppins" font-weight="700" letter-spacing="0.113em"><tspan x="0" y="0">Excil Marketing</tspan></text>
      <text id="Aim:_Our_Progress_Intertwined" data-name="Aim: Our Progress Intertwined" transform="translate(720 1865)" fill="#f9f9f9" font-size="13" font-family="Poppins-Bold, Poppins" font-weight="700" letter-spacing="0.113em"><tspan x="0" y="0">Aim: Our Progress Intertwined</tspan></text>
    </g>
  </g>
</svg>
