<svg xmlns="http://www.w3.org/2000/svg" viewBox="0 0 119.22 234.39"><defs><style>.cls-1{fill:#f8f8f8;}</style></defs><g id="Layer_2" data-name="Layer 2"><g id="Layer_1-2" data-name="Layer 1"><g id="Group_98" data-name="Group 98"><path id="Path_98" data-name="Path 98" class="cls-1" d="M109.13,130.36H74.42A4.42,4.42,0,0,0,70,134.78V230a4.4,4.4,0,0,1-4.41,4.41h-25A4.41,4.41,0,0,1,36.15,230V133.13a4.42,4.42,0,0,1,1.22-3L69.84,96.24V98.3h39.08a4.42,4.42,0,0,1,4.42,4.42V126A4.42,4.42,0,0,1,109.13,130.36Z"/><path id="Path_99" data-name="Path 99" class="cls-1" d="M119.22,28.24a4.41,4.41,0,0,1-4.49,4.34,5.35,5.35,0,0,1-.7-.07,42.25,42.25,0,0,0-7-.59,36.68,36.68,0,0,0-23.39,7.83,23.5,23.5,0,0,0-6.12,7.36,4.05,4.05,0,0,0-.32.62,43.87,43.87,0,0,0-4,9.23A112.6,112.6,0,0,0,70,75.09a4.37,4.37,0,0,1-1,2.83L36.61,128.86a4.41,4.41,0,0,1-3.33,1.47H4.42A4.42,4.42,0,0,1,0,125.92V102.6a4.41,4.41,0,0,1,4.42-4.41H32a4.42,4.42,0,0,0,4.42-4.42V81.57a111.81,111.81,0,0,1,4.84-34.43,72.76,72.76,0,0,1,14.37-26A59.52,59.52,0,0,1,78.43,5,82,82,0,0,1,102.56.19a86.5,86.5,0,0,1,9.11-.12,39.9,39.9,0,0,1,4,.56,4.42,4.42,0,0,1,3.56,4.31Z"/></g></g></g></svg>