<svg xmlns="http://www.w3.org/2000/svg" width="600" height="600" viewBox="0 0 600 600">
  <g id="foss" transform="translate(-120 -2319)">
    <path id="Path_3034" data-name="Path 3034" d="M0,0H600V600H0Z" transform="translate(120 2319)" fill="#fff"/>
    <g id="Group_3950" data-name="Group 3950" transform="translate(192 2547)">
      <g id="Group_3926" data-name="Group 3926">
        <g id="Group_3914" data-name="Group 3914" transform="translate(239.858 22.132)">
          <path id="Path_2806" data-name="Path 2806" d="M445.972,1165.406l90.149,98.405h-6.354l-90.354-98.405Z" transform="translate(-436.856 -1164.282)"/>
          <path id="Path_2807" data-name="Path 2807" d="M540.1,1265.557h-9.4l-.335-.365-92.084-100.286h9.61Zm-8.415-2.248h3.3L446.9,1167.154H443.39Z" transform="translate(-438.276 -1164.906)"/>
        </g>
        <g id="Group_3925" data-name="Group 3925">
          <g id="Group_3915" data-name="Group 3915" transform="translate(0 0.056)">
            <path id="Path_2808" data-name="Path 2808" d="M394.7,1156.383l-.045,11.15-.112.113-51.974,57.011-.2.246-5.17,5.62-4.946-5.62,57.617-63.215Z" transform="translate(-330.742 -1153.468)"/>
            <path id="Path_2809" data-name="Path 2809" d="M338.015,1233.82l-6.436-7.312,65.1-71.422-.061,14.525-.319.328Zm-3.419-7.285,3.455,3.928,4.482-4.9,51.837-56.859.031-7.79Z" transform="translate(-331.579 -1155.086)"/>
          </g>
          <g id="Group_3916" data-name="Group 3916" transform="translate(4.943 69.81)">
            <path id="Path_2810" data-name="Path 2810" d="M391.415,1245.851l-.045,11.465-56.92-64.833,5.17-5.621Z" transform="translate(-332.939 -1185.182)"/>
            <path id="Path_2811" data-name="Path 2811" d="M393.322,1261.219,333.778,1193.4l6.7-7.283,52.9,60.247Zm-56.52-67.784,54.295,61.843.031-8.072-50.688-57.728Z" transform="translate(-333.778 -1186.115)"/>
          </g>
          <g id="Group_3917" data-name="Group 3917" transform="translate(10.996 11.333)">
            <path id="Path_2812" data-name="Path 2812" d="M388.927,1161.343v.315l-52.087,56.808,51.975-57.01Z" transform="translate(-336.009 -1158.554)"/>
            <path id="Path_2813" data-name="Path 2813" d="M338.13,1220.773l-1.66-1.517L390.4,1160.1l.112,3.541Z" transform="translate(-336.47 -1160.102)" fill="#fff"/>
          </g>
          <g id="Group_3918" data-name="Group 3918" transform="translate(10.996 12.527)">
            <path id="Path_2814" data-name="Path 2814" d="M388.949,1161.55l-.023.045L336.84,1218.4l51.975-57.01.112.135Z" transform="translate(-336.009 -1159.686)"/>
            <path id="Path_2815" data-name="Path 2815" d="M338.13,1220.109l-1.66-1.517,52.842-57.959,1.428,1.56-.524,1.109Z" transform="translate(-336.47 -1160.633)" fill="#fff"/>
          </g>
          <g id="Group_3919" data-name="Group 3919" transform="translate(10.152 11.53)">
            <path id="Path_2816" data-name="Path 2816" d="M388.994,1169.665l-43.7,47.973,43.3,49.321-.045,10.565-51.794-58.988.2-.247,52.087-56.808Z" transform="translate(-335.278 -1158.576)"/>
            <path id="Path_2817" data-name="Path 2817" d="M390.473,1282.108,336.1,1220.179l.8-.985,54.1-59-.063,11.526-.29.321-43.025,47.227,42.915,48.888Zm-51.408-61.954,49.187,56.014.029-7.173L344.6,1219.24l44.088-48.4.027-4.838Z" transform="translate(-336.095 -1160.19)"/>
          </g>
          <g id="Group_3920" data-name="Group 3920" transform="translate(391.8 66.126)">
            <path id="Path_2818" data-name="Path 2818" d="M568.82,1190.843,511.2,1254.057l-4.833,5.306.045-11.151.112-.112,51.975-57.011.2-.246,5.17-5.62Z" transform="translate(-505.235 -1183.544)"/>
            <path id="Path_2819" data-name="Path 2819" d="M505.865,1263.211l.059-14.534.328-.328,58.271-63.874,6.436,7.313Zm2.3-13.619-.031,7.787,59.807-65.618-3.455-3.927-4.487,4.9Z" transform="translate(-505.865 -1184.476)"/>
          </g>
          <g id="Group_3921" data-name="Group 3921" transform="translate(392.349)">
            <path id="Path_2820" data-name="Path 2820" d="M563.575,1221.216l-5.171,5.62-51.794-58.988.045-11.465Z" transform="translate(-505.484 -1153.412)"/>
            <path id="Path_2821" data-name="Path 2821" d="M559.01,1230.168l-52.9-60.25.058-14.857,59.546,67.823Zm-50.648-61.093L559.05,1226.8l3.639-3.956L508.393,1161Z" transform="translate(-506.109 -1155.061)"/>
          </g>
          <g id="Group_3922" data-name="Group 3922" transform="translate(391.857 72.912)">
            <path id="Path_2822" data-name="Path 2822" d="M558.477,1187.833,506.5,1244.842l-.112.113v-.314Z" transform="translate(-505.266 -1187.073)"/>
            <path id="Path_2823" data-name="Path 2823" d="M506,1248.167l-.112-3.543,52.382-57.13,1.66,1.517Z" transform="translate(-505.89 -1187.495)" fill="#fff"/>
          </g>
          <g id="Group_3923" data-name="Group 3923" transform="translate(391.623 72.912)">
            <path id="Path_2824" data-name="Path 2824" d="M558.489,1187.833l-51.974,57.009-.113-.135-.022-.023.022-.044Z" transform="translate(-505.045 -1187.073)"/>
            <path id="Path_2825" data-name="Path 2825" d="M507.212,1246.982l-1.426-1.576.529-1.1,52.087-56.807,1.66,1.517Z" transform="translate(-505.786 -1187.495)" fill="#fff"/>
          </g>
          <g id="Group_3924" data-name="Group 3924" transform="translate(391.841 11.467)">
            <path id="Path_2826" data-name="Path 2826" d="M558.679,1220.471l-.2.247-52.087,56.807.045-8.182,43.7-47.974-43.3-49.321.045-10.565Z" transform="translate(-505.25 -1158.513)"/>
            <path id="Path_2827" data-name="Path 2827" d="M505.883,1282.079l.063-11.526.292-.319,43.023-47.229-42.915-48.888.061-13.955,54.38,61.933-.809.984Zm2.307-10.651-.027,4.838,49.65-54.148L508.628,1166.1l-.029,7.174,43.679,49.755Z" transform="translate(-505.883 -1160.162)"/>
          </g>
        </g>
      </g>
      <g id="Group_3927" data-name="Group 3927" transform="translate(72.582 3.588)">
        <path id="Subtraction_2" data-name="Subtraction 2" d="M-2477.669-5576.314l0,0c-2.517-1.242-3.694-3.164-3.5-5.711.113-1.5.053-2.684-1.79-3.19a5.632,5.632,0,0,1-1.971-1.243l-.011-.009-.022-.019c-.152-.128-.342-.288-.519-.425a5.12,5.12,0,0,1-1.881-3.456,4.147,4.147,0,0,1,1.075-3.2,4.054,4.054,0,0,0,.317-.452l0-.006.006-.007.055-.086.01-.017.042-.065h-.031a1.762,1.762,0,0,0-.81.239l-.006,0-.009,0c-.077.039-.16.079-.244.113a3.737,3.737,0,0,1-1.51.361,2.748,2.748,0,0,1-.363-.023,1.708,1.708,0,0,1-1.221-.575,1.623,1.623,0,0,1-.2-1.276,15.036,15.036,0,0,0,.155-3.463h-.1a.1.1,0,0,0-.067.016,8.8,8.8,0,0,1-3.635,2.9c-1.2.53-1.649,1.522-1.4,3.124.04.254.094.518.141.751l.009.046,0,.009a8.619,8.619,0,0,1,.237,1.764l-.116-.073-.019-.012-.166-.1a10.044,10.044,0,0,1-2.191-1.663,2.045,2.045,0,0,1-.305-2.9,6.681,6.681,0,0,0,1.124-3.484,4.154,4.154,0,0,0-.982-2.406c-1.3-1.766-2.647-2.561-4.365-2.58a5.791,5.791,0,0,1-2.876-1,2.66,2.66,0,0,1-1.335-1.817,2.777,2.777,0,0,1,.716-2.2l.208-.244a2.921,2.921,0,0,0,.8-1.365,2.008,2.008,0,0,0-.257-1.58,1.883,1.883,0,0,0-1.345-.686c-.219-.021-.451-.033-.621-.041h-.006l-.052,0c-.188-.011-.4-.022-.6-.043-.9-.086-1.22-.434-1.187-1.285a3.023,3.023,0,0,0-.74-2.013,1.928,1.928,0,0,0-1.629-.859h-.218c-1.5,0-1.976-.491-2.021-2.1-.019-.56-.015-1.128-.011-1.679v-.175c0-.414,0-.757,0-1.083a1.835,1.835,0,0,0-1.374-2.061c-.887-.242-.962-1.1-1.022-1.783a4.242,4.242,0,0,1,.087-.993,9.936,9.936,0,0,0-.261-4.515,13.673,13.673,0,0,1-.282-5.193.586.586,0,0,1,.283-.458,27.018,27.018,0,0,0,7.545-8.753l.01.03c.939,2.728,1.826,5.3,3.755,7.307a.733.733,0,0,1,.326.272h0a.036.036,0,0,1,.022.011l-.022-.042a.46.46,0,0,1-.122-.3v-.01a.763.763,0,0,0-.029-.13c-.181-.4-.379-.8-.566-1.176l-.016-.033a18.128,18.128,0,0,1-1.311-3.167,18.328,18.328,0,0,1-.064-7.872l.024-.133,0-.023a35.132,35.132,0,0,0,.744-6.721,6.929,6.929,0,0,0-.2-1.494c-.081.441-.159.893-.232,1.316l0,.03v.007l-.012.071c-.161.935-.328,1.9-.544,2.833a30.05,30.05,0,0,1-5.467,11.748,28.311,28.311,0,0,1-10.186,8.012,27.087,27.087,0,0,1-6.554,1.926,8.4,8.4,0,0,0-4.811,2.459,7.441,7.441,0,0,1-1.245,1l-.005,0-.01.006-.082.056a2.114,2.114,0,0,1-1.222.43,1.926,1.926,0,0,1-.856-.211,1.9,1.9,0,0,0-.85-.189,4.923,4.923,0,0,0-1.3.242l-.077.021a13.291,13.291,0,0,0-2.948,1.387l-.124.071a3.518,3.518,0,0,1,1.177-3.232c.2-.171.4-.35.595-.523l.083-.075a8.63,8.63,0,0,1,2.38-1.7,1.629,1.629,0,0,0,.882-1.249l.057-.252.052-.222.006-.028c.179-.772.382-1.647.592-2.482a5.174,5.174,0,0,1,1.764-2.94,3.146,3.146,0,0,0,1.078-2.264.682.682,0,0,0,.013-.219,17.762,17.762,0,0,1,.945-7.227c.338-1.077.727-2.155,1.1-3.2l.012-.033.014-.04.158-.438.074-.209a67.178,67.178,0,0,1,3.81-8.434,21.436,21.436,0,0,1,9.156-9.255l.445-.242.083-.045.009,0a19.314,19.314,0,0,1,4.938-2.1l.062-.013h.006a3.668,3.668,0,0,1,.791-.117h.056c.141,0,.253.007.364.007a20.124,20.124,0,0,0,5.836-1.157l.021-.007.111-.033c.567-.171,1.153-.348,1.736-.506a16.346,16.346,0,0,1,4.3-.606,14.042,14.042,0,0,1,3.369.407,7.193,7.193,0,0,0,1.761.216,9.763,9.763,0,0,0,4.475-1.2,13.6,13.6,0,0,1,5.466-1.712h.015l.118,0c.283,0,.428.064.486.427.414,2.977,2.289,4.862,5.9,5.934l.335.1.071.021.139.041.009,0a15.263,15.263,0,0,1,2.734,1.01,3.758,3.758,0,0,1,.991.7,1.354,1.354,0,0,1,.417,1.22,1.3,1.3,0,0,1-.842.917,6.277,6.277,0,0,1-.947.271l-.008,0c-.156.035-.341.078-.535.13a2.377,2.377,0,0,0,1.666.825,5.137,5.137,0,0,0,.684.046,3.2,3.2,0,0,0,2.353-.853,2.929,2.929,0,0,0,.76-2.2,1.485,1.485,0,0,0-.728-1.372,7.815,7.815,0,0,1-1-.7,1.7,1.7,0,0,1-.73-1.166,1.638,1.638,0,0,1,.578-1.2,16.885,16.885,0,0,1,1.62-1.411c.626-.49,1.211-1.041,1.777-1.574l.021-.019c.155-.146.321-.3.488-.458a4.842,4.842,0,0,0,.208-6.879,18.942,18.942,0,0,0-8.719-5.77,2.634,2.634,0,0,0-.382-.129c-.317-.1-.556-.167-.751-.218a.214.214,0,0,1-.052-.054l-.007-.009-.029-.034c.632-.569,1.133-.988,1.623-1.361,2.793-2.192,5.268-3.183,8.024-3.213h.278a17.582,17.582,0,0,1,13.48,5.814,108.755,108.755,0,0,1,7.808,9.816l0,0,.016.022q.4.551.807,1.1a39.264,39.264,0,0,0,6.761,7.347,6.374,6.374,0,0,0,4.068,1.526,6.7,6.7,0,0,0,5.433-2.941,15.858,15.858,0,0,0,2.81-8.707,23.867,23.867,0,0,0-2.644-12.856,19.589,19.589,0,0,0-13.566-10.051,12.367,12.367,0,0,0-2.608-.261,28.811,28.811,0,0,0-5.34.652,34.257,34.257,0,0,1-6.483.683,23.372,23.372,0,0,1-2.759-.158,5.176,5.176,0,0,1-4.147-2.594c-.011-.019-.026-.039-.04-.059a.348.348,0,0,1-.072-.374,3.126,3.126,0,0,0,1.108.2,5.91,5.91,0,0,0,2.495-.734,34.28,34.28,0,0,0,4.292-2.559,19.375,19.375,0,0,1,10.014-3.406c.806-.036,1.606-.054,2.377-.054a33.913,33.913,0,0,1,13.649,2.546,19.726,19.726,0,0,1,5.125,3.2,39.841,39.841,0,0,1,8.407,9.568,27.269,27.269,0,0,1,3.765,11.8,53.658,53.658,0,0,1-.3,13.052,18.333,18.333,0,0,1-1.58,5.325c-1.73,3.669-4.229,8.357-8.229,12.063a18.737,18.737,0,0,1-10.744,4.864,1.4,1.4,0,0,1-.214.017.772.772,0,0,1-.724-.515c-.129-.232-.25-.477-.37-.75a16.186,16.186,0,0,1-.924-3.792l-.035-.22c-.028-.173-.056-.346-.085-.519a3.172,3.172,0,0,1-.034-1.122l.469.721.011.017.177.271.063.1.035.054c.571.878,1.11,1.707,1.7,2.616v-4.637l.553.742.039.051c.608.815,1.209,1.621,1.878,2.506.311-1.276.627-2.582,1.088-4.508.441.78.863,1.534,1.411,2.521l.054.1q.219.4.445.8l.1.185c.092-.454.186-.92.268-1.332l.021-.1.115-.578.069-.338.076-.379c.141-.707.3-1.507.465-2.308l.553.479.4.345.166.145.311.271.108.094c.42.366.9.78,1.372,1.189-.213-.987-.412-1.888-.65-2.964l0-.013-.1-.466-.114-.514-.044-.2.2.02c.934.105,2.191.249,3.644.424-.4-.679-.785-1.313-1.111-1.854l-.047-.079-.189-.312-.12-.2-.25-.416h3.483c-.128-.242-.283-.54-.473-.911l-.052-.1-.044-.084c-.391-.758-.76-1.472-1.175-2.181-.152-.268-.2-.436-.141-.546.064-.125.247-.17.543-.205.535-.068,1.048-.159,1.662-.27l.043-.007c.228-.042.46-.083.7-.125-.324-.466-.634-.911-.869-1.246l-.107-.156c-.5-.717-1.007-1.443-1.481-2.126.654-.218,1.277-.422,1.906-.626l.066-.021c.7-.228,1.285-.42,1.84-.605-.367-.375-.727-.749-1.1-1.144l-.03-.03c-.48-.5-1.025-1.074-1.59-1.633-.185-.181-.307-.333-.3-.485.006-.129.1-.262.311-.429.614-.49,1.191-1.014,1.75-1.52l.046-.042.019-.017.06-.054c.242-.218.516-.466.79-.708l-.334-.286-.275-.236-.017-.015c-.467-.4-.908-.781-1.376-1.152-.33-.258-.434-.451-.132-.848.314-.413.61-.848.872-1.231l.032-.048.016-.023c.234-.344.5-.733.769-1.092a.585.585,0,0,0-.023-.862c-.279-.329-.562-.692-.79-.985l-.062-.079-.006-.007c-.279-.362-.577-.746-.883-1.105a1.121,1.121,0,0,1-.272-1.1c.119-.471.224-.943.326-1.4l.016-.074.006-.027.038-.17c.093-.412.2-.879.31-1.322.08-.35.068-.606-.238-.805a4.615,4.615,0,0,1-2.068-4.326,2.663,2.663,0,0,0-1.983-2.925,1.711,1.711,0,0,1-.991-.96c-.149-.3-.325-.609-.482-.877l0-.006,0,0a11.055,11.055,0,0,1-.622-1.188,1.569,1.569,0,0,0-1.612-1.079,3.281,3.281,0,0,1-.533-.059l-.025,0a3.388,3.388,0,0,0-.562-.064c-.045,0-.094,0-.152.007-.081.007-.16.008-.219.008a1.9,1.9,0,0,1-1.83-1.391c-.044-.1-.088-.2-.132-.31l-.007-.016a3.585,3.585,0,0,0-1.014-1.6,1.378,1.378,0,0,0-.787-.2,5.954,5.954,0,0,0-1.167.167l-.062.013-.074.015-.131.026a3.259,3.259,0,0,1-.642.066,4.062,4.062,0,0,1-2.448-.989,3.947,3.947,0,0,0-2.407-.934,3.61,3.61,0,0,0-1.534.367,3.178,3.178,0,0,1-1.355.3,5.145,5.145,0,0,1-2.075-.518,6.253,6.253,0,0,0-2.542-.574,5.637,5.637,0,0,0-1.987.369,13.731,13.731,0,0,1-2.985.6l-.127.016-.028,0c-.333.042-.71.09-1.071.15a2.056,2.056,0,0,0-1.134.545c-.737.656-1.494,1.314-2.226,1.951l-.005,0-.1.088q-.345.3-.692.6a.305.305,0,0,0,.179.057.612.612,0,0,0,.25-.072l.027-.011.016-.007.029-.012.337-.128c1.662-.625,2.954-1.114,4.256-1.623a1.221,1.221,0,0,1,.437-.092,1.079,1.079,0,0,1,.555.169c.327.181.686.363.949.5l.052.025.071.036.033.017c.3.156.619.317.921.489a.863.863,0,0,0,.436.139.766.766,0,0,0,.466-.181c.37-.269.771-.53,1.094-.74l.1-.068c.163-.106.348-.227.523-.345a.55.55,0,0,1,.311-.139.363.363,0,0,1,.245.116,5.426,5.426,0,0,0,3.956,1.362c.552,0,1.112-.039,1.652-.076l.058,0,.265-.019c.117-.008.227-.012.345-.012a1.5,1.5,0,0,1,1.569.892,2.85,2.85,0,0,0,2.878,1.726c.146,0,.3-.006.466-.017.379-.024.632-.035.845-.035,1.106,0,1.253.318,1.766,1.82a3.1,3.1,0,0,0,2.46,2.4c1.534.275,2.161,1.068,1.972,2.494a3.62,3.62,0,0,0,2.035,3.8,1.055,1.055,0,0,1,.488,1.491.721.721,0,0,0-.032.161l0,.016a.757.757,0,0,1-.04.174,4.4,4.4,0,0,0,.675,4.766,2.477,2.477,0,0,1,.109,3.428,2.712,2.712,0,0,0,.043,3.474c.451.7.629,1.037.566,1.328-.068.313-.443.563-1.1.98a1.558,1.558,0,0,0-.814,1.8c.1.64.167,1.32.222,1.92v.014l0,.031c.044.477.089.966.154,1.443.056.438-.049.589-.468.675-.472.1-.948.235-1.409.367l-.014,0-.035.01-.04.012-.058.017c-.177.051-.383.11-.579.164a.591.591,0,0,0-.522.555c-.057.41-.142.831-.218,1.2l-.012.058c-.094.457-.2.974-.261,1.489-.047.4-.189.553-.5.553a1.525,1.525,0,0,1-.237-.02c-.381-.057-.772-.1-1.108-.144l-.027,0c-.349-.042-.71-.085-1.074-.138a1.044,1.044,0,0,0-.177-.015.791.791,0,0,0-.671.364c-.259.348-.559.713-.757.956l-.01.012-.031.039c-.2.249-.444.543-.671.843-.127.157-.219.224-.307.224s-.177-.063-.282-.2a12.325,12.325,0,0,0-5.324-3.912,12.461,12.461,0,0,1-3.952-3.1l-.062-.064a85.932,85.932,0,0,1-7.326-9.019l0-.005-.485-.655a25.85,25.85,0,0,0-11.138-8.566,11.25,11.25,0,0,0-4.229-.863,10.725,10.725,0,0,0-4.186.876c-.379.158-.755.306-1.107.443l-.11.044-.049.019q-.367.144-.75.3a6.71,6.71,0,0,0,1.374.967l.006,0,.007,0,.159.093a20.3,20.3,0,0,1,4.388,3.638,5.787,5.787,0,0,1,1.534,5.333,3.694,3.694,0,0,1-.89,1.766c-.182.211-.372.417-.6.666l-.031.033-.107.117-.047.051-.029.031-.253.276h.028c.3,0,.569.008.893.01h.1c.975.01,1.9.02,2.824.11l.112.012c1.313.13,1.338.133,1.665,1.448.154.631.266,1.3.364,1.89l0,.011.016.1.021.125.031.185c0,.029.008.056.013.084l0,.015v.007l.005.032,0,.032.007.045a3.935,3.935,0,0,0,1.46,2.615c.271.208.54.442.77.644l.057.051a5.431,5.431,0,0,1,2,3.963c.014.272.016.555.017.8v.039c0,.383.005.729.034,1.083a4.139,4.139,0,0,1-1.22,2.907l0,.008c-.112.143-.222.287-.328.429a.345.345,0,0,1-.3.138c-.034,0-.068,0-.1,0h-.023l-.027,0a11.824,11.824,0,0,0-1.249-.069,11.791,11.791,0,0,0-5.317,1.3,4.925,4.925,0,0,1,.044-2.35.623.623,0,0,1,.293-.469c.91-.366,1.085-1.189,1.254-1.985l.022-.1a.781.781,0,0,1,.717-.71,5.908,5.908,0,0,1,1.1-.118,3.106,3.106,0,0,1,2.215.848c-.591-1.416-1.743-1.535-2.872-1.535-.145,0-.306,0-.492.007-.149,0-.27,0-.38,0a3.921,3.921,0,0,1,1.5-2.34c.737-.542.99-1.087.774-1.666a1.641,1.641,0,0,0-1.577-.984,2.089,2.089,0,0,0-.244.016,3.678,3.678,0,0,0-2.872,1.883,10.416,10.416,0,0,0-1.382,4.835,18.165,18.165,0,0,0,.522,5.671,4.026,4.026,0,0,0,.685,1.46l.075.1q.412.554.825,1.105l0,.005a76.549,76.549,0,0,1,6.217,9.225c.534.986,1.009,2.045,1.428,2.979l.013.028c.219.489.435.968.66,1.445a11.177,11.177,0,0,0,1.894,2.808,13.943,13.943,0,0,0,1.273,1.3,4.391,4.391,0,0,0,3.049,1.256,5.884,5.884,0,0,0,2.178-.46,3.214,3.214,0,0,1,1.179-.231,2.854,2.854,0,0,1,2.76,2.222,12.9,12.9,0,0,1,.087,6.226,5.261,5.261,0,0,1-1.328,2.33,22.474,22.474,0,0,1-9.786,6.454c-.494.18-.982.347-1.48.518l-.238.083c-.13.044-.284.1-.437.152.008.027-.027.052-.059.075l-.009.007c-.023.017-.043.031-.04.046s.02.019.053.026a4.6,4.6,0,0,0,.606.046,2.644,2.644,0,0,0,.622-.069,23.07,23.07,0,0,0,4.171-.523,1.291,1.291,0,0,1,.229-.023.61.61,0,0,1,.576.383,6.509,6.509,0,0,0,2.591,2.482,2.067,2.067,0,0,1,1.183,1.8,2.152,2.152,0,0,1-1.26,1.816,6.812,6.812,0,0,1-3.21.871,5.994,5.994,0,0,1-.709-.043,25.877,25.877,0,0,0-3.189-.2,33.66,33.66,0,0,0-9.448,1.479,19.074,19.074,0,0,1-5.317.753h-.009a21.639,21.639,0,0,1-5.137-.644,7.819,7.819,0,0,1-3.909-2.349,31.25,31.25,0,0,1-3.929-5.576l-.094-.154q-.19-.317-.381-.634l-.021-.035-.069-.114a.755.755,0,0,1-.061-.575l.007-.044v-.007a11.939,11.939,0,0,1,1.989-5.794c.008-.015,0-.052-.021-.1l-.01-.031c-.007-.02-.014-.042-.021-.068-1.468.941-1.843,2.383-2.24,3.909l-.007.026c-.122.468-.249.951-.412,1.422-.519-.917-.955-1.686-1.4-2.46a13.3,13.3,0,0,0-1.57-2.286,2.439,2.439,0,0,0-1.425-.9,4.569,4.569,0,0,0-.853-.076,7.212,7.212,0,0,0-.912.064l-.029,0s0,0,.006,0,.024.006.025.012-.007.015-.023.023a.011.011,0,0,0-.006.01.176.176,0,0,0,.082.1,4.3,4.3,0,0,1,3.167,2.419c.753,1.358,1.434,2.761,2.092,4.117l.026.05.007.015c.227.468.461.95.7,1.423a36.381,36.381,0,0,0,3.438,5.42c1.89,2.562,4.5,3.99,8.209,4.5a16.433,16.433,0,0,0,2.207.147,22.611,22.611,0,0,0,6.121-.932,20.535,20.535,0,0,1,5.5-.694,32.482,32.482,0,0,1,3.514.205c.237.026.473.053.708.081l.139.016c.5.06,1.034.121,1.57.167a.7.7,0,0,1,.75.641,9.729,9.729,0,0,1-.335,6.1,1.16,1.16,0,0,1-1.07.8c-.255.024-.5.037-.718.037a5.419,5.419,0,0,1-.641-.037,26.054,26.054,0,0,0-3.172-.185,60.609,60.609,0,0,0-8.71.846c-.207.031-.41.062-.614.09l-.281.042-.014,0a53.527,53.527,0,0,0-6.543,1.239l-.009,0a4.972,4.972,0,0,0-2.069.942,4.163,4.163,0,0,0,1.268.215h.015c.194.012.434.026.662.062a4,4,0,0,1,2.2.912,2.786,2.786,0,0,0,1.823.754,3.124,3.124,0,0,0,1.6-.5c.134-.083.271-.154.361-.2a4.277,4.277,0,0,0,.444-.258,3.3,3.3,0,0,1,1.916-.591,8.459,8.459,0,0,1,2.386.478l.163.048a.292.292,0,0,1,.194.138.518.518,0,0,1-.033.393,4.019,4.019,0,0,0,1.047,4.194,4.245,4.245,0,0,1,.86,2.241,2.746,2.746,0,0,1-.826,2.483c-.611.569-1.251,1.127-1.815,1.619l-.044.039-.11.1-.635.553a2.029,2.029,0,0,1-.126-.811,1.816,1.816,0,0,0-.209-1,6.158,6.158,0,0,1-3.08,3.073,8.313,8.313,0,0,0,.555-6.708.359.359,0,0,0-.1-.02.093.093,0,0,0-.066.023.226.226,0,0,0-.029.155.609.609,0,0,1,0,.073,3.116,3.116,0,0,0-.006.414v.016a2.233,2.233,0,0,1-.049.636c.009,2.122-1.047,3.754-3.322,5.137-.628.383-1.289.726-1.929,1.059l-.033.017-.029.016-.009,0c-.586.3-1.249.648-1.875,1.026a4.3,4.3,0,0,0-2.2,3.027,3.434,3.434,0,0,0,.413,2.2c.275.521.572,1.042.886,1.594l.039.068.088.152Zm4.59-54.991a2.421,2.421,0,0,1,1.008.272,7.7,7.7,0,0,1,2.432,1.838,11.118,11.118,0,0,1,2.511,4.9c.282-.129.233-.33.186-.523a.977.977,0,0,1-.037-.222,9.427,9.427,0,0,0-2.823-6.66,6.143,6.143,0,0,0-4.531-1.937,8.318,8.318,0,0,0-1.772.2,1.708,1.708,0,0,0-1.389,1.362,2.576,2.576,0,0,0,.52,2.2,2.723,2.723,0,0,0,2.1,1.06,2.42,2.42,0,0,0,.646-.088,1.393,1.393,0,0,0,1.058-1.626,2.082,2.082,0,0,0-.184-.481c-.038-.08-.076-.159-.11-.24A1.494,1.494,0,0,1-2473.08-5631.306Zm-2.645-10.276a12.437,12.437,0,0,0-5.042,1.149,5.284,5.284,0,0,0-3.226,4.389,6.717,6.717,0,0,0,2.674,6.154c-.047-.194-.1-.386-.154-.573a4.024,4.024,0,0,1-.214-2.082,2.742,2.742,0,0,0,.937.409c.261,0,.327-.307.487-1.047a4.16,4.16,0,0,0,.085-.639,2.32,2.32,0,0,1,2.5-2.417c.082,0,.169,0,.259.008a4.023,4.023,0,0,1,2.139.981,2.9,2.9,0,0,0-2.228-2.126,5.717,5.717,0,0,0-1.1-.115,3.722,3.722,0,0,0-3.512,2.442,3.14,3.14,0,0,1,.674-2.9,5.9,5.9,0,0,1,4.276-2,15.107,15.107,0,0,1,1.7-.1,8.533,8.533,0,0,1,5.354,1.686,40.115,40.115,0,0,0,3.957,2.533l.014.008a31.152,31.152,0,0,1,5.063,3.433.808.808,0,0,0,.185.116l.007,0c.038.02.077.04.114.063a3.387,3.387,0,0,0,1.806.594,2.832,2.832,0,0,0,1.231-.292c-1.756,0-2.856-1.08-3.92-2.12l0,0c-.315-.309-.642-.627-.979-.913a25.484,25.484,0,0,0-3.572-2.489c-1.082-.629-2.112-1.34-3.108-2.027A11.161,11.161,0,0,0-2475.725-5641.582Zm-14-18.54a10.743,10.743,0,0,0-3.321.5,2.748,2.748,0,0,1-.556.1l-.03,0c-.072,0-.141.014-.187.02l-.115.013-.129.016h-.01a6.143,6.143,0,0,0-2.876.831.824.824,0,0,1-.11.063l-.026.013c-.129.064-.263.131-.275.29s-.023.3-.036.446c-.1,1.219-.213,2.479.82,3.523a10.939,10.939,0,0,0,8.179,3.271,16.877,16.877,0,0,0,1.853-.1,3.289,3.289,0,0,0,2.955-2.62l.013-.036c.029-.086.055-.167.017-.218s-.082-.054-.168-.054a3.718,3.718,0,0,1-2.885,2.2,7.927,7.927,0,0,1-1.4.119,12.074,12.074,0,0,1-2.083-.2,7.88,7.88,0,0,1-5.565-3.381c-.2-.3-.179-.431.095-.677a4.2,4.2,0,0,1,2.584-1.058c.109-.009.179-.013.234-.013a.531.531,0,0,1,.429.132c.1.105.121.294.082.612a2.837,2.837,0,0,0,1.63,2.965,3.629,3.629,0,0,0,1.318.241,3.279,3.279,0,0,0,2.561-1.091,2.5,2.5,0,0,0,.539-1.588,2.885,2.885,0,0,0-1.191-2.369l.238-.036a12.8,12.8,0,0,1,1.908-.2c.129,0,.272.005.438.017a1.3,1.3,0,0,1,1.223.714.355.355,0,0,0,.079.012.073.073,0,0,0,.066-.026c.017-.025.014-.065-.01-.125a3.034,3.034,0,0,0-.7-1.612,2.332,2.332,0,0,1-.51-1.22,10.1,10.1,0,0,0-1.074-3.811,2.41,2.41,0,0,0-2.3-1.348l-.145,0a13.122,13.122,0,0,0-7.886,2.717.194.194,0,0,0,.013.149.076.076,0,0,0,.062.024.3.3,0,0,0,.087-.019c.119-.05.242-.1.358-.142l.026-.01.051-.02.011,0c.2-.078.409-.159.606-.251a14.6,14.6,0,0,1,6.113-1.448c.143,0,.293,0,.444.009a1.663,1.663,0,0,1,1.831,1.36,7.352,7.352,0,0,1,.286,1.829v.031c.022.319.042.606.08.895.034.257-.123.3-.3.34l-.037.007-.139.035-.01,0a6.32,6.32,0,0,1-1.527.254c-.088,0-.18,0-.291-.014A13.236,13.236,0,0,0-2489.727-5660.122Z" transform="translate(2560.256 5714.053)" stroke="rgba(0,0,0,0)" stroke-miterlimit="10" stroke-width="1"/>
        <path id="Path_2832" data-name="Path 2832" d="M453.963,1193.439a22.575,22.575,0,0,1-2.221,1.666,2.443,2.443,0,0,0,.306,4.267,1.464,1.464,0,0,1,1.034,1.612,1.833,1.833,0,0,1-1.371,1.643c-.164.054-.337.12-.328-.175a1.954,1.954,0,0,0-.249-3.015,8,8,0,0,0-3.581-1.969,12.68,12.68,0,0,1-3.777-1.645,5.145,5.145,0,0,1-2.255-3.582,14.546,14.546,0,0,1-.023-7.142,1.264,1.264,0,0,0,0-.358c-.346,0-.468.272-.564.49-.263.6-.524.446-.884.085-1.088-1.065-2.21-2.111-3.309-3.167a12.568,12.568,0,0,0-7.641-3.32c-5.411-.587-9.995,1.416-14.282,4.376-3.147,2.168-5.553,5.074-7.969,7.97-1.731,2.068-3.5,4.092-5.422,6a26.408,26.408,0,0,1-7.009,5.127,15.628,15.628,0,0,0-5.051,3.754c-.425.49-.686.48-1.068-.032-.425-.577-.969-1.057-1.394-1.634a1.146,1.146,0,0,0-1.23-.456c-.85.119-1.709.164-2.558.283-.445.077-.555-.077-.62-.49-.142-.926-.38-1.818-.533-2.731-.077-.481-.241-.753-.774-.838-.793-.131-1.567-.393-2.351-.567-.38-.087-.544-.218-.49-.674.184-1.416.306-2.841.467-4.258a.734.734,0,0,0-.422-.859c-.535-.306-1.014-.708-1.558-1-.456-.25-.49-.5-.184-.87a1.669,1.669,0,0,0,.173-.305c.468-.828,1.286-1.655,1.286-2.494a5.467,5.467,0,0,0-1.241-2.512,1.632,1.632,0,0,1,.031-2.1,8.017,8.017,0,0,0,1.8-3.113c.184-1.089-.436-2.309-.728-3.451a.745.745,0,0,1,.337-.9c.7-.5,1.349-1.058,2.035-1.567a1.05,1.05,0,0,0,.49-.881c.065-1.09.207-2.178.272-3.278a.583.583,0,0,1,.49-.589c1.034-.349,2.057-.717,3.1-1.066a1.1,1.1,0,0,0,.742-.675c.38-.927.827-1.819,1.2-2.745a.633.633,0,0,1,.686-.456c1.167,0,2.34-.042,3.507-.042a.95.95,0,0,0,.958-.459,6.713,6.713,0,0,0,.445-.555,3.076,3.076,0,0,1,3.723-1.609,13.63,13.63,0,0,0,3.975-.263c.708-.076,1.187-.675,1.753-1.054.292-.187.533-.284.816-.011.031.02.088.042.119.065.785.457,1.547,1.252,2.34,1.284s1.643-.643,2.439-1.077a1.964,1.964,0,0,1,1.872-.12c1.459.565,2.949,1.055,4.431,1.556.227.088.467.294.782.108-.292-.434-.762-.641-1.111-.989a8.252,8.252,0,0,0-5.791-2.635,20.868,20.868,0,0,1-4.267-.861,2.224,2.224,0,0,0-1.383.045c-.643.238-1.34.348-1.971.62a5.576,5.576,0,0,1-4.287.1,3.5,3.5,0,0,0-3.66.47,6.305,6.305,0,0,1-5.256,1.1c-.96-.176-1.6.031-1.938.978a3.233,3.233,0,0,1-.294.49c-1.2,1.972-1.187,2.059-3.516,2.133a2.668,2.668,0,0,0-2.819,1.819c-.022.046-.056.076-.077.12a5.5,5.5,0,0,1-3.408,3.19.875.875,0,0,0-.62.85c-.153,1.295-.371,2.592-.544,3.887a.924.924,0,0,1-.393.717,6.094,6.094,0,0,1-.652.556,2.137,2.137,0,0,0-.98,3.016,4.109,4.109,0,0,1,.513,2.47c-.218.751-1.025,1.329-1.569,1.993-.348.425-.969.827-.978,1.264s.553.881.881,1.328c.425.564.827,1.164,1.295,1.7.315.37.241.567-.13.828-.621.436-1.2.946-1.819,1.383-.414.294-.544.467-.032.838,1.045.784,2.034,1.644,2.907,2.363-1.079,1.242-2.145,2.459-3.2,3.668,1.1.326,2.329.718,3.581,1.054.468.133.513.264.207.643-.827,1.035-1.621,2.1-2.493,3.245,1.014.163,1.927.37,2.864.459.717.054.62.292.337.762-.665,1.1-1.286,2.219-1.96,3.406H375.9c-.686,1.045-1.308,1.982-2,3.048,1.306-.152,2.5-.26,3.689-.424.555-.077.751-.031.566.62-.337,1.134-.566,2.3-.892,3.68,1.164-.926,2.21-1.742,3.32-2.634.38,1.765.751,3.451,1.153,5.292.8-1.306,1.513-2.493,2.3-3.79.436,1.646.827,3.148,1.252,4.748.947-1.165,1.839-2.255,2.808-3.462v4.887c1.045-1.49,1.992-2.841,2.95-4.2a.246.246,0,0,0,.076.042c-.445,1.994-.892,4-1.337,5.989l-.261,1.176c-.076.326-.263.292-.535.261a23.967,23.967,0,0,1-16.143-8.219c-3.745-4.365-6.674-9.177-7.827-14.871-1.263-6.238-1.774-12.562,0-18.766a30.836,30.836,0,0,1,14.414-18.616,32.889,32.889,0,0,1,16.993-4.7,51.421,51.421,0,0,1,10.755.709,17.315,17.315,0,0,1,5.335,2.133c1.5.881,2.983,1.8,4.507,2.624a6.728,6.728,0,0,0,6.236.436,4.947,4.947,0,0,1-2.5,2.655,13.226,13.226,0,0,1-5.258,1.175c-2.734.2-5.346-.51-8-.915-7.967-1.218-15.206.524-21.042,6.207a22.407,22.407,0,0,0-6.652,13.389,18.352,18.352,0,0,0,.719,9.318,12.266,12.266,0,0,0,4.876,5.921,7.214,7.214,0,0,0,7.6.121,17.11,17.11,0,0,0,4.964-4.051c3.68-4.224,7.36-8.457,11.072-12.65a33.7,33.7,0,0,1,6.414-6.1,15.122,15.122,0,0,1,7.706-2.512,24.54,24.54,0,0,1,6.924.206,18.791,18.791,0,0,1,8.632,4.508,22.95,22.95,0,0,1,3.19,3.167.572.572,0,0,0,.74.207,4.1,4.1,0,0,1,4.125.751,8.217,8.217,0,0,1,2.014,2.688,3.768,3.768,0,0,1,.131,2.122c-.173,1.688.088,2.19,1.589,2.94a1.92,1.92,0,0,1,1.079,1.328.834.834,0,0,0-.218-1.351c-1.36-.762-1.524-1.861-1.263-3.278.447-2.416-.621-4.255-2.525-5.669-.153-.11-.306-.218-.47-.317-.369-.26-.76-.5-1.131-.74-.023-.118-.011-.205.153-.13a5.375,5.375,0,0,1,1.12.261c.348.141.688.294,1.025.456a20.6,20.6,0,0,1,5.539,3.462,6.3,6.3,0,0,1,2.037,3.2C456.283,1190.892,455.291,1192.253,453.963,1193.439Z" transform="translate(-363.866 -1156.657)"/>
        <path id="Path_2833" data-name="Path 2833" d="M439.071,1206.243a2.283,2.283,0,0,1-1.176,1.6,4.616,4.616,0,0,1-2.079.686,30.873,30.873,0,0,1-6.009-.142,6.246,6.246,0,0,1-2.232-.892,9.693,9.693,0,0,0-2.72-1.034,15.205,15.205,0,0,1-5.856-2.7,20.812,20.812,0,0,0-4.073-2.493c-.065-.033-.13-.054-.184-.087a1.923,1.923,0,0,1-1.012-1.284,22.14,22.14,0,0,0-.8-2.363c-.173-.448-.207-.773.229-1.1a11.926,11.926,0,0,0,1.142-1.079,4.945,4.945,0,0,0-2.9.742,5.016,5.016,0,0,1-2.493.958c-.6.054-1.066.043-1.295-.609a4.369,4.369,0,0,0-.369-.654c.456.053.816.119,1.176.141a2.5,2.5,0,0,0,2.808-3.212c-.043-.216-.272-.51-.034-.641.2-.1.513.011.762.076a1.1,1.1,0,0,1,.632.544,3.782,3.782,0,0,0,.414.587,1,1,0,0,0,.969.337c.326-.1.141-.48.164-.74.119-1.819-.915-2.862-2.439-3.592.054-.337.349-.491.567-.686a3.845,3.845,0,0,0,1.263-2.711,20.6,20.6,0,0,0-.164-3.57,4.814,4.814,0,0,0-1.349-2.7c-.535-.578-1.09-1.133-1.666-1.678a3.44,3.44,0,0,1-.893-1.513v-.011a2.071,2.071,0,0,1,2.558-2.644c.686.207,1.392.349,2.1.511a13.461,13.461,0,0,1,2.3.685,14.863,14.863,0,0,1,6.292,5.346c.456.631.893,1.294,1.394,1.9a16.139,16.139,0,0,1,3.244,6.674,14.083,14.083,0,0,0,2.187,4.779,47.5,47.5,0,0,0,3.006,4.158,13.368,13.368,0,0,0,1.131,1.209,4.5,4.5,0,0,1,1.221,2.972,10.424,10.424,0,0,0,.216,1.555C435.566,1205.426,436.838,1206.284,439.071,1206.243Z" transform="translate(-309.719 -1135.385)"/>
        <path id="Path_2834" data-name="Path 2834" d="M408.257,1181.508a4.46,4.46,0,0,0-.98,2.6c-.371-.578-.731-1.164-1.122-1.72-.207-.294-.065-.4.164-.544A4.524,4.524,0,0,1,408.257,1181.508Z" transform="translate(-311.213 -1125.642)"/>
        <path id="Path_2835" data-name="Path 2835" d="M394.537,1195.73c-.187.052-.306-.07-.589-.285a7.463,7.463,0,0,1,2.3.142C395.684,1195.676,395.083,1195.393,394.537,1195.73Z" transform="translate(-326.322 -1108.27)" fill="#7e7e7e"/>
        <path id="Path_2836" data-name="Path 2836" d="M410.61,1198.963a3.173,3.173,0,0,1-1.648.01l.477-.146C409.8,1199.092,410.232,1198.813,410.61,1198.963Z" transform="translate(-307.584 -1104.027)" fill="#2e2e2e"/>
        <path id="Path_2837" data-name="Path 2837" d="M404.179,1212.41a5.213,5.213,0,0,1-.016-1.349c0-.1.04-.2.162-.17s.115.133.1.229C404.112,1211.506,404.393,1212.005,404.179,1212.41Z" transform="translate(-313.622 -1088.977)" fill="#b4b4b4"/>
        <path id="Path_2838" data-name="Path 2838" d="M388.895,1190.388l.274.468c.056.153-.018.18-.148.151l-.294-.425Z" transform="translate(-332.84 -1114.559)" fill="#101010"/>
        <path id="Path_2839" data-name="Path 2839" d="M403.26,1177.2a.432.432,0,0,1-.555.087c-.076-.057.108-.2.227-.263C403,1177.169,403.15,1177.169,403.26,1177.2Z" transform="translate(-315.416 -1131.233)" fill="#d7d7d7"/>
        <path id="Path_2842" data-name="Path 2842" d="M401.317,1174.325c.557,4.021-1.12,9.653-6.917,10.963,1.661-1.187,1.315-2.767,1.335-4.255,0-.285,0-.574.029-.857.081-.748-.031-.864-.787-.753a1.452,1.452,0,0,0-.931.49,5.456,5.456,0,0,0-1.517,3.078,1.127,1.127,0,0,1-.829,1.115,3.748,3.748,0,0,0-1.837,1.3,8.949,8.949,0,0,1-3.46,2.454.745.745,0,0,1-.668.1c.355-.256.681-.5,1.012-.733a3.729,3.729,0,0,0,1.713-2.518,2.17,2.17,0,0,1,1.416-1.673,1.049,1.049,0,0,0,.749-1.044c.16-1.543,2.405-3.878,3.768-3.946.472-.025.951.042,1.428.04s.913-.069,1.048-.64a.587.587,0,0,1,.578-.458A4.425,4.425,0,0,0,401.317,1174.325Z" transform="translate(-336.571 -1134.607)"/>
        <path id="Path_2844" data-name="Path 2844" d="M406.91,1190.074c-1.236-1.807-2.738-3.439-3.062-5.769a13.723,13.723,0,0,0-1.6-3.713,6.726,6.726,0,0,1-.337-.706c-.232-.714-.6-1.117-1.443-.888a.851.851,0,0,1-1.09-.564.737.737,0,0,0-.6-.465,1.921,1.921,0,0,1-1.765-1.99,1.522,1.522,0,0,0-.139-.379c.295-.211.513-.014.74.088.434.193.859.4,1.295.586a1.569,1.569,0,0,0,1.958-.319c.355-.4.423-.092.515.209a35.45,35.45,0,0,0,2.361,6.1,2.913,2.913,0,0,0,1.07,1.3,1.218,1.218,0,0,1,.508.756C405.89,1186.221,406.013,1188.242,406.91,1190.074Z" transform="translate(-322.67 -1133.134)"/>
        <path id="Path_2845" data-name="Path 2845" d="M396.281,1194.181c-.783.2-1.558.432-2.347.6-.339.075-.488.214-.515.551-.056.744-.58,1.023-1.194,1.2-.036-.04-.063-.056-.065-.076-.42-2.259.193-2.907,2.475-2.617q.837.108,1.677.212Z" transform="translate(-328.707 -1110.333)" fill="#020202"/>
        <path id="Path_2846" data-name="Path 2846" d="M400.391,1185.566c-.173,1.589-.94,2.209-2.866,2.2a4.508,4.508,0,0,0,2.725-3.781C400.654,1184.479,400.371,1185.037,400.391,1185.566Z" transform="translate(-321.858 -1122.55)" fill="#060606"/>
        <path id="Path_2847" data-name="Path 2847" d="M398.878,1185.887c-.151-.517.16-1.077-.141-1.58l.146-.58A4.964,4.964,0,0,1,398.878,1185.887Z" transform="translate(-320.346 -1122.872)" fill="#616161"/>
        <path id="Path_2848" data-name="Path 2848" d="M405.292,1197c.22-.215.025-.512.148-.746a4.539,4.539,0,0,1,.121,1.468c-.049.05-.094.045-.135-.013Z" transform="translate(-312.165 -1107.242)" fill="#2c2c2c"/>
        <path id="Path_2849" data-name="Path 2849" d="M397.967,1183.491l.2-.724a1.028,1.028,0,0,1-.027.893C398.032,1183.65,398.021,1183.549,397.967,1183.491Z" transform="translate(-321.306 -1124.07)" fill="#7a7a7a"/>
        <path id="Path_2850" data-name="Path 2850" d="M398.044,1183.089l.171.168c-.038.241.011.5-.166.711l-.144-.308Z" transform="translate(-321.384 -1123.669)" fill="#323232"/>
        <path id="Path_2851" data-name="Path 2851" d="M397.977,1181.815l.135-.139c.175.194.166.4.036.729Z" transform="translate(-321.294 -1125.432)" fill="#696969"/>
        <path id="Path_2852" data-name="Path 2852" d="M392.6,1179.332l.162.153c-.133.142-.353.274-.454.121S392.456,1179.386,392.6,1179.332Z" transform="translate(-328.4 -1128.357)" fill="#454545"/>
        <path id="Path_2853" data-name="Path 2853" d="M385.953,1180.583c-.108.047-.182.088-.258.112-.122.041-.175-.049-.137-.131a.305.305,0,0,1,.214-.119C385.814,1180.439,385.868,1180.516,385.953,1180.583Z" transform="translate(-336.809 -1126.967)" fill="#767676"/>
        <path id="Path_2854" data-name="Path 2854" d="M388.857,1190.747l.148-.151c.119.122.3.3.139.42S388.92,1190.882,388.857,1190.747Z" transform="translate(-332.676 -1114.3)" fill="#505050"/>
        <path id="Path_2855" data-name="Path 2855" d="M405.355,1196.9a.124.124,0,0,0,.135.013c.113.1.225.249.036.31C405.407,1197.261,405.328,1197.059,405.355,1196.9Z" transform="translate(-312.093 -1106.433)" fill="#c9c9c9"/>
        <path id="Path_2856" data-name="Path 2856" d="M413.185,1194.116c-.009.087-.009.164-.02.252a73,73,0,0,0-4.955-8.5c-.184-.283-.162-.4.187-.469.445-.086.881-.2,1.317-.315a5.552,5.552,0,0,0,1.164-.74c.729,2.426,1.394,4.833,2.176,7.194a3.451,3.451,0,0,1,.164.807v.012A8.566,8.566,0,0,1,413.185,1194.116Z" transform="translate(-308.665 -1122.106)"/>
      </g>
    </g>
    <g id="Group_4046" data-name="Group 4046" transform="translate(140 2334)">
      <text id="UG_FOSS_CLUB" data-name="UG FOSS CLUB" transform="translate(0 32)" font-size="30" font-family="Poppins-Bold, Poppins" font-weight="700" letter-spacing="0.113em"><tspan x="0" y="0">UG FOSS CLUB</tspan></text>
      <text id="Aim:_-" data-name="Aim: -" transform="translate(0 56)" font-size="12" font-family="Poppins-Bold, Poppins" font-weight="700" letter-spacing="0.113em"><tspan x="0" y="0">Aim: -</tspan></text>
    </g>
  </g>
</svg>
