<svg xmlns="http://www.w3.org/2000/svg" viewBox="0 0 47.68 46.48"><defs><style>.cls-1{fill:#fff;}</style></defs><g id="Layer_2" data-name="Layer 2"><g id="Layer_1-2" data-name="Layer 1"><path id="Icon_awesome-github" data-name="Icon awesome-github" class="cls-1" d="M16,37.43c0,.19-.22.35-.5.35s-.54-.13-.54-.35.22-.34.5-.34S16,37.21,16,37.43ZM13,37c-.07.19.12.41.41.47a.45.45,0,0,0,.6-.19c.06-.19-.12-.41-.41-.5A.49.49,0,0,0,13,37Zm4.25-.16c-.28.06-.47.25-.44.47s.27.31.56.25.47-.25.44-.44-.28-.31-.57-.28ZM23.53,0A23,23,0,0,0,0,22.56c0,.3,0,.6,0,.9a24.09,24.09,0,0,0,16.29,23c1.23.22,1.67-.53,1.67-1.16s0-3.88,0-5.9c0,0-6.73,1.44-8.14-2.86,0,0-1.1-2.8-2.67-3.52,0,0-2.2-1.51.15-1.48A5.07,5.07,0,0,1,11,34c2.1,3.71,5.63,2.64,7,2a5.3,5.3,0,0,1,1.53-3.24c-5.37-.6-10.79-1.38-10.79-10.62A7.29,7.29,0,0,1,11,16.49,9.08,9.08,0,0,1,11.25,10c2-.62,6.64,2.6,6.64,2.6a22.68,22.68,0,0,1,12.07,0s4.62-3.23,6.63-2.6a9.08,9.08,0,0,1,.25,6.53c1.54,1.7,2.48,3,2.48,5.66,0,9.28-5.66,10-11,10.62a5.7,5.7,0,0,1,1.63,4.46c0,3.24,0,7.25,0,8,0,.62.44,1.38,1.66,1.16a23.88,23.88,0,0,0,16.13-23C47.68,10.13,36.86,0,23.53,0ZM9.35,33.16c-.13.1-.1.31.06.5s.38.22.5.1.1-.32-.06-.5S9.47,33,9.35,33.16Zm-1-.78c-.06.12,0,.28.22.37a.29.29,0,0,0,.41,0h0c.06-.13,0-.28-.22-.38A.37.37,0,0,0,8.3,32.38Zm3.12,3.42c-.16.12-.1.41.12.6s.5.25.63.1.06-.41-.13-.6-.49-.26-.62-.1Zm-1.1-1.41c-.16.1-.16.34,0,.56s.41.32.54.22a.46.46,0,0,0,0-.6c-.13-.21-.38-.31-.53-.18Z"/></g></g></svg>