<svg xmlns="http://www.w3.org/2000/svg" viewBox="0 0 1003.05 385.96"><defs><style>.cls-1{fill:#fff;}.cls-2{fill:#010101;}.cls-3{fill:#524baa;}.cls-4{fill:#5d5d5d;}</style></defs><g id="Layer_2" data-name="Layer 2"><g id="Layer_1-2" data-name="Layer 1"><g id="Group_5838" data-name="Group 5838"><g id="Group_4024" data-name="Group 4024"><g id="Group_118" data-name="Group 118"><path id="Path_111" data-name="Path 111" class="cls-1" d="M547,182.07C523.58,220.2,446.9,344.84,423.29,383.24a5.74,5.74,0,0,1-4.91,2.72h-.13a5.76,5.76,0,0,1-5.77-5.76h0V216.13a5.79,5.79,0,0,1,3.7-5.38c31.73-12.33,25.49-63.68-10.83-65.82-39.24-2.92-49.67,52.48-15.59,65.82a5.77,5.77,0,0,1,3.63,5.36V380.19a5.76,5.76,0,0,1-5.76,5.77h-.12a5.74,5.74,0,0,1-4.91-2.72c-23.68-38.59-100.21-162.85-123.75-201.17a5.75,5.75,0,0,1,0-6c14.11-23.65,60.21-97.24,74.9-121.65a5.77,5.77,0,0,1,4.93-2.78H467.13a5.75,5.75,0,0,1,5,2.84c14.66,24.84,60.66,97.7,74.91,121.58A5.77,5.77,0,0,1,547,182.07Z"/><path id="Rectangle_44" data-name="Rectangle 44" class="cls-1" d="M351.07,0H454.82a16.1,16.1,0,0,1,16.1,16.1h0a16.1,16.1,0,0,1-16.1,16.1H351.07A16.1,16.1,0,0,1,335,16.1h0A16.1,16.1,0,0,1,351.07,0Z"/></g></g><g id="Group_5576" data-name="Group 5576"><path id="Path_5856" data-name="Path 5856" class="cls-2" d="M670.35,128.14l18.18-35.52-24.07,7.77-18.19,35.53Z"/><path id="Path_5857" data-name="Path 5857" class="cls-2" d="M856.51,68.05,874.7,32.52,850.62,40.3,832.43,75.82Z"/><path id="Path_5858" data-name="Path 5858" class="cls-2" d="M918.57,48l18.18-35.52-24.07,7.77L894.49,55.79Z"/><path id="Path_5859" data-name="Path 5859" class="cls-2" d="M794.46,88.08l18.18-35.52-24.08,7.77L770.38,95.84Z"/><path id="Path_5860" data-name="Path 5860" class="cls-2" d="M980.62,28,983,23.36,975.45,0l-.72.23L956.54,35.75Z"/><path id="Path_5861" data-name="Path 5861" class="cls-2" d="M615,116.36l3.7,11.48,7.78-15.19Z"/><path id="Path_5862" data-name="Path 5862" class="cls-2" d="M732.4,108.11l18.19-35.53-24.08,7.78-18.18,35.53Z"/><path id="Path_5863" data-name="Path 5863" class="cls-1" d="M646.27,135.91l18.19-35.52-38,12.26-7.77,15.19,5,15.37Z"/><path id="Path_5864" data-name="Path 5864" class="cls-1" d="M708.32,115.88l18.19-35.52-38,12.26-18.18,35.53Z"/><path id="Path_5865" data-name="Path 5865" class="cls-1" d="M770.38,95.85l18.18-35.52-38,12.26L732.4,108.11Z"/><path id="Path_5866" data-name="Path 5866" class="cls-1" d="M832.43,75.82,850.62,40.3l-38,12.26L794.46,88.08Z"/><path id="Path_5867" data-name="Path 5867" class="cls-1" d="M894.49,55.79l18.18-35.52-38,12.26L856.5,68.05Z"/><path id="Path_5868" data-name="Path 5868" class="cls-1" d="M956.54,35.76,974.73.23l-38,12.26L918.57,48Z"/><path id="Path_5869" data-name="Path 5869" class="cls-1" d="M984.11,26.86,983,23.36,980.62,28Z"/><path id="Path_5870" data-name="Path 5870" class="cls-2" d="M703.48,149.2l-28.22,28.22h25.3l28.22-28.22Z"/><path id="Path_5871" data-name="Path 5871" class="cls-2" d="M768.68,149.2l-28.21,28.22h25.3L794,149.2Z"/><path id="Path_5872" data-name="Path 5872" class="cls-1" d="M1003.05,175.67l-1.75,1.75h1.75Z"/><path id="Path_5873" data-name="Path 5873" class="cls-2" d="M833.89,149.2l-28.22,28.22H831l28.22-28.22Z"/><path id="Path_5874" data-name="Path 5874" class="cls-2" d="M638.27,149.2l-14,14v14.23h11.07l28.22-28.22Z"/><path id="Path_5875" data-name="Path 5875" class="cls-2" d="M899.1,149.2l-28.22,28.22h25.3L924.4,149.2Z"/><path id="Path_5876" data-name="Path 5876" class="cls-2" d="M964.31,149.2l-28.23,28.22h25.3L989.6,149.2Z"/><path id="Path_5877" data-name="Path 5877" class="cls-1" d="M624.28,149.2v14l14-14Z"/><path id="Path_5878" data-name="Path 5878" class="cls-1" d="M663.57,149.2l-28.22,28.22h39.92l28.21-28.22Z"/><path id="Path_5879" data-name="Path 5879" class="cls-1" d="M728.78,149.2l-28.22,28.22h39.91l28.21-28.22Z"/><path id="Path_5880" data-name="Path 5880" class="cls-1" d="M794,149.2l-28.23,28.22h39.91l28.21-28.22Z"/><path id="Path_5881" data-name="Path 5881" class="cls-1" d="M859.19,149.2,831,177.42h39.91L899.1,149.2Z"/><path id="Path_5882" data-name="Path 5882" class="cls-1" d="M924.4,149.2l-28.22,28.22h39.91l28.22-28.22Z"/><path id="Path_5883" data-name="Path 5883" class="cls-1" d="M1003.05,149.2H989.61l-28.22,28.22h41.66Z"/><path id="Path_5885" data-name="Path 5885" class="cls-3" d="M839.43,281.49l-37.56-22.68h0Z"/><g id="Group_5577" data-name="Group 5577"><path id="Path_5888" data-name="Path 5888" class="cls-1" d="M624.3,179.51s0,202.35,0,202.35h377V179.51S631.14,179.29,624.3,179.51ZM996,376.54H629.61V184.84H996Z"/><path id="Path_5889" data-name="Path 5889" d="M629.61,184.84H996v191.7H629.61Z"/></g><rect id="Rectangle_2023" data-name="Rectangle 2023" class="cls-4" x="798.23" y="257.89" width="3.13" height="47.21"/><path id="Path_5886" data-name="Path 5886" class="cls-3" d="M801.36,257.89V305.1l39.09-23.62Z"/><path id="Path_5887" data-name="Path 5887" class="cls-1" d="M801.87,258.81h0l37.56,22.68h0l-37.56,22.68Z"/></g><path id="Path_7584" data-name="Path 7584" class="cls-1" d="M190.26,0h-50l0,26.48a4.87,4.87,0,0,1-4.86,4.85l-80.46.11a4.86,4.86,0,0,1-4.86-4.85L50,0H0L.24,188.33v9.14L0,385.8H50l0-26.59a4.86,4.86,0,0,1,4.86-4.85l80.46.11a4.87,4.87,0,0,1,4.86,4.85l0,26.48h50.05l.24-188.09v-9.62Zm-161,101.08,0,29a4.73,4.73,0,0,1-4.7,4.73h0a4.71,4.71,0,0,1-4.73-4.71l0-29a4.72,4.72,0,1,1,9.43-.15ZM24.48,19a4.73,4.73,0,0,1,4.67,4.65l0,29a4.71,4.71,0,0,1-4.67,4.73h0a4.72,4.72,0,0,1-4.72-4.72l0-29A4.7,4.7,0,0,1,24.47,19Zm4.67,343.13a4.72,4.72,0,0,1-9.44,0l0-29a4.71,4.71,0,0,1,4.72-4.71h0a4.7,4.7,0,0,1,4.69,4.7v0Zm.1-77.42,0,.13a4.72,4.72,0,1,1-9.43-.15l0-29A4.72,4.72,0,0,1,24.57,251h0a4.73,4.73,0,0,1,4.7,4.73Zm.28-106.39,0,11.66v5.81l0,11.5h0a4.65,4.65,0,0,1-2.63,4.22l-.31.14a4.39,4.39,0,0,1-2,.41,4.71,4.71,0,0,1-4.65-4.78h0V178.52a4.82,4.82,0,1,1,9.63-.2Zm140.76-48.48a4.73,4.73,0,0,1-9.45,0l0-29a4.72,4.72,0,0,1,9.44,0h0ZM165.42,18.76a4.72,4.72,0,0,1,4.72,4.71l0,29a4.7,4.7,0,0,1-4.7,4.73h0a4.71,4.71,0,0,1-4.71-4.71l-.05-28.95A4.74,4.74,0,0,1,165.42,18.76ZM55,66.1,135.45,66a4.84,4.84,0,0,1,4.85,4.84h0l.08,52.77a4.87,4.87,0,0,1-4.85,4.86l-80.48.1a4.85,4.85,0,0,1-4.85-4.85h0L50.14,71A4.87,4.87,0,0,1,55,66.1ZM140.3,314.94a4.85,4.85,0,0,1-4.85,4.84h0L55,319.69a4.86,4.86,0,0,1-4.85-4.87l.06-52.77a4.84,4.84,0,0,1,4.85-4.84l80.48.1a4.87,4.87,0,0,1,4.85,4.86Zm.16-119,0,25.08a3.14,3.14,0,0,1-3.12,3.12L53.37,224a3.13,3.13,0,0,1-3.12-3.13V220a5.17,5.17,0,0,1-.11-1l.06-52.77a3.45,3.45,0,0,1,0-.64v-.62a3.2,3.2,0,0,1,3.12-3.13l83.68-.1h.25a3.12,3.12,0,0,1,3.12,3.11l0,25.08s0,0-.11.06l0,5.91c.08,0,.13,0,.13.06Zm29.72,137.46,0,28.95a4.73,4.73,0,0,1-9.45,0h0l0-28.95a4.72,4.72,0,0,1,9.44,0Zm.11-77.43,0,29h0a4.72,4.72,0,1,1-9.44,0l0-28.95a4.73,4.73,0,0,1,9.45,0Zm.06-66.1a.18.18,0,0,1-.08.15l0,5.81a.18.18,0,0,1,.1.16v11.51c0,.05,0,.09,0,.14a4.72,4.72,0,0,1-9.11,1.66,4.55,4.55,0,0,1-.44-2l0-28.95a4.72,4.72,0,0,1,1.12-3.05l.3-.33.09-.09a4.73,4.73,0,0,1,8,3.33h0c0,.05,0,.1,0,.14Z"/></g></g></g></svg>