<svg xmlns="http://www.w3.org/2000/svg" width="277.812" height="538.077" viewBox="0 0 277.812 538.077">
  <defs>
    <style>
      .cls-1 {
        fill: #fff;
      }
    </style>
  </defs>
  <g id="Group_5510" data-name="Group 5510" transform="translate(-814.25 -651.579)">
    <path id="Path_5511" data-name="Path 5511" class="cls-1" d="M1084.671,1055.267,1021.9,945.983a79.534,79.534,0,0,0-67.324-39.845V652.5h-5.67V906.235a79.56,79.56,0,0,0-64.493,39.748l-62.771,109.284A55.722,55.722,0,0,0,814.25,1083v46.872a55.381,55.381,0,0,0,55.18,55.459h167.451a55.381,55.381,0,0,0,55.18-55.459V1083A55.722,55.722,0,0,0,1084.671,1055.267Zm1.721,74.6a49.69,49.69,0,0,1-49.51,49.761H869.43a49.69,49.69,0,0,1-49.51-49.761V1083a50.009,50.009,0,0,1,6.633-24.881l62.771-109.284a73.876,73.876,0,0,1,59.58-36.9v133.777h5.67V911.837a73.834,73.834,0,0,1,62.412,37l62.771,109.284a50.009,50.009,0,0,1,6.633,24.881Z" transform="translate(0 4.327)"/>
    <path id="Path_5512" data-name="Path 5512" class="cls-1" d="M872.641,705.01c17.05-7.75,31.776-14.464,47.47,10.337l5.226,8.258V661.4l-.764-.82c-5.368-5.784-11.244-8.816-17.472-9-13.17-.3-25.513,11.568-37.583,23.125-11.067,10.6-22.51,21.558-33.053,21.558-.148,0-.3,0-.444-.006-4.724-.137-9.141-2.49-13.5-7.186l-4.462,3.476C836.386,721.519,855.654,712.749,872.641,705.01Zm-36.791-3.049c13.244.4,25.513-11.563,37.577-23.125,11.232-10.748,23.051-21.911,33.5-21.552,4.451.131,8.628,2.228,12.736,6.388v41.373c-16.737-20.077-33.981-12.229-49.362-5.22-13.255,6.029-25.1,11.42-37.082,1.886A21.23,21.23,0,0,0,835.85,701.961Z" transform="translate(17.898)"/>
  </g>
</svg>
