<svg xmlns="http://www.w3.org/2000/svg" width="393.527" height="372.73" viewBox="0 0 393.527 372.73">
  <defs>
    <style>
      .cls-1 {
        fill: #fff;
      }

      .cls-2 {
        fill: none;
      }
    </style>
  </defs>
  <g id="Group_5513" data-name="Group 5513" transform="translate(-112.12 -297)">
    <path id="Path_5513" data-name="Path 5513" class="cls-1" d="M303.034,306.833V303.01a12.407,12.407,0,0,0-7.608,21.924H147.654v13.38h21.523L127.966,473.109H112.12v1.911a57.764,57.764,0,1,0,115.527,0v-1.911H210.731L169.5,338.314H296.115v314.47H243.34v11.469h59.694V660.43H247.163v-3.823h52.775V334.491H151.477v-5.734H303.034V324a8.59,8.59,0,0,1,0-17.165Zm-79.248,170.1a53.936,53.936,0,0,1-107.805,0Zm-17.432-5.046h-74.03l37.025-121.032Z" transform="translate(0 5.478)"/>
    <line id="Line_22" data-name="Line 22" class="cls-2" y1="11.469" transform="translate(505.647 297)"/>
    <path id="Path_5514" data-name="Path 5514" class="cls-1" d="M212.12,306.833V303.01a12.407,12.407,0,0,1,7.608,21.924H367.5v13.38H345.978l41.211,134.795h15.846v1.911a57.764,57.764,0,0,1-115.527,0v-1.911h16.916l41.23-134.795H219.039v314.47h52.775v11.469H212.12V660.43h55.871v-3.823H215.217V334.491H363.678v-5.734H212.12V324a8.59,8.59,0,0,0,0-17.165Zm79.248,170.1a53.936,53.936,0,0,0,107.805,0Zm17.432-5.046h74.03L345.806,350.853Z" transform="translate(91.144 5.478)"/>
  </g>
</svg>
