<svg xmlns="http://www.w3.org/2000/svg" width="467.597" height="2103.133" viewBox="0 0 467.597 2103.133">
  <defs>
    <style>
      .cls-1 {
        fill: #f5f5f5;
      }
    </style>
  </defs>
  <g id="Group_5521" data-name="Group 5521" transform="translate(-1357.69 -62.851)">
    <path id="Path_5527" data-name="Path 5527" class="cls-1" d="M1398.686,263.328a4.647,4.647,0,0,1-3.32-1.075,4.1,4.1,0,0,1-1.3-2.647h-3.112a5.56,5.56,0,0,0,1.026,3.224,6.567,6.567,0,0,0,2.743,2.181,9.516,9.516,0,0,0,3.962.789,8.454,8.454,0,0,0,4.01-.9,6.3,6.3,0,0,0,2.563-2.342,5.851,5.851,0,0,0,.87-3.08,5.319,5.319,0,0,0-.963-3.352,5.925,5.925,0,0,0-2.313-1.825,25.862,25.862,0,0,0-3.557-1.2c-1.219-.343-2.166-.651-2.839-.917a4.424,4.424,0,0,1-1.7-1.171,2.854,2.854,0,0,1-.69-1.989,3.235,3.235,0,0,1,1.155-2.647,4.567,4.567,0,0,1,2.983-.946,4.78,4.78,0,0,1,3.144.982,3.458,3.458,0,0,1,1.348,2.262h3.208a5.821,5.821,0,0,0-2.262-4.174,8.112,8.112,0,0,0-5.149-1.569,9.2,9.2,0,0,0-3.866.767,6.063,6.063,0,0,0-2.614,2.185,5.758,5.758,0,0,0-.934,3.237,5.366,5.366,0,0,0,.946,3.323,5.729,5.729,0,0,0,2.281,1.809,25.052,25.052,0,0,0,3.545,1.155,26.686,26.686,0,0,1,2.852.9,4.475,4.475,0,0,1,1.768,1.219,3.038,3.038,0,0,1,.706,2.082,3.376,3.376,0,0,1-1.2,2.679A4.849,4.849,0,0,1,1398.686,263.328Z" transform="translate(73.448 397.607)"/>
    <path id="Path_5528" data-name="Path 5528" class="cls-1" d="M1398.792,260.323a4.836,4.836,0,0,0,1.219,3.692,5.237,5.237,0,0,0,3.657,1.12h2.627v-2.467h-2.146a2.7,2.7,0,0,1-1.893-.529,2.467,2.467,0,0,1-.545-1.816V249.961h4.584v-2.406h-4.584v-4.427h-2.92v4.427h-2.277v2.406h2.277Z" transform="translate(85.724 398.047)"/>
    <path id="Path_5529" data-name="Path 5529" class="cls-1" d="M1403.583,252.749q0-5.327,4.908-5.322h.773v-3.019a6.8,6.8,0,0,0-3.481.834,5.62,5.62,0,0,0-2.2,2.342v-2.855h-2.919v17.58h2.919Z" transform="translate(94.885 400.873)"/>
    <path id="Path_5530" data-name="Path 5530" class="cls-1" d="M1408.126,261.423a8.011,8.011,0,0,0,4.238,1.152,7.739,7.739,0,0,0,3.994-1.007,6.884,6.884,0,0,0,2.579-2.55v3.269h2.955v-17.58h-2.955v3.208a6.591,6.591,0,0,0-2.534-2.5,7.75,7.75,0,0,0-4.01-1,8.207,8.207,0,0,0-4.247,1.126,7.884,7.884,0,0,0-3,3.157,9.871,9.871,0,0,0-1.09,4.735,10.073,10.073,0,0,0,1.09,4.745A8.1,8.1,0,0,0,1408.126,261.423Zm-.288-11.456a5.605,5.605,0,0,1,2.149-2.246,6.146,6.146,0,0,1,5.986.016,5.7,5.7,0,0,1,2.162,2.262,7.142,7.142,0,0,1,.8,3.465,7.224,7.224,0,0,1-.8,3.481,5.64,5.64,0,0,1-2.162,2.278,5.927,5.927,0,0,1-3,.786,5.832,5.832,0,0,1-2.983-.786,5.673,5.673,0,0,1-2.149-2.278,7.323,7.323,0,0,1-.8-3.51A7.181,7.181,0,0,1,1407.837,249.968Z" transform="translate(102.373 400.895)"/>
    <path id="Path_5531" data-name="Path 5531" class="cls-1" d="M1412.919,260.323a4.823,4.823,0,0,0,1.219,3.692,5.246,5.246,0,0,0,3.66,1.12h2.627v-2.467h-2.149a2.7,2.7,0,0,1-1.893-.529,2.468,2.468,0,0,1-.545-1.816V249.961h4.587v-2.406h-4.587v-4.427h-2.92v4.427h-2.274v2.406h2.274Z" transform="translate(116.923 398.047)"/>
    <path id="Path_5532" data-name="Path 5532" class="cls-1" d="M1418.674,261.456a8.891,8.891,0,0,0,4.471,1.12,8.535,8.535,0,0,0,5.265-1.588,7.6,7.6,0,0,0,2.823-4.122h-3.144a4.677,4.677,0,0,1-1.783,2.358,5.378,5.378,0,0,1-3.16.885,5.52,5.52,0,0,1-5.707-5.521h14.051c.061-.619.1-1.206.1-1.764a8.843,8.843,0,0,0-1.046-4.315,7.572,7.572,0,0,0-2.964-3,8.818,8.818,0,0,0-4.431-1.091,9.071,9.071,0,0,0-4.536,1.11,7.608,7.608,0,0,0-3.063,3.157,10.032,10.032,0,0,0-1.091,4.78,9.822,9.822,0,0,0,1.123,4.8A7.919,7.919,0,0,0,1418.674,261.456Zm.574-13.156a5.416,5.416,0,0,1,3.773-1.412,6.271,6.271,0,0,1,2.807.626,4.84,4.84,0,0,1,2.005,1.829,5.434,5.434,0,0,1,.734,2.874h-11.1A5.751,5.751,0,0,1,1419.248,248.3Z" transform="translate(125.335 400.895)"/>
    <path id="Path_5533" data-name="Path 5533" class="cls-1" d="M1525.854,263.89h-8.3l7.856-19.184h-3.019l-5.454,14.243-5.518-14.243h-3.24l7.089,17.39-.734,1.793h-9.345a9.91,9.91,0,0,0,.138-1.219V244.707h-2.951v3.208a6.641,6.641,0,0,0-2.551-2.5,7.784,7.784,0,0,0-4-1,8.2,8.2,0,0,0-4.247,1.126,7.909,7.909,0,0,0-3,3.157,9.9,9.9,0,0,0-1.091,4.735,10.108,10.108,0,0,0,1.091,4.745,7.992,7.992,0,0,0,7.25,4.4,7.511,7.511,0,0,0,3.978-1.027,7.015,7.015,0,0,0,2.57-2.566v3.689a8.137,8.137,0,0,1-.09,1.219h-111.9v1.6h98.193a6.326,6.326,0,0,0,2.57,3.821,9.734,9.734,0,0,0,5.774,1.633,9,9,0,0,0,4.44-1.059,7.289,7.289,0,0,0,2.938-2.935,7.962,7.962,0,0,0,.558-1.46h9.021l-2.075,5.069h3.015l2.076-5.069h8.96Zm-24.281-6.945a5.656,5.656,0,0,1-2.169,2.278,5.9,5.9,0,0,1-3,.786,5.841,5.841,0,0,1-2.986-.786,5.693,5.693,0,0,1-2.15-2.278,7.321,7.321,0,0,1-.8-3.51,7.179,7.179,0,0,1,.8-3.468,5.625,5.625,0,0,1,2.15-2.246,6.14,6.14,0,0,1,5.983.016,5.715,5.715,0,0,1,2.169,2.262,7.175,7.175,0,0,1,.8,3.465A7.257,7.257,0,0,1,1501.573,256.945Zm-.722,9.964a5.366,5.366,0,0,1-3.93,1.5,6.506,6.506,0,0,1-3.625-.975,4.66,4.66,0,0,1-1.662-1.944H1501.8A4.757,4.757,0,0,1,1500.851,266.909Z" transform="translate(72.189 400.895)"/>
    <path id="Path_5534" data-name="Path 5534" class="cls-1" d="M1421.487,345.793a9.389,9.389,0,0,0,4.106-3.85,13.124,13.124,0,0,0,0-11.918,9.606,9.606,0,0,0-4.106-3.9,13.821,13.821,0,0,0-6.335-1.36h-6.961v22.356h6.961A14.072,14.072,0,0,0,1421.487,345.793Zm-10.375-18.654h4.039a8.067,8.067,0,0,1,8.886,8.857,8.717,8.717,0,0,1-2.278,6.429q-2.281,2.3-6.608,2.294h-4.039Z" transform="translate(111.502 578.305)"/>
    <rect id="Rectangle_1923" data-name="Rectangle 1923" class="cls-1" width="2.92" height="17.581" transform="translate(1542.372 907.849)"/>
    <path id="Path_5535" data-name="Path 5535" class="cls-1" d="M1417.1,328.1a1.832,1.832,0,0,0,1.363-.574,2.055,2.055,0,0,0,0-2.823,1.838,1.838,0,0,0-1.363-.581,1.989,1.989,0,1,0,0,3.978Z" transform="translate(126.781 576.89)"/>
    <path id="Path_5536" data-name="Path 5536" class="cls-1" d="M1424.574,341.857a4.683,4.683,0,0,1-2.9-.837,2.962,2.962,0,0,1-1.235-2.149h-3.015a5.132,5.132,0,0,0,1.026,2.842,6.116,6.116,0,0,0,2.534,1.922,9.051,9.051,0,0,0,3.625.69,8.064,8.064,0,0,0,3.352-.658,5.386,5.386,0,0,0,2.262-1.809,4.482,4.482,0,0,0,.8-2.6,3.98,3.98,0,0,0-.882-2.6,5.356,5.356,0,0,0-2.037-1.492,25.134,25.134,0,0,0-3.079-1.014,24.467,24.467,0,0,1-2.358-.754,4.049,4.049,0,0,1-1.412-.895,1.945,1.945,0,0,1-.562-1.431,2.085,2.085,0,0,1,.927-1.764,4.2,4.2,0,0,1,2.506-.67,4.118,4.118,0,0,1,2.707.831,3.018,3.018,0,0,1,1.11,2.217h2.919a5.327,5.327,0,0,0-1.925-4.045,7.187,7.187,0,0,0-4.715-1.476,8.175,8.175,0,0,0-3.369.658,5.432,5.432,0,0,0-2.277,1.784,4.454,4.454,0,0,0,.08,5.213,5.626,5.626,0,0,0,2.117,1.569,23.215,23.215,0,0,0,3.192,1.043,14.536,14.536,0,0,1,3.176,1.107,1.838,1.838,0,0,1,1.027,1.716,2.254,2.254,0,0,1-.963,1.861A4.235,4.235,0,0,1,1424.574,341.857Z" transform="translate(131.882 581.394)"/>
    <path id="Path_5537" data-name="Path 5537" class="cls-1" d="M1426.723,343.2a8.715,8.715,0,0,0,4.443,1.12,8.455,8.455,0,0,0,5.293-1.62,7.761,7.761,0,0,0,2.823-4.311h-3.147a4.536,4.536,0,0,1-1.761,2.563,5.455,5.455,0,0,1-3.208.9,5.158,5.158,0,0,1-4.042-1.732,7.142,7.142,0,0,1-1.543-4.911,7,7,0,0,1,1.543-4.857,5.167,5.167,0,0,1,4.042-1.716,5.363,5.363,0,0,1,3.221.93,4.467,4.467,0,0,1,1.748,2.534h3.147a7.442,7.442,0,0,0-2.775-4.366,9.614,9.614,0,0,0-9.784-.446,7.839,7.839,0,0,0-3.035,3.157,9.984,9.984,0,0,0-1.088,4.764,10.128,10.128,0,0,0,1.088,4.812A7.838,7.838,0,0,0,1426.723,343.2Z" transform="translate(143.319 581.394)"/>
    <path id="Path_5538" data-name="Path 5538" class="cls-1" d="M1432.953,343.2a8.995,8.995,0,0,0,4.472,1.12,9.331,9.331,0,0,0,4.555-1.12,8.361,8.361,0,0,0,3.259-3.2,9.357,9.357,0,0,0,1.2-4.8,9.5,9.5,0,0,0-1.171-4.78,8.077,8.077,0,0,0-3.192-3.157,9.777,9.777,0,0,0-9.049,0,8.027,8.027,0,0,0-3.192,3.173,9.531,9.531,0,0,0-1.168,4.764,9.8,9.8,0,0,0,1.135,4.8A8.024,8.024,0,0,0,1432.953,343.2Zm-.5-11.584a5.241,5.241,0,0,1,2.133-2.194,6.272,6.272,0,0,1,5.854,0,5.476,5.476,0,0,1,2.182,2.194,7.245,7.245,0,0,1,.831,3.593,7.1,7.1,0,0,1-.847,3.593,5.608,5.608,0,0,1-2.233,2.214,6.129,6.129,0,0,1-2.951.738,5.936,5.936,0,0,1-2.887-.719,5.237,5.237,0,0,1-2.1-2.2,7.6,7.6,0,0,1-.786-3.625A7.425,7.425,0,0,1,1432.455,331.621Z" transform="translate(156.722 581.394)"/>
    <path id="Path_5539" data-name="Path 5539" class="cls-1" d="M1445.057,343.838l6.9-17.581h-3.114l-5.451,14.887-5.485-14.887h-3.146l6.9,17.581Z" transform="translate(170.168 581.593)"/>
    <path id="Path_5540" data-name="Path 5540" class="cls-1" d="M1444.9,343.2a8.886,8.886,0,0,0,4.475,1.12,8.508,8.508,0,0,0,5.258-1.588,7.551,7.551,0,0,0,2.826-4.122h-3.144a4.676,4.676,0,0,1-1.781,2.358,5.392,5.392,0,0,1-3.16.885,5.531,5.531,0,0,1-5.714-5.521h14.054a17.157,17.157,0,0,0,.1-1.764,8.842,8.842,0,0,0-1.046-4.315,7.528,7.528,0,0,0-2.964-3,8.812,8.812,0,0,0-4.427-1.091,9.082,9.082,0,0,0-4.539,1.11,7.592,7.592,0,0,0-3.064,3.157,10.037,10.037,0,0,0-1.09,4.78,9.9,9.9,0,0,0,1.12,4.8A7.986,7.986,0,0,0,1444.9,343.2Zm.578-13.156a5.411,5.411,0,0,1,3.769-1.408,6.256,6.256,0,0,1,2.807.622,4.836,4.836,0,0,1,2.005,1.829,5.4,5.4,0,0,1,.738,2.874h-11.1A5.751,5.751,0,0,1,1445.476,330.049Z" transform="translate(183.239 581.394)"/>
    <path id="Path_5541" data-name="Path 5541" class="cls-1" d="M1450.139,334.5q0-5.327,4.905-5.322h.77v-3.019a6.811,6.811,0,0,0-3.481.834,5.607,5.607,0,0,0-2.194,2.342v-2.855h-2.919v17.58h2.919Z" transform="translate(197.679 581.372)"/>
    <path id="Path_5542" data-name="Path 5542" class="cls-1" d="M1550.676,347.046l-2.074,5.069h3.014l2.075-5.069h8.961v-1.6h-8.3l7.856-19.185h-3.017l-5.454,14.245-5.517-14.245h-3.239l7.09,17.39-.735,1.8H1407.42v1.6Z" transform="translate(109.802 581.593)"/>
    <path id="Path_5543" data-name="Path 5543" class="cls-1" d="M1431.267,516.664a9.37,9.37,0,0,0,4.106-3.85,13.15,13.15,0,0,0,0-11.917,9.587,9.587,0,0,0-4.106-3.9,13.811,13.811,0,0,0-6.335-1.36h-6.961V518h6.961A14.06,14.06,0,0,0,1431.267,516.664Zm-10.378-18.654h4.042a9.22,9.22,0,0,1,6.608,15.289q-2.276,2.29-6.608,2.29h-4.042Z" transform="translate(133.096 955.583)"/>
    <path id="Path_5544" data-name="Path 5544" class="cls-1" d="M1428.919,514.076a8.894,8.894,0,0,0,4.475,1.12,8.53,8.53,0,0,0,5.261-1.588,7.56,7.56,0,0,0,2.823-4.122h-3.144a4.657,4.657,0,0,1-1.78,2.358,5.391,5.391,0,0,1-3.16.885,5.526,5.526,0,0,1-5.71-5.521h14.051c.061-.619.1-1.206.1-1.764a8.842,8.842,0,0,0-1.043-4.315,7.6,7.6,0,0,0-2.967-3,8.814,8.814,0,0,0-4.427-1.091,9.073,9.073,0,0,0-4.539,1.11,7.626,7.626,0,0,0-3.063,3.157,10.034,10.034,0,0,0-1.091,4.78,9.887,9.887,0,0,0,1.123,4.8A7.953,7.953,0,0,0,1428.919,514.076Zm.574-13.156a5.425,5.425,0,0,1,3.773-1.408,6.267,6.267,0,0,1,2.807.622,4.814,4.814,0,0,1,2.005,1.829,5.4,5.4,0,0,1,.738,2.874h-11.1A5.764,5.764,0,0,1,1429.493,500.92Z" transform="translate(147.956 958.672)"/>
    <path id="Path_5545" data-name="Path 5545" class="cls-1" d="M1438.094,512.728a4.689,4.689,0,0,1-2.9-.837,2.953,2.953,0,0,1-1.235-2.149h-3.016a5.109,5.109,0,0,0,1.027,2.842,6.116,6.116,0,0,0,2.534,1.922,9.055,9.055,0,0,0,3.625.69,8.067,8.067,0,0,0,3.352-.657,5.368,5.368,0,0,0,2.262-1.809,4.458,4.458,0,0,0,.8-2.6,4,4,0,0,0-.882-2.6,5.339,5.339,0,0,0-2.037-1.492,25.26,25.26,0,0,0-3.08-1.014,24.521,24.521,0,0,1-2.358-.754,4.08,4.08,0,0,1-1.411-.9,1.957,1.957,0,0,1-.562-1.431,2.078,2.078,0,0,1,.931-1.761,4.906,4.906,0,0,1,5.213.157,3.027,3.027,0,0,1,1.107,2.217h2.919a5.324,5.324,0,0,0-1.925-4.045,7.19,7.19,0,0,0-4.716-1.476,8.175,8.175,0,0,0-3.368.658,5.432,5.432,0,0,0-2.277,1.784,4.455,4.455,0,0,0,.08,5.213,5.655,5.655,0,0,0,2.117,1.569,22.973,22.973,0,0,0,3.189,1.043,14.55,14.55,0,0,1,3.179,1.107,1.833,1.833,0,0,1,1.027,1.716,2.251,2.251,0,0,1-.963,1.861A4.209,4.209,0,0,1,1438.094,512.728Z" transform="translate(161.733 958.672)"/>
    <path id="Path_5546" data-name="Path 5546" class="cls-1" d="M1438.3,498.976a1.814,1.814,0,0,0,1.36-.574,2.054,2.054,0,0,0,0-2.823,1.821,1.821,0,0,0-1.36-.581,1.989,1.989,0,1,0,0,3.978Z" transform="translate(173.591 954.168)"/>
    <rect id="Rectangle_1924" data-name="Rectangle 1924" class="cls-1" width="2.92" height="17.581" transform="translate(1610.382 1455.999)"/>
    <path id="Path_5547" data-name="Path 5547" class="cls-1" d="M1448.6,505.208a5.875,5.875,0,0,1,1.363-4.2,4.811,4.811,0,0,1,3.67-1.447,4.705,4.705,0,0,1,3.593,1.4,5.648,5.648,0,0,1,1.315,4.029v9.942h2.89V504.567a7.463,7.463,0,0,0-1.989-5.595,7.125,7.125,0,0,0-5.2-1.944,7.3,7.3,0,0,0-3.291.741,5.791,5.791,0,0,0-2.355,2.082v-2.5h-2.919v17.58h2.919Z" transform="translate(194.279 958.65)"/>
    <path id="Path_5548" data-name="Path 5548" class="cls-1" d="M1486.874,518.114a6.328,6.328,0,0,0,2.57,3.821,9.737,9.737,0,0,0,5.775,1.636,9.034,9.034,0,0,0,4.44-1.059,7.311,7.311,0,0,0,2.935-2.939,7.735,7.735,0,0,0,.561-1.46h23.47v-1.6h-23.139a9.906,9.906,0,0,0,.138-1.216V497.327h-2.952v3.208a6.611,6.611,0,0,0-2.55-2.5,7.821,7.821,0,0,0-3.994-1,8.218,8.218,0,0,0-4.254,1.126,7.894,7.894,0,0,0-3,3.157,9.872,9.872,0,0,0-1.091,4.735,10.064,10.064,0,0,0,1.091,4.745,7.973,7.973,0,0,0,7.25,4.395,7.535,7.535,0,0,0,3.978-1.026,7.05,7.05,0,0,0,2.566-2.566v3.692a8.628,8.628,0,0,1-.09,1.216H1417.2v1.6Zm13-8.549a5.646,5.646,0,0,1-2.165,2.278,5.927,5.927,0,0,1-3,.786,5.818,5.818,0,0,1-2.98-.786,5.629,5.629,0,0,1-2.15-2.278,7.278,7.278,0,0,1-.8-3.509,7.133,7.133,0,0,1,.8-3.465,5.571,5.571,0,0,1,2.15-2.249,6.14,6.14,0,0,1,5.983.016,5.705,5.705,0,0,1,2.165,2.262,7.176,7.176,0,0,1,.8,3.464A7.259,7.259,0,0,1,1499.869,509.565Zm-.722,9.964a5.368,5.368,0,0,1-3.929,1.508,6.52,6.52,0,0,1-3.625-.979,4.633,4.633,0,0,1-1.662-1.944H1500.1A4.764,4.764,0,0,1,1499.148,519.529Z" transform="translate(131.396 958.672)"/>
    <path id="Path_5549" data-name="Path 5549" class="cls-1" d="M1390.757,598.553h4.3q3.912,0,5.822-1.845a6.6,6.6,0,0,0-.064-9.351,8.18,8.18,0,0,0-5.758-1.829h-7.218v22.359h2.919Zm0-10.618h4.3q4.744,0,4.748,4.138a3.885,3.885,0,0,1-1.155,3.015,5.172,5.172,0,0,1-3.593,1.059h-4.3Z" transform="translate(66.566 1154.055)"/>
    <path id="Path_5550" data-name="Path 5550" class="cls-1" d="M1396.547,595.259q0-5.327,4.908-5.325h.773v-3.015a6.8,6.8,0,0,0-3.481.834,5.619,5.619,0,0,0-2.2,2.342v-2.855h-2.919v17.58h2.919Z" transform="translate(79.35 1157.124)"/>
    <path id="Path_5551" data-name="Path 5551" class="cls-1" d="M1401.3,603.962a8.953,8.953,0,0,0,4.472,1.123,9.306,9.306,0,0,0,4.555-1.123,8.329,8.329,0,0,0,3.259-3.192,9.373,9.373,0,0,0,1.2-4.8,9.469,9.469,0,0,0-1.174-4.78,8.1,8.1,0,0,0-3.192-3.16,9.8,9.8,0,0,0-9.047,0,8.058,8.058,0,0,0-3.192,3.176,9.515,9.515,0,0,0-1.167,4.764,9.811,9.811,0,0,0,1.135,4.8A7.974,7.974,0,0,0,1401.3,603.962Zm-.5-11.581a5.27,5.27,0,0,1,2.133-2.2,6.3,6.3,0,0,1,5.854,0,5.466,5.466,0,0,1,2.182,2.2,7.214,7.214,0,0,1,.835,3.593,7.072,7.072,0,0,1-.85,3.593,5.6,5.6,0,0,1-2.23,2.214,6.139,6.139,0,0,1-2.951.738,5.905,5.905,0,0,1-2.887-.722,5.2,5.2,0,0,1-2.1-2.2,7.622,7.622,0,0,1-.786-3.625A7.429,7.429,0,0,1,1400.8,592.381Z" transform="translate(86.837 1157.146)"/>
    <path id="Path_5552" data-name="Path 5552" class="cls-1" d="M1407.508,607.974a8.078,8.078,0,0,0,4.25,1.152,7.65,7.65,0,0,0,3.978-1.011,6.833,6.833,0,0,0,2.566-2.582v3.3h2.954V585.1H1418.3v9.3a6.845,6.845,0,0,0-2.695-2.486,7.933,7.933,0,0,0-3.818-.946,8.3,8.3,0,0,0-4.283,1.123,7.912,7.912,0,0,0-3,3.16,9.863,9.863,0,0,0-1.091,4.732,10.073,10.073,0,0,0,1.091,4.748A8.075,8.075,0,0,0,1407.508,607.974Zm-.3-11.456a5.607,5.607,0,0,1,2.149-2.246,6.142,6.142,0,0,1,5.983.016,5.665,5.665,0,0,1,2.165,2.262,7.143,7.143,0,0,1,.8,3.464,7.237,7.237,0,0,1-.8,3.481,5.627,5.627,0,0,1-2.165,2.278,5.909,5.909,0,0,1-3,.786,5.826,5.826,0,0,1-2.984-.786,5.675,5.675,0,0,1-2.149-2.278,7.337,7.337,0,0,1-.8-3.513A7.176,7.176,0,0,1,1407.2,596.518Z" transform="translate(100.966 1153.106)"/>
    <path id="Path_5553" data-name="Path 5553" class="cls-1" d="M1413.993,604a7.891,7.891,0,0,0,3.693.85,7.175,7.175,0,0,0,3.288-.754,5.684,5.684,0,0,0,2.326-2.1v2.6h2.919v-17.58H1423.3v9.656a5.939,5.939,0,0,1-1.348,4.2,4.8,4.8,0,0,1-3.692,1.444,4.72,4.72,0,0,1-3.593-1.392,5.624,5.624,0,0,1-1.312-4v-9.912h-2.887v10.3a8.388,8.388,0,0,0,.946,4.135A6.178,6.178,0,0,0,1413.993,604Z" transform="translate(116.532 1157.345)"/>
    <path id="Path_5554" data-name="Path 5554" class="cls-1" d="M1420.7,603.962a8.706,8.706,0,0,0,4.446,1.123,8.439,8.439,0,0,0,5.29-1.62,7.709,7.709,0,0,0,2.823-4.315h-3.141a4.552,4.552,0,0,1-1.764,2.567,5.465,5.465,0,0,1-3.208.9,5.161,5.161,0,0,1-4.045-1.732,7.159,7.159,0,0,1-1.536-4.908,7.049,7.049,0,0,1,1.536-4.86,5.19,5.19,0,0,1,4.045-1.716,5.417,5.417,0,0,1,3.224.93,4.539,4.539,0,0,1,1.748,2.534h3.141a7.4,7.4,0,0,0-2.771-4.363,9.631,9.631,0,0,0-9.787-.449,7.877,7.877,0,0,0-3.029,3.16,9.948,9.948,0,0,0-1.091,4.764,10.109,10.109,0,0,0,1.091,4.812A7.817,7.817,0,0,0,1420.7,603.962Z" transform="translate(130.023 1157.146)"/>
    <path id="Path_5555" data-name="Path 5555" class="cls-1" d="M1424.755,602.833a4.811,4.811,0,0,0,1.219,3.689,5.222,5.222,0,0,0,3.657,1.123h2.63v-2.467h-2.149a2.687,2.687,0,0,1-1.893-.533,2.455,2.455,0,0,1-.545-1.812V592.471h4.587v-2.406h-4.587v-4.427h-2.92v4.427h-2.277v2.406h2.277Z" transform="translate(143.05 1154.298)"/>
    <path id="Path_5556" data-name="Path 5556" class="cls-1" d="M1428.467,588.866a1.819,1.819,0,0,0,1.36-.577,2.055,2.055,0,0,0,0-2.823,1.818,1.818,0,0,0-1.36-.577,1.989,1.989,0,1,0,0,3.978Z" transform="translate(151.882 1152.642)"/>
    <rect id="Rectangle_1925" data-name="Rectangle 1925" class="cls-1" width="2.92" height="17.581" transform="translate(1578.841 1744.362)"/>
    <path id="Path_5557" data-name="Path 5557" class="cls-1" d="M1433.031,603.962a8.965,8.965,0,0,0,4.475,1.123,9.294,9.294,0,0,0,4.552-1.123,8.33,8.33,0,0,0,3.259-3.192,9.373,9.373,0,0,0,1.2-4.8,9.5,9.5,0,0,0-1.171-4.78,8.1,8.1,0,0,0-3.192-3.16,9.8,9.8,0,0,0-9.05,0,8.081,8.081,0,0,0-3.192,3.176,9.515,9.515,0,0,0-1.167,4.764,9.775,9.775,0,0,0,1.139,4.8A7.965,7.965,0,0,0,1433.031,603.962Zm-.5-11.581a5.247,5.247,0,0,1,2.134-2.2,6.3,6.3,0,0,1,5.854,0,5.49,5.49,0,0,1,2.182,2.2,7.215,7.215,0,0,1,.831,3.593,7.072,7.072,0,0,1-.847,3.593,5.6,5.6,0,0,1-2.233,2.214,6.129,6.129,0,0,1-2.948.738,5.916,5.916,0,0,1-2.89-.722,5.209,5.209,0,0,1-2.1-2.2,7.618,7.618,0,0,1-.786-3.625A7.426,7.426,0,0,1,1432.533,592.381Z" transform="translate(156.894 1157.146)"/>
    <path id="Path_5558" data-name="Path 5558" class="cls-1" d="M1438.406,595.1a5.9,5.9,0,0,1,1.363-4.2,4.812,4.812,0,0,1,3.676-1.444,4.722,4.722,0,0,1,3.593,1.4,5.675,5.675,0,0,1,1.312,4.026v9.945h2.887V594.457a7.478,7.478,0,0,0-1.989-5.6,7.125,7.125,0,0,0-5.2-1.941,7.31,7.31,0,0,0-3.285.738,5.8,5.8,0,0,0-2.361,2.085v-2.5h-2.919v17.58h2.919Z" transform="translate(171.773 1157.124)"/>
    <rect id="Rectangle_1926" data-name="Rectangle 1926" class="cls-1" width="173.387" height="1.604" transform="translate(1451.935 1763.547)"/>
    <path id="Path_5559" data-name="Path 5559" class="cls-1" d="M1428.9,687.992a9.389,9.389,0,0,0,4.1-3.853,13.117,13.117,0,0,0,0-11.914,9.543,9.543,0,0,0-4.1-3.9,13.784,13.784,0,0,0-6.339-1.363H1415.6v22.359h6.962A14.118,14.118,0,0,0,1428.9,687.992Zm-10.378-18.658h4.039a9.22,9.22,0,0,1,6.611,15.289q-2.281,2.291-6.611,2.294h-4.039Z" transform="translate(127.873 1333.863)"/>
    <path id="Path_5560" data-name="Path 5560" class="cls-1" d="M1426.551,685.4a8.907,8.907,0,0,0,4.478,1.12,8.531,8.531,0,0,0,5.261-1.588,7.526,7.526,0,0,0,2.82-4.122h-3.141a4.669,4.669,0,0,1-1.783,2.361,5.4,5.4,0,0,1-3.157.882,5.52,5.52,0,0,1-5.71-5.521h14.051c.061-.619.1-1.206.1-1.765a8.855,8.855,0,0,0-1.043-4.311,7.608,7.608,0,0,0-2.967-3,8.861,8.861,0,0,0-4.427-1.091,9.108,9.108,0,0,0-4.539,1.11,7.629,7.629,0,0,0-3.064,3.157,10.042,10.042,0,0,0-1.091,4.783,9.881,9.881,0,0,0,1.123,4.8A7.965,7.965,0,0,0,1426.551,685.4Zm.577-13.156a5.419,5.419,0,0,1,3.773-1.408,6.268,6.268,0,0,1,2.807.622,4.818,4.818,0,0,1,2.005,1.829,5.4,5.4,0,0,1,.735,2.874h-11.1A5.766,5.766,0,0,1,1427.128,672.245Z" transform="translate(142.734 1336.952)"/>
    <rect id="Rectangle_1927" data-name="Rectangle 1927" class="cls-1" width="2.92" height="23.74" transform="translate(1607.734 1999.445)"/>
    <path id="Path_5561" data-name="Path 5561" class="cls-1" d="M1442.038,685.4a8.994,8.994,0,0,0,4.472,1.12,9.332,9.332,0,0,0,4.555-1.12,8.376,8.376,0,0,0,3.259-3.192,9.373,9.373,0,0,0,1.2-4.8,9.506,9.506,0,0,0-1.171-4.783,8.118,8.118,0,0,0-3.192-3.157,9.779,9.779,0,0,0-9.05,0,8.054,8.054,0,0,0-3.192,3.173,9.533,9.533,0,0,0-1.168,4.767,9.814,9.814,0,0,0,1.136,4.8A8.033,8.033,0,0,0,1442.038,685.4Zm-.5-11.584a5.237,5.237,0,0,1,2.133-2.194,6.274,6.274,0,0,1,5.855,0,5.454,5.454,0,0,1,2.178,2.194,7.219,7.219,0,0,1,.834,3.6,7.114,7.114,0,0,1-.847,3.593,5.621,5.621,0,0,1-2.232,2.21,6.136,6.136,0,0,1-2.952.741,5.942,5.942,0,0,1-2.887-.722,5.22,5.22,0,0,1-2.1-2.2,7.6,7.6,0,0,1-.786-3.622A7.424,7.424,0,0,1,1441.541,673.817Z" transform="translate(176.781 1336.952)"/>
    <path id="Path_5562" data-name="Path 5562" class="cls-1" d="M1459.875,689.443v5.13h2.919v-5.13h50.8l-2.072,5.068h3.012l2.076-5.068h8.96v-1.6h-8.3l7.856-19.187h-3.019l-5.454,14.246-5.518-14.246H1507.9l7.09,17.391-.734,1.8h-51.459v-4.844a7.235,7.235,0,0,0,2.614,2.518,7.654,7.654,0,0,0,3.962,1.007,7.983,7.983,0,0,0,7.25-4.395,10.092,10.092,0,0,0,1.091-4.745,9.907,9.907,0,0,0-1.091-4.735,7.906,7.906,0,0,0-3-3.157,8.218,8.218,0,0,0-4.251-1.126,7.716,7.716,0,0,0-3.994,1.014,6.935,6.935,0,0,0-2.582,2.518v-3.243h-2.919v19.187h-45.04v1.6Zm3.737-15.482a5.749,5.749,0,0,1,5.149-3.063,5.978,5.978,0,0,1,3,.773,5.558,5.558,0,0,1,2.166,2.246,7.169,7.169,0,0,1,.8,3.465,7.336,7.336,0,0,1-.8,3.513,5.685,5.685,0,0,1-2.166,2.278,5.923,5.923,0,0,1-3,.786,5.851,5.851,0,0,1-2.968-.786,5.788,5.788,0,0,1-2.181-2.278,7.751,7.751,0,0,1,0-6.933Z" transform="translate(126.174 1336.952)"/>
    <path id="Path_5563" data-name="Path 5563" class="cls-1" d="M1645.4,108.3,1382.218,260.253,1645.4,412.2Zm-3.208,298.341L1388.634,260.253l253.558-146.389Z" transform="translate(54.157 100.36)"/>
    <path id="Path_5564" data-name="Path 5564" class="cls-1" d="M1382.718,501.4,1645.9,349.456,1382.718,197.5Zm3.208-298.341,253.558,146.392L1385.926,495.845Z" transform="translate(55.261 297.31)"/>
    <path id="Path_5565" data-name="Path 5565" class="cls-1" d="M1645.4,584.005v-303.9L1382.218,432.057Zm-3.208-5.556L1388.634,432.057l253.558-146.392Z" transform="translate(54.157 479.697)"/>
    <path id="Path_5566" data-name="Path 5566" class="cls-1" d="M1382.718,369.308v303.9L1645.9,521.257Zm3.208,5.556,253.558,146.392L1385.926,667.649Z" transform="translate(55.261 676.648)"/>
    <path id="Path_5567" data-name="Path 5567" class="cls-1" d="M1645.4,755.809v-303.9L1382.218,603.861l260.776,150.556Zm-3.208-5.56L1388.634,603.861l253.558-146.393Z" transform="translate(54.157 859.035)"/>
    <path id="Path_5568" data-name="Path 5568" class="cls-1" d="M1385.124,542.5l-2.406-1.392v303.9L1645.9,693.063Zm.8,4.167,253.558,146.392L1385.926,839.452Z" transform="translate(55.261 1055.984)"/>
    <path id="Path_5569" data-name="Path 5569" class="cls-1" d="M1642.994,926.223l2.406,1.389v-303.9L1382.218,775.664Zm-.8-4.167L1388.634,775.664l253.558-146.392Z" transform="translate(54.157 1238.371)"/>
    <path id="Path_5570" data-name="Path 5570" class="cls-1" d="M1394.073,425.848h4.3q3.917,0,5.825-1.845a6.606,6.606,0,0,0-.067-9.351,8.179,8.179,0,0,0-5.758-1.829h-7.218v22.36h2.919Zm0-10.618h4.3q4.749,0,4.751,4.138a3.875,3.875,0,0,1-1.158,3.015,5.188,5.188,0,0,1-3.593,1.059h-4.3Z" transform="translate(73.888 772.73)"/>
    <rect id="Rectangle_1928" data-name="Rectangle 1928" class="cls-1" width="2.92" height="23.739" transform="translate(1483.617 1184.175)"/>
    <path id="Path_5571" data-name="Path 5571" class="cls-1" d="M1403.141,431.226a7.96,7.96,0,0,0,4.232,1.155,7.716,7.716,0,0,0,3.994-1.01,6.869,6.869,0,0,0,2.582-2.55v3.272h2.955v-17.58h-2.955v3.208a6.6,6.6,0,0,0-2.534-2.5,7.769,7.769,0,0,0-4.01-.994,8.225,8.225,0,0,0-4.247,1.123,7.922,7.922,0,0,0-3,3.16,9.9,9.9,0,0,0-1.091,4.732,10.118,10.118,0,0,0,1.091,4.748A8.106,8.106,0,0,0,1403.141,431.226Zm-.292-11.452a5.608,5.608,0,0,1,2.149-2.246,6.141,6.141,0,0,1,5.983.016,5.621,5.621,0,0,1,2.165,2.262,7.139,7.139,0,0,1,.8,3.465,7.221,7.221,0,0,1-.8,3.481,5.6,5.6,0,0,1-2.165,2.278,5.894,5.894,0,0,1-3,.786,5.834,5.834,0,0,1-2.986-.786,5.7,5.7,0,0,1-2.149-2.278,7.339,7.339,0,0,1-.8-3.513A7.179,7.179,0,0,1,1402.849,419.774Z" transform="translate(91.352 775.821)"/>
    <path id="Path_5572" data-name="Path 5572" class="cls-1" d="M1409.083,422.394a5.9,5.9,0,0,1,1.363-4.2,4.812,4.812,0,0,1,3.676-1.444,4.709,4.709,0,0,1,3.593,1.4,5.67,5.67,0,0,1,1.312,4.026v9.945h2.887V421.753a7.473,7.473,0,0,0-1.989-5.6,7.124,7.124,0,0,0-5.2-1.941,7.308,7.308,0,0,0-3.285.738,5.777,5.777,0,0,0-2.361,2.085v-2.5h-2.92v17.58h2.92Z" transform="translate(107.029 775.799)"/>
    <path id="Path_5573" data-name="Path 5573" class="cls-1" d="M1415.487,422.394a5.9,5.9,0,0,1,1.36-4.2,4.814,4.814,0,0,1,3.673-1.444,4.7,4.7,0,0,1,3.593,1.4,5.642,5.642,0,0,1,1.315,4.026v9.945h2.891V421.753a7.462,7.462,0,0,0-1.992-5.6,7.136,7.136,0,0,0-5.2-1.941,7.332,7.332,0,0,0-3.288.738,5.759,5.759,0,0,0-2.355,2.085v-2.5h-2.923v17.58h2.923Z" transform="translate(121.16 775.799)"/>
    <path id="Path_5574" data-name="Path 5574" class="cls-1" d="M1420.807,416.162a1.828,1.828,0,0,0,1.36-.577,2.055,2.055,0,0,0,0-2.823,1.828,1.828,0,0,0-1.36-.578,1.989,1.989,0,1,0,0,3.978Z" transform="translate(134.96 771.317)"/>
    <rect id="Rectangle_1929" data-name="Rectangle 1929" class="cls-1" width="2.92" height="17.58" transform="translate(1554.255 1190.334)"/>
    <path id="Path_5575" data-name="Path 5575" class="cls-1" d="M1424.344,422.394a5.9,5.9,0,0,1,1.363-4.2,4.81,4.81,0,0,1,3.673-1.444,4.7,4.7,0,0,1,3.593,1.4,5.656,5.656,0,0,1,1.315,4.026v9.945h2.887V421.753a7.474,7.474,0,0,0-1.989-5.6,7.126,7.126,0,0,0-5.2-1.941,7.33,7.33,0,0,0-3.288.738,5.786,5.786,0,0,0-2.358,2.085v-2.5h-2.919v17.58h2.919Z" transform="translate(140.723 775.799)"/>
    <path id="Path_5576" data-name="Path 5576" class="cls-1" d="M1529.7,433.7H1527.1a9.909,9.909,0,0,0,.138-1.219V414.513h-2.951v3.208a6.6,6.6,0,0,0-2.55-2.5,7.8,7.8,0,0,0-3.994-.994,8.237,8.237,0,0,0-4.25,1.123,7.937,7.937,0,0,0-3,3.16,9.9,9.9,0,0,0-1.09,4.732,10.121,10.121,0,0,0,1.09,4.748,8,8,0,0,0,7.25,4.395,7.546,7.546,0,0,0,3.978-1.027,7.026,7.026,0,0,0,2.567-2.566v3.689a8.136,8.136,0,0,1-.09,1.219H1390.385v1.6h120.1a6.32,6.32,0,0,0,2.57,3.818,9.743,9.743,0,0,0,5.774,1.636,9.02,9.02,0,0,0,4.443-1.059,7.324,7.324,0,0,0,2.936-2.935,8.125,8.125,0,0,0,.558-1.46h2.938Zm-6.223-6.945a5.643,5.643,0,0,1-2.166,2.278,5.913,5.913,0,0,1-3,.786,5.823,5.823,0,0,1-2.984-.786,5.65,5.65,0,0,1-2.149-2.278,7.3,7.3,0,0,1-.8-3.513,7.141,7.141,0,0,1,.8-3.465,5.563,5.563,0,0,1,2.149-2.246,6.141,6.141,0,0,1,5.983.016,5.662,5.662,0,0,1,2.166,2.262,7.178,7.178,0,0,1,.8,3.465A7.26,7.26,0,0,1,1523.48,426.751Zm-.721,9.961a5.357,5.357,0,0,1-3.93,1.508,6.521,6.521,0,0,1-3.625-.979,4.648,4.648,0,0,1-1.662-1.941h10.166A4.748,4.748,0,0,1,1522.759,436.712Z" transform="translate(72.189 775.821)"/>
    <path id="Path_5577" data-name="Path 5577" class="cls-1" d="M1403.85,173.185a11.836,11.836,0,0,0,11.388,0,10.638,10.638,0,0,0,4.042-4.061,12.541,12.541,0,0,0,0-11.805,10.6,10.6,0,0,0-4.042-4.055,11.836,11.836,0,0,0-11.388,0,10.661,10.661,0,0,0-4.058,4.071,12.363,12.363,0,0,0,0,11.773A10.677,10.677,0,0,0,1403.85,173.185Zm-1.495-14.664a7.757,7.757,0,0,1,2.935-3.092,8.771,8.771,0,0,1,8.472,0,7.711,7.711,0,0,1,2.935,3.092,10.777,10.777,0,0,1,0,9.383,7.682,7.682,0,0,1-2.951,3.115,8.7,8.7,0,0,1-8.437,0,7.712,7.712,0,0,1-2.955-3.115,10.779,10.779,0,0,1,0-9.383Z" transform="translate(89.666 196.406)"/>
    <path id="Path_5578" data-name="Path 5578" class="cls-1" d="M1409.419,161.453a5.891,5.891,0,0,1,1.363-4.2,4.81,4.81,0,0,1,3.67-1.447,4.718,4.718,0,0,1,3.6,1.4,5.662,5.662,0,0,1,1.315,4.029v9.945h2.887V160.812a7.464,7.464,0,0,0-1.989-5.595,7.138,7.138,0,0,0-5.2-1.944,7.324,7.324,0,0,0-3.288.741,5.78,5.78,0,0,0-2.358,2.082v-2.5H1406.5v17.583h2.919Z" transform="translate(107.771 199.65)"/>
    <path id="Path_5579" data-name="Path 5579" class="cls-1" d="M1415.822,171.955a6.778,6.778,0,0,0,2.579,2.534,7.857,7.857,0,0,0,3.994.991,7.982,7.982,0,0,0,7.253-4.395,10.064,10.064,0,0,0,1.091-4.745,9.872,9.872,0,0,0-1.091-4.735,7.942,7.942,0,0,0-2.987-3.157,8.175,8.175,0,0,0-4.266-1.126,7.754,7.754,0,0,0-3.943,1,6.86,6.86,0,0,0-2.63,2.566v-9.435H1412.9V175.2h2.923Zm.815-9.034a5.774,5.774,0,0,1,2.184-2.278,5.841,5.841,0,0,1,2.967-.786,5.978,5.978,0,0,1,3,.77,5.55,5.55,0,0,1,2.166,2.249,7.132,7.132,0,0,1,.8,3.465,7.278,7.278,0,0,1-.8,3.51,5.607,5.607,0,0,1-2.166,2.278,6.028,6.028,0,0,1-5.964,0,5.731,5.731,0,0,1-2.184-2.278,7.774,7.774,0,0,1,0-6.929Z" transform="translate(121.9 195.631)"/>
    <path id="Path_5580" data-name="Path 5580" class="cls-1" d="M1423.6,170.32a9,9,0,0,0,4.475,1.12,9.349,9.349,0,0,0,4.555-1.12,8.387,8.387,0,0,0,3.256-3.192,9.373,9.373,0,0,0,1.2-4.8,9.5,9.5,0,0,0-1.171-4.783,8.094,8.094,0,0,0-3.192-3.157,9.771,9.771,0,0,0-9.046,0,8.033,8.033,0,0,0-3.192,3.173,9.506,9.506,0,0,0-1.171,4.767,9.776,9.776,0,0,0,1.14,4.8A8.006,8.006,0,0,0,1423.6,170.32Zm-.5-11.584a5.257,5.257,0,0,1,2.133-2.194,6.272,6.272,0,0,1,5.854,0,5.461,5.461,0,0,1,2.182,2.194,7.218,7.218,0,0,1,.834,3.6,7.081,7.081,0,0,1-.85,3.593,5.609,5.609,0,0,1-2.229,2.21,6.143,6.143,0,0,1-2.951.741,5.96,5.96,0,0,1-2.89-.722,5.217,5.217,0,0,1-2.1-2.2,7.594,7.594,0,0,1-.786-3.622A7.43,7.43,0,0,1,1423.106,158.737Z" transform="translate(136.077 199.672)"/>
    <path id="Path_5581" data-name="Path 5581" class="cls-1" d="M1429.794,170.288a7.991,7.991,0,0,0,4.235,1.152,7.73,7.73,0,0,0,3.994-1.007,6.883,6.883,0,0,0,2.579-2.55v3.272h2.955V153.572H1440.6v3.208a6.588,6.588,0,0,0-2.535-2.5,7.771,7.771,0,0,0-4.01-1,8.2,8.2,0,0,0-4.247,1.126,7.885,7.885,0,0,0-3,3.157,9.872,9.872,0,0,0-1.091,4.735,10.064,10.064,0,0,0,1.091,4.745A8.089,8.089,0,0,0,1429.794,170.288Zm-.292-11.452a5.634,5.634,0,0,1,2.149-2.249,6.147,6.147,0,0,1,5.986.016,5.677,5.677,0,0,1,2.162,2.262,7.919,7.919,0,0,1,0,6.945,5.618,5.618,0,0,1-2.162,2.278,5.887,5.887,0,0,1-3,.789,5.816,5.816,0,0,1-2.987-.789,5.693,5.693,0,0,1-2.149-2.278,7.313,7.313,0,0,1-.8-3.51A7.166,7.166,0,0,1,1429.5,158.836Z" transform="translate(150.208 199.672)"/>
    <path id="Path_5582" data-name="Path 5582" class="cls-1" d="M1435.738,161.614q0-5.322,4.911-5.322h.77v-3.019a6.793,6.793,0,0,0-3.48.834,5.628,5.628,0,0,0-2.2,2.345v-2.858h-2.919v17.583h2.919Z" transform="translate(165.883 199.65)"/>
    <path id="Path_5583" data-name="Path 5583" class="cls-1" d="M1440.3,174.329a8.089,8.089,0,0,0,4.254,1.152,7.645,7.645,0,0,0,3.978-1.007,6.865,6.865,0,0,0,2.566-2.586V175.2h2.951V151.453H1451.1v9.306a6.852,6.852,0,0,0-2.695-2.489,7.989,7.989,0,0,0-3.821-.946,8.275,8.275,0,0,0-4.282,1.126,7.9,7.9,0,0,0-3,3.157,9.87,9.87,0,0,0-1.091,4.735,10.062,10.062,0,0,0,1.091,4.745A8.049,8.049,0,0,0,1440.3,174.329Zm-.3-11.452a5.576,5.576,0,0,1,2.15-2.249,6.141,6.141,0,0,1,5.983.016,5.7,5.7,0,0,1,2.165,2.262,7.917,7.917,0,0,1,0,6.945,5.644,5.644,0,0,1-2.165,2.278,5.9,5.9,0,0,1-3,.789,5.782,5.782,0,0,1-2.98-.789,5.634,5.634,0,0,1-2.15-2.278,7.282,7.282,0,0,1-.8-3.51A7.136,7.136,0,0,1,1440,162.877Z" transform="translate(173.369 195.631)"/>
    <path id="Path_5584" data-name="Path 5584" class="cls-1" d="M1445.148,155.221a1.822,1.822,0,0,0,1.363-.574,2.054,2.054,0,0,0,0-2.823,1.828,1.828,0,0,0-1.363-.581,1.989,1.989,0,1,0,0,3.978Z" transform="translate(188.713 195.168)"/>
    <rect id="Rectangle_1930" data-name="Rectangle 1930" class="cls-1" width="2.92" height="17.581" transform="translate(1632.355 353.244)"/>
    <path id="Path_5585" data-name="Path 5585" class="cls-1" d="M1448.689,161.453a5.89,5.89,0,0,1,1.36-4.2,4.821,4.821,0,0,1,3.673-1.447,4.706,4.706,0,0,1,3.593,1.4,5.651,5.651,0,0,1,1.315,4.029v9.945h2.891V160.812a7.466,7.466,0,0,0-1.989-5.595,7.147,7.147,0,0,0-5.2-1.944,7.337,7.337,0,0,0-3.288.741,5.752,5.752,0,0,0-2.354,2.082v-2.5h-2.919v17.583h2.919Z" transform="translate(194.478 199.65)"/>
    <path id="Path_5586" data-name="Path 5586" class="cls-1" d="M1572.056,174.363a6.359,6.359,0,0,0,2.57,3.818,9.746,9.746,0,0,0,5.777,1.636,9.036,9.036,0,0,0,4.44-1.059,7.342,7.342,0,0,0,2.935-2.935,8.192,8.192,0,0,0,.562-1.46h2.935v-1.6h-2.6a9.932,9.932,0,0,0,.138-1.219V153.572h-2.954v3.208a6.615,6.615,0,0,0-2.551-2.5,7.819,7.819,0,0,0-3.994-1,8.208,8.208,0,0,0-4.25,1.126,7.91,7.91,0,0,0-3,3.157,9.876,9.876,0,0,0-1.09,4.735,10.068,10.068,0,0,0,1.09,4.745,7.984,7.984,0,0,0,7.25,4.395,7.535,7.535,0,0,0,3.978-1.027,7.008,7.008,0,0,0,2.567-2.566v3.692a8.616,8.616,0,0,1-.09,1.219H1397.87v1.6Zm13-8.552a5.625,5.625,0,0,1-2.166,2.278,5.877,5.877,0,0,1-3,.789,5.805,5.805,0,0,1-2.984-.789,5.676,5.676,0,0,1-2.149-2.278,7.314,7.314,0,0,1-.8-3.51,7.168,7.168,0,0,1,.8-3.465,5.617,5.617,0,0,1,2.149-2.249,6.141,6.141,0,0,1,5.983.016,5.684,5.684,0,0,1,2.166,2.262,7.919,7.919,0,0,1,0,6.945Zm-.722,9.964a5.356,5.356,0,0,1-3.927,1.508,6.5,6.5,0,0,1-3.625-.978,4.645,4.645,0,0,1-1.662-1.941h10.163A4.8,4.8,0,0,1,1584.33,175.774Z" transform="translate(88.716 199.672)"/>
    <path id="Path_5587" data-name="Path 5587" class="cls-1" d="M1376.62,686.841a36.34,36.34,0,0,1-5.492-4.036l-8.552,9.566a49.063,49.063,0,0,0,7.443,5.473Z" transform="translate(10.788 1368.84)"/>
    <rect id="Rectangle_1931" data-name="Rectangle 1931" class="cls-1" width="16.065" height="12.83" transform="matrix(0.876, -0.483, 0.483, 0.876, 1664.939, 1827.932)"/>
    <rect id="Rectangle_1932" data-name="Rectangle 1932" class="cls-1" width="16.063" height="12.83" transform="translate(1655.161 1277.784) rotate(-29.24)"/>
    <rect id="Rectangle_1933" data-name="Rectangle 1933" class="cls-1" width="12.831" height="16.063" transform="matrix(0.505, -0.863, 0.863, 0.505, 1624.579, 545.005)"/>
    <path id="Path_5588" data-name="Path 5588" class="cls-1" d="M1371.178,164.181l-8.235,9.842a49.56,49.56,0,0,0,6.711,4.716l7.7,4.51,6.484-11.074-7.693-4.507A36.464,36.464,0,0,1,1371.178,164.181Z" transform="translate(11.599 223.734)"/>
    <path id="Path_5589" data-name="Path 5589" class="cls-1" d="M1359.989,330.21l11.193,6.285a33.944,33.944,0,0,1,8.758-10.182l-7.908-10.112A46.846,46.846,0,0,0,1359.989,330.21Z" transform="translate(5.076 559.39)"/>
    <path id="Path_5590" data-name="Path 5590" class="cls-1" d="M1370.814,505.575l-12.187,4.01a46.784,46.784,0,0,0,9.088,16.082l9.711-8.389A34.072,34.072,0,0,1,1370.814,505.575Z" transform="translate(2.069 977.522)"/>
    <rect id="Rectangle_1934" data-name="Rectangle 1934" class="cls-1" width="16.066" height="12.831" transform="translate(1391.813 866.845) rotate(-28.461)"/>
    <path id="Path_5591" data-name="Path 5591" class="cls-1" d="M1371.3,334.5l-10.2,7.776a47.848,47.848,0,0,0,13.792,12.209l6.534-11.042A35.129,35.129,0,0,1,1371.3,334.5Z" transform="translate(7.52 599.8)"/>
    <path id="Path_5592" data-name="Path 5592" class="cls-1" d="M1370.714,514.227a35.07,35.07,0,0,1,3.426-13.063l-11.555-5.585a47.858,47.858,0,0,0-4.677,17.817Z" transform="translate(0.479 955.451)"/>
    <path id="Path_5593" data-name="Path 5593" class="cls-1" d="M1358.081,332.07a48.729,48.729,0,0,0,1.588,12.312l12.411-3.259a35.808,35.808,0,0,1-1.167-9.059,36.374,36.374,0,0,1,.276-4.453l-12.733-1.582A48.928,48.928,0,0,0,1358.081,332.07Z" transform="translate(0.864 581.09)"/>
    <rect id="Rectangle_1935" data-name="Rectangle 1935" class="cls-1" width="12.831" height="16.062" transform="matrix(0.505, -0.863, 0.863, 0.505, 1396.291, 962.423)"/>
    <rect id="Rectangle_1936" data-name="Rectangle 1936" class="cls-1" width="16.063" height="12.83" transform="matrix(0.876, -0.483, 0.483, 0.876, 1580.549, 1874.481)"/>
    <rect id="Rectangle_1937" data-name="Rectangle 1937" class="cls-1" width="16.065" height="12.83" transform="matrix(0.876, -0.483, 0.483, 0.876, 1439.892, 1952.072)"/>
    <rect id="Rectangle_1938" data-name="Rectangle 1938" class="cls-1" width="16.065" height="12.83" transform="matrix(0.876, -0.483, 0.483, 0.876, 1608.677, 1858.965)"/>
    <rect id="Rectangle_1939" data-name="Rectangle 1939" class="cls-1" width="12.831" height="16.063" transform="matrix(0.505, -0.863, 0.863, 0.505, 1680.02, 577.481)"/>
    <rect id="Rectangle_1940" data-name="Rectangle 1940" class="cls-1" width="16.063" height="12.83" transform="matrix(0.876, -0.483, 0.483, 0.876, 1468.025, 1936.551)"/>
    <rect id="Rectangle_1941" data-name="Rectangle 1941" class="cls-1" width="16.063" height="12.83" transform="matrix(0.876, -0.483, 0.483, 0.876, 1496.155, 1921.035)"/>
    <rect id="Rectangle_1942" data-name="Rectangle 1942" class="cls-1" width="16.065" height="12.83" transform="matrix(0.876, -0.483, 0.483, 0.876, 1552.415, 1890.002)"/>
    <rect id="Rectangle_1943" data-name="Rectangle 1943" class="cls-1" width="12.831" height="16.062" transform="matrix(0.505, -0.863, 0.863, 0.505, 1485.973, 463.815)"/>
    <rect id="Rectangle_1944" data-name="Rectangle 1944" class="cls-1" width="12.831" height="16.066" transform="matrix(0.505, -0.863, 0.863, 0.505, 1569.136, 512.529)"/>
    <rect id="Rectangle_1945" data-name="Rectangle 1945" class="cls-1" width="12.831" height="16.063" transform="matrix(0.505, -0.863, 0.863, 0.505, 1513.694, 480.053)"/>
    <rect id="Rectangle_1946" data-name="Rectangle 1946" class="cls-1" width="12.831" height="16.062" transform="matrix(0.505, -0.863, 0.863, 0.505, 1541.417, 496.291)"/>
    <rect id="Rectangle_1947" data-name="Rectangle 1947" class="cls-1" width="12.831" height="16.062" transform="matrix(0.505, -0.863, 0.863, 0.505, 1596.857, 528.767)"/>
    <rect id="Rectangle_1948" data-name="Rectangle 1948" class="cls-1" width="12.831" height="16.065" transform="matrix(0.505, -0.863, 0.863, 0.505, 1652.299, 561.243)"/>
    <rect id="Rectangle_1949" data-name="Rectangle 1949" class="cls-1" width="16.062" height="12.83" transform="matrix(0.876, -0.483, 0.483, 0.876, 1636.809, 1843.449)"/>
    <rect id="Rectangle_1950" data-name="Rectangle 1950" class="cls-1" width="16.063" height="12.832" transform="translate(1420.053 851.532) rotate(-28.492)"/>
    <rect id="Rectangle_1951" data-name="Rectangle 1951" class="cls-1" width="12.83" height="16.065" transform="translate(1383.959 1514.435) rotate(-59.898)"/>
    <rect id="Rectangle_1952" data-name="Rectangle 1952" class="cls-1" width="16.06" height="12.83" transform="translate(1383.634 1983.105) rotate(-28.881)"/>
    <path id="Path_5594" data-name="Path 5594" class="cls-1" d="M1377.631,502.652l6.089-3.407-6.265-11.2-6.088,3.41a48.883,48.883,0,0,0-8.517,6.031l8.5,9.611A36.208,36.208,0,0,1,1377.631,502.652Z" transform="translate(11.389 938.818)"/>
    <rect id="Rectangle_1953" data-name="Rectangle 1953" class="cls-1" width="16.065" height="12.833" transform="translate(1402.858 1419.019) rotate(-29.243)"/>
    <rect id="Rectangle_1954" data-name="Rectangle 1954" class="cls-1" width="12.831" height="16.066" transform="matrix(0.505, -0.863, 0.863, 0.505, 1458.251, 447.577)"/>
    <path id="Path_5595" data-name="Path 5595" class="cls-1" d="M1358.444,680.956l12.168,4.077a34.166,34.166,0,0,1,6.675-11.671l-9.672-8.434A46.94,46.94,0,0,0,1358.444,680.956Z" transform="translate(1.665 1329.37)"/>
    <rect id="Rectangle_1955" data-name="Rectangle 1955" class="cls-1" width="16.065" height="12.83" transform="matrix(0.876, -0.483, 0.483, 0.876, 1524.286, 1905.519)"/>
    <rect id="Rectangle_1956" data-name="Rectangle 1956" class="cls-1" width="16.063" height="12.834" transform="translate(1689.833 145.112) rotate(-29.544)"/>
    <rect id="Rectangle_1957" data-name="Rectangle 1957" class="cls-1" width="12.832" height="16.064" transform="matrix(0.502, -0.865, 0.865, 0.502, 1689.659, 1691.737)"/>
    <rect id="Rectangle_1958" data-name="Rectangle 1958" class="cls-1" width="16.063" height="12.834" transform="translate(1717.783 129.275) rotate(-29.544)"/>
    <path id="Path_5596" data-name="Path 5596" class="cls-1" d="M1484.389,246.254a35.851,35.851,0,0,1,4.006,2.714l7.9-10.108a48.292,48.292,0,0,0-5.428-3.68l-8.931-5.235-6.487,11.071Z" transform="translate(260.013 368.939)"/>
    <rect id="Rectangle_1959" data-name="Rectangle 1959" class="cls-1" width="16.063" height="12.834" transform="translate(1661.879 160.949) rotate(-29.544)"/>
    <rect id="Rectangle_1960" data-name="Rectangle 1960" class="cls-1" width="16.063" height="12.834" transform="translate(1578.024 208.46) rotate(-29.544)"/>
    <rect id="Rectangle_1961" data-name="Rectangle 1961" class="cls-1" width="16.065" height="12.831" transform="translate(1550.072 224.294) rotate(-29.519)"/>
    <rect id="Rectangle_1962" data-name="Rectangle 1962" class="cls-1" width="16.063" height="12.834" transform="translate(1633.928 176.786) rotate(-29.544)"/>
    <rect id="Rectangle_1963" data-name="Rectangle 1963" class="cls-1" width="16.063" height="12.834" transform="translate(1605.975 192.622) rotate(-29.544)"/>
    <path id="Path_5597" data-name="Path 5597" class="cls-1" d="M1487.3,247.25a34.376,34.376,0,0,1-5.864,12.117l10.234,7.747a47.058,47.058,0,0,0,8.042-16.617Z" transform="translate(273.234 407.148)"/>
    <rect id="Rectangle_1964" data-name="Rectangle 1964" class="cls-1" width="12.831" height="16.062" transform="matrix(0.505, -0.863, 0.863, 0.505, 1728.945, 1157.277)"/>
    <rect id="Rectangle_1965" data-name="Rectangle 1965" class="cls-1" width="16.063" height="12.83" transform="matrix(0.873, -0.488, 0.488, 0.873, 1711.229, 1246.399)"/>
    <rect id="Rectangle_1966" data-name="Rectangle 1966" class="cls-1" width="16.063" height="12.831" transform="translate(1702.45 698.343) rotate(-28.468)"/>
    <rect id="Rectangle_1967" data-name="Rectangle 1967" class="cls-1" width="12.831" height="16.062" transform="matrix(0.505, -0.863, 0.863, 0.505, 1701.223, 1141.039)"/>
    <path id="Path_5598" data-name="Path 5598" class="cls-1" d="M1492.788,265.776c.539-.3,1.068-.6,1.594-.9l-6.509-11.058c-.394.234-.8.462-1.2.683l-12.706,6.891,6.114,11.279Z" transform="translate(256.727 421.639)"/>
    <rect id="Rectangle_1968" data-name="Rectangle 1968" class="cls-1" width="16.063" height="12.834" transform="translate(1522.119 240.134) rotate(-29.544)"/>
    <path id="Path_5599" data-name="Path 5599" class="cls-1" d="M1481.207,415.062a34.059,34.059,0,0,1,6.8,11.594l12.123-4.206a46.79,46.79,0,0,0-9.348-15.931Z" transform="translate(272.722 758.809)"/>
    <path id="Path_5600" data-name="Path 5600" class="cls-1" d="M1493.4,237.081l-11.17,6.317a34.685,34.685,0,0,1,4.218,12.8l12.733-1.6A47.471,47.471,0,0,0,1493.4,237.081Z" transform="translate(274.974 384.695)"/>
    <path id="Path_5601" data-name="Path 5601" class="cls-1" d="M1488.415,440.449a48.732,48.732,0,0,0,9.081-6.538l-8.655-9.476a36.077,36.077,0,0,1-6.692,4.818l-5.514,3.086,6.265,11.2Z" transform="translate(262.627 798.367)"/>
    <rect id="Rectangle_1969" data-name="Rectangle 1969" class="cls-1" width="12.831" height="16.062" transform="matrix(0.505, -0.863, 0.863, 0.505, 1707.742, 593.719)"/>
    <rect id="Rectangle_1970" data-name="Rectangle 1970" class="cls-1" width="16.065" height="12.83" transform="translate(1721.2 1796.895) rotate(-28.881)"/>
    <rect id="Rectangle_1971" data-name="Rectangle 1971" class="cls-1" width="16.065" height="12.83" transform="translate(1411.763 1967.588) rotate(-28.881)"/>
    <rect id="Rectangle_1972" data-name="Rectangle 1972" class="cls-1" width="16.065" height="12.831" transform="translate(1494.167 255.968) rotate(-29.519)"/>
    <rect id="Rectangle_1973" data-name="Rectangle 1973" class="cls-1" width="12.83" height="16.065" transform="translate(1411.75 1530.552) rotate(-59.89)"/>
    <rect id="Rectangle_1974" data-name="Rectangle 1974" class="cls-1" width="16.06" height="12.83" transform="translate(1693.071 1812.412) rotate(-28.881)"/>
    <rect id="Rectangle_1975" data-name="Rectangle 1975" class="cls-1" width="16.065" height="12.83" transform="matrix(0.873, -0.488, 0.488, 0.873, 1627.126, 1293.478)"/>
    <path id="Path_5602" data-name="Path 5602" class="cls-1" d="M1482.915,430.085l11.641,5.405a47.906,47.906,0,0,0,4.392-17.888l-12.812-.635A35.116,35.116,0,0,1,1482.915,430.085Z" transform="translate(276.493 781.88)"/>
    <path id="Path_5603" data-name="Path 5603" class="cls-1" d="M1479.452,605.534l7.776,10.2a46.849,46.849,0,0,0,12.229-13.849l-11.1-6.435A34.164,34.164,0,0,1,1479.452,605.534Z" transform="translate(268.847 1175.971)"/>
    <path id="Path_5604" data-name="Path 5604" class="cls-1" d="M1488.453,597.251l10.313-7.632a47.586,47.586,0,0,0-13.644-12.4l-6.66,10.968A34.874,34.874,0,0,1,1488.453,597.251Z" transform="translate(266.663 1135.72)"/>
    <rect id="Rectangle_1976" data-name="Rectangle 1976" class="cls-1" width="12.836" height="16.066" transform="translate(1717.448 1707.856) rotate(-59.885)"/>
    <rect id="Rectangle_1977" data-name="Rectangle 1977" class="cls-1" width="16.065" height="12.831" transform="translate(1438.263 287.642) rotate(-29.519)"/>
    <rect id="Rectangle_1978" data-name="Rectangle 1978" class="cls-1" width="16.063" height="12.834" transform="translate(1410.31 303.482) rotate(-29.544)"/>
    <rect id="Rectangle_1979" data-name="Rectangle 1979" class="cls-1" width="12.831" height="16.063" transform="translate(1402.81 415.1) rotate(-59.634)"/>
    <rect id="Rectangle_1980" data-name="Rectangle 1980" class="cls-1" width="16.063" height="12.834" transform="translate(1466.214 271.808) rotate(-29.544)"/>
    <path id="Path_5605" data-name="Path 5605" class="cls-1" d="M1370.5,675.374l-12.809.763a47.833,47.833,0,0,0,4.581,17.846l11.581-5.527A35.109,35.109,0,0,1,1370.5,675.374Z" transform="translate(0 1352.432)"/>
    <path id="Path_5606" data-name="Path 5606" class="cls-1" d="M1374.278,169.834a34.92,34.92,0,0,1-3.779-12.957l-12.774,1.177a47.58,47.58,0,0,0,5.168,17.692Z" transform="translate(0.077 207.607)"/>
    <rect id="Rectangle_1981" data-name="Rectangle 1981" class="cls-1" width="16.065" height="12.831" transform="translate(1382.358 319.316) rotate(-29.519)"/>
    <path id="Path_5607" data-name="Path 5607" class="cls-1" d="M1376.867,154.554l-9.945-8.107a46.941,46.941,0,0,0-8.629,16.325l12.293,3.673A34.247,34.247,0,0,1,1376.867,154.554Z" transform="translate(1.331 184.578)"/>
    <path id="Path_5608" data-name="Path 5608" class="cls-1" d="M1483.361,589.4a35.888,35.888,0,0,1,.722,13.518l12.713,1.745a48.683,48.683,0,0,0-.985-18.366Z" transform="translate(277.477 1155.751)"/>
    <rect id="Rectangle_1982" data-name="Rectangle 1982" class="cls-1" width="16.063" height="12.829" transform="matrix(0.879, -0.477, 0.477, 0.879, 1561.253, 774.937)"/>
    <rect id="Rectangle_1983" data-name="Rectangle 1983" class="cls-1" width="16.063" height="12.832" transform="matrix(0.879, -0.477, 0.477, 0.879, 1589.49, 759.618)"/>
    <rect id="Rectangle_1984" data-name="Rectangle 1984" class="cls-1" width="16.063" height="12.832" transform="matrix(0.879, -0.477, 0.477, 0.879, 1533.013, 790.255)"/>
    <rect id="Rectangle_1985" data-name="Rectangle 1985" class="cls-1" width="16.063" height="12.832" transform="matrix(0.879, -0.477, 0.477, 0.879, 1617.729, 744.3)"/>
    <rect id="Rectangle_1986" data-name="Rectangle 1986" class="cls-1" width="12.831" height="16.066" transform="matrix(0.505, -0.863, 0.863, 0.505, 1673.501, 1124.801)"/>
    <rect id="Rectangle_1987" data-name="Rectangle 1987" class="cls-1" width="16.063" height="12.831" transform="matrix(0.879, -0.477, 0.477, 0.879, 1504.772, 805.572)"/>
    <rect id="Rectangle_1988" data-name="Rectangle 1988" class="cls-1" width="12.831" height="16.065" transform="matrix(0.505, -0.863, 0.863, 0.505, 1645.779, 1108.563)"/>
    <rect id="Rectangle_1989" data-name="Rectangle 1989" class="cls-1" width="16.063" height="12.832" transform="matrix(0.879, -0.477, 0.477, 0.879, 1645.972, 728.981)"/>
    <rect id="Rectangle_1990" data-name="Rectangle 1990" class="cls-1" width="16.063" height="12.832" transform="matrix(0.879, -0.477, 0.477, 0.879, 1674.21, 713.663)"/>
    <rect id="Rectangle_1991" data-name="Rectangle 1991" class="cls-1" width="12.831" height="16.063" transform="matrix(0.505, -0.863, 0.863, 0.505, 1618.06, 1092.326)"/>
    <rect id="Rectangle_1992" data-name="Rectangle 1992" class="cls-1" width="16.063" height="12.83" transform="translate(1543.026 1340.556) rotate(-29.24)"/>
    <rect id="Rectangle_1993" data-name="Rectangle 1993" class="cls-1" width="16.065" height="12.833" transform="matrix(0.873, -0.489, 0.489, 0.873, 1571.061, 1324.864)"/>
    <rect id="Rectangle_1994" data-name="Rectangle 1994" class="cls-1" width="16.063" height="12.83" transform="translate(1599.093 1309.17) rotate(-29.24)"/>
    <rect id="Rectangle_1995" data-name="Rectangle 1995" class="cls-1" width="16.063" height="12.832" transform="matrix(0.879, -0.477, 0.477, 0.879, 1476.532, 820.892)"/>
    <rect id="Rectangle_1996" data-name="Rectangle 1996" class="cls-1" width="16.063" height="12.83" transform="translate(1514.994 1356.248) rotate(-29.24)"/>
    <rect id="Rectangle_1997" data-name="Rectangle 1997" class="cls-1" width="16.065" height="12.833" transform="matrix(0.873, -0.488, 0.488, 0.873, 1486.956, 1371.94)"/>
    <rect id="Rectangle_1998" data-name="Rectangle 1998" class="cls-1" width="16.063" height="12.832" transform="matrix(0.879, -0.477, 0.477, 0.879, 1448.293, 836.21)"/>
    <rect id="Rectangle_1999" data-name="Rectangle 1999" class="cls-1" width="16.063" height="12.83" transform="translate(1458.927 1387.634) rotate(-29.24)"/>
    <rect id="Rectangle_2000" data-name="Rectangle 2000" class="cls-1" width="12.833" height="16.065" transform="matrix(0.505, -0.863, 0.863, 0.505, 1451.731, 994.901)"/>
    <rect id="Rectangle_2001" data-name="Rectangle 2001" class="cls-1" width="12.832" height="16.064" transform="matrix(0.501, -0.865, 0.865, 0.501, 1634.077, 1659.502)"/>
    <rect id="Rectangle_2002" data-name="Rectangle 2002" class="cls-1" width="12.831" height="16.062" transform="matrix(0.505, -0.863, 0.863, 0.505, 1590.338, 1076.088)"/>
    <rect id="Rectangle_2003" data-name="Rectangle 2003" class="cls-1" width="16.065" height="12.83" transform="matrix(0.873, -0.488, 0.488, 0.873, 1430.892, 1403.325)"/>
    <rect id="Rectangle_2004" data-name="Rectangle 2004" class="cls-1" width="12.832" height="16.064" transform="matrix(0.501, -0.865, 0.865, 0.501, 1661.868, 1675.62)"/>
    <rect id="Rectangle_2005" data-name="Rectangle 2005" class="cls-1" width="12.832" height="16.064" transform="matrix(0.501, -0.865, 0.865, 0.501, 1606.286, 1643.384)"/>
    <rect id="Rectangle_2006" data-name="Rectangle 2006" class="cls-1" width="12.832" height="16.064" transform="matrix(0.501, -0.865, 0.865, 0.501, 1550.704, 1611.148)"/>
    <rect id="Rectangle_2007" data-name="Rectangle 2007" class="cls-1" width="12.83" height="16.065" transform="translate(1495.123 1578.909) rotate(-59.898)"/>
    <rect id="Rectangle_2008" data-name="Rectangle 2008" class="cls-1" width="12.83" height="16.065" transform="translate(1467.332 1562.791) rotate(-59.898)"/>
    <rect id="Rectangle_2009" data-name="Rectangle 2009" class="cls-1" width="12.832" height="16.064" transform="matrix(0.501, -0.865, 0.865, 0.501, 1522.914, 1595.03)"/>
    <rect id="Rectangle_2010" data-name="Rectangle 2010" class="cls-1" width="12.832" height="16.064" transform="matrix(0.501, -0.865, 0.865, 0.501, 1578.495, 1627.266)"/>
    <rect id="Rectangle_2011" data-name="Rectangle 2011" class="cls-1" width="12.83" height="16.065" transform="translate(1439.541 1546.672) rotate(-59.898)"/>
    <rect id="Rectangle_2012" data-name="Rectangle 2012" class="cls-1" width="12.831" height="16.062" transform="matrix(0.505, -0.863, 0.863, 0.505, 1507.175, 1027.375)"/>
    <rect id="Rectangle_2013" data-name="Rectangle 2013" class="cls-1" width="12.831" height="16.062" transform="matrix(0.505, -0.863, 0.863, 0.505, 1479.453, 1011.136)"/>
    <rect id="Rectangle_2014" data-name="Rectangle 2014" class="cls-1" width="12.831" height="16.062" transform="matrix(0.505, -0.863, 0.863, 0.505, 1534.897, 1043.612)"/>
    <rect id="Rectangle_2015" data-name="Rectangle 2015" class="cls-1" width="12.831" height="16.062" transform="matrix(0.505, -0.863, 0.863, 0.505, 1424.012, 978.66)"/>
    <rect id="Rectangle_2016" data-name="Rectangle 2016" class="cls-1" width="16.063" height="12.83" transform="matrix(0.873, -0.488, 0.488, 0.873, 1683.193, 1262.091)"/>
    <rect id="Rectangle_2017" data-name="Rectangle 2017" class="cls-1" width="12.831" height="16.066" transform="matrix(0.505, -0.863, 0.863, 0.505, 1562.616, 1059.849)"/>
    <rect id="Rectangle_2018" data-name="Rectangle 2018" class="cls-1" width="12.831" height="16.062" transform="matrix(0.505, -0.863, 0.863, 0.505, 1430.532, 431.339)"/>
    <rect id="Rectangle_2019" data-name="Rectangle 2019" class="cls-1" width="8.019" height="12.834" transform="translate(1746.163 113.195) rotate(-29.544)"/>
    <path id="Path_5609" data-name="Path 5609" class="cls-1" d="M1542.421,108.265l3.484-5.392L1525.342,89.6l15.149-8.583-1.579-2.791-14.527,8.231,1.163-23.282-6.41-.32L1517.778,90.2l-5.845,3.312,1.2-23.97-6.41-.32-1.395,28.034-5.842,3.31,1.228-24.659-6.41-.316-1.4,28.179-.5.809-8.176,4.633L1485.8,112l9.51-5.388L1517.588,121l3.48-5.39-19.457-12.566,5.564-3.153L1530,114.629l3.484-5.387L1513.475,96.32l5.567-3.154Z" transform="translate(279.382 0)"/>
    <path id="Path_5610" data-name="Path 5610" class="cls-1" d="M1393.34,683.322a38.275,38.275,0,0,1-7.923,22.318l-.308.4A37.845,37.845,0,0,1,1367,718.806a5.842,5.842,0,0,0-2.672,1.318l45.633,5.454-16.335-43.821A2.845,2.845,0,0,0,1393.34,683.322Z" transform="translate(14.663 1366.526)"/>
  </g>
</svg>
