<svg xmlns="http://www.w3.org/2000/svg" width="597.486" height="527.881" viewBox="0 0 597.486 527.881">
  <defs>
    <style>
      .cls-1 {
        fill: #fff;
      }
    </style>
  </defs>
  <g id="Group_5540" data-name="Group 5540" transform="translate(-36.944 -513.178)">
    <g id="Group_5531" data-name="Group 5531" transform="translate(515.912 513.178)">
      <path id="Path_5612" data-name="Path 5612" class="cls-1" d="M179.787,520.963c-.623-3.223-3.825-5.647-3.857-5.669l-.486-.367-.364.443a7.908,7.908,0,0,0-1.653,5.957c.623,3.3,2.413,5.748,4.177,5.748h.05a1.832,1.832,0,0,0,1.026-.349c1.185-.843,1.621-3.108,1.106-5.762Z" transform="translate(-161.162 -508.628)"/>
      <path id="Path_5613" data-name="Path 5613" class="cls-1" d="M177.27,517.873a7.722,7.722,0,0,0-6.165-.054l-.533.234.216.562c.144.378,1.484,3.734,4.26,5.128a9.347,9.347,0,0,0,4.015,1.106,3.189,3.189,0,0,0,1.862-.493,1.782,1.782,0,0,0,.652-.854C182.182,521.846,180.331,519.426,177.27,517.873Z" transform="translate(-168.311 -502.752)"/>
      <path id="Path_5614" data-name="Path 5614" class="cls-1" d="M186.109,530.1c-.259-3.907-3.825-6.85-3.828-6.85h0l-.479-.414-.411.429a8.9,8.9,0,0,0-2.348,6.572c.32,3.893,2.053,6.918,4.03,7.041l.122,0a1.988,1.988,0,0,0,1.041-.3C185.641,535.739,186.376,533.193,186.109,530.1Z" transform="translate(-146.388 -488.065)"/>
      <path id="Path_5615" data-name="Path 5615" class="cls-1" d="M183.364,526.237a8.866,8.866,0,0,0-7.019-.558l-.576.205.23.706c.573,1.6,1.887,4.505,4.257,6.1a9.468,9.468,0,0,0,4.818,1.7,3.206,3.206,0,0,0,1.649-.4,2,2,0,0,0,.8-.889C188.384,531.279,186.6,528.333,183.364,526.237Z" transform="translate(-154.793 -481.912)"/>
      <path id="Path_5616" data-name="Path 5616" class="cls-1" d="M188.006,546.948a2.092,2.092,0,0,0,.3.022,2.228,2.228,0,0,0,1.008-.245c1.635-.814,2.636-3.58,2.546-7.044-.112-4.2-3.63-7.97-3.659-8l-.461-.49-.472.421a10.206,10.206,0,0,0-3.292,7.213C184.07,543.162,185.8,546.652,188.006,546.948Z" transform="translate(-133.458 -466.319)"/>
      <path id="Path_5617" data-name="Path 5617" class="cls-1" d="M188.588,535.157c-3.3-2.427-7.5-1.325-7.678-1.278l-.594.158.126.648c.169.832,1.181,5.092,4.235,7.322a10.4,10.4,0,0,0,5.668,2.283,3.363,3.363,0,0,0,1.5-.317,2.186,2.186,0,0,0,.954-.9C193.878,541.16,192.024,537.685,188.588,535.157Z" transform="translate(-142.965 -460.084)"/>
      <path id="Path_5618" data-name="Path 5618" class="cls-1" d="M192.088,557.282a2.378,2.378,0,0,0,.526.061,2.432,2.432,0,0,0,.908-.184c1.909-.771,3.392-4.034,3.457-7.592.151-4.692-3.522-9.053-3.558-9.093l-.443-.526-.508.389c-.04.032-3.972,3-4.149,7.667C188.177,552.73,189.794,556.716,192.088,557.282Z" transform="translate(-122.163 -443.539)"/>
      <path id="Path_5619" data-name="Path 5619" class="cls-1" d="M197.311,553.49c1.448-2.038-.32-6.021-4.023-9.057-3.54-2.953-8.258-2.045-8.449-2.006l-.641.115.1.692c.133.926.972,5.672,4.232,8.355,2.488,1.988,4.7,3.029,6.4,3.029a3.366,3.366,0,0,0,1.257-.231A2.415,2.415,0,0,0,197.311,553.49Z" transform="translate(-132.864 -437.515)"/>
      <path id="Path_5620" data-name="Path 5620" class="cls-1" d="M195.277,567.984a2.677,2.677,0,0,0,.749.108,2.794,2.794,0,0,0,.814-.126c2.1-.663,3.832-3.8,4.408-7.995.673-4.649-2.222-9.558-2.928-10.368l-.421-.576-.54.353a12.776,12.776,0,0,0-5.229,8.06C191.377,562.679,192.731,567.214,195.277,567.984Z" transform="translate(-112.773 -419.925)"/>
      <path id="Path_5621" data-name="Path 5621" class="cls-1" d="M199.344,565.271a2.574,2.574,0,0,0,1.286-.879c1.649-2.067.126-6.572-3.464-10.26a9.942,9.942,0,0,0-5.748-2.8,13.578,13.578,0,0,0-3.284-.115l-.673.079.072.8c.011.054.025.169.047.339.184,1.52.749,6.14,3.63,9.115,2.413,2.456,5.056,3.879,7.073,3.879A3.384,3.384,0,0,0,199.344,565.271Z" transform="translate(-124.381 -414.356)"/>
      <path id="Path_5622" data-name="Path 5622" class="cls-1" d="M197.964,578.72a2.908,2.908,0,0,0,1.012.187,3.032,3.032,0,0,0,.666-.076c2.33-.536,4.415-3.789,5.312-8.283,1.088-5.481-2.373-11.431-2.4-11.485l-.378-.652-.616.339c-.216.119-5.247,2.9-6.356,8.33C194.06,572.678,195.245,577.68,197.964,578.72Z" transform="translate(-105.369 -395.509)"/>
      <path id="Path_5623" data-name="Path 5623" class="cls-1" d="M201.922,576.353a2.739,2.739,0,0,0,1.448-.835c1.927-2.089.54-7.077-3.151-11.355-3.432-3.965-8.917-3.893-9.518-3.893l-.681.029-.029.738c-.025,1.113.022,6.879,3.306,10.631,2.611,2.989,5.568,4.772,7.8,4.772A3.81,3.81,0,0,0,201.922,576.353Z" transform="translate(-117.805 -390.679)"/>
      <path id="Path_5624" data-name="Path 5624" class="cls-1" d="M199.516,589.584a2.9,2.9,0,0,0,1.293.3,3.074,3.074,0,0,0,.479-.036c2.55-.378,5.157-3.72,6.641-8.513v0c1.019-3.4.421-7.8-1.685-12.378l-.45-.915-.652.3c-.238.108-5.874,2.726-7.4,8.456C196.508,581.734,196.235,588.05,199.516,589.584Z" transform="translate(-99.859 -370.472)"/>
      <path id="Path_5625" data-name="Path 5625" class="cls-1" d="M202.795,587.779a3.926,3.926,0,0,0,.547-.04,3.014,3.014,0,0,0,1.628-.771v0c2.384-2.229,1.351-7.966-2.251-12.515-3.472-4.541-9.4-4.912-10.069-4.937l-.713-.018-.054.666c-.14.573-.468,7.228,2.791,11.766C197.231,585.553,200.346,587.779,202.795,587.779Z" transform="translate(-113.088 -366.683)"/>
      <path id="Path_5626" data-name="Path 5626" class="cls-1" d="M199.707,586.563c-2.38,6.234-2,12.2.9,13.883a3.2,3.2,0,0,0,1.613.432c.086,0,.169,0,.256-.007,2.762-.194,5.766-3.558,7.653-8.578,2.265-6.1-.407-13.472-.609-13.724l-.317-.728-.709.266C207.4,578.532,201.879,580.956,199.707,586.563Z" transform="translate(-96.575 -344.972)"/>
      <path id="Path_5627" data-name="Path 5627" class="cls-1" d="M193.348,578.793l-.119.839c0,.051-.018.166-.04.331-.7,5.168-.09,9.331,1.811,12.363,2.636,4.253,6.014,6.932,8.683,6.932.094,0,.184,0,.27-.007a3.217,3.217,0,0,0,1.786-.674c2.6-2.038,1.963-8-1.444-13.573-3.292-5.427-10.145-6.13-10.21-6.133Z" transform="translate(-110.206 -342.496)"/>
      <path id="Path_5628" data-name="Path 5628" class="cls-1" d="M200.86,596.335c-2.859,6.4-2.913,12.784-.119,14.855a3.354,3.354,0,0,0,1.941.616h.032c3.047,0,6.781-3.583,8.9-8.535,2.845-6.407.259-14.625.234-14.7l-.245-.789-.738.205C210.792,588.009,203.73,589.993,200.86,596.335Z" transform="translate(-95.196 -319.113)"/>
      <path id="Path_5629" data-name="Path 5629" class="cls-1" d="M205.316,595.623c-3.068-5.755-9.716-7.2-10.472-7.35l-.735-.133-.209.785c-.339,1.34-1.876,8.29,1.088,13.743,2.874,5.121,6.115,8.078,8.892,8.1h.043a3.437,3.437,0,0,0,1.912-.562C208.91,608.285,208.683,601.882,205.316,595.623Z" transform="translate(-109.451 -318.182)"/>
      <path id="Path_5630" data-name="Path 5630" class="cls-1" d="M212.881,597.956c-.076.018-7.71,1.57-11.132,8.067-3.843,6.76-4.52,13.386-1.606,15.766a3.611,3.611,0,0,0,2,.807c.126.011.248.014.375.014,3.072,0,6.889-3.212,9.839-8.326,3.115-5.153,2.308-11.855,1.552-15.392-.025-.1-.04-.177-.054-.259l-.205-.839Z" transform="translate(-96.078 -293.069)"/>
      <path id="Path_5631" data-name="Path 5631" class="cls-1" d="M202.663,622.244c.115.007.227.014.342.014a3.568,3.568,0,0,0,1.757-.454c3.3-1.829,3.7-8.772.879-15.5-2.9-6.32-9.882-8.416-10.689-8.639l-.753-.2-.23.72c-.27.547-2.452,8.456-.043,14.708C196.123,618.218,199.634,621.974,202.663,622.244Z" transform="translate(-110.478 -293.92)"/>
      <path id="Path_5632" data-name="Path 5632" class="cls-1" d="M215.105,607.831l-.807.1c-.861.119-8.528,1.336-12.723,7.613-4.473,6.688-5.647,13.818-2.726,16.6a3.9,3.9,0,0,0,2.053,1.016,4.872,4.872,0,0,0,.767.061c3.187,0,7.228-3.061,10.53-8.071,4.365-6.641,3.068-16.354,3.054-16.454Z" transform="translate(-98.918 -266.96)"/>
      <path id="Path_5633" data-name="Path 5633" class="cls-1" d="M205.2,616.958c-2.445-7.267-10.246-9.94-10.321-9.965l-.756-.26-.328.789c-.63,1.429-3.666,8.9-1.4,15.442,2.006,5.816,5.485,10.083,8.654,10.613a4,4,0,0,0,.681.062,3.725,3.725,0,0,0,1.559-.346C206.889,631.64,207.728,624.463,205.2,616.958Z" transform="translate(-113.686 -269.814)"/>
      <path id="Path_5634" data-name="Path 5634" class="cls-1" d="M215.538,617.816l-.835.054c-.086,0-8.845.425-13.89,7.062-5.168,6.936-6.893,14.171-4.091,17.2a3.984,3.984,0,0,0,2.078,1.185,5.207,5.207,0,0,0,1.124.119c3.331,0,7.764-2.86,11.441-7.487l.011-.011c5.017-6.709,4.239-17.113,4.228-17.2Z" transform="translate(-103.762 -240.987)"/>
      <path id="Path_5635" data-name="Path 5635" class="cls-1" d="M193.8,616.194l-.745-.324-.421.792c-.749,1.469-4.379,9.129-2.391,16.191,1.628,6.565,4.84,11.286,8.182,12.035a4.175,4.175,0,0,0,.936.108,3.934,3.934,0,0,0,1.448-.277c4.008-1.538,5.46-9.248,3.234-17.174C202.008,620.037,194.644,616.569,193.8,616.194Z" transform="translate(-118.68 -246.049)"/>
      <path id="Path_5636" data-name="Path 5636" class="cls-1" d="M174.8,523.157a3.925,3.925,0,0,0,1.815.54,1.785,1.785,0,0,0,1.772-1.257c.468-1.4-.31-3.742-1.991-5.956a9.439,9.439,0,0,0-5.719-3.216l-.623-.09-.068.641a9.808,9.808,0,0,0,1.606,6.414A10.726,10.726,0,0,0,174.8,523.157Z" transform="translate(-169.944 -513.178)"/>
    </g>
    <g id="Group_5532" data-name="Group 5532" transform="translate(36.945 513.178)">
      <path id="Path_5637" data-name="Path 5637" class="cls-1" d="M64.837,520.963c.619-3.223,3.825-5.647,3.853-5.669l.49-.367.364.443a7.908,7.908,0,0,1,1.653,5.957c-.627,3.3-2.413,5.748-4.177,5.748h-.054a1.83,1.83,0,0,1-1.023-.349c-1.185-.843-1.621-3.108-1.106-5.762Z" transform="translate(35.057 -508.628)"/>
      <path id="Path_5638" data-name="Path 5638" class="cls-1" d="M70.561,517.873a7.724,7.724,0,0,1,6.165-.054l.529.234-.212.562c-.144.378-1.487,3.734-4.264,5.128a9.333,9.333,0,0,1-4.012,1.106,3.188,3.188,0,0,1-1.862-.493,1.782,1.782,0,0,1-.652-.854C65.646,521.846,67.5,519.426,70.561,517.873Z" transform="translate(38.998 -502.752)"/>
      <path id="Path_5639" data-name="Path 5639" class="cls-1" d="M58.864,530.1c.259-3.907,3.825-6.85,3.828-6.85h0l.479-.414.411.429a8.9,8.9,0,0,1,2.348,6.572c-.32,3.893-2.053,6.918-4.03,7.041l-.122,0a1.979,1.979,0,0,1-1.041-.3C59.332,535.739,58.6,533.193,58.864,530.1Z" transform="translate(19.933 -488.065)"/>
      <path id="Path_5640" data-name="Path 5640" class="cls-1" d="M65.083,526.237a8.866,8.866,0,0,1,7.019-.558l.576.205-.23.706c-.573,1.6-1.891,4.505-4.257,6.1a9.468,9.468,0,0,1-4.818,1.7,3.2,3.2,0,0,1-1.649-.4,2,2,0,0,1-.8-.889C60.063,531.279,61.845,528.333,65.083,526.237Z" transform="translate(24.864 -481.912)"/>
      <path id="Path_5641" data-name="Path 5641" class="cls-1" d="M57.493,546.948a2.093,2.093,0,0,1-.3.022,2.216,2.216,0,0,1-1.008-.245c-1.635-.814-2.636-3.58-2.546-7.044.112-4.2,3.626-7.97,3.659-8l.461-.49.472.421a10.206,10.206,0,0,1,3.292,7.213C61.429,543.162,59.693,546.652,57.493,546.948Z" transform="translate(6.478 -466.319)"/>
      <path id="Path_5642" data-name="Path 5642" class="cls-1" d="M60.45,535.157c3.3-2.427,7.5-1.325,7.674-1.278l.594.158-.122.648c-.173.832-1.181,5.092-4.235,7.322a10.413,10.413,0,0,1-5.668,2.283,3.341,3.341,0,0,1-1.5-.317,2.186,2.186,0,0,1-.954-.9C55.16,541.16,57.011,537.685,60.45,535.157Z" transform="translate(12.445 -460.084)"/>
      <path id="Path_5643" data-name="Path 5643" class="cls-1" d="M53.97,557.282a2.353,2.353,0,0,1-.526.061,2.447,2.447,0,0,1-.908-.184c-1.905-.771-3.389-4.034-3.454-7.592-.151-4.692,3.522-9.053,3.558-9.093l.439-.526.511.389c.04.032,3.969,3,4.149,7.667C57.885,552.73,56.268,556.716,53.97,557.282Z" transform="translate(-5.38 -443.539)"/>
      <path id="Path_5644" data-name="Path 5644" class="cls-1" d="M52.321,553.49c-1.444-2.038.321-6.021,4.026-9.057,3.54-2.953,8.258-2.045,8.445-2.006l.645.115-.1.692c-.133.926-.972,5.672-4.232,8.355-2.488,1.988-4.7,3.029-6.4,3.029a3.366,3.366,0,0,1-1.257-.231A2.442,2.442,0,0,1,52.321,553.49Z" transform="translate(1.746 -437.515)"/>
      <path id="Path_5645" data-name="Path 5645" class="cls-1" d="M51.327,567.984a2.64,2.64,0,0,1-.749.108,2.77,2.77,0,0,1-.81-.126c-2.1-.663-3.832-3.8-4.408-7.995-.673-4.649,2.222-9.558,2.928-10.368l.421-.576.54.353a12.776,12.776,0,0,1,5.229,8.06C55.227,562.679,53.873,567.214,51.327,567.984Z" transform="translate(-15.316 -419.925)"/>
      <path id="Path_5646" data-name="Path 5646" class="cls-1" d="M50.444,565.271a2.549,2.549,0,0,1-1.282-.879c-1.649-2.067-.126-6.572,3.464-10.26a9.942,9.942,0,0,1,5.748-2.8,13.578,13.578,0,0,1,3.284-.115l.673.079-.072.8c-.014.054-.025.169-.047.339-.187,1.52-.749,6.14-3.634,9.115-2.413,2.456-5.056,3.879-7.069,3.879A3.423,3.423,0,0,1,50.444,565.271Z" transform="translate(-6.892 -414.356)"/>
      <path id="Path_5647" data-name="Path 5647" class="cls-1" d="M49.345,578.72a2.908,2.908,0,0,1-1.012.187,3.032,3.032,0,0,1-.666-.076c-2.33-.536-4.415-3.789-5.312-8.283-1.088-5.481,2.37-11.431,2.4-11.485l.378-.652.616.339c.216.119,5.247,2.9,6.356,8.33C53.245,572.678,52.06,577.68,49.345,578.72Z" transform="translate(-23.421 -395.509)"/>
      <path id="Path_5648" data-name="Path 5648" class="cls-1" d="M48.169,576.353a2.739,2.739,0,0,1-1.448-.835c-1.927-2.089-.544-7.077,3.151-11.355,3.432-3.965,8.917-3.893,9.518-3.893l.681.029.025.738c.025,1.113-.018,6.879-3.3,10.631-2.615,2.989-5.568,4.772-7.8,4.772A3.786,3.786,0,0,1,48.169,576.353Z" transform="translate(-13.768 -390.679)"/>
      <path id="Path_5649" data-name="Path 5649" class="cls-1" d="M48.611,589.584a2.9,2.9,0,0,1-1.293.3,3.121,3.121,0,0,1-.483-.036c-2.55-.378-5.153-3.72-6.637-8.513v0c-1.023-3.4-.425-7.8,1.682-12.378l.454-.915.652.3c.238.108,5.87,2.726,7.4,8.456C51.618,581.734,51.892,588.05,48.611,589.584Z" transform="translate(-29.749 -370.472)"/>
      <path id="Path_5650" data-name="Path 5650" class="cls-1" d="M47.446,587.779a3.978,3.978,0,0,1-.551-.04,3.016,3.016,0,0,1-1.624-.771l0,0c-2.38-2.229-1.347-7.966,2.254-12.515,3.472-4.541,9.4-4.912,10.069-4.937l.709-.018.058.666c.14.573.468,7.228-2.791,11.766C53.01,585.553,49.895,587.779,47.446,587.779Z" transform="translate(-18.634 -366.683)"/>
      <path id="Path_5651" data-name="Path 5651" class="cls-1" d="M49.4,586.563c2.377,6.234,2,12.2-.9,13.883a3.2,3.2,0,0,1-1.617.432c-.083,0-.166,0-.252-.007-2.762-.194-5.766-3.558-7.653-8.578-2.265-6.1.407-13.472.609-13.724l.317-.728.709.266C41.7,578.532,47.225,580.956,49.4,586.563Z" transform="translate(-34.01 -344.972)"/>
      <path id="Path_5652" data-name="Path 5652" class="cls-1" d="M56.87,578.793l.122.839c0,.051.018.166.04.331.7,5.168.086,9.331-1.811,12.363-2.636,4.253-6.014,6.932-8.686,6.932-.09,0-.18,0-.266-.007a3.217,3.217,0,0,1-1.786-.674c-2.6-2.038-1.963-8,1.444-13.573,3.292-5.427,10.145-6.13,10.21-6.133Z" transform="translate(-21.496 -342.496)"/>
      <path id="Path_5653" data-name="Path 5653" class="cls-1" d="M49.245,596.335c2.859,6.4,2.913,12.784.115,14.855a3.334,3.334,0,0,1-1.937.616h-.036c-3.043,0-6.778-3.583-8.9-8.535-2.845-6.407-.259-14.625-.234-14.7l.245-.789.738.205C39.309,588.009,46.375,589.993,49.245,596.335Z" transform="translate(-36.39 -319.113)"/>
      <path id="Path_5654" data-name="Path 5654" class="cls-1" d="M45.173,595.623c3.068-5.755,9.716-7.2,10.472-7.35l.735-.133.209.785c.335,1.34,1.876,8.29-1.088,13.743-2.874,5.121-6.115,8.078-8.892,8.1h-.043a3.438,3.438,0,0,1-1.912-.562C41.579,608.285,41.806,601.882,45.173,595.623Z" transform="translate(-22.52 -318.182)"/>
      <path id="Path_5655" data-name="Path 5655" class="cls-1" d="M38.657,597.956c.076.018,7.714,1.57,11.135,8.067,3.843,6.76,4.52,13.386,1.606,15.766a3.61,3.61,0,0,1-2,.807c-.126.011-.252.014-.375.014-3.072,0-6.889-3.212-9.839-8.326-3.115-5.153-2.308-11.855-1.552-15.392.022-.1.04-.177.054-.259l.2-.839Z" transform="translate(-36.945 -293.069)"/>
      <path id="Path_5656" data-name="Path 5656" class="cls-1" d="M47.768,622.244c-.115.007-.23.014-.342.014a3.591,3.591,0,0,1-1.761-.454c-3.3-1.829-3.695-8.772-.875-15.5,2.9-6.32,9.882-8.416,10.685-8.639l.756-.2.227.72c.274.547,2.456,8.456.047,14.708C54.308,618.218,50.8,621.974,47.768,622.244Z" transform="translate(-21.434 -293.92)"/>
      <path id="Path_5657" data-name="Path 5657" class="cls-1" d="M37.837,607.831l.807.1c.861.119,8.528,1.336,12.723,7.613,4.473,6.688,5.643,13.818,2.723,16.6a3.873,3.873,0,0,1-2.049,1.016,4.872,4.872,0,0,1-.767.061c-3.191,0-7.228-3.061-10.53-8.071-4.368-6.641-3.068-16.354-3.054-16.454Z" transform="translate(-35.505 -266.96)"/>
      <path id="Path_5658" data-name="Path 5658" class="cls-1" d="M45.493,616.958c2.445-7.267,10.246-9.94,10.321-9.965l.756-.26.324.789c.634,1.429,3.666,8.9,1.4,15.442-2.006,5.816-5.485,10.083-8.654,10.613a4,4,0,0,1-.681.062,3.724,3.724,0,0,1-1.559-.346C43.808,631.64,42.968,624.463,45.493,616.958Z" transform="translate(-18.492 -269.814)"/>
      <path id="Path_5659" data-name="Path 5659" class="cls-1" d="M38.9,617.816l.832.054c.09,0,8.845.425,13.894,7.062,5.168,6.936,6.889,14.171,4.091,17.2a3.994,3.994,0,0,1-2.082,1.185,5.15,5.15,0,0,1-1.12.119c-3.331,0-7.764-2.86-11.441-7.487l-.011-.011c-5.017-6.709-4.242-17.113-4.231-17.2Z" transform="translate(-32.159 -240.987)"/>
      <path id="Path_5660" data-name="Path 5660" class="cls-1" d="M57.148,616.194l.745-.324.421.792c.749,1.469,4.379,9.129,2.388,16.191-1.624,6.565-4.837,11.286-8.178,12.035a4.2,4.2,0,0,1-.936.108,3.934,3.934,0,0,1-1.448-.277c-4.012-1.538-5.46-9.248-3.234-17.174C48.934,620.037,56.3,616.569,57.148,616.194Z" transform="translate(-13.748 -246.049)"/>
      <path id="Path_5661" data-name="Path 5661" class="cls-1" d="M71.192,523.157a3.913,3.913,0,0,1-1.815.54,1.849,1.849,0,0,1-1.149-.367,1.815,1.815,0,0,1-.619-.89c-.472-1.4.31-3.742,1.988-5.956a9.444,9.444,0,0,1,5.722-3.216l.623-.09.068.641a9.809,9.809,0,0,1-1.606,6.414A10.693,10.693,0,0,1,71.192,523.157Z" transform="translate(42.469 -513.178)"/>
    </g>
    <g id="Group_5539" data-name="Group 5539" transform="translate(103.538 513.178)">
      <g id="Group_5533" data-name="Group 5533">
        <path id="Path_5662" data-name="Path 5662" class="cls-1" d="M287.584,1041.059,70.478,936.507l-3.061-13.418c-32.131-140.773,1.073-286.261,91.1-399.154l8.578-10.757H408.068l8.582,10.757c90.028,112.9,123.235,258.38,91.1,399.157l-3.061,13.415ZM86.1,924.043l201.48,97.032,201.484-97.032,1.134-4.959c30.9-135.4-1.037-275.335-87.63-383.924l-3.173-3.976H175.772L172.6,535.16C86.007,643.746,54.067,783.68,84.973,919.084Z" transform="translate(-55.436 -513.178)"/>
      </g>
      <g id="Group_5541" data-name="Group 5541" transform="translate(0 -68.384)">
        <g id="Group_5535" data-name="Group 5535" transform="translate(138.374 262.684)">
          <path id="Path_5663" data-name="Path 5663" class="cls-1" d="M97.447,594.813a17.489,17.489,0,0,1,6.309-5.489,17.8,17.8,0,0,1,8.3-1.97,14.706,14.706,0,0,1,6.569,1.387,10.307,10.307,0,0,1,4.365,3.932,12.213,12.213,0,0,1,1.685,6.007h-9.118a4.764,4.764,0,0,0-1.815-2.6,5.447,5.447,0,0,0-3.2-.908,6.97,6.97,0,0,0-5.056,2.078,9.921,9.921,0,0,0-2.723,5.575,10.379,10.379,0,0,0-.173,1.941,5.992,5.992,0,0,0,1.4,4.214,4.972,4.972,0,0,0,3.868,1.538,7.1,7.1,0,0,0,3.522-.908,7.636,7.636,0,0,0,2.7-2.593h9.162a17.569,17.569,0,0,1-16.681,11.323,14.425,14.425,0,0,1-6.806-1.513,10.412,10.412,0,0,1-4.386-4.278,13.117,13.117,0,0,1-1.513-6.4,18.329,18.329,0,0,1,.3-3.327A19.307,19.307,0,0,1,97.447,594.813Z" transform="translate(-93.86 -582.907)"/>
          <path id="Path_5664" data-name="Path 5664" class="cls-1" d="M108.452,612.68a9.089,9.089,0,0,1-3.785-3.544,10.412,10.412,0,0,1-1.34-5.359,14.606,14.606,0,0,1,1.97-7.52,13.913,13.913,0,0,1,5.423-5.276,15.808,15.808,0,0,1,7.736-1.9,12.085,12.085,0,0,1,5.6,1.253,9.191,9.191,0,0,1,3.8,3.565,10.407,10.407,0,0,1,1.361,5.38,14.523,14.523,0,0,1-1.984,7.541,14.01,14.01,0,0,1-5.449,5.229,15.887,15.887,0,0,1-7.736,1.88A12.059,12.059,0,0,1,108.452,612.68Zm9.59-7a6.024,6.024,0,0,0,1.819-2.459,8.119,8.119,0,0,0,.627-3.108,3.809,3.809,0,0,0-.929-2.77,3.221,3.221,0,0,0-2.4-.954,4.1,4.1,0,0,0-2.7.954,6.172,6.172,0,0,0-1.775,2.467,8.13,8.13,0,0,0-.623,3.151,3.774,3.774,0,0,0,.908,2.741,3.155,3.155,0,0,0,2.373.933A4.177,4.177,0,0,0,118.042,605.675Z" transform="translate(-69.234 -578.41)"/>
          <path id="Path_5665" data-name="Path 5665" class="cls-1" d="M153.474,591.185a7.628,7.628,0,0,1,2.136,5.744,13,13,0,0,1-.216,2.514l-2.5,14.128h-8.427l2.287-13.008a8.24,8.24,0,0,0,.086-.954,3.017,3.017,0,0,0-.886-2.33,3.535,3.535,0,0,0-2.485-.821,4.771,4.771,0,0,0-2.957.929A4.556,4.556,0,0,0,138.846,600l-2.424,13.57h-8.47l2.29-13.008a4.388,4.388,0,0,0,.086-1.037,2.9,2.9,0,0,0-.886-2.269,3.52,3.52,0,0,0-2.438-.8,4.71,4.71,0,0,0-3.068,1.015,5.025,5.025,0,0,0-1.689,2.877l-2.334,13.22H111.4l4.318-24.244h8.47l-.558,3.155a9.607,9.607,0,0,1,3.3-2.467,10.256,10.256,0,0,1,4.347-.907,8.481,8.481,0,0,1,4.559,1.17,6.574,6.574,0,0,1,2.7,3.284,12.993,12.993,0,0,1,3.976-3.223,10.346,10.346,0,0,1,4.883-1.231A8.372,8.372,0,0,1,153.474,591.185Z" transform="translate(-48.223 -578.35)"/>
          <path id="Path_5666" data-name="Path 5666" class="cls-1" d="M137.6,597.1l-4.278,24.244h-8.513l4.322-24.244Zm-6.936-3.241a3.221,3.221,0,0,1-1.145-2.546,4.71,4.71,0,0,1,.756-2.575,5.482,5.482,0,0,1,2.074-1.9,6.12,6.12,0,0,1,2.96-.713,4.555,4.555,0,0,1,3.133,1.016,3.335,3.335,0,0,1,1.145,2.615,4.6,4.6,0,0,1-.756,2.55,5.344,5.344,0,0,1-2.1,1.858,6.312,6.312,0,0,1-2.939.691A4.618,4.618,0,0,1,130.663,593.855Z" transform="translate(-13.359 -586.12)"/>
          <path id="Path_5667" data-name="Path 5667" class="cls-1" d="M154.881,591.163a7.783,7.783,0,0,1,2.01,5.683,14.182,14.182,0,0,1-.259,2.6l-2.507,14.128h-8.47l2.29-13.008a5.985,5.985,0,0,0,.13-1.167,3.226,3.226,0,0,0-.886-2.42,3.41,3.41,0,0,0-2.485-.864,4.446,4.446,0,0,0-3.068,1.12,5.659,5.659,0,0,0-1.685,3.119l-2.334,13.22H129.1l4.322-24.244h8.47l-.605,3.457a10.887,10.887,0,0,1,3.5-2.654,10.138,10.138,0,0,1,4.538-1.023A7.417,7.417,0,0,1,154.881,591.163Z" transform="translate(-2.184 -578.35)"/>
          <path id="Path_5668" data-name="Path 5668" class="cls-1" d="M156.059,590.074a5.3,5.3,0,0,1,2.312,2.683l.605-3.371h8.47l-4.235,23.984a16.569,16.569,0,0,1-2.377,6.158,13,13,0,0,1-4.8,4.386,14.877,14.877,0,0,1-7.217,1.639q-5.315,0-8.232-2.391a8.033,8.033,0,0,1-2.917-6.547l.043-.868h8.341a2.311,2.311,0,0,0,1.016,1.815,4.377,4.377,0,0,0,2.528.648q4.322,0,5.143-4.84l.562-3.112a8.981,8.981,0,0,1-3.263,2.679,9.9,9.9,0,0,1-4.473.994,7.881,7.881,0,0,1-6.115-2.531,9.813,9.813,0,0,1-2.312-6.893,19,19,0,0,1,.259-3.025,17.53,17.53,0,0,1,2.55-6.565,13.436,13.436,0,0,1,4.473-4.321,10.871,10.871,0,0,1,5.51-1.513A7.96,7.96,0,0,1,156.059,590.074Zm.929,10.2a3.744,3.744,0,0,0-1.016-2.805,3.6,3.6,0,0,0-2.615-.994,5.059,5.059,0,0,0-3.414,1.318,5.991,5.991,0,0,0-1.9,3.691,6.451,6.451,0,0,0-.13,1.257,3.747,3.747,0,0,0,1.016,2.809,3.581,3.581,0,0,0,2.615.994,5.009,5.009,0,0,0,3.414-1.336,7.468,7.468,0,0,0,2.031-4.934Z" transform="translate(20.104 -578.41)"/>
        </g>
        <g id="Group_5536" data-name="Group 5536" transform="translate(175.323 325.213)">
          <path id="Path_5669" data-name="Path 5669" class="cls-1" d="M109.176,627.428a8.574,8.574,0,0,1-3.72-2.571,5.926,5.926,0,0,1-1.336-3.828,11.6,11.6,0,0,1,.086-1.163h8.168a2.181,2.181,0,0,0,.731,1.858,3.288,3.288,0,0,0,2.164.648,3.376,3.376,0,0,0,1.793-.436,1.281,1.281,0,0,0,.713-1.12,1.4,1.4,0,0,0-.908-1.279,24.889,24.889,0,0,0-3.025-1.141,36.084,36.084,0,0,1-4.062-1.513,7.9,7.9,0,0,1-2.787-2.161,5.526,5.526,0,0,1-1.188-3.673,6.391,6.391,0,0,1,1.275-3.889,8.29,8.29,0,0,1,3.608-2.7,13.953,13.953,0,0,1,5.4-.976,13.523,13.523,0,0,1,5.683,1.106,7.912,7.912,0,0,1,3.587,3.047,7.329,7.329,0,0,1,1.059,4.322H118.81a2.228,2.228,0,0,0-.688-1.837,3.049,3.049,0,0,0-2.118-.67,2.9,2.9,0,0,0-1.642.432,1.3,1.3,0,0,0-.652,1.124,1.44,1.44,0,0,0,.933,1.3,24.984,24.984,0,0,0,3.133,1.21,35.6,35.6,0,0,1,4.037,1.531,8.234,8.234,0,0,1,2.791,2.121,5.151,5.151,0,0,1,1.167,3.479,6.416,6.416,0,0,1-3.112,5.636,14.4,14.4,0,0,1-8.081,2.056A15.069,15.069,0,0,1,109.176,627.428Z" transform="translate(-104.12 -603.483)"/>
          <path id="Path_5670" data-name="Path 5670" class="cls-1" d="M116.78,627.082A9.081,9.081,0,0,1,113,623.539a10.427,10.427,0,0,1-1.343-5.363,14.646,14.646,0,0,1,1.97-7.516,13.929,13.929,0,0,1,5.423-5.272,15.772,15.772,0,0,1,7.736-1.905,12.086,12.086,0,0,1,5.6,1.257,9.156,9.156,0,0,1,3.8,3.565,10.436,10.436,0,0,1,1.358,5.377,14.526,14.526,0,0,1-1.984,7.544,13.942,13.942,0,0,1-5.445,5.226,15.9,15.9,0,0,1-7.736,1.883A12.084,12.084,0,0,1,116.78,627.082Zm9.59-7a6.032,6.032,0,0,0,1.819-2.463,8.058,8.058,0,0,0,.627-3.112,3.814,3.814,0,0,0-.929-2.769,3.227,3.227,0,0,0-2.4-.947,4.111,4.111,0,0,0-2.7.947,6.2,6.2,0,0,0-1.772,2.467,8.1,8.1,0,0,0-.627,3.155,3.776,3.776,0,0,0,.908,2.744,3.163,3.163,0,0,0,2.373.925A4.19,4.19,0,0,0,126.37,620.081Z" transform="translate(-84.519 -603.483)"/>
          <path id="Path_5671" data-name="Path 5671" class="cls-1" d="M125.012,627.082a9.112,9.112,0,0,1-3.785-3.544,10.426,10.426,0,0,1-1.34-5.363,14.646,14.646,0,0,1,1.97-7.516,13.929,13.929,0,0,1,5.424-5.272,15.772,15.772,0,0,1,7.736-1.905,12.086,12.086,0,0,1,5.6,1.257,9.147,9.147,0,0,1,3.8,3.565,10.4,10.4,0,0,1,1.361,5.377,14.526,14.526,0,0,1-1.984,7.544,13.952,13.952,0,0,1-5.449,5.226,15.889,15.889,0,0,1-7.736,1.883A12.069,12.069,0,0,1,125.012,627.082Zm9.59-7a6.032,6.032,0,0,0,1.819-2.463,8.124,8.124,0,0,0,.627-3.112,3.814,3.814,0,0,0-.929-2.769,3.227,3.227,0,0,0-2.4-.947,4.111,4.111,0,0,0-2.7.947,6.2,6.2,0,0,0-1.772,2.467,8.1,8.1,0,0,0-.627,3.155,3.776,3.776,0,0,0,.908,2.744,3.163,3.163,0,0,0,2.373.925A4.19,4.19,0,0,0,134.6,620.081Z" transform="translate(-63.106 -603.483)"/>
          <path id="Path_5672" data-name="Path 5672" class="cls-1" d="M153.741,605.561a7.771,7.771,0,0,1,2.01,5.683,14.106,14.106,0,0,1-.259,2.593l-2.506,14.131h-8.47l2.29-13.008a6.043,6.043,0,0,0,.13-1.167,3.24,3.24,0,0,0-.886-2.424,3.423,3.423,0,0,0-2.485-.861,4.431,4.431,0,0,0-3.068,1.124,5.651,5.651,0,0,0-1.685,3.112l-2.334,13.224h-8.513l4.322-24.247h8.47l-.605,3.457a10.991,10.991,0,0,1,3.5-2.654,10.179,10.179,0,0,1,4.538-1.016A7.415,7.415,0,0,1,153.741,605.561Z" transform="translate(-42.098 -603.418)"/>
        </g>
        <g id="Group_5537" data-name="Group 5537" transform="translate(204.429 369.602)">
          <path id="Path_5673" data-name="Path 5673" class="cls-1" d="M113.344,647.183a3.285,3.285,0,0,1-1.142-2.6,4.679,4.679,0,0,1,.756-2.571,5.435,5.435,0,0,1,2.1-1.9,6.206,6.206,0,0,1,2.982-.717,4.471,4.471,0,0,1,3.09,1.019,3.322,3.322,0,0,1,1.145,2.611,4.712,4.712,0,0,1-1.664,3.652,5.962,5.962,0,0,1-4.127,1.491A4.639,4.639,0,0,1,113.344,647.183Zm13.422-31.374-4.581,20.61h-7.264l2.64-20.61Z" transform="translate(-112.202 -615.809)"/>
          <path id="Path_5674" data-name="Path 5674" class="cls-1" d="M119.022,647.183a3.277,3.277,0,0,1-1.145-2.6,4.709,4.709,0,0,1,.756-2.571,5.435,5.435,0,0,1,2.1-1.9,6.211,6.211,0,0,1,2.985-.717,4.462,4.462,0,0,1,3.086,1.019,3.322,3.322,0,0,1,1.145,2.611,4.712,4.712,0,0,1-1.664,3.652,5.956,5.956,0,0,1-4.127,1.491A4.636,4.636,0,0,1,119.022,647.183Zm13.418-31.374-4.581,20.61H120.6l2.64-20.61Z" transform="translate(-97.44 -615.809)"/>
          <path id="Path_5675" data-name="Path 5675" class="cls-1" d="M124.7,647.183a3.277,3.277,0,0,1-1.145-2.6,4.709,4.709,0,0,1,.756-2.571,5.435,5.435,0,0,1,2.1-1.9,6.207,6.207,0,0,1,2.982-.717,4.471,4.471,0,0,1,3.09,1.019,3.322,3.322,0,0,1,1.145,2.611,4.712,4.712,0,0,1-1.664,3.652,5.956,5.956,0,0,1-4.127,1.491A4.636,4.636,0,0,1,124.7,647.183Zm13.418-31.374-4.581,20.61h-7.26l2.636-20.61Z" transform="translate(-82.675 -615.809)"/>
        </g>
      </g>
    </g>
  </g>
</svg>
