<svg xmlns="http://www.w3.org/2000/svg" width="600" height="600" viewBox="0 0 600 600">
  <g id="growguyana" transform="translate(-1093 -2619)">
    <rect id="Rectangle_1821" data-name="Rectangle 1821" width="600" height="600" transform="translate(1093 2619)" fill="#3bb13b"/>
    <g id="Group_3889" data-name="Group 3889" transform="translate(1243.854 2769.854)">
      <path id="Path_2648" data-name="Path 2648" d="M-5210.465-4682.633c-.032.016-.065.028-.1.042-.729.313-1.457.635-2.18.962-.167.075-.337.154-.5.231h0c-.732.335-1.46.671-2.183,1.02q-1.046.5-2.082,1.018c-.19.094-.376.191-.567.285h0c-.5.251-1,.5-1.491.751-.28.144-.553.29-.833.432-.4.209-.8.416-1.2.625-.311.165-.617.332-.927.5-.362.192-.725.383-1.084.579-.12.065-.237.132-.357.2l-.009,0c-.54.3-1.083.593-1.617.9-.306.171-.608.346-.912.52-.352.2-.7.4-1.052.6-.307.178-.609.358-.913.537-.34.2-.683.4-1.022.6-.06.034-.118.071-.176.105l-.014.008c-.151.09-.3.179-.445.269l-.015.009-.288.175c-.323.195-.648.39-.97.586-.155.1-.306.195-.461.29l-.3.183c-.219.136-.436.271-.651.408-.4.249-.791.5-1.185.757-.134.085-.27.168-.4.252-.148.1-.3.191-.45.289-.021.015-.04.026-.061.04-.094.062-.19.122-.286.182-.014.011-.031.021-.046.031q-1.16.758-2.3,1.53l-.628.43h0q-.977.668-1.943,1.353c-.131.09-.258.18-.386.27-.093.065-.181.13-.271.2-.048.034-.1.068-.145.1-.133.1-.264.194-.4.289s-.262.194-.393.289c-.344.25-.69.5-1.031.747l-.555.412c-.115.086-.228.174-.345.262-.149.111-.3.222-.454.334l-.049.037c-.171.128-.336.263-.508.393l-.417.315c-.178.136-.354.271-.529.407-.3.236-.6.477-.907.715-.119.095-.243.187-.364.281-.137.108-.272.214-.407.323-.055.042-.105.087-.159.13-.1.081-.205.158-.3.24-.136.106-.269.218-.4.328q-.743.6-1.471,1.208c-.068.055-.138.11-.2.166-.219.181-.435.362-.651.545-.694.588-1.387,1.177-2.072,1.775-.023.022-.048.043-.072.065l-.131.117a.261.261,0,0,1-.026.021l-.359.32c-.106.094-.212.191-.318.289-.375.332-.754.667-1.124,1q-.274.249-.545.5c-.066.059-.13.121-.193.179-.109.1-.223.2-.332.3-.012.012-.024.021-.036.032-.177.164-.346.333-.521.5-.2.192-.41.38-.612.571-.106.1-.218.2-.324.306-.271.259-.535.521-.8.78-.063.06-.129.121-.191.183l-.366.355c-.042.04-.081.083-.122.122-.095.092-.193.185-.288.28-.148.146-.295.294-.441.441q-.665.661-1.318,1.328c-.192.194-.382.39-.572.586-.41.425-.818.851-1.222,1.281-.171.181-.342.358-.511.54-.095.1-.186.2-.28.306l-.169.175q-.163.177-.323.356c-.058.06-.112.123-.169.187-.241.261-.484.522-.724.785-.032.037-.062.073-.094.107-.3.33-.59.664-.884,1-.123.138-.25.274-.374.414-.006.008-.017.019-.023.029-.06.064-.112.132-.17.2-.029.034-.059.065-.087.1-.167.192-.335.385-.5.58q-.573.66-1.136,1.332c-.207.244-.41.487-.614.734-.061.074-.118.147-.18.221-.316.383-.634.77-.946,1.156-.071.086-.139.171-.21.258-.043.055-.09.109-.135.166-.146.184-.287.367-.432.551-.04.046-.078.095-.116.143-.125.156-.248.313-.372.47-.044.057-.085.113-.127.167-.155.2-.314.395-.47.594-.123.162-.246.324-.371.486-.259.337-.514.678-.77,1.018-.071.1-.147.191-.221.289q-.312.417-.622.84c-.346.472-.692.945-1.035,1.423l-.434.6-.048.073c-.039.054-.08.106-.118.161a.121.121,0,0,0-.018.026c-.109.153-.212.308-.318.461-.3.433-.606.861-.905,1.3-.021.031-.042.063-.062.095-.168.245-.332.495-.5.742l-.127.184c-.092.138-.187.274-.278.413l-.146.224c-.087.129-.177.261-.263.391-.14.214-.276.427-.415.639-.3.464-.6.93-.9,1.4-.012.019-.023.036-.035.053-.151.24-.3.479-.455.72q-.508.818-1.013,1.644l-.01.02c-.094.153-.188.3-.281.457-.062.1-.119.205-.181.308l-.073.122c-.084.139-.167.28-.249.42-.046.08-.094.163-.141.242-.2.348-.41.688-.611,1.037-.1.177-.2.354-.3.531-.119.21-.237.422-.356.633-.1.165-.192.324-.283.489-.006.009-.011.017-.015.025-.06.105-.118.215-.176.324l-.1.179c-.133.239-.267.482-.4.721q-.429.783-.851,1.572c-.118.221-.238.443-.354.667q-.582,1.1-1.147,2.218l-.037.075c-.086.168-.166.339-.25.507-.015.03-.031.059-.045.088-.091.181-.184.365-.271.549-.042.083-.079.166-.118.246-.131.261-.263.524-.39.789-.114.232-.225.466-.336.7-.135.281-.266.563-.4.843-.06.129-.125.258-.186.386-.178.383-.354.767-.53,1.152-.271.593-.54,1.192-.8,1.791-.079.178-.158.354-.236.533a.349.349,0,0,0-.016.035c-.013.031-.028.063-.042.1l-.007.017c-.062.138-.116.279-.177.415-.254.589-.508,1.176-.755,1.768-.078.189-.155.38-.234.57-.043.1-.085.209-.126.314-.022.05-.044.1-.064.147-.064.159-.131.317-.194.474-.045.111-.087.225-.131.334-.075.183-.149.362-.22.543-.107.263-.209.526-.313.788-.157.4-.311.8-.466,1.208-.03.081-.062.159-.094.24-.127.332-.253.665-.378,1q-.453,1.2-.885,2.42c-.006.015-.011.032-.018.046-.028.086-.059.175-.09.261,0,.012-.008.022-.012.035-.058.16-.112.322-.17.486-.027.08-.054.163-.083.244q-.242.687-.478,1.38c-.085.252-.171.509-.255.763-.052.154-.1.307-.15.46-.058.176-.12.349-.176.523l0,.012c-.051.153-.1.309-.145.463-.033.1-.067.2-.1.307l0,.017c-.077.235-.15.47-.227.707-.01.034-.021.067-.032.1-.183.579-.361,1.163-.54,1.748-.008.027-.017.055-.026.085-.07.229-.142.46-.211.692q-.375,1.26-.733,2.53c-.115.408-.227.816-.339,1.225-.025.1-.052.2-.079.305-.1.351-.191.7-.287,1.052-.073.285-.149.57-.225.854-.063.247-.123.492-.187.739-.036.14-.076.277-.112.419-.043.171-.085.346-.128.519-.007.023-.01.047-.017.07s-.017.068-.026.1c-.067.265-.135.53-.2.8q-.319,1.3-.623,2.62-.268,1.168-.511,2.34c-.055.258-.1.515-.158.772q-.16.788-.312,1.58-.088.458-.169.918c-.089.481-.177.965-.259,1.448-.056.323-.108.647-.162.972-.031.195-.062.39-.093.584-.054.33-.105.664-.157.994-.027.18-.054.36-.081.54q-.161,1.1-.306,2.205c-.015.119-.029.238-.043.354q-.123.965-.23,1.933-.032.28-.062.561-.12,1.111-.222,2.226c-.009.094-.016.19-.023.282-.058.665-.111,1.334-.16,2-.016.192-.027.384-.042.575q-.076,1.123-.136,2.249c0,.059,0,.119-.008.178q-.054,1.052-.089,2.1c-.007.2-.012.39-.019.586-.022.755-.042,1.512-.052,2.269v.038c-.01.748-.01,1.5-.007,2.244,0,.2,0,.392,0,.587.006.72.016,1.438.032,2.161,0,.043,0,.088,0,.134q.029,1.136.078,2.279c.006.193.017.389.024.584s.021.383.031.576c.02.383.038.766.061,1.148.015.25.028.5.043.75.052.79.106,1.579.17,2.368q.111,1.351.24,2.689c.023.239.047.48.071.72.075.761.156,1.523.242,2.281.015.14.029.28.045.422.1.877.212,1.75.325,2.62.028.22.061.441.091.661q.142,1.064.3,2.124c.028.2.057.4.087.6q.2,1.29.409,2.571c.031.179.063.357.095.536q.18,1.063.375,2.116c.042.221.081.443.125.664q.239,1.271.5,2.537c.022.1.045.2.065.3.155.752.319,1.5.485,2.25.052.228.1.456.153.683.178.779.357,1.556.548,2.329l.044.189q.3,1.241.631,2.476c.057.217.115.435.173.653q.278,1.025.563,2.048c.043.156.087.31.131.464q.346,1.214.712,2.415c.059.193.12.388.179.582q.3.976.618,1.952c.063.193.124.388.187.581q.39,1.19.8,2.369c.051.147.1.292.154.437q.349,1,.711,1.983c.075.208.152.417.229.624q.437,1.176.891,2.34c.019.045.038.093.056.138.287.733.584,1.465.884,2.193.034.08.067.161.1.24l.16.383q.422,1.017.862,2.027c.044.1.083.2.128.3.331.755.672,1.509,1.016,2.258.09.2.18.391.271.585q.431.924.869,1.84c.079.158.154.319.231.478q.539,1.107,1.1,2.2c.085.167.171.332.256.5q.461.9.936,1.789c.1.186.2.372.3.558q.584,1.084,1.184,2.163l.187.323q.527.937,1.069,1.863c.11.194.226.386.338.578.413.7.829,1.4,1.258,2.092.007.014.016.028.024.043.434.705.877,1.407,1.323,2.107.119.187.24.375.36.562.385.592.77,1.182,1.16,1.769.077.116.153.233.231.35q.688,1.025,1.4,2.041l.355.509q.584.829,1.178,1.651c.113.154.225.313.339.468q.731,1,1.479,1.99c.1.137.209.271.313.408q.625.823,1.266,1.637c.135.172.269.343.406.516q.775.981,1.574,1.955c.109.136.227.272.339.41.332.4.662.8,1,1.194.167.2.338.4.506.595.287.337.574.673.865,1.007.187.216.376.432.564.646.278.316.555.63.836.945l.592.658q.417.461.842.922c.2.219.4.437.6.652q.429.463.866.922c.2.209.4.421.6.631q.457.478.92.955c.19.193.378.388.566.581q.529.538,1.064,1.071c.149.148.3.3.449.447q.759.757,1.532,1.5c.1.092.2.182.29.273.424.406.848.81,1.277,1.213q.278.262.559.518.514.478,1.033.956c.213.195.427.387.641.58q.489.44.981.881c.225.2.451.4.68.6.321.283.644.567.971.85q.347.3.7.6.5.422.994.844l.692.582q.52.433,1.045.861c.223.183.441.366.666.546.384.313.771.622,1.158.933l.572.459q.875.689,1.759,1.372.907.7,1.824,1.384c.2.149.4.294.6.442.414.306.828.611,1.245.912.238.172.48.342.72.515q.573.406,1.149.812c.255.178.508.352.764.529.378.259.754.517,1.134.771.255.174.514.346.771.517.385.256.773.509,1.162.763l.751.49c.417.266.833.527,1.25.792.226.138.45.282.674.422q.8.491,1.595.971c.117.07.229.142.346.211q.973.58,1.955,1.148c.191.108.383.214.573.323.468.266.934.531,1.4.792.249.139.5.274.75.41q.621.343,1.247.677c.27.143.54.286.809.426.288.153.58.3.871.454.113.059.229.121.344.18l.824.42c.411.207.819.411,1.232.615l.812.4c.024.011.05.022.074.035l1.226.587c.253.117.5.236.755.355.507.235,1.017.468,1.525.7.183.081.359.166.54.245q1.036.463,2.081.91c.159.068.321.133.481.2q.807.341,1.617.673c.254.1.508.207.764.309.45.181.9.36,1.355.538.281.111.563.218.847.327.432.165.863.331,1.295.49.292.109.586.215.876.323.432.158.865.312,1.3.466l.87.307c.449.156.9.309,1.35.459.277.093.551.187.827.278.5.165,1.01.328,1.516.487.226.074.446.146.672.216.729.229,1.464.451,2.2.669.088.025.179.049.266.076.649.189,1.3.377,1.952.559.252.07.506.138.758.205q.74.2,1.477.4l.878.226c.46.118.919.233,1.381.346.306.075.613.15.921.224q.68.163,1.362.319c.309.07.616.141.926.209.466.1.935.207,1.4.306l.892.188c.509.1,1.014.207,1.523.306.261.051.519.1.781.152.463.089.929.173,1.393.258.341.063.683.126,1.025.187.484.084.972.163,1.459.244.323.054.645.111.969.162.536.086,1.079.166,1.621.247.273.041.546.083.819.125.818.116,1.636.227,2.459.334.882.112,1.762.217,2.646.313.112.015.225.024.34.037.259.027.521.051.78.078,3.866.4,7.716.639,11.525.727.236,0,.472.014.709.018.579.012,1.156.013,1.731.015.329,0,.656.008.98.007.776,0,1.554-.01,2.326-.026l.357,0c.794-.018,1.582-.041,2.369-.072s1.6-.071,2.4-.112l.632-.037c.683-.04,1.362-.083,2.042-.133.127-.007.255-.016.38-.026q1.181-.087,2.357-.192l.583-.056c.641-.059,1.281-.124,1.92-.19l.541-.056q1.167-.13,2.331-.274l.471-.06q.965-.125,1.931-.261l.61-.086c.775-.115,1.547-.23,2.318-.354l.219-.035c.706-.118,1.412-.235,2.114-.362l.623-.111c.7-.127,1.389-.258,2.083-.394l.238-.044q1.14-.228,2.279-.473l.244-.049c.641-.137,1.278-.285,1.917-.431l.3-.068c.11-.026.222-.051.335-.074.43-.1.856-.209,1.285-.313s.837-.2,1.255-.3q3.617-.913,7.169-2c.118-.037.238-.07.356-.106a148.75,148.75,0,0,0,92.142-81.828,146.2,146.2,0,0,0,8.2-23.436,143.656,143.656,0,0,0,3.963-23.068c.07-.807.137-1.617.205-2.426.091-1.074.186-2.146.274-3.219l.17-2.069.022-.245h0l-.4-18.611v0c-.067-.5-.131-1.014-.194-1.524q-.152-1.225-.3-2.452-.13-1.065-.263-2.143c-.28-2.251-.586-4.538-.976-6.782a145.738,145.738,0,0,0-27.771-64.154q-1.053-1.382-2.138-2.744a151.854,151.854,0,0,0-38.69-34.639,151.143,151.143,0,0,0-55.053-20.383l-.139-.022q-1.058-.177-2.119-.337c-.062-.007-.125-.017-.184-.027q-1.093-.161-2.19-.3c-.037-.005-.072-.01-.106-.017-4.758-.612-9.67-.977-15.218-1.152l-13.039.28h-.014l-1.633.179c-.457.051-.913.1-1.371.149-2.087.223-4.253.455-6.372.712q-6.431.781-12.611,2.09c-.509.106-1.019.208-1.523.32l-.025.005q-1.236.276-2.462.571l-.564.138c-.81.2-1.617.4-2.418.613l-.025.005q-1.2.317-2.378.654c-.183.053-.368.1-.55.157q-1.175.339-2.34.695c-.1.029-.2.062-.3.092q-1.173.366-2.336.747c-.094.032-.183.063-.276.093-.762.253-1.518.513-2.273.78l-.186.064c-.753.266-1.5.542-2.245.823-.14.054-.279.1-.419.157q-1.118.425-2.222.867l-.479.2c-.051.02-.1.041-.148.06q-1,.407-1.991.83C-5210.428-4682.65-5210.446-4682.639-5210.465-4682.633Zm58.188-7.2c.068.007.135.018.2.026l.13.03c.059.014.116.031.175.048l.12.044c.034.013.068.03.1.044.008.005.016.008.023.012a.2.2,0,0,1,.03.013c.036.02.075.038.109.057s.049.032.07.046h0l.013.005a2.27,2.27,0,0,1,.589.546,3.5,3.5,0,0,1,.2.293q3.561,5.909,7.143,11.8,2.392,3.946,4.784,7.892c.037.062.081.125.127.187a.878.878,0,0,1,.227.922.656.656,0,0,1-.065.111h0l0,0a1.317,1.317,0,0,1-.1.1c-.03.027-.059.058-.09.081a.6.6,0,0,1-.055.028c-.014.011-.029.018-.042.027a.061.061,0,0,0-.021.012,1.077,1.077,0,0,1-.458.105,2.137,2.137,0,0,1-.278-.016l-.063-.006-.135-.022-.1-.014c-.05-.01-.1-.017-.153-.024a.228.228,0,0,0-.037,0,102,102,0,0,0-15.795-.646c-.645.015-1.287.033-1.933.051-.231.008-.464.012-.7.018l-2.486.078-.4.012-.344.009c-.8.027-1.6.073-2.4.133l-.115.009c-.234.019-.468.039-.7.062-.18.014-.361.028-.541.046-.236.023-.474.05-.708.075l-.533.056c-.245.026-.491.058-.732.086-.169.019-.337.038-.5.059-.259.031-.517.065-.775.1-.151.02-.3.038-.456.059l-1.071.143c-.05.008-.1.015-.15.021-.409.055-.815.112-1.219.169l-.151.02h0l-.147.021q-.967.132-1.934.26c-.029.005-.056.006-.085.009-.012,0-.024,0-.038,0a.346.346,0,0,1-.046,0c-.025,0-.052,0-.079.006h-.086c-.031,0-.065,0-.1,0h-.062c-.127,0-.284,0-.485.006l-.295,0h0l1.2-2.209h0c.095-.176.188-.346.283-.521.289-.53.572-1.049.852-1.563.25-.457.5-.907.742-1.361q1.211-2.2,2.433-4.41c.831-1.513,1.678-3.048,2.524-4.593,1.2-2.195,2.411-4.407,3.591-6.6a4.726,4.726,0,0,1,.508-.776c.017-.019.03-.04.047-.059.036-.043.076-.08.114-.122.065-.068.127-.137.194-.2.04-.037.085-.065.129-.1a2.208,2.208,0,0,1,.206-.153c.047-.03.1-.053.145-.082.07-.037.142-.076.215-.107.051-.021.105-.038.156-.057.077-.028.157-.055.239-.076s.14-.031.212-.042.114-.023.174-.03c.09-.012.189-.016.286-.022.043,0,.084-.009.126-.01h.131c.022,0,.045,0,.066,0,.369.006.74,0,1.108.007q.715,0,1.436-.009c.271,0,.545,0,.817-.011,1.229-.026,2.455-.07,3.661-.113l.482-.019h0l.084,0c.071,0,.134.005.2.006l.136,0C-5152.36-4689.846-5152.318-4689.839-5152.276-4689.834Zm143.086,150.988a.491.491,0,0,1,.074.031h.007a.459.459,0,0,1,.045.037.3.3,0,0,1,.04.032c.183.187.214.548.2,1.144h0v.012l-.415,4.962,0,.007a1.744,1.744,0,0,1-.027.185,1.686,1.686,0,0,1-.045.218c-.01.029-.02.055-.03.083a.907.907,0,0,1-.068.157.653.653,0,0,1-.255.263.578.578,0,0,1-.244.057,1.413,1.413,0,0,1-.756-.282c-.921-.59-1.843-1.169-2.771-1.747l-1.362-.848a2.382,2.382,0,0,1-.272-.193.984.984,0,0,1-.3-.393.574.574,0,0,1-.036-.2.56.56,0,0,1,.039-.184.042.042,0,0,1,0-.009.669.669,0,0,1,.1-.17.1.1,0,0,0,.011-.016,1.207,1.207,0,0,1,.164-.164.125.125,0,0,1,.019-.016,2.152,2.152,0,0,1,.229-.16c.032-.021.064-.041.1-.059l.023-.016.14-.077c.409-.223.817-.451,1.224-.679.951-.531,1.936-1.081,2.916-1.6.045-.025.085-.044.127-.066s.052-.025.078-.039l.021-.009c.023-.013.049-.025.07-.035a.361.361,0,0,1,.041-.021,1.925,1.925,0,0,1,.727-.235A.471.471,0,0,1-5009.19-4538.846Zm-2.589,24.26q-.363,1.433-.726,2.866c-.52,2.068-1.056,4.2-1.606,6.306q-.124.468-.261.938c-.009.025-.015.051-.023.075h0c-.01.039-.022.076-.033.113-.211.716-.437,1.427-.663,2.12l-.062.2a3.321,3.321,0,0,0-.092.391v.013h0c0,.019-.008.036-.012.054-.008.047-.017.093-.028.139,0,.02-.007.037-.012.053-.01.04-.02.078-.029.117,0,.021-.013.042-.019.062s-.02.068-.032.1-.02.043-.031.068a.678.678,0,0,1-.036.08.538.538,0,0,1-.044.072.717.717,0,0,1-.062.087c-.014.018-.03.033-.046.05a.728.728,0,0,1-.079.069.569.569,0,0,1-.058.037.062.062,0,0,0-.015.011.846.846,0,0,1-.146.061c-.02,0-.037.012-.056.017a.233.233,0,0,1-.029.009h0a.054.054,0,0,0-.017,0h0a.625.625,0,0,1-.119.013h-.02a.714.714,0,0,1-.1-.012.565.565,0,0,1-.082-.015l-.016-.007h0l-.011,0h0l-.033-.013-.02-.006c-.021-.012-.045-.02-.067-.032s-.046-.031-.07-.048-.038-.028-.058-.043l-.058-.06c-.018-.018-.035-.035-.053-.056s-.028-.04-.043-.06-.036-.048-.052-.075c-.006-.008-.008-.014-.014-.023l0-.008a3.464,3.464,0,0,1-.2-.388c-.023-.051-.045-.1-.07-.153-.012-.026-.025-.051-.04-.076s-.038-.078-.058-.111c-2.085-3.426-4.186-6.886-6.268-10.325-1.383-2.282-2.758-4.554-4.114-6.793l-1.292-2.141c-.389-.642-.785-1.31-1.2-1.953-.046-.075-.088-.147-.129-.223a.173.173,0,0,1-.014-.025,3.037,3.037,0,0,1-.311-1.891c.024-.157.053-.315.092-.468,0-.02.01-.039.016-.059s.016-.051.025-.074.019-.059.03-.085a.636.636,0,0,1,.034-.079.64.64,0,0,1,.034-.072.6.6,0,0,1,.042-.071c.008-.012.016-.024.026-.036a.212.212,0,0,1,.016-.026c.016-.022.035-.042.051-.061l.05-.051c.02-.017.041-.032.063-.048a.538.538,0,0,1,.082-.054l.01,0a.679.679,0,0,1,.131-.045.732.732,0,0,1,.146-.019h0a.936.936,0,0,1,.145.015c.029,0,.058.007.088.013a1.074,1.074,0,0,1,.119.035c.029.009.054.013.083.022a.02.02,0,0,1,.011.006,3.048,3.048,0,0,1,.382.185c.05.027.095.05.148.082q1.007.625,2.028,1.249c.312.194.626.389.941.58q1.221.749,2.444,1.491c.159.1.32.2.479.3l1.034.629c1.615.981,3.222,1.956,4.807,2.916q.473.289.945.572.927.563,1.852,1.123c.407.248.818.495,1.224.742l.071.044c.144.088.293.18.433.284a1.4,1.4,0,0,1,.643,1.381ZM-5023-4482.02c-.016.048-.027.095-.046.145a3.994,3.994,0,0,1-.2.473,151.434,151.434,0,0,1-13.827,22.77,2.977,2.977,0,0,1-2.594,1.312c-.006,0-.009,0-.013,0h-.014l-1.334.018-.158,0-.234,0q-1.469.021-2.935.052l-3.439.078-1.787.042-1.192.026h0c-.059,0-.119,0-.18,0l-2.832.064-2.206.047c-1.854.04-3.729.078-5.584.106-.139.013-.3.025-.473.049-.018,0-.035,0-.054.006-.2.025-.4.054-.6.06a1.091,1.091,0,0,1-.636-.146.576.576,0,0,1-.094-.083.111.111,0,0,1-.019-.021.683.683,0,0,1-.114-.175c-.28-.632.28-1.133.733-1.53.124-.111.246-.219.345-.324q1.8-1.917,3.545-3.963a126.176,126.176,0,0,0,7.99-10.407,124.343,124.343,0,0,0,9.282-15.878,126.1,126.1,0,0,0,5.419-12.8c.021-.063.039-.133.059-.208s.029-.127.043-.195c.092-.429.214-.955.81-1.052l.011,0h.006l.024-.006h0l.032,0h0a.637.637,0,0,1,.09.011.612.612,0,0,1,.1.021l.061.023a.7.7,0,0,1,.083.043.4.4,0,0,1,.053.037.575.575,0,0,1,.07.057c.016.015.033.034.051.052a.468.468,0,0,1,.055.064c.018.021.032.043.048.064l.046.067a.916.916,0,0,1,.045.08l.036.063c.017.032.033.065.047.1l.024.049c.024.048.046.1.066.144s.051.113.076.165a.207.207,0,0,0,.012.028c.03.06.06.116.091.166q2.06,3.384,4.117,6.771.817,1.344,1.645,2.71l.353.58,1.312,2.156.526.86c.384.628.764,1.257,1.149,1.883.223.366.447.728.672,1.094l.2.333c.274.444.546.891.821,1.333a4.1,4.1,0,0,1,.423.91,2.412,2.412,0,0,1,.07.261.055.055,0,0,0,.005.011v.007a2.632,2.632,0,0,1,.05.405v.009c0,.043,0,.089,0,.133,0,.083,0,.169-.009.254a.1.1,0,0,0,0,.018c-.005.046-.017.092-.025.137-.013.083-.026.169-.048.254C-5022.955-4482.139-5022.977-4482.079-5023-4482.02Zm-132.166,82.229c-.063,0-.127,0-.192-.005l-1.233-.028-.253-.008-1.108-.034-.412-.014c-.344-.012-.69-.027-1.04-.04-.171-.006-.341-.015-.514-.021l-.953-.044c-.206-.011-.412-.022-.62-.032l-.865-.045c-.254-.014-.513-.031-.77-.046s-.535-.033-.806-.052l-.8-.056c-.267-.021-.531-.038-.8-.059s-.544-.044-.816-.067-.535-.043-.8-.065-.538-.051-.809-.077-.552-.05-.83-.078c-.256-.024-.514-.053-.774-.082q-.437-.045-.878-.092c-.229-.028-.459-.057-.687-.083-.325-.038-.65-.076-.975-.116-.154-.02-.309-.042-.465-.062-.95-.123-1.9-.256-2.855-.407a3.729,3.729,0,0,1-.412-.083,1.181,1.181,0,0,1-.855-.539,1.124,1.124,0,0,1,.089-.956,3.5,3.5,0,0,1,.178-.357c3.018-5.457,6.03-10.952,8.577-15.609.05-.091.1-.175.153-.254a.4.4,0,0,0,.028-.034,1.705,1.705,0,0,1,.135-.175c.018-.021.036-.04.054-.061.039-.04.078-.079.117-.115l.016-.013c.019-.016.038-.03.059-.046l.111-.084c.018-.01.037-.02.056-.029a1.591,1.591,0,0,1,.791-.208l.06,0c.09,0,.184,0,.282.012.741.074,1.484.137,2.228.2.079.007.153.012.231.018l.451.035q.779.059,1.561.106,5.221.322,10.541.21a133.766,133.766,0,0,0,13.6-.994c.33-.041.658-.08.987-.123.095-.013.177-.016.265-.022.06,0,.128-.014.186-.014h0a.14.14,0,0,1,.025,0c.1,0,.192,0,.279.006.028.006.05.01.077.014.053.006.1.014.156.023l.105.026c.047.014.1.027.139.043a.345.345,0,0,1,.045.015h.007a.452.452,0,0,1,.049.024c.018.007.033.016.052.025a2.183,2.183,0,0,1,.912.915q2.219,3.717,4.486,7.462l.012.021.011.018.067.11q.724,1.194,1.449,2.386.392.644.783,1.288,1.119,1.838,2.241,3.664l0,.009h0c.023.039.044.074.065.112s.044.076.063.111.037.073.056.11.036.068.051.1.029.069.044.1.026.059.035.086.023.067.033.1.017.053.023.078a.636.636,0,0,1,.017.094.308.308,0,0,1,.012.065.285.285,0,0,1,0,.04.746.746,0,0,1-.057.372c-.13.291-.451.486-1.05.624l-.264.055c-.932.174-1.849.334-2.754.488-.234.042-.463.076-.694.114-.652.108-1.3.216-1.941.314-.321.05-.64.094-.959.141-.54.081-1.077.159-1.608.232-.347.048-.69.088-1.032.135l-1.059.134-.368.044c-.521.062-1.036.119-1.551.174-.286.032-.575.063-.858.091h0l-.328.037-.779.074c-.521.048-1.039.091-1.551.132l-.812.063q-.786.057-1.559.1c-.234.015-.47.029-.7.041-.74.04-1.475.074-2.2.1l-.058,0c-.853.029-1.718.1-2.552.182-.43.037-.856.077-1.284.107-1,0-2.044-.016-3.128-.033h-.058C-5154.274-4399.774-5154.714-4399.782-5155.161-4399.791Zm-75.683-29.672-1.222.82-.809.542c-.676.455-1.35.909-2.016,1.364-.008,0-.012.008-.02.011-.066.046-.132.082-.2.123l-.017.01c-.06.036-.119.075-.176.106-.074.039-.147.068-.221.1-.058.027-.116.056-.173.077-.073.026-.145.043-.215.063-.04.011-.085.028-.123.037a2.054,2.054,0,0,1-.362.041,2.619,2.619,0,0,1-1.609-.61c-.394-.286-.783-.575-1.176-.863q-2.93-2.164-5.728-4.429-3-2.424-5.81-4.94c-.072-.065-.144-.132-.217-.205-.128-.123-.264-.259-.437-.437-.095-.094-.2-.2-.317-.324-.093-.093-.189-.192-.3-.3l-.283-.282h0l20.94-.451,8.729-.188.275-.007c.1,0,.191,0,.288,0s.163,0,.244.007h.015c.073,0,.144,0,.215.012a4.3,4.3,0,0,1,.454.065c.029.006.052.012.079.02.083.017.163.037.238.057a2.214,2.214,0,0,1,1.642,1.3.673.673,0,0,1,.032.161.091.091,0,0,1,0,.017.6.6,0,0,1,0,.119.033.033,0,0,1,0,.012.527.527,0,0,1-.033.123c0,.007-.008.015-.01.022a.653.653,0,0,1-.056.1l-.008.013h0a2.073,2.073,0,0,1-.763.567c-.058.03-.114.059-.169.085l-.188.1c-.059.03-.114.063-.171.093s-.1.053-.14.082-.078.051-.117.078c-.3.205-.611.407-.917.613q-2.484,1.666-4.976,3.323l-2.63,1.749c-.192.131-.386.258-.58.39Zm-28.743-23.152-1.954.051c-.354.01-.714.018-1.067.029h-.061c-.083,0-.16,0-.235,0h-.07l-.114-.007c-.1-.008-.2-.017-.28-.031l-.03-.008,0,0a1.277,1.277,0,0,1-.2-.057l-.028-.01a.8.8,0,0,1-.141-.076.565.565,0,0,1-.16-.168.636.636,0,0,1-.081-.4,2.592,2.592,0,0,1,.34-.934c2.34-4.411,4.806-9.135,8-15.318a3.085,3.085,0,0,1,.168-.3c.012-.022.024-.041.036-.061s.018-.03.027-.044c.265-.409.523-.607.806-.627h.034a.778.778,0,0,1,.1.006.525.525,0,0,1,.061.011.344.344,0,0,1,.07.021.312.312,0,0,1,.063.021c.022.01.048.021.07.033l.063.033.073.05c.02.015.042.03.061.047a.622.622,0,0,1,.079.068l.062.053.085.09c.02.02.039.039.059.062s.065.079.1.119c.016.021.031.04.049.062.05.065.1.136.155.208.483.7,1,1.371,1.389,1.88,3.29,6.595,5.564,10.979,6.62,12.768.038.063.079.132.112.19.518.858.708,1.266.541,1.572a.661.661,0,0,1-.474.293l-.107.019c-.029,0-.057.012-.086.016l-.146.016c-.031,0-.06,0-.092.009l-.185.01c-.033,0-.06,0-.094,0-.1,0-.2.009-.318.012q-1.964.048-3.936.09l-2.783.058-1.9.041h-.124l-3.42.076Zm-11.832-18.519c-.314.619-.635,1.24-.957,1.858-.073.146-.147.286-.223.431-.082.161-.167.319-.251.479-.192.374-.39.749-.581,1.115l-.62,1.189a1.991,1.991,0,0,1-.111.18c-.008.015-.016.029-.023.041s-.038.048-.056.073-.019.018-.026.029a.664.664,0,0,1-.463.271h-.015c-.014,0-.028-.005-.043-.005a.775.775,0,0,1-.5-.3c-.017-.019-.03-.038-.047-.057l0-.007a2.23,2.23,0,0,1-.165-.238q-.486-.788-.974-1.571c-.051-.078-.1-.158-.151-.238-.259-.415-.513-.832-.768-1.247-.344-.555-.693-1.11-1.031-1.668-.046-.074-.084-.145-.118-.214a.942.942,0,0,1-.085-.887.623.623,0,0,1,.088-.117l.031-.028a.034.034,0,0,1,.012-.009,1.5,1.5,0,0,1,.979-.27l.061,0c.343,0,.684-.008,1.025-.015l.683-.014.909-.019.482-.011.128,0h.02c.255,0,.508-.012.762-.017h.058q.579-.014,1.155-.021h0c.021,0,.039,0,.063,0a.972.972,0,0,1,.795.311.307.307,0,0,1,.036.043.5.5,0,0,1,.026.063h0a.687.687,0,0,1,.03.076.361.361,0,0,1,.023.079.709.709,0,0,1,.008.13.571.571,0,0,1,0,.072A1.391,1.391,0,0,1-5271.419-4471.134Zm3.681-16.016-.255.007c-1.189.032-2.381.059-3.541.086-4.144.09-8.43.18-12.626.6-.151.017-.3.024-.439.027a2.693,2.693,0,0,1-2.8-2.027,150.431,150.431,0,0,1-6.722-20.134,143.743,143.743,0,0,1-3.41-17.784c-.472-3.728-.717-7.526-.957-11.205-.043-.709-.092-1.422-.14-2.133-.033-.489-.063-.978-.1-1.466-.008-.08-.016-.158-.023-.24a2.568,2.568,0,0,1,.077-1.2,2.146,2.146,0,0,1,.19-.408h0l.141-.234h0l.557.883.017.024c.017.029.035.058.054.086.035.056.067.109.1.165l.163.264c.164.26.324.52.483.776.267.441.576.923.92,1.438.024.04.049.075.076.114.1.145.2.3.307.451.094.133.181.263.273.4l.343.483c.1.139.191.273.293.415.12.169.248.345.374.519.105.145.206.284.313.433l.385.521.349.472c.131.176.268.358.4.537s.244.328.372.5c.139.185.286.376.428.564.129.167.252.333.382.5.153.2.316.411.475.619.123.158.243.316.365.477.152.2.306.4.461.594.139.179.275.354.415.536l.4.507c.165.213.326.422.493.635.147.187.295.372.439.559s.314.4.474.6.33.419.5.631c.144.182.285.36.428.542.1.129.205.259.31.388.831,1.052,1.671,2.11,2.508,3.163.27.341.541.685.812,1.022.107.136.215.272.322.405.161.2.32.4.479.6.117.15.236.3.354.451.145.18.288.362.433.543l.2.251c3.331,4.216,6.511,8.3,8.592,11.353l.013.021a127.35,127.35,0,0,0,7.769,20.368l.009.015c.014.029.026.055.039.086a2.557,2.557,0,0,1,.412,1.546h0c-.009.022-.021.043-.029.065s-.021.053-.034.078h0a.654.654,0,0,1-.1.122c-.011.011-.028.021-.041.033a.636.636,0,0,1-.083.063h0a.793.793,0,0,1-.171.083,1.342,1.342,0,0,1-.207.063h-.009c-.039.011-.084.017-.126.025s-.065.014-.1.02l-.164.02-.107.013-.2.016-.109.007c-.109.006-.224.012-.344.015Q-5267.308-4487.16-5267.738-4487.149Zm-29.556-77.934a147.067,147.067,0,0,1,5.428-23.717c.019-.052.034-.107.05-.164h0c0-.021.014-.044.018-.067a.963.963,0,0,1,.432-.653.658.658,0,0,1,.127-.049.785.785,0,0,1,.157-.021h.017a.479.479,0,0,1,.095.009.191.191,0,0,1,.046.005.774.774,0,0,1,.485.406c.008.014.017.03.026.045a.312.312,0,0,1,.02.033.958.958,0,0,1,.051.1c.027.053.054.1.086.156l2.328,3.816.664,1.094c1.244,2.039,2.5,4.107,3.77,6.179.475.784.95,1.564,1.429,2.351.326.536.654,1.077.981,1.613l1.635,2.694q.546.9,1.088,1.8.688,1.144,1.378,2.282l.3.507c.038.064.068.122.1.182s.062.1.086.152.054.11.079.165.048.1.067.144.04.107.059.161.035.086.05.128.027.1.037.153.022.079.03.117.012.094.018.141a.8.8,0,0,1,.011.108c0,.048,0,.094,0,.139,0,.03,0,.063,0,.092a1.326,1.326,0,0,1-.031.143.59.59,0,0,1-.016.069,1.029,1.029,0,0,1-.083.2,1.194,1.194,0,0,1-.162.216c-.018.02-.037.036-.057.055a1.266,1.266,0,0,1-.171.137.084.084,0,0,0-.019.011,1.744,1.744,0,0,1-.295.154l-.038.018-.018.006a4.393,4.393,0,0,1-1.377.22q-1.415.034-2.829.063l-2.839.06c-1.771.037-3.548.075-5.325.1-.81.014-1.629.027-2.454.046-.39.008-.779.02-1.17.028-.256.008-.511.013-.767.02l-.548.022c-.462.015-.926.03-1.388.051l-.1,0a1.529,1.529,0,0,1-1.231-.371c-.017-.019-.031-.04-.048-.061A1.7,1.7,0,0,1-5297.294-4565.083Zm46.346-87.121c.061-.057.118-.107.177-.161.436-.394.8-.737,1.1-1.018a8.287,8.287,0,0,1,1.31-1.1c.032-.019.062-.03.093-.046s.059-.031.089-.043.083-.029.123-.042a.739.739,0,0,1,.081-.023,1.025,1.025,0,0,1,.217-.029h.008a.986.986,0,0,1,.13.008c.027,0,.054.007.079.008s.066.013.1.02.056.013.085.021l.107.032c.023.008.048.012.071.022a11.391,11.391,0,0,1,1.355.646c.208.108.439.231.7.364l.007,0,.266.135c.044.022.084.044.13.066l.434.216c.1.047.2.1.294.145l1.047.515c.228.112.453.222.68.336.49.241.978.486,1.467.728.1.054.209.1.313.157.043.023.09.043.133.067q.913.454,1.815.908l.456.229q.637.322,1.269.637h0c.061.031.124.061.182.091.473.238.95.478,1.427.715.115.061.231.117.349.177,2.1,1.052,4.235,2.12,6.356,3.156.653.315.973.572,1.062.854a.637.637,0,0,1,.022.125h0v0h0v.062a.412.412,0,0,1,0,.061c0,.021-.013.043-.018.065a.434.434,0,0,1-.016.059.5.5,0,0,1-.033.069c-.01.02-.017.039-.028.06a.849.849,0,0,1-.052.073c-.012.019-.023.038-.038.059l-.071.077c-.019.021-.033.039-.053.06l-.09.082-.067.062c-.043.038-.093.075-.144.115-.017.013-.028.026-.047.039-.069.052-.145.106-.228.165-.319.222-.645.449-.97.682a26.448,26.448,0,0,0-2.857,2.33c-.18.175-.364.336-.554.487a7.034,7.034,0,0,1-3.449,1.48.161.161,0,0,1-.029,0h0c-.109.018-.216.033-.328.045-.089.01-.177.022-.27.03-.234.019-.475.035-.725.042-.066,0-.134,0-.2,0-1.059.007-2.124.019-3.188.033-.414.005-.828.008-1.245.016s-.858.014-1.288.021c-.918.015-1.83.03-2.751.049q-3.779.078-7.575.213c-.72.023-1.438.052-2.157.08l-1.4.053q-2.682.111-5.356.238c-.074,0-.154.009-.229.018-.021,0-.041,0-.062,0-.149.015-.3.025-.462.027a3.166,3.166,0,0,1-.374-.014c-.033,0-.069-.008-.1-.013s-.06,0-.091-.009l-.1-.021c-.064-.012-.127-.028-.192-.046h0s-.009,0-.014,0c-.039-.01-.076-.021-.112-.033-.084-.028-.172-.062-.259-.1l-.062-.022,0,0-.2-.093h0l.009-.012.131-.157c2.465-2.944,4.941-5.68,7.469-8.266C-5255.228-4648.243-5253.12-4650.266-5250.948-4652.2Zm24.1-13.38c.02.273.039.555.058.841l.1,1.449.031.414c0,.028,0,.051,0,.077a3.778,3.778,0,0,1-.08,1.21.536.536,0,0,1-.208.294h0s-.008,0-.01,0a.542.542,0,0,1-.262.072,4.831,4.831,0,0,1-1.717-.656c-.235-.114-.468-.235-.7-.352q-.551-.274-1.095-.548c-.416-.211-.839-.423-1.263-.635-.481-.24-.966-.479-1.448-.712-.024-.012-.054-.026-.078-.041a1.253,1.253,0,0,1-.685-.625.552.552,0,0,1-.022-.122.531.531,0,0,1,.058-.266c.008-.017.014-.031.021-.045a.524.524,0,0,1,.037-.053.535.535,0,0,1,.032-.05,1.1,1.1,0,0,1,.076-.085.119.119,0,0,0,.015-.018c.017-.013.032-.027.047-.04a2.332,2.332,0,0,1,.371-.279c.886-.552,1.852-1.159,2.844-1.784.742-.466,1.5-.943,2.243-1.421a1.5,1.5,0,0,1,.737-.281.574.574,0,0,1,.28.061c.343.172.417.654.442,1.054.041.609.082,1.219.126,1.848.01.153.021.311.033.469C-5226.863-4665.734-5226.858-4665.661-5226.853-4665.585Zm36.911-19.6q1.375-.355,2.755-.684c.047-.01.09-.019.137-.031.79-.186,1.584-.363,2.372-.535.207-.046.412-.089.618-.132q1.254-.266,2.507-.512h0s.009,0,.016,0c.059-.014.117-.032.181-.051l.014,0c.046-.014.1-.026.146-.037a1.337,1.337,0,0,1,.24-.038c.01,0,.018,0,.026,0s.047,0,.07,0l.05.007a.693.693,0,0,1,.07.02c.015.005.031.008.048.014s.018.012.028.018a.566.566,0,0,1,.193.144.786.786,0,0,1,.122.188.97.97,0,0,1-.175.919l-.073.126-3.243,5.9c-.139.249-.274.5-.414.75q-4.622,8.413-9.237,16.83a2.391,2.391,0,0,1-1.229,1.046q-.06.026-.12.048l-.066.029c-.072.028-.145.053-.213.078h0q-.514.183-1.03.375-.565.2-1.129.414-2.632.988-5.242,2.108-3.675,1.582-7.268,3.413c-.1.05-.189.093-.277.129a.368.368,0,0,1-.067.027c-.032.015-.061.024-.092.035a1.839,1.839,0,0,1-.222.071c-.014,0-.026.007-.039.011a1.42,1.42,0,0,1-.289.045.725.725,0,0,1-.388-.093c-.3-.169-.447-.567-.489-1.279-.125-2.229-.262-4.472-.4-6.708-.13-2.078-.262-4.146-.391-6.18h0l-.113-1.794-.019-.3c-.019-.281-.035-.564-.056-.845-.038-.58-.079-1.156-.121-1.717q-.026-.365-.054-.721l-.054-.732-.036-.5h0a2.792,2.792,0,0,1-.05-.39.528.528,0,0,1,0-.058,2.2,2.2,0,0,1,0-.333.146.146,0,0,1,0-.036,2.167,2.167,0,0,1,.048-.272c0-.012.006-.026.009-.036a1.5,1.5,0,0,1,.093-.246.373.373,0,0,1,.022-.05.692.692,0,0,0,.029-.064,2.247,2.247,0,0,1,1.13-.9,147.118,147.118,0,0,1,19.46-6.882q.822-.225,1.646-.443C-5190.313-4685.089-5190.127-4685.139-5189.941-4685.188Zm67.365-1.248q.677.149,1.356.3c.2.046.4.09.595.138q.861.2,1.724.414c.06.016.12.028.18.044q.954.237,1.911.49.277.076.557.15c.466.126.932.252,1.4.383.208.059.417.116.627.177.495.141.992.285,1.487.432l.462.134c.644.194,1.29.391,1.938.595l.095.028c.124.042.253.083.379.124h0c.145.043.292.091.438.139.375.119.752.242,1.13.366.241.078.481.156.721.237q.57.188,1.145.387c.151.052.3.1.455.154h0c.176.062.353.12.53.183.008,0,.013,0,.019,0h0a.293.293,0,0,0,.031.014c.1.035.2.074.284.113.029.012.054.024.081.037.087.041.17.085.246.128l.009,0a.2.2,0,0,1,.024.014l.009.005a1.973,1.973,0,0,1,.9,1.131c.013.038.024.076.034.114a.155.155,0,0,0,0,.017h0a.6.6,0,0,0,.016.063c.006.036.016.076.024.115,0,.009,0,.022,0,.032a.123.123,0,0,1,0,.033c.019.106.034.214.043.328a.36.36,0,0,1,0,.041c.01.12.014.245.017.371.033,1.81.076,3.631.123,5.451.056,2.156.118,4.308.185,6.442.033,1.135.069,2.27.1,3.391l.022.716c.005.155.014.314.022.469.032.574.088,1.162.148,1.821.018.18.037.367.053.558,0,.025,0,.045.005.07.021.216.041.439.058.671l0,.018c0,.032,0,.063,0,.093,0,.045,0,.09,0,.133v.218c0,.034,0,.065,0,.1s0,.068,0,.1l0,.007a.824.824,0,0,1-.273.662.569.569,0,0,1-.32.093,2.34,2.34,0,0,1-.8-.188c-.049-.017-.095-.036-.146-.054l-.012,0c-.125-.048-.256-.1-.4-.162-3.117-1.305-6.027-2.407-8.817-3.348q-1.751-.59-3.443-1.1a3.473,3.473,0,0,1-2.088-1.63q-1.779-2.955-3.569-5.9-2.428-4.02-4.858-8.042-2.414-3.985-4.822-7.977c-.032-.054-.065-.108-.1-.162h0v0c-.05-.083-.11-.161-.172-.246a1.577,1.577,0,0,1-.345-.684.676.676,0,0,1,.069-.4l0,0a.768.768,0,0,1,.25-.289c.008,0,.014-.013.022-.019a.436.436,0,0,1,.071-.031.629.629,0,0,1,.256-.058,1.646,1.646,0,0,1,.567.117,2.153,2.153,0,0,0,.33.09q3.712.538,7.431,1.307c.321.066.642.131.964.2Zm34.569,12.407c.023.012.044.02.066.032l.011.005c.239.129.478.259.719.388h0q2.123,1.141,4.24,2.29c.261.143.522.282.786.425.046.026.09.052.131.077a1.724,1.724,0,0,1,.266.2.961.961,0,0,1,.155.184.6.6,0,0,1,.094.3h0v0a.522.522,0,0,1,0,.055.434.434,0,0,1-.013.085c0,.007,0,.015,0,.021-.012.03-.02.06-.033.091l-.007.015a.653.653,0,0,1-.053.088.061.061,0,0,1-.01.019c-.021.03-.045.058-.069.087a.213.213,0,0,1-.017.02c-.026.027-.054.055-.083.083l-.026.023c-.03.026-.062.052-.1.077l-.051.039c-.028.021-.06.042-.092.063s-.047.033-.075.048c-.007,0-.011.008-.019.012l-3.456,2.1c-.708.433-1.418.859-2.125,1.291a1.855,1.855,0,0,1-.566.245.734.734,0,0,1-.152.02.67.67,0,0,1-.119-.012c-.015,0-.032,0-.047-.008a.373.373,0,0,1-.077-.028.239.239,0,0,1-.048-.02h0a.66.66,0,0,1-.294-.409,1.866,1.866,0,0,1-.078-.538c-.009-.724-.029-1.448-.043-2.17h0l-.023-.923h0l-.008-.042-.025-.126-.017-.852,0-.183h0c0-.123-.007-.245-.009-.364-.01-.569-.021-1.136-.037-1.7a2.975,2.975,0,0,1,.021-.477.835.835,0,0,1,.33-.629h0a.084.084,0,0,1,.019-.008.593.593,0,0,1,.291-.08,1.1,1.1,0,0,1,.4.077.115.115,0,0,0,.034.013l.035.015A1.934,1.934,0,0,1-5088.007-4674.029Zm20.292,12.721c.051.012.1.027.153.043.034.01.067.019.1.032a1.609,1.609,0,0,1,.169.081.632.632,0,0,1,.083.042c.07.041.141.089.214.139.015.011.026.018.039.028,2.067,1.562,4.257,3.31,6.77,5.408.6.506,1.221,1.025,1.867,1.572h0l0,.005a1.767,1.767,0,0,1,.133.127c.036.033.076.068.106.1s.027.037.045.056a.892.892,0,0,1,.251.578.656.656,0,0,1-.045.229,1.721,1.721,0,0,1-.585.679q-4.343,3.456-8.672,6.928c-.059.047-.116.091-.175.141h0l-1.766,1.411q-1.737,1.39-3.472,2.776h0l-.58.464a.008.008,0,0,0-.006,0,2.332,2.332,0,0,1-.234.154,2.724,2.724,0,0,1-.238.14c-.069.038-.138.077-.21.115l-.074.037c-.088.045-.18.09-.27.141l-.09.051-.078-.054-.009-.005,0,0c-.134-.086-.259-.174-.386-.256-.2-.13-.385-.255-.567-.389-.051-.039-.1-.075-.155-.115a120.98,120.98,0,0,0-10.563-7.63,3.47,3.47,0,0,1-.305-.213,1.318,1.318,0,0,1-.571-.725.649.649,0,0,1-.014-.127.646.646,0,0,1,.036-.2c.086-.271.353-.538.859-.853l4.081-2.542q2.526-1.573,5.126-3.206,2.722-1.707,5.55-3.487,1.053-.66,2.118-1.335a2.942,2.942,0,0,1,.491-.249,1.68,1.68,0,0,1,.2-.063c.022-.005.05-.017.074-.02a1.506,1.506,0,0,1,.3-.042l.023,0a1.429,1.429,0,0,1,.177.014C-5067.785-4661.318-5067.75-4661.315-5067.715-4661.308Zm20.624,18.667.068.012h0l.027,0a.061.061,0,0,0,.02.006,1.723,1.723,0,0,1,.778.556,151.5,151.5,0,0,1,15.189,20.016c.019.03.04.062.056.094.008.016.014.034.022.05a.209.209,0,0,1,.015.034c.022.05.046.106.069.169l0,0h0c.013.034.026.071.042.11.006.019.014.041.022.062.036.1.078.205.13.342l.144.361h0l-.271-.1-.827-.31-.151-.058c-.28-.1-.539-.2-.79-.3-.154-.059-.306-.121-.456-.181q-10.567-4.307-21.129-8.621l-3.795-1.547a4.082,4.082,0,0,1-1.237-.648.532.532,0,0,1-.161-.294.664.664,0,0,1,.2-.517c.009-.011.015-.021.025-.031a.145.145,0,0,1,.015-.015c.041-.047.087-.094.138-.145.171-.167.4-.354.681-.583,1.242-1,2.488-1.987,3.737-2.983l2.148-1.714c1.351-1.079,2.71-2.17,4.05-3.259a.062.062,0,0,0,.024-.017c.065-.051.125-.1.188-.14a1.665,1.665,0,0,1,.808-.356.446.446,0,0,1,.062-.009h0a.725.725,0,0,1,.1,0A.252.252,0,0,1-5047.091-4642.641Zm-15.274,20.235c.116.134.231.269.347.4.483.56.954,1.124,1.424,1.691a120.381,120.381,0,0,1,17.135,27.555,118.949,118.949,0,0,1,9.23,31.772c0,.022,0,.044.009.065s.008.064.012.1h0q.179,1.266.333,2.537c.022.191.045.382.067.573.1.876.2,1.753.278,2.631,0,.038.009.073.01.109.008.084.013.167.021.25.075.817.139,1.638.2,2.457.011.156.023.31.033.465q.086,1.317.146,2.639c.008.187.014.375.022.562.037.907.066,1.816.082,2.726.017.958.02,1.913.015,2.868,0,.315-.012.631-.017.946-.008.638-.017,1.278-.037,1.916-.012.376-.028.748-.043,1.122-.024.578-.046,1.157-.079,1.734-.021.4-.047.791-.071,1.188-.019.284-.039.566-.061.849a118.538,118.538,0,0,1-8.286,35.917q-1.128,2.807-2.389,5.544l-.009.018c-.36.782-.726,1.562-1.1,2.335-.077.163-.159.323-.238.484q-.481.979-.978,1.947c-.147.286-.3.567-.447.85-.275.522-.547,1.041-.829,1.556-.169.312-.342.622-.514.933q-.4.729-.82,1.453c-.179.314-.363.63-.546.943-.281.48-.564.957-.854,1.432-.183.3-.365.608-.553.911q-.463.749-.936,1.491c-.172.27-.342.542-.517.809q-.59.913-1.2,1.814c-.1.149-.2.3-.3.448q-.762,1.121-1.553,2.225c-.146.205-.3.409-.446.614-.384.529-.769,1.057-1.161,1.581-.2.27-.408.537-.612.8q-.521.684-1.051,1.362c-.222.285-.447.567-.675.852q-.521.65-1.048,1.293-.348.423-.7.844-.543.651-1.1,1.294c-.205.239-.409.479-.617.717-.021.027-.046.054-.069.079-.407.464-.82.925-1.234,1.384-.2.221-.4.443-.6.661q-.926,1.011-1.876,2.007c-.768.8-1.549,1.592-2.335,2.374-.222.218-.447.431-.671.649-.512.5-1.025,1-1.547,1.491-.3.284-.609.562-.915.845-.477.441-.954.881-1.44,1.313-.324.292-.654.58-.982.869-.473.411-.947.823-1.425,1.229q-.506.427-1.017.853c-.48.4-.965.792-1.448,1.181-.341.272-.683.549-1.026.819q-.751.588-1.509,1.165c-.334.253-.666.51-1,.76-.545.406-1.095.8-1.646,1.2-.3.215-.6.437-.9.649q-1.055.745-2.126,1.462l-.209.144c-.065.043-.131.09-.2.135-.034.021-.066.043-.1.067-.055.036-.112.071-.168.107l-.07.047a119.168,119.168,0,0,1-60.59,19.725c-.107.005-.217.008-.324.011-.9.039-1.789.071-2.687.091-.921.02-1.842.024-2.765.022-.286,0-.571,0-.859-.006-.646-.006-1.294-.016-1.937-.031l-.951-.026c-.659-.022-1.321-.05-1.981-.081-.264-.015-.53-.025-.8-.041-.591-.032-1.186-.076-1.774-.117-.706-.05-1.41-.106-2.116-.169-.476-.042-.949-.083-1.424-.129-.448-.046-.9-.1-1.347-.147s-.923-.1-1.383-.161c-.438-.056-.878-.111-1.315-.17-.491-.067-.981-.138-1.472-.21-.4-.06-.8-.116-1.206-.181q-1.118-.177-2.235-.376c-.36-.062-.719-.132-1.079-.2-.638-.12-1.274-.242-1.908-.373-.354-.071-.707-.148-1.063-.226-.549-.118-1.1-.238-1.647-.365-.356-.081-.71-.163-1.064-.249-.578-.138-1.154-.28-1.73-.43-.31-.077-.62-.154-.931-.237q-1.3-.341-2.6-.712c-.1-.028-.189-.059-.284-.085q-1.175-.342-2.346-.711c-.3-.091-.591-.189-.888-.283q-.879-.284-1.756-.579c-.32-.11-.64-.219-.96-.332q-.877-.307-1.752-.627c-.288-.106-.578-.21-.867-.317q-1.211-.456-2.416-.934l-.145-.058a120.115,120.115,0,0,1-31.531-18.652q-3.74-3.071-7.268-6.448-3.2-3.078-6.15-6.355a120.168,120.168,0,0,1-20.448-31.4,118.828,118.828,0,0,1-10.412-46.515,118.982,118.982,0,0,1,8.642-47.124h0a120.449,120.449,0,0,1,5.713-12.158,121,121,0,0,1,19.52-26.685,120.261,120.261,0,0,1,37.717-26.475,119.116,119.116,0,0,1,46.218-10.223l.053,0c.184-.005.363-.015.547-.019q3.139-.067,6.259.033c.251.008.5.021.753.03,1.61.06,3.214.145,4.814.271.078.005.153.014.229.018.8.065,1.607.14,2.409.22.308.032.612.065.919.1q.927.1,1.854.216l.937.121c.627.083,1.254.175,1.881.266l.979.15q1.059.168,2.114.355c.255.044.512.09.769.138.721.133,1.442.271,2.163.42q.464.094.93.194.914.194,1.826.4.462.1.922.216c.613.146,1.227.3,1.837.453.291.074.581.146.872.223.848.222,1.7.454,2.54.694l.079.024c.824.235,1.646.485,2.466.741.287.09.574.183.859.274q.9.287,1.8.59c.3.1.6.2.9.307q.894.312,1.79.636c.094.037.191.068.284.1,1.022.376,2.043.764,3.056,1.168a120.038,120.038,0,0,1,36.829,23.156c.051.043.1.088.148.136h0q.92.843,1.827,1.706.957.918,1.885,1.854.187.182.37.365.9.906,1.777,1.829l.326.347q.855.9,1.688,1.821c.042.049.09.1.132.144Q-5063.209-4623.384-5062.365-4622.405Zm46.429,67.232h0l4.387-.09h0l-.071.182-.023.056a1.807,1.807,0,0,1-1.053,1.04c-.075.037-.146.074-.217.111q-2.57,1.429-5.152,2.848c-.265.146-.528.293-.793.437-2.735,1.511-5.56,3.071-8.329,4.624-.1.057-.195.1-.286.15l-.085.04-.011.005-.089.037c-.062.028-.123.053-.179.074l-.109.033a1.312,1.312,0,0,1-.326.06.585.585,0,0,1-.145-.016.307.307,0,0,1-.062-.009c-.011,0-.017-.008-.027-.009h0a.7.7,0,0,1-.075-.03c-.006,0-.013,0-.019-.009s-.021,0-.028-.009v0a.568.568,0,0,1-.151-.127,1.9,1.9,0,0,1-.313-1.239c-.007-.281-.009-.562-.015-.845,0-.1,0-.208,0-.312-.017-1.276-.035-2.583-.171-3.878-.045-.431-.1-.86-.181-1.287a1.8,1.8,0,0,1-.008-.652,1.089,1.089,0,0,1,.224-.5.1.1,0,0,1,.011-.01.945.945,0,0,1,.136-.129,1.3,1.3,0,0,1,.8-.27h0c2.931-.072,5.911-.137,8.852-.2Zm-35.814,112.4.56.084.34.045h0l-.24.241q-1.438,1.451-2.89,2.829a131.833,131.833,0,0,1-10.2,8.808h0l-.01.006c-.045.035-.09.061-.134.091-.061.038-.122.073-.184.1l-.061.027a1.308,1.308,0,0,1-.172.064c-.024.008-.05.014-.074.02a1.279,1.279,0,0,1-.3.043,1.342,1.342,0,0,1-.209-.014,1.28,1.28,0,0,1-.131-.02,1.333,1.333,0,0,1-.142-.035,1.131,1.131,0,0,1-.12-.034c-.048-.017-.093-.034-.138-.054s-.074-.03-.108-.046a.811.811,0,0,1-.085-.041c-.045-.022-.092-.044-.136-.067l0,0-1.533-.84-1.163-.635c-2.98-1.637-6.034-3.309-9.089-4.972-1.521-.825-3.041-1.652-4.557-2.469-.053-.028-.1-.056-.146-.085-.419-.244-.653-.482-.718-.731a.536.536,0,0,1-.017-.122,1.006,1.006,0,0,1,.487-.771c.118-.094.251-.183.385-.269a4.611,4.611,0,0,1,.47-.265c.043-.021.085-.041.127-.059.026-.011.052-.022.078-.035a3.611,3.611,0,0,1,.545-.179l.012,0c.1-.023.2-.04.309-.055l.042-.006c.109-.012.219-.023.327-.026q6.261-.131,12.515-.263l4.664-.1,11.08-.238a2.506,2.506,0,0,1,.435.041C-5051.876-4442.792-5051.814-4442.781-5051.75-4442.769Zm-28.223,22.839c-.121.067-.235.133-.357.2-.269.151-.54.3-.8.452l-.464.261-.639.362c-.164.094-.325.184-.487.275l-.052.032c-.546.308-1.08.614-1.6.911-.054.03-.1.053-.148.078s-.1.049-.146.068l-.051.022a1.454,1.454,0,0,1-.2.066.41.41,0,0,1-.042.013h-.009a.768.768,0,0,1-.184.026h-.01a.731.731,0,0,1-.111-.013.392.392,0,0,1-.066-.012.614.614,0,0,1-.076-.029c-.017-.007-.034-.012-.049-.019s-.011,0-.015-.007c-.248-.144-.372-.471-.375-.991,0-.006,0-.013,0-.021,0-.2,0-.4-.005-.6s-.008-.4-.013-.6-.008-.408-.015-.612c-.006-.267-.015-.533-.02-.8-.007-.434-.013-.813-.015-1.146a7.756,7.756,0,0,1,.079-1.321.571.571,0,0,1,.011-.056.861.861,0,0,1,.353-.6l0,0a.616.616,0,0,1,.153-.065.685.685,0,0,1,.171-.024,7.617,7.617,0,0,1,2.674,1.183l.627.342c.226.125.449.249.675.372l.29.158c.281.153.563.3.845.453l.008,0h0q.045.025.088.051c.029.016.061.031.09.048l.078.051a.042.042,0,0,0,.02.012,1.02,1.02,0,0,1,.465.535.156.156,0,0,1,.005.017.446.446,0,0,1,.015.111.569.569,0,0,1-.076.274,1.022,1.022,0,0,1-.257.295l-.01.009a1.994,1.994,0,0,1-.23.164s-.012.006-.018.012c-.036.021-.068.042-.106.063Zm-20.7,9.8a2.091,2.091,0,0,1-.171.2c-.031.031-.067.06-.1.091s-.089.076-.137.111a2.632,2.632,0,0,1-.5.3,3.308,3.308,0,0,1-.373.148q-.983.324-1.982.667c-.557.189-1.117.386-1.678.584q-.263.092-.528.188c-.706.252-1.411.507-2.119.771a.076.076,0,0,1-.016,0,2.424,2.424,0,0,1-.253.076c-.052.012-.1.029-.154.041a2.137,2.137,0,0,1-.334.04c-.027,0-.054,0-.079,0h0c-.031,0-.06,0-.089,0a.884.884,0,0,1-.1-.015c-.037-.005-.071-.013-.107-.019s-.061-.018-.091-.028-.038-.015-.057-.021a1.691,1.691,0,0,1-.712-.541c-.014-.017-.025-.034-.04-.05s-.039-.049-.059-.076-.038-.06-.058-.088c-.03-.046-.061-.088-.09-.136-2.359-3.913-4.85-8.039-7.394-12.19q-.712-1.159-1.425-2.317a1.428,1.428,0,0,1-.293-1.23.862.862,0,0,1,.3-.376h0c.009-.008.019-.012.029-.02s.014-.008.018-.012c.024-.014.046-.029.069-.044a2.055,2.055,0,0,1,.319-.154l.017-.008c.06-.022.12-.043.182-.063s.122-.039.183-.056c.9-.259,1.8-.533,2.69-.814a113.978,113.978,0,0,0,13.489-5.193c.1-.045.192-.082.279-.116.02-.006.038-.012.056-.019.066-.021.131-.041.191-.058l.058-.012a1.385,1.385,0,0,1,.265-.039s.007,0,.01,0a.806.806,0,0,1,.163.017.472.472,0,0,1,.063.011.617.617,0,0,1,.173.074h0l0,0h0c.021.014.039.031.059.047a.129.129,0,0,1,.013.01.941.941,0,0,1,.274.533c0,.024.011.047.017.071s.008.077.014.114.008.053.009.081c.005.043.01.091.013.137,0,.024,0,.048,0,.072,0,.073,0,.148.008.227,0,.524.012,1.048.021,1.574,0,.167,0,.335.007.5.008.357.014.714.021,1.068q.007.352.012.706c.006.176.009.354.012.531.017.668.029,1.336.043,1.994q.032,1.22.056,2.443c.011.553.021,1.107.032,1.659,0,.184.006.369.01.552,0,.1,0,.193.008.292.008.54.018,1.086.027,1.633,0,.174.007.351.01.526,0,.112,0,.226.007.34.026,1.215.059,2.437.111,3.646a3.076,3.076,0,0,1-.125,1.063c-.012.037-.023.076-.037.113s-.021.068-.037.1a1.924,1.924,0,0,1-.156.289C-5100.641-4410.17-5100.656-4410.153-5100.671-4410.133Zm-177.3-138.6a1.988,1.988,0,0,1,.094.868c-.119,1.347-.156,2.713-.179,4.06-.006.32-.01.642-.015.958v.049h0c0,.153,0,.309-.008.461,0,.258-.006.514-.012.776s-.012.54-.02.812c0,.16,0,.314-.011.476-.013.43-.029.862-.056,1.295,0,.078-.01.158-.016.236-.022.35-.045.7-.075,1.053h0a.184.184,0,0,0,0,.025l-.019.2-.03.33h0l-.327-.557h0q-1.638-2.8-3.271-5.594-1.377-2.355-2.754-4.71a1.155,1.155,0,0,1-.2-.894.548.548,0,0,1,.046-.132s0,0,0-.005a.638.638,0,0,1,.122-.149.338.338,0,0,1,.049-.037.746.746,0,0,1,.145-.091.2.2,0,0,1,.022-.014,1.577,1.577,0,0,1,.588-.113c.675-.021,1.353-.041,2.011-.052.9-.02,1.77-.034,2.562-.047.065,0,.121.008.183.012.03,0,.061,0,.09.006s.052,0,.076,0,.06.016.093.022a1.085,1.085,0,0,1,.132.033l.029,0,.078.027a1.247,1.247,0,0,1,.163.078c.024.015.054.027.075.043a1.008,1.008,0,0,1,.2.167l0,0a.972.972,0,0,1,.1.136c.023.035.052.065.072.1A1.441,1.441,0,0,1-5277.97-4548.735Zm1.524-73.126,0,0a2.538,2.538,0,0,1,1.056-.862c.02-.009.038-.02.059-.027a1.874,1.874,0,0,1,.182-.058,1.825,1.825,0,0,1,.2-.052c.032-.007.066-.013.1-.019a2.756,2.756,0,0,1,.323-.034c.017,0,.03,0,.046,0q2.561-.068,5.127-.148,5.209-.153,10.419-.312,3.864-.122,7.726-.235c.3-.008.6-.017.9-.027h.018c.02,0,.04,0,.061,0a2.468,2.468,0,0,1,.4.068c.044.008.092.02.142.028a.99.99,0,0,0,.1.02c.043.009.084.019.136.029l.272.052-1.152,1.5c-.574.747-1.118,1.457-1.671,2.165a123.544,123.544,0,0,0-7.294,10.491c-.162.263-.324.523-.487.786q-.713,1.167-1.4,2.352c-.01.013-.016.028-.024.04q-.677,1.167-1.327,2.348c-.135.246-.269.494-.4.742q-.469.859-.924,1.728c-.141.269-.279.536-.418.805-.325.629-.642,1.263-.955,1.9-.095.193-.191.386-.285.578q-.6,1.234-1.174,2.481c-.093.2-.182.4-.272.6q-.437.965-.858,1.936c-.122.281-.242.563-.361.844q-.384.905-.756,1.818c-.105.263-.214.524-.318.786-.341.858-.677,1.717-1,2.582-.02.054-.036.109-.052.17v0c-.015.062-.031.125-.046.194-.011.038-.021.08-.032.121a2.149,2.149,0,0,1-.063.229,1.2,1.2,0,0,1-.052.135.191.191,0,0,1-.016.035,1.057,1.057,0,0,1-.1.184c-.006.006-.011.016-.017.022a.644.644,0,0,1-.16.148c-.009.006-.018.012-.025.019a.053.053,0,0,0-.021.012.7.7,0,0,1-.125.05c-.018,0-.033.011-.052.016l-.031.01a.1.1,0,0,0-.024,0,.159.159,0,0,0-.038,0,.681.681,0,0,1-.071,0c-.529.012-.747-.481-.907-.844-.01-.024-.021-.044-.031-.067-.046-.1-.09-.193-.136-.272-.781-1.268-1.555-2.539-2.331-3.812l-1.8-2.942c-2.358-3.865-4.8-7.863-7.229-11.774a3.168,3.168,0,0,1-.166-3.483c.673-1.32,1.344-2.6,2.014-3.854,1.674-3.116,3.353-6.041,5.088-8.848.058-.093.119-.186.184-.277C-5276.486-4621.806-5276.465-4621.833-5276.445-4621.861Zm60.925,207.8a.58.58,0,0,1-.216.094.744.744,0,0,1-.16.023,1.281,1.281,0,0,1-.429-.074c-.038-.012-.077-.027-.115-.042a.9.9,0,0,1-.09-.036c-.02-.006-.042-.019-.061-.027l-.021-.01c-.051-.023-.1-.043-.15-.07-1.031-.526-2.142-1.088-3.429-1.73-.4-.2-.808-.4-1.24-.62a2.439,2.439,0,0,1-.471-.29.847.847,0,0,1-.254-.328.454.454,0,0,1-.043-.183c-.018-.288.2-.565.665-.859s.909-.58,1.364-.873c.812-.525,1.625-1.05,2.419-1.567h0l.6-.391h0a.059.059,0,0,1,.019-.01c.013-.009.025-.014.037-.024.03-.017.057-.034.084-.051l.11-.064a1.309,1.309,0,0,1,.564-.178.561.561,0,0,1,.283.062c.26.128.4.451.433.983.055,1.019.126,2.049.194,3.063.017.246.032.5.05.74l.042.6.046.639v.007C-5215.178-4414.661-5215.258-4414.261-5215.521-4414.062Zm24.694,7.519c-.5.941-1.063,1.39-1.8,1.406a2.894,2.894,0,0,1-1.006-.189l-.055-.019c-1.048-.372-2.127-.7-3.187-1.01l-.527-.157-1.2-.354a2.179,2.179,0,0,1-1.2-.727,1.8,1.8,0,0,1-.324-.978q-.438-6.935-.909-13.865v0l-.194-2.919-.147-2.238a.842.842,0,0,1,.2-.825.563.563,0,0,1,.2-.091.723.723,0,0,1,.143-.022c.006,0,.01,0,.017,0h.016a1.012,1.012,0,0,1,.11.008.62.62,0,0,1,.066.009.848.848,0,0,1,.1.02l.061.013.106.03.049.017c.051.016.1.035.148.052h0c.038.014.075.03.111.045q.88.329,1.762.667l.127.047c.854.33,1.714.656,2.57.975q1.679.621,3.341,1.173c2.887.96,5.731,1.773,8.491,2.416a4.609,4.609,0,0,1,.474.133c.067.024.133.05.189.075a1.552,1.552,0,0,1,.3.169.8.8,0,0,1,.262.318,1.036,1.036,0,0,1-.029.766,3.973,3.973,0,0,1-.3.635c-2.048,3.634-4.12,7.38-6.184,11.173Q-5189.949-4408.176-5190.826-4406.543Zm172.638-189.931c.045.116.088.234.132.348.225.6.446,1.195.663,1.8l.176.479q.4,1.105.773,2.216c.058.169.116.343.171.514.2.6.4,1.2.593,1.8.066.2.133.408.2.61.238.751.474,1.5.7,2.257.017.054.031.108.048.162q.316,1.058.617,2.122c.057.21.118.422.176.635.177.635.349,1.268.518,1.905.036.138.074.279.109.418q.3,1.135.574,2.278c.045.19.091.382.139.572q.217.911.423,1.826c.03.125.059.252.085.379l.1.425h0c0,.026.012.051.018.078s.016.073.022.11q.4,1.822.752,3.656c.22,1.135.315,1.7.029,2.045a.544.544,0,0,1-.11.107.519.519,0,0,1-.051.034.1.1,0,0,1-.025.015.269.269,0,0,1-.044.026.562.562,0,0,1-.071.035c-.032.013-.066.025-.1.035s-.059.018-.088.028c-.012,0-.029,0-.042.007l-.056.013c-.053.011-.107.02-.167.029-.037.005-.075.009-.115.013l-.137.014c-.277.023-.609.032-1.02.042-1.57.034-3.146.064-4.715.095-.175,0-.351.007-.522.01l-3.328.07c-2.582.055-5.195.118-7.854.208-.125,0-.241,0-.355,0-.076,0-.151-.009-.221-.017a1.807,1.807,0,0,1-1.6-1.049.126.126,0,0,1-.01-.025,3.136,3.136,0,0,1-.143-.352c0-.012-.007-.025-.011-.039-.021-.063-.042-.129-.06-.2s-.037-.141-.052-.218q-.694-3.144-1.555-6.242a121.946,121.946,0,0,0-8.68-22.471c-.075-.148-.145-.3-.223-.448-.035-.07-.075-.144-.112-.216a125.848,125.848,0,0,0-7.083-12.118,2.866,2.866,0,0,1-.14-.26c-.019-.037-.04-.08-.061-.123-.009-.02-.018-.037-.026-.059-.059-.123-.136-.284-.241-.5l-.031-.065h0l0-.007-.193-.386v0l2.29.893,2.768,1.081,6.548,2.552.68.267c.271.107.543.211.813.317l.056.022q1.2.467,2.405.938c.1.04.2.079.3.116.175.068.352.137.526.207l3.289,1.287c2.843,1.111,5.775,2.267,8.672,3.372a3.6,3.6,0,0,1,1.92,1.534c.025.044.053.088.078.137s.045.071.065.108c.062.119.118.243.171.371Q-5018.983-4598.58-5018.188-4596.474Z" transform="translate(5302.762 4693.935)" fill="#fdffef"/>
      <path id="Path_2649" data-name="Path 2649" d="M-5030.606-4257.685c-.947,2.5-.866,2.814,1.049,4.2,2.424,1.76,4.862,3.5,7.283,5.258.594.432,1.41.79.759,1.786-.595.917-1.338.771-2.129.351-1.471-.779-2.937-1.57-4.488-2.237a31.911,31.911,0,0,0,4.783,4.852c.32.257,1.15.226.729.973-.315.555-.68,1.12-1.468,1.141a2.732,2.732,0,0,1-1.755-.764,55.535,55.535,0,0,0-6.018-4.184c1.36,1.941,2.725,3.876,4.077,5.82.748,1.073,1.486,2.15,2.205,3.241.378.571.963,1.145.048,1.792a1.526,1.526,0,0,1-2.192-.18,28.512,28.512,0,0,1-3.9-4.162c-.148-.225-.29-.453-.632-.987a1.4,1.4,0,0,0,.489,1.5,28.631,28.631,0,0,1,4.238,5.979c.356.691,1.229,1.5-.011,2.21-1,.569-1.687.225-2.332-.689a30.72,30.72,0,0,0-2.248-2.577c-.637.377-.4.917-.411,1.346-.119,4.515-.234,9.029-.3,13.544-.017,1.164-.419,1.713-1.646,1.617-1.084-.086-1.155-.823-1.158-1.617-.009-3.262-.005-6.525-.341-9.978-.6.711-1.224,1.407-1.8,2.138a1.463,1.463,0,0,1-2.254.361c-.958-.671-.385-1.292.027-1.937a39.733,39.733,0,0,1,3.537-5.479,1.508,1.508,0,0,0,.413-.864,63.979,63.979,0,0,0-.362-11.385,7.1,7.1,0,0,0-1.961,5.095,8.276,8.276,0,0,1-2.276,5.616c-.466.539-1.024,1.139-1.787.546a1.506,1.506,0,0,1-.587-1.974,14.174,14.174,0,0,0,1.151-5.553,7.713,7.713,0,0,1,1.366-4.131c.871-1.428,1.762-2.845,2.9-4.678-1.818,1.444-3.252,2.579-4.68,3.722-.752.6-1.49.9-2.3.087-.919-.917-.092-1.451.432-2.026,1.174-1.287,2.367-2.558,3.567-3.822.444-.468.87-.842-.053-1.291-.987-.479-1.083-1.129-.406-2.083,1.225-1.723,2-3.739,3.236-5.543-.382.435-.779.859-1.151,1.3a146.934,146.934,0,0,1-16.048,16.482c-4.29,3.715-9.223,4.629-14.64,3.646-.579-.105-1.573.061-1.437-1.1.111-.96.734-1.113,1.585-1.254,4.221-.7,8.279-1.86,11.589-4.791a138.923,138.923,0,0,0,14.458-14.845c1.617-1.93,3.225-3.851,5.558-4.956.925-.439.937-1.226.949-2.063a114.265,114.265,0,0,1,.284-11.909c.65-5.5.94-11.074,3.572-16.133a1.885,1.885,0,0,0,.031-1.575,70.7,70.7,0,0,0-8.628-16.98c-.308-.451-.607-.95-1.3-.563-5.367,2.982-10.455,1.33-15.395-1.11-2.943-1.452-5.028-3.95-6.861-6.63a13.745,13.745,0,0,1-1.119-1.8c-4.857-10.1-10.218-19.968-13.612-30.71a50.651,50.651,0,0,1-2.055-18.228,11.176,11.176,0,0,1,.454-2.4,2.253,2.253,0,0,1,2.185-1.858,2.494,2.494,0,0,1,2.684,1.409,29.692,29.692,0,0,0,1.708,3.7,22.775,22.775,0,0,0,14.27,9.626c7.032,1.692,14.2,2.813,21.137,4.91,1.665.5,3.3,1.105,4.945,1.681,6.786,2.369,9.671,7.69,9.9,14.338.337,9.765-4.343,17.183-12.144,22.729-1.241.885-1.525,1.446-.654,2.8a90.589,90.589,0,0,1,8.9,16.5c.19.491.422.96,1.026.84,4.042-.8,8.134.031,12.189-.388a4.191,4.191,0,0,0,2.873-1.673,15.257,15.257,0,0,0,3.465-10.119,31.659,31.659,0,0,1,5.787-18.065,23.16,23.16,0,0,1,10.8-8.652,55.233,55.233,0,0,1,22.67-3.931c5.728.219,11.3,1.531,16.9,2.675s11.2,2.276,16.806,3.344a13.143,13.143,0,0,0,13.5-6.3,22.761,22.761,0,0,0,2.219-4.9c.4-1.3,1.125-1.623,2.336-1.143.455.18.93.308,1.4.443a1.185,1.185,0,0,1,.89,1.841c-3.729,9.036-8.137,17.435-17.6,21.983a54.13,54.13,0,0,0-14.964,10.1c-1.61,1.6-3.854,2.43-5.521,4.038a60.067,60.067,0,0,0-6.336,7.881,38.258,38.258,0,0,1-8.872,9.059c-6.234,4.306-13.182,5.592-20.636,5.126a31.107,31.107,0,0,1-15.092-4.691c-1.848-1.172-4.045-1.584-6.084-2.342a3.161,3.161,0,0,0-1.765.105,22.15,22.15,0,0,1-7.293.376,22.7,22.7,0,0,0-6.34.3,1.577,1.577,0,0,0-1.444,1.5c-1.346,7.723-2.573,15.45-2.162,23.337.077,1.511.47,2.533,2.091,3.019a9.914,9.914,0,0,1,4.383,3.3q5.945,6.735,11.886,13.475a46.6,46.6,0,0,0,5.975,5.55,19.351,19.351,0,0,0,10.236,4.326,31.585,31.585,0,0,1,6.967,1.652,12.052,12.052,0,0,0,3.5.739c.736.021,1.292.24,1.295,1.11,0,.91-.643,1.016-1.332,1.07-11.9.93-22.321-1.913-30.256-11.512-3.71-4.488-7.677-8.766-11.535-13.129a15.875,15.875,0,0,0-1.6-1.635c-.5-.42-1.121-1.358-1.722-.72a1.691,1.691,0,0,0,.289,2.468c.963.883,1.827,1.875,2.8,2.744,1.465,1.31,2.781,2.76,4.1,4.2.487.53,1.077,1,.331,1.772a1.453,1.453,0,0,1-2.168.144c-1.472-1.123-2.937-2.256-4.4-3.384C-5029.557-4256.9-5030.069-4257.275-5030.606-4257.685Zm87.723-67.964c-.18-.206-.232-.323-.318-.354-7.66-2.909-15.474-4.756-23.751-3.552-3.338.484-6.371,1.439-8.886,3.948-3.621,3.61-7.334,7.125-10.786,10.9-.252.273-.658.507-.621,1.123a13.947,13.947,0,0,1,8.885.154,27.783,27.783,0,0,0,12.573.92,25.7,25.7,0,0,0,10.734-3.938c3.417-2.357,6.325-5.32,9.79-7.58C-4944.465-4324.547-4943.686-4325.1-4942.883-4325.648Zm-19.06,16.164a25.227,25.227,0,0,1-13.088.769c-4.746-.91-9.414-2.127-14.247-.616a5.02,5.02,0,0,1-1.465.028,1.9,1.9,0,0,0-1.351.471,45.9,45.9,0,0,1-13.012,8.3c-.351.15-.758.3-.69.778.065.462.519.525.868.628a10.8,10.8,0,0,1,2.99,1.28c4.717,3.142,9.974,4.026,15.538,4.014C-4974.915-4293.859-4967.61-4300.323-4961.943-4309.485Zm-44.956,4.63a4.567,4.567,0,0,0,.778-.058,7.106,7.106,0,0,0,.9-.382,39.224,39.224,0,0,0,11.844-8.824q3.087-3.481,6.316-6.834a4.183,4.183,0,0,0,1.273-2.557,48.187,48.187,0,0,1,4.081-15.049c.132-.293.393-.613.172-.914-.269-.365-.692-.194-1.062-.134-12.246,2.02-19.671,9.214-21.854,21.46C-5005.234-4313.753-5004.522-4309.114-5006.9-4304.854Zm-36.548-34.373c.875.237.948-.292.585-1.187a14.724,14.724,0,0,0-4.576-6.451c-2.359-1.794-5.2-2.708-7.853-3.966a1.441,1.441,0,0,0-.949-.047,76.971,76.971,0,0,0-7.768,2.456,10.163,10.163,0,0,1-6.169.847c-.4-.081-.884-.458-1.21-.013-.3.4.09.821.269,1.2,2.043,4.39,4.136,8.761,6.119,13.18.55,1.224,1.195,1.42,2.242.746a61.529,61.529,0,0,0,6.541-4.3c3.091-2.6,6.574-3.182,10.386-2.824C-5045.127-4339.52-5044.434-4339.378-5043.448-4339.228Zm-4.88,19.677c1.467.11,2.434-.269,3.986-2.044,3.136-3.592,3.245-7.9,2.872-12.313a1.38,1.38,0,0,0-.657-1.072c-2.293-1.51-7.606-1.517-9.849.14a28.038,28.038,0,0,1-9.909,4.841c-.94.237-1.2.564-.678,1.44C-5059.519-4323.476-5055.46-4319.923-5048.328-4319.55Zm11.176-6.9a24.657,24.657,0,0,0,8.068-14,15.5,15.5,0,0,0-2.006-10.979c-.693-1.247-1.255-1.193-2.1-.09-3.785,4.939-4.85,10.54-4.137,16.581a25.412,25.412,0,0,1,0,6.5A2.934,2.934,0,0,0-5037.152-4326.449Zm-4.015-19.707c.7-.024.705-.575.849-.935a22.293,22.293,0,0,1,3.669-6.692c1.018-1.165.583-1.545-.62-1.982a115.515,115.515,0,0,0-15.91-4.206c-.386-.081-.887-.455-1.189.04a1.2,1.2,0,0,0,.2,1.238c1.779,2.794,3.639,5.576,6.624,7.2a17.241,17.241,0,0,1,5.677,4.546C-5041.645-4346.655-5041.379-4346.394-5041.167-4346.156Zm60.046,18.778c3.812-3.214,7.558-6.23,12.292-7.522a10.256,10.256,0,0,0,5.469-3.8c.85-1.059.533-1.261-.589-1.461a62.33,62.33,0,0,0-12.189-.5,1.319,1.319,0,0,0-1.348.982Q-4979.318-4333.534-4981.121-4327.378Zm-94.976-32.354a6.487,6.487,0,0,0,.126.894c.624,1.855,1.232,3.718,1.9,5.558.887,2.452,2.719,3.563,5.168,2.759,2.428-.795,4.644-2.189,7.226-2.757-2.242-1.1-4.576-1.78-6.445-3.31a6.94,6.94,0,0,0-4.356-1.9A6.356,6.356,0,0,1-5076.1-4359.732Zm18.532,3.7a14.652,14.652,0,0,1-1.323-4.167c-.055-.459-.211-.887-.685-1.015-1.411-.381-2.832-.728-4.255-1.063-.351-.083-.723.073-.74.452-.048,1.145-1.045,1.142-1.934,1.438C-5063.956-4358.024-5060.875-4357.312-5057.564-4356.03Zm105.543,23.53a65.868,65.868,0,0,1,11.765,4.664,1.108,1.108,0,0,0,1.094.022q3.12-1.7,6.235-3.406A46.33,46.33,0,0,1-4952.021-4332.5Zm13.631-2.5c-.592-.181-.775-.253-.97-.292-5.807-1.154-11.622-2.272-17.418-3.478-1.468-.306-1.867.611-2.676,2C-4952.178-4338.022-4945.7-4334.628-4938.39-4335Zm-135.873-27.945c-1.244-2.307-2.365-4.382-3.485-6.46a34.924,34.924,0,0,0,.259,3.909C-5077.334-4363.637-5076.079-4363.2-5074.263-4362.945Z" transform="translate(5148.266 4474.195)" fill="#fdffef"/>
    </g>
    <g id="Group_4044" data-name="Group 4044" transform="translate(1112.574 2631.074)">
      <text id="GrowGuyana-2" data-name="GrowGuyana" transform="translate(0 34)" fill="#f5f5f5" font-size="32" font-family="Poppins-Bold, Poppins" font-weight="700" letter-spacing="0.113em"><tspan x="0" y="0">GrowGuyana</tspan></text>
      <text id="Aim:_Building_a_culture_of_economic_growth_and_innovation_in_Guyana." data-name="Aim: Building a culture of 
economic growth and innovation
in Guyana." transform="translate(0 71.725)" fill="#f5f5f5" font-size="12" font-family="Poppins-Bold, Poppins" font-weight="700" letter-spacing="0.113em"><tspan x="0" y="0">Aim: Building a culture of </tspan><tspan x="0" y="18">economic growth and innovation</tspan><tspan x="0" y="36">in Guyana.</tspan></text>
    </g>
  </g>
</svg>
