<svg xmlns="http://www.w3.org/2000/svg" xmlns:xlink="http://www.w3.org/1999/xlink" viewBox="0 0 698.23 417.03"><defs><style>.cls-1{fill:url(#linear-gradient);}.cls-2{stroke:#0c0c0c;stroke-width:0.2px;opacity:0.36;}.cls-2,.cls-3{isolation:isolate;}.cls-3{fill:#5b5b5b;opacity:0.11;}.cls-4{fill:#1d1c1c;}.cls-5{opacity:0.08;}.cls-6{fill:none;}.cls-7{fill:#fff;}.cls-8{fill:url(#linear-gradient-2);}.cls-9{fill:url(#linear-gradient-3);}.cls-10{fill:url(#linear-gradient-4);}.cls-11{fill:url(#linear-gradient-5);}.cls-12{fill:url(#linear-gradient-6);}.cls-13{fill:#303132;stroke:#424244;stroke-miterlimit:10;stroke-width:6px;}.cls-14{fill:#424244;}.cls-15{fill:#393a3b;}</style><linearGradient id="linear-gradient" x1="-383.29" y1="873.56" x2="-382.08" y2="873.57" gradientTransform="matrix(566.2, 0, 0, -399.93, 216997.08, 349566.48)" gradientUnits="userSpaceOnUse"><stop offset="0" stop-color="#c8c2c2"/><stop offset="0.12" stop-color="#3d3c3c" stop-opacity="0.96"/><stop offset="0.23" stop-color="#878383" stop-opacity="0.96"/><stop offset="0.46" stop-color="#fff" stop-opacity="0.06"/><stop offset="0.73" stop-color="#7e7e7e" stop-opacity="0.96"/><stop offset="0.86" stop-color="#484848" stop-opacity="0.96"/><stop offset="1" stop-color="#aeacac" stop-opacity="0.96"/></linearGradient><linearGradient id="linear-gradient-2" x1="-383.46" y1="877.9" x2="-382.16" y2="877.9" gradientTransform="matrix(288.91, 0, 0, -6.47, 110786.37, 6070.84)" gradientUnits="userSpaceOnUse"><stop offset="0" stop-color="#fff"/><stop offset="0.09" stop-color="#5b5b5b"/><stop offset="0.13" stop-color="#2a2a2a"/><stop offset="0.21" stop-color="#636363"/><stop offset="0.55" stop-color="#cfcfcf"/><stop offset="1" stop-color="gray"/></linearGradient><linearGradient id="linear-gradient-3" x1="-382.4" y1="877.9" x2="-383.7" y2="877.9" gradientTransform="matrix(288.91, 0, 0, -6.47, 111185.98, 6070.84)" xlink:href="#linear-gradient-2"/><linearGradient id="linear-gradient-4" x1="-386.07" y1="877.96" x2="-384.1" y2="877.82" gradientTransform="matrix(61.81, 0, 0, -6.46, 24141.29, 6067.34)" gradientUnits="userSpaceOnUse"><stop offset="0" stop-color="#030303"/><stop offset="0.13" stop-color="#4d4c4c"/><stop offset="0.19" stop-color="#4b4b4b"/><stop offset="0.26" stop-color="#888787"/><stop offset="0.52" stop-color="#f3f3f3"/><stop offset="1" stop-color="#d4cece"/></linearGradient><linearGradient id="linear-gradient-5" x1="-384.41" y1="877.96" x2="-386.37" y2="877.82" gradientTransform="matrix(61.81, 0, 0, -6.46, 24190.17, 6067.34)" xlink:href="#linear-gradient-4"/><linearGradient id="linear-gradient-6" x1="-384.36" y1="873.6" x2="-382.99" y2="873.6" gradientTransform="matrix(133.84, 0, 0, -263.11, 51418.49, 230059.06)" gradientUnits="userSpaceOnUse"><stop offset="0" stop-color="#aaa"/><stop offset="0.22" stop-color="#202020"/><stop offset="0.38" stop-color="#6f7072"/><stop offset="0.71" stop-color="#6b6c6e"/><stop offset="0.8" stop-color="#1c1c1d"/><stop offset="1" stop-color="#5d5e60"/></linearGradient></defs><g id="Layer_2" data-name="Layer 2"><g id="Layer_1-2" data-name="Layer 1"><g id="Group_5561" data-name="Group 5561"><g id="Group_5560" data-name="Group 5560"><path id="Union_10" data-name="Union 10" class="cls-1" d="M619.93,399.93H87.28a16.34,16.34,0,0,1-8.53-2.38,16,16,0,0,1-2.7-2.07.32.32,0,0,1-.1-.1c-.2-.18-.39-.37-.58-.56h0a16.33,16.33,0,0,1-4.52-11.31V336.9h2.69v46.6a13.7,13.7,0,0,0,5.95,11.32h0a10.23,10.23,0,0,0,.89.56,1,1,0,0,0,.17.1,13.66,13.66,0,0,0,6.72,1.77H619.85a15.44,15.44,0,0,0,4.92-1,15.13,15.13,0,0,0,3.66-2.05l.12-.09c.23-.18.46-.37.68-.57h0a16,16,0,0,0,1.43-1.42,13.76,13.76,0,0,0,3-8.59h.62c0-.41.05-.82.05-1.24V333.62H637v48.64A17.58,17.58,0,0,1,633,393.51h0l-.13.15c-.31.4-.65.78-1,1.15h0c-.18.19-.38.39-.58.57a.2.2,0,0,1-.09.09,15.43,15.43,0,0,1-2.7,2.06,16.3,16.3,0,0,1-8.49,2.39Zm14.41-66.31V90h-.67V16.44a13.7,13.7,0,0,0-3-8.59A15.09,15.09,0,0,0,620,2.69H87.28A13.75,13.75,0,0,0,73.54,16.44V87.6H70.85V16.44A16.43,16.43,0,0,1,87.28,0H619.93a16.4,16.4,0,0,1,12.84,6.18c.17.19.33.38.48.58a17.56,17.56,0,0,1,3.8,10.91v316Z"/><path id="Union_8" data-name="Union 8" class="cls-2" d="M463.55,405.94l-110.44-.11-109.52.11c-63.65.05-136.36.08-176.12,0-16.08,0-26.77-.07-29.29-.13a43.85,43.85,0,0,1-8.76-1.18,64.56,64.56,0,0,1-19.17-8.19,1.1,1.1,0,0,1-.14-.09l-.7-.46-.09-.06h0l.09-.06,5.87-3.68H284.55l13.67.64h.27l8.84.41h0l29,1.34h.08l17.13.79,17.13-.79h.08l29-1.34h0l8.84-.41h.27l13.66-.64H691.86l5.87,3.68.09.06h0l-.09.06c-.12.09-.36.25-.7.46l-.14.1a64.85,64.85,0,0,1-19.18,8.18,43,43,0,0,1-8.76,1.18c-2.52.06-13.21.11-29.28.13-16.58,0-38.87,0-63.86,0C540.87,406,500.67,406,463.55,405.94Z"/><path id="Union_7" data-name="Union 7" class="cls-3" d="M354.12,417h-7.89L11.29,416.8h0l.09-.06c.13-.08,28.88-8.79,28.77-8.75s124.72.07,219,0l87.19,0h15.48L449,408c94.32,0,219,.07,219,0s28.65,8.67,28.77,8.75l.09.06h0L362,417v0Z"/><path id="Union_9" data-name="Union 9" class="cls-4" d="M463.94,404.31l-110-.09-110,.09c-63.65,0-136.36.07-176.11,0-16.08,0-26.77-.06-29.29-.11a48.63,48.63,0,0,1-8.76-1,69.68,69.68,0,0,1-19.17-7.23l-.15-.08-.7-.4-.09-.06h0l.09-.06,5.87-3.24H284.94l13.67.56h.28l8.84.36h0l29,1.19h.09l17.12.7,17.13-.7h.09l29-1.18h0l8.83-.37h.27l13.67-.56H692.26l5.87,3.24.09.05h0l-.09.06-.7.4-.15.08a69.68,69.68,0,0,1-19.17,7.23,47.73,47.73,0,0,1-8.76,1c-2.52.06-13.21.1-29.29.12-16.36,0-38.31,0-62.92,0C542,404.36,501.4,404.34,463.94,404.31Z"/><g id="Union_1" data-name="Union 1" class="cls-5"><path id="Path_3055" data-name="Path 3055" class="cls-6" d="M178.27,389.94c-.29,0-.53.47-.53,1.08v5.43H320.62v-6.51Zm351.36.17h0Zm0,0s0,.1,0,.14v5.57s-.13.2-.39.53l-.07.1h.68V391a1.6,1.6,0,0,0-.24-.9Zm-209-.18v6.51h30.46v-6.51Z"/><path id="Path_3056" data-name="Path 3056" class="cls-7" d="M178.27,389.94c-.29,0-.53.47-.53,1.08v5.43H320.62v-6.51Zm142.31,6.42H177.79V391c0-.55.21-1,.48-1H320.58Zm209.05-6.25h0Zm0,0s0,.1,0,.14a1.54,1.54,0,0,1,.17.76v5.34h-.56a.43.43,0,0,0-.07.1h.68V391a1.6,1.6,0,0,0-.24-.9Zm-209-.18v6.51h30.46v-.1H320.66V390h30.42v-.09Z"/></g><g id="Group_5559" data-name="Group 5559"><path id="Path_4" data-name="Path 4" class="cls-8" d="M10.78,389.36H298.61v6.46H9.7v-5.39A1.09,1.09,0,0,1,10.78,389.36Z"/><path id="Path_4-2" data-name="Path 4-2" class="cls-9" d="M697.15,389.36H409.32v6.46H698.23v-5.39a1.08,1.08,0,0,0-1.08-1.07Z"/></g><g id="Group_5558" data-name="Group 5558"><rect id="Rectangle_1877" data-name="Rectangle 1877" class="cls-10" x="298.44" y="389.37" width="61.81" height="6.46"/><rect id="Rectangle_1877-2" data-name="Rectangle 1877-2" class="cls-11" x="347.33" y="389.36" width="61.81" height="6.46"/></g><g id="Union_1-2" data-name="Union 1-2" class="cls-5"><path id="Path_3055-2" data-name="Path 3055-2" class="cls-6" d="M529.35,389.94c.29,0,.53.47.53,1.08v5.43H387v-6.51ZM178,390.11h0Zm0,0s0,.09,0,.14v5.56s.13.2.39.54a.43.43,0,0,1,.07.1h-.68V391a1.58,1.58,0,0,1,.24-.9Zm209-.19v6.52H356.54v-6.52Z"/><path id="Path_3056-2" data-name="Path 3056-2" class="cls-7" d="M529.35,389.94c.29,0,.53.47.53,1.08v5.43H387v-6.51ZM387,396.36H529.83V391c0-.55-.21-1-.48-1H387Zm-209-6.25h0Zm0,0s0,.09,0,.14a1.52,1.52,0,0,0-.17.76v5.33h.56l.07.11h-.68V391a1.58,1.58,0,0,1,.24-.9Zm209-.19v6.52H356.54v-.1H387V390H356.53v-.09Z"/></g></g><g id="Group_4096" data-name="Group 4096"><g id="Group_4093" data-name="Group 4093"><g id="Group_4092" data-name="Group 4092"><g id="Group_4091" data-name="Group 4091"><path id="Exclusion_2" data-name="Exclusion 2" class="cls-12" d="M134.84,115.12V93.51a16.58,16.58,0,0,0-1.3-6.44,16.56,16.56,0,0,0-8.81-8.81,16.58,16.58,0,0,0-6.44-1.3H19.55A16.54,16.54,0,0,0,3,93.51v230A16.58,16.58,0,0,0,4.3,330a16.65,16.65,0,0,0,8.81,8.81,16.58,16.58,0,0,0,6.44,1.3h98.74a16.58,16.58,0,0,0,6.44-1.3,16.65,16.65,0,0,0,8.81-8.81,16.58,16.58,0,0,0,1.3-6.44V137.9l2-1.84V116.75ZM129.7,322.66a12.57,12.57,0,0,1-12.55,12.56H20.69A12.58,12.58,0,0,1,8.13,322.66V94.94A12.58,12.58,0,0,1,20.69,82.38h96.45A12.58,12.58,0,0,1,129.7,94.94Z"/></g><rect id="Rectangle_1872" data-name="Rectangle 1872" class="cls-13" x="3" y="121.48" width="2.28" height="10.27"/><rect id="Rectangle_1873" data-name="Rectangle 1873" class="cls-13" x="3" y="136.32" width="2.28" height="10.27"/></g><path id="Path_3084" data-name="Path 3084" class="cls-14" d="M103.45,325.23v1.14a1.14,1.14,0,0,1-1.13,1.14H37.24a1.14,1.14,0,0,1-1.14-1.14h0v-1.14a1.14,1.14,0,0,1,1.14-1.14h65.07a1.14,1.14,0,0,1,1.14,1.14Z"/><path id="Path_3085" data-name="Path 3085" class="cls-15" d="M99.45,83.24v4A3.42,3.42,0,0,1,96,90.66H43.52a3.42,3.42,0,0,1-3.42-3.42v-4a3.56,3.56,0,0,1,.11-.86,3.42,3.42,0,0,1,3.31-2.57H96a3.43,3.43,0,0,1,3.32,2.57A3.55,3.55,0,0,1,99.45,83.24Z"/></g></g></g></g></g></svg>