<svg xmlns="http://www.w3.org/2000/svg" width="409" height="401.843" viewBox="0 0 409 401.843">
  <g id="influencer" transform="translate(0)">
    <text id="Influencer_Marketing" data-name="Influencer Marketing" transform="translate(0 388.843)" fill="#f5f5f5" font-size="38" font-family="Poppins-Bold, Poppins" font-weight="700"><tspan x="0" y="0">Influencer Marketing</tspan></text>
    <g id="Group_5635" data-name="Group 5635" transform="translate(69)">
      <path id="Path_6032" data-name="Path 6032" d="M1766.175,466H1503.5a3.752,3.752,0,0,0-3.755,3.755V780.277a3.752,3.752,0,0,0,3.755,3.754h262.67a3.752,3.752,0,0,0,3.755-3.754V469.755A3.752,3.752,0,0,0,1766.175,466Zm-28.365,28.512a3.887,3.887,0,1,1-3.887,3.887A3.894,3.894,0,0,1,1737.81,494.512Zm-12.213,0a3.887,3.887,0,1,1-3.887,3.887A3.888,3.888,0,0,1,1725.6,494.512Zm-166.945-.7a1.882,1.882,0,0,1,1.885-1.877h73.891a1.877,1.877,0,0,1,1.885,1.877V503.4a1.883,1.883,0,0,1-1.885,1.885h-73.891a1.888,1.888,0,0,1-1.885-1.885Zm-25.177-13.1a17.9,17.9,0,1,1-17.9,17.9A17.9,17.9,0,0,1,1533.475,480.709Zm3.9,252.276a7.141,7.141,0,0,1-.861,1.038l-8.333,8.334a1.056,1.056,0,0,1-2.076,0l-8.334-8.334a7.157,7.157,0,0,1-.861-1.038,10.91,10.91,0,1,1,20.466,0Zm33.592,1.664a7.7,7.7,0,0,1-5.463,2.268h-6.589l-11.448,6.626,5.963-7.045a7.729,7.729,0,0,1,2.5-15.04h9.57a7.725,7.725,0,0,1,5.463,13.192Zm31.715-4.174-3.533,2.37-5.477,3.7V731.5A11.634,11.634,0,0,0,1583.764,743v.066a11.64,11.64,0,0,1,9.909-17.735v-3.88l11.19,7.539Zm151.234-31.84H1515.394v-162.7h238.524Zm-3.887-196.348a3.887,3.887,0,1,1,3.887-3.887A3.883,3.883,0,0,1,1750.031,502.287Z" transform="translate(-1499.75 -466)" fill="#fff"/>
      <rect id="Rectangle_2049" data-name="Rectangle 2049" width="2.694" height="3.188" transform="matrix(0.707, -0.707, 0.707, 0.707, 53.355, 88.926)" fill="#fff"/>
      <rect id="Rectangle_2050" data-name="Rectangle 2050" width="2.694" height="3.188" transform="translate(36.728 105.552) rotate(-45)" fill="#fff"/>
      <path id="Path_6033" data-name="Path 6033" d="M1564.4,617.5a13.1,13.1,0,0,0,18.532-18.532l-9.458-9.458-1.906,1.905,9.458,9.458a10.41,10.41,0,0,1-14.721,14.721l-9.458-9.458-1.906,1.905Z" transform="translate(-1514.311 -498.583)" fill="#fff"/>
      <path id="Path_6034" data-name="Path 6034" d="M1642.966,634.277c.169,18.795,7.921,29.808,18.751,36.022a2.612,2.612,0,0,1,.228.132,18.864,18.864,0,0,0,19.45,0,2.579,2.579,0,0,1,.228-.132c10.829-6.213,18.581-17.227,18.751-36.022a.007.007,0,0,1,.007-.007c1.281-1.156,2.209-4.285,2.209-7.973,0-3.917-1.039-7.215-2.452-8.179a1.528,1.528,0,0,0-.861-.287,1.426,1.426,0,0,0-.714.206c-.184-.766-.442-1.664-.663-2.4a4.271,4.271,0,0,0-1.892-2.429c-.862-.523-1.774-.964-1.642-.39a3.338,3.338,0,0,0-.611-.14c-1.288-.169-2.164.6-3.32,1.413a8.422,8.422,0,0,1-3.306,1.531,12.809,12.809,0,0,1-6.626,0c-5.153-1.62-5.794-6.383-9.571-6.626-3.4-.214-3.887,3.593-8.834,4.417-2.657.442-4.056-.4-5.668-.8a5.806,5.806,0,0,0-3.166.059,6.69,6.69,0,0,0-3.283,2.061c-.368.059-.744.11-1.133.147a21.185,21.185,0,0,1-3.239.081q-.453,1.5-.832,3.07a1.426,1.426,0,0,0-.714-.206,1.527,1.527,0,0,0-.861.287c-1.414.964-2.451,4.262-2.451,8.179a17.247,17.247,0,0,0,.876,5.705A5.582,5.582,0,0,0,1642.966,634.277Z" transform="translate(-1536.948 -503.723)" fill="#fff"/>
      <path id="Path_6035" data-name="Path 6035" d="M1645.655,610.028c.25-1.045.53-2.069.832-3.07a21.167,21.167,0,0,0,3.239-.081c.39-.037.766-.088,1.134-.147a6.691,6.691,0,0,1,3.284-2.061,5.8,5.8,0,0,1,3.165-.059c1.612.4,3.011,1.237,5.669.8,4.947-.824,5.433-4.631,8.834-4.417,3.777.243,4.417,5.006,9.57,6.626a12.806,12.806,0,0,0,6.626,0,8.418,8.418,0,0,0,3.305-1.531c1.156-.817,2.032-1.583,3.32-1.413a3.347,3.347,0,0,1,.611.14c-.133-.574.781-.133,1.642.39a4.272,4.272,0,0,1,1.892,2.429c.221.736.479,1.634.663,2.4a1.426,1.426,0,0,1,.714-.206,1.529,1.529,0,0,1,.861.287,29.09,29.09,0,0,0-56.937,0,1.529,1.529,0,0,1,.861-.287A1.424,1.424,0,0,1,1645.655,610.028Z" transform="translate(-1537.826 -497.922)" fill="#fff"/>
      <path id="Path_6036" data-name="Path 6036" d="M1744.927,626.552h0l.006.008.036.05.006.008h0a27.416,27.416,0,0,0,4.655,5.111,5.865,5.865,0,0,0,3.523,1.218,1.227,1.227,0,0,0,.743-.234l.744-.539a.752.752,0,0,0-.021.41c1.769,7.658,4.146,10.832,11.057,14.944l5.642-4.083a.553.553,0,0,0,.067-.056l.018-.02a.491.491,0,0,0,.037-.042c.007-.008.012-.017.018-.025s.019-.028.027-.043l.014-.026a.493.493,0,0,0,.02-.047c0-.008.007-.017.01-.025s.012-.04.016-.06l0-.013a.668.668,0,0,0,.009-.076c0-.007,0-.015,0-.022a.5.5,0,0,0,0-.051.609.609,0,0,0-.01-.076l0-.015c0-.015-.009-.029-.013-.043s-.006-.024-.01-.036l-.01-.022a.4.4,0,0,0-.023-.05c0-.008-.01-.016-.015-.025a.405.405,0,0,0-.026-.041c-.007-.01-.015-.02-.023-.029s-.018-.023-.028-.033a.675.675,0,0,0-.055-.049l-.014-.012-.009-.006a.557.557,0,0,0-.057-.036l-.022-.012-.054-.024-.024-.009a.63.63,0,0,0-.082-.021l-.116-.024-.035-.01-.077-.02-.041-.012-.07-.023-.04-.014c-.023-.008-.046-.018-.069-.027l-.035-.014c-.029-.013-.057-.027-.085-.041l-.012-.007c-.032-.016-.061-.034-.09-.052l-.026-.018-.042-.032-.011-.008a.778.778,0,0,1-.095-.084c-.011-.01-.019-.022-.029-.033-.037-.039-.073-.079-.106-.12l-.012-.016c-.026-.034-.051-.068-.074-.1l-.023-.03-.026-.04c-.027-.043-.053-.085-.077-.129l-.014-.026-.005-.01c-.025-.048-.048-.1-.07-.146-.005-.013-.01-.026-.016-.04s-.015-.042-.024-.063-.015-.04-.022-.06-.012-.033-.017-.05c-.016-.053-.031-.106-.043-.16l0-.007h0c-.013-.059-.023-.118-.031-.178,0-.019,0-.038-.006-.058,0-.035-.007-.071-.009-.107l0-.029a1.266,1.266,0,0,0-.022-.191l-.005-.029c-.008-.043-.021-.084-.033-.125-.007-.023-.013-.048-.021-.071a1.31,1.31,0,0,0-.076-.174v0a1.285,1.285,0,0,0-.1-.158c-.016-.023-.034-.043-.051-.064s-.05-.062-.078-.09l-.021-.021a1.5,1.5,0,0,0-.137-.121c-.039-.029-.082-.055-.124-.081-.016-.01-.031-.021-.047-.031a1.536,1.536,0,0,0-.19-.088c-.047-.018-.094-.038-.14-.059l-.041-.021c-.032-.016-.063-.031-.095-.049l-.052-.031c-.026-.016-.053-.031-.08-.048s-.036-.026-.055-.038-.048-.032-.071-.051h0l-.016-.013c-.038-.03-.076-.061-.112-.093-.014-.013-.027-.027-.042-.04s-.055-.052-.08-.079l-.015-.018-.048-.052-.032-.035c-.031-.038-.062-.077-.092-.118l-.017-.026c-.019-.028-.038-.055-.055-.083l-.019-.029c-.025-.04-.048-.082-.07-.124l0-.006c-.007-.012-.012-.024-.018-.036-.016-.032-.032-.065-.046-.1l-.02-.05c-.008-.02-.016-.04-.024-.06l-.01-.025c-.007-.021-.014-.043-.021-.065s-.016-.052-.023-.078-.012-.044-.017-.065l-.01-.044-.007-.029c-.006-.033-.012-.067-.018-.1s-.008-.041-.01-.063-.008-.072-.01-.109c0-.014,0-.029,0-.044l0-.023a1.487,1.487,0,0,0-.022-.191l-.005-.03c-.009-.041-.021-.081-.033-.121s-.013-.052-.023-.077a1.261,1.261,0,0,0-.067-.155c0-.007-.005-.013-.009-.02a1.416,1.416,0,0,0-.1-.161c-.016-.022-.034-.041-.051-.062s-.05-.063-.078-.093l-.02-.02a1.466,1.466,0,0,0-.135-.119l0,0c-.035-.027-.075-.05-.113-.074-.02-.013-.038-.027-.059-.038a1.264,1.264,0,0,0-.189-.088q-.07-.028-.14-.06l-.045-.022c-.03-.016-.061-.03-.09-.046l-.052-.032-.08-.048c-.018-.012-.036-.025-.055-.038s-.048-.032-.071-.05v0l-.016-.013c-.038-.029-.076-.06-.112-.094-.015-.012-.028-.026-.042-.039s-.054-.052-.08-.079l-.016-.017-.048-.052c-.01-.012-.022-.024-.032-.036-.032-.038-.063-.077-.092-.118l-.017-.026-.056-.083-.019-.029c-.025-.04-.048-.082-.07-.124l0-.005c-.006-.012-.011-.024-.017-.036-.016-.032-.031-.065-.046-.1l-.02-.049c-.008-.02-.015-.04-.024-.06l-.01-.026c-.007-.021-.014-.043-.021-.064s-.016-.052-.023-.079-.012-.043-.017-.065-.007-.029-.01-.044l-.007-.03c-.007-.033-.012-.066-.018-.1s-.007-.042-.01-.063c0-.036-.008-.072-.01-.108,0-.015,0-.029,0-.043l0-.023a1.435,1.435,0,0,0-.021-.19l-.006-.031c-.008-.04-.02-.079-.031-.118s-.014-.055-.024-.081c-.017-.047-.038-.092-.059-.137-.006-.013-.01-.026-.017-.037a1.4,1.4,0,0,0-.1-.162c-.015-.02-.031-.038-.046-.057s-.052-.066-.082-.1l-.017-.018a1.38,1.38,0,0,0-.132-.118l-.008-.008a1.305,1.305,0,0,0-.113-.073c-.02-.012-.038-.027-.057-.037a1.307,1.307,0,0,0-.188-.087c-.051-.019-.1-.041-.151-.064l-.048-.024c-.033-.016-.066-.033-.1-.052l-.055-.032c-.029-.018-.058-.036-.086-.055l-.056-.039c-.015-.01-.029-.022-.044-.033l-.032-.024c-.024-.018-.046-.038-.069-.058s-.044-.039-.066-.06l-.065-.063-.034-.036-.034-.036-.04-.046c-.025-.029-.049-.06-.073-.092-.01-.014-.022-.029-.032-.043l-.011-.017c-.03-.041-.058-.083-.085-.127s-.041-.072-.06-.109c-.006-.012-.012-.023-.018-.035l-.021-.044c-.019-.04-.037-.081-.053-.122l-.012-.031,0-.012c-.018-.049-.034-.1-.048-.147,0-.012-.007-.024-.01-.037-.008-.031-.015-.062-.022-.093l-.007-.028c-.005-.026-.01-.054-.014-.08s-.01-.063-.015-.094-.005-.054-.007-.082,0-.04,0-.06l0-.027q0-.087,0-.174c0-.012,0-.025,0-.038a2.088,2.088,0,0,1,.023-.21c0-.019.007-.038.01-.056.01-.052.021-.1.034-.154.005-.023.012-.045.019-.067.015-.051.032-.1.05-.151.007-.018.012-.035.02-.053a2.118,2.118,0,0,1,.089-.194l.021-.036c.029-.051.058-.1.091-.15.013-.02.026-.039.04-.057.029-.04.059-.08.09-.118.016-.019.031-.039.049-.058a2.152,2.152,0,0,1,.155-.16,1.206,1.206,0,0,0,.1-.1l.028-.035a.88.88,0,0,0,.058-.079c.01-.014.019-.028.027-.042s.031-.056.046-.085c.007-.013.013-.026.02-.041a1.206,1.206,0,0,0,.044-.116l.005-.014a1.009,1.009,0,0,0,.03-.135c0-.014,0-.027.005-.041,0-.032.007-.066.007-.1,0-.016,0-.032,0-.048s0-.052,0-.079-.009-.065-.014-.1a.845.845,0,0,0-.022-.1c-.035-.123-.271-1.05-.447-1.748a.549.549,0,0,0-.473-.411l2.234-1.617a1.219,1.219,0,0,0,.222-.2,3.018,3.018,0,0,0,.243-.366,1.235,1.235,0,0,1,.751-.565l27.6-7.148a33.952,33.952,0,0,1,6.7-.949,5.59,5.59,0,0,0,3.068-1.018,5.115,5.115,0,0,0,.795-.713c.064-.069.125-.14.184-.214,3.529-4.341.868-14.948-6.574-25.243h0l-.013-.018-.021-.029-.013-.018h0c-7.45-10.289-16.693-16.133-21.921-14.138-.089.032-.175.068-.26.108a5.084,5.084,0,0,0-.927.531,5.6,5.6,0,0,0-1.927,2.6,33.979,33.979,0,0,1-3,6.068l-15.42,23.98a1.239,1.239,0,0,1-.772.538,2.966,2.966,0,0,0-.423.116,1.26,1.26,0,0,0-.264.147l-11.224,8.122a1.224,1.224,0,0,0-.456.632,5.873,5.873,0,0,0,.056,3.727A27.421,27.421,0,0,0,1744.927,626.552Zm38.156-24.874q-.659-.839-1.3-1.722l-.021-.029q-.639-.882-1.229-1.773a1.235,1.235,0,1,1,2.24-.933,4.043,4.043,0,0,0,.672,1.486l.012.016.01.015a4.037,4.037,0,0,0,1.2,1.1,1.236,1.236,0,1,1-1.587,1.837Zm-9.125-21.927a5.221,5.221,0,0,1,1.866-3.947,3.83,3.83,0,0,1,1.2-.576c4.57-1.3,13.178,4.538,19.853,13.762l.021.029c6.674,9.224,9.523,19.225,6.863,23.16a3.807,3.807,0,0,1-.922.961,5.217,5.217,0,0,1-4.333.538c-3.805-.879-8.786-4.392-13.369-9.545a1.237,1.237,0,0,1,.2-1.825l3.065-2.218a1.279,1.279,0,0,1,.172-.1,4.057,4.057,0,0,0,1.471-6.005l-.012-.016-.011-.015a4.05,4.05,0,0,0-6.164-.481,1.37,1.37,0,0,1-.152.131l-3.065,2.217a1.237,1.237,0,0,1-1.8-.384C1775.38,589.471,1773.6,583.641,1773.957,579.751Z" transform="translate(-1563.447 -494.381)" fill="#fff"/>
      <path id="Path_6037" data-name="Path 6037" d="M1559.562,697a2.564,2.564,0,0,0-2.562,2.562v19.907a2.564,2.564,0,0,0,2.562,2.562h9.8l2.849,12.515,3.291-12.515h11.33a2.559,2.559,0,0,0,2.562-2.562V699.562A2.559,2.559,0,0,0,1586.83,697Zm20.837,13.2a4.931,4.931,0,0,1-.6.72l-5.774,5.774a4.983,4.983,0,0,1-.719.6,4.912,4.912,0,0,1-.719-.6l-5.775-5.774a4.947,4.947,0,0,1-.6-.72,7.56,7.56,0,1,1,14.181,0Z" transform="translate(-1514.854 -526.941)" fill="#fff"/>
      <path id="Path_6038" data-name="Path 6038" d="M1808.9,697h-27.268a2.564,2.564,0,0,0-2.562,2.562v19.907a2.564,2.564,0,0,0,2.562,2.562h9.8l2.849,12.515,3.291-12.515h11.33a2.559,2.559,0,0,0,2.562-2.562V699.562A2.559,2.559,0,0,0,1808.9,697Zm-13.634,1.472a3.681,3.681,0,1,1-3.681,3.681A3.681,3.681,0,0,1,1795.261,698.472Zm-4.969,21.549a2.916,2.916,0,0,1-1.492-.388l.212-.6a2.6,2.6,0,0,0,1.271.362c1,0,1.308-.635,1.3-1.112-.009-.8-.732-1.148-1.483-1.148h-.433v-.582h.433c.565,0,1.28-.292,1.28-.972,0-.459-.291-.866-1.006-.866a2.116,2.116,0,0,0-1.148.38l-.2-.565a2.725,2.725,0,0,1,1.5-.442c1.13,0,1.642.671,1.642,1.369a1.424,1.424,0,0,1-1.06,1.351v.018a1.5,1.5,0,0,1,1.28,1.474C1792.385,719.218,1791.669,720.021,1790.292,720.021Zm4.47,0a2.817,2.817,0,0,1-1.43-.353l.194-.592a2.569,2.569,0,0,0,1.227.318,1.266,1.266,0,0,0,1.359-1.245c-.008-.741-.5-1.271-1.65-1.271a5.93,5.93,0,0,0-.8.062l.371-2.755h2.747v.653h-2.19l-.221,1.475a3.089,3.089,0,0,1,.468-.035,2.426,2.426,0,0,1,1.236.308,1.635,1.635,0,0,1,.821,1.475A1.991,1.991,0,0,1,1794.762,720.021Zm6.015-.1-1.475-2.049-.4.442v1.607h-.768v-6.269h.768v3.955h.018c.1-.149.255-.335.379-.485l1.255-1.475h.935l-1.651,1.757,1.881,2.516Zm-13.614-8.2c0-2.846,3.626-5.153,8.1-5.153s8.1,2.307,8.1,5.153Z" transform="translate(-1573.438 -526.941)" fill="#fff"/>
      <path id="Path_6039" data-name="Path 6039" d="M1697.863,718h-27.268a2.564,2.564,0,0,0-2.562,2.562v19.907a2.564,2.564,0,0,0,2.562,2.562h9.8l2.849,12.515,3.291-12.515h11.33a2.559,2.559,0,0,0,2.562-2.562V720.562A2.559,2.559,0,0,0,1697.863,718Zm-17.178,17.566h-4.013v-9.029h4.01v9.029Zm10.51-4.2-.01-.007v.007h-.886a1.131,1.131,0,0,1,1.131,1.131,1.16,1.16,0,0,1-1.131,1.131c-.073.005-.269.035-.416.052v0a1.107,1.107,0,0,1,.343.106h0a1.132,1.132,0,0,1-.5,2.145h-6.457a1.124,1.124,0,0,1-.387-.069h0a4.829,4.829,0,0,1-1.447-.489v-9.048h-.11v0c.193-.22.316-.348.316-.348h0l2.212-2.825a.56.56,0,0,1,.869-.015,3.293,3.293,0,0,1,.545,3.32h0a4.864,4.864,0,0,1,.916.424h3.676a1.155,1.155,0,0,1,1.159,1.145,1.132,1.132,0,0,1-.815,1.073v0h.971a1.148,1.148,0,0,1,1.156,1.1A1.132,1.132,0,0,1,1691.2,731.363Z" transform="translate(-1544.146 -532.481)" fill="#fff"/>
    </g>
  </g>
</svg>
