<svg xmlns="http://www.w3.org/2000/svg" viewBox="0 0 47.54 47.55"><defs><style>.cls-1{fill:#ef2e2e;}</style></defs><g id="Layer_2" data-name="Layer 2"><g id="Layer_1-2" data-name="Layer 1"><g id="Group_103" data-name="Group 103"><path id="Path_104" data-name="Path 104" class="cls-1" d="M41.56,0H6A6,6,0,0,0,0,6H0V41.56a6,6,0,0,0,6,6H41.56a6,6,0,0,0,6-6V6A6,6,0,0,0,41.56,0Zm-5,25.43A13,13,0,0,1,25.44,36.55a13.56,13.56,0,0,1-1.68.12,12.92,12.92,0,1,1,12.8-11.24Zm5-15a3.89,3.89,0,0,1-2.81,1.16,4.17,4.17,0,0,1-.61,0,4,4,0,0,1,1.23-7.87A4,4,0,0,1,42.73,7a4,4,0,0,1-1.12,3.45Z"/><path id="Path_105" data-name="Path 105" class="cls-1" d="M29.44,23.19v0l0-.3a0,0,0,0,0,0,0l0-.21a.7.7,0,0,0,0-.14l-.05-.19A1.82,1.82,0,0,0,29.2,22V22a.5.5,0,0,0-.05-.13l-.26-.64-.21-.37-.1-.15-.13-.18-.1-.15-.22-.27a2.18,2.18,0,0,0-.25-.28l-.07-.07a1.85,1.85,0,0,0-.14-.14l-.31-.27c-.05-.05-.11-.08-.17-.13L26.86,19l0,0-.15-.08-.09-.06-.47-.24-.19-.08-.58-.21-.08,0-.38-.09-.24,0-.34,0-.29,0a.75.75,0,0,0-.15,0l-.64,0a5.42,5.42,0,0,0-4.67,3.23A5.78,5.78,0,0,0,26.07,29h0a5.47,5.47,0,0,0,3.41-5.32l0-.08Z"/></g></g></g></svg>