<svg xmlns="http://www.w3.org/2000/svg" viewBox="0 0 210.58 210.48"><defs><style>.cls-1{fill:#f8f8f8;}</style></defs><g id="Layer_2" data-name="Layer 2"><g id="Layer_1-2" data-name="Layer 1"><g id="Group_103" data-name="Group 103"><path id="Path_104" data-name="Path 104" class="cls-1" d="M184.09,0H26.49A26.49,26.49,0,0,0,0,26.49V184a26.49,26.49,0,0,0,26.49,26.5h157.6A26.49,26.49,0,0,0,210.58,184V26.49A26.49,26.49,0,0,0,184.09,0ZM161.93,112.64a57.39,57.39,0,0,1-49.24,49.25,58,58,0,0,1-7.45.5A57.06,57.06,0,1,1,162,112.64Zm22.36-66.45a17.69,17.69,0,0,1-15.14,5,17.66,17.66,0,0,1,5.41-34.84,17.87,17.87,0,0,1,14.72,14.61,17.56,17.56,0,0,1-5,15.27Z"/><path id="Path_105" data-name="Path 105" class="cls-1" d="M130.42,102.72v-.2l-.17-1.3a.14.14,0,0,0,0-.09l-.18-.94c0-.21-.07-.41-.12-.62l-.23-.85c-.09-.38-.18-.74-.3-1.12v-.21c0-.2-.15-.38-.21-.58L128,94a16.81,16.81,0,0,0-.95-1.65,5.61,5.61,0,0,0-.44-.68l-.56-.79c-.11-.21-.29-.41-.44-.65l-1-1.21a9.78,9.78,0,0,0-1.09-1.23l-.32-.32c-.24-.21-.41-.45-.65-.62l-1.35-1.18c-.24-.21-.5-.38-.77-.59l-1.38-1L119,84a5.26,5.26,0,0,1-.65-.38,3.38,3.38,0,0,0-.41-.24l-2.09-1.06a4.8,4.8,0,0,0-.83-.38L112.43,81l-.44-.14-1.67-.38-1.06-.18c-.59-.08-1.06-.11-1.48-.14L106.49,80c-.22,0-.43,0-.65,0a25.34,25.34,0,0,0-2.83.12,24,24,0,0,0-20.7,14.29,25.56,25.56,0,0,0,33.23,34.13h0A24.14,24.14,0,0,0,130.63,105l-.12-.35Z"/></g></g></g></svg>