<svg id="lighthouse" xmlns="http://www.w3.org/2000/svg" width="196.99" height="380.774" viewBox="0 0 196.99 380.774">
  <g id="Group_5613" data-name="Group 5613" transform="translate(0 0)">
    <path id="Path_5969" data-name="Path 5969" d="M994.568,737.022c.047-.122.084-.243.121-.364l-.121-.037Z" transform="translate(-834.247 -653.208)" fill="#fff"/>
    <path id="Path_5970" data-name="Path 5970" d="M867.668,735.549l.1.121-.093-.131Z" transform="translate(-825.92 -653.137)" fill="#fff"/>
    <path id="Path_5971" data-name="Path 5971" d="M870.548,737.53a.2.2,0,0,0,.056.037c.346.177.673.374,1,.57-.318-.206-.645-.392-.981-.57C870.595,737.558,870.576,737.539,870.548,737.53Z" transform="translate(-826.109 -653.268)" fill="#fff"/>
    <path id="Path_5972" data-name="Path 5972" d="M867.778,735.68l.093.121c.065.065.14.131.234.215l-.215-.215Z" transform="translate(-825.927 -653.147)" fill="#fff"/>
    <path id="Path_5973" data-name="Path 5973" d="M988.874,742.06a7.849,7.849,0,0,0-1.336.813A9.8,9.8,0,0,1,988.874,742.06Z" transform="translate(-833.786 -653.565)" fill="#fff"/>
    <path id="Path_5974" data-name="Path 5974" d="M990.68,741.109c-.084.056-.168.1-.262.159.094-.047.187-.1.28-.159.131-.075.262-.159.392-.243.028-.019.047-.037.075-.056-.028.019-.065.037-.094.056A3.972,3.972,0,0,1,990.68,741.109Z" transform="translate(-833.975 -653.483)" fill="#fff"/>
    <path id="Path_5975" data-name="Path 5975" d="M986.237,744.04h-.009c-.047.047-.093.1-.14.15Z" transform="translate(-833.691 -653.695)" fill="#fff"/>
    <path id="Path_5976" data-name="Path 5976" d="M991.218,740.794a.992.992,0,0,0,.1-.065,1.9,1.9,0,0,0,.243-.168,1.555,1.555,0,0,1-.262.168C991.283,740.747,991.246,740.766,991.218,740.794Z" transform="translate(-834.028 -653.467)" fill="#fff"/>
    <path id="Path_5977" data-name="Path 5977" d="M994.138,737.723a6.944,6.944,0,0,1-.477.729,5.833,5.833,0,0,1-.663.766c-.093.1-.187.2-.29.29a2.8,2.8,0,0,0,.3-.28,6.79,6.79,0,0,0,.673-.776,6.363,6.363,0,0,0,.5-.776l.271-.514v-.112c-.019.056-.047.112-.065.168C994.306,737.386,994.231,737.555,994.138,737.723Z" transform="translate(-834.125 -653.237)" fill="#fff"/>
    <path id="Path_5978" data-name="Path 5978" d="M934.375,708.8v-8.409a6.541,6.541,0,1,0-13.081,0V708.8a6.541,6.541,0,1,0,13.081,0Zm-4.672,0a1.869,1.869,0,1,1-3.737,0v-8.409a1.869,1.869,0,1,1,3.737,0Z" transform="translate(-829.439 -650.402)" fill="#fff"/>
    <path id="Path_5979" data-name="Path 5979" d="M983.2,872.086l-.159-2.682-.168-2.682-4.625-77.2-.168-2.682v-.009l-.159-2.682-1.943-32.413-.43-7.223a8.818,8.818,0,0,1,2.317-6.671c.047-.047.093-.1.14-.15h.009a9.609,9.609,0,0,1,1.2-1.037h.009a7.852,7.852,0,0,1,1.336-.813h.009c.29-.14.561-.28.832-.43h.009c.168-.093.336-.178.5-.28.093-.056.178-.1.262-.159a3.98,3.98,0,0,0,.392-.243c.028-.019.065-.037.093-.056s.065-.047.084-.065a1.554,1.554,0,0,0,.262-.168c.084-.056.168-.112.252-.178q.238-.168.477-.364c.112-.093.215-.187.318-.28s.2-.187.29-.29a5.828,5.828,0,0,0,.663-.766,6.954,6.954,0,0,0,.477-.729c.093-.168.168-.336.243-.5.019-.056.047-.112.065-.168v-1.8l-.084-.308a5.024,5.024,0,0,0-.206-.589,5.075,5.075,0,0,0-.7-1.215,6.235,6.235,0,0,0-.682-.785,7.188,7.188,0,0,0-.617-.57c-.159-.131-.318-.252-.43-.327-.159-.121-.327-.243-.533-.383-.065-.037-.131-.084-.2-.121-.122-.084-.262-.168-.393-.243a15.37,15.37,0,0,0-1.607-.86,46.183,46.183,0,0,0-8.764-2.925l.822.1-10.96-33.647-1-1.877L928.1,655.1a5.557,5.557,0,0,0-1.4-.956,3.977,3.977,0,1,0-5.406.144,5.663,5.663,0,0,0-1.067.785l-32.831,30.5-.724,1.92-10.96,33.647.589-.075a45.784,45.784,0,0,0-8.68,2.925l-.2.1c-.327.159-.645.318-.888.458a11.513,11.513,0,0,0-2.672,1.962c-.112.112-.224.243-.346.383a2.992,2.992,0,0,0-.234.28,3.792,3.792,0,0,0-.243.336,5.87,5.87,0,0,0-.327.542,3.972,3.972,0,0,0-.2.458l-.131.318-.028.336a3.955,3.955,0,0,0,.084,1.663,3.249,3.249,0,0,0,.691,1.252c.009.019.028.028.037.047a.992.992,0,0,0,.065.1,2.964,2.964,0,0,0,.234.336,2.627,2.627,0,0,0,.271.327,3.3,3.3,0,0,0,.383.42c.252.252.523.5.822.748.1.075.215.159.327.243a16.677,16.677,0,0,0,1.523.953l.131.065c.234.131.458.262.71.383h.009a.452.452,0,0,1,.065.028l.094.056c.215.112.43.234.635.364a7.151,7.151,0,0,1,.617.42,5.4,5.4,0,0,1,.561.477c.177.168.355.346.523.533a8.58,8.58,0,0,1,2.233,6.756c-.028.346-.056.691-.075,1.037l-.383,6.363q-.617,10.273-1.233,20.538c-.056.962-.112,1.934-.178,2.9v.009c-.056.972-.112,1.925-.168,2.9q-2.383,39.678-4.765,79.347c-.056.972-.121,1.934-.168,2.9v.009c-.065.972-.121,1.934-.178,2.9q-1.542,25.691-3.083,51.372a20.311,20.311,0,0,0,5.55,15.305,23.464,23.464,0,0,0,9.166,5.961,25.747,25.747,0,0,0,2.925.878h.009a25.189,25.189,0,0,0,3.392.57,24.737,24.737,0,0,0,2.9.159h75.722a25.106,25.106,0,0,0,18.389-7.568,20.275,20.275,0,0,0,5.56-15.3ZM893.381,683.837l28.754-26.714a2.972,2.972,0,0,1,4.044.015l28.333,26.734a.343.343,0,0,1,.081.4.338.338,0,0,1-.358.2C944.177,683.5,933.924,683,923.758,683c-10.01,0-20.138.488-30.1,1.447a.323.323,0,0,1-.359-.206A.34.34,0,0,1,893.381,683.837Zm-3.186,7.923a282.151,282.151,0,0,1,67.723,0l7.765,23.845a361.635,361.635,0,0,0-83.253,0Zm-19.229,40.458c-.327-.2-.654-.392-1-.57a.2.2,0,0,1-.056-.037c-.009,0-.019-.009-.028-.009l-.14-.075c-.206-.1-.4-.206-.6-.318l-.1-.047a8.522,8.522,0,0,1-1.392-.944c-.093-.084-.168-.149-.234-.215l-.093-.121-.1-.121.009-.009a7.21,7.21,0,0,1,1.635-1.149c.2-.112.42-.224.654-.336l.2-.1c8.634-4.139,30.433-6.914,54.306-6.914,8.213,0,16.193.336,23.462.934h.009c1.28.1,2.523.215,3.756.336.71.075,1.392.15,2.084.215h.009c11.156,1.224,20.145,3.121,24.995,5.438a12.609,12.609,0,0,1,1.233.663l.3.187,1.289-1.953-1.187,2.018c.093.065.177.112.327.234.075.056.14.1.215.168a1.339,1.339,0,0,1,.243.215l.1.093a1.579,1.579,0,0,1,.187.224v.009l-.056.056a2.773,2.773,0,0,1-.243.224h-.009a.7.7,0,0,1-.187.14l-.084.065-.224.168h-.009l-.271.178a.2.2,0,0,1-.075.047h-.009l-.075.056a2.865,2.865,0,0,1-.29.159c0,.009,0,.009-.009,0-.2.121-.4.224-.617.336-.121.065-.234.121-.355.177h-.009a14.891,14.891,0,0,0-1.411.8,15.836,15.836,0,0,0-1.3.944c-.009,0-.019.009-.028.019-6.98-2.214-17.435-3.878-29.582-4.8h-.009c-1.271-.1-2.542-.187-3.85-.271h-.009c-1.3-.075-2.616-.15-3.952-.206-4.644-.224-9.456-.336-14.361-.336-21.051,0-40.552,2.112-51.54,5.541A11.662,11.662,0,0,0,870.965,732.219Zm-.691,124.935v-.009c.056-.972.112-1.925.168-2.9q2.383-39.678,4.765-79.347c.056-.972.112-1.934.178-2.906s.112-1.934.168-2.9l56.034-36.543c1.374.028,2.738.075,4.083.121h.009c1.336.056,2.672.112,3.98.187h.009c13.324.691,25.023,2.252,32.862,4.448a13.263,13.263,0,0,0-1.645,7.531L973.42,787.1l.168,2.672v.009l.159,2.682L870.1,860.051C870.153,859.089,870.209,858.117,870.274,857.155Zm94.484-26.667v24.761H950.742V830.487a7.008,7.008,0,0,1,14.016,0Zm-62.6,52.325v24.761H888.139V882.813a7.008,7.008,0,0,1,14.016,0Zm74.638,43.9a20.488,20.488,0,0,1-14.987,6.092H886.084a1.954,1.954,0,0,1-.234-.009h-.009a21.462,21.462,0,0,1-3.737-.346l96.278-62.79.159,2.682v.009l.159,2.682,2.392,39.87A15.665,15.665,0,0,1,976.793,926.709Z" transform="translate(-825.554 -647.35)" fill="#fff"/>
    <path id="Path_5980" data-name="Path 5980" d="M896.845,777.85a8.887,8.887,0,0,0-8.877,8.877v26.63h17.753v-26.63A8.887,8.887,0,0,0,896.845,777.85Zm7.008,33.637H889.837V786.727a7.008,7.008,0,0,1,14.016,0Z" transform="translate(-827.252 -655.914)" fill="#fff"/>
    <path id="Path_5981" data-name="Path 5981" d="M860.2,697.937v-.652l-37.212-16.633v1.02h0v.284L860.2,698.589Z" transform="translate(-822.987 -649.535)" fill="#fff"/>
    <rect id="Rectangle_2031" data-name="Rectangle 2031" width="37.212" height="1.869" transform="translate(0 54.1)" fill="#fff"/>
    <path id="Path_5982" data-name="Path 5982" d="M860.2,713.3v-.652l-37.212,16.633v.284h0v1.02L860.2,713.956Z" transform="translate(-822.987 -651.635)" fill="#fff"/>
    <path id="Path_5983" data-name="Path 5983" d="M993.987,697.284v1.3l37.212-16.633v-.284h0v-1.02Z" transform="translate(-834.209 -649.535)" fill="#fff"/>
    <rect id="Rectangle_2032" data-name="Rectangle 2032" width="37.212" height="1.869" transform="translate(159.778 54.1)" fill="#fff"/>
    <path id="Path_5984" data-name="Path 5984" d="M993.987,713.3v.652l37.212,16.633v-1.02h0v-.284l-37.212-16.633Z" transform="translate(-834.209 -651.635)" fill="#fff"/>
  </g>
  <text id="SEO" transform="translate(58.495 366.774)" fill="#f5f5f5" font-size="41" font-family="Poppins-Bold, Poppins" font-weight="700"><tspan x="0" y="0">SEO</tspan></text>
</svg>
