<svg xmlns="http://www.w3.org/2000/svg" viewBox="0 0 461.56 313.44"><defs><style>.cls-1{fill:#f9eeee;}</style></defs><g id="Layer_2" data-name="Layer 2"><g id="Layer_1-2" data-name="Layer 1"><g id="Group_3908" data-name="Group 3908"><path id="Path_2718" data-name="Path 2718" class="cls-1" d="M209.56,168.69q-.31,1.13-.6,2.22a24.47,24.47,0,0,1-5.47,2.14q-1.31,4.74-2.39,8.93h-1.69l-7.06.06c-.85-3.15-1.72-6.32-2.58-9.51q-.78-2.82-1.57-5.67-1.56-5.7-3.17-11.51-3.18-11.66-6.47-23.74c-4.36-16.11-8.8-32.79-13.27-49.88q-3.79-14.58-7.51-28.86l26,.07,2.95,11.74c.59,2.41,1.19,4.81,1.78,7.2q1.75,7.17,3.47,14.21,3.41,14.06,6.63,27.47t6.18,26.08q1.49,6.33,2.92,12.46l.57,2.46.3,1.31q-2.47,8.24-4.46,15.3l1.05-.36.53-.21.54-.23.27-.12q.69-.3,1.38-.66l.29-.15.85-.47.29-.16Z"/><path id="Path_2719" data-name="Path 2719" class="cls-1" d="M268,3l-.16-.3a5.1,5.1,0,0,0-9.31.72l-21.9,62.51,1.52-.11.25,0L260.06,4a3.42,3.42,0,0,1,1.77-2,3.46,3.46,0,0,1,4.57,1.5l.16.3a3.45,3.45,0,0,1,.3,2.48l-18,72.09-10.76,38c-2.08,9.15-4.38,19.14-6.88,29.85a.58.58,0,0,1,0,.1c-.2.85-.4,1.71-.61,2.57l19.84-70.13h0l18-72.11A5.06,5.06,0,0,0,268,3Z"/><path id="Path_2720" data-name="Path 2720" class="cls-1" d="M223.48,156.93q-2.19,2.32-4.3,4.31l-.32.3c-.55.5-1.08,1-1.61,1.45l-.32.28-1,.81-.32.26c-1,.79-1.9,1.52-2.83,2.19l-.42.3c-.55.4-1.1.77-1.64,1.12l-.41.25-.4.25-.4.24-.22.13-.29.17-.85.47-.28.14c-.47.24-.93.47-1.39.67l-.27.12-.54.23-.53.2c-.35.14-.7.26-1,.36q2-7,4.45-15.3c2-6.55,4.18-13.65,6.6-21.25,10.6-33.24,22-65.32,22.08-65.65l1.12-3.18h-.26l-1.51.11-.89,2.52c-.1.28-8.35,23.59-17.35,51.05L215.92,128q-2.76,9.66-5.91,20.57c-.55,2-1.13,4-1.71,6l-1.46,5.15c-.37,1.33-4.29,13.95-6.81,22.27-1.11,3.66-2,6.48-2.11,7.16-.35,1.49-.66,2.9-.94,4.23h0l-.28,1.33v0l-.07.33c-.31,1.55-.58,3-.81,4.43a10,10,0,0,0,.5,5.36l-.14.08a19.42,19.42,0,0,0-2,1.36,35.31,35.31,0,0,0-6.4,6.41,69.61,69.61,0,0,0-7.06,11.35,103.28,103.28,0,0,0-6.36,15,79.51,79.51,0,0,0-3.59,16,61.44,61.44,0,0,0-.11,13.42c.05.47.09.93.14,1.38s.14.89.21,1.31c.14.85.26,1.65.41,2.39s.33,1.41.47,2.05c.08.31.16.61.23.9a7.94,7.94,0,0,0,.22.8,25.93,25.93,0,0,0,1.07,2.82c-.84,1.75-1.52,3.36-2.14,4.77-.7,1.6-1.32,3-1.87,4.06-1.07,2.2-1.83,3.34-1.75,3.4a3.63,3.63,0,0,0,.75-.66l.14-.15-.48.58c-1,1.18-1.92,2.3-2.82,3.44a20.31,20.31,0,0,0-2.33,3.55,18.14,18.14,0,0,0-1.32,3.56,27.26,27.26,0,0,0-.78,5.83c-.05,1.59,0,2.81,0,3.64a6.09,6.09,0,0,0,.11,1.28,6.09,6.09,0,0,0,.28-1.25c.14-.82.32-2,.63-3.56a30.31,30.31,0,0,1,1.52-5.36,16.73,16.73,0,0,1,1.56-3,19.65,19.65,0,0,1,2.41-2.89l6.5-6.45c2.34-2.34,4.82-4.86,7.41-7.51s5.32-5.45,8.06-8.51c1.37-1.54,2.74-3.13,4.05-4.84s2.6-3.45,3.84-5.27a88.06,88.06,0,0,0,10.69-22.27,89.66,89.66,0,0,0,2.61-10.45c.14-.83.28-1.64.42-2.45s.22-1.59.33-2.36c.22-1.54.33-3,.45-4.46.07-.71.09-1.41.12-2.09s.06-1.33.08-2q.06-1.93,0-3.63a43.4,43.4,0,0,0-.52-5.8,29,29,0,0,0-.8-3.58c-.05-.17-.1-.32-.15-.46l.26-.33.08-.11a18.34,18.34,0,0,0,1.32-2.16c.75-1.39,1.54-3,2.37-4.9l.06-.15s0,0,0,0l.87-2h0c.87-2.05,1.77-4.34,2.71-6.84.83-2.2,1.69-4.58,2.57-7.12,2-5.88,3.54-10.65,3.82-11.57l4.92-17.38a.39.39,0,0,0,.08-.1s1.46-5.2,1.75-6.33a.3.3,0,0,1,0-.1c2.5-10.71,4.8-20.7,6.88-29.85l-10,35.37C226.63,153.49,225.08,155.24,223.48,156.93Zm-29,50.63.4-.51c.66-.8,1.18-1.42,1.56-1.83l0,0a7.64,7.64,0,0,0,.84,1.4l-1,1.23c-.82,1-1.89,2.4-3.11,4.11-.19.19-.39.41-.62.66A33.5,33.5,0,0,0,194.46,207.56Zm-7.68,30.64a122,122,0,0,1,3.49-12.75c1.28-3.86,2.73-7.29,4-10.19s2.27-5.26,3-6.91c.2-.5.37-.92.51-1.29a5.76,5.76,0,0,0,1,.9,6.21,6.21,0,0,0,.78.47c-.79,1.4-1.86,3.43-3.08,6a153.76,153.76,0,0,0-8.15,20.73c-1.45,4.72-2.59,9.26-3.46,13.34C185.35,245.21,186,241.75,186.78,238.2Zm-13.44,38.95c0-.26,0-.53,0-.82s0-.59,0-.91c0-.62,0-1.31-.05-2s0-1.52.06-2.34c0-.41,0-.84,0-1.28s.07-.88.09-1.34c.07-1.11.17-2.3.29-3.54,0,.06,0,.11,0,.17a40.69,40.69,0,0,0,1.52,7.32,11,11,0,0,0,1,2.55,15.44,15.44,0,0,0,0-2.72c0-1.72,0-4.2.25-7.2a67.07,67.07,0,0,1,1.69-10.35c.46-1.92,1-3.94,1.6-6,.09-.36.2-.71.3-1.06-.1,1.12-.18,2.22-.24,3.29-.24,4.25-.21,8.06-.09,11.25s.31,5.77.49,7.55v0c-.95,1.13-1.86,2.27-2.7,3.4s-1.53,2.16-2.18,3.23-1.2,2.14-1.71,3.15c0,.08-.08.16-.12.24-.07-.63-.18-1.51-.24-2.54ZM189.28,267c-1.21,1.62-2.49,3.18-3.76,4.7-2.56,3-5.15,5.94-7.58,8.76s-4.72,5.5-6.85,8l-.33.4c.65-.87,1.36-1.89,2.12-3.05,1-1.48,2-3.17,3.24-5,.61-.89,1.27-1.8,2-2.71s1.5-1.81,2.34-2.74c1.7-1.84,3.66-3.72,5.74-5.79,1.78-1.79,3.61-3.71,5.4-5.79-.75,1.07-1.52,2.13-2.3,3.16Zm10.65-31.9c-.24,1.44-.43,2.84-.79,4.21-.08.35-.15.7-.24,1l-.3,1c-.19.7-.45,1.39-.68,2.1l-.19.53-.21.52-.42,1c-.29.71-.62,1.4-.93,2.11s-.69,1.39-1.07,2.08-.75,1.39-1.18,2.07a105.47,105.47,0,0,1-11,14.75c-.43.5-.85,1-1.28,1.49.24-1.32.5-2.92.8-4.74a2.46,2.46,0,0,0,0,.26,1.31,1.31,0,0,0-1,1.5,1.29,1.29,0,0,0,1.5,1,1.28,1.28,0,0,0,1-1.49,1.3,1.3,0,0,0-.47-.79l.26-.63.38-.2c.19-.1.42-.23.68-.4l.86-.62c.33-.24.66-.55,1-.87s.75-.7,1.16-1.12a26,26,0,0,0,2.46-3.07,46.88,46.88,0,0,0,4.6-9c.7-1.75,1.37-3.54,2.06-5.43s1.35-3.84,2-5.87,1.2-3.77,1.72-5.62c-.31,1.34-.53,2.69-.74,4Zm-2-11.24c-1.2,3.43-2.57,7.19-3.9,11.23-.66,2-1.26,4-1.82,5.92s-1.07,3.8-1.54,5.55a80,80,0,0,1-2.85,9.06c-.5,1.24-1,2.34-1.52,3.29-.27.47-.51.91-.75,1.3s-.46.76-.68,1.07-.42.6-.59.85l-.26.36c.55-1.33,1.21-3,1.95-4.9,2.05-5.32,4.7-12.67,7.25-20.9s4.52-15.8,5.84-21.34c.64-2.7,1.12-4.92,1.43-6.49l.42.13a7.36,7.36,0,0,0,1.47.22c-.34,1.45-.82,3.32-1.46,5.5-.77,2.64-1.79,5.73-3,9.15Zm8-14c-.21,1.22-.46,2.72-.73,4.45s-.53,3.74-.91,5.83a24,24,0,0,1-.78,3.17,33.52,33.52,0,0,1-1.32,3.32c-.26.6-.53,1.26-.77,1.95-.05.15-.09.3-.14.45.36-1.36.69-2.69,1-4a65.8,65.8,0,0,0,1.48-9.88,46.2,46.2,0,0,0,0-6,9.6,9.6,0,0,0,2.25-.48l.16-.07-.22,1.25Zm2,1.38c-.21,1-.48,2-.78,3.15,0,.1-.05.21-.08.31v-.26c0-1.75-.06-3.26-.11-4.5q0-.94-.06-1.65a9.15,9.15,0,0,0,1.57-1,21.61,21.61,0,0,1-.54,3.93Zm2.33-2.74a12,12,0,0,0-.77-2.1c.24-.24.47-.5.7-.77,0,.07,0,.13,0,.2.06.72.12,1.73.13,3,0-.1,0-.22-.07-.33Zm1.66-8.48-.3.61c-.2.4-.39.79-.59,1.15l-.14.27a18.83,18.83,0,0,1-1.3,2.1l-.08.1c-.12.17-.25.34-.38.5a5.66,5.66,0,0,1-.4.44h0l-.12-.14,0,0,0,0-.09-.08,0,0-.05,0h0a2.35,2.35,0,0,0,0,.65l-.33.32-.18.14-.19.16-.15.12-.18.13-.18.12-.18.12-.21.13h0c0-.06,0-.1,0-.16h0c0-.06,0-.11,0-.17a.66.66,0,0,1,0-.13v0a.06.06,0,0,1,0,0,.34.34,0,0,1,0-.09h0a.06.06,0,0,1,0,0s0,0,0,0h0s0,0,0,0a.58.58,0,0,0-.05.14.07.07,0,0,0,0,0c0,.05,0,.11-.05.16a.5.5,0,0,1,0,.12c0,.11-.06.23-.09.38a7.72,7.72,0,0,1-.93.41,8.6,8.6,0,0,1-1.94.41h0l0-.19,0-.22c0-.27-.07-.49-.1-.68s0-.24-.06-.34a.24.24,0,0,1,0-.08l0-.08,0-.06a.14.14,0,0,0,0-.06v0a.05.05,0,0,0,0,0h0l0,0s0,0,0,0l0,.12c0,.07,0,.17-.08.29s0,.13-.05.2a.5.5,0,0,1,0,.13l-.1.42a1.62,1.62,0,0,1,0,.19c0,.13-.07.27-.1.42a5.86,5.86,0,0,1-1.95-.36h0a4.25,4.25,0,0,0,.12-1.23h0a.93.93,0,0,0-.16.18.36.36,0,0,1-.07.1c-.06.1-.15.22-.23.37s-.14.21-.21.33a3.49,3.49,0,0,1-.67-.4l-.18-.13-.18-.15-.12-.1a5.34,5.34,0,0,1-.82-.95l-.08-.11a.86.86,0,0,0-.1-.16l-.09-.17a.65.65,0,0,1-.09-.16l0-.06c-.05-.1-.1-.19-.14-.29a1.42,1.42,0,0,1-.08-.18,1.34,1.34,0,0,0-.07-.18l-.07-.19c-.08-.26-.16-.53-.22-.8,0-.05,0-.11,0-.17a1.91,1.91,0,0,0,0-.21l0-.2,0-.21a1.49,1.49,0,0,1,0-.21c0-.2,0-.4,0-.6v-.11c0-.19,0-.37,0-.56a8.54,8.54,0,0,1,.12-1.23c.18-1.09.39-2.23.62-3.43h0l.17.16.18.14a2.09,2.09,0,0,0,.22.2c.24.2.49.39.74.58l.07,0a8,8,0,0,0,.71.48l.27.16.55.31.31.16.55.25.32.14.6.23.28.1c.3.1.6.19.91.27l.62.15.2,0,.43.07.23,0,.42,0,.21,0,.48,0h.15l.63,0h.14l.49,0h.21l.42,0,.23,0,.43-.05.19,0,.58-.1h0a6,6,0,0,0,.61-.14l.19,0,.43-.12a1.66,1.66,0,0,1,.21-.06l.4-.14.21-.07.43-.17.17-.06a.05.05,0,0,1,0,0h0l-.59,1.2Zm11.26-30.31v0c-.06.21-.18.57-.33,1.07,0,.08-.05.16-.08.24s-.05.17-.08.26c-.15.45-.31,1-.5,1.55l-.18.54v0l-.59,1.79c-.07.22-.14.44-.22.66l-.39,1.17c-.05.17-.11.33-.16.5s-.23.66-.34,1c-.06.18-.12.36-.19.55-.18.5-.35,1-.53,1.55h0c-.06.18-.12.36-.19.54l-.21.63c-.13.36-.26.73-.39,1.08-.38,1.08-.76,2.13-1.13,3.16l-.51,1.38c-.17.46-.34.9-.5,1.35-1.15,3-2.24,5.73-3.25,8l-.2.11-.25.14-.3.15-.25.12-.31.14-.25.1-.32.13a2.67,2.67,0,0,1-.26.09l-.32.11-.26.08a2,2,0,0,1-.33.09l-.25.07-.34.08-.26.05-.33.06-.27,0-.34,0-.26,0-.34,0-.25,0h-1.22l-.36,0-.25,0-.37-.05-.23,0-.41-.08-.2,0-.6-.14c-.29-.08-.58-.16-.86-.26l-.28-.11-.55-.2-.32-.15-.48-.23a2.57,2.57,0,0,1-.33-.18l-.45-.25c-.11-.06-.22-.14-.33-.21l-.41-.27-.32-.24-.39-.3-.3-.27a3.7,3.7,0,0,1-.36-.33l-.15-.14-.15-.14-.21-.23c.34-1.7.75-3.54,1.21-5.53.53-2.21,1.11-4.59,1.77-7.14,0-.17.09-.35.13-.52s.09-.36.14-.53h0l.06-.24.06-.23a.14.14,0,0,1,0-.06h0c.14-.54.28-1.08.43-1.63l.09-.35c.12-.44.23-.9.36-1.35a2.68,2.68,0,0,0,.07-.27c0-.09,0-.18.08-.26s0-.15.05-.22.07-.23.1-.35h0c.07-.24.13-.48.2-.72l.12-.43h0l.15-.59h0s0,0,0-.07.09-.34.15-.51h0c0-.2.1-.4.16-.59h0a24.42,24.42,0,0,0,5.46-2.15h0a31.72,31.72,0,0,0,2.84-1.67l.52-.34h0l.52-.35.39-.27c.93-.66,1.88-1.37,2.84-2.15l.83-.67.42-.36.2-.17c.75-.64,1.51-1.32,2.28-2l.43-.4q1.84-1.74,3.77-3.75l.33-.35.33-.35.66-.7h0l1.29-1.41.63-.71Z"/><path id="Path_2728" data-name="Path 2728" class="cls-1" d="M39.21,46.29c1.25,1.92,2.39,3.83,3.41,5.75h.24c-1-1.92-2.2-3.83-3.46-5.75Z"/><path id="Path_2744" data-name="Path 2744" class="cls-1" d="M33.86,137v1.5l.72-1.5Z"/><path id="Path_2748" data-name="Path 2748" class="cls-1" d="M48.1,52c-1.4-1.92-2.92-3.83-4.55-5.75h-.19C45,48.21,46.48,50.12,47.87,52Z"/><path id="Path_2779" data-name="Path 2779" class="cls-1" d="M63.46,264.05C29,221.72,49.37,179.38,59.93,137c1.33-5.34,2.5-10.67,3.39-16,0-.29.1-.58.14-.86,1.89-11.75,2.35-23.51,0-35.26l-.09-.45-.1-.45c-.05-.22-.09-.45-.14-.67L63,82.67l-.33-1.35a76.33,76.33,0,0,0-2.83-9c-.11-.3-.23-.6-.35-.9-.2-.51-.41-1-.63-1.52,0,0,0,0,0,0l-.33-.78c-.12-.27-.23-.53-.35-.79l-.73-1.57L57,66l-.39-.79-.46-.9-.24-.45-.24-.44-.36-.68L55,62l-.37-.65c-.13-.24-.27-.46-.4-.7l-.53-.9-.5-.82-.65-1L52,57.11c-.1-.15-.19-.3-.29-.44s-.2-.3-.3-.46L51,55.58l-.64-.93L50,54.18l-.33-.47L49,52.78c-.23-.31-.46-.63-.7-.94s-.63-.83-.95-1.25l-1-1.25-.76-.93-.38-.47-.4-.47-1.06-1.25L42.66,45,42,44.26H37.56l.49.72C55,70.32,51.49,95.67,41.57,121c-.53,1.33-1.07,2.67-1.62,4l0,.06c-.22.55-.45,1.09-.68,1.63l-.35.81c-.23.55-.47,1.09-.71,1.63l-.72,1.63-.74,1.62c-.24.55-.5,1.09-.74,1.63s-.62,1.33-.94,2c-.16.33-.31.67-.47,1l-.72,1.5h0l-.21.45-.75,1.52c-.12.26-.24.5-.37.76s-.24.51-.37.77c-.35.71-.7,1.43-1.06,2.14l-.12.25c-.36.73-.72,1.46-1.09,2.19l-1.54,3L26,154.23c-1.08,2.13-2.16,4.24-3.24,6.36l-.39.77c-1,2-2.06,4.06-3.07,6.1-.85,1.69-1.68,3.39-2.5,5.08-.34.68-.66,1.35-1,2-.17.33-.33.67-.49,1l-.48,1-.93,2c-.43.92-.85,1.85-1.27,2.78l-.6,1.33q-2.27,5.08-4.22,10.18c-.27.67-.52,1.35-.77,2-.63,1.69-1.22,3.39-1.78,5.08-.45,1.36-.87,2.71-1.27,4.07H4c-4.81,16.38-6,32.75.23,49.12A71.1,71.1,0,0,0,11,266.47c.43.67.86,1.33,1.32,2h55C65.93,267,64.67,265.53,63.46,264.05Zm-10.67-11c.83,1.42,1.73,2.84,2.67,4.26h-2q-1.39-2.13-2.63-4.26Zm-4.9-9.74q.91,2.21,2,4.41H48q-1.06-2.2-2-4.41Zm-3.34-9.76c.4,1.53.87,3.06,1.38,4.58H44.09c-.5-1.52-1-3-1.35-4.58ZM6.62,237.79a72,72,0,0,1-.53-15.87H39.16c0,.33.06.66.1,1s.07.66.11,1l.12,1c0,.33.09.66.14,1,.09.63.19,1.27.3,1.91a1.3,1.3,0,0,1,0,.21l.15.86c.06.33.13.66.19,1,.26,1.32.56,2.65.9,4,.17.67.35,1.33.54,2s.38,1.32.59,2Zm35.56-33.46c-.13,1.69-.22,3.39-.28,5.08H40.3c.07-1.69.18-3.38.33-5.08Zm1.94-14.09H42.69c.36-1.8.74-3.61,1.16-5.41h1.38c-.4,1.8-.78,3.61-1.12,5.41Zm-.76,4.34c-.27,1.75-.52,3.5-.73,5.25H41.12q.33-2.62.78-5.25Zm-1.49,19.5c0,1.64.11,3.28.23,4.91H40.42c-.11-1.63-.17-3.27-.18-4.91Zm-.24,14.5c-.3-1.58-.55-3.16-.75-4.75H42.6c.21,1.59.47,3.17.79,4.75Zm3.22-47.92q.69-2.79,1.46-5.58h1.3q-.73,2.79-1.41,5.58Zm2.58-9.59c.55-1.91,1.11-3.83,1.68-5.74h1.22c-.56,1.91-1.1,3.83-1.63,5.74Zm8-23.19H54.42c.4-1.36.81-2.72,1.2-4.08h1c-.19.68-.39,1.36-.58,2s-.4,1.36-.6,2ZM44.41,119.13H43.6q.82-2.3,1.59-4.58H46c-.13.38-.25.76-.37,1.14l-.39,1.15c-.26.76-.53,1.53-.81,2.29Zm2.8-57.51h-.32q-1-2.79-2.27-5.58h.27c.87,1.86,1.63,3.72,2.31,5.59ZM51,90.38h-.57c.14-1.7.23-3.39.25-5.08h.53c0,1.69-.1,3.38-.22,5.08Zm.11-9.59h-.49c-.07-1.75-.22-3.49-.44-5.24h.44c.23,1.74.39,3.49.48,5.24Zm-.6,14.26c-.21,1.63-.47,3.27-.78,4.91h-.65c.32-1.64.59-3.28.82-4.91Zm-.61-23.84h-.4c-.34-1.81-.77-3.61-1.28-5.42h.36c.52,1.81,1,3.61,1.32,5.42Zm-2.41,38.33h-.74q.69-2.37,1.27-4.74h.69c-.38,1.58-.79,3.16-1.23,4.75Zm2.17-6.66H62.78A117.38,117.38,0,0,1,61,118.75H45.16a128.51,128.51,0,0,0,4.48-15.87Zm7.54,35.42c.11-.42.22-.85.34-1.27.27-1,.53-2,.79-3h1c-.25,1-.51,2-.77,3l-.33,1.27Zm2.45-9.59c.34-1.47.66-2.94,1-4.41h.86c-.3,1.47-.61,2.94-.94,4.41Zm2-9.58c.26-1.53.5-3.06.72-4.58h.78c-.2,1.52-.43,3-.69,4.58Zm1.32-9.59c.15-1.58.28-3.16.36-4.74H64c-.07,1.58-.19,3.16-.33,4.74ZM64.09,100h-.65c0-1.64,0-3.28-.11-4.91h.6c.09,1.64.14,3.27.15,4.92ZM62.77,85.3c.28,1.53.51,3.08.7,4.62l.06.45H63c-.18-1.69-.42-3.38-.71-5.07Zm-2.44-9.76c.57,1.75,1.06,3.5,1.49,5.25h-.49q-.61-2.62-1.44-5.25Zm-3.9-9.75q1.3,2.7,2.35,5.42h-.4c-.68-1.81-1.45-3.61-2.3-5.42Zm2.75,8.72a75.85,75.85,0,0,1,3.21,15.27H51.46a73.41,73.41,0,0,0-.06-10c0-.23,0-.44,0-.67s0-.39-.05-.58l-.12-1.16-.06-.58c-.1-.78-.2-1.55-.32-2.33ZM50.9,56q1.83,2.79,3.37,5.58H54Q52.43,58.83,50.62,56Zm-7.35-9.75c1.63,1.92,3.15,3.83,4.56,5.75h-.24q-2.09-2.86-4.5-5.75Zm-.48-.15h0A93.24,93.24,0,0,1,53.22,60.81H47.14a74.34,74.34,0,0,0-7.7-14.67Zm-3.67.15c1.27,1.92,2.42,3.83,3.46,5.75h-.24q-1.53-2.86-3.41-5.75Zm2.21,78h.86q-.86,2.22-1.77,4.42h-.9q.93-2.21,1.81-4.41ZM36.11,137c.46-1,.91-2,1.35-3h.95c-.44,1-.88,2-1.34,3l-.57,1.26h-1c.19-.41.38-.83.58-1.25Zm1.71,0q1.29-2.9,2.51-5.78H58.21q-.74,2.88-1.54,5.78c-1,3.57-2.06,7.13-3.15,10.69H32.88c.26-.54.51-1.09.77-1.63.07-.16.15-.3.22-.46q2-4.29,3.94-8.59Zm-4.91,6.77h1s0,.1-.07.14-.14.31-.22.46c-.55,1.16-1.1,2.32-1.66,3.48H30.93q1-2,2-4.08Zm-9.39,21.52c-.92,1.92-1.83,3.83-2.73,5.75H19.53c.91-1.92,1.84-3.83,2.78-5.75Zm1-.15H48.08c-1.5,4.89-2.93,9.78-4.21,14.67h-26c2.09-4.89,4.35-9.77,6.67-14.66Zm-6.87,9.9H19c-.85,1.86-1.67,3.72-2.48,5.58H15.12c.82-1.86,1.66-3.71,2.52-5.57Zm23.13,18.47c-.06.32-.11.64-.17,1l-.3,1.79s0,.08,0,.12l-.15,1c0,.32-.1.63-.14.95-.1.64-.19,1.27-.27,1.91l-.12.95-.11,1-.09.77,0,.31-.09.83a.25.25,0,0,1,0,.08c-.05.61-.11,1.22-.16,1.83s-.1,1.27-.13,1.9c0,.32,0,.64-.06,1H8.06c0-.24.1-.48.16-.72s0-.21.07-.32c.07-.27.13-.54.2-.82a.19.19,0,0,1,0-.07v0c.05-.22.1-.44.16-.66a.43.43,0,0,0,0-.05c0-.15.08-.29.11-.44L9,205c.08-.32.17-.64.25-1s.17-.63.26-.95l.27-1c.08-.3.16-.6.26-.9a.44.44,0,0,1,0-.1c.18-.62.37-1.24.56-1.86l.6-1.91c.1-.32.2-.63.31-1,.21-.64.42-1.27.64-1.91l.33-.95Zm-27.45-8.72h1.38q-1.11,2.7-2.14,5.41H11.14c.69-1.79,1.43-3.6,2.18-5.4Zm-3.81,9.75H11c-.62,1.75-1.19,3.5-1.73,5.25H7.75q.83-2.61,1.76-5.24ZM6.4,204.32H8c-.23.85-.45,1.69-.66,2.54s-.41,1.7-.6,2.54H5.11c.38-1.68.82-3.38,1.29-5.07ZM4.05,214.64l.1-.57H5.78c-.28,1.64-.51,3.28-.71,4.91H3.4c.18-1.43.39-2.88.64-4.33ZM2.78,228.57c0-1.58.06-3.16.16-4.75H4.27v4.75Zm.64,9.58c-.21-1.52-.37-3.05-.47-4.58H4.74c.12,1.53.29,3.05.52,4.58Zm2.06,9.59c-.16-.55-.32-1.11-.46-1.66l-.15-.55c-.19-.73-.36-1.47-.53-2.2H6.23c.34,1.47.73,2.94,1.18,4.41Zm3.66,9.58c-.67-1.41-1.27-2.83-1.83-4.25h2q.86,2.13,1.87,4.25Zm5.42,9.59-.29-.44c-.79-1.21-1.54-2.43-2.25-3.64h2.06c.71,1.21,1.47,2.43,2.28,3.64l.29.44Zm3.59-.15-.19-.29a72.66,72.66,0,0,1-8.23-16.2H47.54l.28.52.27.51.29.52c.09.18.19.34.28.51l.29.52.2.34.24.41c.15.27.31.53.47.79s.41.69.62,1l0,.07c.2.32.4.64.61,1s.57.9.88,1.35l.33.5c.27.42.56.83.85,1.24l.36.52.36.51.38.51c.12.18.25.35.37.52l.77,1c.13.17.26.35.4.51.39.52.8,1,1.21,1.55l.41.51.37.46.48.58.42.51Zm42.55.15q-1.76-2-3.31-4.08h2q1.59,2,3.35,4.08Z"/><path id="Path_2780" data-name="Path 2780" class="cls-1" d="M114.62,41.92Q101.9,29,75.3,29H4.05V204.08c6.38-21.7,19.15-43.4,29.6-65.1l.21-.44V137h.72c2.53-5.34,4.91-10.68,7-16H33.86V45h4.19l-.48-.72H42l.64.72h32.4q17.66,0,25.66,8.83t8,27.66q0,39.56-33.66,39.55H63.32c-.88,5.34-2.06,10.68-3.39,16H75.3q52,0,52-55.57Q127.33,54.88,114.62,41.92Z"/><g id="Group_3904" data-name="Group 3904"><path id="Path_2781" data-name="Path 2781" class="cls-1" d="M389.62,173.12c.19-.26.28-.39.24-.35A1.21,1.21,0,0,0,389.62,173.12Z"/><path id="Path_2782" data-name="Path 2782" class="cls-1" d="M461.43,35.22c-.09.6-.17,1.29-.22,2.05-.13,1.56-.18,3.47-.18,5.73q-.82,16.32-.81,24.09,0,10.88.4,16.32v50.12l.13,60.4v1h0v5.22l-1.84-1.56L447.61,189c-1.89-6.66-3.32-12.36-4-15a13.41,13.41,0,0,0-.47-1.61c-2.13-3-4.08-7-7.63-5.92-.45.13-1.12-.52-1.52-1.09-1.18-1.65-2.38-3.29-3.52-5,.08-12.85.19-30,.21-36.6q0-9.36.09-18.63c0-1.54,0-3.08,0-4.63V99.25l.05-.49.12-1.34,0-.42,0-.22v-.17h-.05l-.15-.07c-.05,0,0,0-.06.06l-.11.2-.52,1.07-.33.72-.18.4,0,.11v0l-.07.2-.19.52-.76,2.06-11.93,32.46c-1.14,3.08-2.33,5.9-3.57,8.58l-.52.11a5.86,5.86,0,0,0-4,2.41c-.43.79-.86,1.61-1.29,2.42q-.43.82-.9,1.62a23.2,23.2,0,0,1-1.59,2.44c-.13.17-.25.33-.38.48h0l-.6.75c-1.87,2.3-3.84,4.4-5.71,6.7-.24.28-.47.58-.7.86l-.62.82c-.88,1.17-1.74,2.34-2.6,3.53l-.73,1-2.28,3.15-.38.53-.05-.07c0,.09-.06.18-.1.28l-.86,1.18c-.93,1.31-1.87,2.6-2.8,3.9l-.63.89-.32.45h0l-2.18,3-.21.3-.68.95-.75,1-.09.13c-.25.33-.49.67-.74,1l-.39.54c-.3.4-.61.81-.9,1.21-1.1,1.46-2.23,2.92-3.38,4.42l-1.52,2a5.19,5.19,0,0,1-.88-.66,2.11,2.11,0,0,1-.19-.23A.22.22,0,0,0,374,190c-.15-.23-.3-.46-.46-.68l-.39-.59c-1.94-2.92-3.84-5.91-5.82-8.78-4.4-6.37-8.74-12.85-13.31-18.93l-.47-.62c-2.43-3.18-5-6.12-7.55-9.07l-.56-.67c-.35-1-.69-2-1-2.95l-15.31-45c-.31-.9-.61-1.8-.92-2.69l-.45-1.34-.17-.52-.09-.29c-.26-.81-.51-1.61-.77-2.41-.55-1.71-1.08-3.41-1.61-5.09l-.6-1.86-3.77,85.45a.35.35,0,0,0-.05.08c-.52.8-1,1.6-1.54,2.42a87.15,87.15,0,0,1-5.76,8.52c-3.15,3.9-6.77,6.86-9.65,11.34-.1.15-.27.19-.39.3-2.57,2.3-5.22,4.42-7.67,7v0a4.78,4.78,0,0,0-.28,1.35h0c-.28,2.1-.6,6.27-1,10.36l-1.35,1.22v-8.06l.07-171.19,22-.26,6.73-.11,5.21-.06,1.15,0a2.22,2.22,0,0,1,.12.72s44.88,138.72,45.7,141.06l.8,1.55,4.05-8.94L427.68,33.57H429l.08.09a1.43,1.43,0,0,0,.61-.1l9.79,0,.11-.26h.81l-.09.25,21.18-.08A4.11,4.11,0,0,1,461.43,35.22Z"/><path id="Path_2783" data-name="Path 2783" class="cls-1" d="M320.73,172.21l-.05,1.13q-.78,1.24-1.53,2.52a90.23,90.23,0,0,1-5.77,8.86c-3.15,4.06-6.77,7.14-9.65,11.81-.1.15-.27.19-.39.31-2.57,2.4-5.22,4.6-7.67,7.27a2.79,2.79,0,0,0-.3.38h0a33,33,0,0,0-2.3,4.7v-1h0c.06-.15.12-.3.19-.44.19-.45.38-.87.56-1.28.06-.12.11-.24.16-.35s0,0,0-.05l.17-.35c.06-.14.12-.26.18-.39s.1-.22.16-.32,0,0,0,0l.23-.45.06-.1c.08-.16.17-.32.25-.45a.25.25,0,0,1,0-.07s0,0,0,0c.11-.18.21-.34.31-.48l.11-.15.12-.14,0,0c2.45-2.68,5.1-4.87,7.66-7.27.13-.12.29-.15.39-.3,2.88-4.67,6.51-7.75,9.66-11.81a89.11,89.11,0,0,0,5.76-8.87c.51-.84,1-1.69,1.54-2.52A.35.35,0,0,1,320.73,172.21Z"/><path id="Path_2784" data-name="Path 2784" class="cls-1" d="M389.71,169.3l.85-1.24c-.18.53-.41,1.16-.7,1.88h0c0,.12-.1.25-.14.38q-.35.89-.78,1.92c-.74,1-1.77,2.42-2.5,3.53l.48-1.39-.63.92-.32.46h0l-2.18,3.16-.21.3-.69,1c-.24.36-.5.72-.74,1.07l-.09.13-.74,1c-.13.19-.26.38-.4.56-.29.43-.6.85-.9,1.27-1.1,1.52-2.22,3-3.38,4.6L375.13,191a4.52,4.52,0,0,1-.89-.69,2,2,0,0,1-.18-.23A.9.9,0,0,1,374,190l-.46-.71-.39-.6c-1.94-3-3.85-6.16-5.82-9.14-4.4-6.63-8.75-13.37-13.31-19.7l-.48-.64c-2.42-3.31-5-6.37-7.54-9.45l-.57-1.74.57.69c2.55,3.08,5.12,6.13,7.54,9.45l.48.64c4.56,6.33,8.91,13.07,13.31,19.7,2,3,3.88,6.1,5.82,9.14l.39.61.46.7a.35.35,0,0,0,.05.08,1.5,1.5,0,0,0,.18.24,5.43,5.43,0,0,0,.89.69l1.51-2c1.16-1.57,2.28-3.08,3.38-4.6.3-.42.61-.84.9-1.26.14-.19.27-.37.4-.57s.49-.69.74-1l.09-.13.74-1.08.69-1,.21-.31,2.18-3.15h0c.1-.16.21-.31.32-.47l.63-.92Z"/><path id="Path_2785" data-name="Path 2785" class="cls-1" d="M393.38,166l.72-1-.72,2.07-2.28,3.28-.38-.5.38-.55C391.85,168.14,392.61,167,393.38,166Z"/><path id="Path_2786" data-name="Path 2786" class="cls-1" d="M403.74,153l.6-.78-.33,1-.27.87c-2.1,2.69-4.35,5.12-6.41,7.87.24-.67.47-1.32.7-2C399.9,157.53,401.87,155.34,403.74,153Z"/><path id="Path_2787" data-name="Path 2787" class="cls-1" d="M412.49,142.86l.52-.11c-.17.39-.35.77-.52,1.16a5.81,5.81,0,0,0-4,2.51c-.74,1.39-1.44,2.84-2.2,4.21.3-.92.6-1.84.9-2.74s.86-1.69,1.3-2.52A5.84,5.84,0,0,1,412.49,142.86Z"/><path id="Path_2788" data-name="Path 2788" class="cls-1" d="M460.89,194.26c-8.5-10.79-17.31-21.94-17.79-22.66-2.13-3.13-4.08-7.26-7.63-6.16-.46.14-1.12-.54-1.52-1.13-1.18-1.72-2.38-3.43-3.52-5.22v-1c1.15,1.78,2.34,3.49,3.52,5.21.4.59,1.06,1.27,1.52,1.13,3.55-1.1,5.5,3,7.63,6.16.48.72,9.28,11.86,17.79,22.65Z"/></g><g id="Group_3906" data-name="Group 3906"><g id="Group_3905" data-name="Group 3905"><path id="Path_2789" data-name="Path 2789" class="cls-1" d="M460.74,210.21l-2-2.51c-.22-.29-.45-.57-.67-.85l-1.18-1.5-.39-.5c-.44-.55-.87-1.09-1.29-1.64l-.75-.94L453,200.39c-.22-.27-.43-.54-.64-.82s-.3-.36-.44-.55l-.62-.79-.76-1-.6-.76-.39-.49-.57-.73c-1.57-2-2.92-3.7-3.92-5l-.36-.47L444,189c-.1-.12-.18-.23-.26-.34l-.42-.54-.11-.14-.14-.2c-2.14-3.13-4.08-7.27-7.64-6.17-.45.14-1.11-.54-1.52-1.13-1.18-1.72-2.37-3.43-3.51-5.21h0l-.11-.16c-.53-.84-1.06-1.69-1.56-2.57-2.43-4.19-4.7-8.62-7.07-12.9-1.24-2.26-5.32-3.07-8.68-2.45l-.51.1a5.86,5.86,0,0,0-4,2.51l-1.29,2.52c-.3.57-.6,1.14-.9,1.69a24.58,24.58,0,0,1-1.59,2.54c-.13.17-.25.34-.38.5h0l-.6.78c-1.87,2.39-3.85,4.58-5.71,7-.24.29-.47.6-.7.9s-.42.56-.63.85q-1.31,1.83-2.6,3.67l-.73,1-2.28,3.27-.37.55c-.06.07-.11.15-.16.22l-.85,1.23c-.23.59-.49,1.23-.78,1.93-.74,1-1.77,2.41-2.5,3.52l.48-1.39-.63.92-.33.47h0c-.72,1.06-1.45,2.1-2.17,3.15l-.21.31-.69,1c-.25.35-.5.72-.74,1.07l-.1.13-.73,1-.4.57-.9,1.25c-1.1,1.53-2.22,3-3.38,4.6-.49.67-1,1.35-1.51,2.06a5.43,5.43,0,0,1-.89-.69,1.88,1.88,0,0,1-.18-.24.41.41,0,0,1-.05-.09c-.16-.23-.31-.46-.46-.7l-.39-.6c-1.95-3-3.85-6.16-5.83-9.14-4.4-6.63-8.74-13.38-13.3-19.7l-.48-.65c-2.43-3.31-5-6.36-7.54-9.44l-.57-.69c-.81-1-1.62-2-2.41-2.95-1.58-2-3.59-1.18-4.34,1.7a5.5,5.5,0,0,1-.69,1.73c-.78,1.11-1.55,2.25-2.33,3.41-3.06,4.58-6.08,9.31-9.52,13a45.64,45.64,0,0,0-5.42,7.38l-.05.07q-.78,1.25-1.53,2.52a90.37,90.37,0,0,1-5.77,8.87c-3.15,4-6.77,7.13-9.65,11.81-.1.15-.27.19-.39.3-2.57,2.4-5.22,4.6-7.67,7.27v0a.53.53,0,0,0-.12.14l-.12.15a5,5,0,0,0-.3.48l0,0a.43.43,0,0,0,0,.07l-.25.45a.93.93,0,0,0-.05.1c-.08.14-.15.3-.24.45v0a3.36,3.36,0,0,0-.16.33c-.06.11-.12.25-.18.38a3.7,3.7,0,0,0-.17.35s0,0,0,.05l-.17.35-.56,1.28-.19.44h0v1.05h0v7.34l1.36-1.27c.48-.46.8-.78.88-.87,4.6-5.41,9.2-10.83,13.72-16.43l.6-.74c3.19-4,6.36-8,9.52-12l1.05-1.33c3-3.86,6.07-7.72,9.12-11.54.43-.53,1.27-.44,1.88-.28s1.07.75,1.6,1.15c.13-1.07.31-2.14.38-3.22a10,10,0,0,0-.08-1.64c.7-.9,1.41-1.55,2-2.25a5.11,5.11,0,0,0,.85-1.44c1.61-4.27,4.12-3.4,6.5-3.44.29,0,.74.43.85.85,1,3.71,2.09,7.42,3,11.21,1.14,4.67,1.62,10,3.36,14,2,4.53,2.83,9.29,3.52,14.43a40.56,40.56,0,0,0,1.54,7.24c1.33,4,2.92,7.8,4.36,11.72.72,2,1.4,3.62,2.7.62,2.6,5.68,2.17,13.23,5.24,19.3-3.72-24.67-10.57-46.37-15.84-69.07a1.64,1.64,0,0,1,1.51.4l4.72,5c3.56,3.79,7.11,7.58,10.64,11.43,2,2.15,3.9,4.36,5.84,6.58l.56.63.5.58c.56.65,1.12,1.29,1.69,1.93l1.29,1.47.26.3c1.78,2,3.48,4.21,5.34,6,.64.61,1.64.21,2.47.27.2-.68.39-1.37.57-2.05a10.64,10.64,0,0,1-2.15-1.64q-2.73-3.2-5.35-6.66l-.24-.34a4.23,4.23,0,0,1-.42-.82,3.93,3.93,0,0,1,.6-4.09c.41-.48.81-1,1.22-1.47l.92-1.12c.18-.21.35-.43.53-.65l1.05-1.3,1.28-1.58.09-.11.41-.5c.42-.52.83-1,1.25-1.53,1.53-1.87,3.07-3.7,4.65-5.44a18.58,18.58,0,0,0,1.7-2.24c1.88-2.81,3.58-6.06,6.35-6.83l.14,0c.29-.07.56-1,.74-1.56a21.69,21.69,0,0,1,1.89-4.66,6.7,6.7,0,0,1,2.17-2.38,4.53,4.53,0,0,1,.95-.43,6.21,6.21,0,0,1,3.9.27c.87.3,9-.2,10.48-.42,2.49,6.81,5.19,14.6,8.14,22.14q1.5,3.84,3,7.62,3.11,7.64,6.37,15.13c1.56,3.61,3.17,7.18,4.79,10.72s3.24,7.1,4.85,10.66l.75-.83-.75-1.55a335.09,335.09,0,0,1-15.78-38.71q-2.87-8.53-5.34-17.45a8.33,8.33,0,0,1,2.67,2.41c.45.52.95,1.29,1.44,1.31a10.14,10.14,0,0,0,1.35,0h.13c1.05-.08,2.11-.22,3.17-.22.36,0,.77.57,1.09,1,2,2.93,4,5.89,6.05,8.83,1.25,1.84,2.52,3.68,3.78,5.52l3.15,2.78,11.3,10,1.85,1.61.11-5.27,0-1A1.33,1.33,0,0,0,460.74,210.21Zm-70.88-23.06a1.21,1.21,0,0,0-.24.35l.15-.21,0,0s0,0,0,0l0,0h0Z"/><path id="Path_2790" data-name="Path 2790" class="cls-1" d="M389.71,186.49c-.22.58-.48,1.22-.77,1.92-.74,1-1.78,2.42-2.5,3.52l.48-1.39Z"/><path id="Path_2791" data-name="Path 2791" class="cls-1" d="M389.62,187.49a1.21,1.21,0,0,1,.24-.35A2.9,2.9,0,0,1,389.62,187.49Z"/><path id="Path_2792" data-name="Path 2792" class="cls-1" d="M316,229.67c-1.6-3.06-.68-13.65,1.69-17.42a62.16,62.16,0,0,0,5,15.91,4.92,4.92,0,0,1,.18,2.32c-.71,4.65-1.44,9.31-2.28,13.91a7.74,7.74,0,0,1-1.63,3.49q.3-7.19.62-14.39a5.15,5.15,0,0,0,.05-1c-.33-1.55-.7-3.08-1.06-4.61Z"/></g></g><g id="Group_3907" data-name="Group 3907"><path id="Path_2794" data-name="Path 2794" class="cls-1" d="M398.87,182.09c14.86-6,18.29.71,19.83,3l.11.15.06.18,14.8,37.83,0,0-19.23-39.61Z"/></g></g></g></g></svg>