<svg xmlns="http://www.w3.org/2000/svg" viewBox="0 0 1224.24 388.29"><defs><style>.cls-1{fill:#fff;}</style></defs><g id="Layer_2" data-name="Layer 2"><g id="Layer_1-2" data-name="Layer 1"><polygon class="cls-1" points="642.71 59.3 889.44 328.02 890.34 328.99 915.53 328.99 668.46 59.3 642.71 59.3"/><polygon class="cls-1" points="174.28 37.1 174.32 30.91 174.31 30.92 174.43 0.15 0 191.52 13.25 206.57 13.24 206.57 172.79 388.29 172.91 356.86 173.08 320.19 58.09 189.19 173.37 62.65 174.15 61.79 174.27 39.03 174.88 37.75 174.28 37.1"/><polygon class="cls-1" points="1224.24 196.78 1211 181.73 1211 181.73 1051.45 0 1051.29 39.81 1051.29 39.81 1051.17 68.12 1166.16 199.11 1050.88 325.66 1050.1 326.52 1049.98 348.43 1049.97 348.44 1049.98 348.75 1049.97 349.23 1049.34 350.54 1049.96 351.22 1049.93 357.4 1049.94 357.38 1049.82 388.15 1224.24 196.78"/><path class="cls-1" d="M579,52.59A106.91,106.91,0,0,0,556.42,27a52.88,52.88,0,0,0-13.73-8.58,90.94,90.94,0,0,0-36.57-6.82c-2.07,0-4.21,0-6.37.15a51.92,51.92,0,0,0-26.84,9.12,90.18,90.18,0,0,1-11.5,6.86,15.82,15.82,0,0,1-6.68,2,8.35,8.35,0,0,1-3-.54.94.94,0,0,0,.19,1l.11.16a13.88,13.88,0,0,0,11.11,7,63,63,0,0,0,7.39.43,92.21,92.21,0,0,0,17.38-1.83,76.47,76.47,0,0,1,14.3-1.75,32.83,32.83,0,0,1,7,.7A52.47,52.47,0,0,1,545.58,61.7a63.94,63.94,0,0,1,7.09,34.45,42.63,42.63,0,0,1-7.53,23.33,18,18,0,0,1-14.56,7.88,17.09,17.09,0,0,1-10.9-4.09,105.49,105.49,0,0,1-18.12-19.69c-.72-1-1.45-2-2.16-3l0,0a291.14,291.14,0,0,0-20.92-26.31A47.1,47.1,0,0,0,442.32,58.7h-.75c-7.38.08-14,2.73-21.5,8.6-1.31,1-2.65,2.13-4.35,3.65l.08.09,0,0a.62.62,0,0,0,.14.14c.52.14,1.16.32,2,.58a7.22,7.22,0,0,1,1,.35A50.81,50.81,0,0,1,442.36,87.6l.09.1A13,13,0,0,1,441.8,106l-1.31,1.23-.05,0c-1.52,1.43-3.09,2.91-4.77,4.22a47.18,47.18,0,0,0-4.34,3.78,4.38,4.38,0,0,0-1.55,3.22,4.59,4.59,0,0,0,2,3.12,21.83,21.83,0,0,0,2.68,1.88,4,4,0,0,1,1.95,3.67,7.81,7.81,0,0,1-2,5.9,8.57,8.57,0,0,1-6.3,2.28,13.94,13.94,0,0,1-1.83-.12,6.39,6.39,0,0,1-4.47-2.21c.52-.14,1-.25,1.44-.35h0a17,17,0,0,0,2.53-.72,3.48,3.48,0,0,0,2.26-2.46,3.64,3.64,0,0,0-1.12-3.27,9.9,9.9,0,0,0-2.65-1.88,40.51,40.51,0,0,0-7.33-2.7h0l-.37-.11-.19-.06-.9-.27c-9.68-2.87-14.7-7.92-15.81-15.9-.16-1-.54-1.14-1.3-1.14h-.36a36.26,36.26,0,0,0-14.64,4.59,26.26,26.26,0,0,1-12,3.21,19.17,19.17,0,0,1-4.71-.58,38.2,38.2,0,0,0-9-1.09A44,44,0,0,0,346,112c-1.56.42-3.14.89-4.65,1.35l-.3.09-.06,0a53.91,53.91,0,0,1-15.64,3.1l-1,0h-.15a9.45,9.45,0,0,0-2.12.32h0l-.16,0a51.7,51.7,0,0,0-13.23,5.63h0l-.22.12-1.19.65A57.45,57.45,0,0,0,282.75,148a179.71,179.71,0,0,0-10.21,22.59l-.19.56-.43,1.18,0,.1,0,.09c-1,2.81-2,5.69-2.94,8.58a47.53,47.53,0,0,0-2.54,19.36,1.94,1.94,0,0,1,0,.59,8.45,8.45,0,0,1-2.89,6.07,13.91,13.91,0,0,0-4.73,7.88c-.56,2.23-1.1,4.58-1.58,6.65l0,.07-.14.6-.15.67a4.38,4.38,0,0,1-2.36,3.35,23,23,0,0,0-6.38,4.55l-.22.2c-.53.47-1.06,1-1.6,1.41a9.43,9.43,0,0,0-3.15,8.66l.33-.19a35.64,35.64,0,0,1,7.9-3.72l.21-.06a13.21,13.21,0,0,1,3.48-.65,5.14,5.14,0,0,1,2.28.51,5.06,5.06,0,0,0,2.29.56,5.65,5.65,0,0,0,3.28-1.15l.22-.15h0a20,20,0,0,0,3.33-2.68,22.48,22.48,0,0,1,12.89-6.59,72.61,72.61,0,0,0,17.56-5.16,75.89,75.89,0,0,0,27.3-21.47A80.65,80.65,0,0,0,338.88,169c.57-2.5,1-5.08,1.45-7.59l0-.19v-.1c.19-1.13.4-2.34.62-3.52a18.59,18.59,0,0,1,.53,4,94.07,94.07,0,0,1-2,18v.06l-.06.36a48.87,48.87,0,0,0,.17,21.09,48.26,48.26,0,0,0,3.51,8.48l0,.09c.5,1,1,2.08,1.52,3.15a.2.2,0,0,1,0,.07l0-.07-.45.52v0h0c-5.17-5.38-7.54-12.27-10.06-19.58l0-.08a72.46,72.46,0,0,1-20.21,23.45,1.57,1.57,0,0,0-.76,1.23,36.63,36.63,0,0,0,.75,13.91,26.64,26.64,0,0,1,.7,12.1,11.3,11.3,0,0,0-.23,2.66c.16,1.83.36,4.13,2.74,4.78a4.92,4.92,0,0,1,3.68,5.52v3.37c0,1.48,0,3,0,4.5.12,4.31,1.4,5.63,5.41,5.63h.59a5.16,5.16,0,0,1,4.36,2.3,8.08,8.08,0,0,1,2,5.39c-.09,2.28.77,3.22,3.18,3.45.53,0,1.1.08,1.6.11h.16c.46,0,1.08.06,1.66.11a5.07,5.07,0,0,1,3.61,1.84,5.39,5.39,0,0,1,.69,4.23,7.84,7.84,0,0,1-2.15,3.66l-.55.66a7.41,7.41,0,0,0-1.92,5.89,7.13,7.13,0,0,0,3.57,4.87,15.61,15.61,0,0,0,7.71,2.68c4.6.05,8.21,2.18,11.7,6.91a11.18,11.18,0,0,1,2.63,6.45,18,18,0,0,1-3,9.33l-.06.07a5.48,5.48,0,0,0,.87,7.7,27.09,27.09,0,0,0,5.87,4.46l.45.27.05,0,.31.2a22.82,22.82,0,0,0-.64-4.73v0l0-.13c-.13-.62-.27-1.33-.38-2-.66-4.29.54-6.95,3.75-8.37a23.51,23.51,0,0,0,9.74-7.77.3.3,0,0,1,.18,0h.27a40.61,40.61,0,0,1-.41,9.28,4.34,4.34,0,0,0,.53,3.42,4.61,4.61,0,0,0,3.27,1.54,8.06,8.06,0,0,0,1,.06,10.08,10.08,0,0,0,4-1c.23-.09.45-.2.66-.3h0a4.6,4.6,0,0,1,2.17-.64h.08l-.11.17,0,.05-.15.23v0h0a10.48,10.48,0,0,1-.85,1.21A11.1,11.1,0,0,0,389.8,341a13.71,13.71,0,0,0,5,9.26c.47.37,1,.8,1.39,1.14l.06.05,0,0a15,15,0,0,0,5.28,3.33c4.94,1.36,5.1,4.53,4.79,8.55-.52,6.83,2.64,12,9.38,15.3l.05,0-.24-.4-.1-.18c-.84-1.48-1.64-2.88-2.37-4.28A9.17,9.17,0,0,1,412,368a11.5,11.5,0,0,1,5.89-8.11c1.68-1,3.46-2,5-2.75h0l.08,0,.09-.05c1.71-.89,3.48-1.81,5.17-2.84,6.09-3.7,8.92-8.08,8.9-13.76,0-.12,0-.24,0-.36.33-1-.17-2.19.57-3.13h.07a22.28,22.28,0,0,1-1.49,18,16.53,16.53,0,0,0,8.26-8.24,4.88,4.88,0,0,1,.55,2.68,5.52,5.52,0,0,0,.34,2.17l1.7-1.48.3-.27.12-.1c1.51-1.32,3.22-2.82,4.86-4.34a7.35,7.35,0,0,0,2.21-6.65,11.33,11.33,0,0,0-2.3-6,10.77,10.77,0,0,1-2.81-11.24,1.37,1.37,0,0,0,.09-1.05.8.8,0,0,0-.52-.37l-.44-.13a22.82,22.82,0,0,0-6.39-1.28,8.86,8.86,0,0,0-5.13,1.58,11.94,11.94,0,0,1-1.19.7c-.24.12-.61.31-1,.53a8.37,8.37,0,0,1-4.29,1.34,7.4,7.4,0,0,1-4.88-2,10.77,10.77,0,0,0-5.9-2.44,17.24,17.24,0,0,0-1.77-.17h0a11.22,11.22,0,0,1-3.4-.57A13.33,13.33,0,0,1,420.3,315h0a142.89,142.89,0,0,1,17.53-3.32h0l.75-.11,1.65-.24a161.53,161.53,0,0,1,23.33-2.27,69,69,0,0,1,8.5.5,16.53,16.53,0,0,0,1.72.1c.59,0,1.24,0,1.93-.1a3.11,3.11,0,0,0,2.86-2.14,26.09,26.09,0,0,0,.9-16.35,1.88,1.88,0,0,0-2-1.72c-1.44-.12-2.87-.28-4.21-.45l-.37,0-1.9-.22a89.49,89.49,0,0,0-9.41-.55A55.58,55.58,0,0,0,446.9,290a60.29,60.29,0,0,1-16.4,2.5,44.89,44.89,0,0,1-5.91-.39c-9.94-1.37-16.93-5.19-22-12.06a98.05,98.05,0,0,1-9.21-14.52c-.64-1.27-1.27-2.56-1.88-3.81l0-.05-.06-.13c-1.77-3.63-3.59-7.39-5.61-11a11.53,11.53,0,0,0-8.49-6.48l0-.05c1.34-.82,2.81-.25,4.22-.34.13,0,.26,0,.4,0a6.53,6.53,0,0,1,3.81,2.41,35.09,35.09,0,0,1,4.21,6.13c1.19,2.07,2.36,4.13,3.75,6.59.44-1.26.78-2.56,1.11-3.81l0-.07c1.06-4.09,2.06-7.95,6-10.47a1.67,1.67,0,0,1,.05.18l0,.08a.41.41,0,0,1,.06.27,31.87,31.87,0,0,0-5.33,15.52v0l0,.12a2.06,2.06,0,0,0,.16,1.54l.19.31.05.09c.35.57.69,1.13,1,1.7l.26.41A83.64,83.64,0,0,0,407.8,279.6a21.06,21.06,0,0,0,10.48,6.3A58,58,0,0,0,432,287.62h0a50.83,50.83,0,0,0,14.24-2,90.55,90.55,0,0,1,25.32-4,67.65,67.65,0,0,1,8.54.54,17.29,17.29,0,0,0,1.9.11,18.13,18.13,0,0,0,8.6-2.33,5.77,5.77,0,0,0,3.38-4.87,5.54,5.54,0,0,0-3.17-4.82,17.41,17.41,0,0,1-6.94-6.65,1.64,1.64,0,0,0-1.55-1,4.22,4.22,0,0,0-.61.07,62.62,62.62,0,0,1-11.17,1.4,7.24,7.24,0,0,1-1.67.18h-.13a7.84,7.84,0,0,0,1.73-.24c-1-.38-2.07.25-3-.31l1.1-.38.64-.22c1.34-.46,2.64-.91,4-1.39a60.26,60.26,0,0,0,26.22-17.29,14.18,14.18,0,0,0,3.56-6.25,34.61,34.61,0,0,0-.24-16.68,7.62,7.62,0,0,0-7.39-5.95,8.54,8.54,0,0,0-3.16.61,15.83,15.83,0,0,1-5.84,1.24,11.81,11.81,0,0,1-8.17-3.37,37.34,37.34,0,0,1-3.41-3.48,30,30,0,0,1-5.07-7.53c-.61-1.27-1.18-2.56-1.77-3.87l0-.07c-1.12-2.5-2.39-5.34-3.82-8a205.25,205.25,0,0,0-16.66-24.72v0c-.74-1-1.47-2-2.21-3l-.2-.26a10.78,10.78,0,0,1-1.84-3.92A48.87,48.87,0,0,1,441.8,144a27.87,27.87,0,0,1,3.71-13,9.84,9.84,0,0,1,7.69-5,4.87,4.87,0,0,1,.66,0,4.38,4.38,0,0,1,4.22,2.63c.58,1.55-.1,3-2.07,4.47a10.49,10.49,0,0,0-4,6.27h1c.5,0,.93,0,1.31,0,3,0,6.12.32,7.7,4.11a8.31,8.31,0,0,0-5.93-2.27,16.14,16.14,0,0,0-2.95.31,2.1,2.1,0,0,0-1.92,1.91l-.06.27c-.46,2.13-.92,4.33-3.36,5.31a1.67,1.67,0,0,0-.79,1.26,13.42,13.42,0,0,0-.12,6.3A31.56,31.56,0,0,1,461.14,153a31.19,31.19,0,0,1,3.35.18h.4a.92.92,0,0,0,.8-.37c.29-.38.58-.77.88-1.15v0a11.06,11.06,0,0,0,3.27-7.79c-.08-.95-.09-1.88-.09-2.9v-.11c0-.65,0-1.41,0-2.14a14.6,14.6,0,0,0-5.36-10.62l-.16-.14c-.61-.54-1.33-1.16-2.06-1.72a10.54,10.54,0,0,1-3.91-7l0-.12v-.23a.93.93,0,0,1,0-.23l-.08-.49-.06-.34,0-.26v0c-.26-1.59-.56-3.38-1-5.07-.87-3.52-.94-3.53-4.46-3.88l-.3,0c-2.47-.24-5-.27-7.56-.3h-.27l-2.4,0h-.07l.68-.74.07-.08.13-.14.29-.31.08-.09c.61-.67,1.12-1.22,1.61-1.79a9.9,9.9,0,0,0,2.38-4.73,15.49,15.49,0,0,0-4.11-14.29,54.41,54.41,0,0,0-11.75-9.75l-.43-.25h0a17.72,17.72,0,0,1-3.68-2.59l2-.8.13-.05.3-.12c.94-.37,1.95-.76,3-1.19A28.88,28.88,0,0,1,443.78,69a30,30,0,0,1,11.33,2.31A69.28,69.28,0,0,1,485,94.24l1.3,1.75v0a229.81,229.81,0,0,0,19.63,24.16l.16.18a33.45,33.45,0,0,0,10.59,8.3,33.13,33.13,0,0,1,14.27,10.48c.28.37.52.54.75.54s.48-.18.82-.6c.61-.8,1.27-1.59,1.8-2.26l.09-.1,0,0c.53-.65,1.34-1.62,2-2.56a2.1,2.1,0,0,1,1.8-1,2.42,2.42,0,0,1,.47,0c1,.14,1.94.26,2.88.37h.07c.9.12,2,.23,3,.39a4.48,4.48,0,0,0,.64.05c.83,0,1.21-.41,1.34-1.48.16-1.38.44-2.77.7-4l0-.16c.2-1,.43-2.12.58-3.21a1.58,1.58,0,0,1,1.4-1.49l1.55-.44.16,0,.11,0,.09,0h0c1.23-.35,2.51-.71,3.77-1s1.4-.63,1.26-1.81-.3-2.59-.42-3.86v-.12c-.14-1.61-.32-3.43-.59-5.15a4.17,4.17,0,0,1,2.18-4.82c1.76-1.12,2.76-1.79,2.95-2.63s-.31-1.68-1.52-3.56a7.26,7.26,0,0,1-.12-9.3,6.63,6.63,0,0,0-.29-9.19,11.81,11.81,0,0,1-1.81-12.77,1.89,1.89,0,0,0,.11-.47v0a1.57,1.57,0,0,1,.09-.43c0-.09.09-.18.13-.27A2.83,2.83,0,0,0,555.55,64,9.7,9.7,0,0,1,550.1,53.8c.5-3.82-1.18-5.95-5.29-6.68a8.32,8.32,0,0,1-6.59-6.43c-1.37-4-1.77-4.88-4.73-4.88-.57,0-1.25,0-2.26.1-.45,0-.86,0-1.25,0a7.63,7.63,0,0,1-7.71-4.62,4,4,0,0,0-4.21-2.39c-.31,0-.61,0-.92,0l-.71.05h-.16c-1.45.1-2.95.2-4.43.2a14.54,14.54,0,0,1-10.6-3.65,1,1,0,0,0-.65-.31,1.58,1.58,0,0,0-.84.38l-1.4.92-.27.18c-.86.57-1.93,1.27-2.93,2a2.1,2.1,0,0,1-1.25.48,2.27,2.27,0,0,1-1.16-.37c-.81-.46-1.67-.89-2.47-1.31l-.09-.05-.19-.09-.14-.07c-.7-.37-1.67-.85-2.54-1.34a2.92,2.92,0,0,0-1.49-.45,3.35,3.35,0,0,0-1.17.24c-3.49,1.37-6.95,2.68-11.4,4.35l-.91.35-.07,0,0,0-.07,0a1.77,1.77,0,0,1-.67.19.83.83,0,0,1-.48-.15L472.85,29l.27-.24h0c2-1.71,4-3.47,6-5.23a5.56,5.56,0,0,1,3-1.46c1-.16,2-.29,2.87-.4h.07l.34,0a37,37,0,0,0,8-1.61,15.17,15.17,0,0,1,5.33-1,16.88,16.88,0,0,1,6.81,1.54,13.75,13.75,0,0,0,5.56,1.39,8.61,8.61,0,0,0,3.63-.8,9.6,9.6,0,0,1,4.11-1,10.61,10.61,0,0,1,6.45,2.5,10.83,10.83,0,0,0,6.56,2.65,9,9,0,0,0,1.72-.17l.35-.07.2,0,.16,0a16.64,16.64,0,0,1,3.13-.45,3.72,3.72,0,0,1,2.11.54,9.68,9.68,0,0,1,2.72,4.29l0,0c.11.3.23.56.35.83a5.09,5.09,0,0,0,4.9,3.73c.16,0,.37,0,.59,0a3.1,3.1,0,0,1,.41,0,9.44,9.44,0,0,1,1.5.17h.07a8.58,8.58,0,0,0,1.43.16,4.21,4.21,0,0,1,4.32,2.89,28.2,28.2,0,0,0,1.66,3.18v0c.42.72.9,1.55,1.3,2.35a4.54,4.54,0,0,0,2.65,2.57,7.13,7.13,0,0,1,5.31,7.84,12.36,12.36,0,0,0,5.55,11.59c.82.54.85,1.22.63,2.16-.29,1.19-.58,2.44-.83,3.54l-.1.46,0,.07,0,.2c-.27,1.22-.55,2.49-.87,3.75a3,3,0,0,0,.73,2.95c.82,1,1.61,2,2.36,3h0l.16.22c.62.78,1.37,1.75,2.12,2.64l.1.09a1.55,1.55,0,0,1,0,2.21c-.72,1-1.43,2-2.06,2.93l0,.06-.09.13c-.7,1-1.49,2.19-2.33,3.3s-.53,1.58.35,2.27c1.25,1,2.44,2,3.69,3.09l0,0,.74.63.9.77-2.12,1.89-.16.15-.05,0-.13.12c-1.49,1.35-3,2.76-4.69,4.07-.56.45-.81.8-.83,1.15s.31.81.8,1.3c1.52,1.5,3,3,4.27,4.37l.08.08c1,1.06,2,2.06,2.94,3.07L572.92,117l-.17.06c-1.69.54-3.36,1.09-5.11,1.67l4,5.7.28.42,2.33,3.34-1.87.33-.12,0c-1.64.3-3,.54-4.45.72-.79.1-1.29.22-1.46.55s0,.75.38,1.47c1.11,1.9,2.1,3.81,3.15,5.84l.12.22.14.27c.51,1,.92,1.8,1.26,2.44H562l.67,1.12.32.54.51.83.13.21c.87,1.45,1.9,3.15,3,5-3.89-.47-7.26-.85-9.76-1.13l-.54-.06.12.54.31,1.38.26,1.24v0c.64,2.88,1.18,5.3,1.75,7.94-1.27-1.1-2.56-2.2-3.68-3.18l-.29-.26-.83-.72-.45-.39-1.07-.93L551,150.94c-.44,2.15-.87,4.29-1.25,6.18l-.2,1-.19.9-.3,1.55-.06.27c-.22,1.11-.47,2.35-.72,3.57l-.27-.49c-.4-.72-.8-1.43-1.19-2.15l-.14-.27c-1.47-2.64-2.6-4.66-3.78-6.75-1.24,5.16-2.09,8.66-2.92,12.08-1.79-2.37-3.4-4.53-5-6.72l-.11-.13-1.48-2v12.42l-4.55-7-.1-.14-.16-.27-.48-.73,0,0-1.26-1.93a8.64,8.64,0,0,0,.1,3c.07.47.15.93.22,1.39l.1.59a43.21,43.21,0,0,0,2.47,10.16c.32.74.65,1.39,1,2a2.07,2.07,0,0,0,2,1.38,3.64,3.64,0,0,0,.57,0,50.21,50.21,0,0,0,28.79-13c10.71-9.93,17.41-22.5,22-32.33a49.32,49.32,0,0,0,4.23-14.27,143.6,143.6,0,0,0,.8-35A73,73,0,0,0,579,52.59ZM392,178.2a45.84,45.84,0,0,1-5,.27,29.3,29.3,0,0,1-21.91-8.76c-2.77-2.8-2.47-6.18-2.2-9.44,0-.39.06-.77.09-1.2s.4-.6.74-.77l.07,0a1.69,1.69,0,0,0,.29-.17,16.63,16.63,0,0,1,7.71-2.23h0l.34,0,.31,0a3,3,0,0,1,.5-.06h.08a7.39,7.39,0,0,0,1.49-.27,28.89,28.89,0,0,1,8.9-1.34h0a35.8,35.8,0,0,1,3.59.16,5.57,5.57,0,0,0,.78,0,16.82,16.82,0,0,0,4.1-.68h0l.37-.09.1,0c.48-.11.9-.22.81-.91s-.16-1.55-.22-2.4v-.08a19.33,19.33,0,0,0-.76-4.9,4.47,4.47,0,0,0-4.91-3.65c-.4,0-.81,0-1.19,0a39.09,39.09,0,0,0-16.38,3.88c-.53.25-1.09.46-1.62.67h0l-.14.06-.07,0c-.31.11-.64.25-1,.38h0l-.4-.37s0,0,0-.05a35.19,35.19,0,0,1,21.13-7.28H388a6.47,6.47,0,0,1,6.16,3.61,27.06,27.06,0,0,1,2.88,10.22,6.16,6.16,0,0,0,1.37,3.26,8.18,8.18,0,0,1,1.87,4.32s0,0,0,0h0l-.34.36h0a3.51,3.51,0,0,0-3.28-1.91c-.44,0-.83,0-1.17,0a35,35,0,0,0-5.11.53l-.64.1A7.73,7.73,0,0,1,393,165.7a6.74,6.74,0,0,1-1.44,4.25,8.8,8.8,0,0,1-6.87,2.93,9.94,9.94,0,0,1-3.53-.65,7.61,7.61,0,0,1-4.37-7.95c.11-.85.05-1.35-.22-1.63a1.38,1.38,0,0,0-1.14-.36,6.13,6.13,0,0,0-.63,0,11.31,11.31,0,0,0-6.93,2.83c-.73.66-.79,1-.25,1.82A21.1,21.1,0,0,0,382.48,176a31.68,31.68,0,0,0,5.58.54,20.42,20.42,0,0,0,3.75-.32,10,10,0,0,0,7.72-5.87l.37.8s0,0,0,0l0,0A8.81,8.81,0,0,1,392,178.2Zm38.77,53.86a6.5,6.5,0,0,0-2.7-.72h0a4.42,4.42,0,0,0-1,.15c.09.22.19.43.29.65a5.4,5.4,0,0,1,.5,1.28,3.74,3.74,0,0,1-2.84,4.36,6.28,6.28,0,0,1-1.73.24,7.31,7.31,0,0,1-5.63-2.84,6.93,6.93,0,0,1-1.39-5.9,4.58,4.58,0,0,1,3.72-3.65,21.68,21.68,0,0,1,4.75-.53,16.45,16.45,0,0,1,12.14,5.19,25.22,25.22,0,0,1,7.57,17.84,3.11,3.11,0,0,0,.09.6,2.45,2.45,0,0,1,.09.53c-.06-.38-.1-.76-.19-1.13-.33.63.19,1.42-.39,2A29.77,29.77,0,0,0,437.29,237,20.75,20.75,0,0,0,430.77,232.06Zm15.71-17.13a67.15,67.15,0,0,1,9.57,6.67c.9.76,1.78,1.61,2.62,2.44,2.85,2.79,5.8,5.68,10.51,5.68a7.45,7.45,0,0,1-3.3.78,9,9,0,0,1-4.84-1.59l-.31-.17h0a2.13,2.13,0,0,1-.49-.31,84.32,84.32,0,0,0-13.57-9.2l0,0a107,107,0,0,1-10.6-6.79,22.81,22.81,0,0,0-14.34-4.51,38.49,38.49,0,0,0-4.56.27,15.8,15.8,0,0,0-11.46,5.35,8.43,8.43,0,0,0-1.8,7.77,10,10,0,0,1,9.41-6.54,15.39,15.39,0,0,1,2.95.31,7.79,7.79,0,0,1,6,5.7,10.77,10.77,0,0,0-5.74-2.63c-.24,0-.47,0-.69,0a6.54,6.54,0,0,0-.77,0,6.22,6.22,0,0,0-5.93,6.49,11.1,11.1,0,0,1-.23,1.72c-.43,2-.6,2.8-1.3,2.8A7.4,7.4,0,0,1,405,228a10.69,10.69,0,0,0,.57,5.57c.15.5.29,1,.41,1.54a18,18,0,0,1-7.16-16.49,14.16,14.16,0,0,1,8.64-11.76A33.38,33.38,0,0,1,421,203.8h0a29.89,29.89,0,0,1,17.17,5.7C440.82,211.34,443.58,213.24,446.48,214.93Z"/><path class="cls-1" d="M263.23,183.63l.7-3.15,3.58-16a.82.82,0,0,1-.2-.12c-2.57,3.64-5.1,7.26-7.9,11.26v-13.1c-2.6,3.24-5,6.16-7.53,9.28-1.14-4.29-2.18-8.31-3.35-12.72-2.11,3.47-4,6.65-6.17,10.15-1.07-4.93-2.07-9.45-3.09-14.18-3,2.39-5.77,4.58-8.89,7.06.87-3.7,1.49-6.82,2.39-9.86.49-1.74,0-1.87-1.52-1.66-3.18.44-6.38.73-9.88,1.13,1.85-2.85,3.52-5.36,5.36-8.16H216.07c1.8-3.18,3.47-6.18,5.25-9.13.76-1.26,1-1.9-.9-2-2.51-.24-5-.79-7.68-1.23,2.34-3.07,4.47-5.92,6.68-8.7.82-1,.7-1.36-.55-1.72-3.36-.9-6.65-2-9.6-2.82,2.83-3.24,5.69-6.5,8.58-9.83-2.34-1.93-5-4.23-7.79-6.33-1.37-1-1-1.46.08-2.25,1.66-1.17,3.21-2.54,4.88-3.7,1-.7,1.19-1.23.35-2.22-1.26-1.44-2.34-3-3.47-4.56-.88-1.19-2.39-2.38-2.36-3.56s1.68-2.24,2.62-3.38c1.45-1.78,3.62-3.33,4.2-5.34A11,11,0,0,0,215,70.09a5.12,5.12,0,0,1-.27-.52A5.72,5.72,0,0,1,217.61,62a17.86,17.86,0,0,0,1.75-1.49,2.46,2.46,0,0,0,1-1.92c.46-3.47,1.05-7,1.46-10.42a2.35,2.35,0,0,1,1.66-2.28,14.72,14.72,0,0,0,9.13-8.54c.06-.12.15-.2.21-.32a7.14,7.14,0,0,1,7.55-4.88c6.24-.2,6.21-.43,9.42-5.71a8.86,8.86,0,0,0,.79-1.32c.91-2.53,2.62-3.09,5.19-2.62a16.87,16.87,0,0,0,14.09-3,9.38,9.38,0,0,1,9.8-1.25A15,15,0,0,0,291.2,18c1.69-.73,3.56-1,5.28-1.66a5.89,5.89,0,0,1,3.71-.12,56.37,56.37,0,0,0,11.43,2.3,22.15,22.15,0,0,1,15.52,7.06c.93.94,2.19,1.49,3,2.65-.84.5-1.48-.05-2.09-.29-4-1.34-8-2.65-11.87-4.17a5.27,5.27,0,0,0-5,.33c-2.13,1.16-4.41,3-6.54,2.88s-4.16-2.21-6.27-3.44c-.08-.06-.23-.12-.31-.17-.76-.73-1.41-.47-2.19,0-1.52,1-2.8,2.62-4.7,2.82a36.6,36.6,0,0,1-10.65.71,8.23,8.23,0,0,0-10,4.31,18.91,18.91,0,0,1-1.2,1.48A2.53,2.53,0,0,1,266.74,34c-3.13,0-6.27.12-9.4.12a1.69,1.69,0,0,0-1.84,1.22c-1,2.48-2.2,4.87-3.21,7.35a3,3,0,0,1-2,1.81c-2.8.94-5.54,1.92-8.31,2.86a1.56,1.56,0,0,0-1.31,1.58c-.18,2.94-.56,5.86-.73,8.78a2.82,2.82,0,0,1-1.31,2.36c-1.84,1.36-3.58,2.86-5.46,4.2a2,2,0,0,0-.9,2.41c.78,3.06,2.44,6.33,1.95,9.25a21.39,21.39,0,0,1-4.82,8.34,4.37,4.37,0,0,0-.08,5.63,14.57,14.57,0,0,1,3.32,6.73c0,2.24-2.19,4.46-3.44,6.68a5.12,5.12,0,0,1-.47.82c-.82,1-.73,1.66.49,2.33,1.46.78,2.75,1.86,4.18,2.68a2,2,0,0,1,1.13,2.3c-.43,3.8-.76,7.61-1.25,11.41-.15,1.22.29,1.57,1.31,1.8,2.1.47,4.18,1.17,6.3,1.52,1.43.23,1.87,1,2.07,2.25.41,2.45,1.05,4.84,1.43,7.32.18,1.1.47,1.52,1.66,1.31,2.28-.32,4.58-.44,6.86-.76a3.08,3.08,0,0,1,3.29,1.22c1.14,1.55,2.6,2.84,3.74,4.38,1,1.37,1.72,1.4,2.86.09a41.77,41.77,0,0,1,13.54-10.06,70.7,70.7,0,0,0,18.78-13.74c5.15-5.11,9.89-10.53,14.52-16.08,6.48-7.76,12.92-15.54,21.36-21.35,11.48-7.93,23.77-13.3,38.26-11.73a33.68,33.68,0,0,1,20.48,8.9c2.94,2.83,5.95,5.63,8.86,8.48,1,1,1.67,1.38,2.37-.22.26-.59.59-1.32,1.51-1.32a3.09,3.09,0,0,1,0,1,39,39,0,0,0,.07,19.14,13.77,13.77,0,0,0,6,9.6A34.07,34.07,0,0,0,418.72,119a21.29,21.29,0,0,1,9.59,5.27,5.25,5.25,0,0,1,.68,8.08h0c-.32.17-.81.55-.61.7a1.13,1.13,0,0,0,1.45-.21h0a4.91,4.91,0,0,0,3.67-4.4,3.92,3.92,0,0,0-2.77-4.32,6.56,6.56,0,0,1-.82-11.44,58.76,58.76,0,0,0,5.95-4.46c3.56-3.18,6.22-6.82,5.06-12a16.92,16.92,0,0,0-5.46-8.58,55.08,55.08,0,0,0-14.84-9.27c-.9-.44-1.82-.85-2.75-1.23a14.67,14.67,0,0,0-3-.69c-.44-.21-.47,0-.41.34,1,.65,2,1.29,3,2,.44.26.85.55,1.26.85,5.1,3.78,8,8.71,6.77,15.19-.7,3.79-.26,6.74,3.38,8.78a2.23,2.23,0,0,1,.58,3.62,5.15,5.15,0,0,0-2.89-3.56c-4-2-4.72-3.35-4.25-7.88a10,10,0,0,0-.36-5.68,21.94,21.94,0,0,0-5.39-7.2,11,11,0,0,0-11.05-2,1.53,1.53,0,0,1-2-.55A61.18,61.18,0,0,0,395,71.8a50.46,50.46,0,0,0-23.13-12.08,66,66,0,0,0-18.56-.55,40.48,40.48,0,0,0-20.64,6.73,90,90,0,0,0-17.19,16.35c-9.95,11.23-19.81,22.57-29.67,33.89A45.74,45.74,0,0,1,272.55,127a19.33,19.33,0,0,1-20.36-.33,32.84,32.84,0,0,1-13.07-15.86,49.18,49.18,0,0,1-1.92-25A60,60,0,0,1,255,50c15.64-15.22,35-19.89,56.38-16.63,7.11,1.09,14.11,3,21.44,2.45a35.54,35.54,0,0,0,14.09-3.14,13.28,13.28,0,0,0,6.69-7.12,18,18,0,0,1-16.71-1.17c-4.08-2.2-8.05-4.67-12.07-7a46.28,46.28,0,0,0-14.3-5.71,137.66,137.66,0,0,0-28.81-1.9A88.11,88.11,0,0,0,236.19,22.3a82.65,82.65,0,0,0-38.62,49.88c-4.75,16.63-3.38,33.57,0,50.28,3.09,15.26,10.94,28.16,21,39.85a64.22,64.22,0,0,0,43.26,22C262.53,184.42,263,184.51,263.23,183.63Z"/><path class="cls-1" d="M530.45,192.31a26.65,26.65,0,0,1-.58-4.17,12.07,12.07,0,0,0-3.28-8,38.71,38.71,0,0,1-3-3.24,129.07,129.07,0,0,1-8-11.14A37.66,37.66,0,0,1,509.65,153,43.33,43.33,0,0,0,501,135.11c-1.34-1.62-2.52-3.4-3.74-5.09a39.84,39.84,0,0,0-16.86-14.33,36.36,36.36,0,0,0-6.16-1.83c-1.9-.43-3.79-.82-5.63-1.37a5.55,5.55,0,0,0-6.85,7.08v0a9.22,9.22,0,0,0,2.39,4.06c1.55,1.46,3,3,4.47,4.49a12.93,12.93,0,0,1,3.61,7.24,55.58,55.58,0,0,1,.44,9.56,10.32,10.32,0,0,1-3.38,7.27c-.59.52-1.38.93-1.52,1.84,4.08,1.95,6.85,4.75,6.53,9.62-.06.7.44,1.72-.44,2a2.66,2.66,0,0,1-2.59-.9,10.12,10.12,0,0,1-1.11-1.57,3,3,0,0,0-1.7-1.46c-.66-.17-1.5-.47-2-.2s0,1.14.09,1.71a6.7,6.7,0,0,1-7.52,8.61c-1-.06-1.93-.24-3.15-.38a11.68,11.68,0,0,1,1,1.76c.61,1.74,1.86,1.77,3.47,1.63a13.56,13.56,0,0,0,6.68-2.57,13.27,13.27,0,0,1,7.77-2,32.1,32.1,0,0,1-3.06,2.89c-1.17.88-1.08,1.75-.62,2.95a58.93,58.93,0,0,1,2.15,6.33,5.1,5.1,0,0,0,2.71,3.44c.14.09.32.15.49.24a55.4,55.4,0,0,1,10.91,6.68,40.86,40.86,0,0,0,15.7,7.23,26,26,0,0,1,7.28,2.77,16.7,16.7,0,0,0,6,2.39,82.62,82.62,0,0,0,16.11.38,12.47,12.47,0,0,0,5.57-1.84,6.1,6.1,0,0,0,3.15-4.28C535.09,199.59,531.69,197.29,530.45,192.31Z"/><path class="cls-1" d="M448.88,161.66c1,1.49,2,3.06,3,4.61a11.89,11.89,0,0,1,2.63-7,12,12,0,0,0-5.19.9C448.7,160.59,448.32,160.88,448.88,161.66Z"/><path class="cls-1" d="M474.19,195.66c-2.1-6.33-3.88-12.78-5.83-19.28a14.71,14.71,0,0,1-3.12,2c-1.17.31-2.34.62-3.53.85-.93.18-1,.49-.5,1.25a196.91,196.91,0,0,1,13.28,22.78c0-.24,0-.44.05-.68a23.17,23.17,0,0,0,.09-4.71v0A9.31,9.31,0,0,0,474.19,195.66Z"/></g></g></svg>