<svg xmlns="http://www.w3.org/2000/svg" viewBox="0 0 298.3 298.27"><defs><style>.cls-1{fill:#fdffef;}</style></defs><g id="Layer_2" data-name="Layer 2"><g id="Layer_1-2" data-name="Layer 1"><g id="Group_3889" data-name="Group 3889"><path id="Path_2648" data-name="Path 2648" class="cls-1" d="M92.27,11.25l-.1,0-2.18,1-.5.23h0c-.73.33-1.46.67-2.18,1s-1.39.67-2.08,1l-.57.28h0l-1.49.75-.83.44-1.2.62-.93.5-1.08.58-.36.2h0l-1.62.9-.91.52-1,.6-.91.54-1,.6-.18.1h0l-.45.27h0l-.29.17-1,.59-.46.29-.3.18-.65.41c-.4.25-.8.5-1.19.76l-.4.25-.45.29-.06,0-.29.18,0,0-2.3,1.53-.63.43h0l-1.94,1.35-.39.27-.27.2-.15.1c-.13.1-.26.2-.4.29l-.39.29-1,.75-.55.41-.35.26-.45.34,0,0c-.17.12-.34.26-.51.39l-.42.31-.53.41-.9.72-.37.28-.4.32-.16.13-.3.24-.4.33c-.5.4-1,.8-1.47,1.21l-.2.16-.66.55q-1,.87-2.07,1.77a.46.46,0,0,0-.07.07l-.13.11,0,0-.35.32-.32.29-1.13,1-.54.5-.19.18-.34.3,0,0-.52.5c-.2.2-.41.38-.62.58l-.32.3-.8.78-.19.18-.37.36-.12.12-.29.28c-.14.15-.29.3-.44.44L42.09,45.4l-.57.59c-.41.42-.82.85-1.22,1.28l-.51.54-.28.3-.17.18c-.11.12-.22.23-.32.35l-.17.19c-.24.26-.49.52-.73.79l-.09.1c-.3.33-.59.67-.88,1l-.38.42,0,0c-.06.06-.11.13-.17.2l-.09.1-.5.58c-.38.44-.76.88-1.13,1.33l-.62.73-.18.22-.94,1.16-.21.26-.14.16c-.14.19-.29.37-.43.55l-.12.15-.37.47a1.83,1.83,0,0,1-.13.16l-.47.6-.37.48-.77,1-.22.29-.62.84-1,1.42-.43.6-.05.08-.12.16a0,0,0,0,1,0,0c-.11.16-.22.31-.32.47-.3.43-.61.86-.91,1.3l-.06.09c-.17.25-.33.5-.5.74l-.13.19-.27.41-.15.22-.26.39-.42.64-.9,1.4,0,.06c-.15.24-.3.48-.46.72-.34.54-.67,1.09-1,1.64v0c-.09.15-.19.3-.28.46l-.18.31-.08.12-.24.42-.15.24-.61,1-.3.53-.35.63-.29.49s0,0,0,0l-.18.32-.1.18c-.13.24-.26.48-.4.72l-.85,1.57c-.12.22-.24.44-.35.67-.39.73-.77,1.47-1.15,2.22l0,.07c-.08.17-.16.34-.25.51l0,.09-.27.55-.12.24-.39.79c-.11.23-.22.47-.34.7s-.26.56-.4.84l-.18.39c-.18.38-.36.77-.53,1.15-.27.59-.54,1.19-.8,1.79l-.24.54s0,0,0,0a.93.93,0,0,0-.05.1v0l-.18.41c-.25.59-.51,1.18-.75,1.77l-.24.57-.12.31a1,1,0,0,0-.07.15l-.19.48c-.05.11-.09.22-.13.33s-.15.36-.22.54-.21.53-.32.79-.31.8-.46,1.21a2.44,2.44,0,0,1-.1.24c-.12.33-.25.66-.37,1-.31.8-.6,1.61-.89,2.42a.08.08,0,0,1,0,0c0,.09-.06.18-.09.27a0,0,0,0,1,0,0c-.06.16-.11.32-.17.49a2.25,2.25,0,0,1-.08.24l-.48,1.38-.25.76c-.06.16-.1.31-.15.46l-.18.53h0c0,.15-.1.31-.14.46a2.81,2.81,0,0,0-.1.31v0c-.08.23-.15.47-.23.7l0,.1c-.19.58-.36,1.17-.54,1.75l0,.09-.21.69c-.25.84-.5,1.68-.73,2.53-.12.41-.23.81-.34,1.22,0,.1-.05.2-.08.31-.1.35-.19.7-.29,1s-.15.57-.22.85-.13.5-.19.74-.08.28-.11.42-.09.35-.13.52,0,.05,0,.07,0,.07,0,.1c-.07.27-.14.53-.2.8-.22.87-.42,1.74-.63,2.62s-.35,1.56-.51,2.34c0,.26-.1.52-.16.77-.1.53-.21,1.06-.31,1.58-.06.31-.11.61-.17.92-.09.48-.17,1-.26,1.45,0,.32-.1.65-.16,1l-.09.59c-.06.33-.11.66-.16,1s-.05.36-.08.54c-.11.73-.21,1.47-.31,2.2,0,.12,0,.24,0,.36-.08.64-.16,1.29-.23,1.93l-.06.56c-.08.74-.15,1.49-.22,2.23l0,.28c0,.67-.11,1.34-.16,2,0,.19,0,.38,0,.58,0,.74-.09,1.49-.13,2.25a1,1,0,0,1,0,.17q-.06,1.05-.09,2.1c0,.2,0,.39,0,.59,0,.75,0,1.51,0,2.27v0c0,.74,0,1.5,0,2.24v.59l0,2.16v.13c0,.76.05,1.52.08,2.28l0,.59c0,.19,0,.38,0,.57,0,.38,0,.77.06,1.15s0,.5,0,.75c0,.79.11,1.58.17,2.37s.15,1.79.24,2.69c0,.24,0,.48.07.72L1,164.81c0,.14,0,.28.05.42.1.88.21,1.75.32,2.62,0,.22.07.44.09.66l.3,2.12.09.6c.14.86.27,1.72.41,2.58,0,.17.06.35.1.53.12.71.24,1.42.37,2.12,0,.22.08.44.13.66.16.85.32,1.69.5,2.54l.06.3c.16.75.32,1.5.49,2.25l.15.68c.18.78.36,1.56.55,2.33l0,.19c.2.83.41,1.65.63,2.48.06.21.12.43.17.65L6,190.59c0,.15.08.31.13.46.23.81.47,1.62.71,2.42l.18.58c.2.65.4,1.3.62,1.95l.18.58c.26.79.53,1.58.8,2.37,0,.15.1.29.16.44.23.66.47,1.32.71,2,.07.21.15.42.23.62.29.79.59,1.57.89,2.34l.06.14c.28.74.58,1.47.88,2.2l.1.24.16.38c.28.68.57,1.35.86,2a2.08,2.08,0,0,0,.13.3c.33.76.67,1.51,1,2.26.09.2.19.39.28.59.28.61.57,1.23.87,1.84.07.16.15.32.23.48.36.73.72,1.47,1.1,2.2l.25.5c.31.6.62,1.19.94,1.78l.3.56c.39.73.78,1.45,1.18,2.17l.19.32c.35.62.71,1.24,1.07,1.86.11.2.22.39.34.58.41.7.82,1.4,1.25,2.09l0,0c.43.71.87,1.41,1.32,2.11l.36.56c.39.6.77,1.19,1.16,1.77.08.12.15.24.23.35.46.69.93,1.37,1.4,2l.36.51q.59.84,1.17,1.65l.34.47c.49.67,1,1.33,1.48,2,.1.14.21.27.32.41.41.55.83,1.09,1.26,1.64l.41.51c.51.66,1,1.31,1.57,2l.34.41c.33.4.66.8,1,1.19l.51.6.86,1,.57.65c.27.32.55.63.83,1l.59.65.85.93.6.65c.28.31.57.61.86.92l.6.63c.31.32.61.64.92.95l.57.59L43.39,254l.45.44q.77.77,1.53,1.5l.29.28,1.28,1.21.56.52,1,.95.64.58,1,.88.68.6,1,.85.7.6,1,.85.69.58,1.05.86.66.55,1.16.93.57.46,1.76,1.37c.61.47,1.21.93,1.83,1.39l.6.44,1.24.91.72.51,1.15.82.76.53,1.14.77.77.51,1.16.77.75.49,1.25.79.68.42,1.59,1,.35.21,2,1.15.58.32,1.4.8.75.41,1.24.67.81.43.87.45.35.18.82.42,1.23.62.82.4.07,0,1.23.59.75.36,1.53.7.54.24,2.08.91.48.2,1.61.67.77.31,1.35.54.85.33,1.3.49.87.32,1.3.47.87.3,1.35.46.83.28,1.51.49.68.21c.73.23,1.46.46,2.2.67l.26.08,2,.56.75.2,1.48.4.88.23,1.38.35.92.22,1.36.32.93.21,1.4.3.89.19,1.52.31.78.15,1.4.26,1,.18,1.46.25,1,.16,1.62.25.82.12,2.46.34,2.64.31.34,0,.78.07q5.81.6,11.53.73l.71,0,1.73,0h1l2.32,0H152c.8,0,1.58,0,2.37-.08l2.4-.11.63,0,2-.14.38,0,2.36-.2.58-.05,1.92-.19.55-.06,2.33-.27.47-.06,1.93-.26.61-.09,2.32-.35.22,0c.7-.12,1.41-.23,2.11-.36l.62-.11,2.09-.39.23-.05,2.28-.47.25-.05,1.91-.43.3-.07.34-.07,1.28-.32,1.26-.3c2.41-.61,4.8-1.27,7.17-2l.35-.1a148.8,148.8,0,0,0,92.15-81.83,147.31,147.31,0,0,0,8.2-23.44,144.21,144.21,0,0,0,4-23.06c.07-.81.14-1.62.2-2.43.09-1.07.19-2.15.28-3.22l.17-2.07,0-.24h0l-.4-18.61h0c-.07-.5-.13-1-.19-1.53-.11-.82-.21-1.63-.3-2.45l-.27-2.14c-.28-2.25-.58-4.54-1-6.79A145.86,145.86,0,0,0,268.4,59.62c-.71-.92-1.42-1.84-2.14-2.74a148.19,148.19,0,0,0-93.75-55l-.14,0c-.7-.12-1.41-.23-2.11-.33l-.19,0q-1.09-.16-2.19-.3l-.1,0C163,.54,158.11.17,152.56,0l-13,.28h0l-1.63.18L136.5.61c-2.09.22-4.25.45-6.37.71q-6.43.78-12.61,2.09L116,3.73h0l-2.46.58-.57.13c-.81.2-1.61.4-2.41.62h0l-2.38.65-.55.16-2.34.7-.3.09c-.78.24-1.56.49-2.33.75l-.28.09c-.76.25-1.52.51-2.27.78l-.19.06c-.75.27-1.5.54-2.24.83l-.42.15L95,10.19l-.48.2-.15.06-2,.83S92.29,11.24,92.27,11.25ZM150.46,4l.2,0,.13,0,.18.05.12,0,.1,0h.05l.11.06.07,0h0a2.21,2.21,0,0,1,.59.55,3,3,0,0,1,.2.29L159.36,17l4.79,7.89a2.14,2.14,0,0,0,.13.19.87.87,0,0,1,.22.92l-.06.11h0l-.1.1-.09.08-.06,0,0,0h0a1,1,0,0,1-.46.1h-.34l-.13,0h-.1l-.16,0h0a101.68,101.68,0,0,0-15.8-.64l-1.93.05h-.7l-2.49.08h-.74c-.8,0-1.6.08-2.4.14h-.12l-.7.07-.54,0-.71.08-.53.05-.73.09-.5.06-.78.1-.45.06-1.07.14-.15,0-1.22.17-.15,0h0l-.15,0-1.93.26h-1.28L129,25h0c.1-.17.19-.34.28-.52.29-.53.57-1.05.86-1.56l.74-1.36c.8-1.47,1.62-2.94,2.43-4.41s1.68-3.05,2.52-4.59c1.2-2.2,2.42-4.41,3.6-6.6a4.51,4.51,0,0,1,.5-.78l.05-.06.11-.12c.07-.07.13-.14.2-.2l.13-.1a1,1,0,0,1,.2-.15l.15-.09.21-.1.16-.06.24-.08.21,0,.17,0,.29,0h3.68c1.23,0,2.46-.07,3.66-.12l.49,0h.42l.12,0ZM293.55,155l.07,0h0l0,0,0,0c.19.19.22.55.2,1.15h0l-.41,5h0a1.13,1.13,0,0,1,0,.18,1.43,1.43,0,0,1,0,.22l0,.08a.77.77,0,0,1-.07.16.69.69,0,0,1-.25.26.54.54,0,0,1-.25.06,1.43,1.43,0,0,1-.75-.28l-2.78-1.75-1.36-.85a2.22,2.22,0,0,1-.27-.19,1,1,0,0,1-.3-.39.71.71,0,0,1,0-.2,1.06,1.06,0,0,1,0-.19h0l.1-.17h0a.85.85,0,0,1,.16-.17h0a1.88,1.88,0,0,1,.23-.16l.1-.06,0,0,.14-.07,1.22-.68c1-.53,1.94-1.08,2.92-1.6l.13-.07.08,0h0l.07,0,0,0a1.86,1.86,0,0,1,.72-.24.58.58,0,0,1,.19,0ZM291,179.29c-.24,1-.48,1.91-.73,2.87-.52,2.07-1.05,4.2-1.6,6.3-.09.32-.17.63-.26.94l0,.08h0l0,.11c-.21.72-.44,1.43-.66,2.12l-.06.2c0,.13-.07.26-.1.39v0h0a.11.11,0,0,1,0,.05l0,.14a.07.07,0,0,1,0,.05l0,.12a.14.14,0,0,1,0,.06.54.54,0,0,1,0,.1l0,.07a.3.3,0,0,1,0,.08.25.25,0,0,1,0,.07l-.06.09-.05,0-.08.07-.05,0h0l-.15.07h-.1l-.12,0h0l-.1,0h-.16l-.07,0-.07-.05-.05,0-.06-.06-.06-.06,0-.06-.05-.07a0,0,0,0,1,0,0h0a3.72,3.72,0,0,1-.21-.39l-.06-.15a.56.56,0,0,0-.05-.08.54.54,0,0,0-.05-.11c-2.09-3.43-4.19-6.89-6.27-10.33l-4.11-6.79-1.3-2.14c-.39-.64-.78-1.31-1.2-1.95l-.13-.23v0a3,3,0,0,1-.31-1.89,3.55,3.55,0,0,1,.09-.47.14.14,0,0,1,0-.06.19.19,0,0,1,0-.07l0-.09a.3.3,0,0,1,0-.08l0-.07,0-.07,0,0v0l0-.06.05,0,.07-.05.08-.06h0l.13,0,.15,0h.14l.09,0,.12,0,.08,0h0a2.69,2.69,0,0,1,.38.19l.15.08,2,1.25.94.58,2.44,1.49.48.3,1,.63,4.8,2.91,1,.57,1.85,1.13,1.23.74.07,0c.14.09.29.18.43.29a1.38,1.38,0,0,1,.64,1.38Zm-11.22,32.57-.05.14a3.26,3.26,0,0,1-.2.48,151.33,151.33,0,0,1-13.82,22.77,3,3,0,0,1-2.6,1.31h0l-1.33,0h-.39l-2.94,0-3.44.08-1.78,0-1.19,0h-.18l-2.84.07-2.2,0-5.59.11-.47,0h-.05l-.6.06a1.17,1.17,0,0,1-.64-.15.34.34,0,0,1-.09-.08l0,0a.94.94,0,0,1-.12-.18c-.28-.63.28-1.13.74-1.53l.34-.32q1.8-1.92,3.55-4a128,128,0,0,0,8-10.4,125.93,125.93,0,0,0,14.7-28.68l.06-.21c0-.07,0-.13,0-.19.09-.43.21-1,.81-1.06h.16l.1,0,.06,0,.09,0,.05,0,.07.06.05.05.06.07,0,.06.05.07a.2.2,0,0,1,0,.08l0,.06s0,.07.05.1l0,.05.07.14.07.17,0,0,.09.16,4.11,6.77,1.65,2.71.35.58,1.31,2.16.53.86c.38.63.76,1.26,1.15,1.88l.67,1.1.2.33.82,1.33a4,4,0,0,1,.42.91,1.25,1.25,0,0,1,.07.26h0a2.7,2.7,0,0,1,.05.41h0V211a2.09,2.09,0,0,1,0,.25v0l0,.14a2.17,2.17,0,0,1,0,.25A1.05,1.05,0,0,1,279.74,211.86ZM147.57,294.09h-.19l-1.23,0h-.25l-1.11,0h-.41l-1,0-.52,0-.95-.05-.62,0-.87,0-.77-.05-.8,0-.8-.06-.8-.06-.82-.06-.8-.07-.81-.08-.83-.07-.77-.09-.88-.09-.69-.08-1-.12-.47-.06c-.95-.12-1.9-.25-2.85-.41a2.7,2.7,0,0,1-.41-.08,1.16,1.16,0,0,1-.86-.54,1.13,1.13,0,0,1,.09-1,2,2,0,0,1,.18-.36c3-5.46,6-11,8.58-15.61a2.75,2.75,0,0,1,.15-.25l0,0a1.09,1.09,0,0,1,.13-.17l.06-.06.11-.12h0l.06,0,.11-.08.05,0a1.62,1.62,0,0,1,.8-.21h.34c.74.08,1.48.14,2.23.2l.23,0,.45,0,1.56.1q5.22.33,10.54.21a134.33,134.33,0,0,0,13.6-1l1-.12.26,0h.49l.08,0,.15,0,.11,0,.14,0,0,0h0l.05,0,.05,0a2.18,2.18,0,0,1,.91.92q2.22,3.72,4.49,7.46v0l.07.11,1.45,2.39.78,1.28,2.24,3.67h0l.07.11.06.11.06.11a.93.93,0,0,0,.05.1l0,.1a.36.36,0,0,1,0,.09.62.62,0,0,1,0,.1.25.25,0,0,1,0,.07.44.44,0,0,1,0,.1.13.13,0,0,1,0,.06v0a.71.71,0,0,1,0,.38c-.13.29-.46.48-1.05.62l-.27.06-2.75.48-.7.12-1.94.31-1,.14-1.6.23-1,.14-1.06.13-.36.05-1.55.17-.86.09h0l-.33,0-.78.07-1.55.13-.81.07-1.56.1-.7,0-2.2.1h-.06c-.85,0-1.72.1-2.55.18l-1.29.11c-1,0-2,0-3.12,0h-1.39ZM71.89,264.42l-1.22.81-.81.55-2,1.36h0a1.32,1.32,0,0,1-.2.12h0l-.18.11-.22.1-.17.08-.22.06-.12,0a2.2,2.2,0,0,1-.36,0,2.63,2.63,0,0,1-1.61-.61l-1.18-.86c-1.95-1.45-3.86-2.92-5.73-4.43s-3.93-3.27-5.81-4.94l-.21-.21-.44-.43L51,255.9l-.3-.3-.28-.28h0l20.94-.45,8.73-.19h1l.45.07.08,0,.24.05a2.22,2.22,0,0,1,1.64,1.3.5.5,0,0,1,0,.16v.14h0a.5.5,0,0,1,0,.13v0l-.06.1h0a2,2,0,0,1-.76.57l-.17.08-.19.1-.17.1-.14.08-.11.08c-.3.2-.62.4-.92.61l-5,3.32-2.63,1.75-.58.39ZM43.15,241.26l-2,.05-1.06,0h-.48l-.28,0h0l-.2-.06h0l-.14-.08a.49.49,0,0,1-.16-.16.62.62,0,0,1-.08-.4,2.48,2.48,0,0,1,.34-.94c2.34-4.41,4.8-9.13,8-15.32,0-.1.1-.2.16-.3l0-.06,0,0c.26-.41.52-.61.8-.63h.2l.07,0,.06,0,.07,0,.06,0,.08,0,.06,0,.08.07.06.06.09.09,0,.06.1.12.05.06.16.21c.48.7,1,1.37,1.39,1.88,3.29,6.59,5.56,11,6.62,12.76l.11.19c.52.86.71,1.27.54,1.58a.66.66,0,0,1-.47.29l-.11,0h-.09l-.14,0h-.69l-3.94.09-2.78.06-1.9,0H47.7l-3.42.08ZM31.32,222.74l-1,1.86-.22.43-.26.48c-.19.38-.39.75-.58,1.12l-.62,1.19a1.74,1.74,0,0,1-.11.18s0,0,0,0l-.06.07,0,0a.67.67,0,0,1-.47.27H28a.81.81,0,0,1-.5-.3l-.05-.06h0a1.46,1.46,0,0,1-.17-.24l-1-1.57-.15-.23c-.26-.42-.51-.84-.77-1.25l-1-1.67a2.25,2.25,0,0,1-.12-.21,1,1,0,0,1-.08-.89.47.47,0,0,1,.09-.12l0,0h0a1.42,1.42,0,0,1,1-.27h.06l1,0H27l.91,0h.63l.76,0h.06l1.15,0h.06a1,1,0,0,1,.8.31l0,0,0,.07h0l0,.07a.24.24,0,0,1,0,.08.57.57,0,0,1,0,.13v.07a1.27,1.27,0,0,1-.16.51Zm3.68-16h-.26l-3.54.09c-4.14.09-8.43.18-12.63.6l-.43,0a2.69,2.69,0,0,1-2.8-2,150,150,0,0,1-6.73-20.13A145,145,0,0,1,5.2,167.5c-.47-3.73-.71-7.52-1-11.2,0-.71-.1-1.42-.14-2.13,0-.49-.07-1-.1-1.47l0-.24a2.57,2.57,0,0,1,.08-1.2,2.17,2.17,0,0,1,.19-.41h0l.14-.23h0l.56.88,0,0a.41.41,0,0,0,0,.09c0,.06.07.11.1.16l.16.27.49.77c.26.45.57.93.92,1.44a.75.75,0,0,0,.07.12l.31.45.27.4.34.48.3.42.37.51.31.44.39.52.35.47.4.54.37.5.43.56.38.5.48.62.36.48.46.59.42.54.4.51.49.63c.15.19.3.37.44.56s.31.4.47.6l.5.63.43.54.31.39,2.51,3.16.81,1,.32.4.48.6.36.45.43.54.2.26c3.33,4.21,6.51,8.29,8.59,11.35v0a128.91,128.91,0,0,0,7.77,20.37h0a.36.36,0,0,1,0,.09,2.49,2.49,0,0,1,.41,1.54h0l0,.07a.41.41,0,0,1,0,.08h0l-.1.12,0,0-.08.07h0l-.17.08-.21.06h0l-.13,0-.1,0-.16,0h-.11l-.2,0H36.2l-.34,0-.86,0ZM5.44,128.79a147,147,0,0,1,5.43-23.71s0-.11.05-.17h0a.14.14,0,0,1,0-.06,1,1,0,0,1,.43-.66l.13,0,.15,0h.16a.78.78,0,0,1,.49.4l0,0s0,0,0,0a.47.47,0,0,1,.05.1l.09.16,2.33,3.81.66,1.1L19.24,116l1.43,2.35c.33.53.65,1.07,1,1.61l1.64,2.69,1.08,1.8,1.38,2.29.3.5a1.74,1.74,0,0,1,.1.19l.09.15a1.19,1.19,0,0,0,.08.16c0,.06,0,.1.06.15a1.38,1.38,0,0,1,.06.16.69.69,0,0,1,0,.13.66.66,0,0,1,0,.15l0,.12s0,.09,0,.14,0,.07,0,.1v.24l0,.14a.64.64,0,0,0,0,.07.89.89,0,0,1-.24.41l-.06.06-.17.14h0a1.4,1.4,0,0,1-.3.15l0,0h0a4.07,4.07,0,0,1-1.38.22l-2.83.07-2.84.06-5.32.1-2.46,0-1.17,0-.76,0-.55,0-1.39,0H6.9a1.51,1.51,0,0,1-1.23-.37l0-.06a1.66,1.66,0,0,1-.17-1.29ZM51.79,41.67l.17-.16c.44-.39.8-.74,1.1-1a8.58,8.58,0,0,1,1.31-1.1l.1,0,.08-.05.13,0,.08,0a.78.78,0,0,1,.22,0h.21l.1,0,.09,0,.1,0,.08,0a11.94,11.94,0,0,1,1.35.65l.7.36h0l.26.14.13.06.44.22.29.14,1,.52.68.33,1.47.73.31.16.13.07,1.82.9.45.23,1.27.64h0l.18.09,1.43.72.35.17c2.1,1,4.23,2.12,6.36,3.16.65.31,1,.57,1.06.85a.59.59,0,0,1,0,.13h0v.12a.25.25,0,0,1,0,.07.08.08,0,0,1,0,0,.15.15,0,0,1,0,.07l0,.06a.35.35,0,0,1,0,.08.21.21,0,0,1,0,.06l-.07.07,0,.06-.09.09-.07.06-.14.11,0,0-.23.17-1,.68a26.56,26.56,0,0,0-2.85,2.33c-.18.17-.37.33-.56.49a7.13,7.13,0,0,1-3.45,1.48h0l-.32,0-.27,0c-.24,0-.48,0-.73,0h-.2l-3.19,0H60.62l-1.29,0-2.75,0Q52.8,56,49,56.12l-2.15.08-1.4.06c-1.79.07-3.58.15-5.36.24H39.8a3.44,3.44,0,0,1-.46,0H39l-.1,0h-.09l-.1,0-.19,0h0l-.11,0a1.17,1.17,0,0,1-.26-.1l-.07,0h0l-.2-.09h0L38,56c2.47-2.94,4.94-5.68,7.47-8.27q3.11-3.18,6.35-6.07Zm24.1-13.38c0,.28,0,.56,0,.84l.1,1.45,0,.42v.07A4.07,4.07,0,0,1,76,32.28a.59.59,0,0,1-.21.3h0a.59.59,0,0,1-.26.07A4.81,4.81,0,0,1,73.8,32l-.7-.35L72,31.09l-1.26-.63-1.45-.71-.08,0a1.27,1.27,0,0,1-.68-.63.5.5,0,0,1,0-.12.52.52,0,0,1,0-.27l0,0,0,0a.1.1,0,0,1,0-.05l.07-.09,0,0,0,0a3.27,3.27,0,0,1,.37-.28L72,26.34c.74-.47,1.5-.94,2.24-1.42a1.43,1.43,0,0,1,.74-.28.55.55,0,0,1,.28.06c.34.17.42.65.44,1.05,0,.61.08,1.22.13,1.85l0,.47C75.88,28.14,75.88,28.22,75.89,28.29ZM112.8,8.69,115.55,8l.14,0,2.37-.54.62-.13c.84-.18,1.67-.35,2.51-.51h0l.18,0h0l.14,0,.24,0h.15l.07,0h0l0,0a.55.55,0,0,1,.19.15.71.71,0,0,1,.12.18,1,1,0,0,1-.17.92l-.08.13L118.9,14l-.41.75q-4.63,8.42-9.24,16.83a2.37,2.37,0,0,1-1.23,1l-.12,0-.07,0-.21.08h0l-1,.37-1.13.42q-2.62,1-5.24,2.11Q96.54,37.27,93,39.1l-.28.13-.06,0-.09,0-.23.07h0a1.37,1.37,0,0,1-.28.05.76.76,0,0,1-.39-.1c-.3-.16-.45-.56-.49-1.27-.13-2.23-.26-4.48-.4-6.71-.13-2.08-.26-4.15-.39-6.18h0l-.12-1.8v-.3l-.06-.84c0-.58-.08-1.16-.12-1.72l-.06-.72-.05-.73,0-.5h0c0-.13,0-.26,0-.39v-.43a2.56,2.56,0,0,1,0-.27s0,0,0,0a2.34,2.34,0,0,1,.09-.24l0-.05a.14.14,0,0,0,0-.07,2.33,2.33,0,0,1,1.13-.9,148.85,148.85,0,0,1,19.46-6.88l1.65-.44.57-.15Zm67.36-1.25,1.36.3.59.14,1.73.42.18,0,1.91.49.56.15,1.4.38.62.18L190,10l.46.14,1.94.59.1,0,.37.12h0l.44.14,1.13.37.72.24,1.15.38.45.16h0l.53.18h.05l.29.12.08,0,.24.13h0l0,0h0a2,2,0,0,1,.9,1.13l0,.12h0a.19.19,0,0,0,0,.07.52.52,0,0,0,0,.11v.07a3.11,3.11,0,0,1,0,.32v0c0,.12,0,.24,0,.37,0,1.81.08,3.63.12,5.45.06,2.15.12,4.31.19,6.44,0,1.13.07,2.27.1,3.39l0,.72c0,.15,0,.31,0,.47,0,.57.09,1.16.15,1.82,0,.18,0,.36.05.55a.15.15,0,0,0,0,.07c0,.22,0,.44.06.68h0v.65h0a.86.86,0,0,1-.28.67.57.57,0,0,1-.32.09,2.52,2.52,0,0,1-.8-.19l-.14-.05h0a4.34,4.34,0,0,1-.4-.17c-3.12-1.3-6-2.4-8.82-3.34-1.17-.4-2.32-.76-3.44-1.1a3.49,3.49,0,0,1-2.09-1.63l-3.57-5.9-4.86-8q-2.42-4-4.82-8c0-.06-.07-.11-.1-.16h0a2.2,2.2,0,0,0-.17-.25,1.64,1.64,0,0,1-.35-.68.68.68,0,0,1,.07-.4h0a.71.71,0,0,1,.25-.29l0,0,.07,0a.58.58,0,0,1,.26-.06,1.42,1.42,0,0,1,.57.12l.33.09c2.47.35,4.95.79,7.43,1.3l1,.2Zm34.57,12.41.07,0h0l.72.39h0l4.24,2.29.78.42.14.08a1.64,1.64,0,0,1,.26.2,1.37,1.37,0,0,1,.16.18.65.65,0,0,1,.09.3h0v.06s0,.06,0,.08v0l0,.1h0l-.06.09s0,0,0,0l-.06.08,0,0-.08.09,0,0-.1.08,0,0-.09.06-.08.05h0l-3.45,2.1L215,28a1.88,1.88,0,0,1-.56.25l-.16,0-.12,0h0l-.08,0,0,0h0a.64.64,0,0,1-.29-.41,2,2,0,0,1-.08-.54c0-.72,0-1.45,0-2.17h0l0-.92h0v0l0-.13,0-.85v-.19h0v-.36c0-.57,0-1.14,0-1.7a2.57,2.57,0,0,1,0-.48.84.84,0,0,1,.33-.63h0a.6.6,0,0,1,.29-.08,1.09,1.09,0,0,1,.4.07l0,0h0l.17.08ZM235,32.57l.16,0,.1,0,.17.08.08,0,.21.14,0,0c2.07,1.56,4.26,3.31,6.77,5.41l1.87,1.57h0l.13.13.11.1s0,0,0,.06a.88.88,0,0,1,.25.57.59.59,0,0,1,0,.23,1.69,1.69,0,0,1-.59.68l-8.67,6.93-.17.14h0l-1.77,1.41L230.24,53h0l-.58.46h0a1.88,1.88,0,0,1-.23.16l-.24.14-.21.11-.07,0-.27.14-.09,0-.08,0h0l-.39-.25-.56-.39-.16-.12a121.46,121.46,0,0,0-10.56-7.63,2.11,2.11,0,0,1-.31-.21,1.34,1.34,0,0,1-.57-.73.49.49,0,0,1,0-.12.45.45,0,0,1,0-.2c.08-.27.35-.54.85-.86l4.08-2.54,5.13-3.2,5.55-3.49,2.12-1.34a2.78,2.78,0,0,1,.49-.24l.2-.07.07,0a1.54,1.54,0,0,1,.3,0h.2l.1,0Zm20.63,18.67h.11a1.74,1.74,0,0,1,.78.55,151.49,151.49,0,0,1,15.19,20l.06.09a.08.08,0,0,0,0,0s0,0,0,0a1.47,1.47,0,0,1,.07.17h0s0,.07,0,.11l0,.06a3.19,3.19,0,0,0,.13.34l.14.36h0L272,73l-.83-.31-.15-.06-.79-.3-.46-.18-21.12-8.62-3.8-1.54a4.45,4.45,0,0,1-1.24-.65.55.55,0,0,1-.16-.3.65.65,0,0,1,.2-.51l0,0v0l.14-.14c.17-.17.4-.36.68-.59,1.24-1,2.49-2,3.74-3L250.36,55c1.35-1.08,2.71-2.17,4-3.26l0,0,.19-.14a1.7,1.7,0,0,1,.81-.36h.16l.06,0ZM240.37,71.48l.35.4c.48.56,1,1.12,1.42,1.69a120.2,120.2,0,0,1,17.14,27.55,118.94,118.94,0,0,1,9.23,31.77.15.15,0,0,0,0,.07.28.28,0,0,1,0,.1h0c.12.84.23,1.69.33,2.54,0,.19.05.38.07.57.1.87.2,1.75.28,2.63,0,0,0,.07,0,.11s0,.17,0,.25c.07.82.14,1.64.2,2.46l0,.46q.09,1.32.15,2.64c0,.19,0,.37,0,.56,0,.91.07,1.82.08,2.73s0,1.91,0,2.87c0,.31,0,.63,0,.94,0,.64,0,1.28,0,1.92,0,.37,0,.75,0,1.12,0,.58-.05,1.16-.08,1.73,0,.4-.05.79-.07,1.19l-.06.85a118.46,118.46,0,0,1-8.29,35.92q-1.12,2.8-2.39,5.54v0c-.36.78-.73,1.56-1.1,2.33l-.24.49c-.32.65-.65,1.3-1,1.95l-.45.85c-.27.52-.54,1-.83,1.55l-.51.93-.82,1.46c-.18.31-.36.63-.55.94-.28.48-.56,1-.85,1.43l-.55.91c-.31.5-.62,1-.94,1.49-.17.27-.34.55-.52.81-.39.61-.79,1.22-1.2,1.82l-.3.45c-.5.74-1,1.49-1.55,2.22l-.45.61c-.38.53-.76,1.06-1.16,1.59l-.61.8-1,1.36c-.22.28-.45.56-.67.85l-1,1.29-.7.85-1.1,1.29-.62.72-.07.08-1.23,1.38-.6.66c-.62.68-1.24,1.34-1.88,2s-1.55,1.59-2.33,2.37l-.67.65-1.55,1.49c-.3.29-.61.56-.92.85-.47.44-.95.88-1.44,1.31l-1,.87L226.86,242l-1,.85L224.39,244l-1,.82L221.86,246l-1,.76-1.65,1.2-.9.65-2.12,1.46-.21.14-.2.14-.1.06-.17.11-.07.05a119.16,119.16,0,0,1-60.59,19.72h-.33c-.9,0-1.78.07-2.68.09s-1.84,0-2.77,0h-.86l-1.93,0-1,0-2-.08-.8,0q-.89,0-1.77-.12l-2.12-.16-1.42-.13-1.35-.15-1.38-.16-1.31-.17-1.48-.21-1.2-.18-2.24-.38-1.08-.2-1.91-.37-1.06-.23-1.65-.36-1.06-.25-1.73-.43-.93-.24c-.87-.23-1.73-.46-2.6-.71l-.28-.09c-.79-.22-1.57-.46-2.35-.71l-.89-.28-1.75-.58-1-.33-1.76-.63-.86-.31-2.42-.94-.14-.06A120.24,120.24,0,0,1,73.3,243.22q-3.73-3.08-7.26-6.45-3.21-3.08-6.15-6.35A120.16,120.16,0,0,1,39.44,199a119.83,119.83,0,0,1-1.77-93.64h0a118.08,118.08,0,0,1,5.71-12.16,121.57,121.57,0,0,1,57.24-53.16,119.14,119.14,0,0,1,46.22-10.22h0l.55,0q3.13-.08,6.25,0l.76,0c1.61.06,3.21.15,4.81.27l.23,0,2.41.22.92.1,1.85.22.94.12,1.88.26,1,.15c.71.12,1.41.23,2.11.36l.77.14,2.17.42.93.19,1.82.4.92.22c.62.14,1.23.3,1.84.45l.87.22c.85.22,1.7.46,2.54.7l.08,0,2.47.74.86.28c.6.19,1.2.38,1.8.59l.9.3,1.79.64.28.1q1.53.56,3.06,1.17a120.27,120.27,0,0,1,36.83,23.15,1.85,1.85,0,0,1,.14.14h0c.62.56,1.23,1.13,1.83,1.7s1.27,1.23,1.89,1.86l.37.36q.9.92,1.77,1.83l.33.35c.57.6,1.13,1.21,1.69,1.82l.13.15c.58.63,1.15,1.28,1.71,1.93Zm46.43,67.23h0l4.39-.09h0l-.07.18,0,.06a1.81,1.81,0,0,1-1.06,1l-.21.11c-1.72,1-3.43,1.9-5.16,2.84-.26.15-.52.3-.79.44-2.73,1.51-5.56,3.07-8.33,4.63l-.28.15-.09,0h0l-.09,0-.18.07-.11,0a.87.87,0,0,1-.32.06.38.38,0,0,1-.15,0h-.09l-.07,0h-.05a.44.44,0,0,1-.15-.12,2,2,0,0,1-.31-1.24c0-.28,0-.56,0-.85v-.31c0-1.27,0-2.58-.17-3.88,0-.43-.1-.86-.18-1.28a2.09,2.09,0,0,1,0-.66,1.09,1.09,0,0,1,.23-.5h0a.74.74,0,0,1,.13-.12,1.23,1.23,0,0,1,.8-.27h0c2.93-.08,5.91-.14,8.86-.2ZM251,251.11l.56.08.34.05h0l-.24.24c-1,1-1.92,1.91-2.89,2.83a133.51,133.51,0,0,1-10.2,8.8h0l-.14.09-.18.1-.06,0-.17.06-.08,0a1,1,0,0,1-.3,0,.74.74,0,0,1-.21,0l-.13,0-.14,0-.12,0-.14-.05-.1-.05-.09,0-.14-.07h0l-1.53-.84-1.16-.63c-3-1.64-6-3.31-9.09-5-1.52-.83-3-1.66-4.56-2.47l-.14-.09c-.42-.24-.66-.48-.72-.73a.5.5,0,0,1,0-.12,1,1,0,0,1,.49-.77c.12-.1.25-.18.38-.27a4.39,4.39,0,0,1,.47-.27l.13-.05.08,0a4.88,4.88,0,0,1,.54-.18h0l.3-.05h0l.32,0,12.52-.26,4.66-.1,11.08-.24a3.27,3.27,0,0,1,.44,0l.18,0ZM222.77,274c-.13.06-.24.13-.36.2l-.8.45-.46.26-.64.36-.49.28-.05,0-1.6.91-.15.08-.15.07,0,0a1.17,1.17,0,0,1-.2.06l0,0h0l-.18,0h-.19l-.08,0,0,0h0c-.25-.14-.37-.47-.37-1v0c0-.2,0-.4,0-.6s0-.4,0-.6,0-.41,0-.61,0-.54,0-.8c0-.44,0-.81,0-1.15a7.31,7.31,0,0,1,.08-1.32.07.07,0,0,1,0-.05.83.83,0,0,1,.35-.6h0a.51.51,0,0,1,.15-.07l.17,0a7.58,7.58,0,0,1,2.68,1.18l.63.34.67.37.29.16.85.45h0l.09.06.09,0,.08.05,0,0a1,1,0,0,1,.46.53v0a.37.37,0,0,1,0,.11.5.5,0,0,1-.07.27.94.94,0,0,1-.26.3h0a1.88,1.88,0,0,1-.23.16h0l-.1.07Zm-20.7,9.8-.18.2-.1.09-.13.11a2.88,2.88,0,0,1-.5.3l-.38.15-2,.66-1.68.59-.52.18-2.12.78h0l-.25.07-.16,0a1.86,1.86,0,0,1-.33,0h-.27l-.1,0-.1,0-.05,0a1.65,1.65,0,0,1-.71-.54l0,0-.06-.08-.06-.09-.09-.13c-2.36-3.91-4.85-8-7.4-12.19-.47-.77-.94-1.55-1.42-2.32a1.44,1.44,0,0,1-.29-1.23.78.78,0,0,1,.3-.37h0l0,0s0,0,0,0l.07,0a1.87,1.87,0,0,1,.32-.15h0l.18-.07.18-.05c.9-.26,1.8-.53,2.69-.82a112.38,112.38,0,0,0,13.49-5.19l.28-.11.06,0,.19-.06H201a.75.75,0,0,1,.26,0h.17l.07,0a.51.51,0,0,1,.17.07h0l.06.05h0a.92.92,0,0,1,.28.53s0,.05,0,.07,0,.08,0,.11,0,.06,0,.09,0,.09,0,.13v.07a1.77,1.77,0,0,0,0,.23c0,.53,0,1,0,1.58v.5l0,1.06c0,.24,0,.47,0,.71s0,.35,0,.53c0,.67,0,1.34,0,2l.06,2.45,0,1.66c0,.18,0,.37,0,.55a2.81,2.81,0,0,0,0,.29l0,1.63c0,.18,0,.35,0,.53v.34c0,1.21.06,2.44.11,3.64a3.23,3.23,0,0,1-.12,1.07.76.76,0,0,1,0,.11.3.3,0,0,1,0,.1,1.59,1.59,0,0,1-.15.29l0,.06ZM24.77,145.15a2.08,2.08,0,0,1,.09.86c-.12,1.35-.16,2.72-.18,4.06,0,.32,0,.65,0,1v.05h0c0,.15,0,.31,0,.46s0,.52,0,.78,0,.54,0,.81a3.93,3.93,0,0,1,0,.48c0,.43,0,.86-.05,1.29a1.94,1.94,0,0,1,0,.24c0,.35,0,.7-.07,1.05h0v0l0,.2,0,.33h0l-.33-.55h0l-3.27-5.6q-1.38-2.35-2.75-4.71a1.13,1.13,0,0,1-.2-.89.5.5,0,0,1,0-.13h0a1.58,1.58,0,0,1,.12-.15l0,0a.6.6,0,0,1,.15-.09s0,0,0,0a1.71,1.71,0,0,1,.59-.11l2,0,2.56-.05h.35l.09,0,.13,0h0l.08,0,.16.08.08,0a1.06,1.06,0,0,1,.2.17h0a1.13,1.13,0,0,1,.1.13.86.86,0,0,0,.07.1c0,.06.05.12.07.17ZM26.29,72h0a2.47,2.47,0,0,1,1.06-.86l.06,0,.18-.06.2,0,.1,0a1.66,1.66,0,0,1,.32,0h.05l5.12-.15,10.42-.31,7.73-.24.9,0h.08a2.76,2.76,0,0,1,.4.06l.14,0,.1,0,.14,0,.27,0-1.15,1.5-1.67,2.17a122,122,0,0,0-7.3,10.49c-.16.26-.32.52-.49.78-.47.78-.94,1.57-1.4,2.36l0,0c-.45.78-.89,1.56-1.33,2.35l-.4.74c-.31.57-.62,1.15-.92,1.73l-.42.8c-.32.63-.64,1.26-1,1.9-.1.19-.19.39-.29.58-.4.82-.79,1.65-1.17,2.48-.1.2-.18.4-.27.6-.3.64-.58,1.29-.86,1.94l-.36.84c-.26.6-.51,1.21-.76,1.82-.1.26-.21.52-.32.78-.34.86-.67,1.72-1,2.59,0,0,0,.1,0,.17h0c0,.06,0,.12,0,.19a.56.56,0,0,0,0,.12,1,1,0,0,1-.06.23.5.5,0,0,1,0,.13l0,0a.64.64,0,0,1-.1.18s0,0,0,0a1.07,1.07,0,0,1-.16.14l0,0h0a.29.29,0,0,1-.13,0l-.05,0h-.16c-.53,0-.75-.48-.91-.84l0-.07c-.05-.1-.09-.19-.14-.27l-2.33-3.81-1.8-3c-2.35-3.86-4.8-7.86-7.23-11.77A3.17,3.17,0,0,1,19,85.08c.67-1.32,1.34-2.6,2-3.86,1.68-3.11,3.36-6,5.09-8.85l.18-.27a.22.22,0,0,1,.05-.08Zm60.92,207.8a.4.4,0,0,1-.21.09.9.9,0,0,1-.16,0,1.26,1.26,0,0,1-.43-.08l-.12,0-.09,0-.06,0h0l-.15-.07c-1-.53-2.14-1.09-3.43-1.73l-1.24-.62a3.31,3.31,0,0,1-.47-.29.81.81,0,0,1-.25-.33.61.61,0,0,1,0-.18c0-.29.21-.57.67-.86l1.36-.88L85,273.23h0l.6-.39h0l0,0,.08-.05.11-.06a1.41,1.41,0,0,1,.57-.18.71.71,0,0,1,.28.06c.26.13.4.45.43,1,.06,1,.13,2.05.2,3.07,0,.24,0,.5,0,.74l0,.6,0,.64h0c.12.62,0,1-.22,1.22Zm24.7,7.52c-.5.94-1.06,1.39-1.8,1.4a2.87,2.87,0,0,1-1-.18l0,0c-1-.38-2.13-.7-3.19-1l-.53-.16-1.2-.35a2.21,2.21,0,0,1-1.2-.73,1.82,1.82,0,0,1-.32-1q-.44-6.93-.91-13.87h0l-.19-2.91-.15-2.24a.85.85,0,0,1,.2-.83.72.72,0,0,1,.2-.09l.14,0h.21l.1,0h.06l.11,0,.05,0,.15.05h0l.11,0,1.76.67.13.05,2.57,1c1.11.42,2.23.81,3.34,1.18,2.88,1,5.73,1.77,8.49,2.41l.47.13.19.08a1.11,1.11,0,0,1,.3.17.82.82,0,0,1,.26.32,1,1,0,0,1,0,.76,4.12,4.12,0,0,1-.3.64c-2,3.63-4.12,7.38-6.18,11.17-.6,1.07-1.19,2.16-1.78,3.24ZM284.55,97.41c0,.11.08.23.13.35.22.6.44,1.19.66,1.8l.18.47c.26.74.52,1.48.77,2.22.06.17.12.34.17.51.2.6.4,1.2.59,1.8.07.2.14.41.2.61.24.75.48,1.5.7,2.26a1,1,0,0,1,.05.16c.21.71.42,1.42.62,2.12l.18.64.51,1.9c0,.14.08.28.11.42.2.76.39,1.52.58,2.28,0,.19.09.38.14.57l.42,1.83c0,.12.06.25.08.38l.1.42h0s0,0,0,.08a.36.36,0,0,1,0,.11c.27,1.21.52,2.43.76,3.66s.31,1.7,0,2a.38.38,0,0,1-.11.11l-.05,0,0,0-.05,0-.07,0-.1,0-.08,0H291l-.17,0h-.11l-.14,0-1,0-4.72.09h-.52l-3.33.07c-2.58.06-5.19.12-7.85.21h-.36l-.22,0a1.8,1.8,0,0,1-1.6-1,0,0,0,0,0,0,0,3.65,3.65,0,0,1-.14-.35v0l-.06-.2a1.42,1.42,0,0,1-.05-.22c-.47-2.09-1-4.17-1.56-6.24a121.27,121.27,0,0,0-8.68-22.47c-.07-.15-.14-.3-.22-.45a1.51,1.51,0,0,1-.11-.22A126.4,126.4,0,0,0,253,81.43l-.14-.26-.06-.13a.11.11,0,0,1,0-.06c-.06-.12-.14-.28-.24-.5l0-.06h0l-.19-.38h0l2.29.89L257.38,82l6.55,2.55.68.27.81.32.06,0,2.4.94.3.11.53.21L272,87.71c2.84,1.11,5.77,2.26,8.67,3.37a3.59,3.59,0,0,1,1.92,1.53,1,1,0,0,0,.08.14,1.09,1.09,0,0,0,.06.11c.06.12.12.24.17.37q.86,2.07,1.65,4.17Z"/><path id="Path_2649" data-name="Path 2649" class="cls-1" d="M117.64,216.45c-1,2.5-.87,2.82,1,4.2,2.42,1.76,4.86,3.5,7.28,5.26.59.43,1.41.79.76,1.79s-1.34.77-2.13.35c-1.47-.78-2.94-1.57-4.49-2.24a32.24,32.24,0,0,0,4.78,4.85c.32.26,1.15.23.73,1-.31.55-.68,1.12-1.46,1.14a2.76,2.76,0,0,1-1.76-.77,55.68,55.68,0,0,0-6-4.18c1.36,1.94,2.73,3.88,4.08,5.82.75,1.07,1.49,2.15,2.21,3.24.37.57,1,1.15,0,1.79a1.52,1.52,0,0,1-2.15-.13l0-.05a29,29,0,0,1-3.9-4.16l-.63-1a1.39,1.39,0,0,0,.49,1.5,29.08,29.08,0,0,1,4.24,6c.35.69,1.23,1.5,0,2.21-1,.57-1.68.23-2.33-.69a28.94,28.94,0,0,0-2.25-2.57c-.63.37-.4.91-.41,1.34-.12,4.52-.23,9-.3,13.55,0,1.16-.42,1.71-1.64,1.61s-1.16-.82-1.16-1.61c0-3.27,0-6.53-.34-10-.6.71-1.23,1.41-1.8,2.14a1.47,1.47,0,0,1-2,.54,1.14,1.14,0,0,1-.25-.18c-1-.67-.39-1.29,0-1.94a40,40,0,0,1,3.54-5.48,1.48,1.48,0,0,0,.41-.86,63.76,63.76,0,0,0-.36-11.39,7.11,7.11,0,0,0-2,5.1,8.26,8.26,0,0,1-2.28,5.61c-.46.54-1,1.14-1.78.55a1.49,1.49,0,0,1-.59-2,14.37,14.37,0,0,0,1.15-5.56,7.66,7.66,0,0,1,1.37-4.13c.87-1.43,1.76-2.84,2.9-4.68-1.82,1.45-3.26,2.58-4.68,3.73-.76.6-1.49.9-2.3.08s-.1-1.45.43-2c1.17-1.29,2.37-2.56,3.57-3.83.44-.46.87-.84-.06-1.29s-1.08-1.13-.4-2.08c1.22-1.72,2-3.74,3.23-5.54-.38.43-.78.86-1.15,1.3a146.94,146.94,0,0,1-16,16.48C88.94,233,84,233.9,78.59,232.92c-.58-.11-1.57.06-1.43-1.1.11-1,.73-1.12,1.58-1.26,4.22-.7,8.28-1.86,11.59-4.79a138.8,138.8,0,0,0,14.46-14.84c1.62-1.93,3.22-3.86,5.56-5,.92-.44.93-1.23,1-2.06a112.62,112.62,0,0,1,.28-11.91c.65-5.5.94-11.08,3.57-16.14a1.87,1.87,0,0,0,0-1.57,70.38,70.38,0,0,0-8.63-17c-.3-.45-.6-.95-1.3-.56-5.36,3-10.45,1.33-15.39-1.11-2.94-1.46-5-3.95-6.86-6.63a14.59,14.59,0,0,1-1.12-1.8c-4.86-10.1-10.22-20-13.61-30.71a50.64,50.64,0,0,1-2.06-18.23,11.44,11.44,0,0,1,.46-2.4A2.26,2.26,0,0,1,68.85,94a2.51,2.51,0,0,1,2.69,1.41,29.45,29.45,0,0,0,1.7,3.7,22.82,22.82,0,0,0,14.27,9.63c7,1.69,14.2,2.81,21.14,4.91,1.67.5,3.3,1.1,4.95,1.68,6.78,2.37,9.67,7.69,9.9,14.34.33,9.76-4.35,17.18-12.15,22.72-1.24.89-1.52,1.45-.65,2.8a90.85,90.85,0,0,1,8.9,16.5c.19.5.42,1,1,.84,4-.8,8.14,0,12.19-.38a4.22,4.22,0,0,0,2.88-1.68,15.31,15.31,0,0,0,3.46-10.12,31.67,31.67,0,0,1,5.79-18.06,23.07,23.07,0,0,1,10.8-8.65,55.09,55.09,0,0,1,22.67-3.93c5.73.22,11.3,1.53,16.9,2.67s11.2,2.28,16.8,3.34a13.14,13.14,0,0,0,13.5-6.29,22.76,22.76,0,0,0,2.22-4.9c.4-1.3,1.13-1.63,2.34-1.15a13.38,13.38,0,0,0,1.4.44,1.2,1.2,0,0,1,1.09,1.28,1.3,1.3,0,0,1-.2.57c-3.73,9-8.14,17.43-17.6,22a54.07,54.07,0,0,0-15,10.1c-1.61,1.6-3.85,2.43-5.52,4a59.2,59.2,0,0,0-6.33,7.88,38.53,38.53,0,0,1-8.87,9.06c-6.24,4.3-13.19,5.59-20.64,5.12a31.08,31.08,0,0,1-15.09-4.69c-1.85-1.17-4.05-1.58-6.09-2.34a3.11,3.11,0,0,0-1.76.11,22.32,22.32,0,0,1-7.29.37,22.45,22.45,0,0,0-6.34.3,1.59,1.59,0,0,0-1.45,1.5c-1.34,7.72-2.57,15.45-2.16,23.34.08,1.51.47,2.53,2.09,3a9.87,9.87,0,0,1,4.38,3.3l11.89,13.47a46.79,46.79,0,0,0,6,5.55,19.4,19.4,0,0,0,10.24,4.33,31.44,31.44,0,0,1,7,1.65,12,12,0,0,0,3.5.74c.73,0,1.29.24,1.29,1.11s-.64,1-1.33,1.07c-11.9.93-22.32-1.92-30.26-11.51-3.71-4.49-7.67-8.77-11.53-13.13a15.49,15.49,0,0,0-1.6-1.64c-.5-.42-1.12-1.36-1.72-.72a1.69,1.69,0,0,0,.18,2.39l.11.08c1,.88,1.82,1.87,2.8,2.74,1.46,1.31,2.78,2.76,4.1,4.2.48.53,1.07,1,.33,1.78a1.45,1.45,0,0,1-2,.25.69.69,0,0,1-.13-.11l-4.4-3.38C118.69,217.24,118.17,216.86,117.64,216.45Zm87.72-68c-.18-.21-.23-.32-.32-.36-7.66-2.9-15.47-4.75-23.75-3.55-3.34.49-6.37,1.44-8.88,3.95-3.63,3.61-7.34,7.13-10.79,10.9-.25.27-.66.51-.62,1.12a14,14,0,0,1,8.88.16,27.91,27.91,0,0,0,12.58.92,25.77,25.77,0,0,0,10.73-3.94c3.42-2.36,6.33-5.32,9.79-7.58.8-.52,1.58-1.07,2.38-1.62ZM186.3,164.65a25.2,25.2,0,0,1-13.09.77c-4.74-.91-9.41-2.13-14.24-.61a4.83,4.83,0,0,1-1.47,0,2,2,0,0,0-1.35.47,45.74,45.74,0,0,1-13,8.3c-.35.15-.76.3-.69.78s.52.53.87.63a10.68,10.68,0,0,1,3,1.28c4.71,3.14,10,4,15.53,4C173.33,180.28,180.63,173.81,186.3,164.65Zm-45,4.63a3.42,3.42,0,0,0,.78-.06,5.92,5.92,0,0,0,.9-.38A39.33,39.33,0,0,0,154.87,160q3.07-3.48,6.31-6.84a4.22,4.22,0,0,0,1.28-2.55,48,48,0,0,1,4.08-15c.13-.29.39-.61.17-.92s-.69-.19-1.06-.13c-12.25,2-19.67,9.21-21.86,21.46-.78,4.39-.07,9-2.45,13.29ZM104.8,134.91c.87.24.94-.29.58-1.19a14.79,14.79,0,0,0-4.57-6.45c-2.36-1.79-5.2-2.71-7.86-4a1.41,1.41,0,0,0-1,0,77.62,77.62,0,0,0-7.76,2.45,10.11,10.11,0,0,1-6.17.85c-.4-.08-.89-.46-1.21,0s.09.82.27,1.2c2,4.39,4.13,8.76,6.11,13.18.55,1.22,1.2,1.42,2.25.75a63,63,0,0,0,6.54-4.3c3.09-2.6,6.57-3.19,10.38-2.83.71.07,1.4.21,2.39.36Zm-4.88,19.68c1.46.11,2.43-.27,4-2.05,3.14-3.59,3.25-7.9,2.87-12.31a1.36,1.36,0,0,0-.65-1.07c-2.3-1.51-7.61-1.52-9.85.14a28.08,28.08,0,0,1-9.91,4.84c-.94.24-1.2.56-.68,1.44,3,5.08,7.1,8.63,14.24,9Zm11.17-6.9a24.64,24.64,0,0,0,8.07-14,15.48,15.48,0,0,0-2-11c-.69-1.25-1.25-1.2-2.1-.09-3.78,4.94-4.85,10.54-4.13,16.58a25.25,25.25,0,0,1,0,6.5,2.91,2.91,0,0,0,.17,2Zm-4-19.71c.7,0,.7-.58.85-.94a22.41,22.41,0,0,1,3.67-6.69c1-1.16.58-1.54-.62-2a116.84,116.84,0,0,0-15.91-4.21c-.39-.08-.89-.45-1.19,0a1.17,1.17,0,0,0,.2,1.24c1.78,2.8,3.64,5.58,6.62,7.2a17.42,17.42,0,0,1,5.68,4.55c.22.29.48.55.7.79Zm60,18.78c3.82-3.22,7.56-6.23,12.3-7.52a10.29,10.29,0,0,0,5.46-3.8c.85-1.06.54-1.27-.58-1.47a62.91,62.91,0,0,0-12.19-.5,1.33,1.33,0,0,0-1.35,1c-1.22,4.09-2.44,8.2-3.64,12.3Zm-95-32.36a6.94,6.94,0,0,0,.12.9c.63,1.85,1.24,3.72,1.9,5.56.89,2.45,2.72,3.56,5.17,2.75s4.65-2.18,7.23-2.75c-2.25-1.1-4.58-1.78-6.45-3.31a6.89,6.89,0,0,0-4.35-1.9,6.4,6.4,0,0,1-3.63-1.24Zm18.53,3.7a14.52,14.52,0,0,1-1.32-4.16c-.06-.46-.21-.89-.69-1-1.41-.38-2.83-.73-4.25-1.06-.35-.08-.73.07-.74.45-.05,1.15-1.05,1.14-1.94,1.44,2.55,2.36,5.63,3.08,8.94,4.36Zm105.54,23.53A66.62,66.62,0,0,1,208,146.3a1.09,1.09,0,0,0,1.09,0l6.24-3.41a46.31,46.31,0,0,1-19.1-1.27Zm13.63-2.5c-.59-.18-.77-.25-1-.29-5.8-1.15-11.62-2.27-17.41-3.48-1.47-.3-1.87.61-2.68,2,7.28-1.24,13.75,2.15,21.06,1.78ZM74,111.19c-1.24-2.31-2.37-4.38-3.48-6.46a34.07,34.07,0,0,0,.25,3.91c.16,1.86,1.41,2.3,3.23,2.55Z"/></g></g></g></svg>