<svg xmlns="http://www.w3.org/2000/svg" width="424.054" height="343.219" viewBox="0 0 424.054 343.219">
  <g id="marketing" transform="translate(-705.063 -243.318)">
    <path id="Path_5919" data-name="Path 5919" d="M2218.551,1336.073l-.669.668-14.273,14.274-14.274-14.274-.668-.668c-.05-.05-.1-.1-.148-.151a10.093,10.093,0,0,1,14.27-14.27c.051.046.1.1.151.147l.669.669.668-.669a10.093,10.093,0,0,1,14.274,14.274Z" transform="translate(-1098.634 -1067.301)" fill="#ccc"/>
    <path id="Path_5920" data-name="Path 5920" d="M2006.634,1544.5a4.953,4.953,0,0,0,1.456-3.568,5.092,5.092,0,0,0-5.081-4.99h-.166a5.131,5.131,0,0,0,.747-3.224,5.273,5.273,0,0,0-5.269-4.614h-14.066a.529.529,0,0,1-.427-.84,11.653,11.653,0,0,0,1.8-10.035,12.016,12.016,0,0,0-4.6-6.458l-.5-.363a1.988,1.988,0,0,0-2.769.429c-2.931,3.99-15.425,21.01-15.781,21.5a22.351,22.351,0,0,0-.625,25.177,20.7,20.7,0,0,0,2.377,3,7.691,7.691,0,0,0,5.541,2.354h28.416a5.217,5.217,0,0,0,5.236-4.48,5.151,5.151,0,0,0-1.24-4.051c-.034-.038-.067-.075-.1-.111a4.841,4.841,0,0,0,1.156-.551,5.144,5.144,0,0,0,1.292-7.455A13.906,13.906,0,0,0,2006.634,1544.5Z" transform="translate(-1252.72 -1040.329)" fill="#ccc"/>
    <g id="Group_5600" data-name="Group 5600" transform="translate(740.274 243.318)">
      <path id="Path_5921" data-name="Path 5921" d="M1844.48,1301.491c-1.137-4.334-3.072-9.394-6.075-10.608a3.645,3.645,0,0,0-1.363-.273h-.016a4.352,4.352,0,0,0-2.456,1.255,20,20,0,0,1-7.274,3.913c-19.8,5.944-39.8,12.236-59.52,18.729l-.567.187H1752.7a7.628,7.628,0,0,0-7.628,7.627v7.354a7.629,7.629,0,0,0,7.628,7.628h14.416l.688.2c18.269,5.44,52.307,16.277,61.9,19.339a9.891,9.891,0,0,1,4.044,2.507c.969.984,2.243,2.034,3.275,2.034h.016a3.647,3.647,0,0,0,1.363-.273c3-1.215,4.938-6.275,6.075-10.608a113.829,113.829,0,0,0,0-49.017Zm-75.353,34.266v-19.529c20.549-6.758,41.387-13.292,61.981-19.442q-.275.675-.523,1.374c-.389,1.108-.726,2.243-1.012,3.331a113.864,113.864,0,0,0,0,49.017c.286,1.088.623,2.222,1.012,3.331.159.449.328.892.5,1.327C1810.539,1348.42,1789.71,1341.894,1769.127,1335.757Zm73.154,14.172c-1.776,6.771-3.878,9.183-5.254,9.183a1.836,1.836,0,0,1-1.082-.429,4.466,4.466,0,0,1-.678-.648c-1.118-1.288-2.371-3.827-3.494-8.107a85.855,85.855,0,0,1-2.355-16.079h7.04c-1-.68-1.591-4.32-1.591-7.851s.588-7.172,1.591-7.852h-7.04a85.862,85.862,0,0,1,2.355-16.079c1.123-4.28,2.376-6.818,3.494-8.106a4.417,4.417,0,0,1,.678-.647,1.837,1.837,0,0,1,1.082-.429c1.376,0,3.478,2.413,5.254,9.183a111.64,111.64,0,0,1,0,47.861Z" transform="translate(-1745.074 -1290.61)" fill="#ccc"/>
      <ellipse id="Ellipse_25" data-name="Ellipse 25" cx="1.82" cy="7.852" rx="1.82" ry="7.852" transform="translate(90.658 27.538)" fill="#ccc"/>
    </g>
    <g id="Group_5604" data-name="Group 5604" transform="translate(967.171 350.974)">
      <path id="Path_5927" data-name="Path 5927" d="M2111.941,1412.622l.066.163a24.286,24.286,0,0,1,1.761,7.935c.037.708.039,1.416.012,2.112h-11.4c.015-.373.03-.746.041-1.123.029-1.012.043-2.052.043-3.109,0-1.857-.048-3.691-.143-5.489a37,37,0,0,0,4.557-1.508c.153-.056.3-.119.458-.185a27.1,27.1,0,0,0,3.206-1.614A24.545,24.545,0,0,1,2111.941,1412.622Z" transform="translate(-2064.935 -1397.549)" fill="#ccc"/>
      <path id="Path_5928" data-name="Path 5928" d="M2097.159,1436.747a50.3,50.3,0,0,0-7.369-1.008c-1-.063-1.98-.092-2.959-.1v-8.131h11.278c-.156,3-.44,5.9-.853,8.636C2097.226,1436.345,2097.191,1436.545,2097.159,1436.747Z" transform="translate(-2061.782 -1401.15)" fill="#ccc"/>
      <path id="Path_5929" data-name="Path 5929" d="M2076.978,1453.676l-.06-.088c-.217-.315-.514-.747-.557-.824s-.061-.128-.092-.192l-.061-.133c-.032-.069-.064-.145-.11-.253-.008-.017-.015-.035-.023-.054l-.027-.064c-.03-.07-.059-.147-.088-.218a26.715,26.715,0,0,1,7.591-1.251v4.105A24.4,24.4,0,0,1,2076.978,1453.676Z" transform="translate(-2059.569 -1405.851)" fill="#ccc"/>
      <path id="Path_5930" data-name="Path 5930" d="M2071.2,1422.591c-.029-1-.043-2.032-.043-3.079q0-2.651.134-5.226c.206.049.408.1.617.15a51.493,51.493,0,0,0,10.664,1.176v8.132h-11.33C2071.226,1423.362,2071.211,1422.978,2071.2,1422.591Z" transform="translate(-2058.592 -1398.46)" fill="#ccc"/>
      <path id="Path_5931" data-name="Path 5931" d="M2072.2,1403.023c.068-.443.14-.88.214-1.313.55.23,1.105.449,1.671.644a27.656,27.656,0,0,0,8.536,1.5v8.126a50.356,50.356,0,0,1-10.432-1.15c-.265-.059-.522-.127-.783-.19.092-1.478.208-2.936.365-4.355C2071.89,1405.225,2072.034,1404.127,2072.2,1403.023Z" transform="translate(-2058.643 -1395.9)" fill="#ccc"/>
      <path id="Path_5932" data-name="Path 5932" d="M2096.309,1396.6q.286,1.228.535,2.555a26.523,26.523,0,0,1-10.013,2.153v-6.887A24.336,24.336,0,0,1,2096.309,1396.6Z" transform="translate(-2061.782 -1394.418)" fill="#ccc"/>
      <path id="Path_5933" data-name="Path 5933" d="M2097.253,1403.024c.167,1.1.311,2.2.429,3.265.156,1.417.272,2.875.364,4.354a48.794,48.794,0,0,1-8.322,1.243c-.986.059-1.953.087-2.893.1v-8.122a27.022,27.022,0,0,0,2.992-.214,27.506,27.506,0,0,0,7.216-1.931C2097.113,1402.146,2097.186,1402.581,2097.253,1403.024Z" transform="translate(-2061.782 -1395.902)" fill="#ccc"/>
      <path id="Path_5934" data-name="Path 5934" d="M2082.606,1427.505v8.124a51.315,51.315,0,0,0-10.328,1.111c-.032-.2-.066-.4-.1-.6-.412-2.734-.7-5.633-.853-8.637Z" transform="translate(-2058.627 -1401.15)" fill="#ccc"/>
      <path id="Path_5935" data-name="Path 5935" d="M2082.895,1439.049v8.13a27.818,27.818,0,0,0-7.985,1.324,46.214,46.214,0,0,1-2.016-7.52c-.051-.273-.1-.556-.15-.837A50.183,50.183,0,0,1,2082.895,1439.049Z" transform="translate(-2058.915 -1403.5)" fill="#ccc"/>
      <path id="Path_5936" data-name="Path 5936" d="M2074.562,1452.905l.019.045c.017.04.033.078.041.093.038.089.075.179.114.261l.058.126c.016.035.032.066.047.1-.457-.174-.91-.359-1.356-.56.314-.128.635-.244.956-.361C2074.481,1452.706,2074.521,1452.809,2074.562,1452.905Z" transform="translate(-2059.066 -1406.258)" fill="#ccc"/>
      <path id="Path_5937" data-name="Path 5937" d="M2086.831,1439.057c.957.011,1.919.039,2.892.1a49.219,49.219,0,0,1,7.258,1c-.05.28-.1.561-.149.832a46.192,46.192,0,0,1-2.014,7.517,27.648,27.648,0,0,0-4.994-1.111,28.243,28.243,0,0,0-2.992-.213Z" transform="translate(-2061.782 -1403.502)" fill="#ccc"/>
      <path id="Path_5938" data-name="Path 5938" d="M2086.831,1423.744v-8.134c.961-.01,1.949-.039,2.96-.1a50.033,50.033,0,0,0,8.321-1.227q.131,2.577.134,5.248c0,1.027-.014,2.056-.043,3.058-.011.387-.027.771-.042,1.154Z" transform="translate(-2061.782 -1398.46)" fill="#ccc"/>
      <path id="Path_5939" data-name="Path 5939" d="M2104.007,1400.62a24.4,24.4,0,0,1,4.614,4.676c.386.516.748,1.043,1.082,1.569a26.274,26.274,0,0,1-3.075,1.545c-.133.056-.264.113-.419.169a35.852,35.852,0,0,1-4.243,1.415c-.091-1.425-.2-2.832-.354-4.2-.12-1.077-.265-2.19-.435-3.31q-.125-.81-.261-1.593c.686-.321,1.363-.664,2.025-1.042l0,0C2103.3,1400.1,2103.662,1400.353,2104.007,1400.62Z" transform="translate(-2064.648 -1395.521)" fill="#ccc"/>
      <path id="Path_5940" data-name="Path 5940" d="M2101.8,1398.783q-.6.329-1.218.624-.145-.761-.3-1.492c.353.186.7.377,1.047.58Q2101.561,1398.633,2101.8,1398.783Z" transform="translate(-2064.518 -1395.128)" fill="#ccc"/>
      <path id="Path_5941" data-name="Path 5941" d="M2079.077,1394.79a24.619,24.619,0,0,1,3.05-.351c.269-.013.536-.015.8-.02v6.884a26.579,26.579,0,0,1-8.187-1.444c-.619-.213-1.226-.455-1.825-.711q.257-1.373.555-2.64A24.059,24.059,0,0,1,2079.077,1394.79Z" transform="translate(-2058.95 -1394.418)" fill="#ccc"/>
      <path id="Path_5942" data-name="Path 5942" d="M2071.326,1399.377q-.662-.316-1.3-.668c.534-.33,1.076-.644,1.63-.93Q2071.483,1398.56,2071.326,1399.377Z" transform="translate(-2058.361 -1395.101)" fill="#ccc"/>
      <path id="Path_5943" data-name="Path 5943" d="M2065.839,1400.627c.163-.129.328-.254.5-.383.237-.178.453-.331.664-.471l.095.056c.656.376,1.336.721,2.028,1.043-.091.523-.179,1.055-.261,1.6-.17,1.119-.315,2.232-.435,3.309-.152,1.371-.264,2.78-.356,4.207a35.892,35.892,0,0,1-4.255-1.423,26.4,26.4,0,0,1-3.6-1.779A24.5,24.5,0,0,1,2065.839,1400.627Z" transform="translate(-2056.367 -1395.507)" fill="#ccc"/>
      <path id="Path_5944" data-name="Path 5944" d="M2058.678,1409.716a27.441,27.441,0,0,0,3.755,1.858,37.035,37.035,0,0,0,4.587,1.525c-.095,1.8-.142,3.638-.142,5.5,0,1.037.014,2.076.043,3.09.011.376.026.749.042,1.121H2055.4A24.246,24.246,0,0,1,2058.678,1409.716Z" transform="translate(-2055.382 -1397.529)" fill="#ccc"/>
      <path id="Path_5945" data-name="Path 5945" d="M2055.476,1427.505h11.555c.157,3.059.446,6.011.867,8.8.035.229.073.451.11.676a38.819,38.819,0,0,0-4.65,1.413,29.475,29.475,0,0,0-3.337,1.472A24.31,24.31,0,0,1,2055.476,1427.505Z" transform="translate(-2055.401 -1401.15)" fill="#ccc"/>
      <path id="Path_5946" data-name="Path 5946" d="M2068.79,1449.328c-.2-.119-.4-.24-.608-.37a24.527,24.527,0,0,1-6.171-5.542,28.644,28.644,0,0,1,3.051-1.332,37.934,37.934,0,0,1,4.454-1.358c.047.268.094.537.142.8a46.6,46.6,0,0,0,2.053,7.666c-.626.229-1.24.476-1.833.741-.064-.033-.128-.064-.191-.1s-.144-.077-.214-.119l-.218-.131h-.022C2069.083,1449.5,2068.934,1449.412,2068.79,1449.328Z" transform="translate(-2056.731 -1403.841)" fill="#ccc"/>
      <path id="Path_5947" data-name="Path 5947" d="M2087.466,1454.677c-.212.01-.423.016-.635.021v-4.1a27.177,27.177,0,0,1,2.858.205,26.571,26.571,0,0,1,4.734,1.047c-.029.07-.058.147-.088.215l-.028.068c-.008.019-.015.037-.036.081s-.123.3-.258.64c-.084.21-.179.446-.267.662A24.34,24.34,0,0,1,2087.466,1454.677Z" transform="translate(-2061.782 -1405.849)" fill="#ccc"/>
      <path id="Path_5948" data-name="Path 5948" d="M2097.549,1452.6q.43.157.855.328-.593.271-1.2.51c.087-.218.149-.371.151-.377.018-.037.034-.076.051-.116l.02-.048C2097.469,1452.8,2097.508,1452.7,2097.549,1452.6Z" transform="translate(-2063.893 -1406.257)" fill="#ccc"/>
      <path id="Path_5949" data-name="Path 5949" d="M2102.985,1447.944c-.468.344-.942.669-1.415.967s-.919.564-1.329.785c-.125.069-.253.128-.379.2q-.855-.38-1.733-.7a46.648,46.648,0,0,0,2.053-7.667c.049-.26.1-.531.143-.8a38.311,38.311,0,0,1,4.477,1.365c.42.156.836.321,1.267.5q.867.37,1.641.763A24.533,24.533,0,0,1,2102.985,1447.944Z" transform="translate(-2064.081 -1403.841)" fill="#ccc"/>
      <path id="Path_5950" data-name="Path 5950" d="M2112.525,1432.583v.01a24.651,24.651,0,0,1-2.46,5.551c-.338.559-.707,1.114-1.094,1.654q-.877-.451-1.874-.878c-.449-.19-.879-.362-1.311-.522a39.054,39.054,0,0,0-4.674-1.418c.037-.226.075-.449.11-.678.42-2.787.709-5.739.866-8.8h11.386a24.3,24.3,0,0,1-.908,4.953Z" transform="translate(-2064.687 -1401.15)" fill="#ccc"/>
    </g>
    <path id="Path_5951" data-name="Path 5951" d="M2196.129,1573.085a4.446,4.446,0,0,0-1.9.432l-4.949-8.485a4.5,4.5,0,1,0-6.847.03l-3.741,4.156a4.452,4.452,0,0,0-5.812-.367l-20.668-41.335a4.5,4.5,0,1,0-6.647.7l-26.484,47.672a4.35,4.35,0,0,0-4.7,1.294l-18.277-18.278a4.5,4.5,0,1,0-7.065,1.458l-19.507,27.309a4.542,4.542,0,1,0,1.07.715l19.507-27.311a4.418,4.418,0,0,0,5.272-1.077l18.278,18.278a4.492,4.492,0,1,0,6.594-1.846l26.385-47.494a4.392,4.392,0,0,0,4.623-.451l20.667,41.334a4.506,4.506,0,1,0,7.553.451l3.91-4.344a4.47,4.47,0,0,0,4.922,0l4.848,8.31a4.478,4.478,0,1,0,2.969-1.143Zm-128.517,20.563a1.928,1.928,0,1,1,0-3.855,1.96,1.96,0,0,1,.376.037,1.927,1.927,0,0,1-.376,3.818Zm25.951-35.47a1.92,1.92,0,0,1-1.533.77,1.957,1.957,0,0,1-.376-.037,1.941,1.941,0,1,1,1.91-.733Zm24.17,23.9a1.928,1.928,0,0,1,0-3.856c.016,0,.031,0,.047,0a1.942,1.942,0,0,1,1.88,1.923A1.928,1.928,0,0,1,2117.734,1582.081Zm32.336-55.983a1.922,1.922,0,1,1-1.59-3.126c.033,0,.065-.01.1-.01a1.918,1.918,0,0,1,1.492,3.135Zm27.42,46.381a1.919,1.919,0,0,1-1.68,1.867,1.885,1.885,0,0,1-.244.025,1.923,1.923,0,1,1,1.927-1.928C2177.494,1572.455,2177.491,1572.466,2177.49,1572.479Zm10.261-10.075a1.863,1.863,0,1,1,.025-.243A1.915,1.915,0,0,1,2187.751,1562.4Zm8.378,17.107a1.928,1.928,0,1,1,1.928-1.928A1.927,1.927,0,0,1,2196.129,1579.511Z" transform="translate(-1071.511 -1106.284)" fill="#ccc"/>
    <path id="Path_5959" data-name="Path 5959" d="M1834.229,1422.48h-20.42a4.052,4.052,0,0,0-4.053,4.052v20.421a4.053,4.053,0,0,0,4.053,4.052h20.42a4.053,4.053,0,0,0,4.052-4.052v-20.421A4.052,4.052,0,0,0,1834.229,1422.48Zm-5.67,15.257-6.4,3.693a1.147,1.147,0,0,1-1.721-.994v-7.387a1.148,1.148,0,0,1,1.721-.994l6.4,3.694A1.148,1.148,0,0,1,1828.559,1437.737Z" transform="translate(-882.578 -1170.937)" fill="#ccc" stroke="#ccc" stroke-miterlimit="10" stroke-width="1"/>
    <g id="Group_5606" data-name="Group 5606" transform="translate(820.732 362.433)">
      <circle id="Ellipse_26" data-name="Ellipse 26" cx="5.84" cy="5.84" r="5.84" transform="translate(7.549 17.113)" fill="#ccc"/>
      <path id="Path_5960" data-name="Path 5960" d="M1328.12,600.961a.4.4,0,0,0-.043-.052c-.193-.234-.391-.462-.595-.682-.019-.022-.038-.043-.057-.062-.2-.217-.41-.429-.622-.633-.024-.022-.049-.046-.071-.068-.212-.2-.427-.4-.649-.584-.027-.024-.054-.049-.082-.071-.22-.187-.443-.367-.671-.538-.033-.024-.062-.049-.093-.071-.228-.171-.462-.337-.7-.494l-.1-.065c-.236-.158-.475-.307-.72-.451l-.106-.062c-.245-.141-.491-.277-.744-.408-.035-.016-.071-.035-.108-.054-.253-.128-.508-.247-.766-.364-.038-.014-.073-.03-.108-.046-.261-.114-.527-.22-.793-.32-.035-.011-.071-.024-.109-.038-.269-.1-.538-.19-.812-.274l-.1-.033c-.28-.082-.56-.16-.842-.228-.03-.008-.062-.014-.092-.022-.288-.068-.576-.13-.867-.182-.027-.005-.054-.011-.082-.014-.3-.054-.595-.1-.9-.136l-.06-.005c-.31-.035-.617-.065-.929-.084h-.035c-.321-.019-.641-.03-.964-.03s-.66.011-.989.03c-.111.008-.22.022-.329.03-.217.016-.435.033-.652.06-.13.014-.261.038-.391.057-.193.027-.386.054-.576.087-.138.027-.277.06-.416.087-.179.038-.359.073-.538.117-.141.033-.282.076-.424.114-.171.046-.342.09-.513.141-.141.043-.282.1-.426.141-.163.057-.329.109-.492.168-.141.054-.283.111-.421.168-.16.065-.318.128-.475.2-.141.062-.277.128-.418.193s-.3.144-.456.22c-.136.071-.272.147-.407.22s-.3.16-.44.245-.266.163-.4.245-.285.177-.424.269-.258.177-.383.266-.274.2-.41.3-.245.19-.367.288-.263.209-.391.32-.234.2-.35.31-.25.225-.372.342-.223.22-.334.331-.239.242-.353.367-.212.231-.312.35-.226.258-.337.391-.2.242-.291.367c-.057.073-.111.147-.168.22a16.567,16.567,0,0,0,26.646.179.014.014,0,0,1-.006-.011Q1328.413,601.32,1328.12,600.961Z" transform="translate(-1302.05 -563.923)" fill="#ccc"/>
      <path id="Path_5961" data-name="Path 5961" d="M1499.69,601.695q-.277-.375-.57-.733a.4.4,0,0,0-.044-.052c-.193-.234-.391-.462-.595-.682-.019-.022-.038-.043-.057-.062-.2-.217-.41-.429-.622-.633-.024-.022-.049-.046-.071-.068-.212-.2-.427-.4-.649-.584-.027-.024-.054-.049-.082-.071-.22-.187-.443-.367-.671-.538-.033-.024-.062-.049-.092-.071-.228-.171-.462-.337-.7-.494l-.1-.065c-.236-.158-.475-.307-.72-.451l-.106-.062c-.244-.141-.492-.277-.744-.408-.035-.016-.071-.035-.109-.054-.253-.128-.508-.247-.766-.364-.038-.014-.073-.03-.109-.046-.261-.114-.527-.22-.793-.32-.035-.011-.071-.024-.109-.038-.269-.1-.538-.19-.812-.274l-.1-.033c-.28-.082-.56-.16-.842-.228-.03-.008-.062-.014-.092-.022-.288-.068-.576-.13-.866-.182-.027-.005-.054-.011-.082-.014-.3-.054-.595-.1-.9-.136-.019,0-.041,0-.06-.005-.31-.035-.617-.065-.929-.084h-.035c-.321-.019-.641-.03-.964-.03s-.66.011-.989.03c-.111.008-.22.022-.329.03-.217.016-.435.033-.652.06-.13.014-.261.038-.391.057-.193.027-.385.054-.576.087-.139.027-.277.06-.416.087-.179.038-.359.073-.538.117-.141.033-.283.076-.424.114-.171.046-.342.09-.514.141-.141.043-.282.1-.426.141-.163.057-.329.109-.492.168-.141.054-.283.111-.421.168-.161.065-.318.128-.475.2-.141.062-.277.128-.418.193s-.3.144-.456.22c-.136.071-.271.147-.407.22s-.3.16-.44.245-.266.163-.4.245-.285.177-.424.269-.258.177-.383.266-.275.2-.41.3-.244.19-.367.288-.263.209-.391.32-.234.2-.35.31-.25.225-.372.342-.223.22-.334.331-.239.242-.353.367-.212.231-.312.35-.225.258-.337.391-.2.242-.291.367c-.057.073-.111.147-.168.22a16.567,16.567,0,0,0,26.645.179A.014.014,0,0,1,1499.69,601.695Z" transform="translate(-1426.599 -563.923)" fill="#ccc"/>
      <circle id="Ellipse_27" data-name="Ellipse 27" cx="5.84" cy="5.84" r="5.84" transform="translate(54 17.113)" fill="#ccc"/>
      <path id="Path_5962" data-name="Path 5962" d="M1413.7,538.706a.014.014,0,0,1-.005-.011q-.277-.375-.57-.733a.408.408,0,0,0-.043-.052c-.193-.234-.391-.462-.595-.682-.019-.022-.038-.043-.057-.062-.2-.217-.41-.429-.622-.633-.024-.022-.049-.046-.071-.068-.212-.2-.427-.4-.649-.584-.027-.024-.054-.049-.082-.071-.22-.187-.443-.367-.671-.538-.033-.024-.062-.049-.092-.071-.228-.171-.462-.337-.7-.494l-.1-.065c-.236-.158-.475-.307-.72-.451l-.106-.062c-.245-.141-.492-.277-.744-.407-.035-.016-.071-.035-.109-.054-.253-.128-.508-.247-.766-.364-.038-.014-.073-.03-.109-.046-.261-.114-.527-.22-.793-.321-.036-.011-.071-.024-.109-.038-.269-.1-.538-.19-.812-.274l-.1-.033c-.28-.081-.56-.16-.842-.228-.03-.008-.062-.014-.092-.022-.288-.068-.576-.13-.866-.182a.823.823,0,0,0-.082-.014c-.3-.054-.595-.1-.9-.136l-.06-.005c-.31-.035-.616-.065-.929-.084h-.035c-.321-.019-.641-.03-.964-.03s-.66.011-.989.03c-.111.008-.22.022-.328.03-.217.016-.435.033-.652.06-.13.014-.261.038-.391.057-.193.027-.386.054-.576.087-.139.027-.277.06-.416.087-.179.038-.359.073-.538.117-.141.033-.283.076-.424.114-.171.046-.342.09-.513.141-.141.043-.283.1-.427.141-.163.057-.329.109-.492.168-.141.054-.283.111-.421.168-.16.065-.318.128-.475.2-.141.062-.277.128-.418.193s-.3.144-.456.22c-.136.071-.272.147-.408.22s-.3.16-.44.244-.266.163-.4.245-.285.177-.424.269-.258.176-.383.266-.274.2-.41.3-.245.19-.367.288-.263.209-.391.321-.234.2-.35.31-.25.225-.372.342-.223.22-.334.331-.239.242-.353.367-.212.231-.312.35-.226.258-.337.391-.2.242-.291.367c-.057.073-.112.147-.169.22a16.567,16.567,0,0,0,26.645.179Z" transform="translate(-1363.96 -518.036)" fill="#ccc"/>
      <circle id="Ellipse_28" data-name="Ellipse 28" cx="5.84" cy="5.84" r="5.84" transform="translate(30.638 0)" fill="#ccc"/>
    </g>
    <g id="Group_5607" data-name="Group 5607" transform="translate(-85.554 -16.373)">
      <g id="Group_4096" data-name="Group 4096" transform="translate(942.887 474.914)">
        <g id="Group_4093" data-name="Group 4093">
          <g id="Group_4092" data-name="Group 4092">
            <g id="Group_4091" data-name="Group 4091">
              <path id="Exclusion_2" data-name="Exclusion 2" d="M-3161.553,3377.8v-10.512a7.994,7.994,0,0,0-.633-3.135,8.03,8.03,0,0,0-1.724-2.56,8.074,8.074,0,0,0-2.56-1.724,8,8,0,0,0-3.135-.633h-48.033a8,8,0,0,0-3.135.633,8.089,8.089,0,0,0-2.557,1.724,8.091,8.091,0,0,0-1.727,2.56,7.99,7.99,0,0,0-.633,3.135v111.893a7.986,7.986,0,0,0,.633,3.134,8.057,8.057,0,0,0,1.727,2.56,7.988,7.988,0,0,0,2.557,1.724,7.994,7.994,0,0,0,3.135.633h48.033a8,8,0,0,0,3.135-.633,7.973,7.973,0,0,0,2.56-1.724,7.964,7.964,0,0,0,1.724-2.56,7.991,7.991,0,0,0,.633-3.134v-90.3l.971-.9V3378.6Zm-2.5,100.964a6.112,6.112,0,0,1-6.108,6.108h-46.923a6.115,6.115,0,0,1-6.108-6.108V3367.986a6.115,6.115,0,0,1,6.108-6.108h46.923a6.114,6.114,0,0,1,6.108,6.108Z" transform="translate(3225.69 -3359.24)" fill="#ccc"/>
            </g>
            <rect id="Rectangle_1873" data-name="Rectangle 1873" width="1.111" height="4.998" transform="translate(0 31.876)" fill="#ccc" stroke="#ccc" stroke-miterlimit="10" stroke-width="3"/>
            <rect id="Rectangle_1873-2" data-name="Rectangle 1873" width="1.111" height="4.998" transform="translate(0 22.876)" fill="#ccc" stroke="#ccc" stroke-miterlimit="10" stroke-width="3"/>
          </g>
          <path id="Path_3084" data-name="Path 3084" d="M-3134.927,3792.8v.555a.554.554,0,0,1-.555.555h-31.652a.555.555,0,0,1-.555-.555v-.555a.557.557,0,0,1,.555-.555h31.652A.555.555,0,0,1-3134.927,3792.8Z" transform="translate(3183.793 -3672.018)" fill="#ccc"/>
          <path id="Path_3085" data-name="Path 3085" d="M-3131.814,3365.906v1.944a1.665,1.665,0,0,1-1.666,1.666h-25.543a1.667,1.667,0,0,1-1.666-1.666v-1.944a1.59,1.59,0,0,1,.056-.417,1.665,1.665,0,0,1,1.611-1.249h25.543a1.666,1.666,0,0,1,1.613,1.249A1.711,1.711,0,0,1-3131.814,3365.906Z" transform="translate(3178.737 -3362.852)" fill="#ccc"/>
        </g>
      </g>
    </g>
  </g>
</svg>
