<svg xmlns="http://www.w3.org/2000/svg" viewBox="0 0 448 448"><defs><style>.cls-1{fill:#ffcf4b;}</style></defs><g id="Layer_2" data-name="Layer 2"><g id="Layer_1-2" data-name="Layer 1"><g id="Group_5570" data-name="Group 5570"><path id="Path_5850" data-name="Path 5850" class="cls-1" d="M252.91,335.19a21.88,21.88,0,1,0,.79-30.93c-.25.23-.49.48-.73.72,0,0-19.34,14.47-29.11-6.83l.12-73.8h10.86l65.8.13,2.33-1.35c1.23-.71,12.1-7.3,15.06-19.71,1.29-5.37,1.48-13.8-4.86-23.52l-.63-1-.83-.79-.39-.39a11.88,11.88,0,0,1,8.6-20.06,11.88,11.88,0,0,1,8.19,20.48l-.6.57-.5.66c-1,1.29-9.38,12.95-6.12,25.93,1.37,5.48,5.37,13.1,16.62,18.31l2,.92,100.39,1.15V215l-97.59-1.14s-18.44-10.77-6.94-28.76a22.68,22.68,0,0,0,2-2.33l0-.05a21.87,21.87,0,0,0-32.71-29,24.4,24.4,0,0,0-1.63,1.9s0,0,0,0a21.88,21.88,0,0,0,1,29l.72.72c9.32,14.3-.11,24-4.67,27.6l0,0c-.48.26-1,.5-1.53.75l-73.6-.12h.1l.68-65.69-1.33-2.34c-3.37-6-12.63-16-26-16A31.66,31.66,0,0,0,181.27,135l-1,.61-.8.82-.41.4a11.88,11.88,0,1,1,.54-16.79h0l.57.6.66.5c.93.72,9.47,7,20,7,6.06,0,17.29-2.23,24.36-17.17l.93-2,.8-99.55H213.76l-.15,96.55c-4.87,10.51-12.05,12.27-18.06,11.36h-.06a28.15,28.15,0,0,1-8.52-4.17,21.72,21.72,0,0,0-14-6.84h-.08a21.88,21.88,0,0,0-8.49,42.93,22.35,22.35,0,0,0,2.57.35h0a21.78,21.78,0,0,0,19-5.51l.73-.72c6-3.84,11.16-4.42,15.4-3.46l.08,0c7.34,2.73,11.4,9.81,11.4,9.81l-.13,63.78-9.37,0h9.37l-66.07-.13-2,.91c-11.28,5.17-15.3,12.78-16.69,18.25-3.31,13,5,24.66,6,25.95l.49.66.59.57a11.88,11.88,0,1,1-16.79.36h0l.39-.38.84-.8.63-1c6.38-9.7,6.21-18.13,5-23.5-2.91-12.42-13.76-19.06-15-19.78l-2.33-1.35-98.57-.15v10l34.44,0h1.06l61.15.63c3.44,2.36,16.38,12.7,5.91,28.62l-.72.72a21.9,21.9,0,0,0-.84,29.34s0,0,0,.05a21.38,21.38,0,0,0,1.91,2.12A21.87,21.87,0,0,0,145,255.13a2.09,2.09,0,0,0-.14-.17,17.93,17.93,0,0,0-1.63-1.86l0,0c-11.5-18.17,7.27-28.73,7.27-28.73l62.94.65.61,10-.13,65.32.92,2c7,15.19,18.32,17.46,24.47,17.46,10.33,0,18.79-6.09,19.72-6.79l.66-.49.57-.6.4-.39a11.87,11.87,0,1,1-.43,16.79l-.77-.82-.93-.62A31.4,31.4,0,0,0,241,321.11c-13.18,0-22.44,9.92-25.83,15.78l-1.34,2.32.85,99.31,9,0,.14-96.64S234.7,323,252.91,335.19Z"/><path id="Path_5851" data-name="Path 5851" class="cls-1" d="M0,0V448H448V0ZM438,438H10V10H438Z"/></g></g></g></svg>