<svg xmlns="http://www.w3.org/2000/svg" viewBox="0 0 421.4 234.35"><defs><style>.cls-1{fill:none;}.cls-2{fill:#fff;}.cls-3,.cls-4{isolation:isolate;}.cls-4{font-size:24px;fill:#d4d4d4;font-family:Poppins-Bold, Poppins;font-weight:700;}</style></defs><g id="Layer_2" data-name="Layer 2"><g id="Layer_1-2" data-name="Layer 1"><g id="Group_5439" data-name="Group 5439"><g id="Group_5438" data-name="Group 5438"><g id="Subtraction_3" data-name="Subtraction 3"><path class="cls-1" d="M421.4,234.35H0V157.43H55.4L214.27,25.8,373.14,157.43H421.4ZM9.28,161.5a5,5,0,0,0-5,5v58.57a5,5,0,0,0,5,5h401.4a5,5,0,0,0,5-5V166.5a5,5,0,0,0-5-5Z"/><path class="cls-2" d="M367,157.5,214.27,31,61.58,157.5H367m54.43,76.85H0V157.43H55.4L214.27,25.8,373.14,157.43H421.4v76.92ZM9.29,161.5a5,5,0,0,0-5,5v58.57a5,5,0,0,0,5,5H410.68a5,5,0,0,0,5-5V166.5a5,5,0,0,0-5-5Z"/></g><path id="Exclusion_3" data-name="Exclusion 3" class="cls-2" d="M214.27,51.51a25.8,25.8,0,1,1,18.36-7.71l-.18.18A25.53,25.53,0,0,1,214.27,51.51Zm0-35.71a10,10,0,1,0,10,10h0A10,10,0,0,0,214.27,15.8Z"/><g id="Opening_Hours" data-name="Opening Hours" class="cls-3"><text class="cls-4" transform="translate(115.71 200.79)">Opening Hours</text></g><circle id="Ellipse_22" data-name="Ellipse 22" cx="214.98" cy="26.51" r="10.71"/></g></g></g></g></svg>