<svg xmlns="http://www.w3.org/2000/svg" width="228.607" height="283.015" viewBox="0 0 228.607 283.015">
  <g id="Group_5907" data-name="Group 5907" transform="matrix(0.974, -0.225, 0.225, 0.974, 0, 41.204)">
    <path id="Path_7651" data-name="Path 7651" d="M1360.026,788.059c9.158,27.315,38.455,114.237,48.261,143.5.178.52.353,1.041.521,1.523a3.731,3.731,0,0,1-.854,3.776,5.716,5.716,0,0,1-.511.512c-5.031,5.245-14.069,14.392-23.975,24.347-.99,1.042-2.023,2.051-3.05,3.1-14.577,14.694-30.281,30.474-37.476,37.919a3.677,3.677,0,0,1-3.514,1.035l-81.141-18.73a3.8,3.8,0,0,1-2.709-2.522c-5.62-17.809-24.049-70.53-29.548-87.681a3.72,3.72,0,0,1,.85-3.776c4.639-4.693,11.655-11.828,20-20.281,1.009-1.024,2.02-2.047,3.046-3.1,7.361-7.475,15.59-15.823,23.979-24.347l3.739-3.771c22.705-23,45.96-46.585,56.663-57.463a3.734,3.734,0,0,1,3.522-.992l.064,0a3.766,3.766,0,0,1,2.811,4.48L1321.156,870.2l-1.274,5.506-3.124,13.465a3.768,3.768,0,0,1-3.118,2.835,20.378,20.378,0,0,0-14.872,10.071,23.566,23.566,0,0,0-1.838,3.95c-3.927,11.016.125,25.044,13.953,29.135a20.553,20.553,0,0,0,20.956-4.557,23.215,23.215,0,0,0,2.865-3.235c6.8-9.351,6.931-23.765-4.372-31.5a3.688,3.688,0,0,1-1.507-3.921l1.974-8.557,1.275-5.506,20.684-89.524a3.711,3.711,0,0,1,4.443-2.794h.019l.063.009A3.734,3.734,0,0,1,1360.026,788.059Z" transform="translate(-1225.833 -781)" fill="#ff6868"/>
    <path id="Path_7652" data-name="Path 7652" d="M1337.076,1031.427a10.13,10.13,0,0,1-1.634,3.656,10.463,10.463,0,0,1-10.889,4.164l-65.47-15.142a10.423,10.423,0,0,1-7.844-12.475v-.025a10.446,10.446,0,0,1,12.523-7.821l65.488,15.116a10.441,10.441,0,0,1,7.827,12.522Z" transform="translate(-1226.359 -785.656)" fill="#ff6868"/>
  </g>
</svg>
