<svg xmlns="http://www.w3.org/2000/svg" width="832" height="218.816" viewBox="0 0 832 218.816">
  <g id="platforms" transform="translate(-980 -465.442)">
    <g id="Group_5740" data-name="Group 5740">
      <path id="Path_7479" data-name="Path 7479" d="M1667.71,611.351l39.07-68.55-11.51-20.2-50.58,88.75-1.71,3-11.4,20H1609a10,10,0,0,1,0-20h30.53l1.71-3H1609a13,13,0,0,0,0,26h20.87l-7.61,13.359a10,10,0,0,0,17.38,9.9l13.25-23.26,1.71-3,11.4-20Z" fill="#fff"/>
      <path id="Path_7480" data-name="Path 7480" d="M1669.46,614.351l-11.4,20h100.88l-11.4-20Z" fill="#fff"/>
      <path id="Path_7481" data-name="Path 7481" d="M1802,614.351h-27.98l-1.71-3-50.58-88.75-1.72-3.03-11.51-20.2,1.73-3.03,4.13-7.25a10,10,0,0,1,17.38,9.9l-10,17.55,1.72,3.02,10.88-19.09a13,13,0,0,0-22.59-12.87l-3.25,5.7-1.73,3.04-4.13-7.25a10,10,0,0,0-17.38,9.9l10,17.55,1.73,3.03,11.51,20.2,1.72,3.03,39.07,68.55,1.71,3,11.4,20h23.02l1.71,3,7.61,13.359a10,10,0,1,1-17.38,9.9l-13.25-23.26h-3.46l14.1,24.75a13,13,0,1,0,22.59-12.87l-6.77-11.88-1.71-3H1802a10,10,0,0,0,0-20Z" fill="#fff"/>
    </g>
    <g id="Group_5741" data-name="Group 5741">
      <path id="Path_7482" data-name="Path 7482" d="M1427.857,579.148a.54.54,0,0,0-.713,0L1311.6,680.25a2.261,2.261,0,0,0,2.547,3.7l.085-.048,137.85-79.588a2.26,2.26,0,0,0,.359-3.657Z" fill="#fff"/>
      <path id="Path_7483" data-name="Path 7483" d="M1427.144,570.551a.541.541,0,0,0,.713,0l26.387-23.089a.541.541,0,0,0-.086-.876L1314.23,465.8l-.083-.047a2.261,2.261,0,0,0-2.546,3.7Z" fill="#fff"/>
      <path id="Path_7484" data-name="Path 7484" d="M1421,573.149,1301.566,468.643a2.25,2.25,0,0,0-3.244.27,12.156,12.156,0,0,0-2.573,7.555V673.232a12.15,12.15,0,0,0,3.82,8.924.548.548,0,0,0,.732.007L1421,576.55A2.259,2.259,0,0,0,1421,573.149Z" fill="#fff"/>
      <path id="Path_7485" data-name="Path 7485" d="M1483.82,563.711l-23.181-13.383a.542.542,0,0,0-.628.061l-27.489,24.053a.542.542,0,0,0,0,.815l27.49,24.053a.54.54,0,0,0,.627.062l23.181-13.383A12.862,12.862,0,0,0,1483.82,563.711Z" fill="#fff"/>
    </g>
    <path id="Path_7486" data-name="Path 7486" d="M980,481.851v186h186v-186Zm90.755,127.8H1038.2v-32.82h32.555Zm0-36.781H1038.2V540.051h32.555Zm37.045,36.781h-32.555v-32.82H1107.8Zm0-36.781h-32.555V540.051H1107.8Z" fill="#fff"/>
  </g>
</svg>
