<svg xmlns="http://www.w3.org/2000/svg" viewBox="0 0 581.14 448.47"><defs><style>.cls-1{fill:#fff;}</style></defs><g id="Layer_2" data-name="Layer 2"><g id="Layer_1-2" data-name="Layer 1"><g id="Group_5488" data-name="Group 5488"><g id="Group_5487" data-name="Group 5487"><path id="Path_5471" data-name="Path 5471" class="cls-1" d="M339.92,185.62c.59,2.6,1.13,5.21,1.65,7.84s1,5.28,1.45,7.94.85,5.34,1.23,8,.72,5.41,1,8.14a273.2,273.2,0,0,1-1.47,72.65,228.82,228.82,0,0,1-20.24,65c-10,20.32-23.08,38.3-38.87,52.62a134.62,134.62,0,0,1-58.32,31.49c-23.37,5.76-47.4,4.8-70.82-2.29-24.47-7.41-48-21.43-69.12-41.14-21.77-20.34-40.55-46.4-54.62-76.76A286.66,286.66,0,0,1,6.05,217.58c-2.36-36,2.15-69.53,12.08-98.94,9.64-28.56,24.24-52.73,42.29-71.37C77.72,29.38,98,16.77,120.07,10.15A130.45,130.45,0,0,1,186.61,8.1a159.38,159.38,0,0,1,49.84,20.81,202.4,202.4,0,0,1,41.27,34.73,247.49,247.49,0,0,1,32.35,44.61,277.05,277.05,0,0,1,22.85,51.92l2.42-1.07a284.18,284.18,0,0,0-23.27-52.93,254.29,254.29,0,0,0-32.94-45.55,207.22,207.22,0,0,0-42.06-35.57A163.45,163.45,0,0,0,186.19,3.58a133.74,133.74,0,0,0-68.11,1.75C95.46,12,74.6,24.8,56.79,43c-18.58,19-33.64,43.74-43.61,73C2.91,146.18-1.78,180.63.62,217.58A293,293,0,0,0,27.1,321.94c14.47,31.15,33.81,57.87,56.21,78.67,21.68,20.14,45.88,34.41,71,41.88,24,7.15,48.61,8,72.52,2a138.14,138.14,0,0,0,59.52-32.52c16.09-14.7,29.4-33.13,39.56-53.9a234.83,234.83,0,0,0,20.53-66.42,279.4,279.4,0,0,0,1.44-74q-.47-4.12-1-8.21c-.38-2.72-.8-5.43-1.25-8.11s-.93-5.36-1.46-8-1.07-5.29-1.66-7.91Z"/><path id="Path_5472" data-name="Path 5472" class="cls-1" d="M301.38,174.13l2.83-1.23a206,206,0,0,0-18-39.85,180.87,180.87,0,0,0-25.32-33.59,144.38,144.38,0,0,0-31.84-25.18,112.88,112.88,0,0,0-37.61-13.76,94,94,0,0,0-48.7,4.39c-15.71,5.83-30,15.91-42,29.6-12.34,14.12-22.15,32-28.48,52.67-6.46,21.13-9.22,45-7.35,70.4a213.76,213.76,0,0,0,18,71.74,185.75,185.75,0,0,0,37.71,55.47c14.72,14.69,31.3,25.58,48.71,31.89A98.6,98.6,0,0,0,221,381.46a96.31,96.31,0,0,0,44.15-20.7,124.2,124.2,0,0,0,30.51-38.11,165.82,165.82,0,0,0,16.48-49.09,202,202,0,0,0,1.66-56c-.26-2.44-.56-4.87-.9-7.27s-.72-4.8-1.13-7.16-.87-4.73-1.36-7.06-1-4.66-1.57-7l-3.05.31c.55,2.27,1.08,4.56,1.56,6.87s.94,4.65,1.35,7,.79,4.71,1.13,7.09.63,4.78.89,7.19a194.94,194.94,0,0,1-1.66,54.36A159.86,159.86,0,0,1,293,319.51a119.7,119.7,0,0,1-29.67,36.77,92.94,92.94,0,0,1-42.8,19.79,95.54,95.54,0,0,1-49.86-4.89c-16.77-6.17-32.74-16.74-46.9-31a179.93,179.93,0,0,1-36.24-53.53,207,207,0,0,1-17.37-69.11c-1.81-24.47.8-47.45,7-67.84,6-20,15.45-37.24,27.3-50.92C116,85.53,129.71,75.71,144.85,70a90.66,90.66,0,0,1,47.05-4.52,108.74,108.74,0,0,1,36.44,13.15,139.67,139.67,0,0,1,30.91,24.31,174.08,174.08,0,0,1,24.62,32.53A198.73,198.73,0,0,1,301.38,174.13Z"/><path id="Path_5473" data-name="Path 5473" class="cls-1" d="M127.39,217.58a131.12,131.12,0,0,0,10,40.73A113.74,113.74,0,0,0,158,290.57,82.24,82.24,0,0,0,185.1,310.5a58.4,58.4,0,0,0,29.84,4.91,54.55,54.55,0,0,0,26.67-10.49,70.56,70.56,0,0,0,19.22-22.1,97.53,97.53,0,0,0,10.82-30,122.21,122.21,0,0,0,1.39-35.2,130.82,130.82,0,0,0-8.43-34.85,118.39,118.39,0,0,0-16.53-29.24,91.25,91.25,0,0,0-23-21.23,64.9,64.9,0,0,0-27.92-10A53.48,53.48,0,0,0,168.88,127,62.61,62.61,0,0,0,145.68,146a89,89,0,0,0-15,31.3A119,119,0,0,0,127.39,217.58Zm142.5,0a116.5,116.5,0,0,1-1.34,33.55A92.51,92.51,0,0,1,258.2,279.7a66.6,66.6,0,0,1-18.34,20.93,51.71,51.71,0,0,1-25.37,9.82,55.61,55.61,0,0,1-28.32-4.79,78.14,78.14,0,0,1-25.66-19,108.17,108.17,0,0,1-19.41-30.57,124.5,124.5,0,0,1-9.48-38.54,113.57,113.57,0,0,1,3.1-38.12,84.77,84.77,0,0,1,14.09-29.7,59.81,59.81,0,0,1,21.94-18.2A50.87,50.87,0,0,1,197.57,127a61.28,61.28,0,0,1,26.58,9.38,86.26,86.26,0,0,1,21.94,20.14,112.14,112.14,0,0,1,15.77,27.84,124.43,124.43,0,0,1,8,33.23Z"/><path id="Ellipse_23" data-name="Ellipse 23" class="cls-1" d="M202.09,175.94a28,28,0,0,1,12.81,3.9,39.68,39.68,0,0,1,10.82,9.42,52.85,52.85,0,0,1,7.87,13.51,59.22,59.22,0,0,1,4,16.36,55,55,0,0,1-.82,16.44,42.58,42.58,0,0,1-5.31,13.7,30.59,30.59,0,0,1-9.1,9.64,24.21,24.21,0,0,1-12.21,4,26.82,26.82,0,0,1-13.2-2.87,37.9,37.9,0,0,1-11.65-9.16,51.66,51.66,0,0,1-8.69-14.13,59.23,59.23,0,0,1-4.29-17.54,54.27,54.27,0,0,1,1.21-17.46,41.15,41.15,0,0,1,6.14-14,29.08,29.08,0,0,1,9.92-9A23.88,23.88,0,0,1,202.09,175.94Z"/></g><g id="Group_5486" data-name="Group 5486"><path id="Path_5474" data-name="Path 5474" class="cls-1" d="M581.14,124.27l-39.36-12.89-3-38-44.75,41.85,10.2,48.64,58.56,24-12.52-35.94Z"/><path id="Path_5475" data-name="Path 5475" class="cls-1" d="M392.57,152.35l-4.59,1.5-52.9,17.27-5,1.6-36.5,11.89,38.73-3.82,5.22-.53,55.7-5.51,4.83-.48L492,164.93l-8.85-42.06Z"/></g></g></g></g></svg>