<svg xmlns="http://www.w3.org/2000/svg" width="421.654" height="416.703" viewBox="0 0 421.654 416.703">
  <defs>
    <style>
      .cls-1 {
        fill: #fff;
      }
    </style>
  </defs>
  <g id="portfolio" transform="translate(-804.932 -171.797)">
    <path id="Path_263" data-name="Path 263" class="cls-1" d="M-281.095,3690.41l56.9-46.19,1.943-2.146.5-1.163,46.623-97.85.038-.089-3.39-1.583-.038.081-46.389,97.28c-4.028.749-7.765,1.191-10.413-.684l-.03-.021c-2.042-1.47-3.444-4.306-4.24-8.657l42.886-96.125-10.885-5.094-13.467-6.3-43.838,97.542c-5.388,1.005-10.406,1.688-14.015-.878l-.038-.021c-2.866-2.063-4.75-6.085-5.769-12.289l42.458-94.271.038-.082h0l.016-.038-3.39-1.583-.014.038-.038.082-43.3,96.266-.105.241-.113.256.014.209.008.211,2.633,44.7.022.421,2.355,39.728m9.212-32.19-.052.435a.489.489,0,0,1-.067-.051Zm-5.866,25.147-1.6-27.068a42.34,42.34,0,0,0,8.008,7.66,23.237,23.237,0,0,0,8.95,4.029,16.748,16.748,0,0,0,3.2.292Z" transform="matrix(0.899, -0.438, 0.438, 0.899, -326.31, -3059.946)"/>
    <g id="Group_118" data-name="Group 118" transform="translate(786.771 355.636) rotate(-40)">
      <path id="Path_111" data-name="Path 111" class="cls-1" d="M1465.921,3717.876c-12.821,20.846-54.734,88.981-67.644,109.973a3.146,3.146,0,0,1-2.683,1.488h-.073a3.152,3.152,0,0,1-3.151-3.152h0V3736.5a3.157,3.157,0,0,1,2.022-2.938c17.344-6.742,13.932-34.815-5.924-35.984-21.447-1.595-27.15,28.691-8.522,35.984a3.14,3.14,0,0,1,1.985,2.927v89.7a3.152,3.152,0,0,1-3.151,3.152h-.065a3.147,3.147,0,0,1-2.683-1.488c-12.944-21.095-54.781-89.024-67.646-109.973a3.135,3.135,0,0,1-.02-3.256c7.713-12.93,32.917-53.158,40.948-66.5a3.143,3.143,0,0,1,2.7-1.521h70.232a3.143,3.143,0,0,1,2.712,1.549c8.012,13.58,33.161,53.411,40.949,66.463A3.14,3.14,0,0,1,1465.921,3717.876Z" transform="translate(-1307.922 -3618.347)"/>
      <rect id="Rectangle_44" data-name="Rectangle 44" class="cls-1" width="74.319" height="17.603" rx="8.801" transform="translate(42.076 0)"/>
    </g>
    <g id="Group_170" data-name="Group 170" transform="translate(1130.961 341.906) rotate(42)">
      <g id="Group_158" data-name="Group 158" transform="translate(7.75 7.623)">
        <g id="Group_132" data-name="Group 132">
          <g id="Group_131" data-name="Group 131">
            <g id="Group_120" data-name="Group 120">
              <g id="Group_119" data-name="Group 119">
                <path id="Path_112" data-name="Path 112" class="cls-1" d="M2716.807,3526.843l-.106-23.969,112.406-.5.107,23.969Zm2.8-21.089.08,18.183,106.62-.473-.08-18.184Z" transform="translate(-2716.701 -3502.375)"/>
              </g>
            </g>
            <g id="Group_122" data-name="Group 122" transform="translate(4.141 4.128)">
              <g id="Group_121" data-name="Group 121">
                <path id="Path_113" data-name="Path 113" class="cls-1" d="M2729.359,3531.522l-.074-16.529,16.531-.074.073,16.53Zm2.832-13.65.048,10.744,10.745-.049-.048-10.743Z" transform="translate(-2729.285 -3514.919)"/>
              </g>
            </g>
            <g id="Group_124" data-name="Group 124" transform="translate(4.575 4.407)">
              <g id="Group_123" data-name="Group 123" transform="translate(0 0)">
                <rect id="Rectangle_45" data-name="Rectangle 45" class="cls-1" width="2.893" height="19.284" transform="translate(0 2.054) rotate(-45.243)"/>
              </g>
            </g>
            <g id="Group_130" data-name="Group 130" transform="translate(60.58 10.571)">
              <g id="Group_125" data-name="Group 125" transform="translate(0 0.168)">
                <rect id="Rectangle_46" data-name="Rectangle 46" class="cls-1" width="6.199" height="2.893" transform="matrix(1, -0.004, 0.004, 1, 0, 0.028)"/>
              </g>
              <g id="Group_126" data-name="Group 126" transform="translate(9.453 0.126)">
                <rect id="Rectangle_47" data-name="Rectangle 47" class="cls-1" width="6.199" height="2.893" transform="matrix(1, -0.004, 0.004, 1, 0, 0.028)"/>
              </g>
              <g id="Group_127" data-name="Group 127" transform="translate(18.906 0.083)">
                <rect id="Rectangle_48" data-name="Rectangle 48" class="cls-1" width="6.199" height="2.893" transform="matrix(1, -0.004, 0.004, 1, 0, 0.028)"/>
              </g>
              <g id="Group_128" data-name="Group 128" transform="translate(28.359 0.043)">
                <rect id="Rectangle_49" data-name="Rectangle 49" class="cls-1" width="6.199" height="2.893" transform="matrix(1, -0.004, 0.004, 1, 0, 0.028)"/>
              </g>
              <g id="Group_129" data-name="Group 129" transform="translate(37.813 0)">
                <rect id="Rectangle_50" data-name="Rectangle 50" class="cls-1" width="6.199" height="2.893" transform="matrix(1, -0.004, 0.004, 1, 0, 0.028)"/>
              </g>
            </g>
          </g>
        </g>
        <g id="Group_134" data-name="Group 134" transform="translate(4.651 72.137)">
          <g id="Group_133" data-name="Group 133">
            <path id="Path_114" data-name="Path 114" class="cls-1" d="M2731.1,3780.737l-.26-58.675,103.727-.461.262,58.677Zm2.644-55.8.235,52.894,97.941-.436-.235-52.893Z" transform="translate(-2730.837 -3721.6)"/>
          </g>
        </g>
        <g id="Group_141" data-name="Group 141" transform="translate(1.48 32.652)">
          <g id="Group_136" data-name="Group 136" transform="translate(0 0)">
            <g id="Group_135" data-name="Group 135" transform="translate(0)">
              <rect id="Rectangle_51" data-name="Rectangle 51" class="cls-1" width="63.435" height="2.893" transform="matrix(1, -0.004, 0.004, 1, 0, 0.283)"/>
            </g>
          </g>
          <g id="Group_138" data-name="Group 138" transform="translate(0.032 7.275)">
            <g id="Group_137" data-name="Group 137" transform="translate(0 0)">
              <rect id="Rectangle_52" data-name="Rectangle 52" class="cls-1" width="99.801" height="2.893" transform="matrix(1, -0.004, 0.004, 1, 0, 0.446)"/>
            </g>
          </g>
          <g id="Group_140" data-name="Group 140" transform="translate(0.066 14.877)">
            <g id="Group_139" data-name="Group 139" transform="translate(0 0)">
              <rect id="Rectangle_53" data-name="Rectangle 53" class="cls-1" width="63.435" height="2.893" transform="matrix(1, -0.004, 0.004, 1, 0, 0.283)"/>
            </g>
          </g>
        </g>
        <g id="Group_146" data-name="Group 146" transform="translate(2.881 138.965)">
          <g id="Group_143" data-name="Group 143">
            <g id="Group_142" data-name="Group 142">
              <path id="Path_115" data-name="Path 115" class="cls-1" d="M2725.512,3937.676l-.056-12.812,36.779-.169.058,12.81Zm2.849-9.931.032,7.026,30.993-.137-.03-7.024Z" transform="translate(-2725.456 -3924.694)"/>
            </g>
          </g>
          <g id="Group_145" data-name="Group 145" transform="translate(5.808 4.991)">
            <g id="Group_144" data-name="Group 144" transform="translate(0 0)">
              <rect id="Rectangle_54" data-name="Rectangle 54" class="cls-1" width="25.209" height="2.893" transform="matrix(1, -0.004, 0.004, 1, 0, 0.113)"/>
            </g>
          </g>
        </g>
        <g id="Group_148" data-name="Group 148" transform="translate(2.575 157.27)">
          <g id="Group_147" data-name="Group 147">
            <path id="Path_116" data-name="Path 116" class="cls-1" d="M2724.7,4018.806l-.17-38.018,104.14-.464.169,38.02Zm2.736-35.14.142,32.234,98.355-.437-.143-32.232Z" transform="translate(-2724.526 -3980.324)"/>
          </g>
        </g>
        <g id="Group_150" data-name="Group 150" transform="translate(5.436 72.764)">
          <g id="Group_149" data-name="Group 149" transform="translate(0 0)">
            <rect id="Rectangle_55" data-name="Rectangle 55" class="cls-1" width="2.893" height="115.239" transform="translate(0 2.538) rotate(-61.3)"/>
          </g>
        </g>
        <g id="Group_152" data-name="Group 152" transform="translate(5.674 72.321)">
          <g id="Group_151" data-name="Group 151" transform="translate(0 0)">
            <rect id="Rectangle_56" data-name="Rectangle 56" class="cls-1" width="115.239" height="2.893" transform="translate(0 56.24) rotate(-29.211)"/>
          </g>
        </g>
        <g id="Group_157" data-name="Group 157" transform="translate(8.594 163.154)">
          <g id="Group_154" data-name="Group 154" transform="translate(0 0)">
            <g id="Group_153" data-name="Group 153" transform="translate(0)">
              <rect id="Rectangle_57" data-name="Rectangle 57" class="cls-1" width="76.04" height="2.893" transform="matrix(1, -0.004, 0.004, 1, 0, 0.34)"/>
            </g>
          </g>
          <g id="Group_156" data-name="Group 156" transform="translate(0.027 6.131)">
            <g id="Group_155" data-name="Group 155" transform="translate(0 0)">
              <rect id="Rectangle_58" data-name="Rectangle 58" class="cls-1" width="91.33" height="2.893" transform="matrix(1, -0.004, 0.004, 1, 0, 0.408)"/>
            </g>
          </g>
        </g>
      </g>
      <g id="Group_167" data-name="Group 167" transform="translate(16.751 185.821)">
        <g id="Group_160" data-name="Group 160" transform="translate(0 0.328)">
          <g id="Group_159" data-name="Group 159">
            <path id="Path_117" data-name="Path 117" class="cls-1" d="M2744.091,4053.677l-.037-8.674,17.769-.08.038,8.673Zm2.041-6.622.02,4.546,13.636-.062-.02-4.546Z" transform="translate(-2744.054 -4044.923)"/>
          </g>
        </g>
        <g id="Group_162" data-name="Group 162" transform="translate(24.654 0.221)">
          <g id="Group_161" data-name="Group 161">
            <path id="Path_118" data-name="Path 118" class="cls-1" d="M2819.016,4053.349l-.037-8.674,17.769-.079.037,8.675Zm2.041-6.621.02,4.546,13.637-.062-.021-4.545Z" transform="translate(-2818.979 -4044.596)"/>
          </g>
        </g>
        <g id="Group_164" data-name="Group 164" transform="translate(49.312 0.111)">
          <g id="Group_163" data-name="Group 163">
            <path id="Path_119" data-name="Path 119" class="cls-1" d="M2893.952,4053.015l-.037-8.674,17.77-.08.038,8.674Zm2.041-6.62.02,4.547,13.637-.061-.021-4.547Z" transform="translate(-2893.915 -4044.261)"/>
          </g>
        </g>
        <g id="Group_166" data-name="Group 166" transform="translate(73.97)">
          <g id="Group_165" data-name="Group 165">
            <path id="Path_120" data-name="Path 120" class="cls-1" d="M2968.887,4052.678l-.038-8.673,17.77-.081.039,8.675Zm2.041-6.62.021,4.545,13.637-.061-.021-4.547Z" transform="translate(-2968.85 -4043.924)"/>
          </g>
        </g>
      </g>
      <g id="Group_169" data-name="Group 169">
        <g id="Group_168" data-name="Group 168">
          <path id="Path_121" data-name="Path 121" class="cls-1" d="M2694.1,3695.172l-.957-215.4,127.719-.568.958,215.4Zm3.194-211.281.92,207.13,119.454-.53-.92-207.123Z" transform="translate(-2693.147 -3479.208)"/>
        </g>
      </g>
    </g>
  </g>
</svg>
