<svg xmlns="http://www.w3.org/2000/svg" width="705.182" height="652.455" viewBox="0 0 705.182 652.455">
  <g id="position" transform="translate(-216 -81.087)">
    <path id="Path_5985" data-name="Path 5985" d="M414.808,386H216V681.872H511.872V522.826H414.808ZM383.735,554.4h-41l-1.778-4.549a80.534,80.534,0,0,0,19.2-15.238q7.49-8.332,7.5-16.08a8.781,8.781,0,0,0-2.573-6.607,9.9,9.9,0,0,0-7.192-2.491,15.052,15.052,0,0,0-7.368,1.649,29.9,29.9,0,0,0-5.859,4.245l-3.193-4.631a22.788,22.788,0,0,1,4.83-4.292,30.6,30.6,0,0,1,7.379-3.66,25.5,25.5,0,0,1,8.5-1.474,22.764,22.764,0,0,1,10.315,2.1,14.477,14.477,0,0,1,6.186,5.555,14.912,14.912,0,0,1,2.023,7.66q0,8.087-7.754,16.255a84.712,84.712,0,0,1-19.694,14.981l24.418-2.269,3.193-7.075,5.309,1.1Z" transform="translate(0 51.669)" fill="#c7c7c7"/>
    <path id="Path_5986" data-name="Path 5986" d="M686.873,437.669V272.776H551.216V81.09H539.521V272.776H391V568.648H686.873Zm-131.3,9.87h-32.09v-4.97l10.1-.842V406.281a48.723,48.723,0,0,1-5.134,1.31c-2.468.526-4.409.877-5.812,1.053l-.924-5.894a40.042,40.042,0,0,0,9.473-3.333,39.54,39.54,0,0,0,8.046-5.005h.082l6.654.924v46.31l9.6.924Z" transform="translate(29.655 0)" fill="#c7c7c7"/>
    <path id="Path_5987" data-name="Path 5987" d="M663.065,386V522.826H566V681.872H861.873V386Zm64.566,177.839a24.136,24.136,0,0,1-10.478,7.613,41.881,41.881,0,0,1-15.917,2.783,42.733,42.733,0,0,1-5.344-.374,36.578,36.578,0,0,1-4.76-.889v-6.233a25.7,25.7,0,0,0,7.578,1.1,24.849,24.849,0,0,0,10.233-1.941,15.453,15.453,0,0,0,6.607-5.216,12.41,12.41,0,0,0,2.269-7.239c0-3.6-1.064-6.374-3.192-8.338s-5.31-3.005-9.52-3.122l-5.052,1.263-1.766-5.134a27.451,27.451,0,0,0,6.818-2.1,20.178,20.178,0,0,0,7.578-5.508,11.117,11.117,0,0,0,2.7-7.122c0-2.807-.865-4.853-2.573-6.14a10.5,10.5,0,0,0-6.526-1.941,18.982,18.982,0,0,0-6.947,1.263,20.608,20.608,0,0,0-5.52,3.111l-2.947-5.134a26.131,26.131,0,0,1,7.964-4.631,29.319,29.319,0,0,1,11.239-2.269q8,0,13,3.4,5.017,3.421,5.017,10.315a14.6,14.6,0,0,1-4.713,10.7,31.368,31.368,0,0,1-11.543,7.075c.562-.058,1.4-.094,2.526-.094q7.49,0,12.174,3.789a12.355,12.355,0,0,1,4.666,10.1A17.185,17.185,0,0,1,727.631,563.839Z" transform="translate(59.31 51.669)" fill="#c7c7c7"/>
    <path id="Path_5988" data-name="Path 5988" d="M468.526,145.2a43.919,43.919,0,0,1,30.836,6.95c10.3,6.151,20.634,17.33,30.99,23.032-.407-31.421.408-62.788,0-94.1C520.3,85.948,509,84.652,498.9,87.706c-10.1,2.534-20.227,9.42-30.378,18.6-20.3,18.288-40.708,44.412-61.214,21.713C427.614,160.952,448.02,147.8,468.526,145.2Z" transform="translate(32.419 0)" fill="#c7c7c7"/>
  </g>
</svg>
