<svg xmlns="http://www.w3.org/2000/svg" viewBox="0 0 1788.9 3145.32"><defs><style>.cls-1{fill:#f5f5f5;}.cls-10,.cls-2,.cls-3,.cls-4,.cls-5,.cls-6,.cls-7,.cls-8,.cls-9{isolation:isolate;}.cls-3{font-size:36.32px;letter-spacing:0.01em;}.cls-10,.cls-3,.cls-5,.cls-6,.cls-7,.cls-8,.cls-9{fill:#fafafa;font-family:Poppins-Bold, Poppins;font-weight:700;text-decoration:underline;}.cls-4{font-size:29.91px;fill:#fff;font-family:Poppins-Regular, Poppins;}.cls-5{font-size:35.59px;letter-spacing:0.01em;}.cls-6{font-size:35.64px;letter-spacing:0.01em;}.cls-7{font-size:35.75px;letter-spacing:0.01em;}.cls-8{font-size:33.11px;letter-spacing:0.01em;}.cls-9{font-size:35.54px;letter-spacing:0.01em;}.cls-10{font-size:34.52px;letter-spacing:0.01em;}</style></defs><g id="Layer_2" data-name="Layer 2"><g id="Layer_1-2" data-name="Layer 1"><path id="Path_5534" data-name="Path 5534" class="cls-1" d="M768.14,1288a14.07,14.07,0,0,0,6.14-5.76,19.64,19.64,0,0,0,0-17.82,14.36,14.36,0,0,0-6.14-5.84,20.67,20.67,0,0,0-9.47-2H748.25V1290h10.42A20.94,20.94,0,0,0,768.14,1288Zm-15.52-27.9h6A12.05,12.05,0,0,1,772,1273.38a13,13,0,0,1-3.4,9.61q-3.42,3.43-9.89,3.43h-6Z"/><rect id="Rectangle_1923" data-name="Rectangle 1923" class="cls-1" x="782.17" y="1263.73" width="4.37" height="26.29"/><path id="Path_5535" data-name="Path 5535" class="cls-1" d="M784.43,1259.45a2.76,2.76,0,0,0,2-.86,3.07,3.07,0,0,0,0-4.22,2.77,2.77,0,0,0-2-.87,3,3,0,1,0,0,6Z"/><path id="Path_5536" data-name="Path 5536" class="cls-1" d="M803.24,1286.76a7.05,7.05,0,0,1-4.34-1.25,4.42,4.42,0,0,1-1.85-3.21h-4.51a7.73,7.73,0,0,0,1.54,4.25,9.13,9.13,0,0,0,3.79,2.87,13.58,13.58,0,0,0,5.42,1,12,12,0,0,0,5-1,8.07,8.07,0,0,0,3.38-2.71,6.68,6.68,0,0,0,1.2-3.89,5.88,5.88,0,0,0-1.32-3.88,8.07,8.07,0,0,0-3-2.24,36.92,36.92,0,0,0-4.6-1.51c-1.19-.32-2.37-.69-3.53-1.13a6,6,0,0,1-2.11-1.34,2.94,2.94,0,0,1-.84-2.14,3.14,3.14,0,0,1,1.39-2.64,6.28,6.28,0,0,1,3.75-1,6.12,6.12,0,0,1,4,1.24,4.5,4.5,0,0,1,1.66,3.32h4.37a8,8,0,0,0-2.88-6,10.73,10.73,0,0,0-7-2.21,12.29,12.29,0,0,0-5,1,8,8,0,0,0-3.4,2.67,6.65,6.65,0,0,0,.11,7.79,8.46,8.46,0,0,0,3.17,2.35,36.41,36.41,0,0,0,4.77,1.56,21.39,21.39,0,0,1,4.75,1.65,2.75,2.75,0,0,1,1.54,2.57,3.34,3.34,0,0,1-1.44,2.78A6.27,6.27,0,0,1,803.24,1286.76Z"/><path id="Path_5537" data-name="Path 5537" class="cls-1" d="M823.55,1288.77a13.11,13.11,0,0,0,6.65,1.68,12.62,12.62,0,0,0,7.91-2.43,11.59,11.59,0,0,0,4.23-6.45h-4.71a6.81,6.81,0,0,1-2.63,3.84,8.1,8.1,0,0,1-4.8,1.34,7.68,7.68,0,0,1-6.05-2.59,10.68,10.68,0,0,1-2.3-7.34,10.46,10.46,0,0,1,2.3-7.26,7.7,7.7,0,0,1,6.05-2.57,8,8,0,0,1,4.82,1.39,6.66,6.66,0,0,1,2.61,3.79h4.71a11.15,11.15,0,0,0-4.15-6.53,14.39,14.39,0,0,0-14.64-.67,11.78,11.78,0,0,0-4.54,4.72,15,15,0,0,0-1.62,7.13A15.22,15.22,0,0,0,819,1284,11.79,11.79,0,0,0,823.55,1288.77Z"/><path id="Path_5538" data-name="Path 5538" class="cls-1" d="M852.92,1288.77a13.45,13.45,0,0,0,6.68,1.68,14,14,0,0,0,6.82-1.68,12.52,12.52,0,0,0,4.87-4.79,15.29,15.29,0,0,0,0-14.32,12,12,0,0,0-4.77-4.72,14.58,14.58,0,0,0-13.53,0,12,12,0,0,0-4.78,4.74,14.29,14.29,0,0,0-1.74,7.13,14.66,14.66,0,0,0,1.69,7.17A12,12,0,0,0,852.92,1288.77Zm-.75-17.32a7.84,7.84,0,0,1,3.19-3.29,9.4,9.4,0,0,1,8.75,0,8.22,8.22,0,0,1,3.27,3.29,10.77,10.77,0,0,1,1.24,5.37,10.59,10.59,0,0,1-1.27,5.37,8.31,8.31,0,0,1-3.34,3.31,9.05,9.05,0,0,1-4.41,1.11,8.93,8.93,0,0,1-4.32-1.08,7.79,7.79,0,0,1-3.14-3.29,11.29,11.29,0,0,1-1.17-5.42,11.12,11.12,0,0,1,1.2-5.37Z"/><path id="Path_5539" data-name="Path 5539" class="cls-1" d="M891.13,1290l10.32-26.29h-4.66L888.64,1286l-8.21-22.26h-4.7L886.05,1290Z"/><path id="Path_5540" data-name="Path 5540" class="cls-1" d="M910.44,1288.77a13.28,13.28,0,0,0,6.69,1.68,12.81,12.81,0,0,0,7.87-2.38,11.3,11.3,0,0,0,4.22-6.16h-4.7a7,7,0,0,1-2.66,3.52,8.09,8.09,0,0,1-4.73,1.33,8.28,8.28,0,0,1-8.54-8v-.26h21a23.36,23.36,0,0,0,.15-2.64,13.17,13.17,0,0,0-1.56-6.45,11.26,11.26,0,0,0-4.43-4.49,13.21,13.21,0,0,0-6.62-1.63,13.53,13.53,0,0,0-6.79,1.66,11.32,11.32,0,0,0-4.58,4.72,16.38,16.38,0,0,0,0,14.33A12,12,0,0,0,910.44,1288.77Zm.87-19.68a8.05,8.05,0,0,1,5.63-2.1,9.4,9.4,0,0,1,4.2.93,7.32,7.32,0,0,1,3,2.73,8.14,8.14,0,0,1,1.1,4.3h-16.6a8.62,8.62,0,0,1,2.66-5.85Z"/><path id="Path_5541" data-name="Path 5541" class="cls-1" d="M939.87,1275.73q0-8,7.34-8h1.15v-4.52a10.29,10.29,0,0,0-5.21,1.25,8.39,8.39,0,0,0-3.28,3.5v-4.27h-4.36V1290h4.36Z"/><path id="Path_5542" data-name="Path 5542" class="cls-1" d="M958.81,1294.82l-3.11,7.58h4.51l3.1-7.58h13.41v-2.39H964.3l11.75-28.7h-4.51L963.38,1285l-8.25-21.31h-4.84l10.6,26-1.1,2.69H744.56v2.4Z"/><path id="Path_5543" data-name="Path 5543" class="cls-1" d="M815.06,2107.81a14,14,0,0,0,6.14-5.76,19.64,19.64,0,0,0,0-17.82,14.28,14.28,0,0,0-6.14-5.83,20.68,20.68,0,0,0-9.47-2H795.18v33.45h10.41A21.07,21.07,0,0,0,815.06,2107.81Zm-15.52-27.9h6a13.8,13.8,0,0,1,9.89,22.87q-3.4,3.42-9.89,3.42h-6Z"/><path id="Path_5544" data-name="Path 5544" class="cls-1" d="M833.77,2108.56a13.31,13.31,0,0,0,6.7,1.67,12.71,12.71,0,0,0,7.86-2.37,11.31,11.31,0,0,0,4.23-6.17h-4.71a6.9,6.9,0,0,1-2.66,3.53,8,8,0,0,1-4.72,1.32,8.25,8.25,0,0,1-8.54-8v-.27h21c.09-.93.15-1.81.15-2.64a13.17,13.17,0,0,0-1.56-6.45,11.41,11.41,0,0,0-4.44-4.49,13.08,13.08,0,0,0-6.62-1.63,13.53,13.53,0,0,0-6.79,1.66,11.44,11.44,0,0,0-4.58,4.72,15,15,0,0,0-1.63,7.15,14.85,14.85,0,0,0,1.68,7.18A12,12,0,0,0,833.77,2108.56Zm.86-19.68a8.09,8.09,0,0,1,5.64-2.1,9.37,9.37,0,0,1,4.2.93,7.19,7.19,0,0,1,3,2.73,8.12,8.12,0,0,1,1.1,4.3H832a8.65,8.65,0,0,1,2.66-5.86Z"/><path id="Path_5545" data-name="Path 5545" class="cls-1" d="M868.1,2106.54a6.92,6.92,0,0,1-4.34-1.25,4.42,4.42,0,0,1-1.85-3.21H857.4a7.7,7.7,0,0,0,1.54,4.25,9.17,9.17,0,0,0,3.79,2.87,13.44,13.44,0,0,0,5.42,1,12,12,0,0,0,5-1,8,8,0,0,0,3.39-2.7,6.67,6.67,0,0,0,1.19-3.89,5.92,5.92,0,0,0-1.32-3.89,7.91,7.91,0,0,0-3-2.23,37.11,37.11,0,0,0-4.61-1.52,33.52,33.52,0,0,1-3.52-1.13,5.93,5.93,0,0,1-2.11-1.34,2.91,2.91,0,0,1-.85-2.14,3.12,3.12,0,0,1,1.4-2.64,7.33,7.33,0,0,1,7.79.24,4.51,4.51,0,0,1,1.66,3.31h4.36a7.93,7.93,0,0,0-2.87-6,10.76,10.76,0,0,0-7.06-2.21,12.23,12.23,0,0,0-5,1,8.14,8.14,0,0,0-3.41,2.67,6.67,6.67,0,0,0,.12,7.8,8.44,8.44,0,0,0,3.17,2.34,33.52,33.52,0,0,0,4.76,1.56,21.67,21.67,0,0,1,4.76,1.66,2.74,2.74,0,0,1,1.54,2.56,3.41,3.41,0,0,1-1.45,2.79A6.25,6.25,0,0,1,868.1,2106.54Z"/><path id="Path_5546" data-name="Path 5546" class="cls-1" d="M886.14,2079.24a2.68,2.68,0,0,0,2-.86,3.05,3.05,0,0,0,0-4.22,2.73,2.73,0,0,0-2-.87,3,3,0,1,0,0,5.95Z"/><rect id="Rectangle_1924" data-name="Rectangle 1924" class="cls-1" x="883.88" y="2083.51" width="4.37" height="26.29"/><path id="Path_5547" data-name="Path 5547" class="cls-1" d="M932.48,2095.26a8.8,8.8,0,0,1,2-6.28,7.2,7.2,0,0,1,5.49-2.16,7.06,7.06,0,0,1,5.38,2.09,8.47,8.47,0,0,1,2,6v14.87h4.32v-15.5a11.13,11.13,0,0,0-3-8.37,10.67,10.67,0,0,0-7.78-2.91,10.9,10.9,0,0,0-4.92,1.11,8.61,8.61,0,0,0-3.52,3.11v-3.74h-4.37v26.3h4.37Z"/><path id="Path_5548" data-name="Path 5548" class="cls-1" d="M895.68,2114.6a9.46,9.46,0,0,0,3.84,5.71,14.58,14.58,0,0,0,8.64,2.45,13.58,13.58,0,0,0,6.64-1.58,10.94,10.94,0,0,0,4.39-4.4,12.27,12.27,0,0,0,.84-2.18h35.1v-2.4h-34.6a15.65,15.65,0,0,0,.2-1.81v-26.88h-4.41v4.8a9.94,9.94,0,0,0-3.82-3.74,11.75,11.75,0,0,0-6-1.5,12.37,12.37,0,0,0-6.36,1.69,11.79,11.79,0,0,0-4.49,4.72,14.76,14.76,0,0,0-1.63,7.08,15,15,0,0,0,1.63,7.1,11.92,11.92,0,0,0,10.84,6.57,11.27,11.27,0,0,0,6-1.53,10.63,10.63,0,0,0,3.84-3.84v5.52a13.8,13.8,0,0,1-.13,1.82H791.48v2.39Zm19.44-12.79a8.42,8.42,0,0,1-3.23,3.41,9,9,0,0,1-4.49,1.18,8.71,8.71,0,0,1-4.46-1.18,8.37,8.37,0,0,1-3.21-3.41,11.93,11.93,0,0,1,0-10.43,8.31,8.31,0,0,1,3.21-3.36,9.19,9.19,0,0,1,8.95,0,8.59,8.59,0,0,1,3.24,3.39,11.87,11.87,0,0,1,0,10.38Zm-1.08,14.9a8,8,0,0,1-5.87,2.26,9.85,9.85,0,0,1-5.42-1.46,7,7,0,0,1-2.49-2.91h15.2a7,7,0,0,1-1.42,2.11Z"/><path id="Path_5549" data-name="Path 5549" class="cls-1" d="M655,2527.1h6.43q5.85,0,8.71-2.76a9.88,9.88,0,0,0-.07-14l0,0a12.24,12.24,0,0,0-8.61-2.74h-10.8v33.44H655Zm0-15.88h6.43q7.1,0,7.1,6.19a5.85,5.85,0,0,1-1.73,4.51,7.7,7.7,0,0,1-5.37,1.58H655Z"/><path id="Path_5550" data-name="Path 5550" class="cls-1" d="M682.76,2526.77q0-8,7.34-8h1.15v-4.51a10.26,10.26,0,0,0-5.2,1.25,8.35,8.35,0,0,0-3.29,3.5v-4.27h-4.37v26.3h4.37Z"/><path id="Path_5551" data-name="Path 5551" class="cls-1" d="M701.06,2539.81a13.28,13.28,0,0,0,6.69,1.68,13.72,13.72,0,0,0,6.81-1.68,12.43,12.43,0,0,0,4.88-4.77,15.35,15.35,0,0,0,0-14.33,12,12,0,0,0-4.77-4.72,14.63,14.63,0,0,0-13.53,0,12,12,0,0,0-4.77,4.75,14.18,14.18,0,0,0-1.75,7.12,14.71,14.71,0,0,0,1.7,7.18A11.88,11.88,0,0,0,701.06,2539.81Zm-.75-17.31a8,8,0,0,1,3.19-3.3,9.48,9.48,0,0,1,8.76,0,8.22,8.22,0,0,1,3.26,3.3,10.68,10.68,0,0,1,1.25,5.37,10.57,10.57,0,0,1-1.27,5.37,8.31,8.31,0,0,1-3.34,3.31,9.05,9.05,0,0,1-4.41,1.11,8.93,8.93,0,0,1-4.32-1.08,7.84,7.84,0,0,1-3.14-3.29,11.46,11.46,0,0,1-1.17-5.42A11.09,11.09,0,0,1,700.31,2522.5Z"/><path id="Path_5552" data-name="Path 5552" class="cls-1" d="M731.48,2539.77a12.13,12.13,0,0,0,6.35,1.73,11.48,11.48,0,0,0,5.95-1.52,10.17,10.17,0,0,0,3.84-3.86v4.94H752v-35.5h-4.42v13.91a10.3,10.3,0,0,0-4-3.72,11.87,11.87,0,0,0-5.71-1.41,12.42,12.42,0,0,0-6.41,1.68,11.82,11.82,0,0,0-4.49,4.73,14.81,14.81,0,0,0-1.63,7.07,15.17,15.17,0,0,0,1.63,7.1A12,12,0,0,0,731.48,2539.77Zm-.45-17.13a8.44,8.44,0,0,1,3.21-3.36,9.19,9.19,0,0,1,9,0,8.43,8.43,0,0,1,3.24,3.38,10.6,10.6,0,0,1,1.19,5.18,10.77,10.77,0,0,1-1.19,5.2,8.44,8.44,0,0,1-3.24,3.41,9.08,9.08,0,0,1-9,0,8.43,8.43,0,0,1-3.21-3.41,11,11,0,0,1-1.2-5.25,10.6,10.6,0,0,1,1.19-5.18Z"/><path id="Path_5553" data-name="Path 5553" class="cls-1" d="M764.45,2540.17a11.79,11.79,0,0,0,5.53,1.27,10.72,10.72,0,0,0,4.91-1.13,8.45,8.45,0,0,0,3.48-3.14v3.89h4.37v-26.29h-4.37v14.44a8.9,8.9,0,0,1-2,6.28,7.2,7.2,0,0,1-5.52,2.16,7.07,7.07,0,0,1-5.38-2.08,8.46,8.46,0,0,1-2-6v-14.83h-4.32v15.41a12.54,12.54,0,0,0,1.42,6.18A9.27,9.27,0,0,0,764.45,2540.17Z"/><path id="Path_5554" data-name="Path 5554" class="cls-1" d="M794.66,2539.81a12.91,12.91,0,0,0,6.65,1.68,12.53,12.53,0,0,0,7.91-2.42,11.47,11.47,0,0,0,4.22-6.45h-4.69a6.83,6.83,0,0,1-2.64,3.84,8.17,8.17,0,0,1-4.8,1.34,7.68,7.68,0,0,1-6-2.59,12.75,12.75,0,0,1,0-14.61,7.8,7.8,0,0,1,6-2.56,8.11,8.11,0,0,1,4.82,1.39,6.81,6.81,0,0,1,2.62,3.79h4.69a11.08,11.08,0,0,0-4.14-6.53,14.42,14.42,0,0,0-14.64-.67,11.92,11.92,0,0,0-4.53,4.73,14.92,14.92,0,0,0-1.63,7.12,15.12,15.12,0,0,0,1.63,7.2A11.68,11.68,0,0,0,794.66,2539.81Z"/><path id="Path_5555" data-name="Path 5555" class="cls-1" d="M820.21,2533.87a7.18,7.18,0,0,0,1.82,5.51,7.74,7.74,0,0,0,5.47,1.68h3.93v-3.69h-3.21a4,4,0,0,1-2.83-.79,3.7,3.7,0,0,1-.82-2.71v-15.5h6.86v-3.6h-6.86v-6.62h-4.36v6.62H816.8v3.6h3.41Z"/><path id="Path_5556" data-name="Path 5556" class="cls-1" d="M839,2510.5a2.68,2.68,0,0,0,2-.86,3.07,3.07,0,0,0,0-4.22,2.69,2.69,0,0,0-2-.87,3,3,0,1,0,0,5.95Z"/><rect id="Rectangle_1925" data-name="Rectangle 1925" class="cls-1" x="836.71" y="2514.77" width="4.37" height="26.29"/><path id="Path_5557" data-name="Path 5557" class="cls-1" d="M853.29,2539.81a13.28,13.28,0,0,0,6.69,1.68,13.72,13.72,0,0,0,6.81-1.68,12.34,12.34,0,0,0,4.87-4.77,14.09,14.09,0,0,0,1.8-7.18,14.29,14.29,0,0,0-1.75-7.15,12.12,12.12,0,0,0-4.78-4.72,14.63,14.63,0,0,0-13.53,0,12,12,0,0,0-4.77,4.75,14.18,14.18,0,0,0-1.75,7.12,14.6,14.6,0,0,0,1.7,7.18A11.88,11.88,0,0,0,853.29,2539.81Zm-.75-17.31a7.93,7.93,0,0,1,3.19-3.3,9.48,9.48,0,0,1,8.76,0,8.28,8.28,0,0,1,3.26,3.3,10.77,10.77,0,0,1,1.24,5.37,10.48,10.48,0,0,1-1.26,5.37,8.44,8.44,0,0,1-3.34,3.31,9.19,9.19,0,0,1-4.41,1.11,8.9,8.9,0,0,1-4.32-1.08,7.78,7.78,0,0,1-3.14-3.29,11.35,11.35,0,0,1-1.18-5.42,11.21,11.21,0,0,1,1.2-5.37Z"/><path id="Path_5558" data-name="Path 5558" class="cls-1" d="M883.58,2526.53a8.8,8.8,0,0,1,2-6.28,7.18,7.18,0,0,1,5.5-2.16,7.06,7.06,0,0,1,5.37,2.09,8.46,8.46,0,0,1,2,6v14.88h4.32v-15.51a11.19,11.19,0,0,0-3-8.38,10.68,10.68,0,0,0-7.78-2.9,11,11,0,0,0-4.91,1.1,8.76,8.76,0,0,0-3.54,3.12v-3.74h-4.36v26.29h4.36Z"/><rect id="Rectangle_1926" data-name="Rectangle 1926" class="cls-1" x="646.92" y="2543.46" width="259.31" height="2.4"/><path id="Path_5559" data-name="Path 5559" class="cls-1" d="M803.71,2929.77a14,14,0,0,0,6.13-5.76,19.64,19.64,0,0,0,0-17.82,14.26,14.26,0,0,0-6.13-5.83,20.7,20.7,0,0,0-9.48-2H783.82v33.44h10.41A21.1,21.1,0,0,0,803.71,2929.77Zm-15.52-27.9h6a13.8,13.8,0,0,1,9.89,22.87q-3.42,3.42-9.89,3.43h-6Z"/><path id="Path_5560" data-name="Path 5560" class="cls-1" d="M822.42,2930.52a13.41,13.41,0,0,0,6.7,1.67,12.74,12.74,0,0,0,7.87-2.37,11.27,11.27,0,0,0,4.21-6.17h-4.69a7,7,0,0,1-2.67,3.53,8.07,8.07,0,0,1-4.72,1.32,8.26,8.26,0,0,1-8.54-8v-.29h21c.09-.93.15-1.81.15-2.64a13.17,13.17,0,0,0-1.56-6.45,11.39,11.39,0,0,0-4.43-4.49,13.32,13.32,0,0,0-6.63-1.63,13.62,13.62,0,0,0-6.78,1.66,11.47,11.47,0,0,0-4.59,4.72,15.19,15.19,0,0,0-1.63,7.16,14.9,14.9,0,0,0,1.68,7.17A11.91,11.91,0,0,0,822.42,2930.52Zm.86-19.68a8.13,8.13,0,0,1,5.65-2.1,9.4,9.4,0,0,1,4.2.93,7.1,7.1,0,0,1,3,2.73,8,8,0,0,1,1.1,4.3h-16.6a8.69,8.69,0,0,1,2.66-5.86Z"/><rect id="Rectangle_1927" data-name="Rectangle 1927" class="cls-1" x="879.92" y="2896.26" width="4.37" height="35.5"/><path id="Path_5561" data-name="Path 5561" class="cls-1" d="M896.5,2930.52a13.48,13.48,0,0,0,6.69,1.67,13.93,13.93,0,0,0,6.81-1.67,12.52,12.52,0,0,0,4.88-4.78,14,14,0,0,0,1.79-7.18,14.19,14.19,0,0,0-1.75-7.15,12.16,12.16,0,0,0-4.77-4.72,14.65,14.65,0,0,0-13.54,0,12,12,0,0,0-4.77,4.75,14.18,14.18,0,0,0-1.75,7.12,14.71,14.71,0,0,0,1.7,7.18A12,12,0,0,0,896.5,2930.52Zm-.75-17.33a7.94,7.94,0,0,1,3.19-3.28,9.42,9.42,0,0,1,8.76,0,8.23,8.23,0,0,1,3.26,3.28,11,11,0,0,1,1.25,5.39,10.69,10.69,0,0,1-1.27,5.37,8.5,8.5,0,0,1-3.34,3.31,9.16,9.16,0,0,1-4.41,1.1,8.79,8.79,0,0,1-4.32-1.08,7.73,7.73,0,0,1-3.14-3.29,11.28,11.28,0,0,1-1.18-5.41,11.09,11.09,0,0,1,1.21-5.39Z"/><path id="Path_5562" data-name="Path 5562" class="cls-1" d="M847.49,2936.56v7.68h4.37v-7.68h76l-3.1,7.58h4.51l3.1-7.58h13.4v-2.39H933.33l11.75-28.69h-4.52l-8.15,21.3-8.26-21.3h-4.83l10.6,26-1.1,2.7h-77v-7.25a10.79,10.79,0,0,0,3.91,3.77,11.39,11.39,0,0,0,5.93,1.5,11.93,11.93,0,0,0,10.84-6.57,16.23,16.23,0,0,0,0-14.18,11.79,11.79,0,0,0-4.49-4.72,12.2,12.2,0,0,0-6.35-1.68,11.57,11.57,0,0,0-6,1.51,10.49,10.49,0,0,0-3.86,3.77v-4.85H847.5v28.7H780.14v2.39Zm5.59-23.15a8.6,8.6,0,0,1,7.7-4.58,8.85,8.85,0,0,1,4.49,1.16,8.29,8.29,0,0,1,3.24,3.35,10.76,10.76,0,0,1,1.2,5.19,11,11,0,0,1-1.2,5.25,8.51,8.51,0,0,1-3.24,3.41,9.1,9.1,0,0,1-8.93,0,8.62,8.62,0,0,1-3.26-3.41,11.61,11.61,0,0,1,0-10.37Z"/><path id="Path_5563" data-name="Path 5563" class="cls-1" d="M1017.25,218.06,623.65,445.31l393.6,227.24Zm-4.8,446.18L633.24,445.31l379.21-218.93Z"/><path id="Path_5527" data-name="Path 5527" class="cls-1" d="M677.13,894.46a7,7,0,0,1-5-1.61,6.14,6.14,0,0,1-1.94-4h-4.66a8.33,8.33,0,0,0,1.54,4.82,9.76,9.76,0,0,0,4.1,3.26,14.06,14.06,0,0,0,5.93,1.18,12.67,12.67,0,0,0,6-1.34A9.48,9.48,0,0,0,687,893.3a8.79,8.79,0,0,0,1.3-4.6,8,8,0,0,0-1.44-5,8.87,8.87,0,0,0-3.46-2.73,38.72,38.72,0,0,0-5.32-1.8c-1.82-.51-3.24-1-4.25-1.37a6.77,6.77,0,0,1-2.54-1.75,4.28,4.28,0,0,1-1-3,4.84,4.84,0,0,1,1.73-4,6.82,6.82,0,0,1,4.46-1.41,7.16,7.16,0,0,1,4.7,1.47,5.18,5.18,0,0,1,2,3.38h4.79a8.7,8.7,0,0,0-3.38-6.24,12.14,12.14,0,0,0-7.7-2.35,13.67,13.67,0,0,0-5.78,1.15,9,9,0,0,0-3.91,3.27,8.57,8.57,0,0,0-1.4,4.84,8,8,0,0,0,1.42,5,8.5,8.5,0,0,0,3.41,2.7,36.46,36.46,0,0,0,5.3,1.73,39.91,39.91,0,0,1,4.27,1.35,6.71,6.71,0,0,1,2.64,1.82,4.58,4.58,0,0,1,1.06,3.11,5.06,5.06,0,0,1-1.8,4A7.24,7.24,0,0,1,677.13,894.46Z"/><path id="Path_5528" data-name="Path 5528" class="cls-1" d="M695.65,890.62a7.21,7.21,0,0,0,1.82,5.52,7.84,7.84,0,0,0,5.47,1.68h3.93v-3.69h-3.21a4,4,0,0,1-2.83-.79,3.67,3.67,0,0,1-.82-2.72v-15.5h6.86v-3.6H700V864.9h-4.37v6.62h-3.4v3.6h3.4Z"/><path id="Path_5529" data-name="Path 5529" class="cls-1" d="M716.51,883.52q0-8,7.34-8H725V871a10.27,10.27,0,0,0-5.21,1.25,8.41,8.41,0,0,0-3.29,3.5v-4.27h-4.36v26.3h4.36Z"/><path id="Path_5530" data-name="Path 5530" class="cls-1" d="M734.5,896.52a12,12,0,0,0,6.34,1.73,11.7,11.7,0,0,0,6-1.51,10.28,10.28,0,0,0,3.85-3.81v4.89h4.42v-26.3h-4.42v4.8a9.8,9.8,0,0,0-3.79-3.74,11.52,11.52,0,0,0-6-1.49,12.26,12.26,0,0,0-6.36,1.68,11.83,11.83,0,0,0-4.48,4.72,14.67,14.67,0,0,0-1.63,7.08,15,15,0,0,0,1.63,7.1A12.1,12.1,0,0,0,734.5,896.52Zm-.43-17.13a8.46,8.46,0,0,1,3.22-3.36,9.19,9.19,0,0,1,9,0,8.47,8.47,0,0,1,3.23,3.38,10.72,10.72,0,0,1,1.2,5.18,10.84,10.84,0,0,1-1.2,5.21,8.33,8.33,0,0,1-3.23,3.4,8.81,8.81,0,0,1-4.49,1.18,8.66,8.66,0,0,1-4.46-1.18,8.47,8.47,0,0,1-3.21-3.4,11,11,0,0,1-1.2-5.25,10.87,10.87,0,0,1,1.19-5.19Z"/><path id="Path_5531" data-name="Path 5531" class="cls-1" d="M763.43,890.62a7.21,7.21,0,0,0,1.83,5.52,7.82,7.82,0,0,0,5.47,1.68h3.93v-3.69h-3.22a4,4,0,0,1-2.83-.79,3.71,3.71,0,0,1-.81-2.72v-15.5h6.86v-3.6H767.8V864.9h-4.37v6.62H760v3.6h3.4Z"/><path id="Path_5532" data-name="Path 5532" class="cls-1" d="M784.62,896.57a13.25,13.25,0,0,0,6.69,1.68,12.75,12.75,0,0,0,7.87-2.38,11.35,11.35,0,0,0,4.22-6.16h-4.7a7,7,0,0,1-2.67,3.53,8,8,0,0,1-4.72,1.32,8.26,8.26,0,0,1-8.53-8,2.81,2.81,0,0,1,0-.29h21c.09-.92.15-1.8.15-2.64a13.29,13.29,0,0,0-1.57-6.45,11.39,11.39,0,0,0-4.43-4.49,13.32,13.32,0,0,0-6.63-1.63,13.62,13.62,0,0,0-6.78,1.66,11.38,11.38,0,0,0-4.58,4.72,15,15,0,0,0-1.63,7.15A14.58,14.58,0,0,0,780,891.8,11.79,11.79,0,0,0,784.62,896.57Zm.86-19.67a8.06,8.06,0,0,1,5.64-2.11,9.4,9.4,0,0,1,4.2.93,7.28,7.28,0,0,1,3,2.74,8.09,8.09,0,0,1,1.1,4.3h-16.6a8.56,8.56,0,0,1,2.66-5.86Z"/><path id="Path_5533" data-name="Path 5533" class="cls-1" d="M865.43,900.21H853l11.75-28.69h-4.52l-8.16,21.3-8.25-21.3H839l10.6,26-1.1,2.68h-14a15.82,15.82,0,0,0,.2-1.82V871.52h-4.41v4.8a10,10,0,0,0-3.82-3.74,11.68,11.68,0,0,0-6-1.49,12.2,12.2,0,0,0-6.35,1.68,11.86,11.86,0,0,0-4.49,4.72,14.91,14.91,0,0,0-1.63,7.08,15.2,15.2,0,0,0,1.63,7.1,12,12,0,0,0,10.85,6.58,11.26,11.26,0,0,0,5.94-1.53,10.5,10.5,0,0,0,3.85-3.84v5.52a12.39,12.39,0,0,1-.14,1.82H662.83v2.39H809.68a9.48,9.48,0,0,0,3.85,5.72,14.61,14.61,0,0,0,8.63,2.44,13.46,13.46,0,0,0,6.64-1.59,10.88,10.88,0,0,0,4.4-4.39,11.26,11.26,0,0,0,.83-2.18h13.49l-3.1,7.58h4.51l3.1-7.58h13.4Zm-36.31-10.38a8.38,8.38,0,0,1-3.25,3.4,8.8,8.8,0,0,1-4.48,1.18,8.67,8.67,0,0,1-4.47-1.18,8.47,8.47,0,0,1-3.21-3.4,10.91,10.91,0,0,1-1.2-5.25,10.76,10.76,0,0,1,1.2-5.19,8.44,8.44,0,0,1,3.21-3.36,9.19,9.19,0,0,1,9,0,8.5,8.5,0,0,1,3.24,3.38,10.72,10.72,0,0,1,1.2,5.18A11,11,0,0,1,829.12,889.83ZM828,904.73a8,8,0,0,1-5.88,2.24,9.68,9.68,0,0,1-5.42-1.46,6.94,6.94,0,0,1-2.49-2.9h15.21A7.37,7.37,0,0,1,828,904.73Z"/><path id="Path_5564" data-name="Path 5564" class="cls-1" d="M626.05,1100.5l393.6-227.23L626.05,646Zm4.8-446.18,379.2,218.94L630.85,1092.2Z"/><path id="Path_5565" data-name="Path 5565" class="cls-1" d="M1017.25,1496.81V1042.32l-393.6,227.25Zm-4.8-8.31L633.24,1269.57l379.21-218.94Z"/><path id="Path_5566" data-name="Path 5566" class="cls-1" d="M626.05,1470.27v454.5l393.6-227.25Zm4.8,8.31,379.2,218.94-379.2,218.94Z"/><path id="Path_5567" data-name="Path 5567" class="cls-1" d="M1017.25,2321.07v-454.5l-393.6,227.26,390,225.16Zm-4.8-8.31L633.24,2093.83l379.21-218.94Z"/><path id="Path_5568" data-name="Path 5568" class="cls-1" d="M629.65,2296.6l-3.6-2.08V2749l393.6-227.24Zm1.19,6.24,379.21,218.93-379.2,218.94Z"/><path id="Path_5569" data-name="Path 5569" class="cls-1" d="M1013.65,3143.25l3.6,2.07V2690.83l-393.6,227.25Zm-1.2-6.24L633.24,2918.08l379.21-218.94Z"/><path id="Path_5570" data-name="Path 5570" class="cls-1" d="M670.89,1698.53h6.43c3.9,0,6.81-.92,8.71-2.76a9.9,9.9,0,0,0-.09-14h0a12.23,12.23,0,0,0-8.61-2.73h-10.8v33.44h4.37Zm0-15.88h6.43q7.09,0,7.1,6.18a5.76,5.76,0,0,1-1.73,4.51,7.75,7.75,0,0,1-5.37,1.59h-6.43Z"/><rect id="Rectangle_1928" data-name="Rectangle 1928" class="cls-1" x="694.3" y="1676.99" width="4.37" height="35.5"/><path id="Path_5571" data-name="Path 5571" class="cls-1" d="M710.57,1711.19a11.86,11.86,0,0,0,6.33,1.73,11.56,11.56,0,0,0,6-1.51,10.19,10.19,0,0,0,3.86-3.82v4.9h4.42V1686.2h-4.42V1691a9.84,9.84,0,0,0-3.79-3.73,11.56,11.56,0,0,0-6-1.49,12.23,12.23,0,0,0-6.35,1.68,11.76,11.76,0,0,0-4.48,4.72,14.77,14.77,0,0,0-1.64,7.08,15.08,15.08,0,0,0,1.64,7.1A12,12,0,0,0,710.57,1711.19Zm-.44-17.13a8.35,8.35,0,0,1,3.21-3.35,9.17,9.17,0,0,1,8.95,0,8.43,8.43,0,0,1,3.24,3.38,10.72,10.72,0,0,1,1.2,5.18,10.84,10.84,0,0,1-1.2,5.21,8.44,8.44,0,0,1-3.24,3.41,9.14,9.14,0,0,1-8.95,0,8.56,8.56,0,0,1-3.21-3.41,11,11,0,0,1-1.2-5.25,10.76,10.76,0,0,1,1.2-5.19Z"/><path id="Path_5572" data-name="Path 5572" class="cls-1" d="M742.9,1698a8.8,8.8,0,0,1,2-6.28,7.21,7.21,0,0,1,5.5-2.16,7.06,7.06,0,0,1,5.37,2.09,8.46,8.46,0,0,1,2,6v14.88h4.32V1697a11.15,11.15,0,0,0-3-8.37,10.65,10.65,0,0,0-7.77-2.91,10.9,10.9,0,0,0-4.92,1.11,8.65,8.65,0,0,0-3.53,3.12v-3.74h-4.36v26.29h4.36Z"/><path id="Path_5573" data-name="Path 5573" class="cls-1" d="M773.61,1698a8.84,8.84,0,0,1,2-6.28,7.21,7.21,0,0,1,5.5-2.16,7,7,0,0,1,5.37,2.09,8.47,8.47,0,0,1,2,6v14.88h4.32V1697a11.14,11.14,0,0,0-3-8.37,10.66,10.66,0,0,0-7.77-2.91,10.87,10.87,0,0,0-4.92,1.11,8.56,8.56,0,0,0-3.52,3.12v-3.74h-4.38v26.29h4.38Z"/><path id="Path_5574" data-name="Path 5574" class="cls-1" d="M802.2,1681.93a2.77,2.77,0,0,0,2-.87,3.07,3.07,0,0,0,0-4.22,2.76,2.76,0,0,0-2-.86,3,3,0,0,0,0,6Z"/><rect id="Rectangle_1929" data-name="Rectangle 1929" class="cls-1" x="799.94" y="1686.2" width="4.37" height="26.29"/><path id="Path_5575" data-name="Path 5575" class="cls-1" d="M816.11,1698a8.85,8.85,0,0,1,2-6.28,7.21,7.21,0,0,1,5.5-2.16,7.06,7.06,0,0,1,5.37,2.09,8.52,8.52,0,0,1,2,6v14.88h4.31V1697a11.19,11.19,0,0,0-3-8.37,10.69,10.69,0,0,0-7.78-2.91,10.93,10.93,0,0,0-4.92,1.11,8.56,8.56,0,0,0-3.52,3.12v-3.74h-4.37v26.29h4.37Z"/><path id="Path_5576" data-name="Path 5576" class="cls-1" d="M871.18,1714.89h-3.89a13.89,13.89,0,0,0,.21-1.82V1686.2h-4.41V1691a9.92,9.92,0,0,0-3.82-3.73,11.55,11.55,0,0,0-6-1.49,12.26,12.26,0,0,0-6.36,1.68,11.83,11.83,0,0,0-4.48,4.72,14.65,14.65,0,0,0-1.63,7.08,15,15,0,0,0,1.63,7.1,11.93,11.93,0,0,0,10.84,6.57,11.27,11.27,0,0,0,6-1.53,10.55,10.55,0,0,0,3.84-3.84v5.52a12.29,12.29,0,0,1-.14,1.82H662.83v2.39H842.45a9.42,9.42,0,0,0,3.84,5.71,14.55,14.55,0,0,0,8.63,2.45,13.49,13.49,0,0,0,6.65-1.58,11,11,0,0,0,4.39-4.39,11.35,11.35,0,0,0,.83-2.19h4.4Zm-9.3-10.39a8.44,8.44,0,0,1-3.24,3.41,8.87,8.87,0,0,1-4.49,1.18,8.71,8.71,0,0,1-4.46-1.18,8.46,8.46,0,0,1-3.22-3.41,10.87,10.87,0,0,1-1.19-5.25,10.6,10.6,0,0,1,1.19-5.18,8.33,8.33,0,0,1,3.22-3.36,9.2,9.2,0,0,1,8.94,0,8.46,8.46,0,0,1,3.24,3.39,10.72,10.72,0,0,1,1.2,5.18,10.94,10.94,0,0,1-1.19,5.2Zm-1.08,14.9a8,8,0,0,1-5.88,2.26,9.77,9.77,0,0,1-5.42-1.47,6.94,6.94,0,0,1-2.49-2.9h15.21a7.13,7.13,0,0,1-1.42,2.11Z"/><path id="Path_5577" data-name="Path 5577" class="cls-1" d="M709.11,458.74a17.7,17.7,0,0,0,17,0,16,16,0,0,0,6-6.08,18.76,18.76,0,0,0,0-17.65,15.86,15.86,0,0,0-6-6.07,17.7,17.7,0,0,0-17,0A15.92,15.92,0,0,0,703,435a18.46,18.46,0,0,0,0,17.61A15.88,15.88,0,0,0,709.11,458.74Zm-2.24-21.93a11.57,11.57,0,0,1,4.39-4.63,13.14,13.14,0,0,1,12.67,0,11.51,11.51,0,0,1,4.39,4.63,16.13,16.13,0,0,1,0,14,11.51,11.51,0,0,1-4.41,4.66,13,13,0,0,1-12.62,0,11.47,11.47,0,0,1-4.42-4.66,16.13,16.13,0,0,1,0-14Z"/><path id="Path_5578" data-name="Path 5578" class="cls-1" d="M744.51,446a8.8,8.8,0,0,1,2-6.28A7.19,7.19,0,0,1,752,437.6a7.06,7.06,0,0,1,5.38,2.09,8.48,8.48,0,0,1,2,6v14.87h4.32V445.08a11.17,11.17,0,0,0-3-8.36,10.66,10.66,0,0,0-7.77-2.91,10.87,10.87,0,0,0-4.92,1.11,8.7,8.7,0,0,0-3.53,3.11v-3.74h-4.36v26.3h4.36Z"/><path id="Path_5579" data-name="Path 5579" class="cls-1" d="M775.22,455.74a10.15,10.15,0,0,0,3.85,3.79,11.8,11.8,0,0,0,6,1.48,12,12,0,0,0,10.85-6.57,15.22,15.22,0,0,0,1.63-7.1,14.88,14.88,0,0,0-1.63-7.08,11.94,11.94,0,0,0-4.47-4.72,12.22,12.22,0,0,0-6.38-1.69,11.7,11.7,0,0,0-5.9,1.5,10.28,10.28,0,0,0-3.93,3.84V425.08h-4.37v35.51h4.37Zm1.22-13.51a8.62,8.62,0,0,1,3.26-3.41,8.75,8.75,0,0,1,4.44-1.17,8.94,8.94,0,0,1,4.49,1.15,8.32,8.32,0,0,1,3.24,3.36,10.6,10.6,0,0,1,1.19,5.18,10.85,10.85,0,0,1-1.19,5.25,8.44,8.44,0,0,1-3.24,3.41,9,9,0,0,1-8.92,0,8.58,8.58,0,0,1-3.27-3.41,11.65,11.65,0,0,1,0-10.36Z"/><path id="Path_5580" data-name="Path 5580" class="cls-1" d="M808.05,459.34a13.52,13.52,0,0,0,6.7,1.67,14,14,0,0,0,6.81-1.67,12.57,12.57,0,0,0,4.87-4.78,14,14,0,0,0,1.79-7.17,14.2,14.2,0,0,0-1.75-7.16,12.1,12.1,0,0,0-4.77-4.72,14.63,14.63,0,0,0-13.53,0,12,12,0,0,0-4.78,4.75,14.3,14.3,0,0,0-1.75,7.13,14.57,14.57,0,0,0,1.71,7.17A11.94,11.94,0,0,0,808.05,459.34ZM807.3,442a8,8,0,0,1,3.19-3.28,9.42,9.42,0,0,1,8.76,0,8.23,8.23,0,0,1,3.26,3.28,10.75,10.75,0,0,1,1.25,5.39,10.59,10.59,0,0,1-1.27,5.37,8.41,8.41,0,0,1-3.33,3.31,9.22,9.22,0,0,1-4.42,1.1,8.82,8.82,0,0,1-4.32-1.08,7.79,7.79,0,0,1-3.14-3.29,11.4,11.4,0,0,1-1.18-5.41,11.21,11.21,0,0,1,1.21-5.39Z"/><path id="Path_5581" data-name="Path 5581" class="cls-1" d="M838.45,459.29a12,12,0,0,0,6.33,1.72,11.59,11.59,0,0,0,6-1.5,10.3,10.3,0,0,0,3.85-3.82v4.9H859v-26.3h-4.42v4.8a9.87,9.87,0,0,0-3.79-3.74,11.66,11.66,0,0,0-6-1.5,12.31,12.31,0,0,0-6.35,1.69,11.79,11.79,0,0,0-4.49,4.72,14.88,14.88,0,0,0-1.63,7.08,15.22,15.22,0,0,0,1.63,7.1A12.07,12.07,0,0,0,838.45,459.29ZM838,442.16a8.46,8.46,0,0,1,3.22-3.36,9.19,9.19,0,0,1,8.95,0,8.56,8.56,0,0,1,3.23,3.39,11.82,11.82,0,0,1,0,10.38,8.42,8.42,0,0,1-3.23,3.41,8.81,8.81,0,0,1-4.49,1.18,8.61,8.61,0,0,1-4.46-1.18,8.46,8.46,0,0,1-3.22-3.41,11,11,0,0,1-1.2-5.25,10.72,10.72,0,0,1,1.2-5.18Z"/><path id="Path_5582" data-name="Path 5582" class="cls-1" d="M870.78,446.28q0-7.95,7.35-8h1.15v-4.51a10.09,10.09,0,0,0-5.21,1.25,8.48,8.48,0,0,0-3.29,3.5v-4.27h-4.36v26.3h4.36Z"/><path id="Path_5583" data-name="Path 5583" class="cls-1" d="M888.8,459.29a12.06,12.06,0,0,0,6.36,1.72,11.46,11.46,0,0,0,6-1.5,10.26,10.26,0,0,0,3.84-3.87v4.95h4.41V425.08H905V439a10.19,10.19,0,0,0-4-3.73,12,12,0,0,0-5.71-1.41,12.44,12.44,0,0,0-6.41,1.68,11.76,11.76,0,0,0-4.48,4.72,14.8,14.8,0,0,0-1.64,7.08,15.08,15.08,0,0,0,1.64,7.1A12,12,0,0,0,888.8,459.29Zm-.45-17.13a8.33,8.33,0,0,1,3.22-3.36,9.18,9.18,0,0,1,8.94,0,8.52,8.52,0,0,1,3.24,3.39,11.82,11.82,0,0,1,0,10.38,8.44,8.44,0,0,1-3.24,3.41,8.8,8.8,0,0,1-4.48,1.18,8.61,8.61,0,0,1-4.46-1.18,8.37,8.37,0,0,1-3.21-3.41,10.74,10.74,0,0,1-1.2-5.25A10.6,10.6,0,0,1,888.35,442.16Z"/><path id="Path_5584" data-name="Path 5584" class="cls-1" d="M919,430a2.72,2.72,0,0,0,2-.86,3.07,3.07,0,0,0,0-4.22,2.77,2.77,0,0,0-2-.87,3,3,0,1,0,0,5.95Z"/><rect id="Rectangle_1930" data-name="Rectangle 1930" class="cls-1" x="916.75" y="434.29" width="4.37" height="26.29"/><path id="Path_5585" data-name="Path 5585" class="cls-1" d="M932.92,446a8.76,8.76,0,0,1,2-6.28,7.2,7.2,0,0,1,5.49-2.16,7.06,7.06,0,0,1,5.38,2.09,8.47,8.47,0,0,1,2,6v14.87h4.33V445.08a11.17,11.17,0,0,0-3-8.36,10.67,10.67,0,0,0-7.78-2.91,10.86,10.86,0,0,0-4.91,1.11,8.61,8.61,0,0,0-3.52,3.11v-3.74h-4.37v26.3h4.37Z"/><path id="Path_5586" data-name="Path 5586" class="cls-1" d="M959.24,465.38a9.52,9.52,0,0,0,3.85,5.71,14.56,14.56,0,0,0,8.64,2.45,13.58,13.58,0,0,0,6.64-1.58,11,11,0,0,0,4.39-4.39,12.08,12.08,0,0,0,.84-2.19H988V463H984.1a15.84,15.84,0,0,0,.21-1.82V434.29h-4.42v4.8a9.94,9.94,0,0,0-3.82-3.74,11.75,11.75,0,0,0-6-1.5,12.37,12.37,0,0,0-6.36,1.69,11.83,11.83,0,0,0-4.48,4.72,14.65,14.65,0,0,0-1.63,7.08,15,15,0,0,0,1.63,7.1A11.93,11.93,0,0,0,970.1,461a11.19,11.19,0,0,0,5.95-1.54,10.53,10.53,0,0,0,3.84-3.83v5.52a12.29,12.29,0,0,1-.14,1.82h-281v2.39Zm19.45-12.79a8.44,8.44,0,0,1-3.24,3.41,8.74,8.74,0,0,1-4.49,1.18A8.61,8.61,0,0,1,966.5,456a8.46,8.46,0,0,1-3.22-3.41,10.85,10.85,0,0,1-1.19-5.25,10.72,10.72,0,0,1,1.19-5.18,8.46,8.46,0,0,1,3.22-3.36,9.19,9.19,0,0,1,9,0,8.66,8.66,0,0,1,3.24,3.39,11.89,11.89,0,0,1,0,10.38Zm-1.08,14.91a8,8,0,0,1-5.88,2.25,9.7,9.7,0,0,1-5.42-1.46,7,7,0,0,1-2.48-2.9H979a7.17,7.17,0,0,1-1.43,2.1Z"/><path id="Path_5587" data-name="Path 5587" class="cls-1" d="M550.42,2980.36a55.1,55.1,0,0,1-8.22-6l-12.79,14.3a73,73,0,0,0,11.13,8.19Z"/><rect id="Rectangle_1931" data-name="Rectangle 1931" class="cls-1" x="968.62" y="2632.76" width="24.03" height="19.19" transform="translate(-1153.95 801.91) rotate(-28.87)"/><rect id="Rectangle_1932" data-name="Rectangle 1932" class="cls-1" x="954.01" y="1809.89" width="24.02" height="19.19" transform="matrix(0.87, -0.49, 0.49, 0.87, -765.67, 703.71)"/><rect id="Rectangle_1933" data-name="Rectangle 1933" class="cls-1" x="910.73" y="706.85" width="19.19" height="24.02" transform="translate(-164.93 1150.12) rotate(-59.67)"/><path id="Path_5588" data-name="Path 5588" class="cls-1" d="M543.49,486.14l-12.32,14.72a74.27,74.27,0,0,0,10,7.05l11.52,6.75,9.69-16.56-11.5-6.74A54.82,54.82,0,0,1,543.49,486.14Z"/><path id="Path_5589" data-name="Path 5589" class="cls-1" d="M517,1236.43l16.74,9.4a50.78,50.78,0,0,1,13.1-15.22L535,1215.48A70.09,70.09,0,0,0,517,1236.43Z"/><path id="Path_5590" data-name="Path 5590" class="cls-1" d="M528.69,2124l-18.22,6a69.85,69.85,0,0,0,13.59,24.06l14.52-12.55A51.05,51.05,0,0,1,528.69,2124Z"/><rect id="Rectangle_1934" data-name="Rectangle 1934" class="cls-1" x="560.12" y="1195.52" width="24.03" height="19.19" transform="translate(-505.16 418.31) rotate(-28.46)"/><path id="Path_5591" data-name="Path 5591" class="cls-1" d="M537.57,1303.29l-15.25,11.63a71.6,71.6,0,0,0,20.62,18.25l9.78-16.51A52.7,52.7,0,0,1,537.57,1303.29Z"/><path id="Path_5592" data-name="Path 5592" class="cls-1" d="M526.17,2104a52.32,52.32,0,0,1,5.12-19.54L514,2076.08a71.55,71.55,0,0,0-7,26.65Z"/><path id="Path_5593" data-name="Path 5593" class="cls-1" d="M507.85,1271.67a72.86,72.86,0,0,0,2.37,18.41l18.56-4.87a53.86,53.86,0,0,1-1.74-13.55,54.87,54.87,0,0,1,.41-6.66l-19-2.36A73.58,73.58,0,0,0,507.85,1271.67Z"/><rect id="Rectangle_1935" data-name="Rectangle 1935" class="cls-1" x="569.32" y="1331.12" width="19.19" height="24.02" transform="translate(-872.71 1164.43) rotate(-59.67)"/><rect id="Rectangle_1936" data-name="Rectangle 1936" class="cls-1" x="842.41" y="2702.38" width="24.03" height="19.19" transform="translate(-1203.25 749.62) rotate(-28.87)"/><rect id="Rectangle_1937" data-name="Rectangle 1937" class="cls-1" x="632.05" y="2818.42" width="24.03" height="19.19" transform="translate(-1285.42 662.48) rotate(-28.87)"/><rect id="Rectangle_1938" data-name="Rectangle 1938" class="cls-1" x="884.47" y="2679.17" width="24.03" height="19.19" transform="translate(-1186.82 767.05) rotate(-28.87)"/><rect id="Rectangle_1939" data-name="Rectangle 1939" class="cls-1" x="993.65" y="755.42" width="19.19" height="24.02" transform="translate(-165.81 1245.73) rotate(-59.67)"/><rect id="Rectangle_1940" data-name="Rectangle 1940" class="cls-1" x="674.12" y="2795.2" width="24.03" height="19.19" transform="translate(-1268.99 679.91) rotate(-28.87)"/><rect id="Rectangle_1941" data-name="Rectangle 1941" class="cls-1" x="716.19" y="2772" width="24.03" height="19.19" transform="translate(-1252.55 697.34) rotate(-28.87)"/><rect id="Rectangle_1942" data-name="Rectangle 1942" class="cls-1" x="800.33" y="2725.59" width="24.03" height="19.19" transform="translate(-1219.69 732.19) rotate(-28.87)"/><rect id="Rectangle_1943" data-name="Rectangle 1943" class="cls-1" x="703.44" y="585.43" width="19.19" height="24.02" transform="translate(-162.73 911.11) rotate(-59.67)"/><rect id="Rectangle_1944" data-name="Rectangle 1944" class="cls-1" x="827.82" y="658.28" width="19.19" height="24.02" transform="translate(-164.05 1054.52) rotate(-59.67)"/><rect id="Rectangle_1945" data-name="Rectangle 1945" class="cls-1" x="744.9" y="609.71" width="19.19" height="24.02" transform="translate(-163.17 958.92) rotate(-59.67)"/><rect id="Rectangle_1946" data-name="Rectangle 1946" class="cls-1" x="786.36" y="634" width="19.19" height="24.02" transform="translate(-163.61 1006.72) rotate(-59.67)"/><rect id="Rectangle_1947" data-name="Rectangle 1947" class="cls-1" x="869.27" y="682.57" width="19.19" height="24.02" transform="translate(-164.49 1102.32) rotate(-59.67)"/><rect id="Rectangle_1948" data-name="Rectangle 1948" class="cls-1" x="952.19" y="731.14" width="19.19" height="24.02" transform="translate(-165.37 1197.93) rotate(-59.67)"/><rect id="Rectangle_1949" data-name="Rectangle 1949" class="cls-1" x="926.55" y="2655.97" width="24.03" height="19.19" transform="translate(-1170.38 784.48) rotate(-28.87)"/><rect id="Rectangle_1950" data-name="Rectangle 1950" class="cls-1" x="602.36" y="1172.61" width="24.02" height="19.19" transform="translate(-489.54 436.26) rotate(-28.49)"/><rect id="Rectangle_1951" data-name="Rectangle 1951" class="cls-1" x="550.87" y="2156.62" width="19.19" height="24.03" transform="translate(-1596.79 1565.85) rotate(-59.9)"/><rect id="Rectangle_1952" data-name="Rectangle 1952" class="cls-1" x="547.91" y="2864.83" width="24.02" height="19.19" transform="translate(-1318.68 627.94) rotate(-28.88)"/><path id="Path_5594" data-name="Path 5594" class="cls-1" d="M552.83,2061.78l9.1-5.09-9.37-16.75-9.1,5.1a72.32,72.32,0,0,0-12.74,9l12.71,14.37A54.7,54.7,0,0,1,552.83,2061.78Z"/><rect id="Rectangle_1953" data-name="Rectangle 1953" class="cls-1" x="576.68" y="2021.11" width="24.03" height="19.19" transform="translate(-917.01 546.39) rotate(-29.24)"/><rect id="Rectangle_1954" data-name="Rectangle 1954" class="cls-1" x="661.98" y="561.14" width="19.19" height="24.02" transform="translate(-162.29 863.31) rotate(-59.67)"/><path id="Path_5595" data-name="Path 5595" class="cls-1" d="M509.59,2912.53l18.2,6.1a51.17,51.17,0,0,1,10-17.46l-14.46-12.61A70.08,70.08,0,0,0,509.59,2912.53Z"/><rect id="Rectangle_1955" data-name="Rectangle 1955" class="cls-1" x="758.26" y="2748.79" width="24.03" height="19.19" transform="translate(-1236.12 714.77) rotate(-28.87)"/><rect id="Rectangle_1956" data-name="Rectangle 1956" class="cls-1" x="1005.88" y="115.85" width="24.02" height="19.19" transform="translate(70.49 518.22) rotate(-29.54)"/><rect id="Rectangle_1957" data-name="Rectangle 1957" class="cls-1" x="1008.06" y="2421.78" width="19.19" height="24.03" transform="translate(-1598.14 2092.34) rotate(-59.87)"/><rect id="Rectangle_1958" data-name="Rectangle 1958" class="cls-1" x="1047.68" y="92.16" width="24.02" height="19.19" transform="translate(87.61 535.76) rotate(-29.54)"/><path id="Path_5596" data-name="Path 5596" class="cls-1" d="M1084.32,826.05a52.52,52.52,0,0,1,6,4.06L1102.12,815a70.46,70.46,0,0,0-8.11-5.5l-13.36-7.83-9.7,16.55Z"/><rect id="Rectangle_1959" data-name="Rectangle 1959" class="cls-1" x="964.07" y="139.53" width="24.02" height="19.19" transform="translate(53.38 500.69) rotate(-29.54)"/><rect id="Rectangle_1960" data-name="Rectangle 1960" class="cls-1" x="838.66" y="210.59" width="24.02" height="19.19" transform="translate(2.04 448.09) rotate(-29.54)"/><rect id="Rectangle_1961" data-name="Rectangle 1961" class="cls-1" x="796.86" y="234.28" width="24.03" height="19.19" transform="translate(-15.16 430.2) rotate(-29.52)"/><rect id="Rectangle_1962" data-name="Rectangle 1962" class="cls-1" x="922.27" y="163.22" width="24.02" height="19.19" transform="translate(36.26 483.16) rotate(-29.54)"/><rect id="Rectangle_1963" data-name="Rectangle 1963" class="cls-1" x="880.46" y="186.9" width="24.02" height="19.19" transform="translate(19.15 465.62) rotate(-29.54)"/><path id="Path_5597" data-name="Path 5597" class="cls-1" d="M1108.44,884.68a51.35,51.35,0,0,1-8.77,18.12L1115,914.39a70.47,70.47,0,0,0,12-24.85Z"/><rect id="Rectangle_1964" data-name="Rectangle 1964" class="cls-1" x="1066.82" y="1622.53" width="19.19" height="24.02" transform="translate(-877.99 1738.05) rotate(-59.67)"/><rect id="Rectangle_1965" data-name="Rectangle 1965" class="cls-1" x="1037.86" y="1762.96" width="24.03" height="19.19" transform="translate(-731.43 737.59) rotate(-29.2)"/><rect id="Rectangle_1966" data-name="Rectangle 1966" class="cls-1" x="1024.7" y="943.52" width="24.02" height="19.19" transform="translate(-328.96 609.41) rotate(-28.47)"/><rect id="Rectangle_1967" data-name="Rectangle 1967" class="cls-1" x="1025.36" y="1598.25" width="19.19" height="24.02" transform="translate(-877.55 1690.25) rotate(-59.67)"/><path id="Path_5598" data-name="Path 5598" class="cls-1" d="M1092,934.06l2.39-1.35-9.74-16.54c-.59.35-1.19.7-1.79,1l-19,10.3,9.14,16.87Z"/><rect id="Rectangle_1968" data-name="Rectangle 1968" class="cls-1" x="755.05" y="257.96" width="24.02" height="19.19" transform="translate(-32.19 413.02) rotate(-29.54)"/><path id="Path_5599" data-name="Path 5599" class="cls-1" d="M1098.57,1661.58a51.13,51.13,0,0,1,10.17,17.33l18.13-6.29a70.2,70.2,0,0,0-14-23.82Z"/><path id="Path_5600" data-name="Path 5600" class="cls-1" d="M1120.17,835.89l-16.71,9.45a51.77,51.77,0,0,1,6.31,19.14l19-2.39A71,71,0,0,0,1120.17,835.89Z"/><path id="Path_5601" data-name="Path 5601" class="cls-1" d="M1094.25,1758.7a72.54,72.54,0,0,0,13.58-9.77l-12.95-14.18a53.39,53.39,0,0,1-10,7.21l-8.25,4.61,9.37,16.75Z"/><rect id="Rectangle_1969" data-name="Rectangle 1969" class="cls-1" x="1035.11" y="779.71" width="19.19" height="24.02" transform="translate(-166.25 1293.53) rotate(-59.67)"/><rect id="Rectangle_1970" data-name="Rectangle 1970" class="cls-1" x="1052.76" y="2586.34" width="24.03" height="19.19" transform="translate(-1121.38 837.15) rotate(-28.88)"/><rect id="Rectangle_1971" data-name="Rectangle 1971" class="cls-1" x="589.98" y="2841.62" width="24.03" height="19.19" transform="translate(-1302.24 645.38) rotate(-28.88)"/><rect id="Rectangle_1972" data-name="Rectangle 1972" class="cls-1" x="713.25" y="281.64" width="24.03" height="19.19" transform="matrix(0.87, -0.49, 0.49, 0.87, -49.35, 395.15)"/><rect id="Rectangle_1973" data-name="Rectangle 1973" class="cls-1" x="592.43" y="2180.72" width="19.19" height="24.03" transform="translate(-1596.84 1613.51) rotate(-59.89)"/><rect id="Rectangle_1974" data-name="Rectangle 1974" class="cls-1" x="1010.69" y="2609.55" width="24.02" height="19.19" transform="translate(-1137.83 819.71) rotate(-28.88)"/><rect id="Rectangle_1975" data-name="Rectangle 1975" class="cls-1" x="912.08" y="1833.37" width="24.03" height="19.19" transform="translate(-781.77 685.17) rotate(-29.2)"/><path id="Path_5602" data-name="Path 5602" class="cls-1" d="M1106.76,1718.55l17.41,8.08a71.65,71.65,0,0,0,6.57-26.75l-19.16-1A52.53,52.53,0,0,1,1106.76,1718.55Z"/><path id="Path_5603" data-name="Path 5603" class="cls-1" d="M1090.15,2570.32l11.62,15.25a69.89,69.89,0,0,0,18.29-20.71l-16.6-9.62A51.12,51.12,0,0,1,1090.15,2570.32Z"/><path id="Path_5604" data-name="Path 5604" class="cls-1" d="M1100.34,2497.73l15.42-11.41a71.11,71.11,0,0,0-20.4-18.54l-10,16.4A52.26,52.26,0,0,1,1100.34,2497.73Z"/><rect id="Rectangle_1976" data-name="Rectangle 1976" class="cls-1" x="1049.62" y="2445.89" width="19.2" height="24.03" transform="translate(-1598.36 2140.92) rotate(-59.88)"/><rect id="Rectangle_1977" data-name="Rectangle 1977" class="cls-1" x="629.64" y="329.01" width="24.03" height="19.19" transform="translate(-83.55 360.1) rotate(-29.52)"/><rect id="Rectangle_1978" data-name="Rectangle 1978" class="cls-1" x="587.84" y="352.7" width="24.02" height="19.19" transform="translate(-100.65 342.89) rotate(-29.54)"/><rect id="Rectangle_1979" data-name="Rectangle 1979" class="cls-1" x="579.07" y="512.58" width="19.19" height="24.02" transform="translate(-161.54 767.31) rotate(-59.63)"/><rect id="Rectangle_1980" data-name="Rectangle 1980" class="cls-1" x="671.44" y="305.33" width="24.02" height="19.19" transform="translate(-66.42 377.95) rotate(-29.54)"/><path id="Path_5605" data-name="Path 5605" class="cls-1" d="M525.13,2938.67,506,2939.82a71.65,71.65,0,0,0,6.85,26.68l17.32-8.26A52.56,52.56,0,0,1,525.13,2938.67Z"/><path id="Path_5606" data-name="Path 5606" class="cls-1" d="M530.89,470.48a52.4,52.4,0,0,1-5.65-19.38l-19.1,1.76a71.14,71.14,0,0,0,7.73,26.46Z"/><rect id="Rectangle_1981" data-name="Rectangle 1981" class="cls-1" x="546.03" y="376.38" width="24.03" height="19.19" transform="translate(-117.74 325.06) rotate(-29.52)"/><path id="Path_5607" data-name="Path 5607" class="cls-1" d="M536.64,413.18l-14.87-12.12a70.19,70.19,0,0,0-12.91,24.42L527.25,431A51.26,51.26,0,0,1,536.64,413.18Z"/><path id="Path_5608" data-name="Path 5608" class="cls-1" d="M1108.9,2516a53.79,53.79,0,0,1,1.08,20.22l19,2.61a72.83,72.83,0,0,0-1.47-27.47Z"/><rect id="Rectangle_1982" data-name="Rectangle 1982" class="cls-1" x="813.53" y="1058.06" width="24.02" height="19.19" transform="translate(-409.28 523.02) rotate(-28.49)"/><rect id="Rectangle_1983" data-name="Rectangle 1983" class="cls-1" x="855.76" y="1035.15" width="24.02" height="19.19" transform="translate(-393.24 540.39) rotate(-28.49)"/><rect id="Rectangle_1984" data-name="Rectangle 1984" class="cls-1" x="771.3" y="1080.97" width="24.02" height="19.19" transform="translate(-425.32 505.65) rotate(-28.49)"/><rect id="Rectangle_1985" data-name="Rectangle 1985" class="cls-1" x="897.99" y="1012.24" width="24.02" height="19.19" transform="translate(-377.2 557.76) rotate(-28.49)"/><rect id="Rectangle_1986" data-name="Rectangle 1986" class="cls-1" x="983.9" y="1573.96" width="19.19" height="24.02" transform="translate(-877.11 1642.45) rotate(-59.67)"/><rect id="Rectangle_1987" data-name="Rectangle 1987" class="cls-1" x="729.06" y="1103.88" width="24.02" height="19.19" transform="translate(-441.36 488.28) rotate(-28.49)"/><rect id="Rectangle_1988" data-name="Rectangle 1988" class="cls-1" x="942.44" y="1549.68" width="19.19" height="24.02" transform="translate(-876.67 1594.65) rotate(-59.67)"/><rect id="Rectangle_1989" data-name="Rectangle 1989" class="cls-1" x="940.23" y="989.33" width="24.02" height="19.19" transform="translate(-361.15 575.13) rotate(-28.49)"/><rect id="Rectangle_1990" data-name="Rectangle 1990" class="cls-1" x="982.46" y="966.42" width="24.02" height="19.19" transform="translate(-345.12 592.5) rotate(-28.49)"/><rect id="Rectangle_1991" data-name="Rectangle 1991" class="cls-1" x="900.98" y="1525.4" width="19.19" height="24.02" transform="translate(-876.23 1546.85) rotate(-59.67)"/><rect id="Rectangle_1992" data-name="Rectangle 1992" class="cls-1" x="786.31" y="1903.77" width="24.02" height="19.19" transform="translate(-832.9 633.75) rotate(-29.24)"/><rect id="Rectangle_1993" data-name="Rectangle 1993" class="cls-1" x="828.24" y="1880.29" width="24.04" height="19.2" transform="translate(-816.41 651.68) rotate(-29.25)"/><rect id="Rectangle_1994" data-name="Rectangle 1994" class="cls-1" x="870.16" y="1856.83" width="24.02" height="19.19" transform="translate(-799.29 668.73) rotate(-29.24)"/><rect id="Rectangle_1995" data-name="Rectangle 1995" class="cls-1" x="686.83" y="1126.79" width="24.02" height="19.19" transform="translate(-457.4 470.91) rotate(-28.49)"/><rect id="Rectangle_1996" data-name="Rectangle 1996" class="cls-1" x="744.38" y="1927.24" width="24.02" height="19.19" transform="translate(-849.7 616.26) rotate(-29.24)"/><rect id="Rectangle_1997" data-name="Rectangle 1997" class="cls-1" x="702.45" y="1950.71" width="24.03" height="19.19" transform="translate(-865.68 597.8) rotate(-29.2)"/><rect id="Rectangle_1998" data-name="Rectangle 1998" class="cls-1" x="644.6" y="1149.7" width="24.02" height="19.19" transform="translate(-473.44 453.54) rotate(-28.49)"/><rect id="Rectangle_1999" data-name="Rectangle 1999" class="cls-1" x="660.53" y="1974.18" width="24.02" height="19.19" transform="translate(-883.32 581.29) rotate(-29.24)"/><rect id="Rectangle_2000" data-name="Rectangle 2000" class="cls-1" x="652.23" y="1379.69" width="19.19" height="24.02" transform="translate(-873.59 1260.04) rotate(-59.67)"/><rect id="Rectangle_2001" data-name="Rectangle 2001" class="cls-1" x="924.93" y="2373.57" width="19.18" height="24.02" transform="translate(-1598.18 1998.61) rotate(-59.92)"/><rect id="Rectangle_2002" data-name="Rectangle 2002" class="cls-1" x="859.52" y="1501.11" width="19.19" height="24.02" transform="translate(-875.79 1499.04) rotate(-59.67)"/><rect id="Rectangle_2003" data-name="Rectangle 2003" class="cls-1" x="618.6" y="1997.65" width="24.03" height="19.19" transform="translate(-899.24 562.86) rotate(-29.2)"/><rect id="Rectangle_2004" data-name="Rectangle 2004" class="cls-1" x="966.49" y="2397.67" width="19.18" height="24.02" transform="translate(-1598.31 2046.6) rotate(-59.92)"/><rect id="Rectangle_2005" data-name="Rectangle 2005" class="cls-1" x="883.36" y="2349.46" width="19.18" height="24.02" transform="matrix(0.5, -0.87, 0.87, 0.5, -1598.05, 1950.62)"/><rect id="Rectangle_2006" data-name="Rectangle 2006" class="cls-1" x="800.24" y="2301.25" width="19.18" height="24.02" transform="translate(-1597.8 1854.64) rotate(-59.92)"/><rect id="Rectangle_2007" data-name="Rectangle 2007" class="cls-1" x="717.12" y="2253.04" width="19.19" height="24.03" transform="translate(-1597.34 1757.74) rotate(-59.9)"/><rect id="Rectangle_2008" data-name="Rectangle 2008" class="cls-1" x="675.56" y="2228.93" width="19.19" height="24.03" transform="translate(-1597.2 1709.77) rotate(-59.9)"/><rect id="Rectangle_2009" data-name="Rectangle 2009" class="cls-1" x="758.68" y="2277.15" width="19.18" height="24.02" transform="matrix(0.5, -0.87, 0.87, 0.5, -1597.67, 1806.66)"/><rect id="Rectangle_2010" data-name="Rectangle 2010" class="cls-1" x="841.8" y="2325.36" width="19.18" height="24.02" transform="translate(-1597.92 1902.63) rotate(-59.92)"/><rect id="Rectangle_2011" data-name="Rectangle 2011" class="cls-1" x="633.99" y="2204.83" width="19.19" height="24.03" transform="translate(-1597.06 1661.79) rotate(-59.9)"/><rect id="Rectangle_2012" data-name="Rectangle 2012" class="cls-1" x="735.15" y="1428.26" width="19.19" height="24.02" transform="translate(-874.47 1355.64) rotate(-59.67)"/><rect id="Rectangle_2013" data-name="Rectangle 2013" class="cls-1" x="693.69" y="1403.97" width="19.19" height="24.02" transform="translate(-874.03 1307.83) rotate(-59.67)"/><rect id="Rectangle_2014" data-name="Rectangle 2014" class="cls-1" x="776.61" y="1452.54" width="19.19" height="24.02" transform="translate(-874.91 1403.44) rotate(-59.67)"/><rect id="Rectangle_2015" data-name="Rectangle 2015" class="cls-1" x="610.78" y="1355.4" width="19.19" height="24.02" transform="translate(-873.15 1212.23) rotate(-59.67)"/><rect id="Rectangle_2016" data-name="Rectangle 2016" class="cls-1" x="995.93" y="1786.43" width="24.03" height="19.19" transform="translate(-748.21 720.12) rotate(-29.2)"/><rect id="Rectangle_2017" data-name="Rectangle 2017" class="cls-1" x="818.07" y="1476.82" width="19.19" height="24.02" transform="translate(-875.35 1451.24) rotate(-59.67)"/><rect id="Rectangle_2018" data-name="Rectangle 2018" class="cls-1" x="620.53" y="536.86" width="19.19" height="24.02" transform="translate(-161.85 815.51) rotate(-59.67)"/><rect id="Rectangle_2019" data-name="Rectangle 2019" class="cls-1" x="1090.9" y="71.08" width="11.99" height="19.19" transform="translate(102.84 551.36) rotate(-29.54)"/><path id="Path_5609" data-name="Path 5609" class="cls-1" d="M1200.07,67.91l5.21-8.06L1174.53,40l22.66-12.84L1194.83,23,1173.1,35.3,1174.84.48,1165.25,0l-2,40.9-8.74,5L1156.27,10l-9.58-.48-2.09,41.93-8.74,4.95,1.84-36.88-9.59-.47L1126,61.19l-.75,1.21L1113,69.33l2.35,4.17,14.23-8.06L1162.94,87l5.2-8.06L1139,60.1l8.32-4.71,34.14,22,5.21-8.06-29.93-19.32,8.33-4.72Z"/><path id="Path_5610" data-name="Path 5610" class="cls-1" d="M581.22,2971.64A57.24,57.24,0,0,1,569.37,3005l-.46.59a56.59,56.59,0,0,1-27.09,19.1,8.72,8.72,0,0,0-4,2l68.24,8.15-24.42-65.53A4.11,4.11,0,0,0,581.22,2971.64Z"/><g id="Brand_Strategy" data-name="Brand Strategy" class="cls-2"><text class="cls-3" transform="translate(0.13 784.04) scale(0.82 1)">Strategy</text></g><text class="cls-4" transform="translate(0.13 837.38)">Branding and Development<tspan x="0" y="35.89">can only be successful if both </tspan><tspan x="0" y="71.79">the service provider and the </tspan><tspan x="0" y="107.68">client comes together and </tspan><tspan x="0" y="143.57">create a strategic process.</tspan></text><text class="cls-5" transform="translate(0.13 1606.37) scale(0.94 1)">Planning</text><text class="cls-4" transform="translate(0.13 1659.27)">Planning involves moving <tspan x="0" y="35.89">According to Strategy. This is </tspan><tspan x="0" y="71.79">usually short process since both</tspan><tspan x="0" y="107.68">the elements and the strategy</tspan><tspan x="0" y="143.57">has been determined.</tspan><tspan x="0" y="179.47"> </tspan></text><text class="cls-6" transform="translate(0.27 2477.35) scale(0.84 1)">Production</text><text class="cls-4" transform="translate(0 2531.76)">The production phase is where <tspan x="0" y="35.89">we the organization generate and </tspan><tspan x="0" y="71.79">create your ideal solution.</tspan></text><g id="Onboarding_Kick-off" data-name="Onboarding Kick-off" class="cls-2"><text class="cls-7" transform="translate(1195.54 392.77) scale(0.84 1)">Onboarding &amp; Kick-off</text></g><g id="Branding_is_not_throwing_darts_A_Brand_needs_research_and." data-name="Branding is not throwing darts A Brand needs research and." class="cls-2"><text class="cls-4" transform="translate(1196.16 442.77)">To Accept change you must be able <tspan x="0" y="35.89">to take the first step. Here we Connect</tspan><tspan x="0" y="71.79">to Discuss our compatibility to move </tspan><tspan x="0" y="107.68">forward.</tspan></text></g><g id="Discovery_Planning" data-name="Discovery Planning" class="cls-2"><text class="cls-8" transform="translate(1195.24 1219.18) scale(0.9 1)">Discover</text></g><text class="cls-4" transform="translate(1195.24 1270.56)">Here we discover the core elements<tspan x="0" y="35.89">that is needed to make your product</tspan><tspan x="0" y="71.79">successful. </tspan></text><text class="cls-9" transform="translate(1195.54 2051.66) scale(0.84 1)">Design</text><text class="cls-4" transform="translate(1195.54 2105.81)">The design phase is designing<tspan x="0" y="35.89">according to strategy and the </tspan><tspan x="0" y="71.79">identitfied elements.</tspan></text><text class="cls-10" transform="translate(1195.54 2871.64) scale(0.87 1)">Deployment</text><text class="cls-4" transform="translate(1195.54 2923.88)">Congratulation you have successfully<tspan x="0" y="35.89">deployed a tested solution that has not</tspan><tspan x="0" y="71.79">only been designed by strategy but has</tspan><tspan x="0" y="107.68">the core values you stand for.</tspan></text></g></g></svg>