<svg xmlns="http://www.w3.org/2000/svg" width="600" height="600" viewBox="0 0 600 600">
  <g id="pvm" transform="translate(-120 -3696)">
    <rect id="Rectangle_1821" data-name="Rectangle 1821" width="600" height="600" transform="translate(120 3696)" fill="#6f1e82"/>
    <g id="Group_3908" data-name="Group 3908" transform="translate(189.227 3839.277)">
      <path id="Path_2718" data-name="Path 2718" d="M5538.511,6546.394q-.309,1.124-.6,2.213a24.378,24.378,0,0,1-5.466,2.146q-1.316,4.739-2.394,8.924c-.359,0-.718.008-1.075.014-.119,0-.237,0-.354,0l-.263,0q-3.513.032-7.054.059-1.285-4.729-2.582-9.512-.781-2.817-1.566-5.666-1.571-5.7-3.174-11.516-3.179-11.643-6.467-23.734c-4.361-16.116-8.8-32.794-13.272-49.883q-3.8-14.577-7.511-28.856l26.023.063q1.483,5.9,2.942,11.742.9,3.62,1.78,7.206,1.756,7.167,3.475,14.2,3.4,14.06,6.635,27.474,3.181,13.419,6.179,26.083,1.482,6.334,2.915,12.457c.188.823.38,1.641.567,2.458.1.438.2.873.307,1.309q-2.481,8.246-4.461,15.3c.343-.106.692-.228,1.044-.358.177-.065.357-.138.533-.208s.358-.15.54-.228l.273-.119c.456-.2.918-.426,1.382-.667l.281-.145c.284-.15.567-.307.854-.469.094-.055.191-.11.286-.166C5538.365,6546.48,5538.438,6546.435,5538.511,6546.394Z" transform="translate(-5328.964 -6377.696)" fill="#f9eeee"/>
      <path id="Path_2719" data-name="Path 2719" d="M5870.988,6181.631l-.165-.3a5.1,5.1,0,0,0-9.308.72l-21.9,62.506c.436-.032.94-.069,1.515-.106.082,0,.167-.011.259-.018l21.662-61.845a3.446,3.446,0,0,1,1.769-1.98,3.469,3.469,0,0,1,4.573,1.5l.16.3a3.441,3.441,0,0,1,.3,2.482l-18,72.087-10.761,38.042c-2.079,9.148-4.378,19.137-6.877,29.845,0,.027-.015.062-.021.1q-.3,1.287-.605,2.576l19.833-70.127,0-.012,18.007-72.113A5.092,5.092,0,0,0,5870.988,6181.631Z" transform="translate(-5603.006 -6178.635)" fill="#f9eeee"/>
      <path id="Path_2720" data-name="Path 2720" d="M5563.585,6583.178q-2.186,2.326-4.3,4.313c-.107.1-.217.2-.323.3-.541.5-1.08.985-1.61,1.451-.106.093-.211.185-.316.278-.32.274-.637.547-.952.807-.1.09-.211.175-.316.263q-1.435,1.185-2.831,2.192c-.139.1-.279.2-.418.3-.555.395-1.105.764-1.645,1.113-.139.089-.272.175-.409.256s-.267.168-.4.248-.27.162-.4.243c-.075.042-.146.085-.223.127-.094.058-.19.112-.287.167-.286.162-.569.319-.852.47-.095.046-.191.1-.281.144-.467.243-.929.464-1.381.669-.093.04-.184.077-.272.119-.184.078-.363.153-.542.227s-.355.143-.532.208c-.35.131-.7.254-1.043.359q1.97-7.043,4.459-15.3c1.971-6.55,4.174-13.651,6.6-21.253,10.6-33.245,21.958-65.325,22.076-65.647l1.12-3.188c-.09.007-.178.009-.261.016-.57.04-1.078.072-1.513.109l-.883,2.521c-.1.274-8.356,23.586-17.354,51.046q-1.195,4.11-2.465,8.494-2.773,9.664-5.91,20.566-.839,2.972-1.712,6.027-.722,2.541-1.464,5.149c-.371,1.326-4.287,13.948-6.812,22.271-1.11,3.655-1.953,6.479-2.109,7.155q-.517,2.233-.942,4.23l0-.009-.272,1.333c0,.01,0,.016,0,.022l-.073.339c-.309,1.543-.585,3.03-.812,4.421a10.011,10.011,0,0,0,.5,5.36c-.044.021-.09.053-.136.08a20.886,20.886,0,0,0-2.036,1.361,35.768,35.768,0,0,0-6.394,6.41,69.913,69.913,0,0,0-7.063,11.357,103.72,103.72,0,0,0-6.358,15.012,79.945,79.945,0,0,0-3.592,16,61.575,61.575,0,0,0-.109,13.421c.05.472.085.936.143,1.386s.136.884.206,1.311c.14.849.258,1.646.406,2.384q.259,1.1.479,2.049.119.472.221.9a8.068,8.068,0,0,0,.227.8,26.583,26.583,0,0,0,1.064,2.823c-.836,1.754-1.521,3.359-2.14,4.77-.7,1.6-1.316,2.962-1.864,4.056-1.074,2.2-1.833,3.349-1.757,3.409a3.877,3.877,0,0,0,.756-.669c.049-.045.094-.1.142-.147-.16.192-.32.387-.482.579-.98,1.185-1.92,2.3-2.824,3.44a20.706,20.706,0,0,0-2.323,3.553,17.754,17.754,0,0,0-1.329,3.555,27.017,27.017,0,0,0-.773,5.831c-.053,1.59-.013,2.816.025,3.646a5.963,5.963,0,0,0,.117,1.272,5.681,5.681,0,0,0,.272-1.246c.144-.814.327-2.027.631-3.555a29.556,29.556,0,0,1,1.525-5.359,16.543,16.543,0,0,1,1.559-2.967,19.992,19.992,0,0,1,2.412-2.89c1.991-1.973,4.165-4.131,6.5-6.451,2.333-2.336,4.815-4.853,7.406-7.508s5.318-5.449,8.063-8.513c1.364-1.534,2.742-3.124,4.05-4.831,1.333-1.679,2.6-3.45,3.834-5.273a87.983,87.983,0,0,0,10.693-22.272,90.247,90.247,0,0,0,2.615-10.447c.14-.829.279-1.648.417-2.45s.216-1.59.324-2.363c.224-1.544.334-3.04.455-4.461.067-.708.089-1.405.121-2.087s.055-1.335.083-1.973c.039-1.285.031-2.5,0-3.631a43.961,43.961,0,0,0-.526-5.8,28.664,28.664,0,0,0-.8-3.578c-.051-.168-.1-.318-.144-.456.087-.116.175-.22.259-.338l.079-.106a19.045,19.045,0,0,0,1.318-2.158c.747-1.387,1.54-3.042,2.367-4.9l.064-.154a.52.52,0,0,1,.023-.048l.87-1.982-.021.012c.862-2.051,1.767-4.337,2.708-6.836.83-2.205,1.686-4.586,2.568-7.126,2.047-5.875,3.539-10.653,3.824-11.568l4.917-17.383c.025-.029.056-.062.083-.1,0,0,1.459-5.2,1.741-6.33.007-.034.016-.069.022-.1,2.5-10.711,4.8-20.7,6.879-29.849l-10,35.367C5566.739,6579.737,5565.182,6581.484,5563.585,6583.178Zm-29.021,50.629.407-.513c.658-.794,1.178-1.419,1.553-1.829.008-.01.02-.02.033-.039a7.557,7.557,0,0,0,.836,1.406c-.278.324-.62.734-1.016,1.23-.823,1.021-1.888,2.4-3.113,4.108-.183.193-.39.409-.62.662A32.694,32.694,0,0,0,5534.564,6633.807Zm-7.676,30.645a123.277,123.277,0,0,1,3.487-12.757c1.28-3.855,2.731-7.284,3.958-10.186s2.27-5.261,2.951-6.915c.2-.493.371-.917.513-1.282a6.116,6.116,0,0,0,1.008.9,6.723,6.723,0,0,0,.78.463c-.791,1.4-1.857,3.435-3.078,5.979a153.644,153.644,0,0,0-8.146,20.739c-1.456,4.719-2.593,9.255-3.466,13.331C5525.458,6671.458,5526.1,6668,5526.888,6664.452Zm-13.445,38.946c-.02-.259-.026-.532-.026-.819s-.008-.593-.013-.911c-.016-.623-.029-1.307-.045-2.04.008-.733.039-1.521.053-2.343.012-.41.018-.837.029-1.272s.063-.884.09-1.342c.064-1.115.161-2.3.289-3.541.008.059.011.112.019.167a39.9,39.9,0,0,0,1.52,7.321,10.664,10.664,0,0,0,1.008,2.549,15.719,15.719,0,0,0,.033-2.715c-.02-1.724,0-4.2.244-7.206a67.338,67.338,0,0,1,1.693-10.348c.458-1.921,1-3.94,1.6-6.028.092-.359.2-.714.3-1.066-.1,1.12-.18,2.225-.239,3.295-.242,4.245-.209,8.056-.09,11.249s.313,5.771.487,7.555a.049.049,0,0,1,0,.013c-.948,1.134-1.859,2.269-2.7,3.4-.8,1.076-1.528,2.159-2.183,3.235s-1.2,2.134-1.708,3.147c-.043.08-.08.162-.119.242C5513.613,6705.311,5513.511,6704.426,5513.443,6703.4Zm15.94-10.164c-1.208,1.628-2.483,3.181-3.759,4.7-2.553,3.039-5.152,5.945-7.574,8.763s-4.722,5.5-6.852,8.025c-.109.129-.221.261-.332.393.649-.864,1.362-1.885,2.124-3.048.973-1.475,2.031-3.171,3.241-4.959.61-.891,1.262-1.8,1.973-2.709s1.5-1.813,2.342-2.736c1.7-1.845,3.663-3.727,5.743-5.8,1.776-1.786,3.607-3.707,5.4-5.79C5530.939,6691.148,5530.17,6692.21,5529.383,6693.234Zm10.652-31.9c-.236,1.446-.429,2.848-.785,4.218-.083.347-.15.7-.246,1.045s-.2.69-.3,1.041c-.184.7-.443,1.395-.682,2.1l-.183.527-.211.52c-.14.346-.279.7-.419,1.049-.293.7-.62,1.391-.937,2.1-.359.688-.687,1.4-1.069,2.087s-.746,1.391-1.175,2.071a105.784,105.784,0,0,1-11,14.749c-.427.5-.854,1-1.281,1.491.235-1.326.5-2.919.8-4.741-.01.086-.018.179-.025.263a1.289,1.289,0,1,0,1.02.254c.086-.2.171-.41.264-.627a4.1,4.1,0,0,0,.38-.2c.186-.106.416-.235.676-.4.254-.181.544-.388.868-.625s.659-.542,1.037-.864.745-.708,1.159-1.122a26.643,26.643,0,0,0,2.458-3.067,46.526,46.526,0,0,0,4.6-8.978c.7-1.742,1.372-3.54,2.058-5.427s1.354-3.841,2.01-5.865c.624-1.9,1.2-3.779,1.725-5.619C5540.464,6658.648,5540.247,6660,5540.035,6661.336Zm-2.014-11.237c-1.2,3.427-2.575,7.187-3.9,11.229-.66,2.017-1.266,4-1.826,5.922s-1.067,3.8-1.535,5.549a80.866,80.866,0,0,1-2.854,9.061c-.5,1.245-1.028,2.338-1.52,3.292-.268.465-.507.911-.749,1.3s-.461.758-.684,1.068-.414.6-.584.853c-.094.125-.18.243-.259.355.544-1.325,1.21-2.979,1.949-4.9,2.044-5.315,4.7-12.67,7.249-20.9s4.515-15.8,5.835-21.334c.646-2.7,1.12-4.923,1.436-6.492.139.046.277.092.415.129a7.517,7.517,0,0,0,1.476.223c-.347,1.443-.819,3.314-1.463,5.5C5540.241,6643.586,5539.219,6646.677,5538.021,6650.1Zm7.959-13.968c-.216,1.223-.461,2.715-.729,4.452-.285,1.728-.532,3.739-.916,5.832a25.513,25.513,0,0,1-.777,3.17c-.326,1.044-.8,2.1-1.321,3.319-.261.6-.527,1.253-.769,1.946-.05.15-.092.3-.142.447.359-1.358.69-2.686.975-3.987a66.148,66.148,0,0,0,1.472-9.875,44.68,44.68,0,0,0,.01-6.006,9.518,9.518,0,0,0,2.255-.483,1.442,1.442,0,0,0,.163-.061C5546.13,6635.265,5546.061,6635.677,5545.981,6636.131Zm2.014,1.378c-.208.954-.481,1.994-.777,3.15-.025.1-.048.211-.078.314,0-.084,0-.176,0-.262-.028-1.753-.065-3.265-.108-4.505-.021-.621-.048-1.172-.069-1.649a8.753,8.753,0,0,0,1.571-.973A20.6,20.6,0,0,1,5547.995,6637.509Zm2.328-2.736a10.976,10.976,0,0,0-.768-2.1c.238-.244.475-.5.7-.768,0,.064.013.13.013.2.059.714.119,1.726.134,3C5550.379,6635,5550.354,6634.877,5550.323,6634.773Zm1.667-8.482c-.1.208-.2.412-.3.611q-.3.6-.592,1.151c-.048.09-.1.184-.144.271a18.192,18.192,0,0,1-1.3,2.1l-.074.1c-.125.168-.254.333-.384.492s-.26.3-.4.448v0h0c-.047-.053-.086-.1-.122-.143a.067.067,0,0,1-.014-.019.42.42,0,0,1-.042-.038.663.663,0,0,0-.09-.085.189.189,0,0,0-.026-.019c-.021-.02-.038-.025-.044-.021a.1.1,0,0,1-.014.008,2.42,2.42,0,0,0,.024.655c-.111.11-.223.216-.335.314-.059.051-.112.1-.174.147s-.125.107-.189.158-.1.08-.156.119-.118.087-.177.131-.118.082-.179.119a1.52,1.52,0,0,1-.18.12c-.069.045-.139.088-.208.125v0h0c0-.053-.009-.1-.013-.153h0a.008.008,0,0,0,0-.008c-.007-.062-.013-.119-.02-.171s-.012-.1-.015-.138a.074.074,0,0,0,0-.025.31.31,0,0,1-.006-.041c-.006-.036-.013-.065-.014-.091l0,0a.368.368,0,0,1-.009-.04.053.053,0,0,0-.012-.021s0,0,0,0a.007.007,0,0,0-.006,0c-.007,0-.013.011-.021.028a.749.749,0,0,0-.046.142.3.3,0,0,0-.015.052,1.674,1.674,0,0,0-.042.162c-.008.036-.016.074-.026.116-.026.109-.054.237-.086.38a6.69,6.69,0,0,1-.933.409,8.492,8.492,0,0,1-1.944.414h0c-.007-.065-.016-.129-.022-.189-.009-.08-.021-.155-.03-.224-.038-.263-.071-.487-.1-.676-.021-.13-.044-.246-.068-.339-.006-.032-.013-.057-.02-.086a.39.39,0,0,0-.015-.076l-.02-.065c0-.018-.011-.038-.016-.052s-.01-.031-.015-.044a.1.1,0,0,0-.02-.044l-.006-.008c0-.007-.007-.008-.008-.008a.022.022,0,0,0-.018.008.128.128,0,0,1-.019.023.139.139,0,0,0-.017.037.731.731,0,0,0-.047.12c-.023.076-.048.175-.083.293-.019.062-.036.13-.054.2a1.211,1.211,0,0,1-.033.128c-.03.124-.063.264-.1.417-.014.063-.028.126-.045.19-.032.133-.068.275-.1.422a6.043,6.043,0,0,1-1.952-.359h0a4.187,4.187,0,0,0,.127-1.234s-.005,0-.01,0a.844.844,0,0,0-.163.188c-.02.033-.044.063-.07.1-.064.1-.147.218-.234.364-.065.1-.137.212-.21.337a5.04,5.04,0,0,1-.668-.4c-.062-.044-.125-.091-.184-.136s-.115-.094-.175-.144c-.039-.033-.079-.067-.118-.1a5.3,5.3,0,0,1-.821-.95l-.079-.118c-.032-.053-.065-.105-.1-.16s-.066-.11-.095-.164a1.66,1.66,0,0,1-.089-.166c-.011-.021-.021-.04-.029-.059a2.829,2.829,0,0,1-.138-.29,1.255,1.255,0,0,1-.077-.179c-.023-.058-.048-.118-.07-.18s-.051-.123-.07-.186a7.958,7.958,0,0,1-.225-.8c-.014-.056-.025-.11-.036-.171s-.027-.136-.039-.206-.023-.137-.035-.206-.018-.14-.025-.21a1.6,1.6,0,0,1-.024-.211c-.021-.2-.03-.393-.039-.593v-.113c0-.187,0-.372.008-.558a8.8,8.8,0,0,1,.125-1.23c.178-1.09.386-2.235.616-3.43h0v0c.057.052.112.1.17.152l.177.148c.077.068.148.137.227.2.241.2.486.39.738.576l.064.035c.232.17.473.33.716.479.086.054.175.105.265.157.18.109.365.208.552.308.1.055.205.107.308.159.181.091.361.175.549.255.105.05.214.1.321.138.194.082.4.16.6.23.1.036.188.072.283.1.3.1.6.191.907.269.209.054.416.1.622.147.067.013.132.022.2.039.146.028.292.053.435.077.074.01.148.027.227.037.142.021.279.037.417.053.07.01.142.018.216.025.159.013.316.029.476.038.051,0,.1.008.155.01.206.011.419.02.63.02h.138c.162-.008.324-.008.49-.012l.211-.014c.141-.007.282-.017.421-.029l.222-.02c.145-.018.289-.034.433-.056.064,0,.13-.013.194-.021.2-.035.388-.066.58-.1a.272.272,0,0,0,.038,0c.206-.044.411-.087.611-.14l.184-.047c.143-.037.287-.078.43-.12.071-.019.138-.044.213-.062.135-.042.265-.087.4-.134.071-.027.145-.052.215-.074.144-.052.285-.111.43-.168.052-.021.1-.04.163-.062a.225.225,0,0,1,.039-.018h0C5552.366,6625.513,5552.177,6625.907,5551.989,6626.291Zm11.261-30.311-.014.044c-.064.206-.176.57-.332,1.067-.026.076-.051.157-.078.24s-.053.167-.083.258c-.142.447-.308.967-.5,1.55-.059.174-.118.355-.175.544a.2.2,0,0,0-.013.035c-.18.55-.376,1.151-.585,1.788-.071.219-.144.44-.222.669q-.19.566-.389,1.164c-.055.167-.111.333-.167.5-.109.326-.223.658-.338,1-.06.183-.122.365-.185.547-.178.509-.354,1.027-.536,1.559,0,0,0,.007-.007.008-.058.179-.123.359-.186.538-.074.211-.145.418-.217.627-.125.365-.257.728-.383,1.087-.381,1.077-.761,2.129-1.135,3.151-.168.468-.335.93-.508,1.386s-.337.9-.505,1.345c-1.147,3.026-2.239,5.731-3.247,8.029l-.2.112c-.083.047-.167.1-.248.138-.1.054-.2.1-.3.154-.085.038-.167.083-.254.122-.1.046-.207.092-.31.136-.084.038-.169.073-.251.106-.107.044-.215.083-.319.125-.085.033-.168.067-.254.095-.106.039-.218.071-.326.109-.084.025-.169.056-.257.08-.106.033-.217.063-.328.092-.083.021-.169.047-.255.069-.111.026-.222.049-.336.074-.086.02-.174.038-.261.055-.11.021-.222.038-.335.059-.084.017-.172.029-.263.042-.109.019-.224.027-.338.042l-.261.032-.342.025c-.086,0-.171.008-.256.014-.119.005-.232.005-.35.006-.087,0-.172,0-.26,0-.116,0-.236,0-.35-.01-.084,0-.172,0-.254-.008-.121-.006-.238-.019-.357-.029-.086-.006-.166-.01-.253-.021-.123-.012-.247-.029-.371-.048-.077-.01-.155-.016-.232-.032-.137-.017-.273-.048-.408-.071-.068-.012-.134-.025-.2-.039-.2-.039-.4-.084-.6-.137-.289-.075-.577-.162-.86-.258-.092-.032-.184-.069-.277-.106-.186-.068-.371-.134-.555-.209-.108-.044-.213-.1-.321-.148-.162-.072-.327-.145-.482-.227-.111-.055-.223-.12-.33-.18-.153-.083-.3-.162-.447-.247-.111-.068-.22-.144-.327-.212-.137-.088-.279-.179-.415-.275-.105-.075-.214-.159-.318-.24-.13-.1-.261-.195-.39-.3-.1-.086-.2-.171-.3-.264-.122-.1-.245-.212-.363-.329-.05-.042-.1-.094-.149-.142s-.1-.1-.143-.143c-.074-.075-.145-.151-.217-.229q.521-2.552,1.218-5.525.781-3.322,1.762-7.144c.047-.173.094-.348.137-.524s.089-.354.137-.529h0c.018-.08.035-.155.056-.235s.045-.155.063-.233c0-.022.013-.043.017-.064h0c.142-.537.286-1.08.428-1.628.032-.116.063-.229.092-.344.12-.447.237-.9.362-1.354.028-.09.05-.179.073-.271s.048-.174.074-.262c.021-.071.038-.142.056-.214.031-.12.065-.234.1-.357h0c.065-.235.131-.477.194-.717.039-.143.08-.288.119-.433h0c.051-.193.105-.386.158-.581h0c0-.024.012-.05.018-.073.047-.172.091-.342.144-.514h0c.052-.2.107-.393.161-.59h0a24.326,24.326,0,0,0,5.465-2.146h0c.925-.486,1.873-1.043,2.833-1.668.175-.111.347-.225.522-.343,0,0,0,0,0,0,.175-.112.348-.229.524-.352.129-.088.258-.176.384-.267.933-.657,1.881-1.37,2.842-2.149.272-.218.551-.445.83-.676.139-.115.278-.235.419-.352q.1-.089.209-.176,1.123-.965,2.278-2.032c.144-.13.282-.26.425-.4q1.853-1.737,3.772-3.747.168-.169.332-.349c.111-.115.223-.234.333-.35.218-.233.436-.468.652-.7a0,0,0,0,0,0,0c.435-.468.861-.937,1.291-1.409q.317-.358.637-.713Z" transform="translate(-5340.118 -6426.245)" fill="#f9eeee"/>
      <path id="Path_2728" data-name="Path 2728" d="M4921.922,6399.16q1.881,2.87,3.415,5.747h.238q-1.562-2.877-3.464-5.747Z" transform="translate(-4882.726 -6352.864)" fill="#f9eeee"/>
      <path id="Path_2744" data-name="Path 2744" d="M4896.472,6831.4v1.5q.36-.751.717-1.5Z" transform="translate(-4862.619 -6694.361)" fill="#f9eeee"/>
      <path id="Path_2748" data-name="Path 2748" d="M4946.446,6404.907q-2.112-2.877-4.558-5.747h-.187q2.421,2.87,4.508,5.747Z" transform="translate(-4898.353 -6352.864)" fill="#f9eeee"/>
      <path id="Path_2779" data-name="Path 2779" d="M4798.677,6609.285c-34.515-42.333-14.092-84.673-3.534-127.012,1.33-5.337,2.5-10.672,3.389-16.009.049-.29.1-.575.145-.862,1.884-11.752,2.348-23.505,0-35.259-.033-.148-.063-.3-.091-.45l-.1-.447q-.073-.337-.145-.669c-.05-.227-.1-.452-.149-.676-.105-.448-.216-.895-.325-1.343a76.979,76.979,0,0,0-2.833-8.966c-.115-.3-.233-.6-.351-.9-.2-.507-.412-1.011-.626-1.522a.369.369,0,0,1-.02-.048c-.112-.259-.226-.52-.338-.782s-.23-.522-.35-.785q-.354-.784-.727-1.57c-.127-.262-.251-.522-.38-.784s-.261-.523-.391-.783c-.151-.3-.306-.6-.461-.9-.078-.15-.155-.3-.235-.45s-.157-.3-.239-.449c-.12-.223-.242-.447-.361-.672s-.249-.451-.374-.674-.246-.434-.37-.652c-.132-.234-.264-.462-.4-.693-.176-.3-.352-.6-.53-.9-.163-.274-.332-.547-.5-.822-.216-.349-.431-.695-.652-1.042-.178-.278-.351-.552-.529-.825-.1-.148-.188-.292-.285-.439s-.2-.3-.3-.459c-.138-.208-.28-.416-.421-.623-.209-.313-.427-.624-.644-.935-.108-.155-.217-.312-.328-.468s-.22-.315-.332-.468c-.222-.313-.449-.628-.678-.938s-.459-.625-.7-.936c-.312-.416-.629-.833-.952-1.247s-.654-.833-.986-1.249c-.25-.312-.5-.624-.76-.933-.127-.159-.255-.314-.386-.47s-.258-.314-.391-.47c-.35-.416-.7-.833-1.063-1.248s-.728-.832-1.1-1.246c-.21-.24-.429-.477-.644-.718h-4.454c.164.242.322.476.482.718,16.91,25.346,13.449,50.695,3.521,76.045q-.784,2-1.615,4c-.009.02-.019.042-.027.062-.228.543-.455,1.084-.686,1.628-.118.27-.231.54-.348.811q-.349.816-.707,1.628t-.723,1.625c-.245.543-.489,1.084-.736,1.627s-.5,1.084-.747,1.625q-.464,1-.934,2c-.158.334-.317.669-.474,1-.24.5-.476,1-.717,1.5v0c-.071.149-.146.3-.216.449-.245.508-.493,1.016-.741,1.528-.122.251-.246.5-.37.759s-.247.51-.376.764q-.524,1.071-1.057,2.146c-.037.082-.079.165-.123.249q-.539,1.089-1.087,2.183-.769,1.528-1.539,3.053-1.159,2.285-2.325,4.576-1.618,3.181-3.24,6.357c-.129.255-.256.509-.386.764q-1.551,3.053-3.074,6.1c-.845,1.691-1.68,3.39-2.5,5.083q-.5,1.015-.98,2.036c-.164.338-.325.676-.486,1.018s-.322.677-.481,1.016q-.467.99-.927,1.987-.646,1.39-1.271,2.785-.3.664-.6,1.333c-1.508,3.389-2.927,6.779-4.226,10.171q-.394,1.015-.767,2.032-.937,2.542-1.777,5.085-.673,2.033-1.269,4.063s0,0,0,.007c-4.818,16.373-5.99,32.743.222,49.119a71.807,71.807,0,0,0,6.738,13.28c.424.668.862,1.33,1.316,2h54.956Q4800.482,6611.5,4798.677,6609.285ZM4788,6598.319q1.255,2.125,2.675,4.251h-2.008q-1.4-2.128-2.638-4.251Zm-4.9-9.747q.921,2.207,2.014,4.411h-1.927q-1.073-2.206-1.977-4.411Zm-3.341-9.754q.612,2.289,1.385,4.579h-1.842q-.754-2.288-1.347-4.579Zm-37.929,4.208a72.109,72.109,0,0,1-.524-15.875h33.066q.048.5.1,1t.11.989c.042.332.083.662.125.994s.09.661.139.99q.135.953.3,1.909c.012.066.024.136.036.208.051.287.1.572.153.86.061.332.126.661.192.993q.39,1.986.9,3.965c.164.664.346,1.325.534,1.986s.384,1.321.592,1.985Zm35.567-33.459q-.2,2.538-.282,5.079h-1.6q.1-2.538.327-5.079Zm1.934-14.09h-1.429q.535-2.706,1.159-5.412h1.382Q4779.837,6532.769,4779.323,6535.477Zm-.757,4.338q-.412,2.627-.73,5.247h-1.511q.333-2.622.776-5.247Zm-1.49,19.5q.047,2.458.227,4.913h-1.677q-.16-2.455-.185-4.913Zm-.246,14.5q-.447-2.374-.745-4.748h1.723q.315,2.376.783,4.748Zm3.223-47.924c.466-1.861.956-3.716,1.462-5.578h1.3c-.493,1.862-.963,3.717-1.414,5.578Zm2.581-9.584q.825-2.873,1.684-5.745h1.215q-.831,2.872-1.631,5.745Zm8.05-23.191h-1.064q.612-2.042,1.208-4.081h1.03c-.194.679-.39,1.359-.581,2.041S4790.882,6492.439,4790.684,6493.119Zm-11.071-28.751h-.813q.834-2.294,1.594-4.583h.777q-.186.572-.371,1.147c-.13.378-.254.762-.386,1.143Q4780.026,6463.22,4779.613,6464.367Zm2.8-57.507h-.322q-.987-2.792-2.265-5.581h.272Q4781.4,6404.068,4782.41,6406.86Zm3.778,28.752h-.569q.213-2.54.258-5.078h.525C4786.389,6432.226,4786.313,6433.919,4786.188,6435.612Zm.115-9.583h-.487q-.117-2.622-.441-5.247h.441Q4786.163,6423.4,4786.3,6426.029Zm-.6,14.253q-.322,2.456-.781,4.913h-.651q.478-2.456.823-4.913Zm-.609-23.839h-.4q-.516-2.708-1.278-5.415h.357Q4784.558,6413.734,4785.1,6416.444Zm-2.417,38.337h-.734q.683-2.373,1.266-4.746h.692Q4783.345,6452.406,4782.679,6454.781Zm2.173-6.663h13.132a118.037,118.037,0,0,1-1.826,15.873h-15.79A129.845,129.845,0,0,0,4784.852,6448.118Zm7.537,35.417c.115-.421.229-.844.345-1.263.268-1,.533-1.99.79-2.989h.947q-.375,1.5-.766,2.989c-.109.419-.222.842-.334,1.263Zm2.454-9.587q.51-2.206.977-4.414h.859q-.44,2.209-.937,4.414Zm1.967-9.581q.4-2.294.726-4.583h.777q-.3,2.287-.685,4.583Zm1.324-9.586q.232-2.373.362-4.746h.693c-.069,1.581-.181,3.164-.323,4.746Zm1.156-9.585h-.65q.007-2.456-.111-4.913h.607Q4799.281,6442.739,4799.29,6445.2Zm-1.313-14.662c.281,1.536.511,3.08.7,4.621.016.153.036.3.053.457h-.569q-.271-2.54-.707-5.078Zm-2.443-9.752q.85,2.622,1.486,5.247h-.485c-.416-1.748-.89-3.5-1.437-5.247Zm-3.9-9.753q1.3,2.7,2.353,5.415h-.4q-1.032-2.708-2.307-5.415Zm2.745,8.72a76.041,76.041,0,0,1,3.217,15.267h-10.937a73.826,73.826,0,0,0-.051-9.952c-.018-.223-.035-.442-.052-.664-.019-.193-.033-.388-.053-.581-.037-.389-.077-.777-.117-1.161-.021-.2-.046-.391-.067-.585q-.141-1.162-.317-2.325Zm-8.279-18.469q1.833,2.788,3.375,5.581h-.321q-1.521-2.792-3.328-5.581Zm-7.348-9.75q2.451,2.87,4.56,5.747h-.239q-2.087-2.87-4.5-5.747Zm-.483-.151h0a92.315,92.315,0,0,1,10.152,14.663h-6.082a74.022,74.022,0,0,0-7.7-14.663Zm-3.665.151q1.9,2.87,3.463,5.747h-.241q-1.538-2.87-3.412-5.747Zm2.213,78h.861q-.861,2.209-1.779,4.414h-.9Q4775.941,6471.742,4776.82,6469.535Zm-5.508,12.738q.689-1.493,1.357-2.989h.947q-.658,1.5-1.335,2.989c-.191.419-.382.842-.575,1.263h-.98C4770.922,6483.114,4771.117,6482.692,4771.312,6482.272Zm1.71,0q1.293-2.893,2.515-5.784h17.881q-.737,2.89-1.544,5.784c-.992,3.565-2.054,7.13-3.147,10.693h-20.642q.386-.819.773-1.637c.07-.153.145-.3.216-.459Q4771.1,6486.571,4773.022,6482.272Zm-4.906,6.765h1.03c-.025.05-.047.1-.072.147-.071.15-.142.306-.216.457q-.824,1.737-1.657,3.477h-1.066Q4767.133,6491.077,4768.116,6489.038Zm-9.388,21.527q-1.381,2.872-2.728,5.745h-1.264q1.37-2.873,2.777-5.745Zm1-.153h23.563c-1.5,4.887-2.938,9.778-4.215,14.666h-26.019C4755.154,6520.189,4757.412,6515.3,4759.728,6510.412Zm-6.874,9.9h1.3q-1.268,2.793-2.477,5.578h-1.347Q4751.559,6523.1,4752.854,6520.315Zm23.135,18.469q-.088.478-.17.952-.158.9-.3,1.79a1.014,1.014,0,0,0-.019.121c-.053.316-.1.635-.151.954s-.1.635-.143.954q-.144.954-.267,1.912c-.041.316-.081.631-.121.95l-.116.957c-.028.255-.056.514-.083.773-.013.1-.024.2-.034.305-.029.277-.059.552-.085.827,0,.029-.007.056-.009.083-.059.608-.115,1.219-.161,1.827-.053.633-.1,1.272-.137,1.909-.023.32-.041.635-.059.954h-30.869c.052-.239.106-.476.161-.717.022-.1.048-.211.074-.32.063-.272.127-.547.193-.819a.457.457,0,0,1,.019-.076c0-.008,0-.014.007-.023.049-.221.1-.44.159-.664,0-.014.009-.033.013-.049.034-.147.071-.295.109-.442.057-.234.118-.47.179-.7q.122-.479.25-.958c.084-.316.172-.634.258-.952s.177-.635.267-.954c.083-.3.167-.6.258-.9a.5.5,0,0,1,.029-.1q.267-.93.553-1.864c.2-.638.4-1.272.6-1.907.1-.319.206-.638.31-.954.21-.639.425-1.272.644-1.911.106-.316.217-.633.329-.952Zm-27.456-8.719h1.383q-1.111,2.7-2.14,5.412h-1.43C4747.044,6533.673,4747.778,6531.868,4748.533,6530.065Zm-3.807,9.75h1.468q-.92,2.627-1.73,5.247h-1.51Q4743.784,6542.44,4744.727,6539.815Zm-3.118,9.752h1.554c-.23.848-.447,1.692-.656,2.539s-.409,1.7-.6,2.54h-1.594C4740.7,6552.954,4741.139,6551.259,4741.609,6549.567Zm-2.352,10.318.1-.569h1.635q-.422,2.458-.709,4.913h-1.677Q4738.877,6562.061,4739.257,6559.885Zm-1.271,13.932q.006-2.374.162-4.748h1.332v4.748Zm.64,9.58q-.319-2.288-.473-4.579h1.8q.177,2.289.512,4.579Zm2.062,9.586q-.245-.828-.462-1.654-.078-.276-.146-.552c-.191-.734-.366-1.471-.529-2.205h1.889q.508,2.207,1.175,4.411Zm3.66,9.587c-.669-1.418-1.275-2.834-1.83-4.251h1.972q.847,2.125,1.863,4.251Zm5.417,9.582c-.1-.142-.191-.285-.286-.433q-1.194-1.822-2.247-3.647h2.056q1.071,1.823,2.281,3.647c.095.147.191.291.288.433Zm3.588-.149c-.063-.1-.126-.188-.188-.283a73.273,73.273,0,0,1-8.229-16.2h37.815l.273.514c.093.172.185.344.279.516s.186.342.282.516.188.343.285.513.193.344.292.515c.063.115.126.224.191.336.08.138.16.278.244.417.15.267.309.53.466.793.207.344.414.686.625,1.029l.04.064c.2.321.4.644.609.965.283.452.575.9.876,1.351q.166.253.336.5c.274.414.558.825.844,1.234.12.172.24.347.361.519l.367.514.372.514c.121.172.25.342.375.518.255.34.51.683.772,1.029.129.171.259.344.393.513.392.514.8,1.031,1.211,1.546.136.171.275.342.413.513l.372.458c.155.191.312.383.474.575q.21.256.429.514Zm42.553.149q-1.745-2.041-3.309-4.08h2.054q1.59,2.041,3.345,4.08Z" transform="translate(-4735.224 -6345.231)" fill="#f9eeee"/>
      <path id="Path_2780" data-name="Path 2780" d="M4865.013,6329.6q-12.711-12.949-39.319-12.949h-71.252v175.113c6.38-21.7,19.154-43.4,29.6-65.1.072-.148.145-.3.216-.449v-1.5h.716c2.534-5.338,4.912-10.672,7-16.011h-7.716v-76.048h4.191l-.48-.715h4.454c.216.241.433.483.646.715h32.39q17.657,0,25.662,8.832t8.005,27.665q0,39.552-33.667,39.552h-11.743c-.886,5.339-2.06,10.673-3.39,16.011h15.367q52.032,0,52.035-55.563Q4877.729,6342.549,4865.013,6329.6Z" transform="translate(-4750.406 -6287.676)" fill="#f9eeee"/>
      <g id="Group_3904" data-name="Group 3904" transform="translate(293.056 33.288)">
        <path id="Path_2781" data-name="Path 2781" d="M6591.046,7028.967c.187-.255.283-.389.239-.346A1.269,1.269,0,0,0,6591.046,7028.967Z" transform="translate(-6494.495 -6889.134)" fill="#f9eeee"/>
        <path id="Path_2782" data-name="Path 2782" d="M6299.512,6339.138c-.088.6-.163,1.282-.22,2.048-.122,1.559-.181,3.473-.181,5.729q-.82,16.315-.809,24.089,0,10.88.4,16.319v50.126l.13,60.4v1.01h0l.013,5.213-1.84-1.552-11.312-9.615c-1.89-6.655-3.319-12.361-4.035-15.035a13.257,13.257,0,0,0-.473-1.611c-2.132-3.008-4.079-6.978-7.631-5.923-.451.132-1.115-.524-1.521-1.091-1.18-1.651-2.374-3.288-3.515-5,.076-12.846.185-29.992.209-36.6q.044-9.367.087-18.634c.011-1.541.013-3.078.024-4.624l.005-1.067,0-.048.014-.108.051-.492c.037-.446.078-.9.114-1.342l.025-.415.016-.216.009-.111c0-.02,0-.047,0-.059l-.041-.013-.155-.076c-.05-.012-.039.048-.063.065l-.105.195c-.141.286-.315.641-.518,1.071-.112.241-.224.484-.331.724l-.182.4-.05.108-.008.027-.076.2-.191.515-.753,2.062q-6.053,16.452-11.933,32.46c-1.135,3.078-2.333,5.9-3.571,8.583-.177.032-.348.066-.52.1a5.864,5.864,0,0,0-3.985,2.416c-.433.793-.861,1.608-1.293,2.415q-.441.825-.9,1.624a22.969,22.969,0,0,1-1.592,2.443c-.128.164-.252.323-.378.481v0q-.3.381-.6.75c-1.868,2.3-3.846,4.4-5.714,6.693-.234.285-.464.579-.693.868-.215.269-.421.541-.628.816q-1.307,1.753-2.6,3.526c-.24.329-.482.659-.723.987q-1.146,1.57-2.283,3.148c-.126.175-.254.349-.378.525l-.052-.069c-.034.093-.065.185-.1.282-.29.395-.572.791-.859,1.185q-1.4,1.95-2.8,3.9c-.207.3-.421.589-.633.885-.106.15-.212.3-.323.448,0,0,0,0,0,0-.725,1.009-1.453,2.018-2.174,3.026-.072.1-.141.2-.214.3-.228.315-.454.633-.681.946-.251.346-.5.691-.749,1.034-.029.039-.06.082-.09.124-.246.336-.488.672-.733,1.01-.132.181-.263.361-.4.54-.3.407-.6.812-.9,1.211-1.1,1.464-2.223,2.917-3.377,4.419-.5.643-1,1.3-1.516,1.974a5.223,5.223,0,0,1-.885-.666,1.666,1.666,0,0,1-.183-.225c-.015-.029-.039-.056-.055-.085-.152-.225-.3-.452-.457-.678-.13-.193-.261-.39-.389-.583-1.943-2.924-3.846-5.914-5.824-8.78-4.4-6.373-8.742-12.851-13.309-18.931-.158-.211-.311-.418-.473-.623-2.427-3.182-4.992-6.116-7.543-9.074-.191-.223-.38-.441-.568-.666q-.513-1.48-1.016-2.954-7.967-23.428-15.313-45.007c-.307-.9-.606-1.8-.912-2.69l-.452-1.334-.177-.522-.089-.292c-.258-.812-.507-1.614-.765-2.412-.551-1.713-1.086-3.412-1.616-5.085-.2-.625-.4-1.244-.6-1.865l-3.767,85.454a.567.567,0,0,0-.047.074c-.521.8-1.027,1.608-1.537,2.42a86.952,86.952,0,0,1-5.76,8.521c-3.15,3.9-6.779,6.858-9.657,11.346-.1.148-.265.181-.39.3-2.566,2.3-5.214,4.414-7.665,6.984-.007.007-.009.014-.016.018a5.226,5.226,0,0,0-.279,1.357v0c-.279,2.1-.6,6.267-.956,10.354-.372.344-.837.764-1.354,1.226l0-7.057v-1.01l.07-171.191,22.048-.254q3.335-.057,6.721-.111,2.6-.034,5.218-.064c.379-.007.763-.011,1.146-.013a1.962,1.962,0,0,1,.117.721s44.887,138.719,45.7,141.051l.807,1.553,4.042-8.939,48.743-137.642c.437,0,.877,0,1.316,0a.71.71,0,0,0,.084.09,1.461,1.461,0,0,0,.608-.095q4.887-.015,9.793-.031c.039-.088.073-.175.111-.259h.811l-.088.252q10.54-.038,21.173-.082A4.066,4.066,0,0,1,6299.512,6339.138Z" transform="translate(-6131.153 -6337.199)" fill="#f9eeee"/>
        <path id="Path_2783" data-name="Path 2783" d="M6158.808,7034.391l-.049,1.125c-.52.832-1.028,1.676-1.535,2.52a90.172,90.172,0,0,1-5.761,8.865c-3.15,4.062-6.778,7.141-9.657,11.807-.1.155-.264.19-.391.308-2.566,2.4-5.213,4.6-7.663,7.272a3.264,3.264,0,0,0-.3.378h0a33.2,33.2,0,0,0-2.306,4.708c0,.007,0,.007,0,.012v-1.049c0-.006,0-.006,0-.01v0c.064-.149.126-.295.19-.438q.289-.671.563-1.28c.055-.119.112-.237.162-.35.006-.017.014-.033.021-.047.057-.118.114-.24.168-.355.061-.136.123-.261.183-.385s.1-.22.159-.325a.024.024,0,0,0,.006-.019c.084-.156.159-.31.236-.452.019-.033.035-.063.052-.1.087-.16.169-.312.251-.447a.543.543,0,0,1,.038-.067.257.257,0,0,0,.017-.032c.11-.177.21-.339.307-.477.038-.054.075-.1.113-.149s.079-.1.119-.147a.118.118,0,0,0,.017-.018c2.45-2.676,5.1-4.87,7.663-7.271.126-.116.292-.149.391-.3,2.879-4.671,6.506-7.75,9.657-11.809a90.2,90.2,0,0,0,5.761-8.867c.507-.844,1.015-1.689,1.535-2.52A.39.39,0,0,1,6158.808,7034.391Z" transform="translate(-6131.146 -6895.465)" fill="#f9eeee"/>
        <path id="Path_2784" data-name="Path 2784" d="M6424.87,6940.273q.426-.62.855-1.237c-.186.526-.419,1.158-.7,1.883l0,.005c0,.006,0,.008,0,.011s0,0,0,0c-.048.123-.1.25-.147.38q-.344.877-.773,1.922c-.744,1-1.778,2.416-2.5,3.523l.478-1.387c-.211.3-.426.614-.636.921-.106.156-.212.31-.321.465,0,0,0,0,0,0-.722,1.05-1.45,2.1-2.175,3.152-.067.1-.141.207-.212.308-.229.329-.455.658-.684.986-.249.358-.5.717-.749,1.071a1.077,1.077,0,0,1-.086.13c-.245.354-.491.7-.735,1.052-.131.191-.262.377-.4.562-.3.422-.6.844-.9,1.264-1.1,1.524-2.225,3.03-3.382,4.6q-.744,1.008-1.512,2.052a4.718,4.718,0,0,1-.886-.687,1.681,1.681,0,0,1-.185-.236c-.017-.033-.039-.061-.054-.088-.152-.235-.306-.471-.457-.709-.13-.2-.262-.4-.391-.6-1.942-3.041-3.845-6.156-5.822-9.139-4.4-6.629-8.741-13.371-13.308-19.7-.158-.217-.315-.434-.475-.646-2.427-3.31-4.992-6.365-7.542-9.445q-.287-.869-.568-1.738c.187.231.377.459.568.69,2.55,3.078,5.115,6.131,7.542,9.443.159.212.316.429.475.647,4.566,6.327,8.909,13.068,13.308,19.7,1.978,2.983,3.88,6.095,5.822,9.134.129.205.261.408.391.609l.457.7c.015.033.037.059.054.089a1.518,1.518,0,0,0,.185.235,4.769,4.769,0,0,0,.886.69q.766-1.048,1.512-2.05c1.157-1.566,2.279-3.077,3.382-4.6.3-.417.6-.836.9-1.258.134-.189.265-.376.4-.567q.366-.521.735-1.048c.029-.043.06-.086.086-.128.253-.359.5-.715.749-1.074.229-.329.454-.657.684-.989.071-.1.145-.206.212-.306.725-1.047,1.453-2.1,2.175-3.15l0,0c.109-.161.215-.312.321-.469.21-.307.425-.614.636-.923Q6423.472,6942.3,6424.87,6940.273Z" transform="translate(-6328.228 -6804.259)" fill="#f9eeee"/>
        <path id="Path_2785" data-name="Path 2785" d="M6598.957,6991.507c.241-.342.481-.686.723-1.027l-.723,2.078q-1.146,1.632-2.282,3.274l-.379-.5c.124-.182.253-.367.379-.545Q6597.809,6993.14,6598.957,6991.507Z" transform="translate(-6498.644 -6858.838)" fill="#f9eeee"/>
        <path id="Path_2786" data-name="Path 2786" d="M6634.212,6928.546q.3-.39.6-.786c-.11.317-.221.64-.334.962l-.269.87c-2.1,2.691-4.344,5.116-6.407,7.87.239-.667.467-1.319.7-1.955C6630.366,6933.119,6632.345,6930.935,6634.212,6928.546Z" transform="translate(-6523.538 -6808.876)" fill="#f9eeee"/>
        <path id="Path_2787" data-name="Path 2787" d="M6676.75,6880.847c.173-.039.343-.075.519-.107-.169.39-.344.775-.519,1.159a5.83,5.83,0,0,0-3.983,2.514c-.735,1.387-1.438,2.839-2.192,4.205.3-.923.6-1.84.9-2.743.436-.838.858-1.688,1.3-2.513A5.843,5.843,0,0,1,6676.75,6880.847Z" transform="translate(-6557.328 -6771.275)" fill="#f9eeee"/>
        <path id="Path_2788" data-name="Path 2788" d="M6815.894,7003.145c-8.507-10.789-17.309-21.94-17.793-22.654-2.132-3.131-4.078-7.262-7.63-6.163-.456.138-1.117-.543-1.524-1.133-1.18-1.721-2.374-3.431-3.52-5.213,0-.345.006-.69.006-1.043,1.143,1.781,2.334,3.485,3.514,5.206.407.591,1.068,1.271,1.524,1.134,3.552-1.1,5.5,3.033,7.63,6.163.484.714,9.279,11.857,17.788,22.646Z" transform="translate(-6648.068 -6842.173)" fill="#f9eeee"/>
      </g>
      <g id="Group_3906" data-name="Group 3906" transform="translate(293.056 156.949)">
        <g id="Group_3905" data-name="Group 3905" transform="translate(0 0)">
          <path id="Path_2789" data-name="Path 2789" d="M6298.823,6933.058q-.992-1.26-1.986-2.513-.333-.426-.666-.847c-.395-.5-.791-1-1.182-1.5-.133-.166-.263-.333-.393-.5-.435-.545-.863-1.092-1.29-1.635-.249-.313-.5-.632-.744-.941-.506-.638-1-1.27-1.488-1.885q-.322-.408-.638-.814c-.149-.186-.294-.369-.438-.553-.209-.267-.416-.534-.624-.793q-.382-.489-.755-.96l-.6-.761-.386-.489c-.193-.247-.387-.489-.573-.729-1.57-2-2.916-3.7-3.922-5-.128-.16-.248-.317-.363-.467l-.666-.851c-.1-.124-.182-.236-.261-.341-.168-.217-.306-.4-.415-.536-.041-.058-.08-.106-.111-.149-.073-.1-.124-.166-.148-.2-2.132-3.129-4.08-7.261-7.631-6.164-.454.141-1.119-.542-1.523-1.133-1.179-1.718-2.371-3.425-3.515-5.205a.028.028,0,0,0-.005-.01c-.036-.053-.071-.112-.108-.165-.534-.838-1.06-1.689-1.567-2.57-2.426-4.192-4.7-8.617-7.065-12.9-1.245-2.26-5.319-3.067-8.677-2.452-.176.032-.348.068-.516.1a5.85,5.85,0,0,0-3.988,2.516c-.435.827-.86,1.673-1.293,2.514-.3.572-.594,1.138-.9,1.691a24.069,24.069,0,0,1-1.592,2.541c-.125.171-.25.337-.378.5v0c-.2.263-.4.524-.6.784-1.868,2.39-3.846,4.574-5.711,6.966-.236.292-.469.6-.7.9q-.319.42-.627.855-1.306,1.819-2.6,3.666c-.245.342-.482.684-.726,1.028q-1.145,1.63-2.28,3.275-.193.272-.378.547c-.053.072-.106.148-.153.222-.291.41-.573.822-.856,1.229q-.344.879-.773,1.927c-.744,1-1.779,2.415-2.5,3.52l.477-1.386c-.211.306-.422.615-.636.923-.106.156-.212.31-.323.463,0,0,0,0,0,.007q-1.085,1.576-2.174,3.148c-.072.1-.141.2-.212.309-.229.33-.456.658-.683.986-.251.357-.5.72-.748,1.076-.029.041-.061.086-.091.125-.243.354-.489.7-.734,1.055-.132.188-.263.376-.4.562-.3.421-.6.842-.9,1.258-1.1,1.524-2.222,3.033-3.38,4.6q-.742,1-1.513,2.053a5.33,5.33,0,0,1-.888-.691,2.049,2.049,0,0,1-.18-.235c-.017-.029-.038-.057-.054-.09-.157-.23-.307-.465-.456-.7-.131-.2-.263-.409-.393-.605-1.943-3.045-3.847-6.155-5.824-9.138-4.4-6.632-8.742-13.375-13.306-19.7-.159-.22-.316-.437-.474-.648-2.428-3.31-4.992-6.363-7.544-9.441-.188-.231-.382-.461-.571-.692-.807-.975-1.616-1.956-2.411-2.943-1.58-1.965-3.584-1.182-4.336,1.692a5.535,5.535,0,0,1-.686,1.73c-.783,1.115-1.558,2.257-2.33,3.41-3.065,4.583-6.079,9.31-9.526,12.973a46.473,46.473,0,0,0-5.418,7.376.472.472,0,0,0-.049.078c-.52.826-1.028,1.671-1.535,2.515a90.737,90.737,0,0,1-5.761,8.871c-3.15,4.055-6.778,7.134-9.657,11.806-.1.153-.264.191-.391.3-2.566,2.4-5.213,4.6-7.663,7.271a.215.215,0,0,0-.017.021,1.775,1.775,0,0,0-.119.146c-.039.049-.076.095-.113.149-.1.14-.2.3-.307.479a.19.19,0,0,1-.017.028c-.014.024-.025.045-.038.068-.082.138-.165.288-.251.45-.018.033-.034.067-.052.1-.077.145-.152.3-.236.456a.03.03,0,0,1-.006.019c-.054.1-.105.214-.159.324s-.122.25-.183.38-.111.238-.168.358c-.007.017-.014.03-.021.047-.05.113-.107.23-.162.351-.183.406-.371.835-.563,1.28l-.19.438v0a.01.01,0,0,0,0,.01v1.05a.008.008,0,0,1,0-.008l0,7.341c.516-.479.981-.918,1.355-1.277.483-.458.808-.781.888-.868,4.6-5.412,9.2-10.831,13.715-16.429.2-.246.4-.5.6-.743,3.188-3.973,6.358-7.993,9.521-12.013q.525-.665,1.045-1.329c3.036-3.859,6.075-7.72,9.129-11.544.426-.528,1.262-.436,1.872-.281.56.138,1.076.75,1.609,1.152.13-1.072.309-2.137.372-3.223a10.429,10.429,0,0,0-.073-1.641c.7-.892,1.405-1.546,1.965-2.246a5.135,5.135,0,0,0,.85-1.438c1.61-4.275,4.123-3.4,6.5-3.442.292-.005.739.434.854.855,1.042,3.707,2.09,7.42,3.011,11.208,1.133,4.67,1.62,10.019,3.351,13.973,1.988,4.538,2.839,9.29,3.522,14.437a40.39,40.39,0,0,0,1.546,7.233c1.33,4.013,2.921,7.8,4.36,11.727.722,1.957,1.4,3.619,2.7.614,2.6,5.688,2.165,13.23,5.237,19.3-3.717-24.664-10.565-46.368-15.843-69.07a1.656,1.656,0,0,1,1.515.4q2.361,2.516,4.721,5.033c3.555,3.785,7.106,7.583,10.636,11.435,1.963,2.149,3.9,4.355,5.841,6.572.187.212.371.425.559.636.167.194.334.384.5.576.565.647,1.125,1.291,1.689,1.935.433.489.861.981,1.291,1.47.086.1.175.2.265.3,1.771,2.016,3.479,4.206,5.336,5.987.635.606,1.637.205,2.473.266q.287-1.022.57-2.044a11.172,11.172,0,0,1-2.155-1.639q-2.732-3.2-5.349-6.663c-.083-.111-.163-.226-.237-.34a4.655,4.655,0,0,1-.427-.821,3.943,3.943,0,0,1,.6-4.086c.41-.487.816-.977,1.228-1.476q.457-.554.917-1.115c.175-.217.353-.432.526-.65.353-.437.707-.867,1.056-1.306.43-.526.854-1.053,1.28-1.58.031-.037.061-.076.091-.111l.41-.5q.623-.768,1.246-1.531c1.531-1.861,3.07-3.693,4.653-5.432a20.1,20.1,0,0,0,1.7-2.244c1.882-2.809,3.58-6.063,6.35-6.824.045-.014.089-.025.136-.038.293-.069.565-.962.742-1.556a21.216,21.216,0,0,1,1.893-4.659,6.616,6.616,0,0,1,2.163-2.377,4.291,4.291,0,0,1,.948-.434,6.22,6.22,0,0,1,3.907.266c.868.3,8.975-.2,10.479-.414,2.489,6.807,5.191,14.6,8.134,22.142q1.5,3.836,3.041,7.617,3.112,7.635,6.37,15.125c1.566,3.614,3.173,7.179,4.791,10.728s3.244,7.093,4.855,10.652c.248-.278.5-.552.745-.829q-.375-.767-.748-1.543a336.5,336.5,0,0,1-15.777-38.717q-2.867-8.527-5.346-17.443a8.2,8.2,0,0,1,2.672,2.407c.455.52.952,1.29,1.437,1.311a13.146,13.146,0,0,0,1.353-.029c.043,0,.084-.007.128-.007,1.056-.073,2.113-.218,3.171-.222.363,0,.776.571,1.088,1.022,2.024,2.933,4.032,5.889,6.051,8.837q1.887,2.76,3.783,5.512l3.148,2.784,11.307,10.006,1.845,1.613.107-5.271.021-1.023C6298.917,6933.178,6298.871,6933.117,6298.823,6933.058ZM6227.934,6910a1.223,1.223,0,0,0-.238.345c.059-.08.108-.15.148-.208.012-.014.022-.031.038-.046s.018-.028.026-.038a.124.124,0,0,1,.026-.035c0-.008,0-.01,0-.013s0-.005,0-.011S6227.938,6910,6227.934,6910Z" transform="translate(-6131.146 -6879.794)" fill="#f9eeee"/>
          <path id="Path_2790" data-name="Path 2790" d="M6579.161,7020.51q-.34.875-.772,1.923c-.743,1-1.777,2.417-2.5,3.522l.478-1.387Q6577.764,7022.535,6579.161,7020.51Z" transform="translate(-6482.517 -6990.969)" fill="#f9eeee"/>
          <path id="Path_2791" data-name="Path 2791" d="M6591.046,7023.964a1.258,1.258,0,0,1,.239-.344C6591.329,7023.58,6591.232,7023.709,6591.046,7023.964Z" transform="translate(-6494.495 -6993.421)" fill="#f9eeee"/>
          <path id="Path_2792" data-name="Path 2792" d="M6237.245,7160.651c-1.6-3.057-.679-13.649,1.686-17.416a62.19,62.19,0,0,0,4.956,15.906,4.84,4.84,0,0,1,.183,2.322c-.711,4.657-1.441,9.311-2.275,13.909a7.886,7.886,0,0,1-1.631,3.494q.3-7.191.614-14.388a4.9,4.9,0,0,0,.058-1.042c-.333-1.552-.708-3.078-1.065-4.612C6239,7159.383,6238.226,7159.94,6237.245,7160.651Z" transform="translate(-6214.339 -7087.93)" fill="#f9eeee"/>
        </g>
      </g>
      <path id="Path_2793" data-name="Path 2793" d="M6740.838,7291.335" transform="translate(-6319.784 -7057.737)" fill="#f9eeee" stroke="#fff" stroke-miterlimit="10" stroke-width="1"/>
      <g id="Group_3907" data-name="Group 3907" transform="translate(398.863 179.668)">
        <path id="Path_2794" data-name="Path 2794" d="M6635.137,7036.875c14.853-5.983,18.286.707,19.821,2.958l.111.155.069.181,14.8,37.825-.038-.037-19.226-39.613Z" transform="translate(-6635.137 -7034.449)" fill="#f9eeee"/>
      </g>
    </g>
    <g id="Group_4045" data-name="Group 4045" transform="translate(-577 1910)">
      <text id="PeakViewMedia" transform="translate(720 1833)" fill="#f9f9f9" font-size="30" font-family="Poppins-Bold, Poppins" font-weight="700" letter-spacing="0.113em"><tspan x="0" y="0">PeakViewMedia</tspan></text>
      <text id="Aim:_-" data-name="Aim: -" transform="translate(720 1865)" fill="#f9f9f9" font-size="13" font-family="Poppins-Bold, Poppins" font-weight="700" letter-spacing="0.113em"><tspan x="0" y="0">Aim: -</tspan></text>
    </g>
  </g>
</svg>
