<svg xmlns="http://www.w3.org/2000/svg" viewBox="0 0 926.01 416"><defs><style>.cls-1{fill:#55a6ff;stroke:#55a6ff;}.cls-1,.cls-4{stroke-miterlimit:10;}.cls-2{fill:none;}.cls-3{fill:#fff;}.cls-4{fill:gray;stroke:gray;}</style></defs><g id="Layer_2" data-name="Layer 2"><g id="Layer_1-2" data-name="Layer 1"><g id="Group_5495" data-name="Group 5495"><path id="Path_5482" data-name="Path 5482" class="cls-1" d="M338.81.5H.51Q2.56,182.77,1,365,.8,390.25.51,415.5h338.3A344.53,344.53,0,0,1,338.81.5Zm46.43,183q-9.15-9.91-24.19-9.92a39.4,39.4,0,0,0-17.7,3.93,35.29,35.29,0,0,0-12.9,10.6l7.86-43.93H304.63l-22.4,126.5h33.68l2.39-13.34A21.46,21.46,0,0,0,327.45,268q6.41,3.84,16.32,3.84a42.88,42.88,0,0,0,21.8-6,52.84,52.84,0,0,0,17.69-17.18,70.08,70.08,0,0,0,10.09-26.07,77.23,77.23,0,0,0,1-12q0-17.27-9.14-27.18Zm-26.07,39.14q-1.55,9.24-7.53,14.62a19.66,19.66,0,0,1-13.5,5.38,13.92,13.92,0,0,1-10.34-4q-4-4-4-11.2a24.13,24.13,0,0,1,.51-4.79q1.54-9.23,7.61-14.53a19.93,19.93,0,0,1,13.42-5.3,14.15,14.15,0,0,1,10.34,3.94q4,3.93,4,10.94A25.74,25.74,0,0,1,359.17,222.61ZM479,178.85a56.66,56.66,0,0,0-15.9,13.33l3.08-17.43H432.67l-17.09,95.9h33.67l7.69-43.42q2.06-9.75,8-13.68t16.58-3.93H491l6.16-35.73A36.85,36.85,0,0,0,479,178.85Zm110.6-4.1-2.4,13.33a21.09,21.09,0,0,0-9.06-10.6q-6.5-3.93-16.41-3.93a42.94,42.94,0,0,0-21.79,6,53.2,53.2,0,0,0-17.7,17.1,69.14,69.14,0,0,0-10.08,26,73.93,73.93,0,0,0-1,12q0,17.26,9.06,27.26t24.11,10a39.75,39.75,0,0,0,17.77-3.93,35.22,35.22,0,0,0,13-10.6l-2.4,13.34h33.51l16.92-95.9Zm-8.38,47.86q-1.54,9.4-7.52,14.7a19.8,19.8,0,0,1-13.51,5.3,14.17,14.17,0,0,1-10.34-3.93q-4-3.93-4-11.11a24.28,24.28,0,0,1,.52-5q1.53-9.39,7.52-14.61a20,20,0,0,1,13.5-5.22,14.1,14.1,0,0,1,10.34,3.94q4,3.93,4,11.11a25.52,25.52,0,0,1-.51,4.78ZM744.38,182q-7.95-8.12-22-8.12a40.24,40.24,0,0,0-17.95,4,43.35,43.35,0,0,0-13.85,10.51l2.4-13.67H659.51l-17.09,95.9h33.67l9.23-52.31Q687,210.48,692,206a17.53,17.53,0,0,1,12.14-4.44q6.32,0,9.83,3.42t3.5,9.57a23.84,23.84,0,0,1-.51,4.61l-9.06,51.46h33.5l9.92-55.9a57,57,0,0,0,1-10.26Q752.33,190.14,744.38,182Zm118.21-37.86-7.69,43.76a22.33,22.33,0,0,0-9.49-10.51,30.75,30.75,0,0,0-15.81-3.85,43.36,43.36,0,0,0-21.88,6,52.79,52.79,0,0,0-17.78,17.1,69.15,69.15,0,0,0-10.09,26,75.06,75.06,0,0,0-1,12q0,17.26,9.14,27.26t24.19,10a38.66,38.66,0,0,0,17.61-3.93,37,37,0,0,0,13-10.6l-2.56,13.34h33.67l22.4-126.5Zm-13.68,78.46q-1.53,9.4-7.52,14.7a19.84,19.84,0,0,1-13.5,5.3,14.13,14.13,0,0,1-10.34-3.93q-4-3.93-4-11.11a24.27,24.27,0,0,1,.51-5q1.55-9.39,7.52-14.61a20,20,0,0,1,13.51-5.22,14.15,14.15,0,0,1,10.34,3.94q4,3.93,4,11.11a24.72,24.72,0,0,1-.52,4.78Z"/><line id="Line_18" data-name="Line 18" class="cls-2" x1="463.37" y1="208.34" x2="462.64" y2="207.66"/><line id="Line_20" data-name="Line 20" class="cls-2" x1="494.95" y1="208.34" x2="495.68" y2="207.66"/><line id="Line_21" data-name="Line 21" class="cls-2" x1="494.68" y1="207.85" x2="494.95" y2="208.14"/><g id="Group_5493" data-name="Group 5493"><path id="Path_5483" data-name="Path 5483" class="cls-3" d="M132.84,158.59q-9.91-8.46-28.89-8.46H51.13L29.76,270.65H63.43L71.3,226.2h3.59L91,270.65h37.26l-18.8-47q13.85-3.93,22.22-13.25a42.13,42.13,0,0,0,10.43-21.62,39.8,39.8,0,0,0,.68-7.7Q142.75,167.06,132.84,158.59Zm-25.13,32.06Q105.31,203.3,92,203.3H75.4L79.67,178H96.26q5.8,0,8.8,2.56a9,9,0,0,1,3,7.18,21.79,21.79,0,0,1-.34,2.91Z"/><path id="Path_5484" data-name="Path 5484" class="cls-3" d="M250.19,183.64q-11-10.09-29.83-10.09a58.63,58.63,0,0,0-26.41,6,55.31,55.31,0,0,0-20.17,17,61.76,61.76,0,0,0-10.86,26.07,59.89,59.89,0,0,0-1,10.77q0,18,11.11,28.21t29.91,10.25a57.34,57.34,0,0,0,40.6-16.66,52,52,0,0,0,11.71-17.69H219.68q-5,7.51-13.34,7.52a11.63,11.63,0,0,1-8.46-3.08q-3.16-3.08-3.16-9.57a18.66,18.66,0,0,1,.17-3.08h63.42a41.89,41.89,0,0,0,2.05-7.86,56,56,0,0,0,.86-10.26Q261.22,193.73,250.19,183.64Zm-22.82,30.6H197.62c1.48-4.67,3.77-8.21,6.84-10.6a17.27,17.27,0,0,1,10.94-3.59,13.53,13.53,0,0,1,8.89,2.82q3.42,2.82,3.42,8.29c-.06,1-.18,2.06-.34,3.08Z"/><path id="Path_5485" data-name="Path 5485" class="cls-3" d="M385.23,183.47q-9.15-9.91-24.19-9.92a39.46,39.46,0,0,0-17.7,3.93,35.37,35.37,0,0,0-12.9,10.6l7.86-43.93H304.63l-22.4,126.5h33.68l2.39-13.34A21.46,21.46,0,0,0,327.45,268q6.41,3.84,16.32,3.84a42.88,42.88,0,0,0,21.8-6,52.84,52.84,0,0,0,17.69-17.18,70.08,70.08,0,0,0,10.09-26.07,77.23,77.23,0,0,0,1-12Q394.37,193.39,385.23,183.47Zm-26.07,39.14q-1.55,9.24-7.53,14.62a19.66,19.66,0,0,1-13.5,5.38,14,14,0,0,1-10.34-4q-4-4-4-11.2a24.13,24.13,0,0,1,.51-4.79q1.55-9.23,7.61-14.53a20,20,0,0,1,13.42-5.3,14.14,14.14,0,0,1,10.34,3.94q4,3.93,4,10.94a25.73,25.73,0,0,1-.5,5Z"/><path id="Path_5486" data-name="Path 5486" class="cls-3" d="M479,178.85a56.66,56.66,0,0,0-15.9,13.33l3.08-17.43H432.67l-17.09,95.9h33.67l7.69-43.42q2.06-9.75,8-13.68t16.58-3.93H491l6.16-35.73A36.85,36.85,0,0,0,479,178.85Z"/><path id="Path_5487" data-name="Path 5487" class="cls-3" d="M589.6,174.75l-2.4,13.33a21.09,21.09,0,0,0-9.06-10.6q-6.5-3.93-16.41-3.93a42.94,42.94,0,0,0-21.79,6,53.2,53.2,0,0,0-17.7,17.1,69.14,69.14,0,0,0-10.08,26,73.93,73.93,0,0,0-1,12q0,17.26,9.06,27.26t24.11,10a39.75,39.75,0,0,0,17.77-3.93,35.22,35.22,0,0,0,13-10.6l-2.4,13.34h33.51l16.92-95.9Zm-8.38,47.86q-1.54,9.4-7.52,14.7a19.8,19.8,0,0,1-13.51,5.3,14.17,14.17,0,0,1-10.34-3.93q-4-3.93-4-11.11a24.28,24.28,0,0,1,.52-5q1.53-9.39,7.52-14.61a20,20,0,0,1,13.5-5.22,14.1,14.1,0,0,1,10.34,3.94q4,3.93,4,11.11a25.52,25.52,0,0,1-.51,4.78Z"/><path id="Path_5488" data-name="Path 5488" class="cls-3" d="M744.38,182q-7.95-8.12-22-8.12a40.24,40.24,0,0,0-17.95,4,43.35,43.35,0,0,0-13.85,10.51l2.4-13.67H659.51l-17.09,95.9h33.67l9.23-52.31Q687,210.48,692,206a17.53,17.53,0,0,1,12.14-4.44q6.32,0,9.83,3.42t3.5,9.57a23.84,23.84,0,0,1-.51,4.61l-9.06,51.46h33.5l9.92-55.9a57,57,0,0,0,1-10.26Q752.33,190.14,744.38,182Z"/><path id="Path_5489" data-name="Path 5489" class="cls-3" d="M862.59,144.15l-7.69,43.76a22.33,22.33,0,0,0-9.49-10.51,30.75,30.75,0,0,0-15.81-3.85,43.36,43.36,0,0,0-21.88,6,52.79,52.79,0,0,0-17.78,17.1,69.15,69.15,0,0,0-10.09,26,75.06,75.06,0,0,0-1,12q0,17.26,9.14,27.26t24.19,10a38.66,38.66,0,0,0,17.61-3.93,37,37,0,0,0,13-10.6l-2.56,13.34h33.67l22.4-126.5Zm-13.68,78.46q-1.53,9.4-7.52,14.7a19.84,19.84,0,0,1-13.5,5.3,14.13,14.13,0,0,1-10.34-3.93q-4-3.93-4-11.11a24.27,24.27,0,0,1,.51-5q1.55-9.39,7.52-14.61a20,20,0,0,1,13.51-5.22,14.15,14.15,0,0,1,10.34,3.94q4,3.93,4,11.11a24.72,24.72,0,0,1-.52,4.78Z"/></g><g id="Group_5494" data-name="Group 5494"><path id="Path_5490" data-name="Path 5490" class="cls-4" d="M338.81.5a344.53,344.53,0,0,0,0,415h586.7V.5Zm54.55,222.11a70.08,70.08,0,0,1-10.09,26.07,52.94,52.94,0,0,1-17.69,17.18,42.9,42.9,0,0,1-21.8,6q-9.91,0-16.32-3.84a21.41,21.41,0,0,1-9.15-10.69l-2.39,13.34H282.23l22.4-126.5H338.3l-7.86,43.93a35.37,35.37,0,0,1,12.9-10.6,39.43,39.43,0,0,1,17.7-3.93q15,0,24.19,9.92t9.14,27.18A78.47,78.47,0,0,1,393.36,222.61Zm97.6-13h-9.4q-10.6,0-16.58,3.93t-8,13.68l-7.69,43.42H415.58l17.09-95.9h33.51l-3.08,17.43A56.66,56.66,0,0,1,479,178.85a36.85,36.85,0,0,1,18.12-5Zm115.22,61H572.67l2.4-13.34a35.22,35.22,0,0,1-13,10.6,39.75,39.75,0,0,1-17.77,3.93q-15,0-24.11-10t-9.06-27.26a73.93,73.93,0,0,1,1-12,69.14,69.14,0,0,1,10.08-26,53.2,53.2,0,0,1,17.7-17.1,42.94,42.94,0,0,1,21.79-6q9.91,0,16.41,3.93a21.09,21.09,0,0,1,9.06,10.6l2.4-13.33h33.5Zm145.13-55.9-9.92,55.9h-33.5L717,219.19a23.84,23.84,0,0,0,.51-4.61q0-6.15-3.5-9.57t-9.83-3.42A17.53,17.53,0,0,0,692,206a22.3,22.3,0,0,0-6.67,12.31l-9.23,52.31H642.42l17.09-95.9H693l-2.4,13.67a43.35,43.35,0,0,1,13.85-10.51,40.24,40.24,0,0,1,17.95-4q14,0,22,8.12t8,22.48a57,57,0,0,1-1,10.26Zm122.56,55.9H840.2l2.56-13.34a37,37,0,0,1-13,10.6,38.66,38.66,0,0,1-17.61,3.93q-15,0-24.19-10t-9.14-27.26a75.06,75.06,0,0,1,1-12,69.15,69.15,0,0,1,10.09-26,52.88,52.88,0,0,1,17.78-17.1,43.36,43.36,0,0,1,21.88-6,30.75,30.75,0,0,1,15.81,3.85,22.33,22.33,0,0,1,9.49,10.51l7.69-43.76h33.68Z"/><path id="Path_5491" data-name="Path 5491" class="cls-4" d="M345.32,202.78a19.93,19.93,0,0,0-13.42,5.3q-6.07,5.31-7.61,14.53a24.13,24.13,0,0,0-.51,4.79q0,7.18,4,11.2a13.92,13.92,0,0,0,10.34,4,19.66,19.66,0,0,0,13.5-5.38q6-5.39,7.53-14.62a25.74,25.74,0,0,0,.51-5q0-7-4-10.94A14.15,14.15,0,0,0,345.32,202.78Z"/><path id="Path_5492" data-name="Path 5492" class="cls-4" d="M835.07,202.78A20,20,0,0,0,821.56,208q-6,5.2-7.52,14.61a24.27,24.27,0,0,0-.51,5q0,7.19,4,11.11a14.13,14.13,0,0,0,10.34,3.93,19.84,19.84,0,0,0,13.5-5.3q6-5.3,7.52-14.7a24.72,24.72,0,0,0,.52-4.78q0-7.19-4-11.11A14.15,14.15,0,0,0,835.07,202.78Z"/><path id="Path_5493" data-name="Path 5493" class="cls-4" d="M567.37,202.78a20,20,0,0,0-13.5,5.22q-6,5.2-7.52,14.61a24.28,24.28,0,0,0-.52,5q0,7.19,4,11.11a14.17,14.17,0,0,0,10.34,3.93,19.8,19.8,0,0,0,13.51-5.3q6-5.3,7.52-14.7a25.52,25.52,0,0,0,.51-4.78q0-7.19-4-11.11A14.1,14.1,0,0,0,567.37,202.78Z"/></g></g></g></g></svg>