<svg xmlns="http://www.w3.org/2000/svg" width="966.769" height="430.354" viewBox="0 0 966.769 430.354">
  <g id="Group_5736" data-name="Group 5736" transform="translate(-1110.52 -880.665)">
    <path id="Path_7453" data-name="Path 7453" d="M1244.169,1011.734a9.857,9.857,0,1,0,9.856,9.856A9.856,9.856,0,0,0,1244.169,1011.734Z" transform="translate(217.674 230.474)" fill="#fff"/>
    <path id="Path_7454" data-name="Path 7454" d="M1244.169,995.651a9.859,9.859,0,1,0,9.856,9.858A9.858,9.858,0,0,0,1244.169,995.651Z" transform="translate(217.674 202.193)" fill="#fff"/>
    <path id="Path_7455" data-name="Path 7455" d="M1188.651,929.352q-9.086.166-14.2,5.862a19.477,19.477,0,0,0-5.12,13.461,19.006,19.006,0,0,0,5.12,13.541q5.115,5.453,14.2,5.451,9.248,0,14.286-5.473a19.334,19.334,0,0,0,5.037-13.6,19.788,19.788,0,0,0-5.037-13.516Q1197.9,929.354,1188.651,929.352Z" transform="translate(103.409 85.612)" fill="#fff"/>
    <path id="Path_7456" data-name="Path 7456" d="M1245.27,962.194a19.345,19.345,0,0,0,5.034-13.6,19.8,19.8,0,0,0-5.034-13.516q-5.044-5.722-14.289-5.724-9.086.166-14.2,5.862a19.476,19.476,0,0,0-5.119,13.461,19,19,0,0,0,5.119,13.541q5.114,5.453,14.2,5.451Q1240.233,967.667,1245.27,962.194Z" transform="translate(177.844 85.612)" fill="#fff"/>
    <path id="Path_7457" data-name="Path 7457" d="M2060.119,880.665H1127.691a17.169,17.169,0,0,0-17.171,17.168v396.015a17.171,17.171,0,0,0,17.171,17.171h932.427a17.171,17.171,0,0,0,17.171-17.171V897.833A17.169,17.169,0,0,0,2060.119,880.665Zm-857.787,367.521a4.554,4.554,0,0,1-1.787,8.215,4.573,4.573,0,0,1-.817.074,4.508,4.508,0,0,1-2.582-.811l-59.444-41.211.061-13.541,59.38-41.169a4.553,4.553,0,0,1,5.189,7.484l-55.486,38.469-.017,4.014Zm25.634-90.609-11.709,101.3a4.553,4.553,0,0,1-4.521,4.022,4.47,4.47,0,0,1-.811-.075,4.558,4.558,0,0,1-3.7-4.99l11.709-101.3a4.544,4.544,0,0,1,9.028,1.045Zm1-121.64v1.321a58.3,58.3,0,0,1-3.136,16.766,32.155,32.155,0,0,1-9.743,14.12,41.46,41.46,0,0,1-14.2,8.093,68.388,68.388,0,0,1-16.186,3.3q-1.324,0-2.56.083c-.828.055-1.625.083-2.4.083a72.626,72.626,0,0,1-22.956-3.716,81.532,81.532,0,0,1-20.812-10.322l13.875-26.26a66.83,66.83,0,0,0,13.3,9.249,32.5,32.5,0,0,0,15.444,3.8h1.318a19.227,19.227,0,0,0,9.908-3.387q4.46-3.049,4.46-9.166a8.869,8.869,0,0,0-3.715-7.431,31.085,31.085,0,0,0-8.342-4.458q-1.982-.658-3.964-1.239c-1.321-.386-2.535-.742-3.633-1.076a3.347,3.347,0,0,0-.742-.248,2.757,2.757,0,0,1-.742-.246q-14.7-4.129-23.455-10.57t-8.753-24.114q0-18.987,12.14-30.389t30.8-11.4a75.445,75.445,0,0,1,7.762.414,56.881,56.881,0,0,1,7.928,1.4,95.721,95.721,0,0,1,12.306,3.468,69.881,69.881,0,0,1,10.918,4.921l.066-.13v.166l-.066-.036-12.818,24.975a38.385,38.385,0,0,0-9.991-5.865,30.436,30.436,0,0,0-11.478-2.231c-.552,0-1.156.03-1.818.083a8.622,8.622,0,0,0-1.98.417,16.8,16.8,0,0,0-6.937,3.3,7.986,7.986,0,0,0-3.139,6.6,7.763,7.763,0,0,0,2.973,6.361,27.432,27.432,0,0,0,6.441,3.878q1.32.5,2.56.91c.827.276,1.622.524,2.4.742l8.256,2.314a60.386,60.386,0,0,1,21.883,11.478q8.833,7.518,8.835,22.707Zm61.041,183.7-51.96,36.025a4.515,4.515,0,0,1-2.582.811,4.573,4.573,0,0,1-.817-.074,4.549,4.549,0,0,1-1.79-8.215l55.505-38.477-.019-4.014-55.486-38.469a4.553,4.553,0,0,1,5.189-7.484l59.38,41.169.061,13.541Zm50.44-143.236h-30.056v-9.415h-.334a22.313,22.313,0,0,1-9.908,8.838,35.168,35.168,0,0,1-13.047,3.219,5.57,5.57,0,0,1-1.321.166h-1.321q-18.831,0-30.8-13.461a48.007,48.007,0,0,1-.165-63.256q11.8-13.46,30.637-13.461h1.65a8.645,8.645,0,0,1,1.652.166,38.5,38.5,0,0,1,12.634,3.222,27.824,27.824,0,0,1,10.324,7.679v-8.424h30.056Zm29.979-10.653a48.006,48.006,0,0,1-.166-63.256q11.8-13.46,30.638-13.461h1.65a8.647,8.647,0,0,1,1.652.166,38.528,38.528,0,0,1,12.636,3.222,27.834,27.834,0,0,1,10.322,7.679v-8.424h30.056V1076.4h-30.056v-9.415h-.334a22.319,22.319,0,0,1-9.905,8.838,35.2,35.2,0,0,1-13.05,3.219,5.571,5.571,0,0,1-1.321.166h-1.321Q1382.4,1079.21,1370.429,1065.749Zm109.487,197.685a3.419,3.419,0,0,1-3.418,3.418H1378.18a3.419,3.419,0,0,1-3.418-3.418V1240.7a3.417,3.417,0,0,1,3.418-3.417H1476.5a3.417,3.417,0,0,1,3.418,3.417Zm0-44.361a3.419,3.419,0,0,1-3.418,3.418H1378.18a3.419,3.419,0,0,1-3.418-3.418v-22.738a3.419,3.419,0,0,1,3.418-3.42H1476.5a3.419,3.419,0,0,1,3.418,3.42Zm0-44.361a3.419,3.419,0,0,1-3.418,3.418H1378.18a3.419,3.419,0,0,1-3.418-3.418v-22.74a3.419,3.419,0,0,1,3.418-3.418H1476.5a3.419,3.419,0,0,1,3.418,3.418Zm75.57-106.569a41.462,41.462,0,0,1-14.2,8.093,68.36,68.36,0,0,1-16.187,3.3q-1.324,0-2.56.083c-.827.055-1.625.083-2.4.083a72.594,72.594,0,0,1-22.953-3.716,81.435,81.435,0,0,1-20.812-10.322l13.875-26.26a66.74,66.74,0,0,0,13.293,9.249,32.512,32.512,0,0,0,15.444,3.8h1.319a19.246,19.246,0,0,0,9.911-3.387q4.46-3.049,4.458-9.166a8.874,8.874,0,0,0-3.713-7.431,31.164,31.164,0,0,0-8.342-4.458q-1.982-.658-3.967-1.239c-1.321-.386-2.532-.742-3.63-1.076a3.416,3.416,0,0,0-.745-.248,2.793,2.793,0,0,1-.742-.246q-14.7-4.129-23.452-10.57t-8.755-24.114q0-18.987,12.14-30.389t30.8-11.4a75.453,75.453,0,0,1,7.762.414,56.988,56.988,0,0,1,7.93,1.4,95.8,95.8,0,0,1,12.3,3.468,69.871,69.871,0,0,1,10.918,4.921l.066-.13v.166l-.066-.036-12.816,24.975a38.45,38.45,0,0,0-9.993-5.865,30.437,30.437,0,0,0-11.478-2.231c-.552,0-1.156.03-1.818.083a8.622,8.622,0,0,0-1.98.417,16.8,16.8,0,0,0-6.937,3.3,7.992,7.992,0,0,0-3.136,6.6,7.76,7.76,0,0,0,2.971,6.361,27.488,27.488,0,0,0,6.441,3.878q1.321.5,2.56.91c.827.276,1.622.524,2.4.742l8.256,2.314a60.388,60.388,0,0,1,21.882,11.478q8.838,7.518,8.838,22.707v2.643a58.2,58.2,0,0,1-3.139,16.766A32.153,32.153,0,0,1,1555.486,1068.144Zm43.989,200.06-6.171,5.459a3.659,3.659,0,0,1-2.419.918,3.761,3.761,0,0,1-.6-.049,3.655,3.655,0,0,1-2.587-1.812l-17.786-31.457a3.717,3.717,0,0,1,.154-3.9l13.111-19.483a1.645,1.645,0,0,0,.149-1.6,1.609,1.609,0,0,0-1.233-.968l-21.069-3.139a4.528,4.528,0,0,1,0-8.948l21.085-3.139a1.611,1.611,0,0,0,1.219-.968,1.645,1.645,0,0,0-.149-1.6l-13.114-19.48a3.681,3.681,0,0,1-.149-3.9l17.781-31.451a3.666,3.666,0,0,1,2.593-1.815,3.625,3.625,0,0,1,3.021.869l6.171,5.456a3.714,3.714,0,0,1,.342,5.205,3.759,3.759,0,0,1-5.183.345l-1.3-1.148a1.639,1.639,0,0,0-1.338-.381,1.614,1.614,0,0,0-1.142.805l-12.934,22.87a1.668,1.668,0,0,0,.066,1.757l15.93,23.665a3.686,3.686,0,0,1,.325,3.544,3.642,3.642,0,0,1-2.772,2.171l-10.165,1.666,10.165,1.666a3.651,3.651,0,0,1,2.772,2.168,3.692,3.692,0,0,1-.325,3.547l-15.93,23.664a1.682,1.682,0,0,0-.066,1.755l12.934,22.87a1.615,1.615,0,0,0,2.483.425l1.291-1.142a3.655,3.655,0,0,1,5.186.345,3.71,3.71,0,0,1-.342,5.2Zm57.9-56.026-21.083,3.142a1.593,1.593,0,0,0-1.217.965,1.637,1.637,0,0,0,.146,1.6l13.113,19.483a3.722,3.722,0,0,1,.149,3.9l-17.781,31.451a3.66,3.66,0,0,1-2.59,1.815,3.76,3.76,0,0,1-.6.049,3.64,3.64,0,0,1-2.417-.921l-6.17-5.453a3.71,3.71,0,0,1-.345-5.205,3.655,3.655,0,0,1,5.186-.345l1.294,1.142a1.613,1.613,0,0,0,2.48-.425l12.934-22.87a1.682,1.682,0,0,0-.066-1.755l-15.93-23.664a3.7,3.7,0,0,1-.325-3.547,3.652,3.652,0,0,1,2.772-2.168l10.165-1.666-10.165-1.666a3.643,3.643,0,0,1-2.772-2.171,3.693,3.693,0,0,1,.325-3.544l15.93-23.665a1.673,1.673,0,0,0,.066-1.76l-12.934-22.864a1.609,1.609,0,0,0-1.142-.808,1.626,1.626,0,0,0-1.338.383l-1.291,1.145a3.759,3.759,0,0,1-5.186-.342,3.712,3.712,0,0,1,.342-5.208l6.17-5.459a3.659,3.659,0,0,1,5.608.946l17.786,31.457a3.677,3.677,0,0,1-.152,3.9l-13.113,19.48a1.637,1.637,0,0,0-.146,1.6,1.6,1.6,0,0,0,1.233.968l21.069,3.139a4.528,4.528,0,0,1,0,8.948Zm213.938,28.536a14.341,14.341,0,0,1-10.168,4.212H1752.856a14.377,14.377,0,0,1-1.793-28.643,22.818,22.818,0,0,1,22.1-17.039,22.591,22.591,0,0,1,11.387,3.048,37.226,37.226,0,1,1,72.971,14.346,13.421,13.421,0,0,1,3.622-.474,14.379,14.379,0,0,1,10.168,24.55Zm181.192-11.48v34.833c0,13.064-31.465,16.553-49.789,16.553s-49.789-3.49-49.789-16.553v-34.833a7.749,7.749,0,0,1,0-2.6v-74.847a8.177,8.177,0,0,1,.447-2.659l.447-1.324.494-.574.155-.179a11.165,11.165,0,0,1,1.8-2.113c8.557-7.839,31.612-10.151,46.443-10.151s37.89,2.312,46.443,10.151a11.121,11.121,0,0,1,2.328,2.866h.127l.447,1.324a8.169,8.169,0,0,1,.444,2.659v74.847A7.674,7.674,0,0,1,2052.5,1229.232Z" transform="translate(0 0)" fill="#fff"/>
    <path id="Path_7458" data-name="Path 7458" d="M1419.889,1011.458l.257.174c.144.1.284.177.414.273l.254.144c.19.11.367.207.541.3l.16.1a8.766,8.766,0,0,0,.957.477l.157.08c.32.144.574.257.83.383l5.3,1.815,1.434.384c.447.127.94.24,1.451.35l.27.063c.4.1.844.19,1.275.287l7.583,1.291,1.865.237,3.873.4,9.161.51,2.182.047c1.451.017,2.948.017,4.4,0l9.37-.4,1.992-.16c.588-.063,1.178-.113,1.768-.177l.174-.014c.654-.063,1.291-.127,1.914-.209l9.448-1.528c.428-.1.875-.19,1.3-.287l.16-.03c.59-.144,1.084-.257,1.561-.383l5.641-1.785,1.115-.447c.207-.094.463-.207.717-.317l.143-.08c.383-.16.67-.3.94-.447l.238-.143c.193-.11.367-.207.543-.3l.174-.11c.224-.144.367-.224.494-.3l.193-.144c.19-.127.287-.207.4-.287l.447-.367V982.732l-.176.08c-.351.16-.668.3-1,.444l-.494.21c-.27.11-.541.221-.827.334l-3.443,1.194-.954.287-.621.176c-.3.077-.67.174-1.037.271l-.494.143c-.557.144-1.1.271-1.658.4l-.174.05c-.574.127-1.051.237-1.531.334l-8.173,1.4-1.992.24c-.667.08-1.338.157-2.022.221l-.177.017c-.654.063-1.274.127-1.912.193l-9.655.541-2.278.047c-.764,0-1.531.016-2.312.016s-1.545-.016-2.309-.016l-9.831-.43-2.1-.157c-.637-.066-3.443-.35-4.113-.43l-10.165-1.641c-.477-.1-.955-.207-1.435-.32l-.284-.063c-.543-.127-1.084-.254-1.611-.4l-.494-.127c-.4-.113-.764-.209-1.115-.3l-.527-.144c-.367-.113-.684-.207-.987-.3l-3.473-1.194c-.271-.113-.541-.223-.828-.334l-.43-.177c-.383-.177-.7-.317-1.021-.463l-.207-.094v28.105l.4.35C1419.682,1011.3,1419.779,1011.378,1419.889,1011.458Z" transform="translate(542.656 179.476)" fill="#fff"/>
    <path id="Path_7459" data-name="Path 7459" d="M1501.713,1009.787c-9.958,4.907-27,6.8-41.374,6.8s-31.413-1.9-41.374-6.8v9.169l0-.006v18.065c.764,2.375,14.195,8.587,41.376,8.587s40.612-6.212,41.379-8.684V1018.95l-.005.006Z" transform="translate(542.371 227.05)" fill="#fff"/>
    <path id="Path_7460" data-name="Path 7460" d="M1460.054,1031.445c24.315,0,39.435-5.351,40.932-8.3V996.3l-.207.094c-.3.144-.637.287-.974.43l-.494.207c-.27.113-.541.224-.827.337l-1.975.717c-.287.094-.59.19-.877.287l-.59.19-.954.287-2.152.59c-.557.143-1.1.27-1.658.4l-.174.047c-.574.13-1.038.24-1.515.337l-8.206,1.4c-.444.063-.891.11-1.338.157l-.637.08c-.667.08-1.338.16-2.022.223l-.177.016c-.637.08-1.274.127-1.912.19l-9.655.543-2.278.047c-1.531.017-3.092.017-4.621,0l-9.8-.414-2.132-.177-4.113-.414-.524-.077c-.557-.066-1-.113-1.451-.177l-8.19-1.4c-.494-.1-.955-.207-1.435-.32l-.284-.063c-.543-.127-1.084-.254-1.611-.4l-2.1-.574c-.4-.113-.717-.207-1.021-.3l-.607-.19c-.284-.1-.587-.193-.874-.287l-1.992-.717-.814-.337-.444-.174c-.383-.177-.72-.32-1.037-.464l-.19-.094v26.845C1420.623,1026.094,1435.742,1031.445,1460.054,1031.445Z" transform="translate(542.656 203.334)" fill="#fff"/>
    <path id="Path_7461" data-name="Path 7461" d="M1244.169,979.569a9.859,9.859,0,1,0,9.856,9.859A9.858,9.858,0,0,0,1244.169,979.569Z" transform="translate(217.674 173.914)" fill="#fff"/>
    <path id="Path_7462" data-name="Path 7462" d="M1420.56,986.311l.254.143c.19.11.367.207.541.3l.16.094c.367.193.654.336.957.48l.223.11c.238.11.491.223.764.334l5.274,1.818c.35.11.667.19.987.27l.478.127c.447.11.94.24,1.451.35l.27.063c.4.1.828.193,1.275.287l7.616,1.291,1.832.24,3.856.4,9.177.51,2.182.047c1.451.016,2.948.016,4.4,0l9.337-.4,2.025-.16c.6-.063,1.194-.11,1.785-.174l.157-.016c.654-.063,1.291-.144,1.914-.207l9.448-1.531c.444-.094.875-.19,1.3-.287l.16-.031c.59-.143,1.084-.273,1.561-.383l.478-.127c.287-.08.607-.16.91-.254l5.368-1.851c.223-.094.477-.207.734-.334l.174-.08c.336-.157.623-.3.91-.444l.221-.13c.193-.11.367-.207.543-.3l.174-.113c.224-.144.367-.223.494-.3l1.037-.794V984.3c-1.5-2.946-16.617-8.3-40.932-8.3s-39.432,5.354-40.929,8.3v.94l1.021.8C1420.289,986.135,1420.43,986.215,1420.56,986.311Z" transform="translate(542.656 167.644)" fill="#fff"/>
  </g>
</svg>
