<svg xmlns="http://www.w3.org/2000/svg" viewBox="0 0 494.04 272.86"><defs><style>.cls-1{fill:#fff;}.cls-2,.cls-3{isolation:isolate;}.cls-3{font-size:41px;fill:#f5f5f5;font-family:Poppins-Bold, Poppins;font-weight:700;}</style></defs><g id="Layer_2" data-name="Layer 2"><g id="Layer_1-2" data-name="Layer 1"><g id="socialmediam"><path id="Path_6020" data-name="Path 6020" class="cls-1" d="M343.68,0a37.2,37.2,0,1,0,37.2,37.2h0A37.19,37.19,0,0,0,343.68,0ZM363.5,39.25,343.68,59.06,323.87,39.24a14,14,0,1,1,19.81-19.81h0A14,14,0,1,1,363.5,39.24h0Z"/><path class="cls-1" d="M92.86,103.06a37.33,37.33,0,0,0-37.33,37.33h0a37.33,37.33,0,1,0,37.33-37.34ZM64.71,130.29h0A7,7,0,0,1,72,120.71a6.76,6.76,0,0,1,2.4.73,7,7,0,0,1,12.39,6.44l-6.43,12.38L68,133.83A7,7,0,0,1,64.71,130.29Zm46.85,24.64h0a17,17,0,0,1-2,2.68,22.53,22.53,0,0,1-31.82,1.6c-.56-.51-1.09-1-1.6-1.6a16.33,16.33,0,0,1-2-2.68c-1.63-2.82,0-2.79,0-2.79s3.08,2.16,7,4.32c.32.18.67.36,1,.54a24.73,24.73,0,0,0,21.38,0c.37-.18.72-.36,1-.54,3.89-2.16,7-4.32,7-4.32S113.19,152.12,111.56,154.93Zm6.2-21.1-12.39,6.43-6.43-12.38a7,7,0,0,1,12.39-6.44,6.69,6.69,0,0,1,2.4-.73,7,7,0,0,1,7.26,9.58h0A6.93,6.93,0,0,1,117.76,133.83Z"/><path class="cls-1" d="M199,103.1a37.32,37.32,0,0,0-37.31,37.31h0A37.31,37.31,0,1,0,199,103.1Zm-28.86,26.72h0a7,7,0,0,1,7.21-9.55,3.18,3.18,0,0,1,.43.06l.22,0c.14,0,.27.06.4.09l.41.13h0a3.94,3.94,0,0,1,.48.18l.5.24,0,0c.06-.13.13-.24.19-.35a2.43,2.43,0,0,1,.19-.29,2.28,2.28,0,0,1,.21-.3l.13-.17c0-.06.09-.11.13-.16s.13-.16.2-.23a1.85,1.85,0,0,1,.14-.14,2.5,2.5,0,0,1,.23-.23l.15-.13.16-.14.27-.21a5.5,5.5,0,0,1,.5-.34,1.71,1.71,0,0,1,.23-.13.94.94,0,0,1,.22-.12l.31-.16.28-.12.35-.13.44-.14.46-.11.46-.08a7.12,7.12,0,0,1,2.16,0,5.47,5.47,0,0,1,.8.19l.5.17.26.11.06,0,.37.17a7,7,0,0,1,3,9.41l-5.18,10-.26.49-.25.49-.26.5-.39.75-.09.17-.06,0-12.32-6.4A7,7,0,0,1,170.13,129.82Zm47.56,34.71h0s-3.08-2.16-7-4.32c-.32-.18-.67-.36-1-.53a24.66,24.66,0,0,0-21.38,0c-.38.17-.72.35-1.05.53-3.88,2.16-7,4.32-7,4.32s-1.63,0,0-2.78a16.27,16.27,0,0,1,2-2.69,22.52,22.52,0,0,1,31.82-1.59,19.88,19.88,0,0,1,1.59,1.59,16.32,16.32,0,0,1,2,2.69C219.32,164.56,217.69,164.53,217.69,164.53Zm10.13-34.75a6.93,6.93,0,0,1-3.23,3.54l-11.15,5.79-.53.28-.53.27-.41-.36-.7-1.35-.7-1.34,0-.08-.25-.5-.26-.5-.26-.49-4-7.68a7,7,0,0,1,11.8-7.38,2.83,2.83,0,0,1,.2.28,7.33,7.33,0,0,1,.39.67l.34-.16.47-.19.05,0,.5-.17.53-.12.17,0,.35,0a7,7,0,0,1,7.26,9.59Z"/><g id="Group_5629" data-name="Group 5629"><rect id="Rectangle_2046" data-name="Rectangle 2046" class="cls-1" x="116.53" y="18.1" width="15.47" height="34.8"/><path id="Path_6023" data-name="Path 6023" class="cls-1" d="M172.47,36.67l0,0a4.36,4.36,0,0,0,4.36-4.36v-.12A4.42,4.42,0,0,0,172.42,28h-3.74a4.36,4.36,0,0,0,3.14-4.13,4.46,4.46,0,0,0-4.47-4.42H153.18a19.14,19.14,0,0,0-3.53-1.63h0A12.71,12.71,0,0,0,147.55,5a2.17,2.17,0,0,0-3-.26,2.33,2.33,0,0,0-.31.32l-8.53,10.89h0s-.47.49-1.22,1.34h.42V52.15h0A18.67,18.67,0,0,0,140.45,54h0a4.51,4.51,0,0,0,1.5.26h24.89A4.35,4.35,0,0,0,168.77,46h0a4.08,4.08,0,0,0-1.31-.41h0c.57-.07,1.32-.18,1.6-.2a4.48,4.48,0,0,0,4.36-4.36,4.38,4.38,0,0,0-4.36-4.37h3.41Z"/></g><g id="Group_5630" data-name="Group 5630"><rect id="Rectangle_2047" data-name="Rectangle 2047" class="cls-1" x="210.49" y="19.49" width="15.47" height="34.8"/><path id="Path_6024" data-name="Path 6024" class="cls-1" d="M266.42,35.72l.05,0a4.37,4.37,0,0,1,4.36,4.36.49.49,0,0,1,0,.12,4.42,4.42,0,0,1-4.45,4.25h-3.74a4.36,4.36,0,0,1,3.14,4.13A4.46,4.46,0,0,1,261.3,53H247.13a18.55,18.55,0,0,1-3.53,1.64h0a12.69,12.69,0,0,1-2.1,12.8,2.15,2.15,0,0,1-3,.26,1.57,1.57,0,0,1-.31-.32l-8.53-10.88h0s-.47-.49-1.22-1.34h.42V20.24h0a18.39,18.39,0,0,1,5.58-1.88h0a4.28,4.28,0,0,1,1.5-.27h24.88a4.36,4.36,0,0,1,1.94,8.27h0a4.08,4.08,0,0,1-1.31.41h0c.57.07,1.32.18,1.6.2a4.48,4.48,0,0,1,4.36,4.36A4.36,4.36,0,0,1,263,35.7h3.42Z"/></g><path id="Path_6025" data-name="Path 6025" class="cls-1" d="M338.92,123.19a37.29,37.29,0,0,0-33-19.9h-.42a37.27,37.27,0,0,0-.38,74.54h.8a37.29,37.29,0,0,0,33-54.65Zm-54.5,7.68a7.31,7.31,0,0,1,4.6-6.08l-5.44-2.27,1.07-2.56,11.22,4.68.16-2.16,2.77.21-.45,5.84a7.32,7.32,0,1,1-13.29,6.14,7.21,7.21,0,0,1-.63-3.8Zm37.4,31.45h-32.2a1.67,1.67,0,1,1,0-3.33h32.2a1.67,1.67,0,1,1,0,3.33Zm5.2-31.45a7.32,7.32,0,1,1-13.93-2.34l-.45-5.84,2.77-.21.17,2.16L326.79,120l1.07,2.56-5.44,2.27a7.29,7.29,0,0,1,4.6,6.08Z"/><path id="Path_6026" data-name="Path 6026" class="cls-1" d="M417.31,110.54v12a36,36,0,0,0-30.66,54.85v-.2a36,36,0,0,1,30.66-35.59v15.6l16.94-11.42,10.91-7.35,6.76-4.56Z"/><g id="Social_Media_Marketing" data-name="Social Media Marketing" class="cls-2"><text class="cls-3" transform="translate(0 248.02)">Social Media Marketing</text></g></g></g></g></svg>