<svg xmlns="http://www.w3.org/2000/svg" viewBox="0 0 444.31 195.22"><defs><style>.cls-1{fill:#fff;}.cls-2{fill:none;}.cls-3{fill:#4034e6;}.cls-4{fill:#ef2e2e;}.cls-5{fill:#def512;}</style></defs><g id="Layer_2" data-name="Layer 2"><g id="Layer_1-2" data-name="Layer 1"><g id="Group_5468" data-name="Group 5468"><g id="Group_5451" data-name="Group 5451"><g id="Group_5450" data-name="Group 5450"><g id="Group_5448" data-name="Group 5448"><path id="Path_5429" data-name="Path 5429" class="cls-1" d="M128.74,26.79a22.76,22.76,0,1,0,2.2,0C130.2,26.76,129.47,26.76,128.74,26.79Zm-9.26,22.52a5.13,5.13,0,1,1,5.13-5.13h0a5.13,5.13,0,0,1-5.12,5.13Zm10.44,12.1a5.13,5.13,0,0,1-5.13-5.13h10.26a5.13,5.13,0,0,1-5.13,5.12h0Zm10.44-12.1a5.13,5.13,0,1,1,5.13-5.13h0a5.13,5.13,0,0,1-5.12,5.13Z"/></g><g id="Group_5449" data-name="Group 5449"><path id="Path_5430" data-name="Path 5430" class="cls-1" d="M159.51,112.33H100.32l15.57-27a16.2,16.2,0,0,1,28.06,0Z"/></g></g><g id="Path_5406" data-name="Path 5406"><path id="Path_5431" data-name="Path 5431" class="cls-1" d="M205.64,13.59,169.61.25a4.05,4.05,0,0,0-5.2,2.39h0l-3.78,10.23a4,4,0,0,1-.46.87l-5.81,8.51L152.51,25l-.6.87a.9.9,0,0,0,.6,1.41l.13,0,1.72-.38L161,25.41a4,4,0,0,1,1.29.25l34.29,12.47a4,4,0,0,0,5.2-2.38h0l6.27-17a4,4,0,0,0-2.38-5.2h0ZM173.9,16.06a2.3,2.3,0,1,1-1.37-2.95h0a2.31,2.31,0,0,1,1.36,2.95Zm11.67,4.32a2.3,2.3,0,1,1-1.37-2.95h0a2.31,2.31,0,0,1,1.36,2.95Zm11.67,4.31a2.3,2.3,0,1,1-1.36-3h0a2.3,2.3,0,0,1,1.35,3Z"/></g></g><g id="Group_5457" data-name="Group 5457"><g id="Group_5454" data-name="Group 5454"><g id="Group_5452" data-name="Group 5452"><path id="Path_5432" data-name="Path 5432" class="cls-1" d="M28.41,109.69a22.77,22.77,0,1,0,2.2,0A20.18,20.18,0,0,0,28.41,109.69ZM19.15,132.2a5.13,5.13,0,1,1,5.13-5.13h0a5.12,5.12,0,0,1-5.12,5.13Zm10.44,12.1a5.14,5.14,0,0,1-5.13-5.13H34.72a5.12,5.12,0,0,1-5.12,5.12h0ZM40,132.2a5.13,5.13,0,1,1,5.14-5.13A5.13,5.13,0,0,1,40,132.2Z"/></g><g id="Group_5453" data-name="Group 5453"><path id="Path_5433" data-name="Path 5433" class="cls-1" d="M59.19,195.22H0l15.56-26.95a16.21,16.21,0,0,1,28.07,0Z"/></g></g><g id="Group_5455" data-name="Group 5455"><line id="Line_16" data-name="Line 16" class="cls-2" x1="40.2" y1="69.29" x2="22" y2="76.03"/></g><g id="Group_5456" data-name="Group 5456"><path id="Path_5434" data-name="Path 5434" class="cls-3" d="M61.51,69.86h0L23.1,69.29a4,4,0,0,0-4.11,4h0L18.83,92.1a4.06,4.06,0,0,1-.13,1l-2.65,10-.84,3.16-.27,1a.91.91,0,0,0,.65,1.12,1,1,0,0,0,.38,0l.13,0,1.49-.93,5.76-3.59a4.1,4.1,0,0,1,1.3-.2l36.48.33a4,4,0,0,0,4.11-4h0l.27-26a4,4,0,0,0-4-4.1ZM50.57,87.94a1.35,1.35,0,0,1-.76,1.32,11.71,11.71,0,0,1-1.67.2l0,0h.19A1.51,1.51,0,0,1,49.79,91V91A1.4,1.4,0,0,1,49,92.36c-.18.07-.76.24-.76.24v.16a1.53,1.53,0,0,1,.55,2.08,1.5,1.5,0,0,1-1.31.75H37.37a4.43,4.43,0,0,1-4.43-4.43v-6.6a4.44,4.44,0,0,1,1.45-3.27l5.2-4.74A2,2,0,0,1,42.7,79l-1,3a.43.43,0,0,0,.19.59.35.35,0,0,0,.2,0l5.47.53A1.52,1.52,0,0,1,49,84.65v.09a1.51,1.51,0,0,1-.76,1.31L48,86.2v.08l1.11.06a1.51,1.51,0,0,1,1.44,1.51Z"/></g></g><g id="Group_5462" data-name="Group 5462"><g id="Group_5460" data-name="Group 5460"><g id="Group_5458" data-name="Group 5458"><path id="Path_5435" data-name="Path 5435" class="cls-1" d="M285,69.51a22.76,22.76,0,1,0,2.19,0A20,20,0,0,0,285,69.51ZM275.76,92a5.13,5.13,0,1,1,5.13-5.13h0A5.13,5.13,0,0,1,275.76,92Zm10.44,12.1A5.12,5.12,0,0,1,281.07,99h10.26a5.13,5.13,0,0,1-5.13,5.13ZM296.64,92a5.13,5.13,0,1,1,5.13-5.13h0A5.13,5.13,0,0,1,296.64,92Z"/></g><g id="Group_5459" data-name="Group 5459"><path id="Path_5436" data-name="Path 5436" class="cls-1" d="M315.79,155H256.6l15.57-26.95a16.2,16.2,0,0,1,28.06,0Z"/></g></g><g id="Group_5461" data-name="Group 5461"><path id="Path_5437" data-name="Path 5437" class="cls-4" d="M288.78,61.38l-.27-1-.84-3.17-2.64-10a4.07,4.07,0,0,1-.14-1l-.16-18.82h0a4,4,0,0,0-4.1-4h0L242.21,24h0a4,4,0,0,0-4,4.1l.27,26h0a4,4,0,0,0,4.1,4l36.49-.33a4.1,4.1,0,0,1,1.3.2l5.76,3.59,1.49.93.13,0a.93.93,0,0,0,1.05-.75,1,1,0,0,0,0-.39ZM269.44,39.92l-7.58,8.82-7.59-8.82a4.57,4.57,0,0,1,.3-6.46,4.11,4.11,0,0,1,.62-.48,3.94,3.94,0,0,1,2.17-.75,6.08,6.08,0,0,0,8.6.4c.14-.13.27-.26.4-.4a3.91,3.91,0,0,1,2.16.75,4.59,4.59,0,0,1,1.4,6.32A4.68,4.68,0,0,1,269.44,39.92Z"/></g></g><g id="Group_5467" data-name="Group 5467"><g id="Group_5465" data-name="Group 5465"><g id="Group_5463" data-name="Group 5463"><path id="Path_5438" data-name="Path 5438" class="cls-1" d="M413.53,97.65a22.76,22.76,0,1,0,2.2,0A20.18,20.18,0,0,0,413.53,97.65Zm-9.25,22.51a5.13,5.13,0,1,1,5.13-5.13h0a5.13,5.13,0,0,1-5.13,5.13h0Zm10.44,12.1a5.12,5.12,0,0,1-5.13-5.12h10.25a5.13,5.13,0,0,1-5.12,5.13Zm10.44-12.1a5.13,5.13,0,1,1,5.12-5.13h0a5.12,5.12,0,0,1-5.12,5.13Z"/></g><g id="Group_5464" data-name="Group 5464"><path id="Path_5439" data-name="Path 5439" class="cls-1" d="M444.31,183.18H385.12l15.56-27a16.2,16.2,0,0,1,28.06,0Z"/></g></g><g id="Group_5466" data-name="Group 5466"><path id="Path_5440" data-name="Path 5440" class="cls-5" d="M385.09,116l-.27-1-.84-3.17-2.65-10a4,4,0,0,1-.13-1L381,82.06h0a4.06,4.06,0,0,0-4.11-4l-38.42.56h0a4.06,4.06,0,0,0-4,4.1l.27,26h0a4.06,4.06,0,0,0,4.11,4l36.48-.33a4.09,4.09,0,0,1,1.3.19l5.76,3.59,1.49.93a.31.31,0,0,0,.13,0,.9.9,0,0,0,1.05-.75.82.82,0,0,0,0-.38ZM364.47,96l-8,4.65a1.26,1.26,0,0,1-1.72-.47,1.23,1.23,0,0,1-.17-.62V90.25a1.26,1.26,0,0,1,1.89-1.09l8,4.64a1.26,1.26,0,0,1,0,2.18Z"/></g></g></g></g></g></svg>