<svg xmlns="http://www.w3.org/2000/svg" viewBox="0 0 603 450.1"><defs><style>.cls-1{fill:#fff;}</style></defs><g id="Layer_2" data-name="Layer 2"><g id="Layer_1-2" data-name="Layer 1"><g id="Group_5734" data-name="Group 5734"><rect id="Rectangle_3297" data-name="Rectangle 3297" class="cls-1" x="220.38" y="259.64" width="16.65" height="28.75" transform="matrix(0.59, -0.81, 0.81, 0.59, -127.41, 297.93)"/><rect id="Rectangle_3298" data-name="Rectangle 3298" class="cls-1" x="154.29" y="211.63" width="16.65" height="28.75" transform="translate(-115.81 224.67) rotate(-53.99)"/><rect id="Rectangle_3299" data-name="Rectangle 3299" class="cls-1" x="187.33" y="235.64" width="16.65" height="28.75" transform="translate(-121.61 261.34) rotate(-54)"/><rect id="Rectangle_3300" data-name="Rectangle 3300" class="cls-1" x="253.42" y="283.65" width="16.65" height="28.75" transform="translate(-133.22 334.54) rotate(-53.99)"/><path id="Path_7424" data-name="Path 7424" class="cls-1" d="M142,191.24l-15.83-5.14L120,205.31l16.33,11.87,9.79-13.47L139.53,199Z"/><rect id="Rectangle_3301" data-name="Rectangle 3301" class="cls-1" x="165.79" y="38.63" width="28.75" height="16.65" transform="translate(79.85 203.8) rotate(-72)"/><rect id="Rectangle_3302" data-name="Rectangle 3302" class="cls-1" x="127.93" y="155.17" width="28.75" height="16.65" transform="translate(-57.16 248.31) rotate(-72)"/><rect id="Rectangle_3303" data-name="Rectangle 3303" class="cls-1" x="153.18" y="77.48" width="28.75" height="16.65" transform="translate(34.18 218.65) rotate(-72)"/><rect id="Rectangle_3304" data-name="Rectangle 3304" class="cls-1" x="140.55" y="116.32" width="28.75" height="16.65" transform="translate(-11.48 233.49) rotate(-72.01)"/><path id="Path_7425" data-name="Path 7425" class="cls-1" d="M198.77,16.65h8.1V0h-20.2l-6.24,19.21,15.83,5.14Z"/><rect id="Rectangle_3305" data-name="Rectangle 3305" class="cls-1" x="218.97" width="28.75" height="16.65"/><rect id="Rectangle_3306" data-name="Rectangle 3306" class="cls-1" x="259.81" width="28.75" height="16.65"/><rect id="Rectangle_3307" data-name="Rectangle 3307" class="cls-1" x="300.66" width="28.75" height="16.65"/><rect id="Rectangle_3308" data-name="Rectangle 3308" class="cls-1" x="341.5" width="28.75" height="16.65"/><path id="Path_7426" data-name="Path 7426" class="cls-1" d="M393,24.36l15.83-5.15L402.54,0h-20.2V16.65h8.1Z"/><rect id="Rectangle_3309" data-name="Rectangle 3309" class="cls-1" x="400.72" y="32.58" width="16.65" height="28.75" transform="translate(5.5 128.65) rotate(-17.99)"/><rect id="Rectangle_3310" data-name="Rectangle 3310" class="cls-1" x="425.96" y="110.27" width="16.65" height="28.75" transform="translate(-17.26 140.25) rotate(-17.99)"/><rect id="Rectangle_3311" data-name="Rectangle 3311" class="cls-1" x="438.59" y="149.12" width="16.65" height="28.75" transform="translate(-28.65 146.05) rotate(-17.99)"/><rect id="Rectangle_3312" data-name="Rectangle 3312" class="cls-1" x="413.34" y="71.43" width="16.65" height="28.75" transform="translate(-5.88 134.45) rotate(-17.99)"/><path id="Path_7427" data-name="Path 7427" class="cls-1" d="M447.18,191.24l2.5,7.71-6.56,4.76,9.79,13.47,16.34-11.87L463,186.1Z"/><rect id="Rectangle_3313" data-name="Rectangle 3313" class="cls-1" x="346.14" y="265.69" width="28.75" height="16.65" transform="translate(-92.21 264.32) rotate(-36.01)"/><rect id="Rectangle_3314" data-name="Rectangle 3314" class="cls-1" x="412.23" y="217.68" width="28.75" height="16.65" transform="translate(-51.36 293.97) rotate(-36.01)"/><rect id="Rectangle_3315" data-name="Rectangle 3315" class="cls-1" x="313.1" y="289.7" width="28.75" height="16.65" transform="translate(-112.63 249.39) rotate(-36)"/><rect id="Rectangle_3316" data-name="Rectangle 3316" class="cls-1" x="379.19" y="241.68" width="28.75" height="16.65" transform="translate(-71.78 279.15) rotate(-36.01)"/><path id="Path_7428" data-name="Path 7428" class="cls-1" d="M343.72,316.31a5,5,0,0,0-4.91,4.16H310.34a15,15,0,0,0-29.93,0h-30a5,5,0,1,0,0,1.66h30a15,15,0,0,0,29.93,0h28.47a5,5,0,1,0,4.91-5.82ZM302,322.13a6.66,6.66,0,0,1-13.22,0,7.68,7.68,0,0,1,0-1.66,6.66,6.66,0,0,1,13.22,0A6.59,6.59,0,0,1,302,322.13Z"/><path id="Path_7429" data-name="Path 7429" class="cls-1" d="M164.51,133.88a32.22,32.22,0,1,0,32.22-32.21h0A32.21,32.21,0,0,0,164.51,133.88Zm49.38-15.39a12.15,12.15,0,0,1,0,17.16l-17.16,17.16-17.17-17.16a12.13,12.13,0,1,1,17-17.28l.13.12a12.15,12.15,0,0,1,17.16,0Z"/><path id="Path_7430" data-name="Path 7430" class="cls-1" d="M263.54,118.68a32.28,32.28,0,1,0,57.12,0h0a32.3,32.3,0,0,0-57.12,0Zm37-1.28a6,6,0,0,1,8.15,2.58,6,6,0,0,1,8.37,7.66h0a6,6,0,0,1-2.8,3.07l-10.73,5.57L298,125.55a6,6,0,0,1,2.57-8.15Zm.8,33.38c.32-.16.62-.31.9-.47,3.36-1.87,6-3.74,6-3.74s1.4,0,0,2.41a15.13,15.13,0,0,1-1.73,2.33A19.51,19.51,0,0,1,279,152.69a18,18,0,0,1-1.38-1.38A13.53,13.53,0,0,1,275.9,149c-1.41-2.44,0-2.41,0-2.41s2.67,1.87,6,3.74c.28.16.59.31.9.47A21.42,21.42,0,0,0,301.36,150.78Zm-28-31.38a9.3,9.3,0,0,0,10.29-1.94,6,6,0,0,1,2.58,8.15h0l-5.57,10.73-10.73-5.57a6,6,0,0,1,3.43-11.37Z"/><path id="Path_7431" data-name="Path 7431" class="cls-1" d="M409.81,110.35a32.27,32.27,0,1,0,6.29,8.31h0A32.54,32.54,0,0,0,409.81,110.35Zm-47.25,17.32a6,6,0,0,1,6.24-8.27,2.35,2.35,0,0,1,.37,0l.19,0a2,2,0,0,1,.35.08l.35.1h0l.41.16.44.2v0c.06-.11.11-.21.17-.3a2.71,2.71,0,0,1,.17-.25,1.51,1.51,0,0,1,.18-.26l.11-.15a.69.69,0,0,1,.11-.13,1.16,1.16,0,0,1,.18-.2.49.49,0,0,1,.12-.13,1.89,1.89,0,0,1,.2-.2.69.69,0,0,1,.13-.11l.13-.12.24-.18a4.15,4.15,0,0,1,.43-.3l.2-.12.19-.1.27-.13.24-.11.3-.11a2.4,2.4,0,0,1,.38-.12l.4-.1a2.57,2.57,0,0,1,.4-.07,6.17,6.17,0,0,1,1.87,0,4.46,4.46,0,0,1,.7.17l.43.15.22.09,0,0,.32.16a6.05,6.05,0,0,1,2.58,8.15l-4.5,8.65-.22.43-.22.43-.22.42-.33.65-.08.15-.06,0-10.67-5.53A6,6,0,0,1,362.56,127.67Zm41.19,30.06s-2.68-1.87-6-3.74c-.28-.16-.58-.31-.9-.46a21.4,21.4,0,0,0-18.52,0c-.32.15-.62.3-.9.46-3.36,1.87-6,3.74-6,3.74s-1.41,0,0-2.41a13.93,13.93,0,0,1,1.73-2.33,19.5,19.5,0,0,1,27.55-1.38c.48.44.95.9,1.38,1.38a13.93,13.93,0,0,1,1.73,2.33c1.41,2.44,0,2.41,0,2.41Zm8.77-30.08a6,6,0,0,1-2.8,3.06l-9.66,5-.45.24-.46.24-.36-.31-.6-1.16-.61-1.17,0-.07-.22-.43-.22-.43-.22-.43-3.46-6.65a6,6,0,0,1,10.21-6.39c.07.08.12.16.18.24s.24.38.34.58l.29-.13a3,3,0,0,1,.41-.17l0,0,.44-.14.45-.11.16,0,.3,0a6,6,0,0,1,6.29,8.3Z"/><rect id="Rectangle_3317" data-name="Rectangle 3317" class="cls-1" y="117.34" width="13.4" height="30.14"/><path id="Path_7432" data-name="Path 7432" class="cls-1" d="M48.4,125.89H45.15a3.78,3.78,0,0,0,2.72-3.58A3.86,3.86,0,0,0,44,118.47H31.73a16,16,0,0,0-3.06-1.41h0A11,11,0,0,0,26.85,106a1.86,1.86,0,0,0-2.63-.22A1.72,1.72,0,0,0,24,106l-7.38,9.43h0s-.41.43-1.06,1.16h.37v30.2h0a15.84,15.84,0,0,0,4.83,1.63h0a3.77,3.77,0,0,0,1.29.23H43.55a3.78,3.78,0,0,0,1.68-7.16h0a3.44,3.44,0,0,0-1.14-.35h0c.5-.06,1.15-.16,1.39-.17a3.87,3.87,0,0,0,3.78-3.78,3.78,3.78,0,0,0-3.78-3.78h3v0l0,0a3.77,3.77,0,0,0,3.77-3.77v-.1A3.82,3.82,0,0,0,48.4,125.89Z"/><rect id="Rectangle_3318" data-name="Rectangle 3318" class="cls-1" x="81.37" y="118.54" width="13.4" height="30.14"/><path id="Path_7433" data-name="Path 7433" class="cls-1" d="M129.24,143.72a3.78,3.78,0,0,0-2.72-3.58h3.24a3.82,3.82,0,0,0,3.86-3.67,3.78,3.78,0,0,0-3.67-3.88h-.1l0,0v0h-3a3.78,3.78,0,0,0,3.78-3.78,3.87,3.87,0,0,0-3.78-3.77c-.24,0-.9-.12-1.39-.18h0a3.85,3.85,0,0,0,1.15-.36h0a3.78,3.78,0,0,0-1.68-7.16H103.38a3.87,3.87,0,0,0-1.3.23h0a15.84,15.84,0,0,0-4.83,1.63h0v30.2h-.36c.64.74,1,1.16,1,1.16h0l7.39,9.43a1.87,1.87,0,0,0,2.62.32,1.79,1.79,0,0,0,.28-.27A11,11,0,0,0,110.05,149h0a16.65,16.65,0,0,0,3.06-1.42h12.27A3.84,3.84,0,0,0,129.24,143.72Z"/><path id="Path_7434" data-name="Path 7434" class="cls-1" d="M505.69,110.41a32.21,32.21,0,0,0-22.33-9H483A32.28,32.28,0,1,0,483,166h.36a32.28,32.28,0,0,0,22.33-55.6ZM464,118.11l.93-2.22,9.71,4.06.14-1.88,2.4.18-.39,5.07a6.34,6.34,0,1,1-8.41-3.1l.33-.15Zm33.12,34.47H469.23a1.45,1.45,0,0,1,0-2.89h27.89a1.45,1.45,0,0,1,0,2.89Zm4.51-27.24A6.34,6.34,0,0,1,489,126.61a6.45,6.45,0,0,1,.55-3.3l-.38-5.06,2.4-.18.14,1.87,9.71-4,.93,2.21-4.71,2A6.34,6.34,0,0,1,501.63,125.34Z"/><path id="Path_7435" data-name="Path 7435" class="cls-1" d="M573,105.32v10.39a31.17,31.17,0,0,0-26.55,47.5V163A31.17,31.17,0,0,1,573,132.21v13.51l14.67-9.89,9.46-6.36,5.85-4Z"/><path id="Path_7436" data-name="Path 7436" class="cls-1" d="M329.48,393.53l-.89-1.49c-8.27-13.76-20.24-33.65-24.71-41.1a1.49,1.49,0,0,0-1.27-.71h0a1.49,1.49,0,0,0-1.5,1.47l-.43,42.42a1.5,1.5,0,0,0,.94,1.4,8.1,8.1,0,0,1,4.83,5.3,10.66,10.66,0,0,1,.34,1.7c.49,4.64-2.4,9.7-8.14,10a8.42,8.42,0,0,1-8.51-5.25c-1.77-4.26-.46-9.87,4.65-11.81a1.49,1.49,0,0,0,.95-1.37l.43-42.42a1.5,1.5,0,0,0-1.48-1.51h0a1.5,1.5,0,0,0-1.28.69c-6.22,9.91-26.33,41.84-32.51,51.68a1.49,1.49,0,0,0,0,1.54c1.43,2.46,4.16,7,7.16,11.95l.9,1.48c4.28,7.06,8.89,14.66,11,18.22a1.47,1.47,0,0,0,1.27.73l33.21.33a1.46,1.46,0,0,0,1.29-.72c3.86-6.38,15.94-25.1,19.68-31.23a1.47,1.47,0,0,0,0-1.55C334,401,331.93,397.59,329.48,393.53Z"/><path id="Path_7437" data-name="Path 7437" class="cls-1" d="M311.12,441.77l-26.82-.27a4.17,4.17,0,0,0-.19,8.33h.1l26.82.27a4.17,4.17,0,0,0,.09-8.33Z"/></g></g></g></svg>