<svg xmlns="http://www.w3.org/2000/svg" viewBox="0 0 416.64 248.16"><defs><style>.cls-1,.cls-2{isolation:isolate;}.cls-2{font-size:41px;fill:#f5f5f5;font-family:Poppins-Bold, Poppins;font-weight:700;}.cls-3{fill:#fff;}</style></defs><g id="Layer_2" data-name="Layer 2"><g id="Layer_1-2" data-name="Layer 1"><g id="Group_5639" data-name="Group 5639"><g id="Video_Commercials" data-name="Video Commercials" class="cls-1"><text class="cls-2" transform="translate(0 223.31)">Video Commercials</text></g><g id="Group_5679" data-name="Group 5679"><rect id="Rectangle_2051" data-name="Rectangle 2051" class="cls-3" x="57" y="7" width="302" height="154"/><path id="Path_6042" data-name="Path 6042" class="cls-3" d="M363.17,0H52.72A2.72,2.72,0,0,0,50,2.72V164.61a2.73,2.73,0,0,0,2.72,2.73H363.17a2.72,2.72,0,0,0,2.72-2.73V2.72A2.72,2.72,0,0,0,363.17,0Zm-.57,164H53.29V3.29H362.6Z"/><g id="Path_6043" data-name="Path 6043"><path d="M202.6,93.77a.22.22,0,0,1-.22-.22V74.45a.23.23,0,0,1,.22-.23.2.2,0,0,1,.11,0l16.54,9.56a.19.19,0,0,1,.11.19.2.2,0,0,1-.11.19l-16.54,9.55A.2.2,0,0,1,202.6,93.77Z"/><path class="cls-3" d="M204.88,78.39V89.6l9.7-5.6-9.7-5.61m-2.28-6.67a2.73,2.73,0,0,1,1.36.37l16.54,9.55a2.72,2.72,0,0,1,0,4.71L204,95.9a2.72,2.72,0,0,1-4.08-2.35V74.45A2.72,2.72,0,0,1,202.6,71.72Z"/></g></g></g></g></g></svg>