<svg xmlns="http://www.w3.org/2000/svg" width="461.015" height="467.048" viewBox="0 0 461.015 467.048">
  <g id="voice" transform="translate(-145.25 -3590.081)">
    <g id="Group_5624" data-name="Group 5624" transform="matrix(0.899, -0.438, 0.438, 0.899, 145.25, 3756.191)">
      <path id="Path_6000" data-name="Path 6000" d="M369.082,40.41c-4.21-16.088-11.375-34.876-22.52-39.391A13.562,13.562,0,0,0,341.506,0h-.06c-2.82,0-6.135,2.108-9.12,4.653a74.2,74.2,0,0,1-27.011,14.5c-73.5,22-147.754,45.3-220.988,69.343l-2.111.693-53.854-.044A28.314,28.314,0,0,0,.023,117.437L0,144.735a28.316,28.316,0,0,0,28.294,28.338l5.5.006V246.91a27.833,27.833,0,1,0,55.667,0v-71.5c68.846,20.683,189.894,59.329,224.626,70.449a36.72,36.72,0,0,1,15,9.315c3.592,3.651,8.317,7.557,12.151,7.561h.059a13.541,13.541,0,0,0,5.06-1.01c11.152-4.5,18.347-23.276,22.583-39.356,6.411-24.351,9.957-56.655,9.983-90.967S375.455,64.771,369.082,40.41ZM89.272,167.37l.06-72.484C165.629,69.865,243,45.675,319.458,22.906q-1.022,2.5-1.948,5.1c-1.445,4.112-2.693,8.323-3.764,12.36-6.411,24.349-9.953,56.655-9.98,90.967s3.461,66.617,9.832,90.984c1.057,4.031,2.3,8.256,3.745,12.366.589,1.664,1.213,3.313,1.868,4.927C242.955,214.508,165.658,190.218,89.272,167.37Zm271.5,52.837,0-.006c-6.617,25.127-14.427,34.074-19.531,34.07a6.812,6.812,0,0,1-4.016-1.593,16.667,16.667,0,0,1-2.515-2.407c-4.146-4.783-8.789-14.212-12.947-30.1a318.732,318.732,0,0,1-8.694-59.692l26.129.021c-3.722-2.528-5.893-16.04-5.883-29.146s2.2-26.62,5.931-29.142l-26.129-.021a318.681,318.681,0,0,1,8.789-59.676c4.183-15.884,8.842-25.3,13-30.081a16.546,16.546,0,0,1,2.518-2.4,6.825,6.825,0,0,1,4.017-1.589c5.106,0,12.9,8.966,19.476,34.1,6.191,23.681,9.586,55.229,9.559,88.84S367,196.537,360.77,220.207Z" transform="translate(0 0)" fill="#cfcfcf"/>
      <ellipse id="Ellipse_40" data-name="Ellipse 40" cx="6.756" cy="29.146" rx="6.756" ry="29.146" transform="translate(336.536 102.219)" fill="#cfcfcf"/>
    </g>
    <text id="Voice-2" data-name="Voice" transform="translate(295.25 4043.129)" fill="#f5f5f5" font-size="39" font-family="Poppins-Bold, Poppins" font-weight="700" letter-spacing="0.05em"><tspan x="0" y="0">Voice</tspan></text>
  </g>
</svg>
