<svg xmlns="http://www.w3.org/2000/svg" xmlns:xlink="http://www.w3.org/1999/xlink" viewBox="0 0 1444.6 933.89"><defs><style>.cls-1{fill:#fff;}.cls-2{fill:url(#linear-gradient);}.cls-3{stroke:#0c0c0c;stroke-width:0.2px;opacity:0.36;}.cls-3,.cls-4{isolation:isolate;}.cls-4{fill:#ccc;opacity:0.11;}.cls-5{fill:#1d1c1c;}.cls-6{opacity:0.08;}.cls-7{fill:none;}.cls-11,.cls-8{fill:#e6e6e6;}.cls-9{fill:url(#linear-gradient-2);}.cls-10{fill:url(#linear-gradient-3);}.cls-11{stroke:#e6e6e6;stroke-miterlimit:10;stroke-width:5px;}</style><linearGradient id="linear-gradient" x1="-3980.3" y1="-145.67" x2="-3979.19" y2="-145.66" gradientTransform="matrix(566.2, 0, 0, -399.93, 2254052.75, -57820.27)" gradientUnits="userSpaceOnUse"><stop offset="0" stop-color="#c8c2c2"/><stop offset="0.07" stop-color="#333"/><stop offset="0.12" stop-color="#3d3c3c" stop-opacity="0.96"/><stop offset="0.23" stop-color="#878383" stop-opacity="0.96"/><stop offset="0.46" stop-color="#fff" stop-opacity="0.06"/><stop offset="0.73" stop-color="#7e7e7e" stop-opacity="0.96"/><stop offset="0.86" stop-color="#484848" stop-opacity="0.96"/><stop offset="0.96" stop-color="#333" stop-opacity="0.96"/><stop offset="1" stop-color="#aeacac" stop-opacity="0.96"/></linearGradient><linearGradient id="linear-gradient-2" x1="-3925.38" y1="-329.37" x2="-3923.59" y2="-329.49" gradientTransform="matrix(61.81, 0, 0, -6.46, 243312.19, -1516.81)" gradientUnits="userSpaceOnUse"><stop offset="0" stop-color="#030303"/><stop offset="0.13" stop-color="#4d4c4c"/><stop offset="0.19" stop-color="#4b4b4b"/><stop offset="0.26" stop-color="#888787"/><stop offset="0.52" stop-color="#f3f3f3"/><stop offset="1" stop-color="#d4cece"/></linearGradient><linearGradient id="linear-gradient-3" x1="-3923.94" y1="-329.37" x2="-3925.73" y2="-329.49" gradientTransform="matrix(61.81, 0, 0, -6.46, 243361.07, -1516.81)" xlink:href="#linear-gradient-2"/></defs><g id="Layer_2" data-name="Layer 2"><g id="Layer_1-2" data-name="Layer 1"><path class="cls-1" d="M128.2,537.53h0a6.24,6.24,0,0,0,7.33-5.42l20.74-179.42a6.23,6.23,0,0,0-5.08-6.85h0a6.23,6.23,0,0,0-7.32,5.42L123.13,530.68A6.23,6.23,0,0,0,128.2,537.53Z"/><path class="cls-1" d="M79.72,390.63,92.19,382l19.44-13.47a6.25,6.25,0,0,0,1.58-8.69l0,0a6.25,6.25,0,0,0-8.69-1.57L78,376.59l-12.47,8.65L12.66,421.91.1,430.6,0,452.7l12.47,8.64,92,63.81a6.24,6.24,0,0,0,8.68-1.57v0a6.23,6.23,0,0,0-1.57-8.69L12.54,446.18l.05-9Z"/><path class="cls-1" d="M279.3,430.6l-12.56-8.69-52.88-36.67-12.47-8.65-26.5-18.37a6.24,6.24,0,0,0-8.68,1.57l0,0a6.25,6.25,0,0,0,1.58,8.69L187.21,382l12.46,8.65,67.14,46.55,0,9-99.08,68.69a6.24,6.24,0,0,0-1.58,8.69l0,0a6.24,6.24,0,0,0,8.68,1.57l92-63.81,12.47-8.64Z"/><path class="cls-1" d="M1239.6,282.68v336h205v-336Zm192,334h-179v-41h179Zm11,0h-10v-42h-181v42h-10v-332h201Z"/><path class="cls-1" d="M1268.35,294.18h-16.5v16.5h16.5Zm-1,14.8-13.79-13.8h13.79Zm-14.5-13.09,13.8,13.79h-13.8Z"/><path class="cls-1" d="M1358.2,303.28a.81.81,0,0,0,.7-.36,1,1,0,0,0,.66.51.26.26,0,0,0,0,.09.93.93,0,0,0,.81.63c.53,0,.72-.51.84-.81,0,0,0-.12.07-.18a.79.79,0,0,0,.56-.43.68.68,0,0,0,.64-.46c.13.88.26,1.5.84,1.5a1.08,1.08,0,0,0,.63-.19c.07,0,.07,0,.11,0,.61,0,.72-.69.86-1.56,0-.11,0-.24.06-.38a.77.77,0,0,0,.49.21l0,.05a1,1,0,0,0,.78.46c.52,0,.71-.48.83-.78a.9.9,0,0,0,.46.27,2.25,2.25,0,0,1,.08.24c.12.37.3.92.85.92a1,1,0,0,0,.79-.5l0-.05a1.17,1.17,0,0,0,.66-.31.15.15,0,0,1,.12,0,1.21,1.21,0,0,0,.62.17.72.72,0,0,0,.6-.33.77.77,0,0,1,0,.15c.15,1,.25,1.7.87,1.7a1,1,0,0,0,.75-.35c.57,0,.73-.6.85-1.08a2.59,2.59,0,0,1,.15-.45.37.37,0,0,1-.26.11v-1c-.57,0-.73.6-.85,1.08,0,.11-.07.26-.11.36a1,1,0,0,0-.3.13c0-.21-.08-.46-.11-.64-.14-1-.25-1.7-.86-1.7s-.73.52-.85.84l0,.12a1.23,1.23,0,0,0-.6-.15,1,1,0,0,0-.74.31.82.82,0,0,0-.64.3c-.12-.36-.3-.9-.83-.94a1,1,0,0,0-.75-.39c-.5,0-.7.45-.82.74a.88.88,0,0,0-.58-.31l0-.06a.93.93,0,0,0-.78-.49c-.61,0-.73.68-.87,1.55,0,.22-.09.56-.14.75a1.23,1.23,0,0,0-.23.08c0-.22-.09-.52-.12-.73-.14-1-.24-1.7-.86-1.7s-.73.63-.86,1.14c0,.11-.07.29-.1.4a.82.82,0,0,0-.52.42c-.45,0-.65.37-.78.67a.83.83,0,0,0-.59-.41l0-.06a.93.93,0,0,0-.8-.54.8.8,0,0,0-.66.33c-.12-.24-.33-.66-.81-.66v1a.28.28,0,0,1-.18-.06.48.48,0,0,1,.09.16C1357.5,302.85,1357.7,303.28,1358.2,303.28Z"/><path class="cls-1" d="M1388,302.7a.84.84,0,0,0,.59.55.35.35,0,0,1,.05.08.94.94,0,0,0,.81.6,1,1,0,0,0,.73-.35,1,1,0,0,0,.74.37c.58,0,.73-.63.85-1.13,0-.12.08-.31.12-.42a1,1,0,0,0,.53-.65.89.89,0,0,0,.53.54l.08.24c.12.36.3.9.89.94a1,1,0,0,0,.69.28c.57,0,.74-.61.86-1.07,0-.08,0-.2.08-.29h0a1.4,1.4,0,0,0,.53.09.2.2,0,0,1,.14,0,1.19,1.19,0,0,0,.6.15,1.15,1.15,0,0,0,.6-.18.42.42,0,0,1,0,.1c.11.32.3.84.84.84a1,1,0,0,0,.74-.35.92.92,0,0,0,.81-.62l.06-.1a.79.79,0,0,0,.54-.41c.12.51.29,1,.82,1a1,1,0,0,1,.27,0,.84.84,0,0,0,.39,0l.06.08a.94.94,0,0,0,.77.45l.09-1-.06-.08a.94.94,0,0,0-.77-.44,1.45,1.45,0,0,1-.27,0l-.26,0c0-.12-.08-.3-.11-.42-.13-.56-.27-1.18-.85-1.18s-.73.51-.84.81c0,.06,0,.13-.08.19a1,1,0,0,0-.64.61.26.26,0,0,0,0,.09.9.9,0,0,0-.5.23.64.64,0,0,0,0-.07c-.11-.32-.31-.84-.84-.84a1.24,1.24,0,0,0-.74.26.28.28,0,0,1-.15,0,1.18,1.18,0,0,0-.59-.15.48.48,0,0,1-.22,0,1.7,1.7,0,0,0-.52-.08c-.57,0-.74.62-.86,1.07,0,.05,0,.12,0,.19a.88.88,0,0,0-.39-.17c0-.07-.06-.17-.08-.23-.1-.32-.25-.78-.66-.89l-.08-.22c-.11-.33-.3-.88-.84-.88s-.73.58-.85,1c0,.08-.06.2-.09.28-.42.13-.55.67-.66,1.11a1.36,1.36,0,0,1,0,.17.86.86,0,0,0-.58-.21.83.83,0,0,0-.66.31,1,1,0,0,0-.61-.57c0-.08-.07-.19-.09-.27-.12-.37-.3-.94-.85-.94s-.73.6-.85,1.08l-.1.36a1,1,0,0,0-.52.33v1a1,1,0,0,0,.74-.35C1387.71,303.49,1387.9,303.1,1388,302.7Z"/><path class="cls-1" d="M1416.3,303a1.14,1.14,0,0,0,.58-.13.29.29,0,0,1,.16,0,1,1,0,0,0,.65-.24v0a.94.94,0,0,0,.82.66.81.81,0,0,0,.69-.36,1,1,0,0,0,.65.51.41.41,0,0,1,.05.09,1,1,0,0,0,.82.63c.53,0,.72-.51.83-.81l.08-.18a.83.83,0,0,0,.57-.43.7.7,0,0,0,.64-.46c.13.88.26,1.5.83,1.5a1.15,1.15,0,0,0,.64-.19c.06,0,.06,0,.1,0,.61,0,.73-.69.87-1.56,0-.11,0-.24.06-.38a.77.77,0,0,0,.49.21l0,.05a1,1,0,0,0,.78.46c.52,0,.71-.48.83-.78a.9.9,0,0,0,.46.27,2.25,2.25,0,0,1,.08.24c.12.37.3.92.85.92a1,1,0,0,0,.79-.5l0-.05a1.2,1.2,0,0,0,.67-.31.19.19,0,0,1,.13,0,1.21,1.21,0,0,0,.62.17c.53,0,.72-.53.84-.84a1.48,1.48,0,0,1,.11-.27.27.27,0,0,1-.21.09v-1c-.53,0-.73.52-.84.84,0,0,0,.08,0,.12a1.23,1.23,0,0,0-.6-.15,1.09,1.09,0,0,0-.75.31.83.83,0,0,0-.64.3c-.12-.36-.3-.9-.83-.94a.93.93,0,0,0-.75-.39c-.5,0-.7.45-.82.74a.86.86,0,0,0-.58-.31.21.21,0,0,1,0-.06,1,1,0,0,0-.79-.49c-.61,0-.72.68-.86,1.55,0,.22-.09.56-.14.75a1,1,0,0,0-.23.08c0-.22-.09-.52-.12-.73-.15-1-.25-1.7-.87-1.7s-.73.63-.85,1.14c0,.11-.07.29-.11.4a.8.8,0,0,0-.51.42.89.89,0,0,0-.79.67.85.85,0,0,0-.59-.41.21.21,0,0,1,0-.06.93.93,0,0,0-.8-.54.8.8,0,0,0-.66.33.93.93,0,0,0-.81-.66,1.09,1.09,0,0,0-.74.32,1.33,1.33,0,0,0-.58.13h0l0-.12c-.12-.3-.31-.79-.84-.79v1a.27.27,0,0,1-.2-.09,1.38,1.38,0,0,1,.11.24C1415.58,302.51,1415.77,303,1416.3,303Z"/><path class="cls-1" d="M1251.9,455.18h181v-115h-181Zm92.37-57.5L1430.9,343V452.37Zm84.17,55.5H1256.36l86-54.31Zm-86-56.68-86-54.32h172.08Zm-1.88,1.18-86.62,54.69V343Z"/><path class="cls-1" d="M1270.81,471.68h-19.5v19.5h19.5Zm-2,17.5h-15.5v-15.5h15.5Z"/><path class="cls-1" d="M1297.5,471.68H1278v19.5h19.5Zm-2,17.5H1280v-15.5h15.5Z"/><path class="cls-1" d="M1324.2,471.68h-19.5v19.5h19.5Zm-2,17.5h-15.5v-15.5h15.5Z"/><path class="cls-1" d="M1350.9,471.68h-19.5v19.5h19.5Zm-2,17.5h-15.5v-15.5h15.5Z"/><path class="cls-1" d="M1276.88,507.38c-.05.61-.13,1.51-.21,1.86a1.06,1.06,0,0,0-.23.19c0-.47-.07-1-.1-1.42-.18-2.58-.23-3.27-.89-3.27-.49,0-.64.4-.76,1.35-.13-1-.28-1.4-.78-1.4s-.67.49-.8,1.41c-.12-.56-.3-.9-.74-.9-.62,0-.7.61-.86,2.58-.09-.35-.21-.59-.43-.68a6.07,6.07,0,0,1-.14-.67c-.14-.74-.27-1.44-.92-1.48a1,1,0,0,0-.73-.34c-.66,0-.71.68-.89,3.18,0,.33-.05.73-.08,1.11a.66.66,0,0,0-.58-.33.75.75,0,0,0-.63.36l0-.18c-.15-1-.26-1.65-.91-1.69a1.07,1.07,0,0,0-.56-.33c0-.07-.06-.19-.09-.27-.12-.38-.3-.95-.86-.95s-.73.72-.88,1.81c0,.2-.07.49-.11.72a.83.83,0,0,0-.38-.16l-.08-.21c-.12-.32-.32-.86-.86-.86s-.72.71-.88,1.88l0,.23a.7.7,0,0,0-.63-.37.35.35,0,0,1-.17,0,1,1,0,0,0-.3-.11c-.07-.32-.14-1-.18-1.44-.17-1.58-.24-2.3-.89-2.3s-.73.69-.87,1.56a6.67,6.67,0,0,1-.16.78c-.37.17-.5.69-.61,1.17,0,.14-.08.35-.12.48a.8.8,0,0,0-.39.28c0-.1,0-.19,0-.27-.15-.91-.26-1.62-.88-1.62a1,1,0,0,0-.8.52,1,1,0,0,0-.74-.35l-.09,0a1,1,0,0,0-.68-.23c-.64,0-.72.73-.88,2.06,0,.21,0,.46-.09.69a.75.75,0,0,0-.57-.25v1a.23.23,0,0,1-.15-.06s.06.11.09.16a1,1,0,0,0,.83.64c.64,0,.73-.73.88-2.06,0-.32.09-.74.14-1a1.43,1.43,0,0,0,.53.17,1,1,0,0,0,.76.39.81.81,0,0,0,.59-.25c0,.15,0,.3.07.42.14.91.26,1.62.88,1.62s.72-.45.84-.69a.59.59,0,0,1,.06-.14c.48-.09.62-.68.74-1.21a3.76,3.76,0,0,1,.13-.48.86.86,0,0,0,.45-.59c.15,1.4.25,2.05.85,2.05a.25.25,0,0,1,.17,0,1.71,1.71,0,0,0,.43.13,2.25,2.25,0,0,1,.08.24c.12.37.31.92.86.92s.73-.71.88-1.88c0-.09,0-.2,0-.31a.84.84,0,0,0,.64.4,1,1,0,0,0,.75.36c.63,0,.73-.72.88-1.81,0,0,0-.1,0-.15a.83.83,0,0,0,.67.45,1,1,0,0,0,.47.3c.06.21.12.6.16.84.15,1,.26,1.66.88,1.66a.79.79,0,0,0,.71-.49c.13.46.31,1,.83,1s.71-.68.89-3.18c0-.62.1-1.47.17-2a.87.87,0,0,0,.24.1,6.2,6.2,0,0,1,.14.65c.12.6.22,1.18.59,1.37.06.24.13.78.18,1.15.15,1.22.25,1.95.88,1.95s.71-.65.88-2.83c.12.39.31.61.66.61s.61-.32.73-.93c.13,1.24.26,1.77.81,1.77s.59-.29.71-.93c.14,2,.24,2.57.83,2.57s.74-.56.86-.93l.1-.27c.38-.1.5-.58.61-1.68.11.84.28,1.21.74,1.21s.74-.64.87-1.15c0-.11.07-.27.11-.38h.41l.07.2a1.29,1.29,0,0,0,.59.8,7,7,0,0,1,.16.75c.14.83.26,1.54.88,1.54s.73-.7.88-1.51a5.23,5.23,0,0,1,.15-.73c.23-.1.35-.36.44-.8.15,2,.24,2.58.84,2.58s.66-.42.78-1.24c.12.78.29,1.2.77,1.2.66,0,.71-.7.88-3,0-.37.06-.82.1-1.23a.78.78,0,0,0,.24.2c.08.35.16,1.21.21,1.8.17,1.91.23,2.62.88,2.62s.74-.65.87-1.17c0-.13.08-.32.12-.44a1,1,0,0,0,.57-.45s0-.05,0-.06c.57,0,.69-.71.83-1.56,0-.21.1-.55.15-.74a1.27,1.27,0,0,0,.35-.12c.07,0,.09-.05.08-.07l.07.08a1,1,0,0,0,.78.46.2.2,0,0,1,.14,0,1.1,1.1,0,0,0,.44.16c0,.09.07.22.1.31.11.36.25.83.62,1a5.27,5.27,0,0,1,.14.6c.14.67.28,1.36.88,1.36s.72-.7.88-2.24a12.75,12.75,0,0,1,.2-1.42,1,1,0,0,0,.41-.47c.12.4.28.81.68.89l.07.15c.11.26.32.74.84.74a.74.74,0,0,0,.57-.27c0,.28.06.59.09.84.16,1.69.23,2.38.88,2.38s.7-.64.88-3.31c0-.81.13-2,.22-2.45l.14-.06c.07.56.13,1.5.18,2.19.16,2.49.21,3.24.73,3.35l.07.18c.12.29.32.79.85.79s.74-.54.85-.86c0-.06.06-.15.09-.22.49-.12.55-.85.71-2.69,0-.14,0-.29,0-.44a.65.65,0,0,0,.62.43l.33,0,.3,0,.07.15a1.1,1.1,0,0,0,.89.8.88.88,0,0,0,.65.27l.07.09a1,1,0,0,0,.78.44c.6,0,.71-.65.85-1.95a1,1,0,0,0,.39.56c.07.26.14.87.19,1.29.16,1.4.25,2.1.88,2.1s.74-.69.88-1.49c0-.21.1-.54.15-.71.42-.19.48-.92.63-2.48,0-.43.09-1,.15-1.41a1.49,1.49,0,0,0,.28.11c0,.12.09.32.13.46.13.56.28,1.2.87,1.2a1.35,1.35,0,0,0,.48-.08c.07.39.14,1.08.18,1.57.17,1.88.23,2.58.88,2.58s.75-.54.86-.87c0-.07.06-.17.09-.23.49-.13.57-.87.71-2.2,0-.17,0-.37.07-.57a.7.7,0,0,0,.6.33,1.67,1.67,0,0,0,.5-.07,1,1,0,0,1,.27,0c.44,0,.62-.35.74-.91.1.66.21,1.1.5,1.27a9.18,9.18,0,0,1,.19,1.29c.16,1.36.25,2.11.89,2.11s.74-.67.88-1.38c0-.08,0-.18,0-.27a.87.87,0,0,0,.62.26.91.91,0,0,0,.79-.58.94.94,0,0,0,.68.45l0,.07a1,1,0,0,0,.8.52c.66,0,.71-.7.88-3v-.12c.13.35.31.56.65.56a1,1,0,0,0,.83-.65l.06-.11a.77.77,0,0,0,.53-.37,1.11,1.11,0,0,1,0,.17c.12.75.22,1.37.61,1.57.06.21.12.66.17.94.15,1,.25,1.74.88,1.74s.73-.49.84-.75a1.19,1.19,0,0,1,.08-.16c.5-.11.59-.82.74-2a8.59,8.59,0,0,1,.19-1.24.93.93,0,0,0,.38-.52c.15,1.51.24,2.19.87,2.19.45,0,.63-.36.75-.93.13.78.29,1.27.8,1.27s.73-.73.89-2.18c0-.18,0-.39.07-.6a.73.73,0,0,0,.6.31.69.69,0,0,0,.64-.46l0,.33c.17,1.79.24,2.53.89,2.53a2.21,2.21,0,0,0,.47-.05l.31,0c.58,0,.74-.65.87-1.17a3.49,3.49,0,0,1,.16-.51.29.29,0,0,1-.25.11v-1c-.59,0-.75.64-.88,1.16,0,.12-.07.3-.11.41l-.27,0h0c-.07-.37-.14-1.08-.19-1.59-.16-1.78-.23-2.52-.88-2.52s-.74.62-.87,1.19a.77.77,0,0,0-.69-.46c-.54,0-.68.52-.81,1.57-.12-.59-.31-.94-.74-.94s-.59.29-.71.74c-.14-1.32-.25-1.93-.85-1.93s-.73.67-.88,1.46a4.66,4.66,0,0,1-.15.69c-.41.18-.49.88-.63,2a10.57,10.57,0,0,1-.18,1.23,1,1,0,0,0-.33.26,2.51,2.51,0,0,0,0-.31c-.12-.84-.21-1.49-.6-1.68a8.51,8.51,0,0,1-.17-.85c-.14-.91-.26-1.63-.88-1.63s-.73.51-.85.82a1.08,1.08,0,0,0-.08.19.78.78,0,0,0-.45.28c0-.14,0-.27-.06-.37-.15-1-.26-1.69-.88-1.69s-.71.7-.88,3c0,.51-.09,1.17-.15,1.66a.89.89,0,0,0-.42-.17l-.06-.08a.94.94,0,0,0-.81-.55.93.93,0,0,0-.81.6.88.88,0,0,0-.74-.41c-.36,0-.55.24-.68.59-.12-1.07-.21-1.7-.57-1.89a11.47,11.47,0,0,1-.19-1.15c-.15-1.22-.24-1.95-.88-1.95s-.73.72-.88,1.72c0,.26-.1.66-.16.89a1.25,1.25,0,0,0-.24.05l-.1,0a1.67,1.67,0,0,1-.08-.2c-.12-.32-.31-.87-.86-.87s-.72.74-.88,2.21a11.79,11.79,0,0,1-.2,1.39.78.78,0,0,0-.27.24c0-.3-.06-.62-.08-.89-.17-1.87-.24-2.58-.89-2.58a1.28,1.28,0,0,0-.57.13,3.06,3.06,0,0,1-.1-.38c-.13-.57-.28-1.21-.93-1.25a1,1,0,0,0-.71-.3c-.65,0-.72.69-.89,2.53a16.72,16.72,0,0,1-.21,1.7,1,1,0,0,0-.37.57c-.12-1-.22-1.6-.59-1.77,0-.17-.11-.51-.15-.72-.14-.81-.27-1.5-.88-1.5s-.72.73-.88,2.19c0,.3-.08.68-.12,1a1.15,1.15,0,0,0-.6-.24,1,1,0,0,0-.58-.29l-.07-.15c-.11-.27-.32-.75-.84-.75a2.27,2.27,0,0,1-.33,0l-.22,0c0-.15-.09-.37-.12-.51-.13-.64-.28-1.3-.87-1.3s-.71.69-.89,2.72a17.22,17.22,0,0,1-.21,1.88,1.12,1.12,0,0,0-.46.59,1,1,0,0,0-.4-.48,24.45,24.45,0,0,1-.23-2.52c-.18-2.71-.23-3.36-.89-3.36a1,1,0,0,0-.76.36c-.61,0-.7.54-.85,2.71-.11-.61-.29-.87-.69-.87a.89.89,0,0,0-.78.6.9.9,0,0,0-.55-.53c0-.11-.08-.28-.11-.39-.13-.48-.29-1.09-.87-1.09s-.74.55-.86.87a2.09,2.09,0,0,1-.08.23c-.48.13-.56.83-.71,2.19a.78.78,0,0,0-.47-.51l-.1-.32c-.13-.43-.3-1-.87-1-.05,0-.06,0-.13-.05a.82.82,0,0,0-.55-.14l-.07-.09a1,1,0,0,0-.79-.46,1.23,1.23,0,0,0-.6.15.33.33,0,0,1-.17,0c-.61,0-.73.69-.87,1.56,0,.22-.1.57-.16.76a1.1,1.1,0,0,0-.53.44s0,.05,0,.06a.66.66,0,0,0-.57.39c0-.18,0-.36,0-.52-.15-1.72-.21-2.47-.7-2.6,0-.08-.07-.19-.09-.27-.12-.37-.31-.92-.86-.92s-.7.62-.85,2.64c-.13-.51-.31-.78-.69-.78s-.57.25-.69.76c-.16-2.15-.23-2.75-.86-2.75s-.72.7-.88,2.24a12.62,12.62,0,0,1-.2,1.43,1.27,1.27,0,0,0-.46.85c-.1-.49-.26-.88-.61-1l-.08-.21c-.12-.32-.31-.85-.86-.85h-.77a.66.66,0,0,0-.61.4c0-.15,0-.29,0-.41-.17-1.73-.24-2.45-.89-2.45S1277.05,505.36,1276.88,507.38Z"/><path class="cls-1" d="M1431.85,519.67v-1c-.65,0-.72.75-.89,2.39l0,.27a.7.7,0,0,0-.65-.5c-.63,0-.72.69-.88,1.93a1,1,0,0,0-.36-.49,17.57,17.57,0,0,1-.22-1.95c-.18-2.07-.24-2.77-.89-2.77s-.7.63-.89,3.66c0,.52-.07,1.18-.12,1.75a.68.68,0,0,0-.55-.28,1,1,0,0,0-.8.49s0,.06,0,.07a.53.53,0,0,1-.16,0,1.18,1.18,0,0,0-.52-.1l-.06-.07a1.12,1.12,0,0,0-.51-.37c-.06-.23-.12-.66-.16-.94-.15-1-.26-1.76-.89-1.76a.81.81,0,0,0-.6.27c0-.15-.05-.31-.07-.44-.15-1-.26-1.69-.88-1.69s-.75.57-.87.94c0,.08-.06.19-.09.27-.43.11-.58.62-.69,1,0,.1-.07.23-.11.33a1.28,1.28,0,0,0-.58.3c-.63,0-.73.71-.89,1.89a9.43,9.43,0,0,1-.17,1.06,1.31,1.31,0,0,0-.41.2l0-.06a1.1,1.1,0,0,0-.64-.65c0-.09-.08-.24-.11-.33-.12-.44-.29-1-.87-1,0,0,0,0-.12,0a1.15,1.15,0,0,0-.45-.18c0-.11-.08-.28-.11-.4-.13-.5-.29-1.13-.87-1.13a.5.5,0,0,1-.23,0,1.58,1.58,0,0,0-.55-.09,1.2,1.2,0,0,0-.66.19c-.07.05-.07.05-.12.05a.77.77,0,0,0-.71.56c-.13-.73-.28-1.33-.85-1.33s-.73.71-.88,1.9c0,.21-.07.48-.11.72a.81.81,0,0,0-.57-.22.75.75,0,0,0-.62.37c0-.15,0-.29-.05-.42-.16-1.43-.24-2.14-.88-2.14-.42,0-.6.3-.72,1-.15-2.15-.24-2.69-.84-2.69-.38,0-.58.27-.71.6-.13-.73-.28-1.32-.84-1.32s-.74.57-.87,1c0,.09-.07.23-.1.31-.48.14-.54.91-.7,3.11v.05a.8.8,0,0,0-.46-.59,3.38,3.38,0,0,1-.11-.34c-.12-.44-.3-1-.87-1s-.73.69-.88,1.57a7.33,7.33,0,0,1-.16.79,1,1,0,0,0-.46.65c-.13-.74-.29-1.28-.83-1.28a.64.64,0,0,0-.62.48c0-.26,0-.52,0-.76-.19-3.2-.24-3.73-.89-3.73a1,1,0,0,0-.83.66l-.06.13c-.54.09-.61.84-.77,2.64,0,.31-.06.69-.09,1a.7.7,0,0,0-.57-.27c-.53,0-.69.52-.82,1.23a1,1,0,0,0-.39-.6,19.53,19.53,0,0,1-.22-2c-.18-2.22-.23-2.88-.89-2.88-.46,0-.64.39-.76,1.09-.12-.84-.28-1.3-.78-1.3-.65,0-.7.54-.89,3.75,0,.23,0,.47,0,.71a.66.66,0,0,0-.62-.49c-.58,0-.74.63-.87,1.13,0,0,0,.08,0,.13a.86.86,0,0,0-.64-.28.69.69,0,0,0-.57.3c0-.38-.07-.79-.1-1.13-.18-2.27-.23-2.95-.89-2.95-.51,0-.68.5-.81,1.1-.13-.39-.33-.7-.74-.7-.56,0-.69.55-.82,1.85-.1-.52-.24-.84-.54-.93,0-.08-.07-.21-.1-.3-.12-.39-.3-1-.87-1s-.72.73-.88,2.32c0,.49-.13,1.19-.2,1.5a.61.61,0,0,0-.24.17c0-.4-.09-.88-.12-1.26-.16-1.9-.22-2.65-.72-2.77,0-.06-.06-.15-.09-.21-.11-.31-.31-.84-.85-.84s-.74.68-.88,1.34a4.92,4.92,0,0,1-.14.58c-.42.18-.5.89-.64,2.13,0,.16,0,.35-.07.54a.73.73,0,0,0-.33-.27c-.06-.22-.12-.65-.17-.93-.14-1-.25-1.72-.88-1.72a.86.86,0,0,0-.59.23l-.08-.48c-.15-.88-.26-1.58-.88-1.58s-.72.72-.89,2.46c0,.26,0,.57-.09.87a.7.7,0,0,0-.57-.28,1,1,0,0,0-.78.41s0,0,0,.06c-.62,0-.72.72-.87,1.72,0,.28-.11.71-.17.93a.77.77,0,0,0-.35.26c0-.1,0-.2-.05-.28-.13-.79-.23-1.43-.68-1.57,0-.09-.08-.24-.1-.33-.13-.44-.3-1-.87-1s-.71.58-.84,1.36a.91.91,0,0,0-.48-.59,3.8,3.8,0,0,1-.13-.51c-.13-.58-.28-1.25-.88-1.25s-.73.69-.88,1.49c0,.12,0,.26-.07.4a.89.89,0,0,0-.6-.23l-.3,0a.6.6,0,0,0-.2,0c-.06-.26-.13-.72-.17-1-.15-1.17-.25-1.88-.88-1.88s-.71.7-.89,3.28v.09c-.13-.39-.31-.61-.66-.61a.94.94,0,0,0-.78.43l-.09,0a1.07,1.07,0,0,0-.69-.24c-.33,0-.51.19-.63.54l0-.47c-.19-3.21-.24-3.74-.89-3.74s-.71.7-.89,3c0,.32,0,.69-.08,1a.76.76,0,0,0-.35-.29c0-.13-.1-.36-.13-.51-.11-.49-.23-1-.62-1.2,0-.18-.11-.51-.15-.73-.14-.8-.27-1.49-.88-1.49s-.69.5-.81,1.2c-.13-.42-.32-.74-.74-.74-.63,0-.7.64-.87,2.71-.12-.45-.3-.7-.68-.7-.58,0-.74.64-.87,1.16,0,.12-.07.3-.11.41l-.26,0h0c-.07-.38-.14-1.08-.18-1.59-.17-1.78-.24-2.52-.89-2.52s-.73.62-.86,1.19a.77.77,0,0,0-.69-.46c-.54,0-.68.52-.81,1.56-.12-.58-.3-.93-.73-.93s-.58.28-.71.74c-.14-1.33-.25-1.93-.84-1.93s-.74.67-.88,1.46c0,.2-.1.52-.15.69-.41.19-.5.88-.63,2,0,.4-.12,1-.19,1.23a.77.77,0,0,0-.32.27c0-.12,0-.23,0-.32-.13-.85-.22-1.49-.61-1.68a8.51,8.51,0,0,1-.17-.85c-.15-.91-.26-1.63-.88-1.63s-.73.51-.85.81l-.09.2a.81.81,0,0,0-.45.28c0-.13,0-.27-.06-.38-.15-1-.26-1.68-.88-1.68s-.71.7-.89,3c0,.51-.09,1.17-.14,1.66a.89.89,0,0,0-.43-.17l0-.08a1,1,0,0,0-.82-.55.92.92,0,0,0-.8.6.94.94,0,0,0-.74-.41c-.37,0-.56.24-.69.58-.12-1.06-.21-1.69-.57-1.88a9.33,9.33,0,0,1-.18-1.15c-.16-1.22-.25-1.95-.89-1.95s-.73.72-.88,1.72a7.86,7.86,0,0,1-.15.89,1.22,1.22,0,0,0-.25,0l-.1,0a1.67,1.67,0,0,1-.08-.2c-.11-.32-.31-.87-.85-.87s-.73.74-.89,2.21c0,.46-.12,1.11-.19,1.39a.87.87,0,0,0-.27.23c0-.3-.06-.61-.09-.87-.17-1.88-.23-2.59-.88-2.59a1.33,1.33,0,0,0-.58.13c0-.12-.07-.27-.09-.38-.14-.57-.29-1.21-.93-1.25a1,1,0,0,0-.72-.3c-.65,0-.71.69-.88,2.53a16.72,16.72,0,0,1-.21,1.7,1,1,0,0,0-.37.57c-.12-1-.22-1.6-.59-1.77a6.43,6.43,0,0,1-.16-.72c-.14-.81-.26-1.5-.88-1.5s-.72.73-.88,2.19c0,.29-.07.68-.12,1a1.11,1.11,0,0,0-.59-.24,1,1,0,0,0-.58-.29l-.07-.15c-.11-.27-.32-.75-.84-.75a2.27,2.27,0,0,1-.33,0l-.22,0a4.87,4.87,0,0,1-.12-.52c-.14-.63-.28-1.29-.88-1.29s-.71.69-.88,2.72c-.06.62-.13,1.52-.22,1.88a1.18,1.18,0,0,0-.46.6,1.08,1.08,0,0,0-.41-.49c-.1-.45-.18-1.67-.24-2.51-.18-2.72-.22-3.37-.88-3.37a1.11,1.11,0,0,0-.78.36c-.61,0-.69.54-.84,2.73-.12-.62-.3-.89-.7-.89a.87.87,0,0,0-.78.61,1,1,0,0,0-.56-.54c0-.11-.09-.28-.12-.39-.13-.48-.29-1.09-.87-1.09s-.74.54-.86.87c0,.07-.06.16-.08.23-.49.13-.57.83-.72,2.21a.81.81,0,0,0-.47-.53c0-.09-.08-.23-.1-.32-.13-.43-.3-1-.87-1-.06,0-.07,0-.14,0a.86.86,0,0,0-.55-.15.29.29,0,0,1-.07-.08,1,1,0,0,0-.79-.46,1.19,1.19,0,0,0-.6.15.35.35,0,0,1-.17,0c-.62,0-.74.69-.88,1.56,0,.22-.1.57-.16.76a1.05,1.05,0,0,0-.53.44s0,.05,0,.06a.66.66,0,0,0-.57.4c0-.19,0-.37,0-.54-.16-1.71-.22-2.46-.7-2.59,0-.08-.07-.19-.1-.27-.12-.37-.31-.92-.86-.92s-.7.62-.85,2.64c-.12-.51-.31-.78-.69-.78s-.57.25-.69.76c-.16-2.15-.23-2.75-.86-2.75s-.71.7-.88,2.25a12.75,12.75,0,0,1-.2,1.42,1.27,1.27,0,0,0-.45.85c-.11-.49-.26-.88-.61-1,0-.06-.06-.15-.09-.21-.11-.32-.31-.85-.85-.85h-.77a.69.69,0,0,0-.62.4c0-.15,0-.29,0-.41-.16-1.73-.23-2.45-.88-2.45s-.71.68-.88,2.7c-.06.62-.13,1.51-.22,1.86a.82.82,0,0,0-.22.19c0-.47-.08-1-.11-1.43-.17-2.57-.22-3.26-.88-3.26-.49,0-.65.4-.77,1.34-.12-1-.28-1.39-.77-1.39s-.68.49-.8,1.4c-.12-.55-.3-.89-.74-.89-.62,0-.7.61-.85,2.57-.09-.35-.22-.58-.43-.67a6,6,0,0,1-.15-.67c-.14-.74-.27-1.44-.91-1.48a1,1,0,0,0-.73-.34c-.66,0-.71.68-.89,3.18,0,.33,0,.72-.08,1.1a.66.66,0,0,0-.57-.32.74.74,0,0,0-.63.36l0-.18c-.15-1-.26-1.65-.91-1.69a1.08,1.08,0,0,0-.55-.33,2.15,2.15,0,0,1-.1-.27c-.12-.38-.3-1-.86-1s-.73.72-.88,1.81c0,.21-.07.49-.11.72a.83.83,0,0,0-.38-.16l-.08-.21c-.12-.32-.32-.86-.86-.86s-.72.71-.88,1.88l0,.23a.7.7,0,0,0-.63-.37.35.35,0,0,1-.17,0,1,1,0,0,0-.3-.11c-.07-.32-.14-1-.18-1.44-.17-1.58-.24-2.3-.89-2.3s-.73.69-.87,1.56a6.67,6.67,0,0,1-.16.78c-.38.17-.5.69-.61,1.17,0,.14-.08.35-.12.48a.76.76,0,0,0-.39.28c0-.1,0-.19,0-.27-.14-.91-.26-1.62-.87-1.62a.92.92,0,0,1-1.55.17l-.09-.05a1,1,0,0,0-.68-.23c-.63,0-.72.73-.88,2.06,0,.21,0,.46-.08.69a.79.79,0,0,0-.3-.2c-.06-.22-.13-.65-.17-.93-.12-.84-.22-1.48-.6-1.68a8.55,8.55,0,0,1-.17-.9c-.15-1-.26-1.69-.88-1.69s-.73.74-.88,1.85a8.43,8.43,0,0,1-.18,1c-.38.22-.46.93-.6,2.15,0,.19,0,.43-.07.65a.74.74,0,0,0-.59-.29.78.78,0,0,0-.68.43c-.1-.41-.23-.88-.58-1-.06-.23-.13-.71-.17-1-.15-1.09-.25-1.81-.88-1.81s-.72.7-.89,2.1a11.05,11.05,0,0,1-.18,1.27.91.91,0,0,0-.23.15c0-.57-.1-1.31-.14-1.89-.18-2.77-.22-3.43-.88-3.43s-.74.71-.88,1.61c0,.14-.06.32-.09.49a.88.88,0,0,0-.58-.22,1,1,0,0,0-.83.63l-.06.11a.74.74,0,0,0-.54.43v-.06c-.14-1-.24-1.63-.72-1.74a1.8,1.8,0,0,1-.08-.21c-.12-.31-.32-.83-.86-.83s-.73.67-.87,1.46a.78.78,0,0,0-.48-.44,1.86,1.86,0,0,1-.1-.31c-.13-.42-.3-1-.87-1s-.7.66-.88,3.11a17.4,17.4,0,0,1-.27,2.4.42.42,0,0,1,.38-.21v1c.66,0,.7-.66.88-3.12,0-.36.06-.8.1-1.2a.66.66,0,0,0,.38.27l.1.27c.12.37.3.93.86.93s.73-.69.88-1.5a.13.13,0,0,1,0-.06.81.81,0,0,0,.38.35c.06.22.13.67.17,1,.15,1.06.25,1.77.88,1.77s.74-.58.87-1a1.86,1.86,0,0,1,.1-.31,1,1,0,0,0,.62-.59.91.91,0,0,0,.73.37.64.64,0,0,0,.62-.47c0,.21,0,.41,0,.6.19,2.77.23,3.43.89,3.43.51,0,.72-.45.84-.7a.83.83,0,0,1,.07-.13c.42-.08.55-.57.67-1.46.1.47.24.79.52.89,0,.12.09.31.12.44.13.52.29,1.16.87,1.16a.86.86,0,0,0,.76-.56.89.89,0,0,0,.79.63c.64,0,.72-.74.88-2.21a12,12,0,0,1,.2-1.4c.27-.17.39-.58.48-1.16.09.43.22.74.47.87a9.45,9.45,0,0,1,.17.94c.14.94.24,1.64.76,1.73a.6.6,0,0,1,.06.11,1,1,0,0,0,.83.64c.64,0,.73-.73.88-2.06,0-.31.09-.74.15-1a1.37,1.37,0,0,0,.53.17,1,1,0,0,0,.75.39.81.81,0,0,0,.59-.25c0,.15.06.3.08.42.14.91.26,1.62.88,1.62s.72-.45.83-.69l.07-.14c.48-.09.62-.68.74-1.21,0-.14.08-.35.12-.48a.84.84,0,0,0,.46-.6c.15,1.41.25,2.06.85,2.06a.3.3,0,0,1,.18,0,1.49,1.49,0,0,0,.42.13,2.25,2.25,0,0,1,.08.24c.13.37.31.92.86.92s.73-.71.88-1.88c0-.09,0-.2,0-.31a.81.81,0,0,0,.63.4,1,1,0,0,0,.75.36c.63,0,.73-.72.88-1.81,0-.05,0-.09,0-.15a.81.81,0,0,0,.67.45,1,1,0,0,0,.47.3c.06.21.12.6.16.85.15,1,.26,1.65.88,1.65a.78.78,0,0,0,.7-.49c.13.46.31,1,.84,1s.7-.68.88-3.18c0-.62.1-1.46.17-2a.87.87,0,0,0,.24.1c0,.17.1.46.14.65.11.6.22,1.17.58,1.37a9,9,0,0,1,.18,1.15c.16,1.22.25,2,.88,2s.71-.65.88-2.82c.12.38.31.6.66.6s.61-.32.73-.93c.13,1.24.26,1.77.81,1.77s.59-.29.7-.93c.15,2,.24,2.57.84,2.57s.74-.56.86-.93c0-.08.06-.19.09-.27.38-.1.5-.58.61-1.67.12.83.29,1.2.75,1.2s.74-.64.87-1.15c0-.11.07-.27.11-.38h.4c0,.06,0,.14.08.19a1.22,1.22,0,0,0,.59.81c0,.18.11.53.15.75.14.83.27,1.54.88,1.54s.74-.7.88-1.51c0-.21.1-.55.15-.73.23-.1.35-.36.44-.79.15,2,.24,2.57.84,2.57s.66-.42.78-1.24c.12.78.29,1.2.77,1.2.65,0,.71-.7.88-3,0-.37.06-.83.1-1.24a.91.91,0,0,0,.24.2c.08.35.16,1.2.21,1.79.17,1.91.23,2.63.89,2.63s.74-.65.87-1.17c0-.13.08-.32.12-.44a1,1,0,0,0,.57-.45s0-.05,0-.06c.58,0,.7-.71.84-1.56,0-.21.1-.55.15-.74a1.27,1.27,0,0,0,.35-.12c.08,0,.09,0,.09-.07l.07.08a1,1,0,0,0,.78.46.19.19,0,0,1,.14,0,1.16,1.16,0,0,0,.45.16c0,.09.07.23.1.31.1.36.24.83.62,1a5.82,5.82,0,0,1,.14.6c.14.67.28,1.36.88,1.36s.72-.7.89-2.24c0-.46.12-1.12.19-1.42a1.05,1.05,0,0,0,.43-.48c.11.4.27.83.68.9l.07.15c.11.26.32.74.84.74a.7.7,0,0,0,.57-.28c0,.29.07.6.09.85.17,1.68.24,2.38.89,2.38s.7-.64.89-3.32c.05-.81.13-2,.22-2.44l.14-.06c.08.56.14,1.5.19,2.19.16,2.49.21,3.24.73,3.35l.07.18c.12.29.32.79.85.79s.74-.54.86-.86c0-.06.06-.15.09-.22.49-.12.55-.85.71-2.69,0-.14,0-.29,0-.44a.66.66,0,0,0,.62.43,2.27,2.27,0,0,1,.33,0l.31,0,.06.15a1.12,1.12,0,0,0,.9.8.85.85,0,0,0,.64.27.31.31,0,0,1,.07.09,1,1,0,0,0,.78.44c.61,0,.71-.65.86-2a.91.91,0,0,0,.38.56,10.42,10.42,0,0,1,.2,1.29c.16,1.4.24,2.1.88,2.1s.73-.69.88-1.49a4.67,4.67,0,0,1,.15-.71c.41-.19.48-.92.62-2.48,0-.43.1-1,.16-1.41a1.49,1.49,0,0,0,.28.11c0,.12.09.32.12.46.14.56.29,1.2.88,1.2a1.35,1.35,0,0,0,.48-.08c.07.4.13,1.08.18,1.58.17,1.87.23,2.57.88,2.57s.74-.54.86-.87a1.57,1.57,0,0,1,.09-.23c.48-.14.56-.87.71-2.2,0-.17,0-.37.06-.57a.7.7,0,0,0,.6.33,1.81,1.81,0,0,0,.51-.07.88.88,0,0,1,.26,0c.44,0,.62-.36.75-.91.09.66.21,1.1.5,1.27.07.27.14.87.19,1.3.16,1.39.24,2.1.88,2.1s.74-.67.88-1.38a1.47,1.47,0,0,1,.06-.27.83.83,0,0,0,.61.26.93.93,0,0,0,.8-.58.9.9,0,0,0,.67.45l.05.07a1,1,0,0,0,.8.52c.66,0,.71-.7.89-3,0,0,0-.08,0-.12.13.35.31.57.66.57a1,1,0,0,0,.83-.65l.06-.11a.77.77,0,0,0,.53-.37,1.11,1.11,0,0,1,0,.17c.12.75.22,1.38.61,1.57a9.45,9.45,0,0,1,.17.94c.15,1,.26,1.74.88,1.74s.73-.48.85-.75l.07-.16c.51-.11.59-.82.74-2,0-.4.12-1,.19-1.24a.88.88,0,0,0,.38-.52c.16,1.51.24,2.19.87,2.19.45,0,.63-.36.75-.92.13.78.29,1.26.8,1.26s.72-.73.88-2.18c0-.18,0-.39.07-.6a.74.74,0,0,0,.6.31.68.68,0,0,0,.63-.45l0,.33c.17,1.78.24,2.52.89,2.52a2.3,2.3,0,0,0,.47,0l.3,0a.73.73,0,0,0,.67-.51c.15,1.19.25,1.9.88,1.9s.71-.68.88-2.94c0-.18,0-.38,0-.59a.67.67,0,0,0,.62.43c.48,0,.66-.44.78-1.06.1.42.24.75.53.85a4.39,4.39,0,0,1,.13.52c.12.51.25,1.09.67,1.22,0,.1.09.26.12.36.12.45.29,1.06.87,1.06s.61-.32.73-1.25c.14,2.24.25,2.65.82,2.65s.72-.7.88-1.87c0-.25.08-.6.13-.86a1.16,1.16,0,0,0,1.1-.05c0,.24.08.54.11.76.16,1.16.25,1.87.88,1.87s.71-.7.89-3.28a.22.22,0,0,1,0-.08c.12.4.3.62.66.62a1.74,1.74,0,0,1,.3,0,1,1,0,0,0,.4,0l.07.09a1,1,0,0,0,.78.44c.52,0,.69-.5.81-1.14a1,1,0,0,0,.51.66c0,.13.09.35.13.5.13.58.28,1.24.87,1.24s.73-.7.88-1.59a.84.84,0,0,0,.41.44c0,.19.12.57.16.81.14.9.26,1.6.88,1.6s.72-.44.84-.68l.06-.12c.51-.1.62-.79.76-1.72,0-.27.1-.7.16-.91a.9.9,0,0,0,.42-.29v0c.12.29.32.79.85.79s.71-.68.87-2.32c.13.39.32.63.68.63a.88.88,0,0,0,.58-.21c0,.2.07.42.1.59.13.9.23,1.58.71,1.7l.09.23c.12.32.31.86.86.86s.72-.73.88-2.17a11.82,11.82,0,0,1,.2-1.36c.34-.19.45-.7.56-1.22a1,1,0,0,0,.36.38c.08.37.16,1.3.22,1.94.17,2.08.23,2.78.88,2.78s.73-.46.84-.71l.07-.14c.52-.1.6-.84.75-2.31q0-.25.06-.54a.81.81,0,0,0,.31.3,12.26,12.26,0,0,1,.19,1.24c.16,1.32.25,2,.89,2s.71-.73.88-2.51c0-.11,0-.24,0-.38a.66.66,0,0,0,1.26,0c0,.16,0,.31,0,.45.17,2.27.22,3,.88,3s.74-.57.87-1c0,0,0,0,0-.06a.9.9,0,0,0,.67.32.74.74,0,0,0,.69-.53c.14.95.26,1.62.86,1.62s.7-.53.89-3.75v-.19c.12.4.3.62.65.62s.56-.27.69-.74c.13,1.67.21,2.35.62,2.51a4.27,4.27,0,0,1,.13.54c.14.63.28,1.28.88,1.28s.73-.69.88-1.58a.78.78,0,0,1,0-.14.76.76,0,0,0,.65.38c.65,0,.71-.73.88-2.66,0-.6.13-1.46.21-1.81l.19-.13c.06.63.11,1.5.15,2.21.19,3.2.24,3.73.89,3.73.49,0,.66-.44.79-1.1.12.57.3,1,.77,1s.74-.65.87-1.29c0-.16.09-.41.14-.54.4-.16.51-.73.63-1.44a.88.88,0,0,0,.41.46,10.06,10.06,0,0,1,.17,1c.16,1.09.26,1.81.89,1.81s.7-.66.88-3.13c.06-.76.14-1.87.23-2.29a1,1,0,0,0,.35-.4c.13.79.27,1.46.86,1.46a.66.66,0,0,0,.58-.34c0,.43.06.88.09,1.25.18,2.73.23,3.38.89,3.38s.68-.53.81-1.78c.12.7.3,1.05.75,1.05s.74-.57.86-.94l0,0a.84.84,0,0,0,.67.33c.56,0,.7-.56.83-1.51.13.45.32.75.73.75.57,0,.74-.62.87-1.07,0-.1.07-.26.11-.36a1,1,0,0,0,.45-.18.18.18,0,0,1,.13,0,.48.48,0,0,1,.22,0,1.67,1.67,0,0,0,.35.08c0,.11.08.28.11.39.13.51.29,1.13.87,1.13.06,0,.06,0,.13,0a1.06,1.06,0,0,0,.46.18,2.44,2.44,0,0,1,.1.33c.12.41.28.95.75,1a.75.75,0,0,1,.06.13c.12.23.34.67.84.67a1.26,1.26,0,0,0,.78-.3c.63,0,.73-.71.89-1.89a9.81,9.81,0,0,1,.17-1.06,1.28,1.28,0,0,0,.5-.28c.57,0,.74-.59.87-1,0-.09.07-.24.1-.33a.79.79,0,0,0,.47-.41s0,.06,0,.09c.15,1,.26,1.69.88,1.69a.76.76,0,0,0,.6-.27c0,.18.06.36.08.5.15,1,.29,1.74.82,1.73a.27.27,0,0,1,.07.08,1,1,0,0,0,.77.41.46.46,0,0,1,.21,0,1.21,1.21,0,0,0,.57.12.88.88,0,0,0,.69-.33v0c.12.39.31,1,.87,1s.69-.52.84-2.85c.09.64.22,1,.49,1.07,0,.13.1.38.13.54.14.63.29,1.28.88,1.28s.73-.7.89-2a.75.75,0,0,0,.69.57c.64,0,.72-.75.89-2.4a10.64,10.64,0,0,1,.24-1.67A.4.4,0,0,1,1431.85,519.67Z"/><path class="cls-1" d="M1370.6,533.47c-.56,0-.71.59-.84,1.39a.92.92,0,0,0-.5-.62,3.8,3.8,0,0,1-.13-.51c-.14-.58-.29-1.25-.88-1.25s-.74.69-.88,1.49c0,.12,0,.27-.08.41a.9.9,0,0,0-.6-.24l-.31,0a.6.6,0,0,0-.2,0c-.06-.26-.12-.72-.17-1-.15-1.17-.25-1.88-.88-1.88s-.71.7-.89,3.28c0,0,0,.07,0,.11-.12-.4-.31-.63-.66-.63a.94.94,0,0,0-.78.43l-.09,0a1.1,1.1,0,0,0-.69-.24c-.33,0-.52.19-.64.54l0-.47c-.19-3.21-.24-3.74-.88-3.74s-.71.7-.89,3c0,.31,0,.69-.08,1a.75.75,0,0,0-.36-.3c0-.13-.1-.36-.13-.51-.11-.49-.23-1-.62-1.2-.05-.18-.11-.51-.15-.73-.14-.8-.27-1.49-.88-1.49s-.69.5-.81,1.2c-.13-.42-.32-.74-.74-.74-.63,0-.7.64-.87,2.72-.12-.45-.31-.71-.68-.71-.59,0-.75.64-.88,1.16,0,.12-.07.3-.11.41l-.27,0h0c-.08-.37-.14-1.08-.19-1.59-.17-1.78-.24-2.52-.89-2.52s-.73.62-.86,1.19a.77.77,0,0,0-.69-.46c-.54,0-.68.52-.81,1.57-.12-.59-.31-.94-.74-.94s-.58.29-.71.74c-.14-1.32-.25-1.93-.84-1.93s-.74.67-.88,1.46a6.37,6.37,0,0,1-.16.69c-.41.18-.49.88-.63,2a10.57,10.57,0,0,1-.18,1.23.87.87,0,0,0-.33.27,2.4,2.4,0,0,0,0-.32c-.12-.84-.21-1.49-.61-1.68a8.62,8.62,0,0,1-.16-.85c-.14-.91-.26-1.63-.88-1.63s-.73.51-.85.82a1.08,1.08,0,0,0-.08.19.78.78,0,0,0-.45.28c0-.13,0-.27-.06-.38-.15-1-.26-1.68-.88-1.68s-.71.7-.89,3c0,.51-.09,1.18-.15,1.66a.89.89,0,0,0-.43-.17.56.56,0,0,0,0-.08,1,1,0,0,0-.81-.55.93.93,0,0,0-.81.6.91.91,0,0,0-.74-.41c-.36,0-.56.24-.68.58-.13-1.06-.21-1.69-.57-1.88a11.47,11.47,0,0,1-.19-1.15c-.15-1.22-.25-1.95-.88-1.95s-.73.72-.88,1.72c0,.26-.1.66-.16.89a1.25,1.25,0,0,0-.24,0l-.1,0a1.67,1.67,0,0,1-.08-.2c-.11-.32-.31-.87-.85-.87s-.72.74-.89,2.21c-.05.46-.12,1.11-.19,1.39a.87.87,0,0,0-.27.23c0-.3-.06-.61-.08-.88-.17-1.87-.24-2.58-.89-2.58a1.28,1.28,0,0,0-.57.13c0-.12-.07-.27-.1-.38-.13-.57-.28-1.21-.93-1.25a1,1,0,0,0-.72-.3c-.64,0-.71.69-.88,2.53a16.72,16.72,0,0,1-.21,1.7,1,1,0,0,0-.38.58c-.12-1-.22-1.61-.59-1.78a6.43,6.43,0,0,1-.16-.72c-.14-.81-.26-1.5-.87-1.5s-.73.73-.89,2.19c0,.3-.07.68-.12,1a1.15,1.15,0,0,0-.59-.24,1.08,1.08,0,0,0-.58-.29c0-.05-.05-.11-.07-.15-.12-.27-.33-.75-.85-.75l-.33,0-.22,0c0-.15-.09-.37-.12-.51-.14-.64-.28-1.3-.88-1.3s-.71.68-.88,2.72c-.06.62-.13,1.52-.22,1.88a1.14,1.14,0,0,0-.46.6,1,1,0,0,0-.42-.49c-.09-.45-.17-1.67-.23-2.52-.18-2.71-.22-3.36-.88-3.36a1.11,1.11,0,0,0-.78.36c-.61,0-.69.54-.85,2.74-.12-.62-.29-.9-.7-.9a.88.88,0,0,0-.78.61,1,1,0,0,0-.56-.54c0-.11-.08-.28-.11-.39-.13-.48-.3-1.09-.87-1.09s-.74.54-.86.87a2.18,2.18,0,0,1-.09.23c-.48.13-.56.82-.71,2.2a.77.77,0,0,0-.47-.52l-.1-.32c-.13-.43-.3-1-.87-1-.06,0-.06,0-.13,0a.91.91,0,0,0-.56-.15l-.07-.08a1,1,0,0,0-.78-.46,1.24,1.24,0,0,0-.61.15.33.33,0,0,1-.17,0c-.61,0-.73.69-.88,1.56a5.68,5.68,0,0,1-.15.76,1.05,1.05,0,0,0-.53.44s0,.05,0,.06a.69.69,0,0,0-.58.4c0-.19,0-.37,0-.53-.15-1.72-.22-2.47-.7-2.6,0-.08-.07-.19-.09-.27-.13-.37-.31-.92-.87-.92s-.7.62-.85,2.65c-.12-.52-.31-.79-.7-.79s-.57.26-.69.77c-.16-2.16-.23-2.76-.86-2.76s-.71.7-.88,2.24a12.62,12.62,0,0,1-.2,1.43,1.27,1.27,0,0,0-.46.86c-.1-.5-.26-.89-.61-1a1.8,1.8,0,0,1-.08-.21c-.12-.32-.32-.85-.86-.85h-.77a.69.69,0,0,0-.62.4c0-.14,0-.28,0-.41-.17-1.73-.24-2.45-.89-2.45s-.71.68-.88,2.7c0,.61-.13,1.51-.21,1.86a.87.87,0,0,0-.23.19c0-.46-.08-1-.11-1.43-.18-2.57-.22-3.26-.88-3.26-.49,0-.65.41-.77,1.35-.12-1-.28-1.4-.78-1.4s-.67.49-.8,1.41c-.12-.56-.3-.9-.74-.9-.62,0-.7.61-.86,2.58-.09-.35-.22-.59-.43-.68,0-.17-.11-.47-.15-.67-.14-.74-.27-1.44-.91-1.48a1,1,0,0,0-.74-.34c-.66,0-.71.68-.89,3.18,0,.33,0,.73-.08,1.11a.68.68,0,0,0-.58-.33.74.74,0,0,0-.63.37l0-.19c-.15-1-.26-1.65-.92-1.7a1.15,1.15,0,0,0-.55-.32c0-.08-.07-.19-.1-.27-.12-.38-.3-1-.86-1s-.73.72-.88,1.81c0,.2-.07.49-.12.72a.78.78,0,0,0-.39-.16,2,2,0,0,0-.08-.22c-.12-.31-.31-.85-.85-.85s-.73.71-.89,1.88l0,.24a.71.71,0,0,0-.63-.38.33.33,0,0,1-.17,0,1.27,1.27,0,0,0-.3-.11c-.08-.32-.14-1-.19-1.44-.17-1.58-.24-2.3-.89-2.3s-.73.69-.88,1.56a6.78,6.78,0,0,1-.15.78c-.38.17-.5.69-.61,1.17a3.76,3.76,0,0,1-.13.48.8.8,0,0,0-.39.28c0-.1,0-.19,0-.27-.15-.91-.26-1.62-.88-1.62a.91.91,0,0,1-1.54.17l-.1-.05a1,1,0,0,0-.67-.23c-.64,0-.73.73-.89,2.06,0,.21,0,.46-.08.69a.79.79,0,0,0-.3-.2c-.06-.22-.12-.66-.17-.93-.12-.84-.21-1.48-.6-1.68a8.55,8.55,0,0,1-.17-.9c-.15-1-.25-1.69-.88-1.69s-.72.74-.88,1.85c0,.32-.11.82-.17,1-.39.22-.47.93-.6,2.15,0,.19,0,.43-.07.65a.71.71,0,0,0-.59-.29.78.78,0,0,0-.68.43c-.1-.41-.23-.88-.57-1-.07-.23-.13-.71-.18-1-.15-1.09-.25-1.81-.88-1.81s-.72.7-.88,2.1c0,.41-.12,1-.19,1.27a1.1,1.1,0,0,0-.21.14c-.06-.56-.11-1.3-.14-1.87-.18-2.78-.23-3.44-.89-3.44s-.73.71-.88,1.6c0,.15,0,.33-.08.5a.88.88,0,0,0-.58-.22,1,1,0,0,0-.83.63.37.37,0,0,1,0,.11.72.72,0,0,0-.54.43.13.13,0,0,1,0-.06c-.14-1-.24-1.63-.72-1.74a1.8,1.8,0,0,1-.08-.21c-.12-.31-.32-.83-.85-.83s-.73.67-.87,1.45a.85.85,0,0,0-.48-.43,1.86,1.86,0,0,1-.1-.31c-.13-.42-.31-1-.87-1s-.71.66-.88,3.11a17.4,17.4,0,0,1-.27,2.4.42.42,0,0,1,.38-.21v1c.66,0,.7-.66.88-3.11,0-.36.06-.8.1-1.21a.66.66,0,0,0,.38.27c0,.08.07.19.09.27.13.37.31.93.86.93s.74-.69.88-1.5a.09.09,0,0,0,0-.05.84.84,0,0,0,.38.34c.06.22.13.67.17,1,.15,1.07.25,1.77.88,1.77s.74-.58.86-1c0-.09.07-.22.11-.31a1.09,1.09,0,0,0,.62-.59.88.88,0,0,0,.72.37.65.65,0,0,0,.62-.47c0,.21,0,.42,0,.6.18,2.77.22,3.43.88,3.43a1,1,0,0,0,.84-.7.83.83,0,0,1,.07-.13c.42-.08.55-.56.67-1.45.1.46.23.78.51.88,0,.12.09.31.12.44.13.52.29,1.16.87,1.16a.85.85,0,0,0,.76-.56.89.89,0,0,0,.78.63c.64,0,.73-.74.89-2.21,0-.46.12-1.12.19-1.4.27-.17.39-.58.49-1.15a1.21,1.21,0,0,0,.46.86,7.24,7.24,0,0,1,.17.94c.14.94.25,1.64.77,1.73l.06.11a.94.94,0,0,0,.82.64c.64,0,.73-.73.89-2.06,0-.32.08-.74.14-1a1.37,1.37,0,0,0,.53.17,1,1,0,0,0,.76.39.81.81,0,0,0,.59-.25c0,.15,0,.3.07.42.15.91.26,1.62.88,1.62s.72-.45.84-.69l.06-.14c.48-.09.62-.68.74-1.21,0-.14.09-.35.13-.48a.84.84,0,0,0,.46-.6c.15,1.41.25,2.06.86,2.06a.25.25,0,0,1,.17,0,1.49,1.49,0,0,0,.42.13,2.34,2.34,0,0,1,.09.24c.12.37.31.92.86.92s.73-.71.88-1.88c0-.09,0-.2,0-.31a.84.84,0,0,0,.65.4.94.94,0,0,0,.74.36c.63,0,.73-.72.89-1.81a.77.77,0,0,1,0-.15.81.81,0,0,0,.68.45,1.06,1.06,0,0,0,.47.31,8.4,8.4,0,0,1,.16.84c.15,1,.26,1.65.88,1.65a.8.8,0,0,0,.71-.5c.13.47.31,1,.84,1s.7-.67.88-3.18c0-.62.11-1.47.18-2a.67.67,0,0,0,.24.1c0,.17.1.46.14.65.11.6.22,1.18.58,1.37a11,11,0,0,1,.19,1.15c.15,1.22.24,2,.88,2s.7-.66.88-2.83c.12.39.31.61.66.61s.61-.32.73-.93c.13,1.24.26,1.77.82,1.77s.58-.29.7-.94c.15,2,.24,2.58.84,2.58s.74-.56.86-.93c0-.08.06-.19.1-.27.38-.1.5-.59.61-1.68.11.84.28,1.21.75,1.21s.74-.64.87-1.15l.1-.38h.41a1.67,1.67,0,0,1,.08.2,1.26,1.26,0,0,0,.59.8,7,7,0,0,1,.16.75c.14.83.26,1.54.88,1.54s.73-.7.88-1.51c0-.21.1-.55.15-.73.23-.1.35-.37.44-.81.15,2,.24,2.59.85,2.59s.65-.42.78-1.26c.12.8.29,1.22.77,1.22.66,0,.71-.7.89-3,0-.37.06-.82.1-1.23a.83.83,0,0,0,.24.21c.08.34.16,1.2.21,1.79.17,1.91.23,2.62.88,2.62s.75-.65.88-1.17a3.17,3.17,0,0,1,.12-.44,1,1,0,0,0,.57-.45s0-.05,0-.06c.58,0,.7-.71.84-1.56,0-.21.09-.55.15-.74a1.27,1.27,0,0,0,.35-.12c.07,0,.09,0,.08-.07a.29.29,0,0,1,.07.08,1,1,0,0,0,.79.46.22.22,0,0,1,.14,0,1,1,0,0,0,.44.16c0,.09.07.22.1.31.11.36.25.83.62,1a5.27,5.27,0,0,1,.14.6c.14.67.28,1.36.88,1.36s.72-.7.88-2.24a12.75,12.75,0,0,1,.2-1.42.94.94,0,0,0,.42-.48c.11.4.28.83.68.9l.07.15c.11.26.33.74.85.74a.75.75,0,0,0,.57-.28c0,.29.06.6.09.85.17,1.69.24,2.38.88,2.38s.71-.64.89-3.32c.06-.81.14-2,.23-2.44a.61.61,0,0,0,.14-.07c.07.57.14,1.51.18,2.2.17,2.49.22,3.24.74,3.35l.07.18c.12.29.33.79.85.79s.74-.54.86-.86l.09-.22c.49-.12.56-.85.71-2.7,0-.13,0-.28,0-.43a.69.69,0,0,0,.63.43l.33,0,.3,0s.05.11.07.15a1.1,1.1,0,0,0,.9.8.82.82,0,0,0,.64.27.31.31,0,0,1,.07.09,1,1,0,0,0,.78.44c.61,0,.71-.65.86-2a1,1,0,0,0,.39.57c.07.26.14.87.19,1.29.16,1.4.25,2.1.88,2.1s.74-.69.88-1.49a6.24,6.24,0,0,1,.16-.71c.41-.19.48-.92.62-2.48,0-.43.1-1,.16-1.42a1,1,0,0,0,.29.12c0,.12.09.32.12.46.13.56.28,1.2.87,1.2a1.35,1.35,0,0,0,.48-.08c.07.4.14,1.08.18,1.57.17,1.88.24,2.58.88,2.58s.74-.54.86-.87c0-.07.06-.17.09-.23.48-.14.56-.87.71-2.2,0-.17,0-.37.06-.56a.71.71,0,0,0,.6.32,1.81,1.81,0,0,0,.51-.07.88.88,0,0,1,.26,0c.44,0,.62-.35.74-.91.1.66.21,1.11.5,1.27.07.27.14.88.19,1.3.17,1.39.25,2.1.88,2.1s.74-.67.88-1.38l.06-.27a.85.85,0,0,0,.61.26.79.79,0,0,1,1.48-.13l0,.07a1,1,0,0,0,.8.52c.66,0,.71-.7.89-3a.53.53,0,0,1,0-.13c.12.35.31.57.65.57a1,1,0,0,0,.83-.65.67.67,0,0,1,.07-.11.77.77,0,0,0,.52-.37,1.11,1.11,0,0,1,0,.17c.12.75.22,1.37.6,1.57a9.29,9.29,0,0,1,.18.94c.14,1,.25,1.74.88,1.74s.73-.48.84-.75l.08-.16c.51-.11.59-.82.74-2a10.26,10.26,0,0,1,.19-1.24.88.88,0,0,0,.38-.53c.16,1.51.24,2.2.87,2.2.45,0,.63-.36.76-.93.12.79.28,1.27.8,1.27s.72-.73.88-2.18c0-.18,0-.39.07-.6a.73.73,0,0,0,.6.31.69.69,0,0,0,.63-.45l0,.33c.17,1.78.24,2.52.89,2.52a2.33,2.33,0,0,0,.48,0l.3,0a.74.74,0,0,0,.67-.52c.16,1.19.25,1.91.88,1.91s.71-.68.89-3c0-.18,0-.38,0-.59a.67.67,0,0,0,.62.44c.49,0,.66-.44.78-1.06.11.42.25.75.53.85a4.39,4.39,0,0,1,.13.52c.12.51.25,1.09.68,1.22,0,.1.08.26.11.36.13.45.3,1.06.87,1.06s.62-.32.73-1.26c.15,2.25.26,2.66.82,2.66s.73-.7.89-1.87c0-.25.08-.6.13-.86a1.06,1.06,0,0,0,.54.14.84.84,0,0,0,.56-.19c0,.24.08.54.11.76.16,1.12.26,1.87.89,1.87s.71-.7.89-3.28v-.09c.13.41.31.63.67.63a1.63,1.63,0,0,1,.3,0,1.28,1.28,0,0,0,.4,0,.27.27,0,0,1,.07.08,1,1,0,0,0,.79.44c.52,0,.69-.51.82-1.16a1,1,0,0,0,.52.68c0,.13.09.35.13.5.13.58.28,1.24.88,1.24s.74-.72.88-1.64a5.39,5.39,0,0,1,.21-.94.38.38,0,0,1-.31.15Z"/><path class="cls-1" d="M1304.55,547.17a4.94,4.94,0,0,1-.13-.52c-.14-.63-.28-1.29-.88-1.29s-.72.68-.89,2.72a16.91,16.91,0,0,1-.22,1.88,1.1,1.1,0,0,0-.47.61,1.07,1.07,0,0,0-.42-.5c-.1-.45-.18-1.67-.24-2.51-.18-2.72-.22-3.37-.88-3.37a1.07,1.07,0,0,0-.78.36c-.62,0-.7.55-.86,2.76-.11-.64-.29-.92-.7-.92a.9.9,0,0,0-.79.61,1,1,0,0,0-.57-.54l-.11-.39c-.13-.48-.29-1.09-.87-1.09s-.74.54-.86.87a2.18,2.18,0,0,1-.09.23c-.48.13-.56.83-.71,2.21a.85.85,0,0,0-.48-.53l-.1-.32c-.13-.43-.3-1-.87-1-.06,0-.06,0-.14,0a.92.92,0,0,0-.55-.15l-.07-.08a1,1,0,0,0-.79-.46,1.23,1.23,0,0,0-.6.15.35.35,0,0,1-.17,0c-.62,0-.74.69-.89,1.56a5.68,5.68,0,0,1-.15.76,1.13,1.13,0,0,0-.54.44s0,.05,0,.06a.68.68,0,0,0-.58.41c0-.19,0-.38-.05-.55-.15-1.71-.22-2.46-.7-2.6a2,2,0,0,1-.1-.26c-.12-.37-.31-.92-.86-.92s-.7.62-.86,2.66c-.12-.52-.3-.8-.69-.8s-.57.26-.69.78c-.16-2.17-.24-2.77-.86-2.77s-.72.7-.89,2.24a12.62,12.62,0,0,1-.2,1.43,1.28,1.28,0,0,0-.47.87c-.1-.51-.26-.9-.61-1,0-.06-.06-.15-.09-.21-.11-.32-.31-.85-.85-.85h-.78a.68.68,0,0,0-.62.41c0-.15,0-.29,0-.42-.17-1.73-.24-2.45-.89-2.45s-.71.68-.88,2.7a16.48,16.48,0,0,1-.22,1.86.7.7,0,0,0-.22.2c0-.47-.08-1-.11-1.44-.18-2.57-.23-3.26-.89-3.26-.49,0-.65.41-.77,1.38-.13-1-.28-1.43-.78-1.43s-.68.5-.81,1.43c-.12-.57-.3-.92-.74-.92-.63,0-.71.61-.86,2.58-.1-.35-.22-.59-.44-.68-.05-.17-.11-.47-.15-.67-.14-.74-.27-1.44-.91-1.48a1,1,0,0,0-.74-.34c-.65,0-.7.68-.88,3.18,0,.33,0,.73-.08,1.1a.67.67,0,0,0-.58-.32.75.75,0,0,0-.63.36l0-.18c-.15-1-.26-1.65-.91-1.69a1.07,1.07,0,0,0-.56-.33,2.14,2.14,0,0,1-.09-.27c-.12-.38-.31-1-.86-1s-.73.72-.88,1.81c0,.2-.07.49-.12.72a.78.78,0,0,0-.38-.16l-.09-.22c-.11-.31-.31-.85-.85-.85s-.73.71-.89,1.88l0,.24a.72.72,0,0,0-.63-.38.29.29,0,0,1-.18,0,1.73,1.73,0,0,0-.3-.1c-.07-.32-.14-1-.19-1.44-.16-1.58-.24-2.3-.88-2.3s-.74.69-.88,1.56a6.67,6.67,0,0,1-.16.78c-.38.17-.5.69-.61,1.17,0,.14-.08.35-.12.48a.79.79,0,0,0-.4.28c0-.1,0-.19-.05-.28-.14-.9-.26-1.61-.88-1.61a.94.94,0,0,0-.8.53h0a1,1,0,0,0-.74-.36l-.1-.05a1,1,0,0,0-.68-.23c-.64,0-.72.73-.88,2.06,0,.21-.06.46-.09.69a.77.77,0,0,0-.58-.25v1a.23.23,0,0,1-.15-.06,1.12,1.12,0,0,1,.1.16.94.94,0,0,0,.83.64c.63,0,.72-.73.88-2.06,0-.32.09-.74.14-1a1.69,1.69,0,0,0,.54.18,1,1,0,0,0,.76.38.81.81,0,0,0,.59-.25c0,.15.06.3.08.42.14.91.26,1.62.88,1.62s.72-.45.84-.69l.06-.14c.49-.09.62-.68.75-1.21,0-.14.08-.35.12-.48a.82.82,0,0,0,.46-.61c.15,1.42.25,2.07.86,2.07a.39.39,0,0,1,.18,0,1.49,1.49,0,0,0,.42.13,2.34,2.34,0,0,1,.09.24c.12.37.31.92.86.92s.73-.71.88-1.88c0-.09,0-.2,0-.31a.83.83,0,0,0,.64.4,1,1,0,0,0,.75.36c.63,0,.73-.72.89-1.81a.77.77,0,0,1,0-.15.81.81,0,0,0,.67.45,1,1,0,0,0,.47.3c.06.21.12.6.16.85.15,1,.26,1.65.88,1.65a.79.79,0,0,0,.71-.49c.13.46.31,1,.83,1s.71-.68.89-3.18c0-.62.1-1.47.17-2a.87.87,0,0,0,.24.1c0,.17.1.46.14.65.11.6.22,1.18.59,1.37.06.24.13.78.18,1.15.15,1.22.25,2,.88,2s.71-.66.88-2.84c.13.39.31.62.67.62s.61-.33.73-1c.14,1.26.27,1.8.82,1.8s.6-.3.72-1c.14,2,.24,2.6.84,2.6s.74-.56.86-.93c0-.08.06-.19.09-.27.39-.1.51-.59.62-1.69.12.85.28,1.22.75,1.22s.74-.64.87-1.15c0-.11.07-.27.11-.38h.41a1.67,1.67,0,0,1,.08.2,1.22,1.22,0,0,0,.59.8,7,7,0,0,1,.16.75c.14.83.26,1.54.88,1.54s.74-.7.88-1.51a7.17,7.17,0,0,1,.16-.73c.23-.1.35-.37.44-.82.15,2,.24,2.6.85,2.6s.66-.42.78-1.26c.12.8.29,1.22.77,1.22.66,0,.71-.7.89-3,0-.37.06-.82.1-1.24a1,1,0,0,0,.24.22,17.57,17.57,0,0,1,.22,1.78c.17,1.92.23,2.63.89,2.63s.74-.65.87-1.17c0-.13.08-.32.12-.44a1,1,0,0,0,.57-.45s0-.05,0-.06c.58,0,.7-.7.84-1.55,0-.22.1-.56.15-.75a1.27,1.27,0,0,0,.35-.12c.08,0,.09,0,.09-.07a.29.29,0,0,1,.07.08,1,1,0,0,0,.79.46.22.22,0,0,1,.14,0,1,1,0,0,0,.44.16c0,.09.07.23.1.31.11.36.25.83.62,1a5.84,5.84,0,0,1,.15.6c.13.67.27,1.36.88,1.36s.71-.7.88-2.24a13.1,13.1,0,0,1,.2-1.42.94.94,0,0,0,.42-.48c.12.4.28.83.69.9l.07.16c.11.25.33.73.85.73a.77.77,0,0,0,.58-.28c0,.28.06.59.09.85.16,1.63.24,2.38.88,2.38s.71-.64.89-3.32c.06-.81.14-2,.23-2.44a.52.52,0,0,0,.15-.07c.08.57.14,1.51.19,2.2.16,2.5.21,3.25.73,3.35a1.42,1.42,0,0,1,.08.18c.12.29.32.79.85.79s.75-.54.86-.86c0-.06.06-.15.09-.22.5-.11.56-.85.73-2.7,0-.14,0-.3,0-.46a.68.68,0,0,0,.63.46l.34,0a3.79,3.79,0,0,0,.45,0v-1l-.34,0Z"/><path class="cls-1" d="M1260.87,591.17c.64,0,.72-.73.88-2.06,0-.31.09-.73.14-1a1.37,1.37,0,0,0,.52.17,1,1,0,0,0,.76.39.83.83,0,0,0,.59-.25c0,.15,0,.3.07.42.14.91.26,1.62.87,1.62a1,1,0,0,0,.84-.7.83.83,0,0,1,.07-.13c.48-.09.61-.68.73-1.21a3.76,3.76,0,0,1,.13-.48.84.84,0,0,0,.45-.59c.15,1.4.25,2,.85,2a.25.25,0,0,1,.17,0,1.49,1.49,0,0,0,.42.13,2.34,2.34,0,0,1,.09.24c.12.37.3.92.86.92s.72-.71.88-1.88c0-.09,0-.19,0-.3a.82.82,0,0,0,.63.39,1,1,0,0,0,.75.36c.62,0,.72-.72.87-1.81a.68.68,0,0,0,0-.14.82.82,0,0,0,.67.44,1,1,0,0,0,.47.3c.06.21.12.6.16.85.15,1,.25,1.65.87,1.65a.79.79,0,0,0,.71-.49c.12.46.31,1,.83,1s.7-.68.88-3.18c.05-.62.11-1.46.17-2a1.34,1.34,0,0,0,.24.09c0,.17.1.46.14.65.11.6.22,1.17.58,1.37a11.26,11.26,0,0,1,.18,1.15c.15,1.22.25,2,.88,2s.71-.65.88-2.82c.12.38.3.6.66.6s.6-.32.72-.92c.13,1.23.26,1.76.81,1.76s.59-.29.71-.93c.14,2,.24,2.57.83,2.57s.74-.56.86-.93c0-.08.06-.19.1-.27.38-.1.49-.58.6-1.67.12.83.29,1.2.75,1.2s.74-.64.87-1.15c0-.11.07-.27.11-.38h.4c0,.06.06.14.08.19a1.22,1.22,0,0,0,.59.81,5.23,5.23,0,0,1,.15.75c.15.83.27,1.54.88,1.54s.74-.7.88-1.51a7.17,7.17,0,0,1,.16-.73c.22-.1.35-.36.43-.8.15,2,.24,2.58.85,2.58s.65-.42.77-1.25c.13.79.29,1.21.78,1.21.65,0,.71-.7.88-3,0-.37.06-.82.1-1.23a.78.78,0,0,0,.24.2c.08.35.16,1.21.21,1.8.17,1.91.23,2.62.88,2.62s.75-.65.88-1.17a3.17,3.17,0,0,1,.12-.44,1,1,0,0,0,.57-.45s0-.05,0-.06c.58,0,.7-.71.84-1.56,0-.21.09-.55.15-.74a1.4,1.4,0,0,0,.35-.12c.07,0,.09,0,.08-.07l.07.08a1,1,0,0,0,.79.46.18.18,0,0,1,.13,0,1.1,1.1,0,0,0,.44.16,1.86,1.86,0,0,1,.1.31c.11.36.25.83.62,1a5.27,5.27,0,0,1,.14.6c.14.7.28,1.36.88,1.36s.72-.7.88-2.24a12.75,12.75,0,0,1,.2-1.42,1,1,0,0,0,.41-.47c.12.4.28.81.68.89l.07.15c.11.26.32.74.84.74a.73.73,0,0,0,.57-.27c0,.28.06.59.09.84.17,1.68.23,2.38.88,2.38s.7-.64.88-3.31c.06-.81.14-2,.23-2.45l.14-.06c.07.56.13,1.5.18,2.19.16,2.49.21,3.24.73,3.35l.07.18c.12.29.32.79.85.79s.74-.54.85-.86l.09-.22c.49-.12.56-.86.71-2.7,0-.13,0-.28,0-.43a.66.66,0,0,0,.62.43l.33,0,.3,0,.07.15a1.1,1.1,0,0,0,.89.8.89.89,0,0,0,.64.27.31.31,0,0,1,.07.09,1,1,0,0,0,.78.44c.6,0,.71-.65.85-2a1,1,0,0,0,.39.56c.07.26.14.87.19,1.29.16,1.4.24,2.1.88,2.1s.73-.69.88-1.49a6.3,6.3,0,0,1,.15-.71c.41-.19.48-.92.62-2.48,0-.43.1-1,.16-1.41a1.49,1.49,0,0,0,.28.11c0,.12.09.32.12.46.14.56.29,1.2.88,1.2a1.39,1.39,0,0,0,.48-.08c.07.4.13,1.08.18,1.58.17,1.87.23,2.57.88,2.57s.74-.54.86-.87a1.57,1.57,0,0,1,.09-.23c.48-.14.56-.87.71-2.2,0-.17,0-.37.06-.57a.7.7,0,0,0,.6.33,1.75,1.75,0,0,0,.51-.07.88.88,0,0,1,.26,0c.44,0,.63-.36.75-.92.1.67.21,1.11.5,1.28.07.27.14.87.19,1.3.16,1.39.25,2.1.88,2.1s.74-.67.88-1.38l.06-.27a.85.85,0,0,0,.61.26.93.93,0,0,0,.8-.58.9.9,0,0,0,.67.45l.05.07a1,1,0,0,0,.8.52c.66,0,.71-.7.88-3a.41.41,0,0,0,0-.11c.13.35.31.56.65.56a1,1,0,0,0,.83-.65.67.67,0,0,1,.07-.11.77.77,0,0,0,.51-.36l0,.16c.12.75.22,1.37.6,1.57a9.45,9.45,0,0,1,.17.94c.15,1,.25,1.74.88,1.74s.73-.49.84-.75l.08-.16c.5-.11.59-.82.73-2,0-.4.12-1,.19-1.24a.89.89,0,0,0,.38-.51c.15,1.5.24,2.18.87,2.18.44,0,.62-.35.74-.91.13.79.29,1.25.8,1.25s.72-.73.88-2.18c0-.18.05-.39.07-.6a.71.71,0,0,0,.6.31.68.68,0,0,0,.63-.45l0,.33c.16,1.78.23,2.52.88,2.52a2.33,2.33,0,0,0,.48,0l.29,0a.72.72,0,0,0,.67-.51c.16,1.19.25,1.9.88,1.9s.71-.68.89-3c0-.17,0-.38,0-.58a.66.66,0,0,0,.61.43c.49,0,.67-.44.79-1.06.1.42.24.74.53.85,0,.14.1.37.13.52.11.51.24,1.09.67,1.22,0,.1.08.26.11.36.12.45.29,1.06.87,1.06s.61-.32.73-1.24c.14,2.23.25,2.64.81,2.64s.73-.7.88-1.87c0-.24.09-.6.14-.86a1.15,1.15,0,0,0,1.08-.05c0,.25.08.54.11.76.16,1.16.25,1.87.88,1.87s.71-.7.89-3.28v-.07c.13.4.31.61.66.61a1.63,1.63,0,0,1,.3,0,1.05,1.05,0,0,0,.4,0l.07.09a1,1,0,0,0,.78.44c.52,0,.69-.5.81-1.14a1,1,0,0,0,.51.66c0,.13.09.35.13.5.13.58.28,1.24.87,1.24s.73-.7.88-1.59a.84.84,0,0,0,.41.44c.05.19.12.57.16.81.14.9.26,1.6.88,1.6a1,1,0,0,0,.83-.68l.07-.12c.51-.1.61-.79.75-1.72,0-.27.11-.7.17-.91a.93.93,0,0,0,.41-.28h0c.12.3.32.8.85.8s.71-.68.87-2.31c.13.38.32.62.68.62a.82.82,0,0,0,.57-.21c0,.2.07.42.09.59.14.9.24,1.58.71,1.7a2.18,2.18,0,0,1,.09.23c.12.32.31.86.86.86s.72-.73.88-2.17a11.49,11.49,0,0,1,.2-1.36c.34-.19.45-.7.56-1.21a1,1,0,0,0,.35.37,17.94,17.94,0,0,1,.22,1.94c.17,2.08.23,2.78.89,2.78.51,0,.72-.46.84-.71l.06-.14c.52-.1.6-.84.75-2.31,0-.16,0-.35.06-.53a.83.83,0,0,0,.3.29c.07.26.14.83.19,1.23.16,1.33.25,2.05.88,2.05s.72-.73.89-2.51c0-.11,0-.24,0-.37a.68.68,0,0,0,.62.43.68.68,0,0,0,.63-.46l0,.43c.18,2.27.23,3,.89,3s.74-.57.86-1c0,0,0,0,0,0a.87.87,0,0,0,.67.31.74.74,0,0,0,.68-.53c.14.95.26,1.62.87,1.62s.69-.53.88-3.75v-.2c.12.41.31.63.66.63s.57-.27.69-.75c.13,1.68.21,2.36.62,2.52.05.14.1.38.14.54.13.63.28,1.28.87,1.28s.74-.69.88-1.58l0-.14a.75.75,0,0,0,.64.38c.65,0,.72-.73.89-2.66a16,16,0,0,1,.21-1.81.83.83,0,0,0,.18-.13c.06.63.11,1.5.16,2.21.19,3.2.24,3.73.88,3.73.49,0,.66-.44.79-1.1.12.57.3,1,.76,1s.74-.65.88-1.29c0-.16.09-.41.14-.54.4-.16.51-.73.63-1.44a.87.87,0,0,0,.4.46,9.86,9.86,0,0,1,.18,1c.15,1.09.25,1.81.88,1.81s.71-.66.89-3.13c0-.76.13-1.87.22-2.29a.88.88,0,0,0,.35-.41c.14.8.27,1.47.87,1.47a.66.66,0,0,0,.58-.34c0,.43.06.88.08,1.25.19,2.73.23,3.38.89,3.38s.69-.53.82-1.76c.12.68.29,1,.74,1s.74-.57.86-.94v0a.88.88,0,0,0,.68.32c.55,0,.69-.56.82-1.5.13.44.32.74.72.74.58,0,.75-.62.88-1.07l.1-.36a1.12,1.12,0,0,0,.46-.18c.07,0,.07,0,.12,0a.53.53,0,0,1,.23,0,2.16,2.16,0,0,0,.34.08c0,.11.08.28.11.39.13.5.29,1.13.87,1.13,0,0,0,0,.13,0a1,1,0,0,0,.46.18l.1.33c.12.4.27.95.75,1l.06.13a1,1,0,0,0,.84.67,1.29,1.29,0,0,0,.78-.3c.63,0,.73-.71.89-1.89a9.23,9.23,0,0,1,.17-1.05,1.43,1.43,0,0,0,.5-.29c.57,0,.74-.59.87-1l.1-.33a.77.77,0,0,0,.47-.41s0,.06,0,.09c.15,1,.26,1.69.88,1.69a.83.83,0,0,0,.61-.27c0,.17,0,.36.08.5.15,1,.25,1.76.88,1.76v-1a.36.36,0,0,1,.31.15,7.66,7.66,0,0,1-.21-1c-.15-1-.26-1.76-.88-1.76a.79.79,0,0,0-.61.28c0-.16-.06-.32-.08-.45-.15-1-.26-1.69-.88-1.69s-.74.56-.87.94c0,.08-.06.19-.09.27-.43.11-.58.62-.69,1,0,.1-.07.23-.11.33a1.28,1.28,0,0,0-.58.3c-.63,0-.73.71-.89,1.89a9.43,9.43,0,0,1-.17,1.06,1.31,1.31,0,0,0-.41.2l0-.06a1.1,1.1,0,0,0-.64-.65,3.38,3.38,0,0,1-.11-.34c-.12-.43-.3-1-.87-1,0,0,0,0-.12,0a1.15,1.15,0,0,0-.45-.18c0-.11-.08-.28-.11-.4-.13-.5-.29-1.13-.87-1.13a.53.53,0,0,1-.23,0,1.49,1.49,0,0,0-.55-.09,1.16,1.16,0,0,0-.65.19c-.08.05-.08.05-.13.05a.77.77,0,0,0-.7.56c-.13-.73-.28-1.33-.85-1.33s-.73.71-.88,1.9c0,.2-.07.48-.11.71a.84.84,0,0,0-.56-.21.72.72,0,0,0-.62.37c0-.15,0-.3,0-.42-.16-1.43-.24-2.14-.88-2.14-.42,0-.6.3-.71,1-.15-2.15-.24-2.69-.84-2.69-.39,0-.59.27-.72.6-.13-.73-.28-1.32-.84-1.32s-.74.57-.87,1a1.6,1.6,0,0,1-.1.31c-.48.15-.53.91-.69,3.11v.05a.83.83,0,0,0-.46-.59,3.38,3.38,0,0,1-.11-.34c-.13-.43-.3-1-.87-1s-.74.69-.88,1.57a7.86,7.86,0,0,1-.16.79,1,1,0,0,0-.47.64c-.12-.73-.28-1.27-.82-1.27a.64.64,0,0,0-.62.47c0-.26,0-.51,0-.75-.19-3.2-.24-3.73-.88-3.73a1,1,0,0,0-.84.67l-.06.12c-.54.09-.6.84-.76,2.64,0,.31-.06.69-.1,1a.69.69,0,0,0-.56-.27c-.54,0-.7.52-.82,1.23a1.1,1.1,0,0,0-.4-.6,19.53,19.53,0,0,1-.22-2c-.18-2.22-.23-2.88-.89-2.88-.47,0-.64.4-.76,1.1-.13-.85-.29-1.31-.79-1.31-.65,0-.7.54-.89,3.75,0,.23,0,.47,0,.71a.66.66,0,0,0-.62-.49c-.58,0-.74.63-.87,1.13l0,.13a.87.87,0,0,0-.64-.28.69.69,0,0,0-.57.29c0-.37-.07-.78-.09-1.12-.18-2.27-.23-2.95-.89-2.95-.51,0-.68.49-.8,1.09-.13-.38-.33-.69-.74-.69s-.68.54-.81,1.82c-.1-.5-.25-.81-.54-.9l-.1-.3c-.12-.39-.3-1-.86-1s-.72.73-.88,2.32c0,.49-.13,1.19-.2,1.5a.81.81,0,0,0-.24.17c0-.41-.08-.89-.11-1.26-.16-1.89-.22-2.64-.72-2.77l-.09-.21c-.11-.31-.31-.84-.85-.84s-.74.68-.88,1.34c0,.17-.09.43-.14.58-.42.18-.5.89-.64,2.13,0,.16,0,.35-.06.54a.79.79,0,0,0-.33-.27c-.06-.22-.13-.65-.17-.93-.15-1-.25-1.72-.88-1.72a.88.88,0,0,0-.58.22c0-.16-.06-.34-.08-.47-.15-.88-.27-1.58-.88-1.58s-.72.72-.89,2.46c0,.26-.06.57-.09.87a.7.7,0,0,0-.57-.28,1,1,0,0,0-.77.41s0,0,0,.06c-.62,0-.73.73-.88,1.72,0,.28-.1.71-.16.93a.77.77,0,0,0-.35.26c0-.1,0-.2,0-.28-.13-.79-.23-1.43-.68-1.57a3.37,3.37,0,0,1-.1-.34c-.13-.43-.3-1-.87-1s-.71.58-.84,1.36a.91.91,0,0,0-.48-.59,3.8,3.8,0,0,1-.13-.51c-.13-.58-.28-1.25-.88-1.25s-.73.7-.88,1.49c0,.12,0,.26-.07.4a.84.84,0,0,0-.59-.23,2.05,2.05,0,0,1-.31,0,.58.58,0,0,0-.19,0,9.62,9.62,0,0,1-.17-1c-.16-1.17-.25-1.88-.88-1.88s-.71.7-.89,3.28v.08c-.12-.39-.31-.6-.66-.6a1.44,1.44,0,0,0-.86.39,1,1,0,0,0-.68-.24c-.33,0-.51.18-.64.53,0-.16,0-.31,0-.46-.19-3.21-.24-3.74-.89-3.74s-.71.7-.88,3c0,.32-.06.69-.09,1a.74.74,0,0,0-.34-.29,3.8,3.8,0,0,1-.13-.51c-.11-.49-.24-1-.62-1.2a5,5,0,0,1-.15-.73c-.15-.8-.27-1.49-.88-1.49s-.69.5-.82,1.2c-.12-.42-.32-.74-.73-.74-.63,0-.71.64-.87,2.72-.12-.46-.31-.71-.68-.71-.59,0-.74.64-.87,1.16,0,.12-.08.3-.12.41l-.26,0h0c-.07-.38-.14-1.08-.19-1.59-.16-1.78-.23-2.52-.88-2.52s-.73.62-.86,1.19a.77.77,0,0,0-.69-.46c-.54,0-.68.52-.81,1.55-.12-.57-.3-.92-.73-.92s-.58.28-.7.73c-.14-1.32-.26-1.92-.85-1.92s-.73.67-.87,1.46c0,.2-.1.52-.15.69-.41.19-.5.88-.63,2,0,.4-.12,1-.18,1.23a.75.75,0,0,0-.32.26c0-.11,0-.22,0-.31-.12-.84-.22-1.49-.61-1.68a8.62,8.62,0,0,1-.16-.85c-.15-.91-.26-1.63-.88-1.63s-.74.51-.86.82l-.07.19a.78.78,0,0,0-.45.28c0-.14,0-.27-.06-.37-.15-1-.26-1.69-.88-1.69s-.71.7-.88,3c0,.5-.09,1.17-.15,1.66a.89.89,0,0,0-.42-.17l0-.08a1,1,0,0,0-.82-.55.92.92,0,0,0-.8.6.88.88,0,0,0-.74-.41c-.36,0-.56.24-.68.58-.13-1.06-.21-1.69-.58-1.88-.07-.25-.13-.78-.18-1.15-.16-1.22-.25-1.95-.88-1.95s-.73.72-.88,1.72c0,.26-.1.66-.16.89l-.25,0-.1,0a1.67,1.67,0,0,1-.08-.2c-.11-.32-.31-.87-.85-.87s-.73.74-.89,2.21c0,.46-.12,1.11-.19,1.39a.87.87,0,0,0-.27.23c0-.3-.06-.61-.09-.87-.17-1.88-.23-2.59-.88-2.59a1.33,1.33,0,0,0-.58.13c0-.12-.07-.27-.09-.38-.14-.57-.29-1.21-.93-1.25a1,1,0,0,0-.72-.3c-.65,0-.71.69-.88,2.53a16.72,16.72,0,0,1-.21,1.7,1,1,0,0,0-.37.57c-.12-1-.22-1.6-.59-1.77a4.81,4.81,0,0,1-.15-.72c-.15-.81-.27-1.5-.88-1.5s-.72.73-.88,2.19c0,.3-.08.68-.12,1a1.24,1.24,0,0,0-.59-.23,1,1,0,0,0-.58-.29l-.07-.15c-.11-.27-.32-.75-.84-.75a2.27,2.27,0,0,1-.33,0l-.21,0c-.05-.15-.1-.37-.13-.51-.13-.64-.27-1.3-.87-1.3s-.71.69-.88,2.72c-.06.62-.13,1.52-.22,1.88a1.14,1.14,0,0,0-.46.6,1,1,0,0,0-.4-.49c-.1-.45-.18-1.67-.24-2.51-.18-2.72-.22-3.37-.88-3.37a1.06,1.06,0,0,0-.77.36c-.61,0-.69.54-.84,2.71-.12-.6-.3-.87-.7-.87a.89.89,0,0,0-.78.6.93.93,0,0,0-.55-.53c0-.11-.08-.28-.11-.39-.13-.48-.29-1.09-.87-1.09s-.74.55-.86.87a2.09,2.09,0,0,1-.08.23c-.48.13-.56.82-.71,2.19a.79.79,0,0,0-.46-.51c0-.09-.08-.23-.11-.32-.12-.43-.3-1-.86-1-.06,0-.07,0-.14,0a.9.9,0,0,0-.55-.15l-.07-.08a1,1,0,0,0-.79-.46,1.23,1.23,0,0,0-.6.15.33.33,0,0,1-.17,0c-.61,0-.73.69-.88,1.56,0,.22-.09.57-.15.76a1.05,1.05,0,0,0-.53.44s0,.05,0,.06a.69.69,0,0,0-.57.4c0-.19,0-.37,0-.53-.16-1.72-.22-2.47-.71-2.6,0-.08-.06-.19-.09-.27-.12-.37-.31-.92-.86-.92s-.7.62-.86,2.65c-.12-.52-.3-.79-.69-.79s-.56.25-.68.76c-.16-2.15-.24-2.75-.86-2.75s-.72.7-.89,2.24c0,.47-.12,1.14-.19,1.43a1.23,1.23,0,0,0-.46.85c-.11-.49-.26-.88-.61-1a1.8,1.8,0,0,1-.08-.21c-.12-.32-.32-.85-.86-.85H1287a.67.67,0,0,0-.62.4c0-.15,0-.29,0-.41-.16-1.73-.23-2.45-.88-2.45s-.71.68-.88,2.7c0,.62-.13,1.51-.21,1.86a1.06,1.06,0,0,0-.23.19c0-.47-.07-1-.1-1.43-.18-2.57-.23-3.26-.89-3.26-.48,0-.64.4-.76,1.34-.13-1-.28-1.39-.78-1.39s-.67.49-.8,1.4c-.12-.56-.3-.89-.73-.89-.62,0-.7.6-.86,2.56-.09-.34-.21-.57-.42-.66a6,6,0,0,1-.15-.67c-.14-.74-.27-1.44-.91-1.48a1,1,0,0,0-.73-.34c-.66,0-.71.68-.89,3.18,0,.33,0,.72-.08,1.1a.64.64,0,0,0-.57-.32.74.74,0,0,0-.63.36l0-.18c-.15-1-.25-1.65-.9-1.69a1.08,1.08,0,0,0-.55-.33,2.15,2.15,0,0,1-.1-.27c-.12-.38-.3-1-.86-1s-.72.72-.88,1.81a7,7,0,0,1-.11.72.74.74,0,0,0-.37-.16l-.08-.21c-.12-.32-.32-.86-.86-.86s-.72.71-.88,1.88l0,.23a.7.7,0,0,0-.62-.37.33.33,0,0,1-.17,0,1.12,1.12,0,0,0-.3-.11c-.07-.32-.14-1-.18-1.44-.17-1.58-.24-2.3-.88-2.3s-.74.69-.88,1.56a6.67,6.67,0,0,1-.16.78c-.37.17-.49.7-.6,1.17a3.76,3.76,0,0,1-.13.48.83.83,0,0,0-.38.27c0-.09,0-.19,0-.26-.15-.91-.26-1.62-.88-1.62a1,1,0,0,0-.8.52,1.16,1.16,0,0,0-.83-.4,1,1,0,0,0-.67-.23c-.64,0-.73.73-.88,2.06,0,.21-.06.46-.09.69a.75.75,0,0,0-.57-.25v1a.23.23,0,0,1-.15-.06s.06.11.09.16A1,1,0,0,0,1260.87,591.17Z"/><rect class="cls-1" x="1260.1" y="604.68" width="162.5" height="1"/><path class="cls-1" d="M132.09,324.56c-.84-4-1.6-8-2.26-12l9.86-1.63c.64,3.87,1.37,7.77,2.18,11.61Zm-4-24.18c-.48-4.05-.87-8.16-1.16-12.21l10-.72c.28,3.9.66,7.85,1.12,11.75Zm-1.77-24.46c-.06-2.37-.09-4.77-.09-7.13,0-1.71,0-3.42,0-5.13l10,.2c0,1.64,0,3.28,0,4.93,0,2.27,0,4.59.09,6.87Zm10.45-23.85-10-.65c.26-4.06.63-8.18,1.08-12.24l9.94,1.11C137.39,244.2,137,248.16,136.79,252.07Zm2.62-23.5L129.53,227c.64-4,1.38-8.09,2.2-12.08l9.8,2C140.74,220.78,140,224.69,139.41,228.57Zm509.32-13c-.76-3.61-1.61-7.26-2.53-10.84l9.69-2.48c1,3.73,1.83,7.51,2.62,11.26ZM144.18,205.42l-9.7-2.46c1-4,2.12-7.93,3.3-11.82l9.57,2.9C146.21,197.79,145.14,201.62,144.18,205.42ZM643,193.4c-1.14-3.76-2.39-7.54-3.69-11.21l9.43-3.34c1.35,3.81,2.64,7.73,3.83,11.64ZM151,182.82l-9.43-3.34c1.36-3.84,2.83-7.7,4.36-11.47l9.26,3.77C153.76,175.41,152.35,179.12,151,182.82Zm484.09-11.66c-1.47-3.63-3-7.27-4.69-10.83l9.08-4.18c1.7,3.69,3.35,7.48,4.88,11.24Zm-475.2-10.22-9.09-4.18c1.7-3.69,3.51-7.39,5.38-11l8.89,4.59C163.3,153.82,161.56,157.39,159.93,160.94Zm465.32-11.2c-1.8-3.49-3.71-7-5.67-10.35l8.66-5c2,3.52,4,7.13,5.89,10.75ZM170.76,140l-8.67-5c2-3.52,4.17-7,6.35-10.49l8.44,5.38C174.77,133.18,172.71,136.57,170.76,140Zm442.7-10.63c-2.11-3.3-4.33-6.59-6.58-9.77l8.17-5.77c2.33,3.3,4.63,6.72,6.83,10.14Zm-430-9.27-8.18-5.75c2.34-3.32,4.79-6.64,7.27-9.86l7.92,6.11C188.05,113.66,185.69,116.86,183.44,120.06Zm416.42-10c-2.4-3.08-4.9-6.15-7.45-9.14l7.6-6.49c2.65,3.1,5.25,6.29,7.74,9.49Zm-402-8.71-7.62-6.46c2.63-3.11,5.37-6.19,8.13-9.16l7.33,6.8C203,95.44,200.41,98.4,197.87,101.39Zm386.68-9.21c-2.67-2.86-5.45-5.69-8.25-8.42l7-7.16c2.91,2.84,5.79,5.78,8.57,8.74ZM213.93,84.12l-7-7.14c2.91-2.85,5.91-5.67,8.93-8.38l6.67,7.45C219.62,78.65,216.73,81.37,213.93,84.12Zm353.74-8.4c-2.92-2.6-5.95-5.17-9-7.64l6.3-7.77c3.16,2.57,6.3,5.24,9.34,7.94ZM231.48,68.38l-6.34-7.74c3.14-2.57,6.39-5.1,9.65-7.53l6,8C237.62,63.47,234.5,65.91,231.48,68.38Zm317.87-7.53c-3.14-2.33-6.39-4.62-9.65-6.8l5.58-8.3c3.38,2.27,6.75,4.64,10,7.06Zm-299-6.54L244.78,46c3.36-2.27,6.82-4.5,10.29-6.62L260.28,48C256.94,50,253.61,52.13,250.37,54.31Zm279.39-6.62c-3.34-2-6.78-4-10.23-5.9l4.8-8.77c3.58,1.95,7.15,4,10.62,6.12ZM270.49,42l-4.81-8.76c3.57-2,7.23-3.87,10.87-5.66l4.41,9C277.45,38.31,273.93,40.14,270.49,42Zm238.56-5.67c-3.51-1.72-7.12-3.39-10.72-4.95l4-9.18c3.74,1.63,7.48,3.36,11.13,5.15ZM291.67,31.63l-4-9.17c3.73-1.62,7.54-3.18,11.35-4.63l3.56,9.34C298.93,28.57,295.26,30.07,291.67,31.63ZM487.39,27c-3.68-1.41-7.42-2.74-11.13-4l3.14-9.5c3.85,1.27,7.73,2.66,11.55,4.11ZM313.71,23.21l-3.14-9.49c3.85-1.27,7.79-2.47,11.72-3.58L325,19.77C321.21,20.83,317.41,22,313.71,23.21ZM465,19.54c-3.78-1.06-7.64-2-11.45-2.92l2.26-9.75c4,.92,8,1.94,11.89,3ZM336.43,16.83l-2.27-9.74q2.8-.64,5.63-1.25c2.13-.45,4.27-.87,6.37-1.26L348,14.41c-2,.38-4.08.79-6.14,1.22Q339.14,16.2,336.43,16.83Zm105.51-2.61c-3.87-.71-7.79-1.34-11.67-1.87l1.35-9.91c4,.55,8.11,1.21,12.12,1.94Zm-82.29-1.71-1.39-9.9c4-.57,8.14-1,12.18-1.43l.93,10C367.48,11.5,363.54,12,359.65,12.51ZM418.52,11c-3.9-.35-7.86-.62-11.78-.79l.44-10c4.07.18,8.19.45,12.23.82Zm-35.37-.73-.49-10c4.06-.2,8.19-.3,12.26-.31l0,10C391,10,387.05,10.11,383.15,10.3Z"/><path class="cls-1" d="M1106.19,933.89c-2.19,0-4.41,0-6.57-.07l.23-10c2.08,0,4.2.07,6.33.07,1.84,0,3.66,0,5.48,0l.21,10C1110,933.87,1108.09,933.89,1106.19,933.89Zm17.92-.59-.66-10c3.91-.26,7.87-.61,11.76-1.05l1.11,9.94C1132.28,932.66,1128.18,933,1124.11,933.3Zm-36.73,0c-4.07-.28-8.18-.66-12.21-1.12l1.14-9.93c3.88.44,7.83.8,11.75,1.07Zm61.08-2.69-1.56-9.88c3.88-.61,7.78-1.32,11.61-2.11l2,9.8C1156.55,929.19,1152.49,929.93,1148.46,930.57Zm-85.43-.1c-4-.64-8.07-1.39-12-2.22l2-9.79c3.83.8,7.73,1.52,11.6,2.14Zm109.44-4.84-2.46-9.69c3.8-1,7.63-2,11.36-3.16l2.91,9.56C1180.39,923.52,1176.42,924.63,1172.47,925.63ZM1039,925.48c-3.94-1-7.91-2.13-11.8-3.32l2.92-9.56c3.75,1.15,7.58,2.22,11.36,3.19Zm156.88-7-3.34-9.43c3.69-1.3,7.4-2.71,11-4.19l3.77,9.26C1203.61,915.69,1199.75,917.16,1195.92,918.52Zm-180.35-.23c-3.83-1.36-7.69-2.84-11.48-4.4l3.8-9.25c3.64,1.49,7.35,2.92,11,4.24Zm203-9-4.19-9.08c3.55-1.63,7.11-3.38,10.58-5.17l4.6,8.88C1226,905.78,1222.28,907.59,1218.6,909.29ZM992.84,909c-3.69-1.72-7.4-3.55-11-5.43l4.62-8.87c3.48,1.82,7,3.58,10.61,5.23ZM1240.33,898l-5-8.66c3.38-2,6.77-4,10.07-6.12l5.39,8.42C1247.36,893.87,1243.84,896,1240.33,898Zm-269.25-.41c-3.53-2-7.05-4.21-10.47-6.41l5.41-8.41c3.3,2.12,6.69,4.2,10.08,6.17ZM1261,884.85l-5.77-8.17c3.21-2.26,6.4-4.62,9.49-7l6.12,7.9C1267.59,880.06,1264.28,882.51,1261,884.85Zm-310.5-.51c-3.32-2.36-6.63-4.82-9.83-7.33l6.15-7.88c3.09,2.41,6.27,4.79,9.47,7.06Zm329.85-14.5-6.48-7.61c3-2.54,6-5.18,8.81-7.85l6.82,7.31C1286.48,864.46,1283.4,867.21,1280.3,869.84Zm-349.17-.59c-3.09-2.64-6.16-5.4-9.13-8.18l6.84-7.3c2.86,2.69,5.82,5.34,8.79,7.89Zm367.09-16.11-7.14-7c2.74-2.8,5.46-5.7,8.07-8.62l7.45,6.67C1303.89,847.22,1301.07,850.23,1298.22,853.14Zm-385-.66c-2.83-2.91-5.64-5.93-8.35-9l7.48-6.65c2.61,2.94,5.31,5.85,8,8.64Zm401.31-17.61-7.75-6.32c2.48-3,4.92-6.18,7.26-9.32l8,6C1319.68,828.46,1317.14,831.71,1314.57,834.87ZM897,834.17c-2.56-3.17-5.08-6.43-7.49-9.69l8-5.94c2.31,3.14,4.74,6.28,7.21,9.33Zm432.21-19-8.29-5.6c2.2-3.25,4.35-6.6,6.39-9.94l8.53,5.21C1333.7,808.33,1331.47,811.81,1329.19,815.19Zm-446.75-.73c-2.26-3.37-4.47-6.84-6.58-10.32l8.55-5.18c2,3.34,4.16,6.69,6.34,9.94ZM1342,794.24l-8.77-4.81c1.89-3.44,3.73-7,5.45-10.49l9,4.41C1345.84,787,1343.94,790.67,1342,794.24Zm-472.22-.71c-2-3.56-3.84-7.22-5.62-10.87l9-4.38c1.72,3.51,3.53,7,5.4,10.46Zm483-21.32-9.17-4c1.57-3.61,3.08-7.29,4.47-11l9.35,3.57C1356,764.64,1354.43,768.46,1352.8,772.21ZM859,771.55c-1.61-3.74-3.16-7.56-4.59-11.34l9.35-3.54c1.38,3.64,2.87,7.31,4.42,10.91Zm502.54-22.29-9.5-3.13c1.23-3.74,2.39-7.54,3.44-11.29l9.63,2.69C1364.05,741.43,1362.85,745.38,1361.57,749.26Zm-511.21-.61c-1.26-3.86-2.46-7.8-3.55-11.73l9.64-2.67c1,3.78,2.2,7.58,3.41,11.29Zm517.81-23-9.74-2.25c.88-3.8,1.68-7.69,2.39-11.55l9.83,1.8C1369.92,717.66,1369.08,721.7,1368.17,725.65ZM843.81,725c-.9-4-1.73-8-2.45-12l9.84-1.78c.69,3.85,1.49,7.74,2.36,11.56Zm528.77-23.49-9.9-1.35c.52-3.87,1-7.82,1.32-11.73l10,.9C1373.6,693.43,1373.13,697.53,1372.58,701.55Zm-533.13-.63c-.54-4-1-8.13-1.35-12.18l10-.88c.35,3.91.79,7.85,1.3,11.73Zm535.34-23.78-10-.44c.17-3.91.26-7.87.26-11.81h10C1375.06,669,1375,673.09,1374.79,677.14Zm-537.48-.63c-.17-3.84-.25-7.75-.25-11.62h10c0,3.73.08,7.5.24,11.2Z"/><g id="Group_5561" data-name="Group 5561"><g id="Group_5560" data-name="Group 5560"><path id="Union_10" data-name="Union 10" class="cls-2" d="M992.68,619.27H506.06a14.91,14.91,0,0,1-7.8-2.18,14.64,14.64,0,0,1-2.47-1.88l-.08-.09c-.19-.17-.36-.34-.54-.52h0A15,15,0,0,1,491,604.26V561.69h2.46v42.57a12.54,12.54,0,0,0,5.44,10.34h0c.27.18.54.36.82.52l.15.09a12.49,12.49,0,0,0,6.15,1.61H992.6a13.87,13.87,0,0,0,7.85-2.82l.11-.08a7.43,7.43,0,0,0,.62-.52h0a12.27,12.27,0,0,0,1.3-1.3,12.42,12.42,0,0,0,2.75-7.84h.57a10.57,10.57,0,0,0,0-1.13V558.69h2.47v44.44a16,16,0,0,1-3.71,10.27h0a1.71,1.71,0,0,1-.11.14c-.29.36-.59.72-.91,1.06h0c-.17.18-.35.36-.53.52l-.09.09a14.87,14.87,0,0,1-10.22,4.06Zm13.17-60.58V336.09h-.61V268.91a12.54,12.54,0,0,0-2.75-7.84,13.83,13.83,0,0,0-9.76-4.72H506.06a12.56,12.56,0,0,0-12.56,12.56v65H491v-65a15,15,0,0,1,15-15H992.68a15,15,0,0,1,11.74,5.65l.43.53a16,16,0,0,1,3.47,10V558.69Z"/><path id="Union_8" data-name="Union 8" class="cls-3" d="M849.81,624.76l-100.89-.1-100.06.1c-58.16,0-124.58.08-160.91,0-14.68,0-24.45-.06-26.75-.12a39.89,39.89,0,0,1-8-1.07,59,59,0,0,1-17.52-7.49l-.13-.08-.64-.42-.08-.06h0l.08-.06,5.36-3.36h246l12.49.58H699l8.07.38h0l26.49,1.22h.08l15.64.72,15.66-.72h.07l26.49-1.22h0l8.08-.38h.24l12.48-.58h246l5.36,3.36.08.06h0l-.08.06-.64.42-.13.09a59.1,59.1,0,0,1-17.52,7.48,39.18,39.18,0,0,1-8,1.07c-2.3.06-12.07.1-26.76.12-15.14,0-35.51,0-58.33,0C920.45,624.81,883.73,624.78,849.81,624.76Z"/><path id="Union_7" data-name="Union 7" class="cls-4" d="M749.84,634.89h-7.21l-306-.19h0l.08,0c.12-.07,26.39-8,26.29-8s113.94.06,200.11,0l79.66,0h14.14l79.65,0c86.17,0,200.12.07,200.12,0s26.17,7.92,26.28,8l.08,0h0l-306,.2h-7.21Z"/><path id="Union_9" data-name="Union 9" class="cls-5" d="M850.17,623.28l-100.47-.09c-18.23,0-57.05.06-100.48.08-58.16,0-124.58.07-160.9,0-14.69,0-24.46,0-26.76-.1a43.92,43.92,0,0,1-8-.95,63.57,63.57,0,0,1-17.52-6.6l-.13-.08-.64-.36a.24.24,0,0,0-.08-.06h0l.08,0,5.36-3h246l12.49.52h.25l8.08.33h0L734,614h.08l15.65.64,15.65-.64h.07L791.91,613h0l8.08-.33h.24l12.49-.52h246l5.36,3,.09,0h0l-.09.06-.64.36-.13.08a63.77,63.77,0,0,1-17.52,6.6,43.9,43.9,0,0,1-8,.94c-2.31.06-12.08.1-26.76.11-15,0-35,0-57.49,0C921.47,623.32,884.39,623.3,850.17,623.28Z"/><g id="Union_1" data-name="Union 1" class="cls-6"><path id="Path_3055" data-name="Path 3055" class="cls-7" d="M589.18,610.14c-.26,0-.48.44-.48,1v5H719.24v-6Zm321,.16h0Zm0,0s0,.08,0,.13v5.08s-.12.18-.36.49l-.06.09h.62v-5a1.34,1.34,0,0,0-.22-.82Zm-191-.17v6h27.83v-6Z"/><path id="Path_3056" data-name="Path 3056" class="cls-1" d="M589.18,610.14c-.26,0-.48.44-.48,1v5H719.24v-6Zm130,5.86H588.74v-4.87c0-.5.2-.91.44-.91h130Zm191-5.7h0Zm0,0s0,.08,0,.13a1.38,1.38,0,0,1,.16.69V616h-.52l-.06.1h.62v-5a1.34,1.34,0,0,0-.22-.82Zm-191-.17v6h27.83V616h-27.8v-5.78h27.79v-.08Z"/></g><g id="Group_5559" data-name="Group 5559"><path id="Path_4" data-name="Path 4" class="cls-8" d="M436.17,609.61h263v5.91H435.18v-4.93A1,1,0,0,1,436.17,609.61Z"/><path id="Path_4-2" data-name="Path 4-2" class="cls-8" d="M1063.23,609.61h-263v5.91h263.94v-4.93a1,1,0,0,0-1-1Z"/></g><g id="Group_5558" data-name="Group 5558"><rect id="Rectangle_1877" data-name="Rectangle 1877" class="cls-9" x="698.97" y="609.62" width="56.47" height="5.91"/><rect id="Rectangle_1877-2" data-name="Rectangle 1877-2" class="cls-10" x="743.63" y="609.62" width="56.47" height="5.91"/></g><g id="Union_1-2" data-name="Union 1-2" class="cls-6"><path id="Path_3055-2" data-name="Path 3055-2" class="cls-7" d="M909.93,610.14c.26,0,.48.44.48,1v5H779.88v-6Zm-321,.16h0Zm0,0s0,.08,0,.13v5.08s.12.18.36.48l.06.1h-.62v-5a1.32,1.32,0,0,1,.22-.82Zm191-.17v6H752.05v-6Z"/><path id="Path_3056-2" data-name="Path 3056-2" class="cls-1" d="M909.93,610.14c.26,0,.48.44.48,1v5H779.88v-6Zm-130,5.86H910.37v-4.87c0-.5-.2-.91-.44-.91h-130Zm-191-5.7h0Zm0,0s0,.08,0,.13a1.38,1.38,0,0,0-.16.69V616h.52l.06.1h-.62v-5a1.32,1.32,0,0,1,.22-.82Zm191-.17v6H752.05V616h27.79v-5.78H752v-.08Z"/></g></g><g id="Group_4093" data-name="Group 4093"><g id="Group_4091" data-name="Group 4091"><path id="Exclusion_2" data-name="Exclusion 2" class="cls-8" d="M549.5,359.07V339.33a15.08,15.08,0,0,0-15.12-15.12h-90.2a15,15,0,0,0-10.69,4.42,15.31,15.31,0,0,0-3.25,4.81,15,15,0,0,0-1.18,5.89V549.46a15.07,15.07,0,0,0,1.18,5.89,15.42,15.42,0,0,0,3.25,4.81,15.1,15.1,0,0,0,10.69,4.42h90.2a15.15,15.15,0,0,0,10.7-4.42,15,15,0,0,0,4.42-10.7V379.88l1.83-1.68V360.56Zm-4.69,189.61a11.48,11.48,0,0,1-11.47,11.47H445.22a11.48,11.48,0,0,1-11.47-11.47v-208a11.48,11.48,0,0,1,11.47-11.47h88.12a11.48,11.48,0,0,1,11.47,11.47Z"/></g><rect id="Rectangle_1872" data-name="Rectangle 1872" class="cls-11" x="429.06" y="364.88" width="2.09" height="9.39"/><rect id="Rectangle_1873" data-name="Rectangle 1873" class="cls-11" x="429.06" y="378.43" width="2.09" height="9.39"/><path id="Path_3084" data-name="Path 3084" class="cls-8" d="M520.82,551v1.05a1,1,0,0,1-1,1H460.34a1,1,0,0,1-1-1h0V551a1,1,0,0,1,1-1h59.44a1,1,0,0,1,1,1Z"/><path id="Path_3085" data-name="Path 3085" class="cls-8" d="M517.18,329.94v3.65a3.13,3.13,0,0,1-3.13,3.13h-48a3.13,3.13,0,0,1-3.13-3.13v-3.65a2.93,2.93,0,0,1,.1-.78,3.13,3.13,0,0,1,3-2.35h48a3.14,3.14,0,0,1,3,2.35A3.4,3.4,0,0,1,517.18,329.94Z"/></g></g></g></g></svg>