<svg xmlns="http://www.w3.org/2000/svg" width="460.642" height="416.013" viewBox="0 0 460.642 416.013">
  <path id="world" d="M339.642-8.494c0-7.81-9.763-15-29-21.357a208.043,208.043,0,0,0-30.374-88.542c39.4-7.984,59.375-17.8,59.375-29.17,0-16.825-47.314-31.236-126.571-38.551l-1.439-.129A207.165,207.165,0,0,0,103.742-216.5,207.292,207.292,0,0,0-6.271-184.944l-1.476.156C-79.722-177.011-121-163.442-121-147.563c0,10.3,16.677,19.4,49.571,27.039a207.529,207.529,0,0,0-32.138,95.093C-115.134-20.215-121-14.515-121-8.494s5.864,11.72,17.433,16.937a207.517,207.517,0,0,0,32.138,95.093C-104.323,111.176-121,120.273-121,130.576c0,15.861,41.171,29.413,112.924,37.173l1.793.2a207.279,207.279,0,0,0,110.025,31.564,207.178,207.178,0,0,0,107.889-30.256l.3-.029c.379-.035.76-.072,1.152-.1,79.243-7.314,126.554-21.725,126.554-38.551,0-11.374-19.975-21.185-59.375-29.17a208.035,208.035,0,0,0,30.374-88.542C329.886,6.5,339.642-.688,339.642-8.494Zm-28.67-17.881c16.444,5.612,25.482,11.943,25.482,17.881S327.417,3.773,310.973,9.387c.515-5.937.776-11.945.776-17.881S311.487-20.438,310.973-26.374Zm-38.7,132.753c-.3.443-.614.88-.928,1.318l-1.068,1.516c-.459.658-.918,1.315-1.388,1.962q-.5.681-1.012,1.355l-1.328,1.771c-.392.528-.786,1.057-1.186,1.576-.386.5-.778.985-1.172,1.476l-1.189,1.5c-.429.544-.859,1.089-1.3,1.627-.387.47-.781.934-1.176,1.4L259.24,123.4c-.441.528-.881,1.055-1.331,1.573-.381.437-.767.865-1.152,1.294l-1.291,1.446c-.488.553-.977,1.1-1.476,1.648-.381.414-.768.821-1.157,1.227l-1.235,1.309c-.547.582-1.093,1.167-1.65,1.739-.367.375-.74.746-1.114,1.116l-1.395,1.4c-.545.551-1.093,1.1-1.65,1.642-.373.363-.752.719-1.133,1.074l-1.49,1.411c-.548.521-1.1,1.044-1.654,1.557-.4.363-.8.722-1.207,1.079l-1.325,1.184c-.177.156-.352.316-.528.472V27.291l13.182-1.757,19.7-3.172c.846-.153,1.677-.309,2.51-.465l12.673-2.565c.838-.185,1.659-.373,2.483-.563l2.227-.512c.811-.191,1.6-.384,2.4-.579.712-.174,1.43-.349,2.129-.526.783-.2,1.546-.4,2.418-.628.646-.167,1.291-.338,1.922-.508s1.248-.344,1.862-.516l2.286-.65c.714-.209,1.409-.421,2.1-.631l.156-.046a203.884,203.884,0,0,1-30.984,87.312Q273.928,103.955,272.269,106.378ZM307.7-3.42l-.072,1.983c-.032,1.022-.065,2.045-.115,3.06-.022.414-.049.826-.075,1.238l-.08,1.3c-.048.813-.094,1.627-.156,2.432-.038.526-.085,1.046-.134,1.565l-.105,1.226c-.038.448-.076.9-.116,1.345-.48.148-.966.3-1.452.443l-1.659.5c-.595.177-1.21.349-1.825.521l-2.275.641c-.582.159-1.178.316-1.776.472l-2.517.66c-.741.188-1.5.373-2.265.558l-2.223.545c-.674.159-1.364.316-2.055.473l-2.616.6c-.7.156-1.425.309-2.147.464l-7.748,1.586c-.757.148-1.527.292-2.3.435L269,19.542l-26.282,4c-.88.115-1.774.226-2.665.336l-1.6.2v-135.84l.029,0c.974-.118,1.949-.238,2.912-.362l9.412-1.266,25.289-4.178a203.823,203.823,0,0,1,30.657,88.8,201.039,201.039,0,0,1,1.012,20.273Q307.764-5.952,307.7-3.42ZM243.488-156.953c.7.654,1.4,1.307,2.082,1.972.381.367.756.743,1.128,1.117l1.151,1.144c.626.617,1.25,1.235,1.865,1.866.371.381.738.768,1.1,1.154l.972,1.023c.655.684,1.309,1.369,1.951,2.069.384.411.759.832,1.133,1.253l1.135,1.264c.548.609,1.1,1.215,1.635,1.831.383.442.76.891,1.14,1.339l.955,1.127c.566.663,1.13,1.326,1.683,2,.354.43.7.869,1.052,1.305l1.063,1.329c.515.642,1.028,1.283,1.533,1.93.394.51.779,1.023,1.165,1.538l.814,1.077c.515.681,1.033,1.36,1.535,2.05.373.512.74,1.028,1.106,1.546l.846,1.191c.478.673.958,1.344,1.427,2.024.379.553.751,1.111,1.122,1.667l.4.6c.241.36.481.719.72,1.081l-8.913,1.594L242.8-115.522c-.7.092-1.4.185-2.11.273l-2.235.281v-46.573l.733.649c.712.63,1.425,1.259,2.126,1.9.378.346.751.7,1.124,1.05ZM219.345-176.5l1.071.752c.929.647,1.857,1.293,2.772,1.957.324.234.641.475.96.714l1.291.963c.814.6,1.631,1.208,2.436,1.83.34.26.673.526,1.006.792l1.291,1.023c.767.6,1.532,1.2,2.287,1.82.363.3.722.6,1.081.9l1.726,1.454v49.713l-2.088.247-36,3.421-35.61,2.094-46.338,1.09q-2.95.014-5.905.014l-2.367-.006V-212.49a203.46,203.46,0,0,1,101.612,29.011q2.506,1.506,4.965,3.086c.238.153.472.309.7.465l.595.4c1.2.783,2.394,1.564,3.575,2.37C218.723-176.949,219.034-176.725,219.345-176.5Zm11.02,201.551c-1.041.118-2.1.231-3.153.347L217.494,26.4c-1.041.1-2.094.2-3.145.3l-3.465.325-37.159,2.64-41.573,1.482q-1.666.033-3.342.053l-11.833.132q-3.818.024-7.656.024l-2.367-.008v-135.88l2.367.006q2.965,0,5.921-.014l5.92-.041,36.958-.907c1.248-.049,2.5-.1,3.739-.151l7.388-.344c1.321-.064,2.643-.129,3.955-.2l5.584-.308,23.6-1.629c1.213-.1,2.429-.194,3.634-.3l1.648-.143c1.207-.1,2.416-.207,3.613-.316l5.2-.481,18.788-2.013V24.473ZM-33.5-116.8c-.783-.115-1.562-.226-2.337-.344L-47.3-118.976c-.881-.151-1.763-.3-2.632-.456l-10.767-2.04c-.775-.156-1.551-.311-2.313-.472l-2.375-.507.324-.473.62-.907c.4-.587.8-1.173,1.207-1.753s.819-1.143,1.234-1.712l.706-.975c.434-.6.864-1.194,1.305-1.787.421-.566.853-1.125,1.283-1.683l.846-1.106c.41-.536.819-1.069,1.235-1.6s.853-1.063,1.282-1.594l.9-1.1c.435-.537.87-1.076,1.313-1.608.54-.649,1.092-1.288,1.642-1.929l.708-.824c.416-.488.832-.977,1.256-1.457.489-.558.987-1.108,1.487-1.656l1.041-1.151c.394-.438.791-.878,1.191-1.31.555-.6,1.119-1.184,1.683-1.774l.931-.974c.4-.426.8-.851,1.216-1.27.63-.641,1.267-1.272,1.908-1.9l.832-.83c.4-.4.792-.792,1.194-1.181.657-.634,1.325-1.259,1.992-1.884l.939-.883c.367-.349.736-.7,1.108-1.041.634-.58,1.277-1.151,1.919-1.721L-31-161.51c.376-.338.752-.677,1.135-1.009.652-.566,1.312-1.122,1.973-1.678l.164-.135v48.348Zm-32.691-2.568c.767.167,1.535.333,2.318.5l1.913.391c.784.163,1.567.322,2.364.48l6.376,1.21c.843.153,1.686.308,2.544.461l2.021.349c.862.15,1.721.3,2.6.446l18.332,2.764V23.091l-11.75-1.709c-1.007-.156-2.016-.311-3-.47l-3.5-.582c-.85-.14-1.7-.281-2.53-.426l-3.071-.548c-.931-.167-1.865-.332-2.777-.5l-3.02-.58c-.881-.169-1.761-.338-2.62-.508l-2.719-.563c-.912-.188-1.825-.375-2.718-.569l-2.882-.641c-.783-.174-1.565-.346-2.326-.524-.489-.113-.968-.228-1.443-.346l-1.144-.274c-.8-.194-1.61-.386-2.389-.582l-2.584-.669c-.73-.188-1.465-.378-2.174-.569-.459-.124-.9-.25-1.347-.376l-1.315-.371c-.623-.174-1.245-.349-1.847-.526-.432-.128-.848-.255-1.266-.384l-.94-.288c-.693-.21-1.391-.419-2.059-.634-.4-.126-.783-.255-1.165-.384L-91.414,9.7c-.595-.2-1.186-.392-1.756-.593-.4-.139-.786-.281-1.17-.424l-.91-.332c-.563-.2-1.127-.406-1.666-.612-.378-.147-.741-.293-1.1-.44l-.886-.357c-.271-.108-.54-.215-.8-.325-.081-1.141-.142-2.3-.2-3.46l-.112-1.921c-.035-.574-.073-1.144-.094-1.728-.105-2.687-.158-5.378-.158-8,0-5.461.214-10.871.631-16.1A203.564,203.564,0,0,1-67.3-119.6ZM-99.374,10.19c.569.223,1.135.449,1.725.674.612.231,1.246.462,1.879.689s1.285.465,1.949.7,1.336.453,2.012.674,1.366.453,2.067.676c.612.194,1.24.386,1.868.577l.65.2c.6.182,1.2.363,1.817.544.7.2,1.415.4,2.254.639l.37.1c.642.18,1.285.36,1.943.537l2.828.738c.654.171,1.309.34,1.978.505.818.2,1.651.4,2.487.6l.363.088c.724.174,1.449.349,2.187.518.692.161,1.4.319,2.1.473l.493.112c.881.2,1.756.391,2.655.585l5.472,1.132c.738.147,1.487.29,2.239.435l9.315,1.705c.783.137,1.578.269,2.373.4l1.275.214c.8.134,1.607.268,2.42.4.763.124,1.535.245,2.31.363l3.956.609c.843.128,1.7.249,2.558.371l1.258.182c.869.124,1.737.25,2.619.373l2.22.3V147.342l-.647-.545c-.564-.477-1.132-.953-1.686-1.438-.411-.357-.814-.722-1.219-1.085l-1.3-1.167c-.548-.486-1.1-.974-1.64-1.473-.4-.373-.8-.754-1.205-1.135l-1.277-1.207c-.528-.5-1.054-.988-1.575-1.493-.371-.36-.736-.728-1.1-1.1l-1.329-1.326c-.51-.5-1.02-1.007-1.521-1.522-.389-.4-.77-.8-1.152-1.207l-1.235-1.3c-.489-.51-.975-1.019-1.457-1.537-.507-.551-1.006-1.111-1.5-1.669l-1.136-1.262c-.367-.4-.732-.8-1.09-1.213-.5-.572-.991-1.152-1.481-1.731l-1.226-1.439c-.308-.359-.615-.717-.915-1.079-.491-.59-.971-1.189-1.449-1.787l-1.16-1.441c-.3-.368-.6-.736-.9-1.113-.614-.783-1.211-1.576-1.811-2.37l-.822-1.081c-.25-.325-.5-.649-.748-.98-.631-.851-1.246-1.715-1.863-2.577L-63,108.926c-.191-.265-.384-.529-.574-.8q-1.6-2.279-3.129-4.6A203.632,203.632,0,0,1-99.428,10.168ZM103.742-212.515h.024v104.786l-2.609-.016q-2.336-.012-4.67-.035l-31.45-.712-30.3-1.474-25.3-1.9c-1.159-.1-2.316-.2-3.465-.311l-2.2-.209c-1.108-.1-2.219-.207-3.322-.317l-7.5-.773c-1.109-.118-2.219-.238-3.32-.362l-14.162-1.72v-51.431c.306-.247.614-.491.923-.736l1.278-1.022c.344-.279.69-.558,1.041-.83.748-.583,1.5-1.151,2.26-1.72l1.181-.893c.325-.249.652-.5.98-.741.832-.614,1.675-1.21,2.517-1.807l1.052-.752c.311-.223.622-.448.936-.666,1.05-.73,2.115-1.441,3.277-2.216l.524-.357c.261-.177.521-.355.786-.529q2.314-1.518,4.667-2.969A203.221,203.221,0,0,1,103.742-212.515ZM92.263,31.24l-3.569-.057c-1.624-.026-3.248-.051-4.863-.083L79.5,31q-2.013-.043-4.015-.1l-4.72-.142c-1.189-.035-2.377-.069-3.554-.108l-4.758-.177c-1.144-.04-2.287-.083-3.422-.129l-4.874-.214c-1.073-.046-2.145-.091-3.21-.142L19.668,28.049l-26.1-2.389c-1.042-.11-2.085-.217-3.11-.33l-4.147-.475c-.931-.107-1.863-.212-2.781-.32l-3.872-.48c-.966-.118-1.935-.237-2.888-.362l-1.313-.174V-112.342l5.3.673c1.019.126,2.035.252,3.065.373l21.725,2.284,28.883,2.219,30.407,1.486,38.931.767V31.335l-7.321-.051C95.049,31.271,93.651,31.257,92.263,31.24ZM-10.543,160.406c-.657-.442-1.313-.881-1.965-1.333-.394-.274-.783-.558-1.172-.838l-1.395-1c-.654-.465-1.309-.931-1.954-1.406-.391-.29-.776-.585-1.162-.881l-1.352-1.025c-.644-.485-1.289-.971-1.927-1.468-.383-.3-.759-.6-1.136-.91l-1.938-1.559V26.724l1.21.159c.877.115,1.764.223,2.652.332l1.376.172c.915.113,1.828.228,2.756.338l6.94.8c1.085.118,2.185.233,3.282.347l21.148,1.983L45.9,32.921l37.938,1.366c1.183.022,2.373.041,3.562.061l4.866.08c1.757.024,3.526.04,5.292.054l6.208.041V170.406c-37.593-.166-74.63-2.015-107.181-5.356-.317-.2-.628-.4-.94-.6l-1.446-.918c-.7-.445-1.4-.889-2.1-1.344-.394-.26-.784-.526-1.175-.792Zm13.182,8.44c31.081,2.955,65.945,4.594,101.128,4.748v22.731h-.024a204.153,204.153,0,0,1-102.556-27.6l1.508.153Zm104.316,4.759,2.367.006c32.463,0,63.865-1.213,93.394-3.605l-.147.089,1.61-.15a204.511,204.511,0,0,1-97.224,26.328Zm0-139.071,2.367.008q3.84,0,7.667-.024l2.157-.019q2.73-.022,5.454-.051l4.187-.062q1.7-.022,3.382-.053l19.082-.5c1.109-.037,2.22-.072,3.325-.113l7.33-.29,35.527-2.1,23.619-2.088c1.017-.1,2.039-.2,3.048-.311l3.444-.373c.98-.105,1.962-.212,2.931-.32l4.79-.561V147.307l-.864.732q-.882.753-1.776,1.492c-.418.339-.843.674-1.269,1.009l-1.546,1.232c-.593.477-1.184.952-1.787,1.417-.472.363-.953.719-1.433,1.074l-1.53,1.148c-.575.435-1.152.873-1.737,1.3-.512.371-1.03.733-1.548,1.1l-1.586,1.119c-.553.394-1.1.787-1.664,1.172s-1.111.743-1.669,1.111l-1.58,1.047c-.547.367-1.092.73-1.645,1.085-.593.381-1.192.749-1.792,1.121l-1.578.98c-.461.29-.921.58-1.387.862-31.183,2.735-64.676,4.122-99.555,4.122l-2.367-.006Zm171.48-155.81a209.071,209.071,0,0,0-40.258-45.793l-.3-.26A209.6,209.6,0,0,0,217.6-182.475c71.239,6.98,118.859,20.925,118.859,34.912C336.455-138.357,314.769-128.533,278.434-121.276Zm-290.673-59.8a208.091,208.091,0,0,0-57.335,57.709c-30.661-7.01-48.238-15.826-48.238-24.2C-117.812-160.649-76.5-173.727-12.239-181.075ZM-69.574,106.378a208.057,208.057,0,0,0,57.322,57.7c-64.251-7.332-105.56-20.4-105.56-33.5C-117.812,122.2-100.234,113.389-69.574,106.378Zm287.17,59.11a210.755,210.755,0,0,0,60.838-61.2c36.337,7.259,58.02,17.082,58.02,26.288C336.455,144.562,288.835,158.509,217.6,165.489ZM-103.83,4.8c-9.28-4.42-13.982-8.889-13.982-13.3s4.7-8.88,13.982-13.3c-.287,4.5-.434,8.964-.434,13.3S-104.117.308-103.83,4.8Z" transform="translate(121 216.5)" fill="#fff"/>
</svg>
