<svg xmlns="http://www.w3.org/2000/svg" viewBox="0 0 308.82 308.82"><defs><style>.cls-1{fill:none;}.cls-2{fill:#fff;}</style></defs><g id="Layer_2" data-name="Layer 2"><g id="Layer_1-2" data-name="Layer 1"><g id="Group_5848" data-name="Group 5848"><g id="Path_7590" data-name="Path 7590"><path class="cls-1" d="M156.65,152.08c-.73.79-1.47,1.56-2.24,2.33s-1.55,1.51-2.33,2.24c.73-.79,1.47-1.56,2.23-2.33S155.86,152.81,156.65,152.08Z"/><path class="cls-2" d="M154.31,154.32c.77-.77,1.55-1.51,2.34-2.24-.73.79-1.47,1.56-2.24,2.33s-1.55,1.51-2.33,2.24C152.81,155.86,153.55,155.09,154.31,154.32Z"/></g><g id="Path_7591" data-name="Path 7591"><path class="cls-1" d="M263.59,45.23a154.4,154.4,0,0,1,.71,217.66A77.27,77.27,0,0,0,156.65,152.08c-.79.73-3.73,3.76-5,5-28.62,27-77.16,26.6-106.41-2.65a77.22,77.22,0,0,1-.7-108.48l.71-.71.71-.7A154.4,154.4,0,0,1,263.59,45.23Z"/><path class="cls-2" d="M283.72,235.15a151.1,151.1,0,0,0,12.2-24A152.18,152.18,0,0,0,262.18,46.64a154.34,154.34,0,0,0-23.81-19.47A152.24,152.24,0,0,0,47.34,46h0c-.23.21-.45.44-.68.67l-.68.68h0a74.84,74.84,0,0,0-16.1,24.82,75.42,75.42,0,0,0-5.25,28.12,75.27,75.27,0,0,0,5.59,28.06A74.66,74.66,0,0,0,46.64,153a73.41,73.41,0,0,0,24.28,16.11,76.66,76.66,0,0,0,13.68,4.16,77.65,77.65,0,0,0,14.1,1.57,76.84,76.84,0,0,0,14.07-1,75,75,0,0,0,13.59-3.55A71.13,71.13,0,0,0,139,164.2a68.15,68.15,0,0,0,11.26-8.6c.33-.31.82-.79,1.52-1.49.42-.42.85-.86,1.28-1.28s.77-.79,1.11-1.12c.56-.56.91-.9,1.12-1.1a79.24,79.24,0,0,1,128.43,84.54M264.3,262.89A77.27,77.27,0,0,0,156.65,152.08c-.22.2-.6.58-1.06,1l-2.4,2.4c-.6.61-1.16,1.16-1.56,1.54-28.62,27-77.16,26.6-106.41-2.65a77.22,77.22,0,0,1-.7-108.48l.7-.7.71-.7A154.41,154.41,0,0,1,264.3,262.89Z"/></g><g id="Path_7592" data-name="Path 7592"><path class="cls-1" d="M156.65,152.08c-.73.79-1.47,1.56-2.24,2.33s-1.55,1.51-2.33,2.24c.73-.79,1.47-1.56,2.23-2.33S155.86,152.81,156.65,152.08Z"/><path class="cls-2" d="M154.31,154.32c.77-.77,1.55-1.51,2.34-2.24-.73.79-1.47,1.56-2.24,2.33s-1.55,1.51-2.33,2.24C152.81,155.86,153.55,155.09,154.31,154.32Z"/></g><g id="Path_7593" data-name="Path 7593"><path class="cls-1" d="M156.65,152.08c-.73.79-1.47,1.56-2.24,2.33s-1.55,1.51-2.33,2.24c.73-.79,1.47-1.56,2.23-2.33S155.86,152.81,156.65,152.08Z"/><path class="cls-2" d="M154.31,154.32c.77-.77,1.55-1.51,2.34-2.24-.73.79-1.47,1.56-2.24,2.33s-1.55,1.51-2.33,2.24C152.81,155.86,153.55,155.09,154.31,154.32Z"/></g><circle id="Ellipse_52" data-name="Ellipse 52" class="cls-2" cx="96.96" cy="102.42" r="28.04"/><path id="Path_7594" data-name="Path 7594" class="cls-2" d="M156.65,152.08c-.73.79-3.78,3.84-4.57,4.57A77.21,77.21,0,0,1,44.52,45.93,154.41,154.41,0,0,0,262.88,264.3c.25-.23.48-.47.71-.7l.71-.71A77.27,77.27,0,0,0,156.65,152.08Zm68,78.95a28,28,0,1,1,0-39.65,28,28,0,0,1,0,39.65Z"/></g></g></g></svg>